<svg enable-background="new 0 0 300 300" viewBox="0 0 300 300" xmlns="http://www.w3.org/2000/svg"><g fill="#fff"><path d="m 121.3 100 h 1.9 c .6 0 1 .5 .9 1.1 v .2 l -4.9 12.5 c -.4 1.1 .1 2.3 1.2 2.7 .6 .2 1.2 .2 1.7 -.1 l 26.1 -13.3 23.2 -13.6 c .6 -.4 1.4 -.3 2 .1 .7 .6 .9 1.7 .3 2.4 -.1 .1 -.1 .1 -.2 .2 l -7 6.6 c -.3 .2 -.3 .7 0 .9 .1 .1 .3 .2 .5 .2 h 41.8 c 11.7 0 21.2 -9.5 21.2 -21.3 v -57.3 c 0 -11.8 -9.5 -21.3 -21.3 -21.3 h -88.7 c -11 0 -20 9 -20 20 v 58.7 c 0 11.8 9.5 21.3 21.3 21.3 z m 67 -20 c -3.3 0 -5.9 -2.6 -5.9 -5.9 s 2.6 -5.9 5.9 -5.9 5.9 2.6 5.9 5.9 c 0 3.2 -2.6 5.9 -5.9 5.9 z m -11.6 -60.5 c 3.5 -2.9 7.9 -4.5 12.5 -4.5 10.1 0 18.4 7.5 18.4 16.7 0 1.2 -.1 2.5 -.4 3.7 -.7 4.2 -3.5 7.9 -7.9 11.1 -7.3 5.1 -5.9 5.8 -5.9 11 0 2.8 -2.3 5.1 -5.1 5.1 s -5.1 -2.3 -5.1 -5.1 v -5.2 c 0 -1.6 .4 -3.1 1.2 -4.5 1.4 -2.5 3.6 -4.1 4.6 -5 1.7 -1.6 3.3 -3.4 4.8 -5.2 1.2 -1.4 1.9 -3.2 1.9 -5 0 -2.7 -1.5 -5.3 -3.9 -6.5 -1.1 -.5 -2.3 -.8 -3.5 -.9 -1.1 0 -2.2 .2 -3.2 .7 -5.9 2.2 -5.1 9.6 -10.1 9.6 -1.6 .1 -3.1 -.5 -4.1 -1.7 -.7 -1 -1.1 -2.2 -1 -3.4 .1 -3.8 2.9 -8 6.8 -10.9 z m -46.7 25.5 h 10 v -10 c 0 -2.8 2.2 -5 5 -5 s 5 2.2 5 5 v 10 h 10 c 2.8 0 5 2.2 5 5 s -2.2 5 -5 5 h -10 v 10 c 0 2.8 -2.2 5 -5 5 s -5 -2.2 -5 -5 v -10 h -10 c -2.8 0 -5 -2.2 -5 -5 s 2.2 -5 5 -5 z"/><path d="m 295 280 h -11.6 l 3.6 -37.7 c .2 -1 -.5 -2 -1.6 -2.2 -.3 -.1 -.6 0 -.9 .1 l -19.4 9.8 c -.9 .3 -1.4 1.1 -1.3 2.1 l 2.5 27.9 h -7.3 l -.3 -34.1 c 0 -1.1 .7 -2 1.7 -2.3 l 23.6 -11.9 c 1 -.6 1.4 -1.8 .8 -2.8 -.1 -.1 -.2 -.3 -.3 -.4 -3.5 -3.8 -12.3 -12.6 -16.4 -15.9 -1.1 -.9 -2.5 -1.4 -3.9 -1.3 l -17.7 .1 c -.5 -.1 -1.2 .3 -1 .7 2.9 6.5 -1.8 19.5 -16.7 19.8 -14.9 -.3 -19.6 -13.3 -16.7 -19.8 .2 -.4 -.5 -.8 -1 -.7 l -17.7 -.1 c -1.4 0 -2.8 .5 -3.9 1.3 -5.7 5 -11.2 10.3 -16.4 15.9 -.9 1 -.6 2.6 .5 3.9 l 23.6 11.9 c 1.2 .6 1.7 .5 1.7 1.6 l .2 22.4 c .8 .1 1.7 0 2.5 -.3 l 2.3 -.9 c 1.4 -.6 3 -1 4.5 -1.1 2.5 -.2 5.1 .2 7.4 1.2 l 10.6 4.6 c .3 .1 .5 .3 .8 .4 2 1.3 3.2 3.6 3.1 6 0 1 -.9 1.8 -1.9 1.8 -1.5 0 -2.8 -1 -3.1 -2.5 -.1 -.5 -.4 -.9 -.8 -1.2 l -10.6 -4.6 c -2.5 -1.1 -5.2 -1.1 -7.7 -.1 l -2.6 1 c -2.2 .9 -4.7 .9 -7 .1 l -8.9 -3.1 -7.4 -2.4 c -.7 -.2 -1.1 -1 -.9 -1.7 .2 -.5 .6 -.9 1.1 -1 l 4.3 -.7 7.3 -12.1 c .6 -.9 .3 -2.2 -.7 -2.7 0 0 0 0 -.1 0 l -18.4 -10 c -1 -.5 -2.2 -.2 -2.7 .8 v .1 l -12.8 25.7 c -2.5 4.9 -.5 10.9 4.4 13.4 1.4 .7 2.9 1.1 4.4 1.1 h -41.2 c -2.8 0 -5 2.2 -5 5 v 10 c 0 2.8 2.2 5 5 5 h 170 c 2.8 0 5 -2.2 5 -5 v -10 c 0 -2.9 -2.2 -5.1 -5 -5.1 z"/><path d="m 214.1 144.7 c -.8 -.5 -1.9 -.2 -2.3 .6 -2.4 4.2 -1.2 9.5 1.7 13 .2 .2 .2 .5 -.1 .7 0 0 -.1 0 -.1 .1 -5.3 3.1 -9.6 7.6 -12.5 13 -5.6 10.1 -11.2 20.9 -10.7 24.6 0 .7 .5 1.8 2.5 2.9 s 5.7 2.5 12.4 3.8 l 2.9 .4 5.1 .7 c .1 0 .2 0 .3 .1 1.1 -.1 1.6 1.5 1.6 1.5 l 1.1 10.5 v .6 l .1 .9 c .8 5.1 6.1 9.1 12.4 9.1 6.8 0 12.3 -4.6 12.5 -10.3 -1.3 -4.5 -3.4 -12.2 -2 -13.2 4.4 -2.9 8 -6.7 10.7 -11.2 6.5 -11.4 .2 -27 -7.4 -31.5 -.4 -.2 -.8 -.5 -1.2 -.7 z"/><path d="m 7.9 264.9 c -.5 -.5 -.8 -1.3 -.7 -2 l 8.3 -82.5 c 0 -.2 0 -.3 .1 -.5 .1 -1.7 -.5 -3.4 -1.8 -4.6 l -8.8 -6.4 c -1.4 -.7 -2.1 -.4 -2.8 .5 -.5 .7 -.8 1.5 -.7 2.4 l -1.2 92.1 s -.2 4.9 -.3 10.1 c 0 3.8 0 8.3 1 10.8 .8 2.2 1.9 4.2 3.1 6.2 .5 .7 1.3 .4 1.5 -.5 .3 -2.1 -1 -5.5 -.6 -12 .1 -1.7 .4 -3.4 .9 -5 .1 -.3 .3 -.1 .3 0 .3 2.1 1.2 5.1 1.7 5.3 1.4 .6 2 -9.4 1.3 -11.5 -.2 -1 -.7 -1.8 -1.3 -2.4 z"/><path d="m 58 211.8 c -.2 -1.3 -1.3 -2.2 -2.6 -2.2 h -10.4 c -1.3 0 -2.4 .9 -2.6 2.2 l -3.2 27.6 v .2 c -.2 1.3 .1 2.7 .7 3.8 1.2 2 3.3 3.2 5.6 3.1 h 8.9 c 2 -.1 3.9 -.9 5.3 -2.3 1.1 -1.3 1.6 -3 1.4 -4.7 v -.2 z"/><path d="m 66.7 209.8 s -2.7 -.1 -5.2 -.1 c .2 .6 .4 1.1 .5 1.7 l 3.2 27.6 v .1 c .4 2.8 -.4 5.7 -2.3 7.8 -2.2 2.3 -5.2 3.6 -8.3 3.7 h -8.9 c -3.7 0 -7.1 -1.9 -9 -5 -1.2 -1.9 -1.6 -4.2 -1.3 -6.4 v -.1 l 3.2 -27.6 c 0 -.6 .2 -1.1 .4 -1.7 h -7.2 l -16.9 60.2 c -.6 3.4 1.6 6.6 5 7.2 .4 .1 .7 .1 1.1 .1 h 59.2 c 3.4 0 6.2 -2.7 6.2 -6.2 0 -.4 0 -.8 -.1 -1.2 z"/><path d="m 151.7 194.1 c 1 -.1 5.2 -.3 9.7 -.8 3.8 -.4 8.1 -.9 10.4 -2.4 2 -1.2 3.9 -2.7 5.5 -4.4 .4 -.4 .4 -1 -.1 -1.4 -.2 -.2 -.4 -.3 -.7 -.3 -2.1 -.1 -5.2 1.8 -11.6 2.1 -1.7 .1 -3.4 -.1 -5 -.5 -.3 -.1 -.2 -.3 0 -.4 2 -.6 4.8 -2 4.9 -2.6 .3 -1.8 -9.5 -1.3 -11.4 -.2 -.9 .3 -1.6 .9 -2 1.8 -.4 .6 -1.1 1 -1.8 1 l -38.7 5.8 c -1.1 .2 -2.1 -.4 -2.5 -1.4 l -9.6 -17.6 c -.4 -1 -1.4 -1.5 -2.4 -1.3 l -9.7 .6 c -1.3 .1 -2.4 1.3 -2.3 2.6 0 .3 .1 .7 .3 1 l 17.6 34 c .9 1.1 2.4 1.5 3.7 1 l 45.4 -16.6 z"/><path d="m 71.4 282.7 h -14.6 c -.9 .1 -1.6 .8 -1.5 1.8 l .6 15.5 h 16.1 c .3 -5.8 .7 -11 1.1 -15.4 .1 -.9 -.5 -1.7 -1.4 -1.9 -.2 0 -.2 0 -.3 0 z"/><path d="m 43 282.7 h -14.7 c -.9 .1 -1.6 .9 -1.5 1.8 v .1 c .4 4.4 .7 9.6 1.1 15.4 h 16.1 l .6 -15.5 c 0 -.9 -.7 -1.7 -1.6 -1.8 z"/><path d="m 35.8 86 c .5 .8 1.6 1 2.3 .4 l 5.1 -3.5 c .8 -.5 1.1 -1.5 .6 -2.3 s -1.5 -1.1 -2.3 -.6 c -.1 0 -.1 .1 -.2 .1 l -5.1 3.5 c -.7 .6 -.9 1.6 -.4 2.4 z"/><path d="m 4.8 120.5 c 4.4 -13.5 20.8 -2.2 26.3 -19 2.9 -8.6 -2.4 -11.5 -.7 -16.7 .7 -2.2 3.1 -3.5 6.1 -4.9 7 -3.4 5.5 -9.9 -2.1 -12.4 -6.8 -2.2 -15 2.3 -18.1 11.8 s 0 14.3 1.2 18.3 l 1 2.4 2.4 5.6 c .2 .4 .1 1 -.3 1.3 -.4 .4 -1.1 .4 -1.5 -.1 0 0 -.1 -.1 -.1 -.1 l -2.2 -3.2 c -4 5.6 -12.4 1.9 -15.9 12.6 -1.9 5.7 1 11.4 2.2 13 2.6 3.4 .1 -3.7 1.7 -8.6 z"/><path d="m 34.3 98.1 c -2.7 12.1 1.6 18 5.4 22.5 1.1 1.3 1.8 3 1.9 4.8 .1 2.3 .3 5.3 .3 7.6 .1 2.3 -1.5 4.2 -3.8 4.5 -6.5 1 -18.8 2.8 -18.8 2.8 h -.1 c -3.4 -.1 -6.7 2.7 -9.1 5.2 l -7.1 9.6 c -1.6 2.8 -.9 6.3 1.8 8.1 l 9.2 6.4 c 1.2 .7 2.8 .2 3.5 -1 0 0 0 0 0 -.1 l 4.9 -7.3 c .3 -.5 1 -.7 1.5 -.4 .4 .2 .6 .6 .5 1.1 l -2.3 8.2 c -1 4.9 0 9.9 2.9 14 4.9 7.3 6.1 16.5 6.3 19.5 .1 1.1 1 2 2.2 2 h 31 c 1.1 0 2.1 -.9 2.2 -2 .3 -3 1.5 -12.2 6.3 -19.5 2.8 -4.1 3.9 -9.1 2.8 -14 l -2.3 -8.3 c -.1 -.6 .3 -1.1 .9 -1.2 .4 -.1 .8 .1 1.1 .5 l 4.9 7.3 c .6 1.3 2.2 1.8 3.5 1.1 h .1 l 9.2 -6.4 c 2.7 -1.8 3.5 -5.4 1.8 -8.1 l -7.1 -9.6 c -2.3 -2.5 -5.6 -5.3 -9.1 -5.2 0 0 -1.7 .1 -3.6 .2 -8 .3 -15.8 -2.3 -22 -7.4 l -1.3 -1.3 c -.4 -.4 -.5 -1.1 -.2 -1.6 .4 -.5 1 -.6 1.6 -.3 .1 0 .2 .1 .2 .1 l .7 .6 2.1 1.4 c 5.1 3.2 8.3 4.5 10.3 4.9 s 2.9 .1 3.3 -.4 c 2.5 -2.1 5.4 -12.4 7.7 -22.2 3.7 -16.5 -4.4 -28.8 -20.1 -32 -7.6 -1.3 -20.7 4.6 -23.2 15.9 z m 16.8 43.5 l 3 -1.5 c 1 -.5 2.3 -.1 2.8 .9 .1 .3 .2 .6 .2 .9 v 3.7 c 0 1.1 -.9 2.1 -2.1 2.1 -.3 0 -.6 -.1 -.9 -.2 l -3 -1.5 c 1.2 -1.2 1.2 -3.2 0 -4.4 z m -3.4 .8 c .7 -.7 1.8 -.8 2.6 -.1 0 0 0 0 .1 .1 .7 .8 .7 2 0 2.8 -.7 .7 -1.8 .8 -2.6 .1 0 0 0 0 -.1 -.1 -.7 -.8 -.7 -2 0 -2.8 z m -3.8 -2.3 l 3 1.5 c -1.2 1.2 -1.2 3.2 0 4.4 l -3 1.5 c -1 .5 -2.3 .1 -2.8 -.9 -.1 -.3 -.2 -.6 -.2 -.9 v -3.7 c 0 -1.1 .9 -2.1 2.1 -2.1 .3 0 .6 .1 .9 .2 z"/></g></svg>