<svg enable-background="new 0 0 300 300" viewBox="0 0 300 300" xmlns="http://www.w3.org/2000/svg"><g fill="#fff"><path d="m 131.3 87 c .3 -2 1.2 -3.5 2.4 -3.8 .2 -.2 .4 -.4 .5 -.6 .9 -3.2 3.5 -18.5 7.5 -20.4 1.8 -.8 3.7 -1.1 5.6 -.9 6.9 -.4 15.5 5.8 20.5 8.1 2.6 1.2 7.2 .6 10.9 -2 .9 -.5 2 -.3 2.5 .6 .1 .1 .1 .3 .2 .4 1.2 3.5 4.3 11.8 4.8 21.7 0 .2 0 .3 -.1 .5 1.1 -3.5 5.1 -16.3 4.8 -22.6 -.3 -6.9 -3.6 -9.1 -5.8 -9.8 -1.2 -.4 -2.2 -1.4 -2.4 -2.7 -.4 -2.2 -1.1 -4.3 -2.1 -6.3 -5.6 -9.4 -18.2 -16.6 -28.6 -11.2 -5.8 3.2 -6.3 11.2 -11.5 15.2 -1.7 1 -3.6 1.5 -5.6 1.6 -7.2 .2 -11.4 8.8 -6.1 16.7 1.4 2.1 1.8 10 2.5 15.5 z" opacity=".25"/><path d="m 283.8 68.4 c -.4 -2 -1.5 -3.7 -3.1 -4.9 -2.2 -1.6 -5 -2.5 -8.7 -2.5 -6.9 0 -12.1 2.4 -15.5 7.3 l -9.2 -6 3.6 5.3 9.2 6 c 3.5 -4.9 8.7 -7.3 15.5 -7.3 2.9 -.2 5.7 .6 8.2 2.1 z" opacity=".3"/><path d="m 281.5 110.5 c .1 .4 .1 .7 .1 1.1 0 2 -.7 3.9 -2.1 5.3 s -3.4 2.2 -5.4 2.1 c -1.4 0 -2.8 -.3 -4 -1 .2 1.6 .9 3 2.1 4.1 1.5 1.4 3.4 2.2 5.5 2.1 2 .1 4 -.7 5.4 -2.1 2.9 -2.9 2.9 -7.7 -.1 -10.6 -.5 -.3 -1 -.7 -1.5 -1 z" opacity=".3"/><path d="m 291.5 56.5 c 3.2 2.9 5 7.1 4.9 11.5 0 2.4 -.4 4.7 -1.3 6.9 -.8 1.8 -1.8 3.5 -3.1 5 -1.5 1.7 -3.1 3.2 -4.8 4.7 -2 1.7 -3.8 3.6 -5.4 5.7 -1.2 1.7 -1.8 3.8 -1.8 5.9 h -12 l 3.6 5.3 h 12.1 c -.1 -2.1 .6 -4.2 1.8 -5.9 1.6 -2.1 3.4 -4 5.4 -5.7 1.7 -1.5 3.3 -3.1 4.8 -4.7 1.3 -1.5 2.3 -3.2 3.1 -5 .9 -2.2 1.3 -4.5 1.3 -6.9 -.1 -5.4 -4.3 -13.7 -8.6 -16.8 z" opacity=".3"/><path d="m 135.8 160.9 s -.9 1.2 -2.3 3.2 c -1.6 2.8 -3.4 5.5 -5.3 8.2 -4.4 7.1 -9.7 19.7 -12.6 29.5 1.5 6.9 3.3 12 5.1 21.1 0 .3 .1 .6 .2 .9 3.7 19 18.4 35.6 36 39.1 -6 -12.5 -39.6 -53.2 -21.1 -102 z" opacity=".5"/><path d="m 152.8 102.1 c 1 .6 2 1.2 3 1.7 s 2.1 1 3.1 1.3 c 1.1 .4 2.2 .7 3.3 .9 s 2.3 .3 3.4 .5 c .2 0 .4 .2 .4 .4 s -.1 .3 -.3 .3 c -1.2 .2 -2.4 .2 -3.6 .1 -1.2 -.2 -2.4 -.4 -3.6 -.8 s -2.3 -.9 -3.3 -1.5 -2 -1.4 -2.8 -2.3 c -.1 -.1 -.1 -.4 0 -.5 s .3 -.2 .4 -.1 z" opacity=".15"/><ellipse cx="156.6" cy="84" opacity=".15" rx="2.8" ry="1.2" transform="matrix(.1144 -.9934 .9934 .1144 55.23 229.91)"/><ellipse cx="169.5" cy="84.8" opacity=".15" rx="2.8" ry="1.2" transform="matrix(.1144 -.9934 .9934 .1144 65.92 243.47)"/><path d="m 162.3 106.1 c -.4 -.1 -.7 -.1 -1.1 -.2 .3 .1 .7 .1 1.1 .2 z"/><path d="m 159.9 105.5 c .3 .1 .7 .2 1 .3 z"/><path d="m 168.2 76 c .8 -.2 1.6 -.2 2.4 -.1 s 1.6 .2 2.4 .4 c 1.6 .3 3.1 .9 4.5 1.7 .2 .2 .3 .5 .1 .7 -.1 .2 -.3 .2 -.5 .2 -1.5 -.2 -3.1 -.5 -4.6 -.9 l -2.3 -.5 c -.8 -.2 -1.5 -.4 -2.3 -.7 -.2 -.1 -.4 -.4 -.3 -.6 .3 -.1 .4 -.2 .6 -.2 z" opacity=".15"/><path d="m 158.4 76.3 c -.8 .2 -1.6 .3 -2.3 .3 l -2.3 .2 c -1.6 .1 -3.1 .2 -4.7 .1 -.3 0 -.5 -.3 -.5 -.6 0 -.2 .1 -.4 .3 -.4 1.5 -.6 3.1 -1 4.7 -1 h 2.4 c .8 0 1.6 .2 2.4 .5 .2 .1 .4 .4 .3 .6 0 .2 -.1 .3 -.3 .3 z" opacity=".15"/><path d="m 40.3 115.1 c 1.1 -.4 2.4 .1 2.9 1.3 .1 .2 .1 .5 .1 .7 0 2.8 .2 5.5 .7 8.2 .1 .5 .2 1 .3 1.4 l 4.7 -.5 c 1.3 -5.7 5.9 -10.1 11.6 -11.2 -.1 -6.7 -1.3 -13.4 -3.6 -19.7 -5 -12.7 -12.8 -15.5 -14.4 -27.3 -4.7 -1.5 -8.4 -5.2 -9.8 -10 l -15.1 1.1 c -1.3 5.9 -6.1 10.4 -12.1 11.3 .2 2 .5 4 1 6 2.4 10.8 11.5 15.8 15.4 29.8 1.2 4.3 2.1 8.8 2.6 13.3 1.9 .4 3.7 1.2 5.3 2.3 2.8 -3.1 7.3 -5.4 10.4 -6.7 z m -18.3 -24.1 c .6 -6.6 6.4 -11.5 13 -10.9 s 11.5 6.4 10.9 13 -6.4 11.5 -13 10.9 -11.4 -6.4 -10.9 -13 z"/><path d="m 289 131.5 c -16 2.9 -20.1 .1 -20.1 .1 l -4 -2.2 c -4.2 -.8 -8.3 .1 -8.5 6 -3.3 14.2 -7.5 21 -12.7 29.8 l -1 1.7 s -5.2 7.8 -6.5 9.5 c -.6 .8 -1.2 1.6 -1.9 2.3 -1.1 -1 -2.2 -2 -3.2 -3 -5.4 8.2 -14.1 13.5 -23.8 14.7 4.8 6.2 11 14.2 14.9 16.8 1.6 1.2 3.3 2.2 5.1 3.1 1.8 1.1 3.9 1.8 6 1.9 h .5 c 3.6 .5 7.2 -.7 9.9 -3.2 1.9 -1.3 3.7 -2.7 5.5 -4.1 21 -21.5 19.9 -42.7 19.6 -55.6 5 .1 9.9 -.6 14.6 -2.1 12.5 -3.9 19.6 -18.3 5.6 -15.7 z" opacity=".8"/><path d="m 270.3 87.7 c 2 -2.7 4.3 -5.2 6.8 -7.4 1.9 -1.6 3.6 -3.4 5.1 -5.3 1.1 -1.5 1.7 -3.3 1.7 -5.1 .1 -2.6 -1.2 -5 -3.2 -6.5 -2.2 -1.6 -5.1 -2.4 -8.7 -2.4 -6.9 0 -12.1 2.4 -15.5 7.3 l -9.2 -6 c 2.7 -3.7 6.4 -6.7 10.6 -8.6 4.8 -2.1 10 -3.1 15.3 -3 7.1 0 12.8 1.5 17 4.6 4.1 2.9 6.5 7.6 6.4 12.7 0 2.4 -.4 4.7 -1.3 6.9 -.8 1.8 -1.8 3.5 -3.1 5 -1.5 1.7 -3.1 3.2 -4.8 4.7 -2 1.7 -3.8 3.6 -5.4 5.7 -1.2 1.7 -1.8 3.8 -1.8 5.9 h -12.2 c -.1 -3 .7 -5.9 2.3 -8.5 z m -1.7 29.2 c -1.4 -1.4 -2.2 -3.3 -2.1 -5.3 -.1 -2 .7 -3.9 2.1 -5.2 1.5 -1.4 3.4 -2.2 5.5 -2.1 2 -.1 3.9 .7 5.4 2.1 1.4 1.4 2.2 3.3 2.1 5.2 0 2 -.7 3.9 -2.1 5.3 s -3.4 2.2 -5.4 2.1 c -2.1 .1 -4 -.6 -5.5 -2.1 z"/><path d="m 232.1 173.8 s -7.2 -7.1 -17.7 -23.3 c -5.3 -8.2 -15.1 -16 -23.5 -15.8 -5.8 .1 -11.6 -.6 -17.3 -1.9 -.4 -.1 -.8 -.2 -1.1 -.4 0 -.1 0 -.1 -.1 -.1 -7.8 -.3 -15.3 -2.9 -21.6 -7.5 -.4 -.3 -.9 -.7 -1.3 -1 l -.4 -.4 c -.4 -.3 -.7 -.6 -1.1 -.9 s -.5 -.5 -.8 -.8 l -.8 -.7 c -.5 -.6 -1.1 -1.1 -1.6 -1.7 -.2 -.3 -.3 -.6 -.4 -.8 s -.2 -.5 -.4 -.8 v -.1 c 1.4 3.3 2 6.8 1.8 10.4 -.1 .7 -.1 1.4 -.1 2 -1.5 3.1 -5.9 5.8 -10 7.4 l -9.2 1.8 -3.2 .7 c -.9 .1 -2.5 .4 -3.3 .6 -7.4 1.5 -11.4 6.5 -17.9 15.8 -11.2 15.8 -17.7 23 -17.7 23 s 6.7 20.8 31.2 22.6 c 3 -9.8 8.2 -22.4 12.6 -29.5 1.9 -2.6 3.7 -5.3 5.3 -8.2 1.4 -2 2.3 -3.2 2.3 -3.2 -18.5 48.8 15.1 89.4 21 102.1 7.4 1.5 15.1 1.1 22.3 -1.1 14.1 -4.2 26.2 -9.1 29.6 -12.7 4.6 -5 1.8 -33.4 -2.5 -58.7 10.8 -1 20.5 -7.3 25.9 -16.8 z"/><path d="m 29.9 134.8 c -1.3 -2.1 -2.1 -4.5 -2.5 -6.9 -.1 -2.3 .8 -4.5 2.5 -6.1 -1.6 -1.1 -3.4 -1.9 -5.3 -2.3 -.5 -4.5 -1.4 -8.9 -2.6 -13.3 -3.9 -14 -13 -18.9 -15.4 -29.8 -.5 -2 -.8 -4 -1 -6 6 -.9 10.9 -5.3 12.3 -11.3 l 15 -1.1 c 1.4 4.8 5 8.5 9.8 10 1.5 11.8 9.3 14.6 14.3 27.4 2.3 6.3 3.5 13 3.6 19.7 -5.8 1.1 -10.3 5.5 -11.6 11.2 l -4.7 .5 c .2 1.8 1 3.5 2.1 4.9 .6 .5 1.4 .8 2.1 .6 l 3.6 -.4 9.6 -1.2 s 4.9 -18 -.9 -33.6 -15.9 -17.8 -14.7 -33.4 c .8 -10 1.3 -9.9 1.3 -9.9 l -45 2.8 s -3.9 7.6 -1.7 19.5 10.6 17.2 15.3 31.4 3 28.7 3 28.7 z" opacity=".5"/><path d="m 85.8 182.7 c -.6 .9 -1.2 1.8 -1.9 2.6 -.9 1.3 -1.9 2.5 -3 3.7 -1.2 -1.2 -2.4 -2.4 -3.6 -3.7 -1.5 -1.7 -7.7 -9.5 -7.7 -9.5 l -1.2 -1.7 c -6.3 -9.1 -11.4 -16 -16.2 -31.2 1 -1.6 2.2 -2.6 2.5 -4.7 .2 -1.2 .4 -4 .5 -6.6 l -6.8 .8 c -.8 .1 -1.6 -.1 -2.1 -.6 -1.4 -1.4 -2 -3.8 -2.4 -6.3 -.5 -2.7 -.7 -5.5 -.7 -8.2 0 -1.2 -1.1 -2.2 -2.3 -2.1 -.2 0 -.5 .1 -.7 .1 -4.8 2 -13.4 6.5 -12.8 12.7 .7 7.8 9.6 15.6 12.1 20.8 4.1 8.6 .6 30.8 21.5 59.8 3.2 4.4 7.1 8.2 11.6 11.1 .8 .5 1.7 1 2.5 1.4 1.9 1 4.1 1.5 6.3 1.4 .8 0 1.5 0 2.3 -.1 2 -.2 4 -.9 5.7 -2 1.7 -.8 3.3 -1.8 4.8 -2.9 5.4 -3.6 9.9 -8.4 14.2 -13.3 .8 -.9 1.6 -1.9 2.4 -2.9 -10.8 -2 -20 -8.9 -25 -18.6 z" opacity=".8"/><path d="m 22 91 c .6 -6.6 6.4 -11.5 13 -10.9 s 11.5 6.4 10.9 13 -6.4 11.5 -13 10.9 -11.4 -6.4 -10.9 -13 z" opacity=".5"/><path d="m 181.4 68.4 c -.3 -1 -1.3 -1.5 -2.3 -1.2 -.1 0 -.3 .1 -.4 .2 -3.7 2.6 -8.4 3.1 -10.9 2 l -.1 -.1 c -2.3 3.4 -4.1 8.3 -2.9 15.8 .4 2.8 1.1 5.6 1.3 8.4 .1 1.2 -.1 2.7 -1.1 3.4 s -2.5 .4 -3.4 1.2 c -.5 .5 -.9 1.1 -1 1.8 -.5 1.8 -.7 3.8 -.6 5.7 .8 .2 1.6 .4 2.4 .6 1.1 .2 2.3 .3 3.4 .5 .2 0 .4 .2 .4 .4 s -.1 .3 -.3 .3 c -1.2 .2 -2.4 .2 -3.6 .1 -.7 -.1 -1.4 -.2 -2.1 -.4 .1 2.1 .4 4.2 .9 6.3 .6 2.2 2.4 6.4 2.4 6.4 s -10.6 1.9 -21.8 -7.4 c 1.6 2.4 2.1 4.7 3.4 7 9.1 10.6 21.6 12.8 27.6 13 -1 -3.1 -2.6 -13.1 -.3 -15.1 5 -4.3 9.2 -9.1 11.6 -16.2 .7 -2 2 -8.8 2.5 -11.3 -.9 -7.4 -2.5 -14.6 -5.1 -21.4 z m -10.7 16.5 c -.2 1.5 -.9 2.7 -1.5 2.6 s -1.1 -1.4 -.9 -2.9 .9 -2.7 1.5 -2.6 1.1 1.4 .9 2.9 z m 7 -6.1 c -.1 .2 -.3 .2 -.5 .2 -1.5 -.2 -3.1 -.5 -4.6 -.9 l -2.3 -.5 c -.8 -.2 -1.5 -.4 -2.3 -.7 -.2 -.1 -.4 -.4 -.3 -.6 .1 -.1 .2 -.2 .3 -.3 .8 -.2 1.6 -.2 2.4 -.1 s 1.6 .2 2.4 .4 c 1.6 .3 3.1 .9 4.5 1.7 .5 .2 .6 .5 .4 .8 z" opacity=".8"/><path d="m 164.8 85.1 c -1.2 -7.4 .6 -12.4 2.9 -15.8 -5 -2.3 -13.5 -8.5 -20.3 -8 -1.9 -.2 -3.8 .1 -5.6 .9 -4 1.8 -6.6 17.2 -7.5 20.4 -.1 .2 -.3 .4 -.5 .6 -1.2 .3 -2.1 1.8 -2.4 3.8 v -.2 c -.2 1.4 -.1 2.8 .1 4.2 .4 1.7 1.4 3.1 2.9 4.1 .4 .3 .7 .7 1 1.1 .7 5.1 2.4 10 5.2 14.4 1.2 1.9 2.2 3.9 3.1 6 -.6 -1.5 -1.3 -3 -2.2 -4.4 11.2 9.3 21.8 7.4 21.8 7.4 s -1.8 -4.2 -2.4 -6.4 c -.5 -2.1 -.8 -4.2 -.9 -6.3 -.5 -.1 -1 -.3 -1.4 -.4 -1.2 -.4 -2.3 -1 -3.3 -1.6 s -2 -1.4 -2.8 -2.3 c -.1 -.1 -.1 -.4 0 -.5 s .3 -.1 .4 0 c 1 .6 2 1.2 3 1.7 s 2.1 1 3.1 1.3 c .3 .1 .6 .2 .9 .3 0 -1.9 .2 -3.8 .6 -5.7 .1 -.7 .5 -1.3 1 -1.8 1 -.8 2.4 -.5 3.4 -1.2 s 1.2 -2.2 1.1 -3.4 c -.3 -2.6 -.7 -5.4 -1.2 -8.2 z m -7 -1 c -.2 1.5 -.9 2.7 -1.5 2.6 s -1.1 -1.4 -.9 -2.9 .9 -2.7 1.5 -2.6 1.1 1.4 .9 2.9 z m 1 -8.1 c -.1 .1 -.2 .3 -.3 .3 -.8 .2 -1.6 .3 -2.3 .3 l -2.3 .2 c -1.6 .1 -3.1 .2 -4.7 .1 -.3 0 -.5 -.3 -.5 -.6 0 -.2 .1 -.4 .3 -.4 1.5 -.6 3.1 -1 4.7 -1 h 2.4 c .8 0 1.6 .2 2.4 .5 .2 0 .4 .3 .3 .6 z"/></g></svg>