<svg enable-background="new 0 0 100 100" viewBox="0 0 100 100" xmlns="http://www.w3.org/2000/svg"><path d="m 98.48 32.52 c -.32 .01 -7.81 .21 -14.22 3.06 -6.16 2.74 -8.89 2.79 -11.14 2.6 -.12 -.01 -.23 .02 -.33 .07 -.43 -.33 -.89 -.62 -1.39 -.88 7.01 -10.12 15.19 -15.15 15.27 -15.2 .33 -.2 .44 -.64 .24 -.97 s -.64 -.44 -.97 -.24 c -.35 .21 -8.64 5.29 -15.86 15.82 -.28 -.1 -.55 -.22 -.85 -.3 -4.23 -1.19 -8.33 .25 -9.16 3.21 -.24 .86 -.17 1.76 .14 2.63 -1.64 -1.27 -4.34 -1.89 -7.32 -1.56 -.26 -.79 -.53 -1.62 -.82 -2.5 -.43 -1.32 -.63 -1.96 -.74 -2.2 -.08 -.19 -.14 -.37 -.19 -.53 -.15 -.45 -.33 -1.01 -.93 -1.09 -.65 -.08 -1.15 .56 -1.75 1.49 -.9 1.39 -1.45 4.7 -1.73 7.03 -.7 .48 -1.29 1.02 -1.75 1.59 l -5.29 -6.12 -.16 -.14 c -.7 -.43 -1.32 -.53 -1.84 -.29 s -.72 .74 -.79 1 l -4.87 8.58 c -2.22 -1.67 -3.62 -2.52 -4.18 -2.52 -.4 0 -1.22 0 -16.69 19.25 -.03 .05 -2.69 4.56 -9.74 3.89 -.39 -.02 -.73 .25 -.77 .64 s .25 .73 .64 .77 c .54 .05 1.05 .07 1.54 .07 6.81 0 9.44 -4.46 9.49 -4.57 5.31 -6.61 14 -17.18 15.63 -18.58 .56 .26 1.89 1.19 3.36 2.3 l -1.35 2.38 c -3.81 3.36 -6.55 8.13 -6.62 11.67 l -.69 1.21 c -.01 .02 -.8 2.29 -4.73 1.43 -.38 -.08 -.76 .16 -.84 .54 s .16 .76 .54 .84 c .73 .16 1.38 .23 1.96 .23 2.56 0 3.72 -1.35 4.15 -2.05 .13 .29 .27 .56 .46 .8 2.66 3.48 10.84 1.37 16.54 -2.98 2.71 -2.07 4.68 -4.59 5.72 -7.05 .88 4.56 1.94 11.69 2.78 18.44 l .08 .24 c .48 .91 2.13 3.94 3.2 4.53 .11 .06 .23 .09 .34 .09 .25 0 .49 -.13 .62 -.37 .19 -.34 .06 -.77 -.28 -.96 -.46 -.25 -1.68 -2.16 -2.57 -3.83 -.66 -5.31 -2.08 -15.93 -3.37 -21.06 .06 -.52 .06 -1.02 .01 -1.5 .86 .33 1.85 .55 2.92 .63 .16 .08 .34 .08 .51 .03 .86 .04 1.75 -.01 2.68 -.15 1.76 3.69 4.84 10.24 5.44 12.07 .08 .24 .15 .47 .22 .68 .69 2.28 1.42 3.06 5.69 3.06 .79 0 1.7 -.03 2.75 -.08 .39 -.02 .69 -.35 .67 -.74 s -.38 -.73 -.74 -.67 c -6.33 .29 -6.48 -.19 -7.02 -1.98 -.07 -.22 -.14 -.46 -.23 -.72 -.62 -1.86 -3.57 -8.14 -5.36 -11.9 .26 -.07 .52 -.14 .78 -.22 .46 .77 .86 1.23 1.24 1.4 .15 .07 .31 .1 .46 .1 .14 0 .28 -.03 .41 -.09 .54 -.24 .84 -.35 1 -.41 .21 .03 .43 -.03 .6 -.18 l .45 -.45 -.33 -.5 c -.37 -.56 -.97 -.34 -2.11 .17 -.12 -.1 -.26 -.28 -.41 -.52 1.22 -.52 2.26 -1.18 3.08 -1.92 2.83 -.42 5.12 -.65 5.65 -.47 .19 .06 .32 .11 .42 .15 -.04 .19 -.06 .44 0 .76 .11 .53 4.56 13.48 7.41 15.11 1.01 .57 1.79 .76 2.48 .76 .62 0 1.16 -.15 1.71 -.31 .55 -.15 1.12 -.31 1.86 -.36 .39 -.03 .68 -.37 .66 -.76 -.03 -.39 -.42 -.69 -.76 -.66 -.89 .06 -1.55 .25 -2.14 .41 -1.07 .29 -1.71 .48 -3.11 -.32 -2.05 -1.17 -6.46 -12.88 -6.72 -14.16 -.02 -.12 -.01 -.19 .03 -.31 .32 -1.09 -.62 -1.41 -1.38 -1.66 -.7 -.23 -2.64 -.08 -4.79 .2 .49 -.86 .7 -1.78 .53 -2.68 0 -.02 -.01 -.04 -.02 -.06 1.11 1.1 2.65 2.01 4.46 2.52 .3 .09 2.55 .38 5.6 .02 2.26 -.27 2.69 -2.4 5.63 -2.23 l -1.45 -.75 1.94 -.3 -1.65 -.94 c -1.04 -1.04 -.49 -.76 -1.06 -1.63 -.22 -.59 -.55 -1.17 -.98 -1.72 .1 0 .18 .01 .28 .01 2.2 0 5.11 -.49 10.29 -2.79 6.15 -2.73 13.61 -2.94 13.68 -2.94 .39 -.01 .7 -.33 .69 -.72 -.03 -.38 -.38 -.65 -.74 -.69 z m -48.83 4.18 c .1 -.16 .19 -.29 .27 -.4 .04 .11 .08 .22 .13 .33 .08 .18 .36 1.06 .69 2.07 .26 .81 .51 1.56 .75 2.29 -1.16 .24 -2.24 .61 -3.19 1.07 .28 -2.11 .74 -4.43 1.35 -5.36 z m -11.47 2.91 l .09 -.32 c .01 0 .13 -.01 .42 .16 l 5.5 6.36 c -.18 .4 -.28 .8 -.33 1.21 -2.71 -1.05 -6.62 -.44 -10.38 1.7 -.11 -.09 -.22 -.17 -.33 -.26 z" fill="#fff"/></svg>