<svg enable-background="new 0 0 841.889 1190.551" height="1190.55" viewBox="0 0 841.89 1190.55" width="841.89" xmlns="http://www.w3.org/2000/svg"><path d="m 810.38 725.88 c -.53 -.69 -1.41 -1.54 -2.6 -2.55 -10.7 -4.05 -18.83 -10.09 -24.37 -18.11 -5.91 -8.51 -8.86 -20.66 -8.86 -36.45 0 -11.35 2.83 -29.01 8.5 -52.98 5.67 -24.08 8.5 -46.39 8.5 -66.97 0 -5.56 -.1 -10.8 -.3 -15.74 3.71 -5.85 7.98 -15.37 12.82 -28.56 4.82 -13.17 6.23 -25.79 4.26 -37.85 -1.96 -12.08 -6.37 -21.27 -13.25 -27.6 -8.67 -7.9 -21.53 -4.31 -38.59 10.76 -1.8 -1.82 -3.69 -3.68 -5.65 -5.53 -7.53 -7.14 -19.41 -15.12 -35.6 -23.95 -10.86 -5.92 -21.28 -10.9 -31.23 -14.95 -18.07 -4.86 -35.28 -7.3 -51.65 -7.3 -1.78 0 -23.67 1.01 -65.63 3.04 -42.04 2.1 -64.16 3.15 -66.35 3.13 -27.54 0 -56.43 -3.93 -86.65 -11.79 -16.69 -4.38 -27.76 -7.1 -33.17 -8.15 -12.4 -2.43 -24.51 -3.65 -36.34 -3.65 -23.01 0 -46.06 5.72 -69.15 17.14 -11.4 5.62 -21.09 10.59 -29.05 14.88 -11.09 3.36 -19.68 5.04 -25.76 5.04 -7.22 0 -15.28 -1.46 -24.18 -4.38 -7.98 -5.55 -15.44 -10.97 -22.37 -16.28 -7.86 -6.08 -13.81 -9.12 -17.87 -9.12 -7.7 0 -13.42 6.48 -17.14 19.45 -.36 1.26 -1.34 6.74 -2.92 16.41 -14.33 2.54 -26.68 8.9 -37.06 19.08 -4.45 4.29 -8.83 10.05 -13.12 17.26 -1.71 2.81 -3.78 6.37 -6.19 10.7 -.46 .73 -.91 1.46 -1.34 2.19 -1.79 3 -5.84 5.91 -12.15 8.75 -8.03 3.17 -14.14 5.68 -18.35 7.55 -16.12 7.04 -24.18 16.2 -24.18 27.47 0 12.31 9.48 24.71 28.44 37.18 18.63 12.24 35.48 17.66 50.55 16.29 19.2 -1.78 36.59 2.27 52.14 12.15 15.32 9.65 25.88 23.01 31.72 40.11 1.46 -.81 2.52 -3 3.16 -6.57 .65 -3.31 .81 -6.39 .49 -9.23 4.13 10.28 7.25 17.37 9.35 21.26 3.88 7.21 8.87 13.91 14.95 20.06 h 1.22 c 0 -1.23 -.4 -4.11 -1.22 -8.63 -.81 -4.22 -1.22 -6.4 -1.22 -6.57 v -5.47 c .97 3.25 5.39 8.35 13.25 15.32 4.12 3.64 9.4 8.23 15.86 13.8 -.15 -1.49 -.53 -3.17 -1.16 -5.04 -.9 -2.68 -2.1 -5.02 -3.65 -7.05 4.73 4.66 13.34 12.33 25.83 23.03 -5.26 7.46 -11.19 15.87 -17.8 25.21 -4.79 7.86 -7.18 16.12 -7.18 24.79 0 .73 1.06 4.86 3.16 12.4 2.69 9.73 5.59 18.68 8.76 26.86 10.12 25.85 20.65 38.77 31.59 38.77 14.99 0 25.28 -9.85 30.87 -29.53 1.28 -4.59 2.27 -9.59 2.98 -15 .52 4.86 .79 9.86 .79 15 0 19.05 -5.47 34.84 -16.41 47.4 -2.75 3.16 -6.52 7.33 -11.3 12.52 -3.4 4.3 -5.1 8.64 -5.1 13.01 0 1.67 .75 3.31 2.25 4.98 5.95 8.64 39.24 8.64 99.9 0 3.2 -1.57 5.6 -3.64 7.23 -6.2 2.12 -3.42 3.36 -8.82 3.71 -16.22 .29 -1.59 1.27 -7.73 2.97 -18.41 1.38 -9.07 5.63 -19.41 12.76 -30.99 4.05 -6.64 11.55 -17.25 22.49 -31.84 5.34 -7.21 10.29 -17.75 14.83 -31.59 4.52 -13.94 8.55 -23.96 12.09 -30.02 .55 -.09 1.09 -.13 1.65 -.13 7.46 0 18.8 3.36 34.03 10.09 4.64 2.03 8.64 3.99 11.97 5.88 .19 5.13 1.6 11.47 4.19 19.02 3.73 10.94 9.07 20.91 16.04 29.9 12.81 16.61 29.37 27.9 49.7 33.84 4.66 1.45 6.96 3.85 6.92 7.18 -.03 3.34 -6.53 9.32 -19.5 17.92 -12.99 8.62 -20.07 16.67 -21.21 24.19 -1.14 7.5 2.51 12.83 10.93 15.98 8.44 3.15 37.04 4.42 85.81 3.83 18.97 -.94 31.38 -9.32 37.25 -25.11 5.8 -15.62 8.18 -30.65 7.17 -45.07 17.48 12.01 34.93 22.45 52.32 31.29 0 3.41 -2.22 8.16 -6.68 14.23 -1.24 1.67 -2.28 3.22 -3.16 4.68 -6.4 6.2 -9.6 11.12 -9.6 14.76 0 .16 -.04 1.09 -.13 2.8 .17 1.95 .74 3.69 1.71 5.23 2.99 4.78 9.49 7.18 19.45 7.18 28.68 0 47.96 -10.73 57.84 -32.2 1.32 -2.89 2.45 -6.1 3.41 -9.61 .66 -1.52 1.32 -3.12 1.95 -4.73 8.1 -20.74 12.15 -42.01 12.15 -63.81 -.04 -8.68 -1.86 -15.37 -5.52 -20.06 z m -712.73 -245.14 c 0 -.08 -.01 -.16 -.01 -.24 0 -3.24 1.09 -6.01 3.23 -8.3 1.21 -.61 2.67 -.99 4.23 -1.23 2.56 -.08 5.01 .54 6.45 2 1.49 1.51 1.91 3.4 1.71 5.35 -3.2 2.22 -6.12 4.79 -8.94 7.53 -2.54 -1.33 -5.02 -3.19 -6.67 -5.11 z" fill="#fff"/></svg>