<svg enable-background="new 0 0 393.5704346 399.36203" viewBox="0 0 393.57 399.36" xmlns="http://www.w3.org/2000/svg"><path d="m 381.59 118.77 c -17.47 -17.89 -53.27 -24.57 -82.99 -9.08 -1.49 -1.88 -3.01 -3.61 -4.57 -5.16 -1.66 -1.66 -3.43 -3.14 -5.26 -4.54 15.27 -30.07 6.9 -67.59 -12.61 -86.66 -17.22 -16.81 -40.53 -17.8 -60.85 -2.57 -5.57 4.18 -6.71 12.11 -2.52 17.69 s 12.1 6.7 17.69 2.52 c 10.5 -7.9 19.67 -7.74 28.03 .43 12.73 12.44 17.57 38.87 6.9 58.39 -4.15 -.77 -8.52 -1.2 -13.13 -1.2 -20.21 0 -40.36 7.55 -52.39 12.07 l -2.53 .94 c -10.85 4.02 -21.22 8.25 -31.17 12.68 -26.15 -6.84 -54.23 -11.8 -79.4 -11.8 -32.06 0 -55.73 7.97 -70.35 23.7 -12.37 13.3 -17.79 31.47 -16.15 54.04 1.66 22.7 11.13 39.04 27.39 48.15 -2.92 5.28 -5.67 10.63 -8.04 16.11 -29.2 67.46 -5.57 125.05 -4.55 127.49 l 1.95 4.65 4.62 2.02 c 1.05 .46 26.14 11.23 62.54 11.23 25.69 0 55.25 -5.17 85.38 -20.92 .15 .3 .25 .63 .41 .94 6.24 12.13 19.84 27.06 49.16 29.2 2.65 .19 5.22 .29 7.7 .29 25.73 0 45.53 -10.4 57.27 -30.06 19.54 -32.76 13.61 -86.65 1.54 -133.69 5.94 -12.45 11.69 -25.82 17.19 -40.26 10.32 -27.11 10.9 -47.57 6.95 -62.91 19.47 -10.48 43.01 -6.97 53.73 3.99 6.85 7.01 6.39 15.84 -1.4 26.2 -4.18 5.58 -3.05 13.5 2.53 17.69 2.28 1.7 4.93 2.52 7.57 2.52 3.84 0 7.63 -1.74 10.11 -5.05 18.21 -24.32 11.55 -46.43 -.75 -59.04 z m -119.17 237.58 c -8.02 13.46 -21.26 19.02 -41.44 17.53 -19.12 -1.39 -25.44 -9.55 -28.54 -15.56 -.43 -.83 -.66 -1.83 -1.03 -2.71 -3.33 -8.01 -4.23 -18.11 -3.27 -29.6 .66 -7.94 2.1 -16.45 4.29 -25.41 3.51 -14.34 8.73 -29.62 14.75 -44.78 4.49 -11.29 9.4 -22.48 14.44 -33.18 6.81 -14.46 13.79 -27.98 20.09 -39.45 l .68 .68 c 9.49 23.39 19.41 55.23 24.89 86.19 6.02 34.06 6.64 67.01 -4.86 86.29 z m -236.94 -177.97 c -1.13 -15.5 1.95 -26.94 9.44 -34.99 9.66 -10.38 27.11 -15.64 51.86 -15.64 13.75 0 28.61 1.68 43.58 4.4 31.28 5.68 62.89 15.92 85.27 24.96 l .47 .47 c -10.48 5.74 -24.16 12.9 -39.43 20.11 -10.47 4.96 -21.69 9.92 -33.15 14.47 -14.95 5.95 -30.28 11.12 -44.88 14.64 -9.87 2.37 -19.36 3.95 -28.2 4.45 -1.99 .12 -4.03 .26 -5.95 .26 -9.65 0 -17.31 -1.41 -23.21 -4.39 -9.79 -4.94 -14.74 -14.24 -15.8 -28.74 z m 170.16 18.27 l 6.95 6.94 c -4.98 10.17 -10.06 21.22 -14.89 32.74 l -24.81 -24.81 c 11.51 -4.83 22.58 -9.91 32.75 -14.87 z m -76.45 30.7 l 52.76 52.77 c -3.93 13.4 -6.91 26.7 -8.33 39.29 l -83.63 -83.62 c 12.5 -1.44 25.77 -4.45 39.2 -8.44 z m -18.4 136.39 l -69.02 -69.02 c 1.52 -11.77 4.64 -24.48 10.02 -37.61 l 97.55 97.55 c -13.33 4.99 -26.3 7.81 -38.55 9.08 z" fill="#fff"/></svg>