<svg viewBox="0 0 300 300" xmlns="http://www.w3.org/2000/svg"><g fill="#fff"><path d="m 276.46 20.41 a 67.65 67.65 0 0 1 -83.63 105.22 l -22 5.1 3.75 3.48 22 -5.1 a 67.65 67.65 0 0 0 79.88 -108.7 z" opacity=".3"/><path d="m 136.19 44.3 c -.26 -5.45 -1.84 -8.77 -3.73 -10.78 a 9.87 9.87 0 0 0 -4.33 -2.7 4.66 4.66 0 0 1 -3.29 -3.69 27.86 27.86 0 0 0 -3 -8.66 c -.21 -.36 -.44 -.72 -.67 -1.07 -6.43 -9.95 -18.53 -17.78 -30.17 -16.71 a 22.26 22.26 0 0 0 -8.41 2.48 c -8 4.35 -8.61 15.49 -15.83 21 a 16.46 16.46 0 0 1 -7.76 2.17 c -10 .36 -15.6 12.15 -8.35 23 2 3 3.07 10 4 17.8 a 3 3 0 0 1 1.83 -.28 c .58 .09 1.2 .34 1.71 .06 a 1.7 1.7 0 0 0 .66 -.85 21.24 21.24 0 0 0 2.15 -9.07 32.22 32.22 0 0 1 1.37 -9 c 1.08 -3.75 2.72 -9.17 6.16 -11.5 10.72 -7.25 22.86 5.55 35.34 9.23 5.15 1.52 10.36 1.49 15.56 -2.17 a 2.49 2.49 0 0 1 3.45 .73 2.46 2.46 0 0 1 .28 .57 c 1.68 4.77 6 16.25 6.63 29.87 0 0 -.05 .24 -.12 .66 a 182.55 182.55 0 0 0 5.92 -23.58 39.71 39.71 0 0 0 .6 -7.51 z" opacity=".3"/><path d="m 151.41 218.06 c -1.15 8.65 -2.45 18.55 -3.7 30 l -.12 1.09 c -.88 8.1 1.79 17.54 1.87 25.28 12.46 -9.94 24.85 -29.14 24.77 -59.38 0 -3.6 -.16 -6.84 -.41 -9.8 a 73.12 73.12 0 0 1 -22.41 12.81 z" opacity=".8"/><path d="m 69.66 296.44 a 139.82 139.82 0 0 1 -10.31 -23.38 134.89 134.89 0 0 1 -20.53 -1.55 c -1.23 -.18 -2.46 -.42 -3.67 -.7 .46 5.71 1.3 10.26 2.6 13.14 .37 .65 .74 1.29 1.13 1.92 a 4.66 4.66 0 0 0 .59 .65 c 3.7 3.4 15 9.79 31.42 12.09 -.41 -.72 -.83 -1.45 -1.23 -2.17 z" opacity=".5"/><path d="m 44.51 230.85 l .3 .1 .61 .19 .4 .12 .63 .19 .48 .14 .63 .18 .59 .17 .62 .17 .67 .18 h .08 c -.79 -4.54 -1.52 -9.08 -2.23 -13.61 l -.15 -.91 c -.43 0 -.85 .05 -1.27 .08 h .13 l -.42 2 c -.5 2.44 -1 4.89 -1.33 7.36 -.16 1.13 -.3 2.26 -.43 3.39 h .13 z" opacity=".5"/><path d="m 144.93 233 a 3 3 0 0 0 -4.41 -2.36 73.19 73.19 0 0 1 -10.52 4.8 c -3.39 1.16 -6.63 2.16 -9.24 1.33 a 3.17 3.17 0 0 1 -2.11 -3.74 c .59 -2.55 3.57 -5.39 5.37 -8 .71 -1 -.76 -3.43 -2 -3.1 -2.87 .78 -12 6.85 -14.53 8.75 s -2.85 3.91 -4.16 6.28 c -16.93 3.54 -41.36 -1.3 -53.85 -4.67 h -.08 l -.67 -.18 -.62 -.17 -.59 -.17 -.63 -.18 -.48 -.14 -.63 -.19 -.4 -.12 -.61 -.19 -.3 -.1 -.6 -.19 h -.13 c .13 -1.13 .27 -2.26 .43 -3.39 .34 -2.47 .83 -4.92 1.33 -7.36 l .42 -2 h -.09 c -.88 0 -1.76 .09 -2.62 .1 h -3.05 c -.72 0 -1.43 -.08 -2.14 -.14 l -.59 -.05 a 62.15 62.15 0 0 1 -27.43 -9.94 c -.21 1.13 -.41 2.27 -.6 3.46 a 106.1 106.1 0 0 0 -1.4 11.35 c -.52 7.6 -.71 15.32 .77 22.75 a 36.54 36.54 0 0 0 1.16 5.19 20.55 20.55 0 0 0 .83 2.78 22.93 22.93 0 0 0 10.58 11.85 l 1.66 .91 a 47.25 47.25 0 0 0 15.81 5.34 c 51 7.37 52.35 -13.82 65.74 -14.64 7.79 -.48 23 5.16 33.07 .72 7.93 -3.5 7.92 -17.27 7.31 -24.59 z" opacity=".8"/><path d="m 160.32 159.48 c -7.32 -12.34 -16.79 -15.69 -26.16 -17.48 -7.59 -1.49 -4.79 -1.53 -22.85 -1.34 -9.9 -1.32 -29 -7.11 -41.76 -22.85 2.6 4.28 4.5 8.58 4.32 13.5 0 1.19 -1.31 8.8 -6.06 11.92 -2.07 .17 -7.56 .31 -7.61 .23 a 98.08 98.08 0 0 0 -14.8 .92 h -.24 a 30.8 30.8 0 0 0 -5.72 1.37 c -8.07 3 -17.37 6.8 -23 18.45 -9.66 19.8 -16.44 35.85 -16.44 35.85 s 19.4 20.17 47.14 17.74 l .15 .91 c .71 4.53 1.44 9.07 2.23 13.62 12.5 3.36 36.92 8.2 53.85 4.66 1.31 -2.37 1.77 -4.47 4.16 -6.28 s 11.66 -8 14.53 -8.75 c 1.2 -.33 2.67 2.08 2 3.1 -1.8 2.61 -4.78 5.45 -5.37 8 a 3.17 3.17 0 0 0 2.11 3.74 c 2.61 .83 5.85 -.17 9.24 -1.33 a 72.54 72.54 0 0 0 10.51 -4.8 3 3 0 0 1 4.42 2.36 c .61 7.3 .62 21.07 -7.3 24.57 -10 4.44 -25.28 -1.2 -33.07 -.72 -11.29 .7 -14 15.88 -45.21 16.19 a 139.82 139.82 0 0 0 10.31 23.38 c .4 .72 .82 1.45 1.23 2.17 a 88.86 88.86 0 0 0 11.91 .85 c 21.82 .1 52 -1 63.7 -14.65 6.71 -7.78 -.26 -23.3 1.09 -35.69 l .12 -1.09 c 1.25 -11.42 2.55 -21.32 3.7 -30 a 73.94 73.94 0 0 0 30.31 -20.5 s -9 -17.07 -21.44 -38.05 z"/><path d="m 103.89 45.77 c -12.48 -3.68 -24.62 -16.49 -35.34 -9.23 -3.44 2.33 -5.08 7.75 -6.16 11.5 a 32.25 32.25 0 0 0 -1.39 8.96 21.25 21.25 0 0 1 -2.09 9.06 1.7 1.7 0 0 1 -.66 .85 c -.51 .28 -1.13 0 -1.71 -.06 a 3 3 0 0 0 -1.83 .28 c -2 .95 -3.09 3.84 -3.41 5.72 -.79 4.63 0 8.61 3.86 11.51 a 5.26 5.26 0 0 1 1.43 1.56 c -.62 9.34 2.87 16.36 6.87 22.61 l -.06 -.11 c 16.3 13.68 33.4 10.83 33.4 10.83 s -2.6 -6 -3.48 -9.17 c -.16 -.56 -.3 -1.17 -.43 -1.81 -.85 -.08 -1.7 -.23 -2.54 -.39 a 19.47 19.47 0 0 1 -3.67 -1.28 11.47 11.47 0 0 1 -5.52 -5.13 3 3 0 0 1 1.26 -4.05 l .02 -.01 a 2.9 2.9 0 0 1 1.48 -.34 h .59 a 42.42 42.42 0 0 1 5.3 .74 20.98 20.98 0 0 0 2.17 .36 29.63 29.63 0 0 1 .91 -7.29 4.88 4.88 0 0 1 1.4 -2.53 c 1.35 -1.1 3.46 -.69 4.89 -1.7 s 1.66 -3.09 1.54 -4.86 c -.28 -4.08 -1.22 -8.08 -1.88 -12.11 -1.41 -8.56 0 -14.83 2.32 -19.5 a 28.35 28.35 0 0 1 2.73 -4.41 z m -15 22.58 c -.24 2.17 -1.22 3.84 -2.17 3.73 s -1.53 -2 -1.29 -4.11 1.21 -3.84 2.17 -3.73 1.48 1.95 1.24 4.11 z m 2 -11.36 a 1.12 1.12 0 0 1 -.43 .57 9.24 9.24 0 0 1 -1.56 .85 14.15 14.15 0 0 1 -1.57 .57 c -1.06 .31 -2.11 .66 -3.17 .94 s -2.13 .52 -3.19 .79 a 13.33 13.33 0 0 1 -3.4 .37 1.28 1.28 0 0 1 -.85 -2.18 9.89 9.89 0 0 1 3 -2 27.05 27.05 0 0 1 3.28 -1.09 23.07 23.07 0 0 1 3.5 -.6 8.76 8.76 0 0 1 1.78 -.05 6.6 6.6 0 0 1 1.82 .33 1.18 1.18 0 0 1 .73 1.5 v .01 z"/><path d="m 123.17 44.9 a 2.49 2.49 0 0 0 -3.72 -1.3 c -5.2 3.66 -10.41 3.69 -15.56 2.17 a 28.34 28.34 0 0 0 -2.73 4.43 c -2.31 4.67 -3.73 10.94 -2.32 19.5 .66 4 1.6 8 1.88 12.11 .12 1.77 -.08 3.84 -1.54 4.86 s -3.54 .6 -4.89 1.7 a 4.88 4.88 0 0 0 -1.4 2.53 29.61 29.61 0 0 0 -.89 7.29 h .11 c .78 0 1.52 .12 2.31 .11 a 38.11 38.11 0 0 0 4.85 -.13 c .84 -.11 1.71 -.17 2.64 -.2 a 12.3 12.3 0 0 1 2.93 .19 l 1 .23 a 2.64 2.64 0 0 1 2.01 3.15 l -.01 .03 a 2.58 2.58 0 0 1 -.33 .78 10.01 10.01 0 0 1 -1.24 1.62 11.69 11.69 0 0 1 -1.39 1.25 12.6 12.6 0 0 1 -3.23 1.74 19.78 19.78 0 0 1 -7.38 1.36 8.1 8.1 0 0 1 -1.3 -.07 c .13 .64 .27 1.25 .43 1.81 .88 3.16 3.48 9.17 3.48 9.17 s -17.1 2.85 -33.38 -10.84 l .06 .11 c 2.05 3.22 4.23 6.23 6.07 9.25 12.78 15.74 31.86 21.53 41.76 22.85 l 5.11 -.05 c -6.85 -1.7 -7.81 -6.85 -8.44 -10.58 -.6 -3.56 -1.79 -11.54 1.49 -14.35 7.16 -6.15 13.16 -13.1 16.55 -23.24 1 -3.16 3.13 -14.17 3.66 -17 .07 -.42 .12 -.66 .12 -.66 -.76 -13.57 -5.03 -25.05 -6.71 -29.82 z m -15.78 24.51 c -.24 2.16 -1.21 3.83 -2.17 3.72 s -1.53 -1.94 -1.29 -4.11 1.22 -3.83 2.17 -3.72 1.54 1.94 1.29 4.11 z m 10.8 -7.17 a 1.29 1.29 0 0 1 -.84 .41 12.75 12.75 0 0 1 -3.41 -.22 c -1.08 -.22 -2.16 -.41 -3.23 -.65 s -2.13 -.53 -3.2 -.79 a 14.18 14.18 0 0 1 -1.6 -.5 7.81 7.81 0 0 1 -1.59 -.79 1.18 1.18 0 0 1 -.34 -1.63 1.21 1.21 0 0 1 .56 -.45 6.92 6.92 0 0 1 1.8 -.42 10.58 10.58 0 0 1 1.78 0 26.06 26.06 0 0 1 3.52 .45 27 27 0 0 1 3.39 1 9.66 9.66 0 0 1 3.11 1.83 1.28 1.28 0 0 1 .05 1.76 z" opacity=".8"/><path d="m 105.81 98.41 l -1 -.23 a 12.3 12.3 0 0 0 -2.93 -.19 20.07 20.07 0 0 0 -2.64 .2 36.35 36.35 0 0 1 -4.85 .13 c -.79 0 -1.53 -.1 -2.31 -.11 h -.11 a 20.98 20.98 0 0 1 -2.17 -.36 42.42 42.42 0 0 0 -5.3 -.74 h -.59 a 2.9 2.9 0 0 0 -1.48 .34 3 3 0 0 0 -1.29 4.04 l .01 .02 a 11.43 11.43 0 0 0 5.52 5.13 19.47 19.47 0 0 0 3.67 1.28 c .84 .16 1.69 .31 2.54 .39 .43 0 .87 .07 1.3 .07 a 19.78 19.78 0 0 0 7.38 -1.36 12.6 12.6 0 0 0 3.23 -1.74 11.69 11.69 0 0 0 1.39 -1.25 10.01 10.01 0 0 0 1.24 -1.62 2.58 2.58 0 0 0 .33 -.78 2.64 2.64 0 0 0 -1.91 -3.21 z" opacity=".15"/><path d="m 87.55 64.24 c -1 -.11 -1.93 1.56 -2.17 3.73 s .33 4 1.29 4.11 1.93 -1.56 2.17 -3.73 -.34 -4 -1.29 -4.11 z" opacity=".15"/><path d="m 106.1 65.3 c -.95 -.11 -1.92 1.56 -2.17 3.72 s .34 4 1.29 4.11 1.93 -1.56 2.17 -3.72 -.33 -4.01 -1.29 -4.11 z" opacity=".15"/><path d="m 115 58.61 a 27 27 0 0 0 -3.39 -1 26.06 26.06 0 0 0 -3.52 -.45 10.58 10.58 0 0 0 -1.78 0 6.92 6.92 0 0 0 -1.8 .42 1.21 1.21 0 0 0 -.56 .45 1.18 1.18 0 0 0 .34 1.63 7.81 7.81 0 0 0 1.59 .79 14.18 14.18 0 0 0 1.6 .5 c 1.07 .26 2.13 .57 3.2 .79 s 2.15 .43 3.23 .65 a 12.67 12.67 0 0 0 3.41 .22 1.27 1.27 0 0 0 .75 -2.21 9.68 9.68 0 0 0 -3.07 -1.79 z" opacity=".15"/><path d="m 77.48 61.1 a 13.33 13.33 0 0 0 3.4 -.37 c 1.06 -.27 2.14 -.51 3.19 -.79 s 2.11 -.63 3.17 -.94 a 14.15 14.15 0 0 0 1.57 -.57 9.24 9.24 0 0 0 1.56 -.85 1.12 1.12 0 0 0 .43 -.57 1.18 1.18 0 0 0 -.73 -1.5 6.6 6.6 0 0 0 -1.82 -.33 8.76 8.76 0 0 0 -1.78 .05 23.07 23.07 0 0 0 -3.5 .6 26.9 26.9 0 0 0 -3.32 1.17 9.89 9.89 0 0 0 -3 2 1.28 1.28 0 0 0 .85 2.18 z" opacity=".15"/><path d="m 273.23 86 a 3.87 3.87 0 0 1 -2.88 1.15 3.94 3.94 0 0 1 -2.93 -1.15 3.82 3.82 0 0 1 -1.15 -2.83 3.74 3.74 0 0 1 1.15 -2.8 4 4 0 0 1 2.93 -1.13 3.94 3.94 0 0 1 2.88 1.13 3.74 3.74 0 0 1 1.15 2.8 3.82 3.82 0 0 1 -1.15 2.83 z" opacity=".15"/><path d="m 281.6 63.54 a 10.33 10.33 0 0 1 -1.66 2.68 34.06 34.06 0 0 1 -2.55 2.52 20.15 20.15 0 0 0 -2.88 3.06 5.32 5.32 0 0 0 -.95 3.16 h -6.47 a 7.79 7.79 0 0 1 1.25 -4.56 22.62 22.62 0 0 1 3.64 -4 20.18 20.18 0 0 0 2.73 -2.83 4.42 4.42 0 0 0 .89 -2.73 4.17 4.17 0 0 0 -1.73 -3.47 7.48 7.48 0 0 0 -4.64 -1.33 q -5.5 0 -8.31 3.93 l -5 -3.21 a 14.3 14.3 0 0 1 5.66 -4.62 19.27 19.27 0 0 1 8.16 -1.6 q 5.71 0 9.1 2.47 a 8 8 0 0 1 3.39 6.81 9.27 9.27 0 0 1 -.63 3.72 z" opacity=".15"/><path d="m 244.06 2.35 a 67.63 67.63 0 0 0 -68.43 107.92 l -4.81 20.46 22 -5.1 a 67.65 67.65 0 1 0 51.24 -123.28 z m .37 44.46 a 11 11 0 0 1 2.85 1.67 l -21.05 12.61 h -5.64 l 23.84 -14.28 c -.3 -.12 -.6 -.23 -.91 -.33 .31 .1 .61 .21 .91 .33 z m -64.43 1.67 l 21 12.61 h -5.63 l -17.37 -10.45 a 11.02 11.02 0 0 1 2 -2.16 z m -4.13 12.61 v -4 a 11.08 11.08 0 0 1 1.32 -5.26 l 15.42 9.23 z m 1.32 24.32 a 11.06 11.06 0 0 1 -1.32 -5.26 v -4 h 16.73 l -15.42 9.23 a 11.23 11.23 0 0 0 2 2.65 11.22 11.22 0 0 1 -2 -2.62 z m 2.81 3.38 l 21 -12.61 h 5.63 l -23.8 14.28 a 10.94 10.94 0 0 1 -2.83 -1.67 z m 7 2.48 a 10.67 10.67 0 0 1 -2.3 -.27 c -.32 -.06 -.64 -.15 -.95 -.24 .31 .09 .63 .18 .95 .24 l 22.64 -13.56 v 13.8 z m 55.57 -.27 a 10.79 10.79 0 0 1 -2.28 .24 h -20.36 v -13.77 l 22.64 13.53 a 11.23 11.23 0 0 0 2.51 -.84 11.23 11.23 0 0 1 -2.51 .84 z m 8.84 -10.88 a 11.32 11.32 0 0 1 -4.1 8.64 l -21.08 -12.58 h 5.63 l 17.45 10.46 a 11.01 11.01 0 0 0 .77 -1.23 l -15.41 -9.23 h 16.74 z m 0 -7 h -34 v 18.15 h -7.55 v -18.11 h -34 v -9 h 34 v -18.16 h -2.52 v 13.8 l -22.64 -13.56 a 10.71 10.71 0 0 1 2.3 -.24 h 53.31 a 10.79 10.79 0 0 1 2.28 .24 l -22.66 13.56 v -13.8 h -2.52 v 18.11 h 34 z m 0 -12.07 h -16.74 l 15.41 -9.23 a 10.99 10.99 0 0 1 1.33 5.26 z m 21.82 24.95 a 3.87 3.87 0 0 1 -2.88 1.15 3.94 3.94 0 0 1 -2.93 -1.15 3.82 3.82 0 0 1 -1.15 -2.83 3.74 3.74 0 0 1 1.15 -2.8 4 4 0 0 1 2.93 -1.13 3.94 3.94 0 0 1 2.88 1.13 3.74 3.74 0 0 1 1.15 2.8 3.82 3.82 0 0 1 -1.15 2.83 z m 8.37 -22.46 a 10.33 10.33 0 0 1 -1.66 2.68 34.06 34.06 0 0 1 -2.55 2.52 20.15 20.15 0 0 0 -2.88 3.06 5.32 5.32 0 0 0 -.95 3.16 h -6.47 a 7.79 7.79 0 0 1 1.25 -4.56 22.62 22.62 0 0 1 3.64 -4 19.69 19.69 0 0 0 2.73 -2.83 4.42 4.42 0 0 0 .89 -2.73 4.17 4.17 0 0 0 -1.73 -3.47 7.48 7.48 0 0 0 -4.64 -1.33 q -5.5 0 -8.31 3.93 l -5 -3.21 a 14.3 14.3 0 0 1 5.66 -4.62 19.27 19.27 0 0 1 8.16 -1.6 q 5.71 0 9.1 2.47 a 8 8 0 0 1 3.39 6.81 9.27 9.27 0 0 1 -.63 3.72 z"/></g><g fill="#c00"><path d="m 217.41 46 h -7.55 v 18.11 h -34 v 9.05 h 34 v 18.11 h 7.55 v -18.11 h 34 v -9.05 h -34 z"/><path d="m 226.23 76.18 l 21.05 12.61 a 11.21 11.21 0 0 0 2 -2.15 l -17.42 -10.46 z"/><path d="m 201 76.18 l -21 12.61 a 10.93 10.93 0 0 0 2.84 1.67 l 23.84 -14.28 z"/><path d="m 201 61.09 l -21 -12.61 a 11.02 11.02 0 0 0 -2 2.16 l 17.45 10.45 z"/><path d="m 226.23 61.09 l 21.05 -12.61 a 11 11 0 0 0 -2.85 -1.67 l -23.84 14.28 z"/></g><g fill="#006"><path d="m 219.93 91.27 h 20.36 a 10.79 10.79 0 0 0 2.28 -.24 l -22.64 -13.56 z"/><path d="m 234.67 61.09 h 16.74 v -4 a 10.99 10.99 0 0 0 -1.33 -5.26 z"/><path d="m 250.08 85.41 a 10.99 10.99 0 0 0 1.33 -5.26 v -4 h -16.74 z"/><path d="m 184.7 91 a 10.72 10.72 0 0 0 2.28 .24 h 20.36 v -13.77 z"/><path d="m 175.86 76.18 v 4 a 11.06 11.06 0 0 0 1.32 5.26 l 15.42 -9.23 z"/><path d="m 207.34 46 h -20.34 a 11.35 11.35 0 0 0 -2.28 .24 l 22.62 13.56 z"/><path d="m 242.57 46.24 a 11.49 11.49 0 0 0 -2.28 -.24 h -20.36 v 13.8 z"/><path d="m 177.18 51.86 a 11.08 11.08 0 0 0 -1.32 5.26 v 4 h 16.74 z"/></g></svg>