<svg enable-background="new 0 0 100 100" viewBox="0 0 100 100" xmlns="http://www.w3.org/2000/svg"><path d="m 41.45 13.35 c 2.1 .38 23.59 .57 27.85 22.08 .52 2.61 -.71 10.64 -3.47 13.69 0 0 .44 1.97 .25 3.4 s -5.07 13.04 -5.27 26.88 c -.19 13.85 8.81 16.32 14.78 11.4 3.61 -2.98 5.06 -.33 5.06 -.33 s -.07 1.5 -2.67 3.2 c -7.55 4.92 -20.51 5.02 -20.51 -12.65 s 2.69 -28.73 2.69 -28.73 -1.06 .6 -3.26 .51 c 0 0 -.22 1.6 -2.06 1.74 -2.57 .2 -4.63 -.39 -6.45 -.36 -2.27 .03 -3.44 2.06 -4.97 2.18 h -3.81 s -1 -1.22 -.05 -2.36 2.03 -2.37 3.58 -2.75 c 1.6 -.38 5.35 -.12 5.35 -.12 s -.86 -1.24 -1.72 -3.34 -2.05 -4.58 -2.05 -4.58 l -9.89 8.88 s .38 1.15 -.67 2.2 -2.48 2.13 -2.48 2.13 h -5.16 s -.64 -2.15 .96 -3.28 c .94 -.66 2.48 -1.61 2.48 -1.61 s -1.79 .53 -1.62 0 c .28 -.88 2.2 -1.58 2.2 -1.58 l 9.07 -9.81 s -.38 -2.52 -1.34 -4.56 c -.96 -2.03 -3.38 -4.2 -3.71 -6.12 -.66 -3.72 .78 -5.58 -.21 -7.28 0 0 -4.55 .22 -6.97 .29 -1.59 .04 -1.41 -1.45 -1.41 -1.45 l -1.29 -.07 .32 -1.69 s -.86 -.03 -.75 -.54 c .56 -2.6 2.13 -3.47 2.08 -4.44 -.05 -1.03 -2.79 -.5 -2.79 -.5 s 1.36 -7.17 6.81 -8.45 c 3.96 -.94 5.95 -.64 7.09 0 1.15 .65 3.34 2.95 3.72 4.01 .55 1.55 .29 4.01 .29 4.01 z" fill="#fff"/></svg>