<svg enable-background="new 0 0 96 96" viewBox="0 0 96 96" xmlns="http://www.w3.org/2000/svg"><path d="m 71.35 29.88 c -3.75 .6 -1.88 1.5 -6.45 .22 -7.2 -1.88 -11.93 -5.7 -20.4 -3.38 -4.35 1.13 -8.47 3.75 -10.35 6.6 -1.35 2.1 -1.88 2.85 -3 5.47 -1.13 2.25 -1.72 5.47 -1.72 8.32 0 1.72 1.72 2.63 -3.6 6.07 -4.28 2.55 -10.88 4.05 -15.97 5.03 -1.42 .38 -2.7 .38 -4.35 .68 -7.2 .75 -6.3 7.5 -2.25 11.25 3.83 3.53 10.35 1.95 13.43 .15 3.07 -1.8 6.38 -5.78 9.53 -6.82 3.15 -1.13 1.2 -1.43 -1.72 -1.13 -2.85 .3 -7.43 6.6 -12.75 7.05 -5.33 .53 -9.08 -2.18 -8.47 -5.25 .38 -2.02 3.08 -2.77 4.95 -3.07 .6 -.07 1.2 -.15 1.8 -.22 5.85 -.75 13.05 -2.4 15.9 -3.07 2.47 -.75 4.72 -1.72 6.97 -2.25 1.35 1.35 .75 2.63 4.35 4.73 3 1.72 10.95 1.13 14.93 1.13 1.73 0 5.48 .38 6.82 -.23 .75 -1.35 -.97 -2.47 -2.25 -2.85 -2.47 -.75 -3.22 .38 -5.1 .38 h -5.1 c 1.88 -2.1 .97 -1.5 4.35 -1.73 3.75 -.38 6.45 -.6 10.2 -1.5 3 -.75 2.1 -.97 4.35 .23 2.47 1.35 5.1 2.47 7.57 4.13 3 1.72 6.6 2.25 9.82 1.13 v -1.5 l -6.23 -.6 c -.6 -.75 -.75 -1.13 -1.5 -2.1 -.6 -.6 -1.13 -1.35 -1.35 -2.25 -.38 -.97 -.38 -2.1 -.38 -3.22 .38 -1.88 .38 -1.35 1.72 -2.25 .75 -.75 1.13 -1.35 1.88 -1.88 6.82 -6.45 6.82 -1.72 12.3 -3.97 1.35 -.6 2.1 -.38 3.23 -.97 1.73 -.97 1.35 -1.88 3.75 -3.75 0 -2.47 -1.73 -2.85 -5.48 -5.25 -2.85 -2.1 -3.38 -2.63 -7.57 -3.38 -3.6 -.6 -1.5 -.38 -2.63 -2.63 -.75 -1.72 -5.47 -5.7 -7.35 -4.13 -1.65 1.33 -1.5 4.71 -1.88 6.81 z m 13.28 2.32 c .9 0 1.65 .75 1.65 1.65 s -.75 1.65 -1.65 1.65 -1.65 -.75 -1.65 -1.65 c 0 -.97 .75 -1.65 1.65 -1.65 z" fill="#fff"/></svg>