<svg enable-background="new 0 0 841.889 1190.551" height="1190.55" viewBox="0 0 841.89 1190.55" width="841.89" xmlns="http://www.w3.org/2000/svg"><path d="m 737.77 601.67 c 2.84 -.36 79.74 .96 99.45 -18.17 0 0 -76.32 -45.83 -164.59 -67.89 -88.28 -22.07 -124.59 -20.11 -151.86 -58.12 -27.24 -38 -48.7 -53.83 -61.94 -56.37 0 0 12.82 48.53 5.54 63.82 s -14.26 38.43 -39.46 43.22 c -25.22 4.77 -137 32.43 -143.82 29.77 -6.8 -2.67 -21.33 -9.38 -21.33 -9.38 s -11.69 19.93 -23.29 24.47 c -11.61 4.5 -36.8 9.29 -36.8 9.29 s -142.28 -72.99 -166.46 -82.01 c -24.15 -9.03 -24.8 -3.17 -24.8 -3.17 s 27.36 38.69 29.37 37.72 c 2.02 -.97 11.91 -2.27 11.91 -2.27 s 85.77 68.24 101.08 92.05 c 0 0 .88 50.1 -21.54 76 0 0 19.32 -.39 44.12 -24.46 24.8 -24.08 40.41 -57.71 40.41 -57.71 s 50.05 -6.59 42.26 26.68 l 34.73 -19.63 16.33 4.3 s 18.81 6.85 11.26 20.01 c 0 0 51.1 -9.61 60.04 -12.21 0 0 118.59 18.04 141.56 12.83 0 0 -10.25 30.78 -87.08 57.42 0 0 106.53 3.16 168.32 -55.95 0 0 57.15 14.71 163.39 -17.27 .02 -.01 -29.59 -12.6 -26.8 -12.97 z m 33.54 -23.32 c 2.34 0 4.27 1.9 4.27 4.27 s -1.93 4.27 -4.27 4.27 c -2.37 0 -4.26 -1.9 -4.26 -4.27 0 -2.36 1.9 -4.27 4.26 -4.27 z m -160.44 15.35 c -.75 2.93 -1.85 5.68 -3.17 8.32 -.35 .33 -.71 .65 -1.06 .96 -.93 .81 -1.61 1.33 -2.33 1.88 l -.66 -.07 c .56 -1.43 .97 -2.87 1.28 -4.01 1.63 -5.9 2.04 -13 -.27 -18.84 -.13 -2.43 -.48 -4.85 -1.11 -7.15 l .28 -.11 2.58 2.73 c 1.53 1.6 3.4 3.19 3.84 5.46 .09 .46 .23 .86 .39 1.23 .25 2.55 .42 5.54 .42 9.02 -.07 .17 -.13 .37 -.19 .58 z m 17.2 4.45 c -.07 3.82 -.62 7.4 -1.83 11.03 -.62 1.87 -1.7 3.49 -2.72 5.15 -1.05 1.07 -2.11 2.09 -3.27 3.01 1.9 -9.21 3.88 -18.07 3.87 -27.69 -.01 -5.63 -1.61 -10.17 -3.77 -14.53 -.35 -1.43 -.79 -2.82 -1.42 -4.21 -.2 -.44 -.42 -.85 -.66 -1.26 -.56 -1.93 -1.09 -3.85 -2.12 -5.63 -.1 -.71 -.18 -1.36 -.23 -1.8 .04 .02 .07 .04 .11 .07 .24 .52 .58 .98 1.04 1.36 1.15 .93 2.2 1.95 3.19 3.06 .14 .18 .23 .28 .28 .34 2.73 7.05 6.03 13.8 7.5 21.33 .48 2.45 .61 4.91 .65 7.39 -.38 .65 -.6 1.45 -.62 2.38 z m 13.94 4.12 c -.08 .07 -.15 .15 -.23 .23 -.16 .16 -.28 .33 -.41 .5 -.64 .42 -1.19 .97 -1.58 1.63 l -.11 -.01 c 1.96 -19.68 -1.43 -28.45 -1.47 -28.53 l .59 -.24 c 3.19 4.51 5.23 9.49 5.66 15.23 .29 3.76 -.93 7.52 -2.45 11.19 z" fill="#fff"/></svg>