<svg enable-background="new 0 0 95 95" fill="#fff" viewBox="0 0 95 95" xmlns="http://www.w3.org/2000/svg"><path d="m 14.95 33.2 s 1.76 -2.53 4.95 -4.83 c 3.19 -2.31 4.92 -1.98 8.11 -4.08 s 5.5 -7.79 12.23 -7.71 8.9 6.33 11.83 8.61 3.35 1.77 5.26 3.94 c 1.91 2.16 4.58 8.93 10.6 9 6.32 .08 8.91 -3.06 9.03 -12.64 .04 -3.54 1.37 -3.55 1.37 -3.55 s -.97 -4.4 4.03 -4.34 4.46 1.89 7.83 1.93 4.67 2.3 4.65 3.53 c -.01 1.23 -.42 1.02 -1.03 1.01 s -1.93 -.23 -2.55 -.23 c -.61 -.01 -3.18 1.18 -4.1 1.17 -.91 -.01 -1.42 -.02 -1.42 -.02 s -.22 1.02 -.23 2.75 c -.02 1.74 -2.19 3.54 -2.19 3.54 s -1.88 15.69 -15.34 15.52 c -3.3 -.04 -4.18 -.1 -6.07 -.12 -2.54 -.03 -4.77 .85 -4.6 1.7 .21 1.02 1.79 11.17 1.79 11.17 s 1.52 1.34 1.8 3.19 c .29 1.84 -.25 3.98 -.25 3.98 s 1.87 7.84 2.75 8.8 c .81 .88 2.01 .59 2.94 1.26 1.12 .8 1.33 1.65 .94 1.65 -1.75 -.02 -3.82 .02 -5.15 0 -1.32 -.01 -4.14 -11.34 -4.14 -11.34 s -1.72 -1.35 -2.21 -3.09 c -.49 -1.75 .03 -4 .03 -4 l -4.56 -10.62 -4.41 10.28 s .1 2.47 -.52 3.97 c -.69 1.65 -2.19 3.28 -2.19 3.28 s -2.07 5.58 -2.22 6.81 c -.12 .96 .23 2.19 2.05 2.98 1.11 .48 1.04 1.72 .64 1.71 -1.07 -.01 -4.69 .01 -5.51 0 s -.71 -.97 -.59 -1.98 c .11 -1.02 3.09 -11.18 3.09 -11.18 s -.62 -1.75 -.09 -3.69 c .53 -1.93 1.69 -2.81 1.69 -2.81 l 2.56 -9.35 s -4.89 .34 -9.44 -.67 c -6.32 -1.4 -9.67 -4.16 -9.67 -4.16 s -.01 .73 -.04 3.07 c -.03 2.33 -1.38 4.36 -1.38 4.36 s -.99 5.91 -.51 8.46 4.21 11.33 5.81 13.59 3.28 1.92 3.88 3.15 -.03 1.22 -.03 1.22 -4.34 .01 -4.85 0 -2.43 -3.6 -3.93 -6.94 c -3.28 -7.28 -5.59 -7.52 -5.98 -9.15 -.39 -1.64 .5 -2.03 -.06 -6.33 -.56 -4.29 -1.21 -6.95 -1.21 -6.95 s -1.54 1.72 -3.7 3.83 c -2.17 2.12 -5.11 5.11 -5.52 5.54 -.41 .44 -.63 1.73 -1.57 2.84 -.93 1.11 -1.97 2.42 -1.97 2.42 s -.64 2.65 -1.09 5.7 c -.42 3.06 -1.01 5.3 1.28 5.94 1.08 .3 1.93 .94 2.02 1.76 .05 .42 -.22 1.34 -.22 1.34 h -5.4 s -2.02 -2.35 -2 -3.57 1.17 -4.27 1.61 -7.02 .96 -8.69 1.31 -9.44 1.85 -1 3.02 -2.14 3.85 -5.97 5.12 -9.63 2.9 -12 2.9 -12 -1.63 .08 -2.28 2.73 -1.73 8.16 -2.88 10.07 -3.21 3.93 -3.21 3.93 -.38 -2.31 .35 -4 c .74 -1.69 2.58 -2.59 3.33 -5.03 .74 -2.44 1.35 -6.36 3.15 -7.92 1.47 -1.27 2.36 -1.2 2.36 -1.2 z"/></svg>