<svg enable-background="new 0 0 100 100" viewBox="0 0 100 100" xmlns="http://www.w3.org/2000/svg"><path d="m 98.32 56.38 c -.46 -.91 -.85 -2.14 -1.18 -3.71 l -.34 -1.71 -.67 -.33 -2.7 -5.58 c -.8 -1.24 -1.57 -2.28 -2.28 -3.12 -.74 -.84 -1.27 -1.5 -1.62 -1.94 l -5.06 -3.22 -2.53 -2.69 c -.34 -.22 -.88 -.61 -1.61 -1.1 -.73 -.51 -1.56 -.88 -2.45 -1.1 -2.6 -.67 -4.56 -1.02 -5.91 -1.02 l -7.27 .34 -3.38 .67 -3.88 .51 -5.91 -.51 -3.38 -1.02 -3.38 -2.37 -1.02 -.67 -1.68 -1.69 -3.22 -1.02 c -1.24 -.55 -2.53 -.55 -3.88 0 l -3.55 1.02 -2.53 1.69 h -.69 l -.67 .67 c -.56 .34 -.99 .54 -1.26 .59 -.29 .07 -.54 .1 -.76 .1 -.58 0 -1.53 .33 -2.89 1 l -1.68 1.69 c -1.13 1.13 -1.98 1.69 -2.53 1.69 -.91 .23 -1.9 .45 -2.97 .67 s -2.1 .33 -3.12 .33 c -.89 0 -1.75 -.14 -2.53 -.41 -.78 -.28 -1.47 -.88 -2.02 -1.77 -1.36 -1.36 -1.71 -2.87 -1.02 -4.56 0 -.89 .17 -1.64 .5 -2.19 .34 -.58 .91 -1.25 1.71 -2.04 l 2.69 -2.71 c .91 -.89 1.57 -1.77 2.04 -2.61 .44 -.84 .55 -1.83 .33 -2.96 l -1.35 -2.71 -1.69 -1.35 c -.67 -.23 -1.02 0 -1.02 .67 s -.17 1.24 -.51 1.69 c -.91 .56 -1.07 .84 -.5 .84 l 1 1.87 -1 2.19 -4.56 3.38 -3.38 4.91 -.17 6.08 c .11 2.15 .66 3.77 1.68 4.89 1.58 2.25 3.22 3.88 4.89 4.89 1.25 .91 2.54 1.73 3.9 2.45 1.35 .74 2.8 1.26 4.39 1.62 l -1.36 .66 h -7.57 c -1.35 -.33 -2.57 -.63 -3.63 -.92 -1.07 -.29 -1.84 -.54 -2.28 -.76 h -.86 v .33 l 4.4 2.36 c 2.02 .58 3.9 .96 5.65 1.18 s 3.64 .34 5.66 .34 c 1.35 -.23 2.64 -.45 3.89 -.67 1.24 -.22 2.47 -.52 3.71 -.85 l 4.89 .69 h 2.36 l -3.04 2.53 c -.11 .44 -.11 .67 0 .67 l 1.69 .34 h 2.2 l .84 .66 c .23 -.33 .37 -.36 .43 -.08 .06 .29 .25 .88 .59 1.79 v 2.36 4.21 c -.34 .91 -.62 1.62 -.84 2.12 -.23 .51 -.58 .94 -1.02 1.26 l -.85 3.22 -2.36 3.22 -1.02 2.69 -1.18 3.38 v 2.36 l -.5 2.2 c -.23 .55 -.4 .99 -.52 1.26 -.11 .27 -.33 .41 -.66 .41 l -1.71 1.87 v .84 l 1.71 1.69 2.2 .67 h 5.73 c .23 0 .34 -.56 .34 -1.69 v -3.38 l .67 -2.2 .67 -2.69 2.03 -3.38 1.51 -2.2 c .44 -.66 1.02 -1 1.69 -1 l 4.55 -4.06 1.02 -2.2 2.71 8.96 .67 2.19 .69 3.38 c .11 1.47 .11 2.53 0 3.2 l -.69 1.02 v 1.02 l -1.02 1.68 c 0 .91 .34 1.36 1.02 1.36 h .85 6.75 c 1.13 0 1.69 -.23 1.69 -.67 l -.51 -2.53 c -.23 -.45 -.37 -.88 -.43 -1.26 -.06 -.4 -.08 -1.05 -.08 -1.95 l -.67 -2.53 -.34 -15.55 1.53 .67 3.73 1.02 7.26 1.51 h 4.06 l .34 1.36 c .33 1.25 .5 2.43 .5 3.55 0 1.25 -.17 2.08 -.5 2.54 l -.34 3.88 v 1.02 c .34 1.13 .34 1.68 0 1.68 l -.67 2.2 c -.69 1.13 -1.58 2.03 -2.71 2.71 -.34 .34 -.59 .62 -.76 .84 -.17 .23 -.14 .52 .08 .85 l .67 .67 h 9.97 l 1.02 -2.36 v -1.69 c .79 -.78 .79 -2.09 0 -3.88 0 -1.24 .55 -3.22 1.68 -5.91 .58 -2.48 1.47 -4.4 2.71 -5.75 l .51 .66 c 0 .36 .11 .94 .33 1.79 .23 .84 .47 1.94 .69 3.3 l 1.68 4.21 1.18 2.37 1.18 3.22 1.02 4.06 h 4.91 l 1.35 -.67 1.02 -1.02 .67 -1.51 c .33 -.91 .33 -1.53 0 -1.87 l -1.35 -1.35 -.34 -1.51 -1.35 -2.03 -1.69 -2.87 -.33 -2.02 v -1.69 l .33 -3.38 v -12.83 l .85 -.34 4.21 6.6 1.18 2.02 v -3.21 l -.66 -2.03 c -.23 -.9 -.57 -1.79 -1.01 -2.7 z" fill="#fff"/></svg>