<svg enable-background="new 0 0 279.6 277.4" viewBox="0 0 279.6 277.4" xmlns="http://www.w3.org/2000/svg"><g fill="#fff"><path d="m 137.9 71.5 c 4.36 0 7.9 3.54 7.9 7.9 s -3.54 7.9 -7.9 7.9 -7.9 -3.54 -7.9 -7.9 3.54 -7.9 7.9 -7.9 z"/><path d="m 120.2 27.5 c 6.7 0 5.6 -9.9 13.5 -12.9 1.3 -.6 2.8 -1 4.3 -1 1.6 .1 3.2 .5 4.7 1.2 3.3 1.7 5.3 5.1 5.3 8.8 0 2.5 -.9 4.9 -2.6 6.7 -2 2.5 -4.1 4.8 -6.5 7 -1.3 1.3 -4.3 3.5 -6.2 6.8 -1.1 1.8 -1.6 3.9 -1.6 6 v 6.9 c 0 3.8 3.1 6.9 6.9 6.9 s 6.9 -3.1 6.9 -6.9 c 0 -6.9 -2 -7.9 7.9 -14.7 5.9 -4.2 9.6 -9.2 10.6 -14.8 .4 -1.6 .6 -3.3 .6 -4.9 0 -12.4 -11 -22.4 -24.7 -22.4 -6.1 0 -12.1 2.1 -16.8 6 -5.3 4 -9.1 9.6 -9.1 14.6 -.1 1.7 .4 3.3 1.3 4.7 1.4 1.4 3.4 2.2 5.5 2 z"/><path d="m 53.8 187.5 c 10.8 2.1 22.8 -13.1 26.8 -33.9 .5 -2.5 .8 -5 1.1 -7.6 0 -.1 0 -.2 0 -.3 v -.6 c 0 -.1 0 -.2 0 -.3 v -.1 c .6 -10.5 -6.1 -20.1 -16.2 -23.1 -4.6 -1.3 -9.5 -1.3 -14 .2 -1.7 .6 -3.3 1.3 -4.8 2.2 -1.6 1 -3.4 1.5 -5.2 1.6 l -1.1 -5.2 c -.3 -.9 -.1 -1.9 .6 -2.6 l 4.4 -5.9 c 1 -1 1 -2.6 0 -3.6 l -.5 -.6 c -1 -1 -2.6 -1 -3.6 0 -.2 .2 -.4 .5 -.6 .9 l -1.3 4.2 c -.7 -2.2 -1.9 -4.3 -3.5 -6 -4 -4 -10.2 -4.4 -10.2 -4.4 s .4 6.1 4.4 10.2 c 2.3 2.1 5.1 3.5 8.1 4.1 l -.4 1.4 c -.2 .6 -.2 1.2 0 1.7 l 1.3 5.7 c -1.4 -.2 -2.6 -.7 -3.8 -1.4 -10.8 -6.7 -25 -3.3 -31.6 7.5 -2.5 4.1 -3.7 8.9 -3.4 13.7 v .1 c 0 .2 0 .4 .1 .6 .2 2.5 .6 5.1 1.1 7.6 4 20.8 16 36 26.8 33.9 1.7 -.3 3.3 -1.1 4.6 -2.1 4.9 -3.7 11.7 -3.7 16.6 0 1.1 1 2.6 1.7 4.3 2.1 z m -33.4 -54.2 c -4.3 0 -7.7 3.5 -7.7 7.7 0 1.4 -1.1 2.5 -2.5 2.5 s -2.5 -1.1 -2.5 -2.5 c 0 -7 5.7 -12.7 12.7 -12.7 1.4 0 2.5 1.1 2.5 2.5 s -1.1 2.5 -2.5 2.5 z"/><path d="m 152.7 187.5 c 10.8 2.1 22.8 -13.1 26.8 -33.9 .5 -2.5 .8 -5 1.1 -7.6 0 -.1 0 -.2 0 -.3 v -.6 c 0 -.1 0 -.2 0 -.3 v -.1 c .6 -10.5 -6.1 -20.1 -16.2 -23.1 -4.6 -1.3 -9.5 -1.3 -14 .2 -1.7 .6 -3.3 1.3 -4.8 2.2 -1.6 1 -3.4 1.5 -5.2 1.6 l -1.1 -5.2 c -.3 -.9 -.1 -1.9 .6 -2.6 l 4.4 -5.9 c 1 -1 1 -2.6 0 -3.6 l -.6 -.6 c -1 -1 -2.6 -1 -3.6 0 -.2 .2 -.4 .5 -.6 .9 l -1.3 4.2 c -.7 -2.2 -1.9 -4.3 -3.5 -6 -4 -4 -10.2 -4.4 -10.2 -4.4 s .4 6.2 4.4 10.2 c 2.3 2.1 5.1 3.5 8.1 4.1 l -.4 1.4 c -.2 .6 -.2 1.2 -.1 1.7 l 1.3 5.7 c -1.4 -.2 -2.6 -.7 -3.8 -1.4 -10.8 -6.7 -25 -3.3 -31.6 7.5 -2.5 4.1 -3.7 8.9 -3.4 13.7 v .1 c 0 .2 0 .4 .1 .6 .2 2.5 .6 5.1 1.1 7.6 4 20.8 16 36 26.8 33.9 1.7 -.3 3.3 -1.1 4.6 -2.1 4.9 -3.7 11.7 -3.7 16.6 0 1.3 1 2.8 1.8 4.5 2.1 z m -33.3 -54.2 c -4.3 0 -7.7 3.5 -7.7 7.7 0 1.4 -1.1 2.5 -2.5 2.5 s -2.5 -1.1 -2.5 -2.5 c 0 -7 5.7 -12.7 12.7 -12.7 1.4 0 2.5 1.1 2.5 2.5 s -1.1 2.5 -2.5 2.5 z"/><path d="m 263.4 121.5 c -4.6 -1.3 -9.5 -1.3 -14 .2 -1.7 .6 -3.3 1.3 -4.8 2.2 -1.6 1 -3.4 1.5 -5.2 1.6 l -1.1 -5.2 c -.3 -.9 -.1 -1.9 .6 -2.6 l 4.4 -5.9 c 1 -1 1 -2.6 0 -3.6 l -.6 -.6 c -1 -1 -2.6 -1 -3.6 0 -.2 .2 -.4 .5 -.6 .9 l -1.3 4.2 c -.7 -2.2 -1.9 -4.3 -3.5 -6 -4 -4 -10.2 -4.4 -10.2 -4.4 s .4 6.2 4.4 10.2 c 2.3 2.1 5.1 3.5 8.1 4.1 l -.4 1.4 c -.2 .6 -.2 1.2 -.1 1.7 l 1.3 5.7 c -1.4 -.2 -2.6 -.7 -3.8 -1.4 -10.8 -6.7 -25 -3.3 -31.6 7.5 -2.5 4.1 -3.7 8.9 -3.4 13.7 v .1 c 0 .2 0 .4 .1 .6 .2 2.5 .6 5.1 1.1 7.6 4 20.8 16 36 26.8 33.9 1.7 -.3 3.3 -1.1 4.6 -2.1 4.9 -3.7 11.7 -3.7 16.6 0 1.4 1 2.9 1.8 4.6 2.1 10.8 2.1 22.8 -13.1 26.8 -33.9 .5 -2.5 .8 -5 1.1 -7.6 0 -.1 0 -.2 0 -.3 v -.6 c 0 -.1 0 -.2 0 -.3 v -.1 c .5 -10.5 -6.2 -20 -16.3 -23.1 z m -45 11.8 c -4.3 0 -7.7 3.5 -7.8 7.7 0 1.4 -1.1 2.5 -2.5 2.5 s -2.5 -1.1 -2.5 -2.5 c 0 -7 5.7 -12.7 12.7 -12.8 1.4 0 2.5 1.1 2.5 2.5 s -1.1 2.6 -2.4 2.6 z"/><path d="m 112.1 211.3 c -4.6 -1.3 -9.5 -1.3 -14 .2 -1.7 .6 -3.3 1.3 -4.8 2.2 -1.6 1 -3.4 1.5 -5.3 1.6 l -1.1 -5.2 c -.3 -.9 -.1 -1.9 .6 -2.6 l 4.4 -5.9 c 1 -1 1 -2.6 0 -3.6 l -.6 -.6 c -1 -1 -2.6 -1 -3.6 0 -.2 .2 -.4 .5 -.6 .9 l -1.3 4.2 c -.7 -2.2 -1.9 -4.3 -3.5 -6 -4 -4 -10.2 -4.4 -10.2 -4.4 s .3 6.2 4.4 10.2 c 2.3 2.1 5.1 3.5 8.1 4 l -.4 1.4 c -.2 .6 -.2 1.2 -.1 1.7 l 1.3 5.7 c -1.4 -.2 -2.6 -.7 -3.8 -1.4 -10.8 -6.7 -25 -3.3 -31.6 7.5 -2.5 4.1 -3.7 8.9 -3.4 13.7 v .1 .6 c .2 2.6 .6 5.1 1 7.6 4 20.8 16 36 26.8 33.9 1.7 -.3 3.3 -1.1 4.6 -2.1 4.9 -3.7 11.7 -3.7 16.6 0 1.4 1 2.9 1.8 4.6 2.1 10.8 2.1 22.8 -13.1 26.8 -33.9 .5 -2.5 .8 -5 1.1 -7.6 0 -.1 0 -.2 0 -.3 v -.6 c 0 -.1 0 -.2 0 -.3 v -.1 c .7 -10.4 -6 -20 -16 -23 z m -45 11.8 c -4.3 0 -7.7 3.5 -7.7 7.7 0 1.4 -1.1 2.5 -2.5 2.5 s -2.5 -1.1 -2.5 -2.5 c 0 -7 5.7 -12.7 12.7 -12.7 1.4 0 2.5 1.1 2.5 2.5 s -1.2 2.5 -2.5 2.5 z"/><path d="m 211 211.3 c -4.6 -1.3 -9.5 -1.3 -14 .2 -1.7 .6 -3.3 1.3 -4.8 2.2 -1.6 1 -3.4 1.5 -5.3 1.6 l -1.1 -5.2 c -.3 -.9 -.1 -1.9 .6 -2.6 l 4.4 -5.9 c 1 -1 1 -2.6 0 -3.6 l -.6 -.6 c -1 -1 -2.6 -1 -3.6 0 -.2 .2 -.4 .5 -.6 .9 l -1.3 4.2 c -.7 -2.2 -1.9 -4.3 -3.5 -6 -4 -4 -10.2 -4.4 -10.2 -4.4 s .4 6.2 4.4 10.2 c 2.3 2.1 5.1 3.5 8.1 4.1 l -.4 1.4 c -.2 .6 -.2 1.2 -.1 1.7 l 1.3 5.7 c -1.4 -.2 -2.6 -.7 -3.8 -1.4 -10.8 -6.7 -25 -3.3 -31.6 7.5 -2.5 4.1 -3.7 8.9 -3.4 13.7 v .1 c 0 .2 0 .4 .1 .6 .2 2.5 .6 5.1 1.1 7.6 4 20.8 16 36 26.8 33.9 1.7 -.3 3.3 -1.1 4.6 -2.1 4.9 -3.7 11.7 -3.7 16.6 0 1.4 1 2.9 1.8 4.6 2.1 10.8 2.1 22.8 -13.1 26.8 -33.9 .5 -2.5 .8 -5 1.1 -7.6 0 -.1 0 -.2 0 -.3 v -.6 c 0 -.1 0 -.2 0 -.3 v -.1 c .6 -10.5 -6.1 -20.1 -16.2 -23.1 z m -45 11.8 c -4.3 0 -7.7 3.5 -7.7 7.7 0 1.4 -1.1 2.5 -2.5 2.5 s -2.5 -1.1 -2.5 -2.5 c 0 -7 5.7 -12.7 12.7 -12.8 1.4 0 2.5 1.1 2.5 2.5 s -1.2 2.5 -2.5 2.6 z"/></g></svg>