<svg enable-background="new 0 0 300 219.9" viewBox="0 0 300 219.9" xmlns="http://www.w3.org/2000/svg"><g fill="#fff"><path d="m 281.4 172.7 c 0 3.5 7.1 5.7 12.9 5.7 2.9 0 4.3 -1.4 4.3 -8.6 0 -5.7 -2.9 -7.1 -2.9 -11.4 0 -20 -10.1 -41.4 -44.3 -41.4 -2.9 0 -4.3 1.4 -4.3 4.3 0 24.3 34.3 20 34.3 51.4 z"/><path d="m 275.7 177 c 0 -33.1 -35.7 -22.9 -35.7 -62.9 0 -7.1 -1.4 -10 -4.3 -10 -22.9 0 -40 15.7 -57.1 15.7 -31.4 0 -61.4 -40 -108.6 -40 -48.6 0 -70 20 -70 55.7 0 53 40 82.9 94.3 82.9 40 0 54.3 -20 77.1 -20 18.5 0 51.4 21.4 78.5 21.4 30.4 0 50 -12.5 50 -30 .1 -7.1 -24.2 -2.8 -24.2 -12.8 z m -240.7 -35.1 h -8 c -2.2 0 -4 -1.8 -4 -4 s 1.8 -4 4 -4 h 8 c 2.2 0 4 1.8 4 4 s -1.8 4 -4 4 z m 24 8 h -8 c -2.2 0 -4 -1.8 -4 -4 s 1.8 -4 4 -4 h 8 c 2.2 0 4 1.8 4 4 s -1.8 4 -4 4 z m 0 -16 h -8 c -2.2 0 -4 -1.8 -4 -4 s 1.8 -4 4 -4 h 8 c 2.2 0 4 1.8 4 4 s -1.8 4 -4 4 z m 24 40 h -8 c -2.2 0 -4 -1.8 -4 -4 s 1.8 -4 4 -4 h 8 c 2.2 0 4 1.8 4 4 s -1.8 4 -4 4 z m 0 -16 h -8 c -2.2 0 -4 -1.8 -4 -4 s 1.8 -4 4 -4 h 8 c 2.2 0 4 1.8 4 4 s -1.8 4 -4 4 z m 0 -16 h -8 c -2.2 0 -4 -1.8 -4 -4 s 1.8 -4 4 -4 h 8 c 2.2 0 4 1.8 4 4 s -1.8 4 -4 4 z m 24 24 h -8 c -2.2 0 -4 -1.8 -4 -4 s 1.8 -4 4 -4 h 8 c 2.2 0 4 1.8 4 4 s -1.8 4 -4 4 z m 0 -16 h -8 c -2.2 0 -4 -1.8 -4 -4 s 1.8 -4 4 -4 h 8 c 2.2 0 4 1.8 4 4 s -1.8 4 -4 4 z m 0 -16 h -8 c -2.2 0 -4 -1.8 -4 -4 s 1.8 -4 4 -4 h 8 c 2.2 0 4 1.8 4 4 s -1.8 4 -4 4 z m 24 56 h -8 c -2.2 0 -4 -1.8 -4 -4 s 1.8 -4 4 -4 h 8 c 2.2 0 4 1.8 4 4 s -1.8 4 -4 4 z m 0 -16 h -8 c -2.2 0 -4 -1.8 -4 -4 s 1.8 -4 4 -4 h 8 c 2.2 0 4 1.8 4 4 s -1.8 4 -4 4 z m 0 -16 h -8 c -2.2 0 -4 -1.8 -4 -4 s 1.8 -4 4 -4 h 8 c 2.2 0 4 1.8 4 4 s -1.8 4 -4 4 z m 0 -16 h -8 c -2.2 0 -4 -1.8 -4 -4 s 1.8 -4 4 -4 h 8 c 2.2 0 4 1.8 4 4 s -1.8 4 -4 4 z m 24 40 h -8 c -2.2 0 -4 -1.8 -4 -4 s 1.8 -4 4 -4 h 8 c 2.2 0 4 1.8 4 4 s -1.8 4 -4 4 z m 0 -16 h -8 c -2.2 0 -4 -1.8 -4 -4 s 1.8 -4 4 -4 h 8 c 2.2 0 4 1.8 4 4 s -1.8 4 -4 4 z m 0 -16 h -8 c -2.2 0 -4 -1.8 -4 -4 s 1.8 -4 4 -4 h 8 c 2.2 0 4 1.8 4 4 s -1.8 4 -4 4 z m 24 24 h -8 c -2.2 0 -4 -1.8 -4 -4 s 1.8 -4 4 -4 h 8 c 2.2 0 4 1.8 4 4 s -1.8 4 -4 4 z m 0 -16 h -8 c -2.2 0 -4 -1.8 -4 -4 s 1.8 -4 4 -4 h 8 c 2.2 0 4 1.8 4 4 s -1.8 4 -4 4 z m 24 24 h -8 c -2.2 0 -4 -1.8 -4 -4 s 1.8 -4 4 -4 h 8 c 2.2 0 4 1.8 4 4 s -1.8 4 -4 4 z m 0 -16 h -8 c -2.2 0 -4 -1.8 -4 -4 s 1.8 -4 4 -4 h 8 c 2.2 0 4 1.8 4 4 s -1.8 4 -4 4 z m 0 -16 h -8 c -2.2 0 -4 -1.8 -4 -4 s 1.8 -4 4 -4 h 8 c 2.2 0 4 1.8 4 4 s -1.8 4 -4 4 z m 24 40 h -8 c -2.2 0 -4 -1.8 -4 -4 s 1.8 -4 4 -4 h 8 c 2.2 0 4 1.8 4 4 s -1.8 4 -4 4 z m 0 -16 h -8 c -2.2 0 -4 -1.8 -4 -4 s 1.8 -4 4 -4 h 8 c 2.2 0 4 1.8 4 4 s -1.8 4 -4 4 z m 0 -16 h -8 c -2.2 0 -4 -1.8 -4 -4 s 1.8 -4 4 -4 h 8 c 2.2 0 4 1.8 4 4 s -1.8 4 -4 4 z m 24 24 h -8 c -2.2 0 -4 -1.8 -4 -4 s 1.8 -4 4 -4 h 8 c 2.2 0 4 1.8 4 4 s -1.8 4 -4 4 z"/><path d="m 122.9 56.9 c 3.9 3.9 10.2 3.9 14.1 0 l 13 -12.9 12.9 12.9 c 3.8 4 10.2 4.1 14.1 .2 s 4.1 -10.2 .2 -14.1 c -.1 -.1 -.2 -.2 -.2 -.2 l -12.9 -12.9 12.9 -12.9 c 3.8 -4 3.7 -10.3 -.2 -14.1 -3.9 -3.7 -10 -3.7 -13.9 0 l -12.9 12.8 -12.9 -12.9 c -4 -3.8 -10.3 -3.7 -14.1 .2 -3.7 3.9 -3.7 10 0 13.9 l 12.9 12.9 -12.9 12.9 c -4 4 -4 10.3 -.1 14.2 z"/></g></svg>