<svg enable-background="new 0 0 100 100" fill="#fff" viewBox="0 0 100 100" xmlns="http://www.w3.org/2000/svg"><path d="m 91.96 63.46 c -3.17 -2.73 -6.69 -4.9 -10.29 -6.87 -3.62 -1.95 -7.32 -3.67 -11.18 -5.15 l -.43 -.16 -.42 .22 c -1.15 .61 -2.5 .94 -3.89 1.08 -.69 .07 -1.4 .1 -2.1 .07 -.62 -.02 -1.26 -.1 -1.84 -.21 -.98 -.58 -1.99 -1.01 -3 -1.39 .12 -.02 .23 -.04 .34 -.07 .6 -.15 1.2 -.31 1.9 -.61 l .21 -.09 .08 -.06 c 1.32 -1.04 2.58 -2.1 3.83 -3.21 .64 -.54 1.25 -1.11 1.88 -1.7 .31 -.29 .62 -.6 .93 -.94 .31 -.37 .62 -.62 .94 -1.38 l .01 -.03 .02 -.08 c .15 -.64 .37 -1.34 .63 -1.95 .13 -.31 .28 -.61 .44 -.87 .08 -.13 .17 -.25 .25 -.37 l .35 -.48 2.68 -3.61 c 1.8 -2.4 3.62 -4.78 5.46 -7.14 1.85 -2.36 3.72 -4.7 5.63 -6.98 1.93 -2.27 3.88 -4.57 6 -6.52 l .02 -.02 c .41 -.38 .44 -1.01 .06 -1.42 s -1.01 -.44 -1.43 -.06 c -2.31 2.11 -4.25 4.41 -6.22 6.71 -1.94 2.31 -3.83 4.66 -5.69 7.03 s -3.69 4.76 -5.5 7.16 l -2.7 3.62 -.31 .43 c -.14 .19 -.27 .37 -.39 .56 -.23 .38 -.42 .75 -.58 1.13 -.33 .77 -.57 1.5 -.77 2.32 l .03 -.11 c .01 0 -.25 .37 -.48 .6 -.25 .26 -.54 .52 -.83 .78 -.59 .52 -1.23 .99 -1.88 1.47 -1.24 .88 -2.53 1.72 -3.81 2.52 -.34 .09 -.81 .16 -1.27 .2 -.5 .04 -1.03 .06 -1.55 .07 -.01 0 -.03 0 -.04 0 .04 -.04 .09 -.07 .13 -.11 .71 -.63 1.39 -1.3 2.03 -2 1.27 -1.4 2.39 -2.96 3.24 -4.67 l .16 -.28 v -.26 c .02 -1.1 .08 -2.24 .21 -3.34 .06 -.55 .13 -1.1 .23 -1.63 .09 -.5 .21 -1.02 .35 -1.34 l 17.44 -25.89 c .31 -.46 .19 -1.09 -.27 -1.4 s -1.09 -.19 -1.4 .27 l -17.56 25.95 -.04 .06 -.03 .05 c -.34 .73 -.46 1.3 -.59 1.9 -.12 .6 -.22 1.18 -.3 1.76 -.14 1.04 -.25 2.06 -.35 3.1 -.93 1.29 -2.04 2.43 -3.28 3.44 -.45 .36 -.92 .68 -1.39 1.01 -.09 -.21 -.18 -.41 -.28 -.6 1.01 -2.09 1.82 -6.35 -1.81 -13.7 -.24 -.48 -.82 -.68 -1.31 -.44 -.48 .24 -.68 .82 -.44 1.31 2.87 5.79 2.69 9.31 2.1 11.19 -1.23 -.82 -2.48 -.72 -2.48 -.72 s .78 -1.04 -1.43 -1.04 -1.43 1.04 -1.43 1.04 -1.25 -.1 -2.48 .72 c -.59 -1.89 -.77 -5.4 2.1 -11.19 .24 -.48 .04 -1.07 -.44 -1.31 -.49 -.24 -1.07 -.04 -1.3 .44 -3.64 7.35 -2.83 11.6 -1.81 13.7 -.1 .18 -.19 .38 -.28 .59 -.47 -.33 -.95 -.65 -1.39 -1.01 -1.24 -1 -2.35 -2.15 -3.28 -3.44 -.1 -1.04 -.21 -2.06 -.35 -3.1 -.08 -.58 -.17 -1.17 -.3 -1.76 -.14 -.6 -.25 -1.18 -.59 -1.9 l -.03 -.05 -.04 -.06 -17.53 -25.94 c -.31 -.46 -.94 -.58 -1.4 -.27 s -.59 .94 -.27 1.4 l 17.45 25.91 c .14 .32 .26 .85 .35 1.34 .09 .53 .17 1.07 .23 1.63 .13 1.1 .19 2.24 .21 3.34 v .26 l .16 .28 c .85 1.71 1.97 3.27 3.24 4.67 .64 .7 1.31 1.37 2.02 2 .04 .04 .09 .07 .13 .11 -.01 0 -.02 0 -.04 0 -.53 -.01 -1.05 -.03 -1.55 -.07 -.47 -.04 -.93 -.11 -1.27 -.2 -1.28 -.8 -2.57 -1.64 -3.81 -2.52 -.65 -.48 -1.29 -.95 -1.88 -1.47 -.29 -.26 -.58 -.51 -.83 -.78 -.24 -.23 -.49 -.6 -.49 -.6 l .03 .11 c -.2 -.82 -.44 -1.56 -.77 -2.32 -.17 -.38 -.35 -.76 -.58 -1.13 -.12 -.19 -.24 -.38 -.39 -.56 l -.31 -.43 -2.7 -3.62 c -1.81 -2.4 -3.64 -4.79 -5.5 -7.16 s -3.75 -4.72 -5.69 -7.03 c -1.97 -2.3 -3.91 -4.6 -6.22 -6.71 -.41 -.38 -1.05 -.35 -1.43 .06 s -.35 1.05 .06 1.43 l .02 .02 c 2.12 1.95 4.08 4.25 6 6.52 1.92 2.29 3.79 4.63 5.63 6.98 1.84 2.36 3.66 4.74 5.46 7.14 l 2.68 3.61 .35 .48 c .09 .11 .17 .23 .25 .37 .16 .27 .31 .56 .44 .87 .26 .61 .48 1.32 .63 1.95 l .02 .08 .01 .03 c .31 .76 .63 1.01 .94 1.38 .31 .33 .61 .64 .93 .94 .63 .58 1.24 1.15 1.88 1.7 1.25 1.11 2.52 2.17 3.83 3.21 l .08 .06 .21 .09 c .7 .31 1.29 .46 1.9 .61 .12 .03 .23 .04 .34 .07 -1.01 .37 -2.01 .8 -3 1.39 -.58 .1 -1.22 .19 -1.84 .21 -.7 .03 -1.41 0 -2.1 -.07 -1.38 -.14 -2.73 -.47 -3.88 -1.08 l -.42 -.22 -.42 .16 c -3.86 1.49 -7.56 3.2 -11.18 5.15 -3.6 1.97 -7.12 4.15 -10.29 6.87 l -.01 .01 c -.42 .37 -.46 1.01 -.09 1.43 s 1.01 .46 1.42 .09 c 2.98 -2.59 6.39 -4.73 9.92 -6.63 3.41 -1.82 6.97 -3.45 10.56 -4.83 1.35 .63 2.77 .97 4.17 1.14 .78 .09 1.57 .12 2.35 .14 .79 0 1.54 .02 2.39 -.06 l .1 -.01 .28 -.12 c .93 -.4 1.98 -.66 3.06 -.87 -1.81 1.53 -3.57 3.1 -5.28 4.75 -1.63 1.56 -3.26 3.13 -4.74 4.87 -1.48 1.77 -2.78 3.5 -4.13 5.31 -2.65 3.6 -5.16 7.29 -7.48 11.12 -2.31 3.83 -4.45 7.78 -6.17 11.96 -.21 .52 .04 1.11 .55 1.32 .52 .21 1.11 -.04 1.32 -.56 1.66 -4.03 3.76 -7.91 6.04 -11.67 2.29 -3.76 4.77 -7.41 7.4 -10.95 1.3 -1.75 2.68 -3.56 4.05 -5.19 1.42 -1.63 2.96 -3.18 4.63 -4.57 .83 -.68 1.69 -1.33 2.56 -1.97 -1.77 1.94 -3.02 4.39 -3.02 7.22 0 7.01 5.84 18.18 12.08 18.18 6.23 0 12.08 -11.17 12.08 -18.18 0 -2.82 -1.25 -5.28 -3.02 -7.22 .87 .64 1.73 1.3 2.56 1.97 1.67 1.4 3.21 2.95 4.63 4.57 1.37 1.63 2.75 3.44 4.05 5.19 2.62 3.54 5.11 7.19 7.4 10.95 2.28 3.76 4.38 7.63 6.04 11.67 .21 .52 .8 .77 1.32 .55 .52 -.21 .76 -.8 .55 -1.32 -1.71 -4.18 -3.85 -8.14 -6.17 -11.96 -2.32 -3.83 -4.83 -7.53 -7.48 -11.12 -1.35 -1.81 -2.65 -3.54 -4.14 -5.31 -1.48 -1.74 -3.1 -3.31 -4.74 -4.87 -1.71 -1.65 -3.47 -3.22 -5.28 -4.75 1.08 .21 2.13 .47 3.06 .87 l .28 .12 .1 .01 c .85 .08 1.6 .06 2.39 .06 .78 -.02 1.57 -.05 2.35 -.14 1.4 -.17 2.82 -.5 4.17 -1.14 3.59 1.38 7.15 3.01 10.56 4.83 3.53 1.89 6.94 4.03 9.92 6.63 l .01 .01 c .42 .36 1.06 .32 1.42 -.11 .36 -.46 .32 -1.09 -.11 -1.45 z" fill="#fff"/></svg>