<svg enable-background="new 0 0 95 95" fill="#fff" viewBox="0 0 95 95" xmlns="http://www.w3.org/2000/svg"><path d="m 87.24 46.24 c -5.27 0 -9.81 1.51 -10.09 1.06 s 1.8 -1.46 3.03 -2.8 c -10.65 -8.63 -13.79 -20.74 -32.96 -20.74 -19.4 0 -24.78 18.72 -35.32 28.48 l 1.91 1.9 s -3.59 1.24 -6.28 1.57 c -2.69 .34 -6.95 .74 -6.95 1.35 0 .53 5.61 .9 8.41 .9 s 7.51 -.34 7.51 -.34 .34 .45 -2.47 1.34 c -2.8 .9 -3.47 1.69 -5.49 4.27 -2.01 2.58 -4.22 4.75 -4.22 5.71 0 1.09 .45 1.81 2.01 1.81 s 2.7 .25 4.22 .25 c 2.91 0 2.91 -1.81 3.69 -3.15 .79 -1.35 1.36 -2.16 2.26 -2.94 .9 -.79 2.02 -1.01 3.47 -1.57 1.46 -.56 3.7 -1.69 3.7 -1.69 s 3.81 1.46 10.42 1.46 c 6.62 0 18.84 -.34 24.33 -.34 s 6.56 -2.3 7.91 -2.3 c .67 0 3.98 1.97 3.98 2.75 0 1.12 -5.16 4.93 -5.16 6.05 0 1.13 1.8 1.97 5.05 1.97 4.65 0 5.21 -2.61 6.5 -4.21 1.4 -1.73 2.57 -3.36 2.57 -5.38 0 -2.52 -5.04 -4.82 -5.04 -4.82 s 1.01 -1.57 3.03 -1.57 6.06 .45 10.43 .45 6.73 .56 6.73 -3.59 c 0 -4.14 -1.91 -5.88 -7.18 -5.88 z m 1.93 4.26 c -.55 0 -1 -.45 -1 -1 s .45 -1 1 -1 1 .45 1 1 -.45 1 -1 1 z"/></svg>