<svg enable-background="new 0 0 100 100" viewBox="0 0 100 100" xmlns="http://www.w3.org/2000/svg"><path d="m 51.75 44.84 c -.09 -.17 -.18 -.32 -.28 -.46 .07 -.1 .14 -.21 .19 -.33 .02 0 .05 .01 .07 .01 .4 0 .72 -.32 .72 -.72 s -.32 -.72 -.72 -.72 c -.03 0 -.05 .01 -.07 .02 -.11 -.25 -.27 -.46 -.47 -.64 1.53 -4.18 4.78 -11.35 8.01 -12.14 .16 .18 .38 .29 .63 .29 .47 0 .86 -.38 .86 -.86 0 -.47 -.39 -.86 -.86 -.86 -.32 0 -.6 .19 -.74 .45 -4.02 .86 -7.47 9.11 -8.79 12.68 -.1 -.02 -.2 -.03 -.3 -.03 s -.21 .01 -.31 .03 c -1.32 -3.58 -4.77 -11.82 -8.79 -12.68 -.15 -.26 -.42 -.45 -.74 -.45 -.47 0 -.86 .38 -.86 .86 0 .47 .39 .86 .86 .86 .26 0 .48 -.12 .63 -.29 3.23 .78 6.48 7.96 8.01 12.14 -.2 .18 -.36 .39 -.47 .64 -.03 0 -.05 -.02 -.07 -.02 -.4 0 -.72 .32 -.72 .72 s .32 .72 .72 .72 c .03 0 .05 -.01 .07 -.01 .05 .12 .11 .22 .19 .33 -.1 .14 -.19 .3 -.28 .46 -22.7 -21.73 -37.04 -24.76 -41.74 -19.74 -4.73 5.06 3.02 9.47 5.63 15.67 s 3.67 11.1 7.75 10.45 c 2.01 0 -9.47 6.2 2.04 19.67 10.31 12.07 17.55 2.53 17.55 2.53 l 8.81 -14.54 v 9.92 c 0 .8 .77 1.44 1.71 1.44 .95 0 1.71 -.64 1.71 -1.44 v -9.91 l 8.81 14.53 s 7.24 9.54 17.55 -2.53 c 11.51 -13.47 .03 -19.67 2.04 -19.67 4.08 .65 5.14 -4.24 7.75 -10.45 2.61 -6.2 10.37 -10.61 5.63 -15.67 -4.68 -5.02 -19.02 -1.99 -41.73 19.74 z" fill="#fff"/></svg>