<svg enable-background="new 0 0 90 90" fill="#fff" viewBox="0 0 90 90" xmlns="http://www.w3.org/2000/svg"><path d="m 67.24 55.53 h 2.98 l -2.72 -.8 s -2.12 -5.53 -3.06 -6.47 c -.85 -.85 -6.58 2.36 -7.55 2.91 -.05 -3.65 -.46 -6.69 -1.15 -9.19 1.11 -.61 4.78 -2.57 4.6 -2.02 -.19 .58 2.66 3.77 2.66 3.77 h 2.3 l -2.1 -.62 s -1.64 -4.27 -2.36 -4.99 c -.62 -.62 -4.56 1.53 -5.65 2.15 -1.59 -4.34 -4.17 -6.74 -7.25 -7.68 1.83 -.43 3.06 -1.2 3.06 -2.09 0 -.86 -1.14 -1.61 -2.85 -2.05 .13 -3.27 .98 -13.91 6.6 -18.23 2.47 -1.9 5.6 -2.34 9.32 -1.31 l .31 -1.11 c -4.08 -1.13 -7.55 -.62 -10.32 1.51 -5.97 4.59 -6.9 15.28 -7.04 18.91 -.72 -.11 -1.5 -.17 -2.32 -.17 -.58 0 -1.14 .03 -1.67 .09 -.15 -3.7 -1.11 -14.27 -7.04 -18.83 -2.77 -2.13 -6.24 -2.63 -10.32 -1.51 l .31 1.11 c 3.71 -1.02 6.85 -.58 9.31 1.31 5.54 4.25 6.44 14.66 6.59 18.09 -2.08 .4 -3.51 1.23 -3.51 2.19 0 .89 1.23 1.66 3.06 2.09 -3.1 .94 -5.69 3.36 -7.28 7.75 l .13 -.4 s -5.22 -3.22 -5.94 -2.51 c -.72 .72 -2.36 4.99 -2.36 4.99 l -2.1 .62 h 2.3 s 2.85 -3.19 2.66 -3.77 c -.22 -.65 4.93 2.2 4.93 2.2 -.73 2.43 -1.18 5.41 -1.27 8.98 -1.78 -.99 -6.21 -3.32 -6.95 -2.58 -.93 .93 -3.06 6.46 -3.06 6.46 l -2.72 .8 h 2.98 s 3.7 -4.14 3.45 -4.89 c -.22 -.67 4.42 1.81 6.29 2.83 .05 2.26 .21 4.55 .5 6.81 -1.73 -.85 -3.68 -1.65 -4.13 -1.2 -.85 .85 -2.78 5.88 -2.78 5.88 l -2.47 .73 h 2.71 s 3.36 -3.77 3.14 -4.45 c -.16 -.48 2.15 .66 3.91 1.57 .54 3.23 1.31 6.31 2.25 9.07 -.22 -.02 -.39 .01 -.49 .1 -.72 .72 -2.36 4.99 -2.36 4.99 l -2.1 .62 h 2.3 s 2.85 -3.19 2.66 -3.77 c -.06 -.17 .25 -.1 .73 .1 2.19 5.47 5.11 9.21 8.33 9.21 3.2 0 6.09 -3.68 8.27 -9.06 .24 -.07 .41 -.09 .37 .02 -.19 .58 2.66 3.77 2.66 3.77 h 2.3 l -2.1 -.62 s -1.64 -4.27 -2.36 -4.99 c -.04 -.03 -.12 -.02 -.18 -.04 .95 -2.71 1.73 -5.74 2.29 -8.92 1.72 -.92 5 -2.62 4.81 -2.05 -.23 .68 3.14 4.45 3.14 4.45 h 2.71 l -2.48 -.73 s -1.93 -5.04 -2.78 -5.88 c -.53 -.53 -3.13 .67 -5.01 1.64 .29 -2.16 .47 -4.36 .54 -6.54 .96 -.53 7.18 -3.95 6.92 -3.18 -.24 .8 3.45 4.93 3.45 4.93 z"/></svg>