<svg enable-background="new 0 0 841.889 1190.551" height="1190.55" viewBox="0 0 841.89 1190.55" width="841.89" xmlns="http://www.w3.org/2000/svg"><g fill="#fff"><path d="m 245.1 416.26 c -11.68 -3.23 -23.42 2.37 -23.42 2.37 s 7.2 10.83 18.89 14.06 23.42 -2.37 23.42 -2.37 -7.2 -10.83 -18.89 -14.06 z"/><path d="m 724.04 527.6 c -.7 -8.13 -4.3 -17.48 -11.53 -21.87 -12.62 -7.68 -26.99 -3.5 -36.96 6.26 -3.16 3.09 -6.16 6.37 -9 9.81 .26 -1.22 .51 -2.44 .72 -3.69 .56 -3.29 -1.78 -5.59 -4.31 -6.15 l -.94 -.85 c 3.65 -27.95 -24.98 -21.1 -24.99 -21.1 -3.21 -2.5 -6.44 -4.97 -9.71 -7.38 -7.05 -5.23 -40.04 -28.26 -70.35 -47.46 -.73 -.27 -1.5 -.56 -2.29 -.84 -7.25 -7.88 -18.83 -11.8 -27.71 -17.38 -.53 -.33 -1.05 -.55 -1.56 -.67 -4.4 -2.41 -8.38 -4.44 -11.72 -5.92 -22.21 -9.85 -43.39 -11.11 -67.22 -12.67 -15.4 -1 -30.79 -2.51 -46.14 -4.02 .63 .34 1.28 .71 1.94 1.09 -4.77 -1.04 -9.52 -2.19 -14.31 -3 -13.64 -5.27 -26.12 -9.59 -26.12 -9.59 -22.19 -9.09 -75.89 -21.24 -75.89 -21.24 -12.31 -2.84 -18.48 -14.9 -26.73 -23.16 -10.55 -10.56 -26.62 -13.75 -40.64 -8.75 -12.17 4.35 -17.75 15.42 -25.14 25 -2.92 3.79 -7.47 5.69 -11.96 6.93 -15.37 4.28 -34.44 -2.27 -47.66 8.46 -6.31 5.14 -9.77 12.62 -13.45 19.67 -6.06 11.63 -1 21.53 7.11 29.39 -1.74 8.7 -2.11 17.99 3.57 25.32 6.09 7.85 17.12 10.82 26.04 14.05 .1 .04 .19 .07 .29 .1 10.23 5.52 20.39 11.02 29.68 18.18 -.13 1.65 .53 3.35 2.36 4.46 3.71 2.26 5.88 6.12 8.08 9.99 -.76 -.63 -1.5 -1.27 -2.23 -1.93 .77 .69 1.35 3.86 1.77 4.85 1.73 4.01 3.91 7.88 6.15 11.63 8.18 13.67 19.99 22.47 33.53 30.92 5.81 3.62 11.87 6.9 17.91 10.24 -1.15 .77 -1.89 2.09 -1.68 3.99 .17 1.55 .5 2.99 .92 4.43 -1.94 3.63 -8.09 13.75 -17.79 16.12 -2.92 .71 -7.77 .08 -11.17 .28 -4.05 .23 -8.08 .66 -12.07 1.41 -14.15 2.66 -26.54 10 -41.35 10.01 -8.36 .01 -16.48 -1.27 -24.28 -4.3 -6.6 -2.56 -16.46 -7.33 -21.69 .52 -3.34 5.04 -2.19 12.94 3.76 15.05 4.64 1.66 12.31 .33 17.08 .1 8.22 -.38 24.88 5.07 24.88 5.07 13.11 -7.04 30.42 -13.41 30.42 -13.41 -11.2 7 -34.44 25.47 -34.44 25.47 -1.17 .8 -2.33 1.63 -3.5 2.43 -5.33 3.67 -22.25 14.5 -25.76 15.7 -3.19 1.09 -6.71 1.91 -9.15 4.42 -3.37 3.47 -1.99 8.26 1.57 10.98 9.17 7.01 24.19 3.8 27.31 -7.94 .49 -1.81 16.17 -12.98 22.02 -15.97 7.33 -3.73 14.31 -7.48 21.3 -11.78 6.8 -4.17 13.91 -8.01 21.86 -9.35 5.44 -.92 11.62 -.69 16.86 1.18 0 0 -9.91 16.04 -13.79 24.88 -2.09 4.74 -7.19 6.82 -10.49 10.51 -3.28 3.65 -3.7 8.36 -.27 12.03 4.09 4.38 11.02 4.5 16.17 2.39 5.53 -2.27 8.28 -7.41 8.37 -13.29 1.07 -2.21 2.13 -4.43 3.27 -6.61 4.59 -8.82 10.59 -18.48 20.78 -21.3 6.02 -1.69 12.2 -.85 18.16 .59 6.3 1.53 13.5 3.18 20.63 4.99 8.5 6.63 18.55 10.83 28.33 8.19 .97 1.21 1.9 2.36 2.75 3.41 6.26 7 12.59 13.53 18.36 18.51 0 0 -13.62 24.09 -28.8 94.27 -.25 1.28 -.67 2.53 -1.01 3.79 -1.48 5.42 -3.1 10.74 -4.83 16.09 -1.9 5.92 -4.87 10.22 -11.36 11.56 -7.08 1.47 -15.9 .29 -21.49 -4.18 -6.98 -5.61 -15.29 -22.98 -26.4 -15.15 -3.41 2.4 -4.88 7.5 -3.41 11.46 1.74 4.67 7.16 5.93 11.28 7.66 4.41 1.84 11.66 6.91 12.46 13.51 .2 1.62 -9.6 5.9 -10.55 6.39 -14.29 7.26 -30.61 8.73 -46.41 7.97 -11.42 -.55 -22.74 -2.18 -34.12 -3.1 -7.34 -.59 -17.85 -.41 -18.9 9.22 -.77 6.95 5.9 10.74 11.74 11.5 6.84 .88 14.57 -.5 19.72 -5.4 .15 -.14 16.12 4.61 48.06 3.58 9.49 -.47 21.82 -1.89 31.08 -5.84 1.3 -.58 2.58 -1.21 3.84 -1.88 0 0 -6.02 10.36 -10.64 17.81 0 0 -7.97 9.51 -17.74 15.68 0 0 -22.36 6.16 -16.96 17.22 0 0 3.09 6.94 13.12 6.69 0 0 8.99 .77 14.65 -9.25 4.22 -3.15 8.25 -6.61 12.09 -10.22 7.4 -6.95 13.39 -14.49 21.62 -20.57 16.55 -12.23 38.2 -9.15 55.15 -20.93 9.26 -6.44 16.18 -14.42 20.08 -25.06 1.1 -3.02 1.88 -6.15 2.64 -9.27 4.14 -17.03 8.02 -34.25 10.87 -51.55 3.83 -23.24 7.97 -46.81 6.01 -70.27 3.97 1.22 7.91 2.51 11.64 4.37 .3 .15 .6 .26 .9 .35 18.54 8.25 88.98 34.99 152.52 -2.22 .69 -.04 1.4 -.24 2.13 -.63 3.73 -2.01 7.4 -4.26 10.93 -6.74 -.57 7.65 -.26 12.4 -.26 12.41 .41 6.22 .69 12.55 2.57 18.55 2.93 9.35 8.82 22.61 18.32 26.78 11.75 5.17 24.82 2.63 36.14 -3.16 -2.51 3.06 -5.19 5.93 -8.4 8.02 -.94 .61 -1.56 1.38 -1.91 2.21 -7.53 1.83 -15.32 2.3 -22.56 5.28 -.86 .35 -1.53 .86 -2.04 1.46 -7.94 2.72 -16.21 6.18 -12.71 14.47 2.02 4.78 6.51 6.34 11.33 5.47 4.12 -.74 7.23 -3.45 10.2 -6.2 3.82 -.84 7.6 -1.9 11.49 -2.28 1.73 -.17 3.42 -.34 5.08 -.6 .16 1.84 .26 3.47 .26 3.64 .07 7.6 -1.53 15.59 -4.65 22.51 -1.46 3.27 -3.27 6.44 -5.48 9.24 -1.97 2.5 -4.67 4.51 -6 7.47 -2.53 5.63 .97 9.96 5.78 11.88 1.53 1.28 3.41 2.03 5.42 2.08 .32 .01 .64 -.02 .95 -.08 2.36 .52 5.14 -.38 6.21 -3.26 .32 -.88 .44 -1.73 .51 -2.66 .02 -.22 .01 -.44 -.01 -.65 .42 -.9 .58 -1.93 .48 -2.93 .61 -.77 1.24 -1.54 1.82 -2.34 -.17 2.15 -.34 4.29 -.56 6.43 0 0 1.65 12.64 0 18.94 -1.51 5.83 -1.23 12.85 4.28 16.41 5.5 3.55 12.55 3.06 17.26 -1.48 5.63 -5.44 4.31 -14.07 1.86 -20.77 0 0 -5.38 -14.27 -1.87 -28.07 0 0 3.21 -16.4 4.56 -32.25 2.1 .78 4.12 1.66 5.98 3.03 .08 .06 .16 .1 .24 .16 3.42 2.66 10.52 8.6 17.95 17.29 1.71 1.99 1.67 4.87 2.97 7.1 3.97 6.77 15.02 7.45 18.82 .18 0 0 4.22 -9.2 -7.2 -15.88 0 0 -26.54 -19.68 -24.08 -47.27 8.26 -11.04 16.42 -22.33 23.55 -34.13 10.24 -16.96 18.77 -35.84 23.49 -55.1 3.47 -14.15 5.58 -28.76 7.15 -43.24 .29 -2.71 .58 -5.44 .47 -8.16 2.81 -7.77 5.46 -16.38 4.72 -24.75 z m -448.26 -94.02 c -1.67 6.04 -5.35 11.05 -10.27 14.68 -8.03 5.92 -19.35 8.14 -30.65 5.02 -.41 -.11 -.82 -.24 -1.22 -.37 -.21 -.16 -.43 -.31 -.68 -.45 -2.31 -1.29 -4.72 -2.25 -7.18 -2.98 -12.64 -7.3 -19.53 -21.06 -15.92 -34.1 1.44 -5.21 4.4 -9.65 8.34 -13.1 8.08 -7.08 20.35 -9.97 32.58 -6.6 18.21 5.03 29.4 21.99 25 37.9 z"/></g></svg>