<svg enable-background="new 0 0 100 100" fill="#fff" viewBox="0 0 100 100" xmlns="http://www.w3.org/2000/svg"><g fill="#fff"><path d="m 62.82 69.56 c 3.05 -3.56 8.32 -8.19 16.08 -10.01 .94 -.22 1.22 -.36 1.29 -.44 .14 -.17 .12 -.28 .12 -.32 -.05 -.36 -.69 -.83 -1.15 -1.16 -.24 -.18 -.47 -.34 -.63 -.49 -.91 -.84 -1.74 -1.76 -2.43 -2.55 -.75 -.86 -2.62 -4.84 -4.31 -8.51 l -.49 -1.06 c -1 -2.13 -2.17 -4.2 -3.47 -6.14 -2.6 -3.87 -5.8 -7.35 -9.51 -10.32 -6.63 -5.32 -14.59 -8.14 -23.04 -8.14 -1.35 0 -2.73 .08 -4.08 .22 -9.8 1.07 -18.6 5.89 -24.77 13.57 -10.11 12.6 -8.09 31.09 4.5 41.2 4.11 3.3 9.28 5.11 14.56 5.11 3 0 5.93 -.57 8.71 -1.7 3.66 -1.49 6.9 -3.9 9.37 -6.98 3.07 -3.82 4.47 -8.61 3.93 -13.48 -.53 -4.87 -2.93 -9.24 -6.75 -12.31 -2.55 -2.05 -5.76 -3.18 -9.03 -3.18 -4.42 0 -8.54 1.97 -11.3 5.4 -3.91 4.87 -3.12 12.02 1.75 15.94 1.84 1.48 4.12 2.15 6.49 1.89 2.35 -.26 4.46 -1.41 5.94 -3.26 2.36 -2.95 1.89 -7.27 -1.05 -9.63 -1.1 -.88 -2.46 -1.28 -3.87 -1.13 -1.4 .15 -2.65 .84 -3.52 1.93 l -.14 .12 c -.04 .03 -.27 .15 -.58 .15 s -.6 -.13 -.84 -.36 c -.41 -.41 -.37 -.93 -.28 -1.17 l .08 -.14 c 1.26 -1.56 3.05 -2.54 5.04 -2.76 2.01 -.22 3.95 .36 5.52 1.61 3.91 3.13 4.54 8.87 1.4 12.79 -1.86 2.31 -4.51 3.77 -7.45 4.09 -2.98 .32 -5.85 -.52 -8.15 -2.38 -5.83 -4.7 -6.77 -13.27 -2.1 -19.11 3.19 -3.97 7.95 -6.24 13.05 -6.24 3.79 0 7.5 1.31 10.45 3.68 4.29 3.44 6.98 8.34 7.57 13.81 .6 5.47 -.97 10.85 -4.42 15.14 -1.03 1.28 -2.19 2.47 -3.45 3.53 -.21 .17 -.55 .41 -.94 .68 -.61 .42 -2.23 1.52 -2.27 1.94 0 .06 .01 .14 .1 .24 .43 .47 1.79 .75 4.06 .84 h .1 c 4.07 .16 7.68 -.77 11 -2.85 3.72 -2.29 7.18 -6.03 8.91 -8.06 z"/><path d="m 96.03 51.35 c -.53 -.66 -2 -3.32 -2.4 -4.32 -.85 -2.13 -.98 -5.17 -.34 -7.92 l .18 -.76 c .19 -.8 .37 -1.55 .48 -2.37 .09 -.68 -.12 -1.13 -.67 -1.43 -.42 -.23 -.91 -.27 -1.51 -.13 l -.17 .04 v -9.95 c .67 -.22 1.16 -.83 1.16 -1.58 0 -.93 -.76 -1.68 -1.68 -1.68 -.93 0 -1.69 .75 -1.69 1.68 0 .71 .45 1.29 1.07 1.54 v 10.47 c -.45 .24 -.9 .51 -1.3 .76 l -.35 .22 c -.2 .13 -.39 .27 -.58 .41 l -.29 .22 v -7.99 c .62 -.25 1.07 -.84 1.07 -1.55 0 -.93 -.75 -1.68 -1.68 -1.68 s -1.68 .75 -1.68 1.68 c 0 .74 .49 1.35 1.16 1.58 v 9.12 c -.9 1.09 -1.53 2.4 -1.87 4.04 -.38 1.78 -.46 3.65 -.23 5.56 .07 .61 .16 1.21 .26 1.8 .17 1.05 .34 2.14 .37 3.27 l .01 .22 c .06 1.19 .25 4.78 -2.58 7.4 -.86 .79 -2.26 1.17 -3.74 1.57 -.79 .21 -1.6 .43 -2.39 .73 -1.25 .47 -2.56 1.08 -4.1 1.95 -2.59 1.45 -5.04 3.4 -7.3 5.78 -.68 .72 -1.37 1.48 -2.06 2.23 -1.66 1.81 -3.22 3.52 -4.44 4.54 -1.74 1.46 -3.41 2.63 -6.35 3.92 l -.02 .01 c .41 .02 .81 .04 1.23 .06 1.02 .05 2.05 .1 3.07 .14 .8 .03 2.65 .05 4.96 .05 5.36 0 12.82 -.1 17.69 -.38 9.99 -.58 20.68 -7.92 20.68 -17.95 0 -4.1 -1.41 -8.11 -3.97 -11.3 z"/></g></svg>