<svg enable-background="new 0 0 231.3 285" viewBox="0 0 231.3 285" xmlns="http://www.w3.org/2000/svg"><g fill="#fff"><path d="m 150.1 133.3 l -4.9 12.5 c -.4 1.1 .1 2.3 1.2 2.7 .6 .2 1.2 .2 1.7 -.1 l 26.1 -13.3 23.2 -13.6 c .6 -.4 1.4 -.3 2 .1 .7 .6 .9 1.7 .3 2.4 -.1 .1 -.1 .1 -.2 .2 l -7 6.6 c -.3 .2 -.3 .7 0 .9 .1 .1 .3 .2 .5 .2 h 13.8 c 11.7 0 21.2 -9.5 21.2 -21.3 v -89.3 c 0 -11.8 -9.5 -21.3 -21.3 -21.3 h -186.7 c -11 0 -20 9 -20 20 v 90.7 c 0 11.8 9.5 21.3 21.3 21.3 h 127.9 c .6 0 1 .5 .9 1.1 z m 40 -41.4 c -2.6 0 -4.7 -2.1 -4.7 -4.7 s 2.1 -4.7 4.7 -4.7 4.7 2.1 4.7 4.7 -2.1 4.7 -4.7 4.7 z m -9.3 -48.4 c 2.8 -2.3 6.3 -3.6 10 -3.6 8.1 0 14.7 6 14.7 13.3 0 1 -.1 2 -.4 2.9 -.6 3.4 -2.8 6.3 -6.3 8.8 -5.8 4.1 -4.7 4.7 -4.7 8.8 0 2.3 -1.8 4.1 -4.1 4.1 s -4.1 -1.8 -4.1 -4.1 v -4.1 c 0 -1.3 .4 -2.5 1 -3.6 1 -1.5 2.3 -2.9 3.7 -4 1.4 -1.3 2.7 -2.7 3.9 -4.2 1 -1.1 1.5 -2.5 1.5 -4 0 -2.2 -1.2 -4.2 -3.1 -5.2 -.9 -.4 -1.8 -.7 -2.8 -.7 -.9 0 -1.7 .2 -2.5 .6 -4.7 1.8 -4.1 7.7 -8 7.7 -1.2 .1 -2.4 -.4 -3.3 -1.3 -.6 -.8 -.9 -1.8 -.8 -2.8 -.1 -2.9 2.2 -6.3 5.3 -8.6 z m -98.7 15.4 l -2.9 2.3 c -.6 .5 -1.6 .4 -2 -.3 -.1 -.2 -.2 -.3 -.3 -.5 -.2 -.8 -.5 -1.6 -.8 -2.3 s .1 -1.6 .8 -1.9 c .2 -.1 .4 -.1 .6 -.1 l 3.8 .2 c .8 0 1.4 .7 1.4 1.5 0 .4 -.2 .8 -.6 1.1 z m -9 -9.5 l 3.6 -1 c .8 -.2 1.6 .2 1.8 1 .1 .4 0 .8 -.2 1.2 l -2.1 3.1 c -.4 .7 -1.3 .9 -2 .4 -.2 -.1 -.3 -.3 -.4 -.4 -.4 -.7 -.9 -1.4 -1.4 -2 s -.4 -1.5 .2 -2.1 c .2 -.1 .3 -.1 .5 -.2 z m 2.7 17.2 c 0 12 -9.8 21.8 -21.8 21.8 s -21.8 -9.8 -21.8 -21.8 9.8 -21.8 21.8 -21.8 c 12.1 0 21.8 9.7 21.8 21.8 z m -9 -22.2 l 3.2 -2.1 c .7 -.4 1.6 -.3 2 .4 .2 .4 .3 .8 .2 1.2 l -1 3.6 c -.2 .8 -1 1.2 -1.8 1 -.2 -.1 -.4 -.1 -.5 -.3 -.6 -.5 -1.3 -1 -2 -1.4 s -.9 -1.4 -.4 -2 c .1 -.2 .2 -.4 .3 -.4 z m -7.5 -2.9 l 2.3 -2.9 c .5 -.6 1.4 -.7 2 -.2 .3 .3 .5 .7 .6 1.1 l .2 3.8 c 0 .8 -.6 1.5 -1.4 1.5 -.2 0 -.4 0 -.6 -.1 -.8 -.3 -1.5 -.5 -2.3 -.8 -.8 -.2 -1.2 -1.1 -1 -1.8 .1 -.3 .2 -.5 .2 -.6 z m -8 -.4 l 1.3 -3.5 c .3 -.8 1.1 -1.1 1.9 -.9 .4 .1 .7 .5 .9 .9 l 1.4 3.5 c .3 .7 0 1.6 -.8 1.9 -.3 0 -.5 0 -.7 0 -.4 0 -.8 0 -1.2 0 s -.8 0 -1.2 0 c -.8 0 -1.5 -.6 -1.5 -1.4 -.1 -.2 -.1 -.4 -.1 -.5 z m -7.6 -1.7 c 0 -.8 .7 -1.4 1.5 -1.4 .4 0 .8 .2 1.1 .6 l 2.3 2.9 c .5 .6 .4 1.6 -.3 2 -.2 .1 -.3 .2 -.5 .3 -.8 .2 -1.6 .5 -2.3 .8 s -1.6 -.1 -1.9 -.8 c -.1 -.2 -.1 -.4 -.1 -.6 z m -5.7 2.9 l 3.1 2.1 c .7 .4 .9 1.3 .4 2 -.1 .2 -.3 .3 -.4 .4 -.7 .4 -1.4 .9 -2 1.4 s -1.5 .4 -2.1 -.2 c -.1 -.2 -.2 -.3 -.3 -.5 l -1 -3.6 c -.3 -.8 .2 -1.6 .9 -1.8 .6 -.2 1.1 -.1 1.4 .2 z m -6.7 6.1 l 3.6 1 c .8 .2 1.2 1 1 1.8 -.1 .2 -.1 .4 -.3 .5 -.5 .6 -1 1.3 -1.4 2 s -1.3 .9 -2 .4 c -.2 -.1 -.3 -.3 -.4 -.4 l -2.1 -3.1 c -.4 -.7 -.3 -1.6 .4 -2 .4 -.2 .8 -.3 1.2 -.2 z m -4.5 7.9 l 3.7 -.2 c .8 0 1.5 .6 1.5 1.4 0 .2 0 .4 -.1 .6 -.3 .8 -.5 1.5 -.8 2.3 -.2 .8 -1 1.2 -1.8 1 -.2 -.1 -.4 -.1 -.5 -.3 l -2.8 -2.2 c -.6 -.5 -.7 -1.4 -.2 -2 .2 -.4 .6 -.6 1 -.6 z m -1.8 8.9 l 3.5 -1.3 c .7 -.3 1.6 0 1.9 .8 .1 .2 .1 .4 .1 .6 v 1.2 s 0 .8 0 1.2 c 0 .8 -.6 1.5 -1.4 1.5 -.2 0 -.4 0 -.6 -.1 l -3.5 -1.2 c -.8 -.3 -1.1 -1.1 -.9 -1.9 .2 -.3 .5 -.6 .9 -.8 z m 1 9 l 2.9 -2.3 c .6 -.5 1.6 -.4 2 .3 .1 .2 .2 .3 .3 .5 .2 .8 .5 1.6 .8 2.3 s -.1 1.6 -.8 1.9 c -.2 .1 -.4 .1 -.6 .1 l -3.8 -.2 c -.8 0 -1.4 -.7 -1.4 -1.5 .1 -.4 .3 -.8 .6 -1.1 z m 9 9.5 l -3.6 1 c -.8 .2 -1.6 -.2 -1.8 -1 -.1 -.4 0 -.8 .2 -1.2 l 2.1 -3.1 c .4 -.7 1.3 -.9 2 -.4 .2 .1 .3 .3 .4 .4 .4 .7 .9 1.4 1.4 2 s .5 1.5 -.1 2.1 c -.2 .1 -.4 .2 -.6 .2 z m 6.2 5.1 l -3.1 2.1 c -.7 .4 -1.6 .3 -2 -.4 -.2 -.4 -.3 -.8 -.2 -1.2 l 1 -3.6 c .2 -.8 1 -1.2 1.8 -1 .2 .1 .4 .1 .5 .3 .6 .5 1.3 1 2 1.4 s .9 1.3 .5 2 c -.1 .1 -.3 .3 -.5 .4 z m 7.5 2.8 l -2.3 2.9 c -.5 .6 -1.4 .7 -2 .2 -.3 -.3 -.5 -.7 -.6 -1.1 l -.2 -3.6 c 0 -.8 .6 -1.5 1.4 -1.5 .2 0 .4 0 .6 .1 .8 .3 1.5 .5 2.3 .8 .8 .2 1.3 1 1.1 1.8 -.1 .1 -.2 .3 -.3 .4 z m 8 .5 l -1.3 3.5 c -.3 .8 -1.1 1.1 -1.9 .9 -.4 -.1 -.7 -.5 -.9 -.9 l -1.3 -3.5 c -.3 -.7 0 -1.6 .8 -1.9 .2 -.1 .4 -.1 .6 -.1 h 1.2 1.2 c .8 0 1.5 .6 1.5 1.4 .3 .2 .2 .4 .1 .6 z m 7.6 1.6 c 0 .8 -.7 1.4 -1.5 1.4 -.4 0 -.8 -.2 -1.1 -.6 l -2.3 -2.9 c -.5 -.6 -.4 -1.6 .3 -2 .2 -.1 .3 -.2 .5 -.3 .8 -.2 1.6 -.5 2.3 -.8 s 1.6 .1 1.9 .8 c .1 .2 .1 .4 .1 .6 z m 5.7 -2.9 l -3.1 -2.1 c -.7 -.4 -.9 -1.3 -.4 -2 .1 -.2 .3 -.3 .4 -.4 .7 -.4 1.4 -.9 2 -1.4 s 1.5 -.4 2.1 .2 c .1 .2 .2 .3 .3 .5 l 1 3.6 c .3 .8 -.1 1.6 -.9 1.8 -.5 .3 -1 .2 -1.4 -.2 z m 6.8 -6.1 l -3.6 -1 c -.8 -.2 -1.2 -1 -1 -1.8 .1 -.2 .1 -.4 .3 -.5 .5 -.6 1 -1.3 1.4 -2 s 1.3 -.9 2 -.4 c .2 .1 .3 .3 .4 .4 l 2.1 3.1 c .5 .6 .4 1.5 -.3 2 -.4 .3 -.9 .4 -1.3 .2 z m 4.5 -7.9 l -3.8 .2 c -.8 0 -1.5 -.6 -1.5 -1.4 0 -.2 0 -.4 .1 -.6 .3 -.8 .5 -1.5 .8 -2.3 .2 -.8 1 -1.2 1.8 -1 .2 .1 .4 .1 .5 .3 l 2.9 2.3 c .7 .4 .9 1.3 .4 2 -.2 .3 -.7 .6 -1.2 .5 z m 1.8 -8.9 l -3.5 1.3 c -.7 .3 -1.6 0 -1.9 -.8 -.1 -.2 -.1 -.4 -.1 -.6 0 -.4 0 -.8 0 -1.2 s 0 -.8 0 -1.2 c 0 -.8 .6 -1.5 1.4 -1.5 .2 0 .4 0 .6 .1 l 3.5 1.3 c .8 .2 1.2 1 1 1.8 -.1 .3 -.5 .7 -1 .8 z m 11.2 -6.1 c 0 -3.4 2.6 -6.3 6 -6.6 1.4 -4 5.1 -6.6 9.4 -6.6 h .5 l -.2 3.6 c 0 .7 .5 1.2 1.1 1.3 .5 0 .9 -.2 1.1 -.6 l 3.4 -6 c 4.5 -6 12.9 -7.2 18.9 -2.7 1.7 1.3 3.1 3 4.1 4.9 l -3.1 1.6 c -.6 .3 -.8 1 -.5 1.6 .2 .4 .6 .7 1.1 .7 h 4.8 c 4.3 0 7.8 3.5 7.8 7.8 s -3.5 7.8 -7.8 7.8 h -39.9 c -3.7 -.1 -6.7 -3.1 -6.7 -6.8 z m 39 20.1 c 0 -2.5 2 -4.5 4.5 -4.5 h .3 c .9 -2.9 3.6 -4.8 6.6 -4.8 h .6 l -.5 1.6 c -.1 .3 .1 .7 .4 .8 .2 .1 .5 0 .6 -.2 l 3.1 -3.1 c 3.3 -3.5 8.8 -3.6 12.3 -.3 .4 .4 .8 .8 1.1 1.3 l -2.4 1.2 c -.3 .1 -.4 .5 -.3 .8 .1 .2 .3 .3 .5 .3 h 3.5 c 3.1 0 5.7 2.6 5.7 5.7 s -2.6 5.7 -5.7 5.7 h -25.8 c -2.4 0 -4.4 -1.9 -4.5 -4.5 z"/><path d="m 61.3 60 c -1.3 0 -2.4 .8 -2.8 2 -.1 .4 0 .8 .4 .9 .1 0 .2 .1 .3 .1 h 4.1 c .4 0 .7 -.3 .7 -.7 0 -.1 0 -.2 -.1 -.3 -.2 -1.2 -1.3 -2 -2.6 -2 z"/><path d="m 55.1 62.6 h -5.6 c -.4 0 -.7 .3 -.7 .7 v .2 c .5 1.9 2.4 3.2 4.4 2.7 1.3 -.3 2.4 -1.4 2.7 -2.7 .1 -.4 -.2 -.8 -.6 -.9 -.1 0 -.2 0 -.2 0 z"/><path d="m 43.2 60 c -1.3 0 -2.4 .8 -2.8 2 -.1 .4 0 .8 .4 .9 .1 0 .2 .1 .3 .1 h 4.1 c .4 0 .7 -.3 .7 -.7 0 -.1 0 -.2 -.1 -.3 -.3 -1.2 -1.4 -2 -2.6 -2 z"/><path d="m 230.4 231.6 c -1.7 .1 -3.9 2.1 -9.1 3.2 -1.4 .3 -2.7 .4 -4.1 .2 -.2 0 -.2 -.2 -.1 -.3 1.5 -.7 3.6 -2.2 3.6 -2.8 0 -1.4 -7.8 .2 -9.2 1.3 -.6 .4 -1.1 1 -1.4 1.7 -.2 .6 -.7 1 -1.3 1.1 l -30.4 9.6 c -.8 .3 -1.7 -.1 -2.2 -.8 l -10 -13 c -.4 -.7 -1.3 -1 -2.1 -.8 l -15.5 5.4 c -.9 .3 -1.4 1.3 -1.1 2.2 .1 .3 .2 .5 .5 .7 l 25.7 21.8 c .8 .8 2.1 .9 3.1 .3 l 34.5 -19.1 c .1 0 .2 -.1 .3 -.1 .7 -.2 4.1 -.9 7.7 -1.9 3 -.8 6.4 -1.8 8 -3.2 1.5 -1.2 2.8 -2.7 3.9 -4.2 .2 -.4 .1 -.9 -.3 -1.1 -.2 -.1 -.3 -.2 -.5 -.2 z"/><path d="m 164.8 219.6 c -3.2 -3.5 -11.2 -11.5 -14.9 -14.5 -1 -.8 -2.3 -1.2 -3.6 -1.2 l -16.1 .1 c -.4 -.1 -1.1 .3 -.9 .7 2.7 5.9 -1.6 17.8 -15.3 18.1 -13.6 -.2 -17.9 -12.1 -15.3 -18.1 .2 -.4 -.5 -.7 -.9 -.7 l -16.1 -.1 c -1.3 0 -2.6 .4 -3.6 1.2 -5.2 4.6 -10.2 9.4 -14.9 14.5 -.8 .9 -.6 2.3 .5 3.6 l 21.5 10.9 c 1.1 .6 1.6 .5 1.6 1.5 l .4 47.5 c .1 1.1 .9 1.9 2 2 h 49.8 c 1.1 -.1 1.9 -.9 2 -2 l .4 -47.5 c 0 -1 .6 -1.8 1.6 -2.1 l 21.5 -10.9 c .9 -.5 1.2 -1.7 .6 -2.6 -.1 -.2 -.2 -.3 -.3 -.4 z"/><path d="m 122.2 206.6 l .6 -.6 c 4.9 -4.8 9.8 -8.7 9.8 -16.4 0 -.7 .6 -1.3 1.3 -1.3 h .9 c 1 0 1.8 -.7 1.9 -1.7 l 1.2 -8.8 c .1 -.6 -.3 -1.1 -.9 -1.2 -.4 -.1 -.8 .1 -1 .4 -.4 .6 -1.3 .7 -1.9 .3 -.3 -.2 -.5 -.5 -.5 -.9 l 2.7 -12.6 c .6 -2.7 -1.1 -5.3 -3.8 -5.8 -.3 -.1 -.7 -.1 -1 -.1 h -2.8 l 3.9 -3.9 c 0 -3.3 -2.6 -5.9 -5.9 -5.9 h -19.6 c -5.4 0 -9.8 4.4 -9.8 9.8 h -.8 c -2.7 0 -4.9 2.2 -4.9 4.9 0 .3 0 .7 .1 1 l 2.7 12.7 c -.2 .7 -1 1.1 -1.7 .9 -.3 -.1 -.5 -.2 -.7 -.5 -.3 -.5 -1 -.6 -1.5 -.2 -.3 .2 -.5 .6 -.4 1 l 1.2 8.8 c .1 1 1 1.7 2 1.7 h .7 c .7 0 1.3 .6 1.3 1.3 0 7.7 4.9 11.6 9.8 16.4 l .6 .6 1.6 1.6 c .4 .4 .4 1 -.1 1.4 -.2 .2 -.4 .3 -.6 .3 h -1.6 c -.3 0 -.6 .2 -.6 .5 v .1 c 1.5 5.2 6.9 8.3 12.1 6.8 3.3 -.9 5.9 -3.5 6.8 -6.8 .1 -.3 -.1 -.6 -.4 -.7 h -.1 -1.6 c -.6 0 -1 -.5 -1 -1 0 -.2 .1 -.5 .3 -.6 z m -8.2 -7.5 c -3.7 0 -6.8 -1.1 -6.8 -2.4 s 3 -2.4 6.8 -2.4 6.8 1.1 6.8 2.4 -3.1 2.4 -6.8 2.4 z"/><path d="m 78.8 239.1 l -9.5 -4.4 c -.9 -.3 -1.9 .2 -2.2 1.1 -.1 .3 -.1 .5 -.1 .8 l 3.6 43.5 c .1 1 1 1.9 2 1.9 h 7.4 v -41 c .1 -.8 -.4 -1.6 -1.2 -1.9 z"/></g></svg>