<svg enable-background="new 0 0 285.7 283" viewBox="0 0 285.7 283" xmlns="http://www.w3.org/2000/svg"><g fill="#fff"><path d="m 177.6 229.6 c -1.7 .1 -3.9 2.1 -9.1 3.2 -1.4 .3 -2.7 .4 -4.1 .2 -.2 0 -.2 -.2 -.1 -.3 1.5 -.7 3.6 -2.2 3.6 -2.8 0 -1.4 -7.8 .2 -9.2 1.3 -.6 .4 -1.1 1 -1.4 1.7 -.2 .5 -.7 .9 -1.3 1 l -30.4 9.6 c -.8 .3 -1.7 -.1 -2.2 -.8 l -10 -13 c -.4 -.7 -1.3 -1 -2.1 -.8 l -15.5 5.4 c -.9 .3 -1.4 1.3 -1.1 2.2 .1 .3 .2 .5 .5 .7 l 25.7 21.8 c .8 .8 2.1 .9 3.1 .3 l 34.5 -19.1 c .1 0 .2 -.1 .3 -.1 .7 -.2 4.1 -.9 7.7 -1.9 3 -.8 6.4 -1.8 8.1 -3.2 1.5 -1.2 2.8 -2.7 3.9 -4.2 .2 -.4 0 -.9 -.4 -1.1 -.3 0 -.4 -.1 -.5 -.1 z"/><path d="m 112 217.6 c -3.2 -3.5 -11.2 -11.5 -14.9 -14.5 -1 -.8 -2.3 -1.2 -3.6 -1.2 l -16.1 .1 c -.4 -.1 -1.1 .3 -.9 .7 2.7 5.9 -1.7 17.8 -15.3 18.1 -13.6 -.2 -17.9 -12.1 -15.3 -18.1 .2 -.4 -.5 -.7 -.9 -.7 l -16.1 -.1 c -1.3 0 -2.6 .4 -3.6 1.2 -5.2 4.6 -10.2 9.4 -14.9 14.5 -.8 .9 -.6 2.3 .5 3.6 l 21.5 10.9 c 1.1 .6 1.6 .5 1.6 1.5 l .4 47.4 c .1 1.1 .9 1.9 2 2 h 49.6 c 1.1 -.1 1.9 -.9 2 -2 l .4 -47.5 c 0 -1 .7 -1.8 1.6 -2.1 l 21.5 -10.9 c .9 -.5 1.2 -1.7 .7 -2.6 0 0 -.1 -.2 -.2 -.3 z"/><path d="m 26 237.1 l -9.5 -4.4 c -.9 -.3 -1.9 .2 -2.2 1.1 -.1 .3 -.1 .5 -.1 .8 l 3.6 43.5 c .1 1 1 1.9 2 1.9 h 7.4 v -41 c .1 -.8 -.4 -1.6 -1.2 -1.9 z"/><path d="m 264 221.9 c 1.7 -1.2 3.3 -3.3 2.3 -5.2 l -4.1 -6.4 c -2.8 -4.4 -6.4 -8.8 -14.1 -8.8 h -1.7 c -.4 0 -.8 .2 -1 .5 -3.7 4.9 -9.4 7.8 -15.6 7.9 -.5 0 -.9 0 -1.4 0 h -.1 c -.5 0 -1 0 -1.4 0 -6.1 -.1 -11.9 -3 -15.6 -7.9 -.2 -.3 -.6 -.5 -1 -.5 h -1.7 c -7.6 0 -11.2 4.4 -14 8.8 l -4.1 6.4 c -1 1.9 .6 4 2.3 5.2 l 7.2 5.4 c 1 .6 2.3 .2 2.9 -.9 l 3.7 -6.3 c .2 -.4 .7 -.6 1.2 -.4 .4 .2 .6 .6 .5 1 l -1.9 6.7 c -.8 4 0 8.1 2.3 11.4 3.5 5.5 5.2 11.9 4.6 18.4 -.1 1.3 .9 2.4 2.2 2.5 h .1 25.6 c 1.3 0 2.4 -1.1 2.4 -2.4 v -.1 c -.6 -6.5 1.1 -13 4.6 -18.4 2.3 -3.3 3.2 -7.4 2.3 -11.4 l -1.9 -6.7 c -.1 -.5 .2 -.9 .7 -1.1 .4 -.1 .8 .1 1 .5 l 3.7 6.3 c .5 1 1.8 1.5 2.8 .9 z"/><path d="m 246.1 266.1 c -.3 -.8 -1 -1.5 -1.9 -1.5 h -31.7 c -.9 .1 -1.6 .7 -1.9 1.5 -2 4.7 -3.3 9.6 -4 14.6 -.2 1.1 .6 2.1 1.7 2.3 h .3 39.5 c 1.1 0 2 -.9 2 -2 0 -.1 0 -.2 0 -.3 -.7 -5 -2.1 -9.9 -4 -14.6 z"/><path d="m 267.1 226.7 c -.5 -.7 -1.4 -.9 -2.1 -.5 -.1 0 -.1 .1 -.1 .1 l -6.7 5.3 c -1 1 -1.5 2.3 -1.4 3.7 v .4 l 4.3 45.4 c .1 1 1 1.8 2 1.8 h 3.3 c 1.1 0 2 -.9 2 -2 l -.7 -52.3 c 0 -.6 -.2 -1.3 -.6 -1.9 z"/><path d="m 192.1 226.4 c -.7 -.5 -1.6 -.4 -2.2 .2 0 0 -.1 .1 -.1 .1 -.4 .5 -.6 1.2 -.6 1.9 l -.7 52.4 c 0 1.1 .9 2 2 2 h 3.3 c 1 0 1.9 -.8 2 -1.8 l 4.2 -45.4 c 0 -.1 0 -.3 0 -.4 .1 -1.4 -.4 -2.8 -1.4 -3.7 z"/><path d="m 86.1 153.9 c 4.1 -1.6 7.7 -5.5 7.7 -10.2 0 -.9 -.7 -1.7 -1.6 -1.7 h -31.8 c -8.7 .2 -21.4 9.8 -21.4 22.7 0 15.8 8 20.6 13.5 24.8 .9 .8 1.4 2 1.3 3.2 l -.4 9.4 c 0 .5 -.4 .9 -.9 .9 h -1.5 c -.5 0 -.9 .4 -.9 .9 v 3.1 c 0 5 4.9 9 11 9 7 0 12 -4 12 -9 v -.9 c 0 -.6 -.5 -1 -1 -1 -.3 0 -.6 .2 -.8 .4 l -.6 .9 c -.3 .4 -.9 .6 -1.4 .2 -.3 -.2 -.5 -.6 -.4 -1 l .8 -4.9 c 0 -.5 -.3 -.9 -.7 -1.1 l -3.3 -2.2 -2.9 -1.9 c -.6 -.3 -.8 -1 -.6 -1.7 .3 -.7 1 -1 1.7 -.7 .1 0 .2 .1 .3 .1 l 4.6 1.9 2.6 1.1 c 6.3 2.2 10.1 2.8 12.4 2.8 s 3.2 -.6 3.5 -1.3 c 2.2 -2.9 2.8 -14.8 2.9 -26 .2 -6 -1.3 -11.9 -4.3 -17.1 -.2 -.2 -.1 -.5 .1 -.7 0 .1 0 .1 .1 0 z"/><path d="m 250.2 151 c .5 .8 1.6 1 2.4 .4 .8 -.5 1 -1.6 .4 -2.4 l -3.6 -5.1 c -.6 -.8 -1.6 -1 -2.4 -.4 s -1 1.6 -.4 2.4 z"/><path d="m 203 166.8 c .1 10.3 .6 21.1 2.6 23.8 .3 .6 1.2 1.2 3.2 1.2 s 5.5 -.6 11.3 -2.6 l 2.4 -1 4.2 -1.7 c .1 0 .2 -.1 .3 -.1 .6 -.2 1.3 .1 1.5 .7 s 0 1.2 -.5 1.5 l -2.7 1.7 -3 2 c -.3 .2 -.6 .6 -.6 1 l .2 7.8 c 0 .6 -.4 1 -1 1 h -3 c -.6 0 -1 .4 -1 1 0 .3 .1 .6 .4 .8 6.8 4.3 15.4 4.3 22.1 0 .4 -.3 .6 -.9 .2 -1.4 -.2 -.2 -.4 -.4 -.7 -.4 h -1.1 c -.6 0 -1 -.4 -1 -1 l -.7 -15.2 c -.1 -1.1 .4 -2.2 1.2 -2.9 5 -3.8 12.3 -8.2 12.3 -22.6 0 -11.8 -11.6 -20.6 -19.6 -20.7 -16.2 -.5 -27 9.9 -27 27.1 z"/><path d="m 285.7 195.8 c -1.2 -12.4 -11.2 -10.4 -14.1 -17.5 l -3.2 2.9 c -.5 .5 -1.3 .4 -1.7 -.1 0 0 -.1 -.1 -.1 -.1 -.3 -.4 -.3 -1 0 -1.5 l 4 -5.4 1.6 -2.4 c 2.3 -4 6.9 -8.5 5.8 -19.5 s -8.8 -17.9 -16.7 -17.1 c -8.8 .8 -12 7.5 -5.3 12.9 2.9 2.3 5.1 4.3 5.4 6.8 .6 6 -5.8 7.8 -4.8 17.9 1.8 19.5 22.3 11.2 23.8 26.9 .5 5.6 -3.8 12.7 -.2 9.9 1.6 -1.6 6.1 -7.1 5.5 -13.7 z"/><path d="m 75 35 c 5.52 0 10 4.48 10 10 s -4.48 10 -10 10 -10 -4.48 -10 -10 4.48 -10 10 -10 z"/><path d="m 45 35 c 5.52 0 10 4.48 10 10 s -4.48 10 -10 10 -10 -4.48 -10 -10 4.48 -10 10 -10 z"/><path d="m 110.7 94 c 1.3 1.3 3.5 1.3 4.9 0 2.8 -2.8 6.1 -2.8 8.9 0 1.3 1.4 3.4 1.6 4.9 .3 1.4 -1.3 1.6 -3.4 .3 -4.9 -.1 -.1 -.2 -.2 -.3 -.3 -4.7 -5.2 -12.7 -5.5 -17.8 -.8 -.3 .3 -.6 .5 -.8 .8 -1.5 1.4 -1.5 3.5 -.1 4.9 z"/><path d="m 50.7 56 c -1.3 1.3 -1.3 3.5 0 4.9 4.7 5.2 12.7 5.5 17.8 .8 .3 -.3 .6 -.5 .8 -.8 1.4 -1.3 1.6 -3.4 .3 -4.9 -1.3 -1.4 -3.4 -1.6 -4.9 -.3 -.1 .1 -.2 .2 -.3 .3 -2.8 2.8 -6.1 2.8 -8.9 0 -1.3 -1.3 -3.5 -1.3 -4.8 0 z"/><path d="m 105 65 c 5.52 0 10 4.48 10 10 s -4.48 10 -10 10 -10 -4.48 -10 -10 4.48 -10 10 -10 z"/><path d="m 131.2 130 c .6 0 1 .5 .9 1.1 v .2 l -4.9 12.5 c -.4 1.1 .1 2.3 1.2 2.7 .6 .2 1.2 .2 1.7 -.1 l 26.1 -13.3 23.2 -13.6 c .6 -.4 1.4 -.3 2 .1 .7 .6 .9 1.7 .3 2.4 -.1 .1 -.1 .1 -.2 .2 l -7 6.6 c -.3 .2 -.3 .7 0 .9 .1 .1 .3 .2 .5 .2 h 33.8 c 11.7 0 21.2 -9.5 21.2 -21.3 v -87.3 c 0 -11.8 -9.5 -21.3 -21.3 -21.3 h -188.7 c -11 0 -20 9 -20 20 v 88.7 c 0 11.8 9.5 21.3 21.3 21.3 z m 42.1 -20 c -4.5 0 -8.2 -3.7 -8.2 -8.2 s 3.7 -8.2 8.2 -8.2 8.2 3.7 8.2 8.2 -3.6 8.2 -8.2 8.2 z m -16 -83.8 c 4.8 -4 11 -6.2 17.2 -6.2 14 0 25.4 10.4 25.4 23.1 0 1.7 -.2 3.4 -.6 5.1 -1 5.8 -4.8 11 -10.9 15.3 -10.1 7.1 -8.1 8.1 -8.1 15.2 0 3.9 -3.2 7.1 -7.1 7.1 s -7.1 -3.2 -7.1 -7.1 v -7.1 c 0 -2.2 .6 -4.3 1.7 -6.2 1.9 -3.4 5.1 -5.6 6.4 -7 2.4 -2.2 4.6 -4.7 6.7 -7.2 1.7 -1.9 2.7 -4.3 2.7 -6.9 0 -3.8 -2 -7.3 -5.4 -9 -1.5 -.8 -3.1 -1.2 -4.8 -1.3 -1.5 0 -3 .3 -4.4 1 -8.2 3.1 -7 13.3 -13.9 13.3 -2.2 .2 -4.3 -.7 -5.7 -2.3 -1 -1.4 -1.5 -3.1 -1.4 -4.8 0 -5.1 3.9 -11 9.3 -15 z m -37.3 23.8 c 16.6 0 30 13.4 30 30 s -13.4 30 -30 30 -30 -13.4 -30 -30 13.4 -30 30 -30 z m -60 -30 c 16.6 0 30 13.4 30 30 s -13.4 30 -30 30 -30 -13.4 -30 -30 13.4 -30 30 -30 z"/><path d="m 135 65 c 5.52 0 10 4.48 10 10 s -4.48 10 -10 10 -10 -4.48 -10 -10 4.48 -10 10 -10 z"/></g></svg>