<svg viewBox="0 0 300 300" xmlns="http://www.w3.org/2000/svg"><g fill="#fff"><path d="m 95.27 286.19 a 8.26 8.26 0 0 1 1.82 -3.37 12.19 12.19 0 0 1 5.51 -2.94 c 14.39 -4.48 29.8 -4 44.69 -6.32 a 120.9 120.9 0 0 0 59.84 -27.56 c 7.6 -6.53 14.52 -14.21 18.3 -23.5 3.85 -9.46 4.21 -20 3.16 -30.19 -2.13 -20.59 -9.76 -40.22 -18.57 -58.95 -6.47 -13.73 -13.67 -27.23 -23.14 -39.09 -13.48 -16.9 -31 -29.8 -47.78 -43.14 -12.6 -10 -35.87 -27.66 -47.1 -47.06 .57 -.23 1.15 -.45 1.74 -.67 -61.68 22.19 -77.22 149.15 -57.61 212 a 120.24 120.24 0 0 0 61.52 72.06 c -.78 -.46 -1.59 -.85 -2.38 -1.27 z"/><path d="m 266.32 143.46 c -19.86 -63.56 -106.74 -160.68 -170.32 -140.83 s -79.7 149.16 -59.85 212.72 a 120.57 120.57 0 0 0 230.17 -71.89 z" opacity=".8"/></g></svg>