<svg enable-background="new 0 0 704.5106812 706.5160522" viewBox="0 0 704.51 706.52" xmlns="http://www.w3.org/2000/svg"><path d="m 689.08 272.41 s -14.19 -14 -27.66 -36.29 c 0 0 -25.34 -46.44 -97.59 -59.15 0 0 -14.96 -141.8 -130.65 -171.98 0 0 -18.1 126.87 74.46 186.71 l -11.6 9.23 s -60.95 -113.65 -183.13 -113.97 c 0 0 16.35 118.29 149.88 160.08 0 0 -6.71 34.61 -5 41.24 0 0 2.8 38.14 -55.38 23.66 0 0 -168.02 -58.76 -265.58 86.67 -19.71 29.37 -18.69 40 -18.69 40 s .78 -5.16 -31.55 -5.04 c -47.86 .16 -81.88 37.19 -81.58 74.98 .3 39.05 28.49 82.74 79.63 82.34 47.92 -.37 46.16 -16.04 46.16 -16.04 s 3.54 41.35 61.12 79.5 c 26.56 17.6 42.25 19.95 42.25 19.95 -16.26 15.25 1.58 27.2 1.58 27.2 s 61.53 -.01 68.47 -.6 l 170.03 -1.32 s 30.51 -20.98 -23.62 -50.42 c 0 0 -43.21 -10.45 -74.71 -6.88 0 0 76.2 -15.53 89.26 -39.68 l 43.75 96.46 61.73 -1.09 s 15.35 -25.79 -6.34 -42.22 c 0 0 -14.99 -5.69 -22.45 -5.62 0 0 -2.51 -4.98 -.9 -9.93 0 0 10.22 -72.25 6.78 -86.33 0 0 109.78 -69.71 85.85 -162.41 0 0 -4.4 -30.65 18.72 -44.94 -.02 -.83 .8 -.83 .8 -.83 s 37.27 -9.41 41.95 -46.78 c .01 -.02 13.23 -8.39 -5.99 -26.5 z" fill="#fff"/></svg>