<svg enable-background="new 0 0 841.889 595.281" height="595.28" viewBox="0 0 841.89 595.28" width="841.89" xmlns="http://www.w3.org/2000/svg"><path d="m 193.56 367.96 c 2.95 -.62 4.5 3.42 5.12 8.71 .62 5.28 .32 11.81 -2.02 16.94 -2.33 5.12 -6.68 8.86 -9.48 6.21 -2.8 -2.64 -4.04 -11.66 -2.5 -18.81 1.56 -7.14 5.92 -12.43 8.88 -13.05 z m -36.3 -54.35 c -10.57 34.51 -13.68 63.74 -13.05 90.16 .62 26.43 4.98 50.06 17.1 75.55 12.13 25.5 32.03 52.86 71.2 65.91 39.17 13.06 97.62 11.81 151.41 .94 53.79 -10.89 102.91 -31.4 149.23 -58.77 46.32 -27.36 89.85 -61.56 112.24 -90.48 22.38 -28.91 23.62 -52.53 27.36 -79.89 3.73 -27.36 9.95 -58.45 16.16 -85.81 6.22 -27.36 12.44 -50.99 8.71 -78.97 s -17.41 -60.31 -37.62 -80.83 -46.94 -29.23 -74.62 -33.58 c -27.67 -4.35 -56.27 -4.35 -87.36 1.25 -31.09 5.59 -64.67 16.78 -97.31 28.91 -32.65 12.13 -64.36 25.18 -97 47.26 s -66.22 53.17 -92.03 88.6 c -25.81 35.45 -43.83 75.24 -54.42 109.75 z m 68.4 -37.46 c -1.86 6.38 -6.21 14.77 -11.81 21.91 -5.59 7.16 -12.43 13.07 -17.41 11.66 -4.97 -1.4 -8.07 -10.1 -6.53 -18.66 1.56 -8.54 7.78 -16.94 12.9 -21.91 5.13 -4.98 9.18 -6.53 12.9 -7.31 3.74 -.77 7.16 -.77 9.18 1.41 s 2.65 6.52 .77 12.9 z m -3.54 219.83 c 1.62 1.75 3.35 5.23 3.67 7.52 .32 2.31 -.81 3.42 -2.43 2.8 s -3.73 -2.98 -4.79 -5.28 c -1.05 -2.3 -1.05 -4.54 -.31 -5.66 .76 -1.11 2.25 -1.11 3.86 .62 z m 329 -92.92 c 0 -2.64 1.55 -5.44 3.73 -6.06 s 4.97 .93 4.97 3.57 -2.79 6.38 -4.97 7 -3.73 -1.86 -3.73 -4.51 z m -39.34 53.48 c -.46 -2.65 2.33 -6.07 5.91 -9.33 3.59 -3.27 7.93 -6.38 10.89 -5.92 2.95 .47 4.51 4.51 2.8 8.71 -1.71 4.21 -6.69 8.55 -11.04 9.8 -4.35 1.24 -8.09 -.62 -8.56 -3.26 z m 109.13 -164.48 c -2.03 -2.95 -2.65 -11.66 -2.18 -18.02 .47 -6.38 2.03 -10.42 4.2 -12.28 2.18 -1.88 4.98 -1.56 6.22 3.41 1.24 4.98 .94 14.61 -.94 20.83 -1.86 6.23 -5.28 9.02 -7.3 6.06 z m -336.25 -6.15 c -3.27 -.65 -4.48 -5.8 -4.25 -9.93 s 1.91 -7.22 5.5 -10.39 c 3.6 -3.19 9.1 -6.45 12.4 -6.29 s 4.36 3.73 4.04 7.55 c -.32 3.83 -2.03 7.91 -5.54 11.88 -3.53 3.96 -8.86 7.82 -12.15 7.18 z m 338.27 -172.45 c -.62 -4.66 1.25 -9.01 4.04 -11.19 2.8 -2.18 6.53 -2.18 8.71 -.32 s 2.8 5.6 1.56 10.27 -4.36 10.25 -7.47 10.57 c -3.1 .3 -6.22 -4.67 -6.84 -9.33 z m -149.07 8.39 c -1.09 -3.73 .46 -11.81 4.82 -17.25 4.35 -5.44 11.5 -8.24 16.63 -9.33 s 8.24 -.47 9.64 2.48 1.09 8.24 -2.95 13.05 c -4.04 4.83 -11.82 9.18 -17.56 11.66 -5.76 2.5 -9.5 3.12 -10.58 -.61 z m -213.69 386.63 c 4.36 -.94 11.07 -.68 16.11 2.8 5.03 3.48 8.39 10.2 8.82 15.05 s -2.05 7.83 -8.27 7.34 c -6.21 -.49 -16.16 -4.48 -20.95 -8.39 -4.78 -3.93 -4.42 -7.78 -3.23 -10.76 1.18 -2.99 3.17 -5.1 7.52 -6.04 z" fill="#fff"/></svg>