<svg enable-background="new 0 0 299.7 296.6" viewBox="0 0 299.7 296.6" xmlns="http://www.w3.org/2000/svg"><g fill="#fff"><path d="m 280.7 258.6 h -11.5 c -1.1 0 -2 -.9 -2 -2 0 -.8 .4 -1.4 1.1 -1.8 l 8 -4 c -9.3 -13 -27.4 -16.1 -40.4 -6.8 -1.5 1.1 -2.9 2.3 -4.1 3.6 l -10.5 10.4 c -.8 .8 -2.1 .7 -2.8 0 -.5 -.5 -.7 -1.3 -.5 -2 l 1.7 -5.3 c -.7 -.1 -1.4 -.1 -2 -.1 -10 0 -18.9 6.5 -21.9 16.1 -.4 0 -.7 0 -1.1 0 -8.3 0 -15 6.7 -15 15 s 6.7 15 15 15 h 86 c 10.5 0 19 -8.5 19 -19 s -8.5 -19.1 -19 -19.1 z"/><path d="m 154.7 183.6 h -16 c -2.2 0 -4 -1.8 -4 -4 0 -1.5 .9 -2.9 2.2 -3.6 l 10.2 -5.1 c -10.9 -22.3 -37.8 -31.6 -60.2 -20.7 -6.4 3.1 -12 7.7 -16.3 13.5 l -11.4 19.9 c -1.1 1.9 -3.5 2.6 -5.5 1.5 -1.3 -.7 -2.1 -2.2 -2 -3.7 l .6 -11.7 c -.6 0 -1.2 -.1 -1.8 -.1 -14 0 -26.5 8.9 -31.1 22.1 -11.9 1.4 -20.6 12.3 -19.3 24.4 1.2 11 10.5 19.4 21.6 19.5 h 133 c 14.4 0 26 -11.6 26 -26 s -11.6 -26 -26 -26 z"/><path d="m 136.5 61.4 l 8.1 6.4 c 1.7 1.4 4.2 1.1 5.6 -.7 .3 -.4 .6 -1 .7 -1.5 .6 -2.2 1.3 -4.3 2.1 -6.4 s -.2 -4.4 -2.2 -5.2 c -.5 -.2 -1.1 -.3 -1.7 -.3 l -10.3 .5 c -2.2 .1 -3.9 2 -3.8 4.2 0 1.3 .6 2.3 1.5 3 z"/><path d="m 190.5 21.9 c 2.1 -.8 4.2 -1.5 6.4 -2.1 2.1 -.5 3.4 -2.7 2.9 -4.9 -.1 -.5 -.4 -1.1 -.7 -1.5 l -6.4 -8.1 c -1.4 -1.7 -3.9 -2 -5.6 -.6 -.9 .7 -1.5 1.8 -1.5 3 l -.6 10.3 c -.1 2.2 1.6 4.1 3.8 4.2 .6 0 1.1 -.1 1.7 -.3 z"/><path d="m 152.5 47.2 c 1.2 1.8 3.7 2.4 5.5 1.1 .5 -.3 .9 -.7 1.2 -1.2 1.2 -1.9 2.5 -3.7 3.9 -5.4 s 1.2 -4.2 -.5 -5.6 c -.4 -.4 -.9 -.6 -1.5 -.8 l -10 -2.7 c -2.1 -.6 -4.3 .7 -4.9 2.9 -.3 1.1 -.1 2.2 .5 3.1 z"/><path d="m 210.3 17.7 c 1.1 -.1 2.3 -.1 3.4 -.1 s 2.3 0 3.4 .1 c 2.2 .1 4.1 -1.6 4.2 -3.8 0 -.5 -.1 -1.1 -.2 -1.6 l -3.6 -9.7 c -.8 -2.1 -3.1 -3.1 -5.2 -2.3 -1.1 .4 -1.9 1.3 -2.3 2.3 l -3.6 9.7 c -.8 2.1 .2 4.4 2.3 5.2 .5 .1 1 .2 1.6 .2 z"/><path d="m 278.6 79.2 c .1 1.1 .1 2.3 .1 3.4 0 1.2 0 2.3 -.1 3.4 -.1 2.2 1.6 4.1 3.8 4.2 .5 0 1.1 -.1 1.6 -.2 l 9.7 -3.6 c 2.1 -.8 3.1 -3.1 2.3 -5.2 -.4 -1.1 -1.3 -1.9 -2.3 -2.3 l -9.7 -3.6 c -2.1 -.8 -4.4 .2 -5.2 2.3 -.1 .5 -.2 1 -.2 1.6 z"/><path d="m 264.2 41.7 c 1.4 1.7 2.7 3.6 4 5.4 1.2 1.9 3.6 2.4 5.5 1.2 .5 -.3 .9 -.7 1.2 -1.2 l 5.7 -8.6 c 1.2 -1.9 .6 -4.3 -1.3 -5.5 -.9 -.6 -2.1 -.8 -3.1 -.5 l -10 2.8 c -2.1 .6 -3.3 2.8 -2.7 5 .1 .5 .4 1 .7 1.4 z"/><path d="m 230.6 19.8 c 2.2 .6 4.3 1.3 6.4 2.1 s 4.4 -.2 5.2 -2.2 c .2 -.5 .3 -1.1 .3 -1.7 l -.5 -10.3 c -.1 -2.2 -2 -3.9 -4.2 -3.8 -1.2 0 -2.2 .6 -3 1.5 l -6.4 8.1 c -1.4 1.7 -1.1 4.2 .6 5.6 .5 .3 1 .6 1.6 .7 z"/><path d="m 274.4 59.4 c .8 2.1 1.5 4.2 2.1 6.4 .5 2.1 2.7 3.4 4.9 2.9 .5 -.1 1.1 -.4 1.5 -.7 l 8.1 -6.4 c 1.7 -1.4 2 -3.9 .6 -5.6 -.7 -.9 -1.8 -1.5 -3 -1.5 l -10.3 -.5 c -2.2 -.1 -4.1 1.6 -4.2 3.8 0 .5 .1 1 .3 1.6 z"/><path d="m 249.1 28.1 c 1.9 1.2 3.7 2.5 5.4 4 1.7 1.4 4.2 1.2 5.6 -.5 .4 -.4 .6 -.9 .8 -1.5 l 2.8 -10 c .6 -2.1 -.7 -4.3 -2.9 -4.9 -1.1 -.3 -2.2 -.1 -3.2 .5 l -8.6 5.7 c -1.8 1.2 -2.4 3.7 -1.1 5.5 .3 .5 .8 .9 1.2 1.2 z"/><path d="m 166.4 30.1 c .6 2.1 2.8 3.4 4.9 2.8 .5 -.2 1 -.4 1.5 -.8 1.7 -1.4 3.6 -2.7 5.4 -4 1.9 -1.2 2.4 -3.6 1.2 -5.5 -.3 -.5 -.7 -.9 -1.2 -1.2 l -8.6 -5.7 c -1.9 -1.2 -4.3 -.6 -5.5 1.3 -.6 .9 -.8 2.1 -.5 3.1 z"/><path d="m 249.1 143.8 l 8.6 5.7 c 1.8 1.2 4.3 .7 5.5 -1.1 .6 -1 .8 -2.2 .5 -3.3 l -2.8 -10 c -.6 -2.1 -2.8 -3.4 -4.9 -2.8 -.5 .2 -1 .4 -1.5 .8 -1.7 1.4 -3.6 2.7 -5.4 3.9 -1.9 1.2 -2.5 3.6 -1.3 5.5 .4 .5 .8 1 1.3 1.3 z"/><path d="m 213.7 147.6 c -1.2 0 -2.3 0 -3.4 -.1 -2.2 -.1 -4.1 1.6 -4.2 3.8 0 .5 .1 1.1 .2 1.6 l 3.6 9.7 c .8 2.1 3.1 3.1 5.2 2.3 1.1 -.4 1.9 -1.3 2.3 -2.3 l 3.6 -9.7 c .8 -2.1 -.3 -4.4 -2.4 -5.1 -.5 -.2 -1 -.3 -1.6 -.2 -1 0 -2.1 0 -3.3 0 z"/><path d="m 236.9 143.3 c -2.1 .8 -4.2 1.5 -6.4 2.1 -2.1 .5 -3.4 2.7 -2.9 4.9 .1 .5 .4 1.1 .7 1.5 l 6.4 8.1 c 1.4 1.7 3.9 2 5.6 .6 .9 -.7 1.5 -1.8 1.5 -3 l .4 -10.3 c .1 -2.2 -1.6 -4.1 -3.8 -4.2 -.4 0 -.9 .1 -1.5 .3 z"/><path d="m 290.9 103.7 l -8.1 -6.4 c -1.7 -1.4 -4.2 -1.1 -5.6 .7 -.3 .4 -.6 1 -.7 1.5 -.6 2.2 -1.3 4.3 -2.1 6.4 s .2 4.4 2.2 5.2 c .5 .2 1.1 .3 1.7 .3 l 10.3 -.4 c 2.2 -.1 3.9 -2 3.8 -4.2 0 -1.3 -.6 -2.3 -1.5 -3.1 z"/><path d="m 266.2 129.9 l 10 2.8 c 2.1 .6 4.3 -.7 4.9 -2.8 .3 -1.1 .1 -2.3 -.5 -3.3 l -5.7 -8.6 c -1.2 -1.8 -3.7 -2.4 -5.5 -1.1 -.5 .3 -.9 .7 -1.2 1.2 -1.2 1.9 -2.5 3.7 -4 5.4 -1.4 1.7 -1.2 4.2 .5 5.6 .5 .4 1 .6 1.5 .8 z"/><path d="m 151.2 132.6 l 10 -2.8 c 2.1 -.6 3.4 -2.8 2.8 -4.9 -.2 -.5 -.4 -1 -.8 -1.5 -1.4 -1.7 -2.7 -3.6 -3.9 -5.4 -1.2 -1.9 -3.6 -2.4 -5.5 -1.2 -.5 .3 -.9 .7 -1.2 1.2 l -5.7 8.7 c -1.2 1.9 -.6 4.3 1.3 5.5 .8 .5 1.9 .7 3 .4 z"/><path d="m 153 105.8 c -.8 -2.1 -1.5 -4.2 -2.1 -6.4 -.5 -2.1 -2.7 -3.4 -4.9 -2.9 -.5 .1 -1.1 .4 -1.5 .7 l -8.1 6.4 c -1.7 1.4 -2 3.9 -.6 5.6 .7 .9 1.8 1.5 3 1.5 l 10.3 .4 c 2.2 .1 4.1 -1.6 4.2 -3.8 0 -.4 -.1 -.9 -.3 -1.5 z"/><path d="m 133.7 86.3 l 9.7 3.6 c 2.1 .8 4.4 -.3 5.1 -2.4 .2 -.5 .3 -1 .2 -1.6 0 -1.1 -.1 -2.3 -.1 -3.4 0 -1.2 0 -2.3 .1 -3.4 .1 -2.2 -1.6 -4.1 -3.8 -4.2 -.5 0 -1.1 .1 -1.6 .2 l -9.7 3.6 c -2.1 .8 -3.1 3.1 -2.4 5.1 .5 1.3 1.4 2.1 2.5 2.5 z"/><path d="m 169.7 149.5 l 8.6 -5.7 c 1.8 -1.2 2.4 -3.7 1.1 -5.5 -.3 -.5 -.7 -.9 -1.2 -1.2 -1.9 -1.2 -3.7 -2.5 -5.4 -3.9 s -4.2 -1.2 -5.6 .5 c -.4 .4 -.6 .9 -.8 1.5 l -2.8 10 c -.6 2.1 .7 4.3 2.8 4.9 1.2 .2 2.4 0 3.3 -.6 z"/><path d="m 190.5 143.3 c -2.1 -.8 -4.4 .2 -5.2 2.2 -.2 .5 -.3 1.1 -.3 1.7 l .4 10.3 c .1 2.2 2 3.9 4.2 3.8 1.2 0 2.2 -.6 3 -1.5 l 6.4 -8.1 c 1.4 -1.7 1.1 -4.2 -.7 -5.6 -.4 -.3 -1 -.6 -1.5 -.7 -2.1 -.6 -4.2 -1.3 -6.3 -2.1 z"/><path d="m 273.7 82.6 c 0 -33.1 -26.9 -60 -60 -60 s -60 26.9 -60 60 26.9 60 60 60 60 -26.9 60 -60 z m -84.3 -10 h -11.3 c -1.1 0 -2 -.9 -2 -2 0 -.2 0 -.4 .1 -.6 1.4 -4.2 6 -6.4 10.2 -5 2.3 .8 4.2 2.6 5 5 .3 1.1 -.2 2.2 -1.3 2.5 -.3 .1 -.5 .1 -.7 .1 z m 29 1.4 c -1.3 5.4 -6.7 8.6 -12.1 7.3 -3.6 -.9 -6.4 -3.7 -7.3 -7.3 -.2 -1.1 .5 -2.1 1.6 -2.4 h .4 15.5 c 1.1 0 2 .9 2 2 -.1 .2 -.1 .3 -.1 .4 z m 21 -1.4 h -11.3 c -1.1 0 -2 -.9 -2 -2 0 -.2 0 -.4 .1 -.6 1.4 -4.2 6 -6.4 10.2 -5 2.3 .8 4.2 2.6 5 5 .3 1.1 -.2 2.2 -1.3 2.5 -.3 .1 -.5 .1 -.7 .1 z"/></g></svg>