<svg enable-background="new 0 0 228 282.5" viewBox="0 0 228 282.5" xmlns="http://www.w3.org/2000/svg"><g fill="#fff"><path d="m 92.7 175 c -.3 -.1 -.5 -.2 -.7 -.5 -.3 -.5 -1 -.6 -1.5 -.2 -.3 .2 -.5 .6 -.4 1 l 1.2 8.8 c .1 1 1 1.7 2 1.7 h .7 c .7 0 1.3 .6 1.3 1.3 0 7.7 4.9 11.6 9.8 16.4 .2 .2 .4 .4 .6 .6 l 1.6 1.6 c .4 .4 .4 1 -.1 1.4 -.2 .2 -.4 .3 -.6 .3 h -1.6 c -.3 0 -.6 .2 -.6 .5 v .1 c 1.5 5.2 6.9 8.3 12.1 6.8 3.3 -.9 5.9 -3.5 6.8 -6.8 .1 -.3 -.1 -.6 -.4 -.7 h -1.8 c -.6 0 -1 -.5 -1 -1 0 -.2 .1 -.5 .3 -.6 l 1.6 -1.6 c .2 -.2 .4 -.4 .6 -.6 4.9 -4.8 9.8 -8.7 9.8 -16.4 0 -.7 .6 -1.3 1.3 -1.3 h .9 c 1 0 1.9 -.7 2 -1.7 l 1.2 -8.8 c .2 -.5 -.1 -1.1 -.6 -1.3 s -1.1 .1 -1.3 .6 c -.4 .6 -1.3 .7 -1.9 .3 -.3 -.2 -.5 -.5 -.5 -.9 l 2.7 -12.6 c .6 -2.7 -1.1 -5.3 -3.8 -5.8 -.3 -.1 -.7 -.1 -1 -.1 h -2.8 l 3.9 -3.9 c 0 -3.3 -2.6 -5.9 -5.9 -5.9 h -19.6 c -5.4 0 -9.8 4.4 -9.8 9.8 h -.8 c -2.7 0 -4.9 2.2 -4.9 4.9 0 .3 0 .7 .1 1 l 2.7 12.7 c -.1 .6 -.8 1.1 -1.6 .9 z m 14.8 17.8 h .1 13 c .3 0 .6 .2 .6 .5 -.3 3.1 -5.2 4.6 -7.1 4.6 s -6.8 -1.5 -7.1 -4.6 c 0 -.3 .2 -.5 .5 -.5 z"/><path d="m 77.8 236.6 l -9.5 -4.4 c -.9 -.3 -1.9 .2 -2.2 1.1 -.1 .3 -.1 .5 -.1 .8 l 3.6 43.5 c .1 1 1 1.9 2 1.9 h 7.4 v -41 c .1 -.8 -.4 -1.6 -1.2 -1.9 z"/><path d="m 161.7 231.3 c -.2 0 -.5 0 -.7 0 l -11.9 3.5 c -.9 .3 -1.5 1.1 -1.4 2.1 l .8 9.3 -22.3 -3.1 c -.3 .4 -2.1 1.9 -2.5 2.2 l -.9 .7 c -.2 .1 -.4 .1 -.5 -.1 -.1 -.1 -.1 -.3 0 -.5 l .3 -.2 c .4 -.3 .6 -.7 .6 -1.2 v -.3 c .1 -.7 0 -1.4 -.3 -2 l -2.7 -6.8 c -.2 -.6 -.8 -1 -1.4 -1.1 -.5 0 -.9 .3 -.9 .8 v .1 l .4 5.3 -9.8 -4.1 c -.4 -.2 -.9 0 -1.1 .4 s 0 .9 .4 1.2 l 6 3.6 c .1 .1 .2 .2 .1 .4 0 .1 -.2 .2 -.3 .2 l -7.6 -1.5 c -.5 -.1 -1.1 .2 -1.2 .7 v .1 c -.1 .5 .2 1.1 .7 1.2 l 7 1.9 c .1 0 .2 .2 .2 .3 s -.1 .3 -.3 .3 l -6.2 .5 c -.5 0 -.9 .5 -.9 1 -.1 .5 .3 .9 .8 1 l 7.1 .2 c .1 0 .2 .1 .2 .3 s -.1 .3 -.3 .3 l -4.7 .8 c -.4 .1 -.7 .5 -.6 .9 s .5 .8 1 .7 l 14.3 -1.4 34.1 11.2 c 1 .3 2.1 -.1 2.6 -.9 l 3.6 -26.1 c .1 -.8 -.6 -1.8 -1.7 -1.9 z"/><path d="m 164.9 217.1 c -3.3 -3.5 -11.3 -11.5 -15 -14.5 -1 -.8 -2.3 -1.2 -3.6 -1.2 l -16.1 .1 c -.4 -.1 -1.1 .3 -.9 .7 2.7 6 -1.6 17.8 -15.3 18.1 -13.6 -.2 -17.9 -12.1 -15.3 -18.1 .2 -.4 -.5 -.7 -.9 -.7 l -16.1 -.1 c -1.3 0 -2.6 .4 -3.6 1.2 -5.2 4.6 -10.2 9.4 -14.9 14.5 -.8 .9 -.6 2.3 .5 3.6 l 21.5 10.9 c 1.1 .6 1.6 .5 1.6 1.5 l .4 47.5 c .1 1.1 .9 1.9 2 2 h 49.8 c 1.1 -.1 1.9 -.9 2 -2 l .2 -23.2 -18.2 -6 -14 1.3 h -.2 c -1.4 0 -2.6 -.9 -2.9 -2.3 v -.2 c 0 -.3 0 -.5 0 -.8 -1.5 -.2 -2.6 -1.6 -2.5 -3.1 0 -.1 0 -.1 0 -.2 .1 -.8 .5 -1.5 1.1 -2 -1.3 -.6 -2 -2 -1.7 -3.4 v -.1 c .3 -1.4 1.6 -2.4 3 -2.4 -.5 -.8 -.6 -1.8 -.2 -2.7 v -.1 c .5 -1 1.5 -1.6 2.6 -1.6 .4 0 .8 .1 1.2 .2 l 6.7 2.8 -.2 -2 v -.5 c .1 -1.5 1.4 -2.6 2.9 -2.6 h .3 c 1.4 .1 2.6 1 3.1 2.3 l 2.7 6.8 c .1 .2 .1 .3 .2 .5 .3 -.3 .8 -.4 1.2 -.4 h .3 l 14.8 2.1 .1 -10 c 0 -1 .6 -1.8 1.6 -2.1 l 21.5 -10.8 c .9 -.5 1.2 -1.7 .7 -2.6 -.2 -.2 -.3 -.3 -.4 -.4 z"/><path d="m 154 60.3 h -45 c -1.4 0 -2.5 1.1 -2.5 2.5 s 1.1 2.5 2.5 2.5 h 45 c 1.4 0 2.5 -1.1 2.5 -2.5 s -1.1 -2.5 -2.5 -2.5 z"/><path d="m 129 70.3 h -20 c -1.4 0 -2.5 1.1 -2.5 2.5 s 1.1 2.5 2.5 2.5 h 20 c 1.4 0 2.5 -1.1 2.5 -2.5 s -1.1 -2.5 -2.5 -2.5 z"/><path d="m 96 61.7 c -.2 0 -.4 .1 -.5 .2 v -.1 c -.2 .3 -.6 .4 -.9 .2 -.2 -.1 -.3 -.3 -.3 -.5 l 1.3 -6.3 c .3 -1.3 -.5 -2.6 -1.8 -2.9 -.2 0 -.4 -.1 -.6 -.1 h -1.4 l 2 -2 c 0 -1.6 -1.3 -2.9 -2.9 -2.9 h -9.9 c -2.7 0 -4.9 2.2 -4.9 4.9 v .1 h -.4 c -1.4 0 -2.5 1.1 -2.5 2.4 0 .2 0 .4 .1 .6 l 1.3 6.4 c -.1 .4 -.4 .6 -.8 .5 -.2 0 -.3 -.1 -.4 -.3 -.1 -.3 -.5 -.4 -.7 -.2 -.2 .1 -.3 .4 -.3 .6 l .6 4.4 c .1 .5 .5 .9 1 .8 h .4 c .4 0 .7 .3 .7 .7 0 3.9 2.4 5.8 4.9 8.2 l .1 .1 c .6 .6 4.7 3.8 8.7 -.1 2.4 -2.4 4.9 -4.3 4.9 -8.2 0 -.4 .3 -.7 .7 -.7 h .4 c .5 0 .9 -.4 1 -.8 l .6 -4.4 c .1 -.3 -.1 -.6 -.4 -.6 z"/><path d="m 154 50.3 h -45 c -1.4 0 -2.5 1.1 -2.5 2.5 s 1.1 2.5 2.5 2.5 h 45 c 1.4 0 2.5 -1.1 2.5 -2.5 s -1.1 -2.5 -2.5 -2.5 z"/><path d="m 206.7 0 h -186.7 c -11 0 -20 9 -20 18.3 v 88.5 c 0 13.4 9.5 23 21.3 23 h 127.9 c .6 0 1 .5 .9 1.1 v .2 l -4.9 12.5 c -.4 1.1 .1 2.3 1.2 2.7 .6 .2 1.2 .2 1.7 -.1 l 26.1 -13.3 23.2 -13.6 c .6 -.4 1.4 -.3 2 .1 .7 .6 .9 1.7 .3 2.4 l -.2 .2 -7 6.6 c -.3 .2 -.3 .7 0 .9 .1 .1 .3 .2 .5 .2 h 13.8 c 11.7 0 21.2 -9.5 21.2 -23 v -87.1 c 0 -10.1 -9.5 -19.6 -21.3 -19.6 z m -35.2 90.3 c 0 2.8 -2.2 5 -5 5 h -105 c -2.8 0 -5 -2.2 -5 -5 v -55 c 0 -2.8 2.2 -5 5 -5 h 105 c 2.8 0 5 2.2 5 5 z"/></g></svg>