<svg enable-background="new 0 0 320 360" height="360" viewBox="0 0 320 360" width="320" xmlns="http://www.w3.org/2000/svg"><path d="m 227.07 279.11 c -18.73 15.19 -41.4 22.79 -68.02 22.79 s -48.58 -6.12 -65.9 -18.37 c -17.31 -12.25 -25.97 -27.56 -25.97 -45.94 0 -14.84 6.24 -29.44 18.73 -43.81 6.36 -7.3 15.43 -14.6 27.21 -21.91 l 3.18 -1.77 v -1.41 c -24.73 -12.25 -37.1 -27.32 -37.1 -45.23 0 -10.83 3.06 -20.67 9.19 -29.5 6.12 -8.83 13.9 -15.72 23.32 -20.67 18.84 -10.13 37.69 -15.2 56.54 -15.2 28.27 0 49.94 8.25 65.01 24.73 7.77 8.48 11.66 17.91 11.66 28.27 0 10.37 -4.42 20.56 -13.25 30.56 -8.83 10.02 -18.32 17.61 -28.44 22.79 -.94 .71 -1.12 1.24 -.53 1.59 s 2.88 1.53 6.89 3.53 c 4 2 7.6 3.95 10.78 5.83 3.18 1.89 7.07 4.65 11.66 8.3 4.59 3.66 8.42 7.25 11.48 10.78 7.78 9.43 11.66 19.43 11.66 30.03 -.01 21.22 -9.37 39.42 -28.1 54.61 z m -67.84 -15.01 c 13.08 0 24.03 -3.89 32.86 -11.66 8.84 -7.77 13.25 -15.6 13.25 -23.5 0 -7.89 -3.66 -15.31 -10.95 -22.26 -7.31 -6.95 -14.55 -11.95 -21.73 -15.02 -7.19 -3.06 -11.84 -4.59 -13.96 -4.59 s -6.07 1.83 -11.84 5.48 -11.84 9.36 -18.2 17.14 c -6.36 7.77 -9.54 15.55 -9.54 23.32 s 3.41 14.9 10.25 21.38 c 6.83 6.47 16.79 9.71 29.86 9.71 z m 6 -117.67 c 3.65 0 9.89 -3.71 18.73 -11.13 8.83 -7.42 13.25 -13.96 13.25 -19.61 0 -5.66 -2.89 -10.54 -8.65 -14.66 -5.78 -4.12 -13.25 -6.18 -22.44 -6.18 s -17.49 2.47 -24.91 7.42 -11.13 10.84 -11.13 17.67 4.95 12.96 14.84 18.37 c 9.89 5.42 16.66 8.12 20.31 8.12 z" fill="#fff"/></svg>