<svg enable-background="new 0 0 285 285" viewBox="0 0 285 285" xmlns="http://www.w3.org/2000/svg"><g fill="#fff"><path d="m 233.5 29.2 c -2.4 -.5 -4.7 1 -5.2 3.4 0 .1 0 .2 -.1 .3 0 .3 .1 .7 .3 .9 l 3.7 3.7 c .2 .2 .6 .4 .9 .3 2.4 -.3 4.1 -2.5 3.8 -4.9 -.2 -1.8 -1.6 -3.3 -3.4 -3.7 z"/><path d="m 228.8 65.8 c 2.7 -.1 5.3 -.5 7.9 -1 -14.2 -18.9 -14.2 -44.9 0 -63.8 -17.6 -4.4 -35.5 6.4 -39.9 24 s 6.4 35.5 24 39.9 c 2.6 .6 5.3 .9 8 .9 z m -14.1 -32.9 h 8.5 c .6 0 1.1 .5 1.1 1.1 v .2 c -.7 2.9 -3.7 4.7 -6.7 4 -2 -.5 -3.5 -2 -4 -4 -.1 -.6 .2 -1.2 .8 -1.3 z m -10 4.9 c -2.4 -.3 -4.1 -2.5 -3.8 -4.9 s 2.5 -4.1 4.9 -3.8 c 2 .3 3.5 1.8 3.8 3.8 0 .3 -.1 .7 -.3 .9 l -3.7 3.7 c -.2 .2 -.6 .4 -.9 .3 z"/><path d="m 187.7 63.1 c -6.1 .4 -10.6 5.7 -10.2 11.8 .4 5.4 4.7 9.8 10.2 10.2 h 16.4 c 6.1 .4 11.3 -4.1 11.8 -10.2 .4 -6.1 -4.1 -11.3 -10.2 -11.8 -.5 0 -1.1 0 -1.6 0 z"/><path d="m 250.7 35.6 h 16.5 c 6.1 0 11 4.9 11 11 s -4.9 11 -11 11 h -16.5 c -6.1 0 -11 -4.9 -11 -11 .1 -6 5 -11 11 -11 z"/><path d="m 165.7 49.3 h 16.4 c 4.5 .2 8.4 -3.4 8.5 -7.9 .2 -4.5 -3.4 -8.4 -7.9 -8.5 -.2 0 -.4 0 -.6 0 h -16.4 c -4.5 -.2 -8.4 3.4 -8.5 7.9 -.2 4.5 3.4 8.4 7.9 8.5 .2 .1 .4 .1 .6 0 z"/><path d="m 253.5 24.7 c .6 -1.4 1 -2.8 1.1 -4.3 1.5 -.1 3 -.5 4.3 -1.2 -1.3 -.7 -2.8 -1.1 -4.3 -1.2 -.1 -1.5 -.5 -3 -1.2 -4.3 -.7 1.3 -1.1 2.8 -1.2 4.3 -1.5 .1 -2.9 .5 -4.3 1.2 1.4 .6 2.8 1 4.3 1.2 .3 1.4 .7 2.9 1.3 4.3 z"/><path d="m 182.2 30.2 c .6 -1.4 1 -2.8 1.1 -4.3 1.5 -.1 3 -.5 4.3 -1.2 -1.3 -.7 -2.8 -1.1 -4.3 -1.2 -.1 -1.5 -.5 -3 -1.2 -4.3 -.7 1.4 -1.1 2.8 -1.2 4.3 -1.5 .1 -2.9 .5 -4.3 1.2 1.4 .6 2.8 1 4.3 1.2 .3 1.4 .7 2.9 1.3 4.3 z"/><path d="m 249.5 70.1 c -1.5 .1 -2.9 .5 -4.3 1.2 1.4 .6 2.8 1 4.3 1.2 .1 1.5 .5 3 1.1 4.3 .6 -1.4 1 -2.8 1.1 -4.3 1.5 -.1 3 -.5 4.3 -1.2 -1.3 -.7 -2.8 -1.1 -4.3 -1.2 -.1 -1.5 -.5 -3 -1.2 -4.3 -.5 1.4 -.9 2.8 -1 4.3 z"/><path d="m 192.4 152.7 c -.3 -.5 -.9 -.6 -1.4 -.3 -.3 .2 -.5 .6 -.4 1 l 1.1 8.3 c .1 .9 .9 1.6 1.8 1.6 h .8 c .7 0 1.2 .6 1.2 1.2 0 7.2 4.6 10.9 9.2 15.4 .2 .2 .4 .4 .6 .5 l 1.5 1.5 c .4 .4 .4 .9 0 1.3 -.2 .2 -.4 .3 -.6 .3 h -1.5 c -.3 0 -.5 .2 -.5 .5 v .1 c 1.4 4.9 6.5 7.7 11.4 6.4 3.1 -.9 5.5 -3.3 6.4 -6.4 .1 -.3 -.1 -.6 -.4 -.6 h -.1 -1.5 c -.5 0 -.9 -.4 -.9 -.9 0 -.2 .1 -.5 .3 -.6 l 1.5 -1.5 c .2 -.2 .4 -.3 .6 -.5 4.6 -4.5 9.2 -8.1 9.2 -15.4 0 -.7 .6 -1.2 1.2 -1.2 h .8 c .9 0 1.7 -.7 1.8 -1.6 l 1.1 -8.3 c 0 -.6 -.4 -1 -.9 -1.1 -.3 0 -.7 .1 -.9 .4 -.4 .6 -1.2 .7 -1.8 .3 -.3 -.2 -.5 -.5 -.5 -.8 l 2.5 -11.9 c .5 -2.5 -1.1 -4.9 -3.6 -5.5 -.3 -.1 -.6 -.1 -.9 -.1 h -2.6 l 3.7 -3.7 c 0 -3 -2.5 -5.5 -5.5 -5.5 h -18.4 c -5.1 0 -9.2 4.1 -9.2 9.2 h -.8 c -2.5 0 -4.6 2.1 -4.6 4.6 0 .3 0 .6 .1 .9 l 2.5 11.9 c -.2 .7 -.8 1.1 -1.5 1 -.4 -.1 -.7 -.3 -.8 -.5 z"/><path d="m 240 219.4 l 16.9 -5.3 c 2.1 -.6 4 -2.7 3 -4.7 -2.9 -6.3 -6.2 -12.3 -9.8 -18.2 -1.5 -2.3 -3.8 -4 -6.5 -4.7 l -15.4 -2.8 c -.4 -.1 -.8 .2 -.9 .6 -.5 4.4 -5.3 9.3 -11.4 10.5 h -5.7 c -6.2 -1.2 -11 -6.1 -11.5 -10.5 -.1 -.4 -.4 -.7 -.9 -.6 l -23.9 .9 c -.8 0 -1.5 .6 -1.7 1.4 l -4 17.5 c -.2 .8 .2 1.7 1 2.1 l 16.8 8.3 c .9 .3 1.5 1.1 1.5 2 l -2.5 66.1 c 0 1.4 1.1 2.6 2.6 2.7 h .1 50.8 c 1.4 0 2.6 -1.2 2.6 -2.6 0 0 0 0 0 -.1 l -2.5 -60.6 c 0 -.9 .6 -1.7 1.4 -2 z"/><path d="m 128.2 146.8 c -4.9 -1.5 -7.7 -6.6 -6.2 -11.5 .3 -.9 .6 -1.7 1.1 -2.5 .3 -.5 .1 -1.1 -.4 -1.4 s -1.1 -.1 -1.4 .4 c -3.4 5.2 -1.9 12.2 3.4 15.6 .9 .6 1.8 1 2.7 1.3 .5 .2 1.1 -.1 1.3 -.6 s 0 -1.1 -.5 -1.3 z"/><path d="m 128.8 142.2 c -2.2 -.6 -3.4 -2.9 -2.8 -5.1 .1 -.4 .3 -.8 .5 -1.2 .3 -.5 .1 -1.1 -.4 -1.4 s -1.1 -.1 -1.4 .4 c -1.8 2.9 -1 6.7 1.8 8.5 .5 .3 1 .5 1.5 .7 s 1.1 -.1 1.3 -.6 0 -1 -.5 -1.3 z"/><path d="m 156.9 135.6 c .5 .2 1.1 0 1.3 -.4 0 0 0 0 0 -.1 1.2 -2.8 1.2 -5.9 .1 -8.7 -1.4 -3.1 -4.1 -5.4 -7.4 -6.3 -.5 -.1 -1.1 .2 -1.2 .7 v .1 c -.1 .5 .2 1 .7 1.1 2.7 .7 5 2.6 6.2 5.1 1 2.3 .9 4.9 -.1 7.2 -.3 .5 -.1 1 .4 1.3 z"/><path d="m 149.4 125.2 c -.1 .5 .2 1.1 .7 1.2 2.2 .5 3.5 2.7 3 4.8 -.1 .4 -.2 .7 -.4 1.1 -.3 .5 -.2 1.1 .3 1.4 s 1.1 .2 1.4 -.3 c 0 -.1 .1 -.1 .1 -.2 1.6 -2.9 .5 -6.6 -2.4 -8.1 -.4 -.2 -.9 -.4 -1.4 -.6 -.6 -.2 -1.2 .1 -1.3 .7 z"/><path d="m 165.4 184.3 l -18.9 .2 -3.2 -35.2 c -.6 -.3 -3 -2.2 -3.5 -2.6 l -1.2 -.9 c -.2 -.2 -.3 -.5 -.1 -.7 s .5 -.3 .7 -.1 l .4 .3 c .5 .4 1.1 .5 1.7 .4 l .4 -.1 c .9 -.1 1.7 -.5 2.4 -1 l 7.8 -5.4 c .7 -.5 1 -1.3 .9 -2.1 -.1 -.6 -.6 -1.1 -1.3 -1 h -.2 l -6.6 2.1 2.5 -13.7 c .1 -.6 -.2 -1.2 -.8 -1.3 s -1.2 .2 -1.4 .8 l -2.9 8.7 c -.1 .2 -.3 .3 -.5 .3 s -.4 -.2 -.4 -.4 l -.3 -10.2 c 0 -.7 -.6 -1.3 -1.4 -1.3 h -.1 c -.7 0 -1.3 .6 -1.4 1.3 l -.4 9.5 c 0 .2 -.2 .4 -.4 .4 s -.4 -.1 -.4 -.3 l -2.4 -7.6 c -.2 -.6 -.8 -1 -1.5 -.9 h -.1 c -.6 .1 -1.1 .7 -1 1.3 v .1 l 1.8 9.1 c 0 .2 -.1 .3 -.3 .4 -.2 0 -.4 -.1 -.5 -.3 l -2.4 -5.8 c -.2 -.5 -.8 -.8 -1.3 -.5 h -.1 c -.6 .3 -.8 .9 -.6 1.5 l 5.8 17.8 -3.6 42.8 c -.1 1.3 .7 2.6 1.9 3.1 l 28.3 10.4 c 1 .5 2.3 0 2.8 -1 .1 -.1 .1 -.2 .1 -.4 l 3.7 -15.5 c .2 -1.2 -.5 -2.3 -1.7 -2.5 0 .3 -.1 .3 -.3 .3 z"/><path d="m 255.8 221.9 l -11.4 .2 c -1.8 -.2 -2.2 .7 -2 1.6 l 12.2 61.2 h 6.6 l -3 -60.6 c 0 -1.3 -1 -2.5 -2.3 -2.5 0 .1 -.1 .1 -.1 .1 z"/><path d="m 60.8 152.3 c .2 -1 -.5 -2.6 -.3 -5.8 .1 -.8 .2 -1.6 .6 -2.4 .1 -.1 .2 -.1 .2 0 .2 1 .7 2.4 1 2.5 .8 .3 1.2 -4.5 .8 -5.5 -.1 -.4 -.4 -.8 -.7 -1.1 -.3 -.2 -.4 -.6 -.4 -.9 l 8.1 -40.6 c .1 -.6 -.1 -1.2 -1.3 -1.1 l -7.3 -.2 c -.9 0 -1.6 .7 -1.6 1.5 v .1 l -2 40.7 s -.2 2.3 -.3 4.8 c -.1 1.8 -.1 4 .5 5.2 .5 1.1 1.1 2 1.8 2.9 .2 .2 .5 .2 .7 0 .1 .1 .2 0 .2 -.1 z"/><path d="m 60.9 92.7 l 10.3 3.2 c .5 .2 .9 .7 .9 1.2 l -1.5 37.1 c 0 .9 .7 1.6 1.6 1.6 h 31.2 c .9 0 1.6 -.7 1.6 -1.6 l -1.5 -40.5 c 0 -.6 .4 -1.1 .9 -1.2 l 10.3 -5.1 c .5 -.2 .7 -.8 .6 -1.3 l -2.4 -10.7 c -.1 -.5 -.5 -.9 -1.1 -.9 l -14.7 -.5 c -.3 0 -.5 .1 -.5 .4 -.3 2.7 -3.3 5.7 -7 6.4 l -1.8 5.4 -1.8 -5.4 c -3.8 -.7 -6.7 -3.7 -7 -6.4 0 -.3 -.3 -.4 -.5 -.4 l -9.5 1.7 c -1.6 .4 -3.1 1.5 -4 2.9 -2.2 3.6 -4.2 7.3 -6 11.2 -.6 1.2 .6 2.5 1.9 2.9 z"/><path d="m 143.4 47.9 c -.6 1.7 -2 2.9 -3.7 3.5 -.3 .1 -.5 .4 -.5 .8 s .4 .5 .8 .5 h .1 c 3.6 -1.1 5.7 -5 4.6 -8.6 -.2 -.6 -.5 -1.2 -.8 -1.7 -.2 -.3 -.5 -.4 -.8 -.3 -.3 .2 -.4 .5 -.3 .8 0 0 0 .1 .1 .1 .9 1.4 1.1 3.2 .5 4.9 z"/><path d="m 139.4 48.6 c -.3 .1 -.5 .4 -.5 .8 .1 .3 .4 .5 .8 .5 h .1 c 2 -.6 3.1 -2.8 2.4 -4.7 -.1 -.3 -.2 -.6 -.4 -.9 s -.6 -.3 -.9 -.1 c -.2 .2 -.3 .5 -.2 .8 .8 1.2 .5 2.7 -.7 3.5 -.2 -.1 -.4 .1 -.6 .1 z"/><path d="m 122.2 44.5 c .3 -.1 .4 -.5 .3 -.8 -.6 -1.4 -.6 -3 0 -4.4 .7 -1.6 2.1 -2.7 3.8 -3.2 .3 -.1 .5 -.4 .4 -.7 s -.4 -.5 -.7 -.5 c 0 0 0 0 -.1 0 -2 .5 -3.7 1.9 -4.6 3.8 -.7 1.7 -.7 3.6 0 5.4 .2 .4 .5 .6 .9 .4 z"/><path d="m 126 37.7 c -2 .5 -3.2 2.5 -2.7 4.4 .1 .3 .2 .6 .4 .9 s .5 .4 .8 .3 c .3 -.2 .4 -.5 .3 -.8 -.7 -1.2 -.3 -2.7 .9 -3.3 .2 -.1 .4 -.2 .7 -.3 s .5 -.4 .5 -.7 -.5 -.6 -.9 -.5 z"/><path d="m 117.9 85.5 c .2 .7 .9 1.1 1.6 .9 .1 0 .2 0 .2 -.1 l 17.3 -6.3 c .8 -.3 1.3 -1.1 1.2 -1.9 l -2.2 -26.2 3.6 -11 c .1 -.4 -.1 -.8 -.4 -.9 s -.7 0 -.8 .3 l -1.5 3.6 c -.1 .1 -.2 .2 -.3 .1 -.1 0 -.2 -.1 -.2 -.2 l 1.1 -5.6 c .1 -.4 -.2 -.7 -.6 -.8 s -.8 .2 -.9 .6 l -1.5 4.8 c 0 .1 -.2 .2 -.3 .2 s -.2 -.1 -.2 -.2 l -.3 -5.8 c 0 -.4 -.4 -.8 -.8 -.8 h -.1 c -.4 0 -.8 .4 -.8 .8 l -.2 6.2 c 0 .1 -.1 .2 -.2 .2 s -.2 -.1 -.3 -.2 l -1.8 -5.3 c -.1 -.4 -.5 -.6 -.9 -.5 s -.6 .4 -.5 .8 l 1.5 8.4 -4 -1.3 h -.1 c -.4 -.1 -.7 .2 -.8 .6 -.1 .5 .1 1 .6 1.3 l 4.8 3.3 c .4 .3 1 .5 1.5 .6 h .2 c .4 .1 .8 0 1.1 -.3 l .2 -.2 c .2 -.1 .3 0 .4 .2 v .3 l -.7 .5 c -.3 .2 -1.8 1.4 -2.1 1.6 l -2 21.5 -11.6 -.2 c -.7 0 -1.3 .6 -1.3 1.3 v .3 z"/><path d="m 115.1 224.8 s -9.6 -2.4 -11.3 -2.6 -8.8 0 -8.8 0 c -1.4 -.2 -2.6 .8 -2.8 2.2 s .8 2.6 2.2 2.8 h .6 19.9 c .7 0 1.2 -.6 1.2 -1.3 0 -.6 -.5 -1.1 -1 -1.1 z"/><path d="m 95.3 218.7 h 6.4 c .7 0 1.2 -.6 1.3 -1.2 l 1.2 -76.1 c 0 -.7 -.5 -1.3 -1.2 -1.3 h -.1 l -30.2 2.6 c -.7 .1 -1.2 .6 -1.2 1.2 l 1.2 73.5 c 0 .7 .6 1.2 1.3 1.2 h 6.4 c .7 0 1.2 -.5 1.3 -1.2 l 4.2 -60.3 c 0 -.7 .6 -1.2 1.3 -1.2 h 1.4 c .7 0 1.2 .5 1.3 1.2 l 4.3 60.3 c -.1 .8 .4 1.3 1.1 1.3 z"/><path d="m 80.5 222.1 s -7.1 -.2 -8.8 0 -11.3 2.5 -11.3 2.5 c -.4 .1 -.7 .3 -.9 .7 -.4 .6 -.3 1.4 .3 1.8 .2 .2 .5 .2 .7 .2 h 19.9 c 1.4 0 2.6 -1.1 2.6 -2.6 s -1 -2.6 -2.5 -2.6 z"/><path d="m 75.8 61.5 h .5 c .4 0 .8 .3 .8 .8 0 4.4 2.8 6.7 5.6 9.4 l .4 .3 .9 .9 c .2 .2 .3 .5 .1 .8 -.1 .2 -.3 .2 -.5 .2 h -.9 c -.2 0 -.3 .1 -.3 .3 v .1 c .8 3 4 4.7 7 3.9 1.9 -.5 3.4 -2 3.9 -3.9 0 -.2 -.1 -.3 -.2 -.4 0 0 0 0 -.1 0 h -1 c -.3 0 -.6 -.2 -.6 -.5 0 -.2 .1 -.4 .2 -.5 l .9 -.9 .4 -.3 c 2.8 -2.8 5.6 -5 5.6 -9.4 0 -.4 .3 -.8 .8 -.8 h .5 c .6 0 1.1 -.4 1.1 -1 l .7 -5.1 c 0 -.3 -.2 -.6 -.6 -.7 -.2 0 -.4 .1 -.6 .2 -.3 .3 -.7 .4 -1.1 .2 -.2 -.1 -.3 -.3 -.3 -.5 l 1.5 -7.3 c .3 -1.5 -.7 -3 -2.2 -3.3 -.1 0 -.3 0 -.4 0 h -.5 c 0 -3.1 -2.5 -5.6 -5.6 -5.6 h -11.4 c -1.9 0 -3.4 1.5 -3.4 3.4 l 2.3 2.3 h -1.6 c -1.6 0 -2.8 1.3 -2.8 2.8 0 .2 0 .4 .1 .6 l 1.6 7.3 c -.1 .4 -.4 .7 -.9 .7 -.2 0 -.4 -.1 -.5 -.3 -.2 -.3 -.6 -.3 -.8 -.2 -.3 0 -.4 .2 -.4 .4 l .7 5.1 c .1 .6 .5 1 1.1 1 z m 8.8 4.1 h 7.5 c .2 0 .3 .1 .3 .3 -.2 1.8 -3 2.6 -4.1 2.6 s -3.9 -.8 -4.1 -2.6 c .1 -.2 .2 -.3 .4 -.3 z"/><path d="m 282.5 105.1 h -169.5 c -1.4 0 -2.5 1.1 -2.5 2.5 s 1.1 2.5 2.5 2.5 h 169.5 c 1.4 0 2.5 -1.1 2.5 -2.5 s -1.1 -2.5 -2.5 -2.5 z"/><path d="m 49.6 105.1 h -47.1 c -1.4 0 -2.5 1.1 -2.5 2.5 s 1.1 2.5 2.5 2.5 h 47.1 c 1.4 0 2.5 -1.1 2.5 -2.5 s -1.1 -2.5 -2.5 -2.5 z"/></g></svg>