<svg viewBox="0 0 300 300" xmlns="http://www.w3.org/2000/svg"><g fill="#fff"><path d="m 214.84 50.11 l -103.51 92.51 c 6.15 8.06 13.12 15.68 18.29 24.38 a 73.33 73.33 0 0 1 9.48 26.73 c 1.92 13.2 -.22 28.83 -6 42.81 a 111.87 111.87 0 0 0 41.34 -8.54 45.7 45.7 0 0 1 1 -6.56 s 11.82 -39.65 54.89 -54.59 a 48.42 48.42 0 0 1 5.26 -1.26 111.89 111.89 0 0 0 -20.75 -115.48 z m -9.4 51.47 c 1.29 .27 1.87 2.69 1.3 5.39 s -2.09 4.67 -3.38 4.4 -1.87 -2.69 -1.3 -5.39 2.09 -4.68 3.38 -4.4 z m -7.19 -25.25 c 1.24 -.67 3.37 .9 4.75 3.49 s 1.5 5.23 .26 5.89 -3.36 -.9 -4.75 -3.49 -1.51 -5.22 -.26 -5.89 z m -55.2 87.6 c -1.39 2.34 -3.42 3.7 -4.53 3 s -.91 -3.09 .48 -5.43 3.41 -3.7 4.53 -3 .9 3.1 -.48 5.43 z m 7.34 -26.72 c -.57 1.28 -3.22 1.34 -5.9 .14 s -4.39 -3.23 -3.81 -4.51 3.22 -1.35 5.9 -.14 4.42 3.23 3.81 4.51 z m 5.83 56.72 c -1.36 .22 -2.83 -1.92 -3.29 -4.77 s .28 -5.33 1.64 -5.55 2.84 1.91 3.29 4.76 -.27 5.34 -1.64 5.56 z m 11.55 -89.62 c .09 -1.37 2.49 -2.33 5.35 -2.14 s 5.12 1.44 5 2.82 -2.49 2.33 -5.36 2.14 -5.08 -1.45 -4.99 -2.82 z m 3.73 31 c .61 -1.27 3.25 -1.25 5.9 0 s 4.3 3.35 3.68 4.62 -3.25 1.25 -5.9 0 -4.3 -3.39 -3.68 -4.65 z m 7.06 67.25 c -.56 3 -2.2 5.27 -3.65 5 s -2.17 -2.95 -1.6 -6 2.2 -5.28 3.65 -5 2.16 2.93 1.6 5.97 z m 2.68 -23.32 c -1.24 .66 -3.36 -.91 -4.75 -3.5 s -1.5 -5.23 -.26 -5.89 3.37 .9 4.75 3.49 1.5 5.2 .26 5.87 z m 15.59 -51.24 c .56 -1.38 3.36 -1.53 6.23 -.34 s 4.75 3.26 4.18 4.64 -3.36 1.52 -6.23 .34 -4.75 -3.28 -4.18 -4.64 z m 9.63 26 c -2.55 1 -5 .84 -5.49 -.37 s 1.19 -3 3.73 -4 5 -.85 5.49 .37 -1.19 3 -3.73 4 z m 25.54 -23.67 c -1.13 .47 -2.84 -1.05 -3.84 -3.4 s -.88 -4.65 .24 -5.12 2.84 1 3.84 3.4 .92 4.64 -.24 5.12 z" opacity=".7"/><path d="m 251.77 26.58 l -12.11 -13.58 -7.21 6.45 -3.13 17.69 7.21 -6.45 a 140.93 140.93 0 0 1 28.58 138.74 c 4.06 1.8 7.91 3.87 11.49 5.8 a 141 141 0 0 0 -24.83 -148.65 z" opacity=".15"/><path d="m 217.97 32.42 l 14.48 -12.94 -3.13 17.69 -14.48 12.94 z" opacity=".4"/><path d="m 45.91 269.63 c -.83 -4.18 1.28 -8.47 4.23 -11.55 6.21 -6.48 15.51 -8.67 23.61 -12.56 a 58.46 58.46 0 0 0 31.6 -40.92 c 3.47 -17.89 -1.72 -36.35 -8.91 -53.1 a 223.32 223.32 0 0 0 -15.25 -29.32 c -3 -4.78 -6.13 -9.55 -7.57 -15 -1.31 -5 -1.09 -10.19 -.61 -15.3 .31 -3.15 .79 -6.43 2.31 -9.14 -11.31 -3.48 -25.45 -1.22 -31.87 8 -3.54 5.1 -5 11.32 -6.14 17.42 -2.45 13.18 -3.8 26.84 -10.31 38.54 -3.23 5.81 -7.62 10.89 -11.24 16.47 a 103.45 103.45 0 0 0 -7.93 15.24 c -3.33 7.79 -6.17 15.87 -7.3 24.27 a 61.37 61.37 0 0 0 9.36 41.46 c 8.33 12.64 21.85 22.1 36.56 27.25 a 10.91 10.91 0 0 1 -.54 -1.76 z"/><path d="m 105 133.42 a 103.99 103.99 0 0 0 6.37 9.2 l 103.47 -92.51 3.16 -17.69 z" opacity=".6"/><path d="m 129.62 167 c -8.81 -14.82 -22.83 -26.48 -29.14 -42.52 -4.54 -11.55 -5 -25.16 -13.24 -34.46 a 26.01 26.01 0 0 0 -11.92 -7.25 c -1.52 2.71 -2 6 -2.31 9.14 -.48 5.11 -.7 10.34 .61 15.3 1.44 5.42 4.62 10.19 7.57 15 a 223.45 223.45 0 0 1 15.25 29.29 c 7.19 16.75 12.38 35.21 8.91 53.1 a 58.46 58.46 0 0 1 -31.6 40.92 c -8.1 3.89 -17.4 6.08 -23.61 12.56 -3 3.08 -5.06 7.37 -4.23 11.55 a 10.91 10.91 0 0 0 .54 1.76 75.93 75.93 0 0 0 25.55 4.38 c 9 -.08 18.08 -.7 26.64 -3.47 29.68 -9.63 44.69 -49.87 40.5 -78.57 a 73.34 73.34 0 0 0 -9.52 -26.73 z" opacity=".9"/><path d="m 113 42.64 s -15.9 1.49 -24.27 5.18 c -7.63 3.36 -18.1 9.3 -22.94 12.11 l -.23 -1.44 c -.28 -1.59 -.61 -3.17 -1 -4.73 a 32.02 32.02 0 0 0 -1.56 -4.64 1.53 1.53 0 0 0 -2.93 .47 56.65 56.65 0 0 0 .1 9.58 l .37 4.74 .41 4.72 c .31 3.14 .64 6.27 .9 9.38 .1 1.11 .22 2.22 .34 3.32 a 36.17 36.17 0 0 1 5.1 0 c .09 -1.18 .12 -2.37 .13 -3.55 0 -3.26 -.18 -6.49 -.49 -9.71 -.15 -1.6 -.38 -3.2 -.58 -4.8 l -.09 -.53 c 5.92 2.1 19.07 5.75 28.74 .9 12.81 -6.47 18 -20.95 18 -20.95 z" opacity=".5"/><path d="m 65.55 58.49 l .23 1.44 .82 -.48 .17 -.1 1 -.56 .15 -.08 .94 -.54 .25 -.14 1.13 -.64 .24 -.14 1 -.56 .34 -.19 1.25 -.7 .23 -.12 1.1 -.6 .39 -.22 1.34 -.73 .19 -.1 1.22 -.65 .39 -.21 1.38 -.73 .2 -.1 1.23 -.65 .4 -.2 1.4 -.72 .12 -.05 1.34 -.72 .36 -.18 1.38 -.67 1.31 -.61 .33 -.15 c .44 -.21 .88 -.4 1.31 -.59 .58 -.26 1.21 -.5 1.86 -.74 .37 -.14 .76 -.27 1.15 -.4 l .8 -.26 .92 -.27 1.3 -.36 q .94 -.26 1.92 -.48 l 1 -.22 1.19 -.27 h .26 l .23 -.05 c 1.06 -.22 2.12 -.42 3.14 -.6 l 1.2 -.21 c 1.38 -.23 2.7 -.43 3.87 -.6 l 1 -.13 c 1.94 -.26 3.42 -.42 4.1 -.49 h .37 c -.78 -.7 -10.37 -9 -26.76 -3.6 -11.47 3.78 -18 12.58 -21 18 a 12.26 12.26 0 0 1 .31 1.37 z" opacity=".25"/><path d="m 179.82 262.39 a 26.57 26.57 0 0 1 6 .69 c 7.39 1.73 14.21 5.62 21.73 6.68 8.05 1.13 16.17 -1.09 23.9 -3.62 6.5 -2.13 13 -4.51 18.81 -8 8.69 -5.23 15.71 -12.77 22.6 -20.21 8.38 -9 17.24 -19.19 17.77 -31.5 .14 -3.29 -.34 -6.61 .07 -9.87 a 11.47 11.47 0 0 1 3.05 -6.75 12.98 12.98 0 0 1 .68 -4.37 5 5 0 0 0 -.69 -5.19 c -3.4 -2.59 -8.51 -.39 -12.33 -2.37 -10.27 -5.34 -23.59 -13.88 -37.59 -13.18 a 55.04 55.04 0 0 0 -13.5 2.15 c -43.07 14.94 -54.89 54.59 -54.89 54.59 a 42.8 42.8 0 0 0 -1.13 9.56 v .39 a 55.2 55.2 0 0 0 3.12 18.71 44.08 44.08 0 0 1 2.38 12.33 z"/><path d="m 300 218.43 a 55.75 55.75 0 0 0 -5 -23.11 13.76 13.76 0 0 1 -1.23 -5.55 11.47 11.47 0 0 0 -3.05 6.75 c -.41 3.26 .07 6.58 -.07 9.87 -.53 12.31 -9.39 22.46 -17.77 31.5 -6.89 7.44 -13.91 15 -22.6 20.21 a 88.47 88.47 0 0 1 -18.81 8 c -7.73 2.53 -15.85 4.75 -23.9 3.62 -7.52 -1.06 -14.34 -4.95 -21.73 -6.68 a 26.57 26.57 0 0 0 -6 -.69 55.73 55.73 0 0 1 0 6.59 9.52 9.52 0 0 0 8.09 10 10.11 10.11 0 0 0 1.64 .1 40.82 40.82 0 0 1 17.57 3.09 55.14 55.14 0 0 0 22.75 4.87 h .59 c 30.97 -.07 69.52 -37.6 69.52 -68.57 z" opacity=".9"/><path d="m 236.53 30.72 l -7.21 6.45 a 131.27 131.27 0 0 1 26.7 129 65.83 65.83 0 0 1 9.09 3.32 140.94 140.94 0 0 0 -28.58 -138.77 z" opacity=".25"/><path d="m 176.74 247.93 a 131.57 131.57 0 0 1 -54.79 7.7 c .22 -.27 .42 -.56 .64 -.84 a 57.72 57.72 0 0 1 -9.54 9.65 141.34 141.34 0 0 0 66.23 -7.13 42.52 42.52 0 0 0 -1.84 -7.25 c -.25 -.7 -.44 -1.41 -.7 -2.13 z" opacity=".3"/><path d="m 174.31 231 c 0 -1 .05 -2 .13 -3 a 111.87 111.87 0 0 1 -41.31 8.58 c .21 -.53 .42 -1.06 .62 -1.59 a 76.82 76.82 0 0 1 -11.75 20.64 131.57 131.57 0 0 0 54.79 -7.7 55.05 55.05 0 0 1 -2.42 -16.58 .99 .99 0 0 1 -.06 -.35 z" opacity=".4"/><path d="m 229.32 37.17 l -14.48 12.94 a 111.89 111.89 0 0 1 20.75 115.44 63.82 63.82 0 0 1 8.24 -.89 38.52 38.52 0 0 1 12.19 1.5 131.26 131.26 0 0 0 -26.7 -128.99 z" opacity=".5"/><ellipse cx="204.4" cy="106.48" opacity=".15" rx="5" ry="2.39" transform="matrix(.20774097 -.97818387 .97818387 .20774097 57.78 284.3)"/><ellipse cx="202.04" cy="130.13" opacity=".15" rx="2.69" ry="5.63" transform="matrix(.38123173 -.92447951 .92447951 .38123173 4.71 267.3)"/><ellipse cx="176.29" cy="137.6" opacity=".15" rx="2.55" ry="5.33" transform="matrix(.43648776 -.8997102 .8997102 .43648776 -24.46 236.15)"/><ellipse cx="141.02" cy="162.73" opacity=".15" rx="4.92" ry="2.35" transform="matrix(.50904142 -.86074203 .86074203 .50904142 -70.83 201.28)"/><ellipse cx="172.95" cy="104.64" opacity=".15" rx="2.49" ry="5.2" transform="matrix(.06453231 -.99791562 .99791562 .06453231 57.37 270.48)"/><ellipse cx="145.54" cy="135.03" opacity=".15" rx="2.55" ry="5.33" transform="matrix(.4102414 -.91197697 .91197697 .4102414 -37.31 212.36)"/><ellipse cx="205.59" cy="151.75" opacity=".15" rx="4.96" ry="2.37" transform="matrix(.92906802 -.36990892 .36990892 .92906802 -41.55 86.81)"/><ellipse cx="178.74" cy="174.52" opacity=".15" rx="2.54" ry="5.32" transform="matrix(.88220906 -.47085791 .47085791 .88220906 -61.12 104.72)"/><ellipse cx="200.76" cy="81.03" opacity=".15" rx="2.54" ry="5.32" transform="matrix(.88220906 -.47085791 .47085791 .88220906 -14.5 104.07)"/><ellipse cx="230.24" cy="126.08" opacity=".15" rx="2.21" ry="4.62" transform="matrix(.92132118 -.38880237 .38880237 .92132118 -30.91 99.44)"/><ellipse cx="175.93" cy="202.04" opacity=".15" rx="5.59" ry="2.67" transform="matrix(.18292192 -.98312744 .98312744 .18292192 -54.88 338.04)"/><ellipse cx="155.39" cy="188.77" opacity=".15" rx="2.5" ry="5.22" transform="matrix(.98738619 -.1583304 .1583304 .98738619 -27.93 26.98)"/></g></svg>