<svg viewBox="0 0 300 300" xmlns="http://www.w3.org/2000/svg"><g fill="#fff"><path d="m 186.14 235.6 a 188.18 188.18 0 0 1 -11 30.25 c -6.53 15.31 -13.49 26.75 -16 33.25 19.54 -4.78 36 -23.33 40 -49 .06 -.38 .13 -.77 .19 -1.16 v -.19 a 73.11 73.11 0 0 1 -13.19 -13.15 z" opacity=".5"/><path d="m 100.83 81.7 c -.14 -.53 -.27 -1.07 -.4 -1.6 -.05 -.24 -.1 -.48 -.16 -.72 -.12 -.55 -.24 -1.1 -.35 -1.65 l -.12 -.64 c -.11 -.56 -.22 -1.12 -.31 -1.68 l -.09 -.57 c -.1 -.57 -.19 -1.14 -.27 -1.7 a 1.29 1.29 0 0 0 -.07 -.51 c -.08 -.57 -.16 -1.14 -.22 -1.7 v -.43 c -.07 -.58 -.13 -1.15 -.19 -1.72 v -.34 c 0 -.58 -.1 -1.16 -.15 -1.72 v -.3 c 0 -.57 -.08 -1.13 -.11 -1.68 a 2.09 2.09 0 0 0 0 -.25 c 0 -.56 -.06 -1.11 -.08 -1.64 v -3.44 c 0 -2.67 0 -4.85 .08 -6.38 a 2.45 2.45 0 0 1 3.08 -2.35 19.51 19.51 0 0 0 5.46 .85 15.93 15.93 0 0 0 2.09 -.09 16.42 16.42 0 0 0 3.77 -.81 10.66 10.66 0 0 0 2.94 -1.5 c .2 -.15 .39 -.31 .57 -.47 s .31 -.29 .46 -.44 l .73 -.71 .28 -.28 .87 -.9 c 1.49 -1.56 3.13 -3.36 4.89 -5.21 l 1.16 -1.2 .26 -.27 c .35 -.36 .71 -.71 1.07 -1.06 l .39 -.39 1 -1 .48 -.45 1 -.89 .52 -.46 c .33 -.28 .66 -.54 1 -.81 s .38 -.32 .57 -.46 .66 -.49 1 -.74 l .6 -.44 c .34 -.23 .67 -.44 1 -.65 s .4 -.27 .61 -.39 .69 -.39 1 -.57 l .6 -.33 c .37 -.19 .75 -.34 1.12 -.5 l .54 -.23 a 14.77 14.77 0 0 1 1.67 -.54 15 15 0 0 1 7.58 -1.14 c 6 .67 15.62 19.38 18.16 23.06 a 2.31 2.31 0 0 0 .9 .58 c 1.74 -.1 3.49 1.46 4.74 3.94 -1.5 -7.47 -4.25 -17.81 -3.3 -21.18 3.47 -12.33 -5.39 -21.61 -14.79 -18.91 a 16 16 0 0 1 -7.86 .3 c -8.41 -2.92 -12.35 -13.13 -21.17 -14.75 -15.54 -2.64 -28.73 11.84 -32.03 26.26 a 27.38 27.38 0 0 0 -.12 9 4.61 4.61 0 0 1 -2 4.45 c -2.61 1.82 -5.9 6 -3.41 15 2.26 8.22 12.68 23.05 15.57 27.07 l -.32 -.58 a 1.91 1.91 0 0 0 -.13 -.51 3.47 3.47 0 0 0 -.11 -.63 z" opacity=".3"/><path d="m 165.69 52.14 a 2.31 2.31 0 0 1 -.9 -.58 c -2.54 -3.68 -12.21 -22.39 -18.16 -23.06 a 15 15 0 0 0 -7.58 1.14 14.77 14.77 0 0 0 -1.67 .54 l -.54 .23 c -.37 .16 -.75 .31 -1.12 .5 l -.6 .33 a 8.7 8.7 0 0 0 -1 .57 c -.3 .21 -.41 .26 -.61 .39 s -.67 .42 -1 .65 l -.6 .44 c -.33 .24 -.66 .48 -1 .74 s -.38 .3 -.57 .46 -.67 .53 -1 .81 l -.52 .46 -1 .89 -.48 .45 -1 1 -.39 .39 c -.36 .35 -.72 .7 -1.07 1.06 l -.26 .27 -1.22 1.18 c -1.76 1.85 -3.4 3.65 -4.89 5.21 l -.87 .9 -.28 .28 -.73 .71 -.3 .29 c 4.08 3.21 8.23 8.33 10 17.24 .12 .59 .23 1.2 .32 1.83 .59 3.81 .91 7.67 1.86 11.41 .41 1.63 1.2 3.42 2.8 3.91 s 3.35 -.5 4.89 .09 a 4.57 4.57 0 0 1 2 1.86 20.76 20.76 0 0 1 1.63 3 c .32 .7 .63 1.43 .91 2.19 l .25 -.08 a 17.41 17.41 0 0 0 4.91 -2.8 l 2.37 -2 c .8 -.68 1.66 -1.47 2.54 -2.09 l .34 -.24 a 1.88 1.88 0 0 1 2.85 1.77 11.41 11.41 0 0 1 -1.23 4 14.56 14.56 0 0 1 -2.31 3.38 17.99 17.99 0 0 1 -7 4.9 l -.82 .28 a 34.6 34.6 0 0 1 .67 5.11 c .14 3.09 -.44 9.24 -.44 9.24 s 14.39 -1.93 25 -18.59 a 35.38 35.38 0 0 0 -.94 6.58 c .32 -2.83 .88 -5.77 1.57 -9 1.34 -6.15 2.27 -12.89 .66 -20.7 a 4.89 4.89 0 0 1 .83 -1.81 9.44 9.44 0 0 0 2.01 -6.49 17.7 17.7 0 0 0 -1.59 -5.51 v .21 c -1.23 -2.48 -2.98 -4.08 -4.72 -3.94 z m -25.6 11.46 c -.83 .38 -2.19 -.83 -3 -2.7 s -.87 -3.69 -.05 -4.07 2.19 .84 3 2.71 .87 3.69 .05 4.06 z m 2 -15.37 a .92 .92 0 0 1 -.55 .57 15.88 15.88 0 0 1 -3.11 .72 l -3.08 .43 -3.1 .35 a 13.16 13.16 0 0 1 -3.21 0 .85 .85 0 0 1 -.38 -1.52 9.36 9.36 0 0 1 3.05 -1.37 27.75 27.75 0 0 1 3.23 -.67 26.01 26.01 0 0 1 3.3 -.21 10.69 10.69 0 0 1 3.3 .47 .93 .93 0 0 1 .58 1.18 .41 .41 0 0 1 -.02 .05 z"/><path d="m 226.34 151.73 c -7.3 -12.55 -16.86 -15.16 -25.12 -17.15 a 20.02 20.02 0 0 0 -2.94 -.48 v -.09 l -15 -1.86 a 14.76 14.76 0 0 1 -11.18 -7.55 54.21 54.21 0 0 0 -3.16 -9.81 29 29 0 0 1 -2 -14.16 25.03 25.03 0 0 1 -.39 2.51 48.62 48.62 0 0 1 -8.34 13.28 54.61 54.61 0 0 1 -21.77 14.87 v -.62 c -2.14 3.64 -4.31 8.44 -18.06 7.47 -13.22 -.93 -19.27 7.34 -27.39 14 -17.84 14.57 -25.47 15.36 -25.47 15.36 a 42.8 42.8 0 0 0 3.76 10.5 58.47 58.47 0 0 0 14.23 18.1 c 3.1 -.53 16.5 -3.87 16.5 -3.87 l 2.78 -.87 c .66 -.2 1.33 -.39 2 -.57 4.76 -1.24 9.71 -1.88 14.34 -3.53 a 46.1 46.1 0 0 0 8.63 -4.39 c 3 -1.87 6.28 -3.3 7.93 -6.65 1.42 -2.87 1.27 -6.27 2.8 -9.11 a 11.23 11.23 0 0 1 2.69 -3.21 c -3.34 -9.45 -3.18 -15.41 -1.39 -18.86 2.47 -4.77 8 -4.78 11.62 -2.69 a 34.58 34.58 0 0 1 5.21 5.06 51.84 51.84 0 0 1 4.37 5.4 69.21 69.21 0 0 1 4.13 7.41 c .1 .19 .19 .39 .29 .59 l .45 -.34 a 54.55 54.55 0 0 1 6.28 -3.52 c -.3 -1.52 0 -2.63 1.75 -2.2 a 3.48 3.48 0 0 1 1.35 .73 17.31 17.31 0 0 1 3.37 -1.22 10.01 10.01 0 0 1 3.73 .16 c 5 1.16 9.11 6.25 3.3 16.27 -.2 .34 -.42 .7 -.65 1.05 l -.46 .74 c -.26 .39 -.54 .79 -.83 1.19 a 19.48 19.48 0 0 0 -.43 4.87 c .26 3.19 2.14 5.5 4 7.9 .31 .39 .62 .79 .92 1.19 a 59.27 59.27 0 0 0 3.84 4.69 32.76 32.76 0 0 0 2.58 2.57 c 1.09 .95 2.25 1.84 3.43 2.68 3.38 2.42 7 4.53 10.26 7.14 l 2.27 1.82 s 7.95 5.69 12.07 8.46 a 63 63 0 0 0 15.52 -12 70.82 70.82 0 0 0 9.66 -12.5 s -9.06 -17.44 -21.48 -38.76 z"/><path d="m 168.09 193.71 a 32.79 32.79 0 0 0 -4.35 -3.9 c -7.22 2.55 -15.09 3.88 -19.47 6.1 -10 5 -14.34 26.8 -43.5 37.78 -2.39 22.95 -3 41.94 .74 46.81 s 17.19 11.41 32.87 17.16 a 42.13 42.13 0 0 0 24.79 1.44 c 2.68 -7 9.48 -18.86 16 -33.25 a 188.18 188.18 0 0 0 11 -30.25 l -.81 -1.08 c -12.79 -17.42 -11.08 -33.84 -17.27 -40.81 z"/><path d="m 142.94 111.34 s .58 -6.15 .44 -9.24 a 34.6 34.6 0 0 0 -.67 -5.11 16.42 16.42 0 0 1 -7.82 .55 8.34 8.34 0 0 1 -2.06 -.48 c -.66 -.22 -1.3 -.48 -1.94 -.75 a 15.9 15.9 0 0 1 -3.35 -2.26 2.08 2.08 0 0 1 1.26 -3.65 h .44 a 28.31 28.31 0 0 1 3.33 .24 c 1.05 0 2 .22 3 .12 a 12.82 12.82 0 0 0 5.12 -.83 c -.28 -.76 -.59 -1.49 -.91 -2.19 a 20.76 20.76 0 0 0 -1.63 -3 4.57 4.57 0 0 0 -2 -1.86 c -1.54 -.59 -3.31 .39 -4.89 -.09 s -2.39 -2.28 -2.8 -3.91 c -1 -3.74 -1.27 -7.6 -1.86 -11.41 -.09 -.63 -.2 -1.24 -.32 -1.83 -1.78 -8.91 -5.93 -14 -10 -17.24 l -.16 .15 c -.18 .16 -.37 .32 -.57 .47 a 10.66 10.66 0 0 1 -2.94 1.5 16.43 16.43 0 0 1 -3.77 .81 c -.68 .06 -1.37 .09 -2.09 .09 a 19.51 19.51 0 0 1 -5.46 -.85 2.45 2.45 0 0 0 -3.09 2.43 c 0 1.53 -.1 3.71 -.08 6.38 v 3.47 a 11.47 11.47 0 0 0 .08 1.64 2.09 2.09 0 0 1 0 .25 c 0 .55 .07 1.11 .11 1.68 v .3 c 0 .56 .1 1.14 .15 1.72 v .34 c .06 .57 .12 1.14 .19 1.72 v .43 c .06 .56 .14 1.13 .22 1.7 a 1.29 1.29 0 0 0 .07 .51 c .08 .56 .17 1.13 .27 1.7 l .09 .57 c .09 .56 .2 1.12 .31 1.68 l .12 .64 c .11 .55 .23 1.1 .35 1.65 .06 .24 .11 .48 .16 .72 .13 .53 .26 1.07 .4 1.6 a 3.09 3.09 0 0 0 .16 .65 c 1.7 3.08 6.18 11.15 7.89 13.47 6 8.11 13.43 12.58 21.65 16 3.6 1.5 5.62 14 5.81 18.86 v .62 a 54.61 54.61 0 0 0 21.77 -14.87 48.62 48.62 0 0 0 8.34 -13.28 25.32 25.32 0 0 0 .39 -2.51 11.63 11.63 0 0 1 .12 -1.3 35.38 35.38 0 0 1 .94 -6.58 c -10.38 16.65 -24.77 18.58 -24.77 18.58 z m -29.37 -52.21 l -2.44 1.94 a 15.82 15.82 0 0 1 -2.67 1.75 .92 .92 0 0 1 -1.24 -.41 v -.01 a 1 1 0 0 1 0 -.81 10.36 10.36 0 0 1 1.94 -2.71 27.25 27.25 0 0 1 2.43 -2.24 25.65 25.65 0 0 1 2.72 -1.87 9.28 9.28 0 0 1 3.09 -1.27 .84 .84 0 0 1 .99 .65 l .01 .03 a .83 .83 0 0 1 -.14 .65 13.26 13.26 0 0 1 -2.26 2.3 z m 6.68 13.09 c -.83 .38 -2.19 -.83 -3 -2.7 s -.87 -3.69 0 -4.07 2.19 .84 3 2.71 .82 3.69 0 4.06 z" opacity=".8"/><path d="m 118.21 54.84 a .83 .83 0 0 0 .14 -.65 .84 .84 0 0 0 -.97 -.69 l -.03 .01 a 9.28 9.28 0 0 0 -3.09 1.27 25.65 25.65 0 0 0 -2.72 1.87 27.25 27.25 0 0 0 -2.43 2.24 10.36 10.36 0 0 0 -1.94 2.71 1 1 0 0 0 0 .81 .92 .92 0 0 0 1.23 .43 l .01 -.01 a 15.82 15.82 0 0 0 2.67 -1.75 l 2.44 -1.94 2.39 -2 a 13.24 13.24 0 0 0 2.3 -2.3 z" opacity=".15"/><path d="m 141.52 47.05 a 10.69 10.69 0 0 0 -3.3 -.47 26.01 26.01 0 0 0 -3.3 .21 27.75 27.75 0 0 0 -3.23 .67 9.36 9.36 0 0 0 -3.05 1.37 .85 .85 0 0 0 .38 1.52 13.16 13.16 0 0 0 3.21 0 l 3.1 -.35 3.08 -.43 a 15.88 15.88 0 0 0 3.11 -.72 .92 .92 0 0 0 .55 -.57 .93 .93 0 0 0 -.51 -1.21 z" opacity=".15"/><path d="m 256.14 238.21 a 32.54 32.54 0 0 0 -7.32 -19.83 115.51 115.51 0 0 1 -9.35 -13.15 c -.44 -.72 -.87 -1.46 -1.29 -2.19 a 63 63 0 0 1 -15.52 12 c -4.12 -2.77 -12.07 -8.46 -12.07 -8.46 l -2.27 -1.82 c -3.24 -2.61 -6.88 -4.72 -10.26 -7.14 -1.18 -.84 -2.34 -1.73 -3.43 -2.68 a 32.76 32.76 0 0 1 -2.58 -2.57 59.27 59.27 0 0 1 -3.84 -4.69 c -.3 -.4 -.61 -.8 -.92 -1.19 -1.87 -2.4 -3.75 -4.71 -4 -7.9 a 19.48 19.48 0 0 1 .43 -4.87 c .29 -.4 .57 -.8 .83 -1.19 l .46 -.74 c .23 -.35 .45 -.71 .65 -1.05 5.81 -10 1.68 -15.11 -3.3 -16.27 a 10.01 10.01 0 0 0 -3.73 -.16 17.31 17.31 0 0 0 -3.37 1.22 3.48 3.48 0 0 0 -1.35 -.73 c -1.76 -.43 -2.05 .68 -1.75 2.2 a 54.55 54.55 0 0 0 -6.28 3.52 l -.45 .34 c -.1 -.2 -.19 -.4 -.29 -.59 a 69.21 69.21 0 0 0 -4.13 -7.41 51.71 51.71 0 0 0 -4.37 -5.4 34.58 34.58 0 0 0 -5.21 -5.06 c -3.61 -2.09 -9.15 -2.08 -11.62 2.69 -1.79 3.45 -2 9.41 1.39 18.86 a 11.23 11.23 0 0 0 -2.69 3.21 c -1.53 2.84 -1.38 6.24 -2.8 9.11 -1.65 3.35 -4.9 4.78 -7.93 6.65 a 46.1 46.1 0 0 1 -8.63 4.39 c -4.63 1.65 -9.58 2.29 -14.34 3.53 -.67 .18 -1.34 .37 -2 .57 l -2.78 .87 s -13.4 3.34 -16.5 3.87 a 58.45 58.45 0 0 1 -14.25 -18.15 l -.82 .33 c -1.6 2.21 -3.2 4.42 -4.9 6.52 a 114.23 114.23 0 0 1 -10.91 11.88 36.88 36.88 0 0 0 -5.76 7.4 20.86 20.86 0 0 0 -6.62 10.65 17.77 17.77 0 0 0 4.73 17.22 23 23 0 0 0 14.44 6.8 s 7.58 1.09 10.11 .94 c 12.85 -.76 23 -3 31.27 -6.09 29.16 -11 33.55 -32.74 43.5 -37.78 4.38 -2.22 12.25 -3.55 19.47 -6.1 a 32.79 32.79 0 0 1 4.35 3.9 c 6.19 7 4.48 23.39 17.24 40.81 l .81 1.08 a 73.1 73.1 0 0 0 13.29 13.2 114.08 114.08 0 0 0 22.04 13.24 c 2.3 1.07 9.75 2.83 9.75 2.83 a 22.92 22.92 0 0 0 15.92 -1 17.77 17.77 0 0 0 10.68 -14.3 20.73 20.73 0 0 0 -1.73 -11.32 z m -72.64 -71.37 l .11 .38 c -.05 -.16 -.11 -.31 -.17 -.47 z" opacity=".8"/><path d="m 153.7 83.16 a 1.86 1.86 0 0 0 -2.59 -.47 l -.02 .02 -.34 .24 c -.88 .62 -1.74 1.41 -2.54 2.09 l -2.37 2 a 17.41 17.41 0 0 1 -4.91 2.8 l -.25 .08 a 12.82 12.82 0 0 1 -5.12 .83 c -1 .1 -1.94 -.15 -3 -.12 a 28.31 28.31 0 0 0 -3.33 -.24 h -.44 a 2.08 2.08 0 0 0 -1.26 3.65 15.9 15.9 0 0 0 3.35 2.26 c .64 .27 1.28 .53 1.94 .75 a 8.34 8.34 0 0 0 2.06 .48 16.42 16.42 0 0 0 7.82 -.55 l .82 -.28 a 17.99 17.99 0 0 0 7 -4.9 14.56 14.56 0 0 0 2.31 -3.38 11.41 11.41 0 0 0 1.23 -4 1.87 1.87 0 0 0 -.36 -1.26 z m -12.36 8.63 l -.27 -.82 z" opacity=".15"/><path d="m 137 56.83 c -.82 .38 -.8 2.2 .05 4.07 s 2.21 3.08 3 2.7 .8 -2.19 -.05 -4.06 -2.17 -3.08 -3 -2.71 z" opacity=".15"/><path d="m 117.16 65.45 c -.82 .38 -.8 2.2 0 4.07 s 2.21 3.08 3 2.7 .8 -2.19 0 -4.06 -2.16 -3.08 -3 -2.71 z" opacity=".15"/></g></svg>