<svg enable-background="new 0 0 851.881897 851.9033203" viewBox="0 0 851.88 851.9" xmlns="http://www.w3.org/2000/svg"><g fill="#fff"><path d="m 610.97 601.01 l 1.26 -6.81 5.05 3.22 c 5.12 3.26 11.94 3.82 18.7 1.54 11.21 -3.78 18.98 -14.54 17.31 -23.97 l -1.65 -9.38 7.39 3.15 c 9.83 4.19 22.09 -3.6 28.54 -18.13 5.2 -11.71 5.45 -25.15 .66 -34.24 l -7.46 -14.13 12.77 6.18 c .93 .45 1.69 .76 2.42 .97 5.31 1.59 10.88 .24 15.7 -3.77 4.96 -4.13 8.51 -10.57 10.01 -18.13 2.44 -12.28 -1.32 -25.08 -9.14 -31.1 l -9.86 -7.6 11.5 -2.28 c 11.24 -2.22 19.71 -17.9 19.71 -36.45 0 -14.02 -4.8 -26.64 -12.52 -32.94 l -4.04 -3.3 3.08 -4.61 c 5.31 -7.96 8.34 -19.3 8.34 -31.12 0 -22.99 -11.04 -41.69 -24.6 -41.69 -1.26 0 -2.59 .2 -4.05 .62 l -9.19 2.62 4.28 -10.32 c 2.42 -5.85 3.7 -12.47 3.7 -19.16 0 -22.09 -13.64 -40.05 -30.4 -40.05 -3.88 0 -7.68 .97 -11.31 2.89 l -9.48 5.01 3.62 -11.85 c 4.25 -13.92 -.08 -36.66 -13.31 -48.33 -13.18 -11.63 -30.88 -8.18 -40.38 1.86 l -10.23 10.81 3.08 -16.13 c .48 -2.51 .72 -5.04 .72 -7.52 0 -19.97 -14.64 -36.21 -32.64 -36.21 -13.2 0 -25.01 8.73 -30.12 22.25 l -5.01 13.29 -3.2 -14.11 c -3.4 -14.96 -14.35 -25.4 -26.63 -25.4 -13.67 0 -25.44 12.92 -27.4 30.06 l -1.18 10.35 -6.19 -7.19 c -4.93 -5.73 -11.2 -8.89 -17.63 -8.89 -15.04 0 -27.29 16.73 -27.29 37.31 0 1.84 .13 3.83 .39 6.05 l 1.61 13.45 -8.69 -8.45 c -3.48 -3.38 -7.57 -5.16 -11.81 -5.16 -11.11 0 -20.15 12.07 -20.15 26.9 0 4.84 1 9.62 2.89 13.81 l 6.7 14.88 -12.46 -7.43 c -1.13 -.67 -2.32 -1.01 -3.54 -1.01 -5.2 0 -9.44 6.17 -9.44 13.77 0 2.84 .59 5.57 1.72 7.89 l 1.89 3.9 c 4.53 -.27 9.09 -.4 13.68 -.4 9.43 0 18.73 .57 27.87 1.68 .71 -17.86 14.13 -31.79 30.73 -31.79 3.78 0 7.54 .77 11.08 2.24 5.46 -11.74 16.23 -19.32 28.11 -19.32 9.65 0 18.49 4.85 24.45 13.07 3.99 -6.19 9.56 -10.54 16.08 -12.47 7.85 -2.33 16.13 -.82 23.29 4.23 6.92 4.87 12.09 12.73 14.5 21.74 9.1 -2.8 19.68 .06 28.26 7.99 7.07 6.54 11.88 15.67 13.47 25.28 9.59 -1.42 19.86 2.88 27.83 11.96 8.38 9.54 12.7 22.82 11.7 35.17 8.54 3.04 16.33 11.05 21.03 21.91 6.61 15.26 5.74 32.99 -1.56 44.13 5.1 5.78 8.69 14.04 9.92 23.16 1.76 12.99 -1.35 25.55 -7.99 33.56 3.41 6.28 5.26 13.86 5.26 21.9 0 15.72 -7.38 29.55 -17.78 34.46 .88 8.49 -1.2 18.01 -5.85 25.99 -5.06 8.66 -12.44 14.31 -19.81 15.5 -.33 11.94 -6.99 21.95 -16.17 25.3 4.59 4.69 7.51 11.83 7.51 19.8 -.01 6.61 -2.02 12.63 -5.31 17.17 2.57 -3.51 6.89 -4 7.66 -8.18 z"/><path d="m 819.89 379.45 s 32.12 -13.64 26.29 -54.66 c -6.75 -47.51 -45.02 -47.17 -45.02 -47.17 12.5 -5.47 33.23 -34.78 21.63 -68.72 s -38.58 -32 -38.58 -32 c 8.92 -7.67 25.41 -41.19 -2.33 -79.26 s -66.38 -2.86 -66.38 -2.86 16.27 -34.96 -18.53 -63.42 c -34.8 -28.47 -61.77 20.72 -61.77 20.72 s .48 -33.1 -30.76 -45.06 c -31.23 -11.96 -49.55 33.01 -49.55 33.01 s -9.35 -30.65 -41.47 -30.65 c -35.35 0 -42.41 41.6 -42.41 41.6 s -16.47 -32.84 -44.69 -15.66 c -28.21 17.18 -15.99 62.75 -15.99 62.75 s -10.69 -21.06 -32.53 -7.66 c -21.83 13.4 -15.58 45.4 -15.58 45.4 l 4.4 44.39 s -8.03 -12.04 -17.02 -2.19 c -9.08 9.97 -7.07 44.89 -7.07 44.89 l 6.37 45 c .67 -1.69 1.62 -3.2 2.79 -4.42 -.7 -2.64 -1.07 -5.43 -1.07 -8.29 0 -12.9 7.42 -23.51 16.81 -24.48 -.63 -3.11 -.95 -6.31 -.95 -9.54 0 -20.78 12.98 -37.69 28.93 -37.69 3.36 0 6.65 .75 9.76 2.21 1.05 -25.27 16.8 -45.42 36.02 -45.42 6.34 0 12.53 2.24 17.97 6.42 5.04 -18.02 18.8 -30.76 34.43 -30.76 13.2 0 25.22 9.07 31.64 23.03 7.7 -11.84 19.98 -19.07 33.33 -19.07 22.31 0 40.56 20.12 41.4 45.21 12.3 -7.37 29.25 -8.28 43.18 4 14.14 12.46 19.81 34.05 18.27 51.08 2.33 -.55 4.7 -.83 7.08 -.83 21.62 0 39.19 22.81 39.19 50.83 0 5.28 -.64 10.52 -1.87 15.52 17.64 1.38 31.73 24.36 31.73 52.41 0 12.42 -2.69 24.11 -7.68 33.5 8.01 8.86 12.83 23.08 12.83 38.46 0 19.48 -7.81 36.59 -19.13 43.83 6.68 9.33 9.33 22.81 6.68 36.16 -2.02 10.17 -6.86 18.87 -13.62 24.5 -5.3 4.42 -11.34 6.55 -17.3 6.27 2.36 10.88 1.01 23.65 -4 34.95 -7.28 16.42 -20.72 26.06 -33.14 24.72 -1.3 12.57 -10.66 24.4 -23.84 28.85 -7.13 2.39 -14.44 2.32 -20.68 -.14 -2.34 4.81 -6.25 8.44 -10.86 10.08 2.81 4.68 4.44 10.36 4.44 16.44 0 2.52 -.27 4.96 -.79 7.29 6.07 7.87 14.69 11.71 29.22 13.41 27.66 3.28 36.58 -25.18 36.58 -25.18 s 13.39 17.51 40.15 7.66 c 26.77 -9.85 19.64 -37.22 19.64 -37.22 s 27.66 18.61 43.72 -3.28 c 16.05 -21.9 1.78 -45.99 1.78 -45.99 s 27.66 13.14 36.52 -30.15 c 8.85 -43.28 -23.13 -58.53 -23.13 -58.53 s 35.49 6.49 41.73 -29.65 c 6.22 -36.11 -16.77 -54.64 -16.77 -54.64 z"/><path d="m 616.36 299.1 c -7.02 -7.99 -16.58 -11.21 -24.36 -8.21 l -5.61 2.15 -.1 -7.21 c -.11 -8.58 -4.06 -17.27 -10.54 -23.26 -7.61 -7.04 -17.12 -8.87 -24.19 -4.64 l -5.44 3.25 -.84 -7.34 c -.95 -8.33 -5.2 -15.9 -11.38 -20.24 -5.22 -3.68 -11.21 -4.77 -16.87 -3.1 -5.57 1.65 -10.15 5.8 -12.9 11.69 -.35 .77 -.67 1.55 -.96 2.34 l -3.67 10.25 -4.25 -9.92 c -3.81 -8.91 -11.98 -14.66 -20.82 -14.66 -9.87 0 -18.63 6.99 -21.82 17.38 l -1.72 5.61 -4.36 -2.69 c -3.44 -2.11 -7.32 -3.23 -11.28 -3.23 -11.76 0 -21.61 9.77 -21.96 21.78 0 .16 -.02 .32 -.03 .47 108.67 17.5 191.9 111.68 191.9 224.89 .04 23.29 -3.47 46.27 -10.4 68.29 .07 0 .14 -.01 .21 -.01 7.59 -.39 13.52 -7.69 13.52 -16.61 0 -1.09 -.1 -2.21 -.27 -3.28 l -1.25 -7.33 6.07 .87 c 5.75 .81 12.53 -3.65 16.9 -11.13 4.07 -6.98 5.46 -15.3 3.64 -21.75 l -1.71 -6.03 5.14 -1.06 c 8.51 -1.76 14.93 -12.65 14.93 -25.33 0 -7.23 -2.11 -14.18 -5.81 -19.06 l -3.52 -4.66 4.31 -3.51 c 6.17 -5 9.32 -15.64 7.86 -26.47 -1.15 -8.49 -4.96 -15.88 -10.21 -19.77 l -5.51 -4.1 5.11 -4.81 c 7.47 -7.03 8.83 -22.22 3.15 -35.32 -4.2 -9.69 -11.42 -16.35 -18.85 -17.39 l -5.1 -.71 1.35 -6.07 c 2.23 -9.96 -1.06 -21.76 -8.36 -30.07 z"/><path d="m 96.2 186.42 c -6.27 5.6 -14.09 15.4 -18.78 31.6 5.19 -2.27 11.14 -4.58 17.38 -6.67 .06 -8.61 .53 -16.91 1.4 -24.93 z"/><path d="m 587.02 617.55 c -2.42 -.16 -4.28 -2.69 -4.15 -5.66 v -.03 c .01 -.32 .06 -.63 .11 -.93 .01 -.05 .02 -.1 .03 -.15 .06 -.27 .14 -.52 .23 -.77 .02 -.07 .05 -.14 .07 -.21 .09 -.23 .2 -.44 .31 -.65 .04 -.07 .08 -.15 .12 -.22 .12 -.19 .25 -.37 .39 -.54 .06 -.07 .11 -.15 .18 -.21 .14 -.16 .29 -.3 .44 -.43 .07 -.06 .14 -.12 .22 -.18 .16 -.12 .32 -.22 .49 -.32 .08 -.05 .17 -.09 .25 -.13 .18 -.08 .35 -.15 .54 -.2 .09 -.03 .18 -.05 .27 -.07 .19 -.04 .38 -.06 .58 -.07 .13 -.01 .25 -.01 .38 0 h .01 c .21 .01 .54 .03 .75 .03 6.38 0 11.57 -6.61 11.57 -14.74 0 -4.9 -1.88 -9.26 -4.79 -11.94 -1.75 -1.61 -3.86 -2.62 -6.17 -2.78 -1.04 -.07 -2.01 -.59 -2.75 -1.44 -.25 -.29 -.47 -.61 -.66 -.96 -.77 -1.43 -.94 -3.21 -.47 -4.82 .55 -1.86 .83 -3.8 .83 -5.78 0 -.46 -.01 -.92 -.05 -1.37 0 -.08 -.01 -.18 -.01 -.26 -.35 -4.56 -2.2 -8.63 -4.97 -11.56 -.17 -.18 -.35 -.34 -.52 -.51 -.18 -.18 -.36 -.36 -.55 -.53 -2.62 -2.31 -5.88 -3.68 -9.42 -3.68 h -14.85 c -1.03 0 -2.01 -.44 -2.77 -1.22 -.46 -.46 -.85 -1.05 -1.13 -1.72 -.75 -1.81 -.61 -3.98 .38 -5.62 1.02 -1.72 1.56 -3.68 1.56 -5.67 0 -3.1 -1.27 -5.92 -3.33 -7.95 -2.06 -2.04 -4.9 -3.31 -8.03 -3.31 h -22.43 c -.99 0 -1.91 -.4 -2.66 -1.1 -.74 -.69 -1.31 -1.68 -1.57 -2.84 -.52 -2.34 .28 -4.82 1.96 -6.06 2.85 -2.1 4.56 -5.6 4.56 -9.35 0 -3.5 -1.46 -6.63 -3.74 -8.7 -1.77 -1.61 -4.05 -2.58 -6.53 -2.58 -.91 0 -1.75 -.34 -2.45 -.92 -1.17 -.97 -1.94 -2.6 -1.94 -4.46 0 -2.97 1.96 -5.4 4.4 -5.4 4.6 0 8.81 1.89 12.11 5.04 4.23 4.05 6.93 10.17 6.93 17 0 3.01 -.52 5.91 -1.49 8.58 h .01 v .01 h 12.84 c 5.21 0 9.96 2.17 13.53 5.73 4.05 4.03 6.6 9.85 6.6 16.3 0 1.17 -.09 2.32 -.24 3.46 h .01 v .01 h 8.31 c 5.99 0 11.48 2.57 15.73 6.83 1.41 1.42 2.69 3.03 3.79 4.79 s .01 .01 .01 .01 c 4.37 -17.22 6.59 -34.97 6.59 -52.92 0 -59.82 -24.65 -114.07 -64.44 -153.36 -25.74 -25.43 -57.83 -44.58 -93.69 -54.94 -.97 -.28 -1.95 -.56 -2.93 -.83 -6.5 -1.78 -13.11 -3.29 -19.84 -4.47 -3.6 -.64 -7.24 -1.19 -10.9 -1.65 s -7.35 -.83 -11.06 -1.11 c -5.57 -.42 -11.2 -.64 -16.88 -.64 -67.62 0 -128.2 30.34 -168.53 77.96 -1.99 -1.83 -3.92 -3.75 -4.89 -6.07 -.37 -.89 -.89 -1.68 -1.53 -2.31 v -16.08 s 58.51 -97.98 59.61 -127.63 -17.58 -105.14 -70.31 -97.05 c -52.73 8.08 -76.9 18.87 -86.79 56.61 -9.89 37.75 -6.59 79.53 0 114.58 17.58 -31 -.29 -78.7 30.77 -111.89 .42 -.44 .85 -.87 1.28 -1.28 1.02 -.26 2.04 -.45 3.06 -.6 -1.15 2.01 -2.19 4.08 -3.19 6.11 -2.42 4.91 -5.47 9.52 -7.83 14.44 -3.83 4.35 -6.59 9.43 -6.89 15.28 -.03 .64 .05 1.2 .21 1.71 .25 2.02 1.56 3.87 3.95 4.22 -.01 .06 -.03 .12 -.04 .18 16.51 -.8 27.33 4.67 19.89 23.05 -14.83 36.63 -41.74 84.49 -60.97 110.77 -19.25 26.3 -179.41 221.97 18.11 328.93 85.28 46.18 150.84 42.89 180.11 37.72 -.1 -.05 -.19 -.1 -.29 -.14 4.08 -.52 8.14 -1.19 12.17 -1.6 2.91 -.3 5.82 -.59 8.72 -.88 5.45 2.06 11.02 3.94 16.67 5.66 1.82 6.87 4.04 13.63 6.42 20.33 .86 16.83 2.18 57.41 -4.07 73.25 -7.98 20.21 -89.53 -.9 -93.38 36.17 20.5 -9.66 19.22 0 36.25 0 h 9.68 c -1.32 2.34 -2.22 5 -2.54 8.09 20.5 -9.66 19.22 0 36.25 0 h 75.81 c 21.57 0 27.83 -14.6 48.33 0 -2.77 -23.59 -29.7 -26.96 -43.14 -26.29 -13.45 .68 -4.12 -53.24 11.81 -31.68 3.3 -25.61 -17.02 -18.87 -17.02 -18.87 s -1.33 -19.59 .92 -32.13 c .22 -.24 .43 -.49 .62 -.79 2.91 -4.53 5.55 -9.18 7.76 -14.05 66.47 6.65 125.56 -.7 126.63 -.84 .15 -.02 .31 -.03 .46 -.03 7.51 0 14.1 -4.87 14.1 -10.44 v -.01 c 0 -.33 0 -.65 -.05 -.96 -.03 -.23 -.05 -.47 -.06 -.7 -.04 -1.63 .51 -3.22 1.54 -4.3 .06 -.07 .14 -.12 .2 -.19 .1 -.1 .21 -.2 .33 -.28 .09 -.07 .19 -.13 .29 -.2 .11 -.07 .23 -.14 .34 -.19 .09 -.05 .19 -.1 .28 -.14 .2 -.08 .4 -.15 .6 -.19 .09 -.02 .18 -.03 .27 -.04 .13 -.02 .27 -.04 .4 -.04 h .35 c .08 0 .17 .01 .25 .02 .13 .02 .26 .03 .39 .06 .06 .01 .11 .04 .17 .05 .14 .04 .27 .08 .4 .14 1.91 .79 4.01 1.22 6.1 1.22 8.18 0 14.85 -6.12 14.85 -13.63 v -.01 c 0 -1.22 -.19 -2.43 -.54 -3.6 -.22 -.73 -.31 -1.5 -.27 -2.26 .07 -1.26 .5 -2.48 1.26 -3.41 .05 -.07 .12 -.12 .17 -.19 .12 -.14 .25 -.27 .38 -.39 .11 -.09 .22 -.18 .33 -.26 .1 -.07 .21 -.14 .31 -.2 .12 -.07 .24 -.15 .36 -.21 .2 -.09 .4 -.17 .61 -.22 .12 -.03 .24 -.05 .37 -.07 s .26 -.04 .39 -.05 .25 -.01 .38 -.01 c .09 0 .18 .02 .27 .03 .14 .02 .27 .03 .41 .06 .08 .02 .16 .05 .24 .08 .13 .04 .27 .08 .4 .14 1.79 .79 3.69 1.19 5.65 1.19 7.47 0 13.54 -5.77 13.54 -12.86 v -.01 c 0 -3.28 -1.3 -5.75 -2.4 -7.26 -.71 -.98 -1.09 -2.21 -1.11 -3.46 -.01 -.75 .1 -1.52 .35 -2.23 .66 -1.92 2.18 -3.2 3.88 -3.27 8.92 -.4 15.91 -8.4 15.91 -18.2 v -.01 c .01 -9.63 -6.76 -17.62 -15.4 -18.18 z m -408.02 -445.04 c -3.42 0 -6.4 -2.21 -8.1 -5.51 -.24 -2.9 -.86 -5.79 -1.15 -8.65 .13 -.75 .27 -1.51 .41 -2.27 1.46 -4.23 4.86 -7.16 8.84 -7.16 5.3 0 9.61 5.27 9.61 11.8 -.01 6.52 -4.31 11.79 -9.61 11.79 z m 186.72 638.22 c -.49 1.22 -1.24 2.28 -2.24 3.23 -6.33 -1.41 -12.61 -1.67 -17.28 -1.43 -13.45 .67 -4.11 -51.9 11.82 -30.33 3.29 -25.61 -17.03 -18.88 -17.03 -18.88 s -1.45 -20.55 .93 -33.11 c .18 -.48 .3 -1.01 .34 -1.59 0 -.01 0 -.02 0 -.03 .21 -.89 .44 -1.74 .69 -2.51 -.06 -.02 -.12 -.03 -.18 -.04 .69 -.41 1.28 -.97 1.64 -1.73 1.23 -2.63 2.23 -5.49 3.56 -8.13 4.81 1.01 9.64 1.92 14.48 2.74 2.34 5.09 4.65 10.19 7.07 15.24 .78 12.68 3.06 59.18 -3.8 76.57 z"/></g></svg>