<svg viewBox="0 0 300 300" xmlns="http://www.w3.org/2000/svg"><g fill="#fff"><path d="m 165.63 195.3 c 1.09 .76 2.25 1.53 3.44 2.3 l -5.71 -4 a 25.27 25.27 0 0 0 2.27 1.7 z"/><path d="m 248.21 115.42 c -1.54 -4.42 -3.12 -3.49 -2.42 -18.6 .62 -13.27 -11.85 -5 -13.75 7.26 a 42.56 42.56 0 0 0 -.32 12 9.08 9.08 0 0 0 -2.16 -1.37 c -4.71 -1.91 -5.17 2.79 -2.6 4.2 1.46 .8 3.19 3 5.15 5.5 -5.86 13.16 -11.69 18.67 -18.79 28 l -1.53 2 s -7.76 9.23 -9.67 11.22 c -1.62 1.67 -3.29 3.27 -5 4.83 l 1.54 2 s -15.8 2.74 -27.87 26.24 a 84.8 84.8 0 0 0 14 7.2 13.83 13.83 0 0 0 7.19 2.65 19.45 19.45 0 0 0 2.6 .05 c 6.07 .61 10.82 -1.21 13.91 -4.37 a 17.14 17.14 0 0 0 4.18 -4 c 26.79 -36.52 30.68 -63.23 34.95 -75.19 a 10.63 10.63 0 0 0 .61 -1.6 .25 .25 0 0 1 .07 -.17 v -.09 a 14.26 14.26 0 0 0 -.09 -7.76 z" opacity=".8"/><ellipse cx="96.75" cy="64.61" opacity=".15" rx="3.69" ry="1.63" transform="matrix(.11441701 -.99343281 .99343281 .11441701 21.49 153.33)"/><ellipse cx="114.08" cy="65.65" opacity=".15" rx="3.69" ry="1.63" transform="matrix(.11441701 -.99343281 .99343281 .11441701 35.81 171.47)"/><path d="m 62.89 68.68 c .42 -2.72 1.59 -4.73 3.27 -5.17 a 2.2 2.2 0 0 0 .67 -.82 c 1.27 -4.24 4.68 -24.84 10.09 -27.28 a 14.91 14.91 0 0 1 7.49 -1.24 c 9.21 -.56 20.72 7.8 27.42 10.88 3.43 1.57 9.63 .85 14.6 -2.62 a 2.42 2.42 0 0 1 3.62 1.28 c 1.61 4.64 5.74 15.83 6.36 29.08 a 2.55 2.55 0 0 1 -.12 .64 c 1.5 -4.67 6.8 -21.83 6.43 -30.27 -.41 -9.27 -4.79 -12.21 -7.81 -13.14 a 4.55 4.55 0 0 1 -3.19 -3.6 27.6 27.6 0 0 0 -2.85 -8.42 c -7.51 -12.61 -24.37 -22.24 -38.22 -15 -7.83 4.2 -8.43 15 -15.46 20.35 a 15.89 15.89 0 0 1 -7.5 2.11 c -9.69 .32 -15.22 11.78 -8.19 22.34 1.93 2.9 2.5 13.5 3.39 20.88 z" opacity=".3"/><path d="m 112.1 298.27 c -5.33 -11.45 -27.37 -38.06 -34.06 -74.15 a 42.07 42.07 0 0 1 -10.13 -1 s -2.15 -5.11 -7 -17.64 l -.09 .16 c 1.15 10.36 5 31.56 7.47 44 .07 .39 .15 .78 .22 1.17 5 25.8 19.72 42.55 43.63 47.37 z" opacity=".5"/><path d="m 174.68 133.19 c -1 1.87 -1 4.44 -1.56 4.32 -1 -3.51 -2.07 -9.13 -2.3 -17.94 -.44 -16.8 -15.41 -5.18 -16.69 10.43 -1.34 16.31 3.62 24.48 5.76 27.2 -7.89 14.58 -14.83 19.8 -23.62 29.34 l -1.82 2 s -9.13 9 -11.35 10.84 c -2.47 2.12 -5 4.11 -7.63 6 .18 .32 .35 .63 .55 1 -10.7 12.09 -22.88 16.25 -32.31 17.42 a 87.05 87.05 0 0 0 14.51 14.47 35.77 35.77 0 0 0 2.92 2.16 14.4 14.4 0 0 0 5.63 2.87 c 4.78 1.73 9.13 1.49 12.62 -.13 a 21.35 21.35 0 0 0 11.32 -6.21 c 33.63 -37.62 39.15 -67.61 45.85 -79.27 l -.05 -.68 a 10.84 10.84 0 0 0 2 -3.56 v .06 a 2.64 2.64 0 0 1 .11 -.56 22.06 22.06 0 0 0 .74 -7.25 l -.12 -.09 c .05 -4.32 -.19 -8.42 .67 -10.48 1.32 -3.13 -2.41 -6.97 -5.23 -1.94 z" opacity=".8"/><path d="m 98.42 52.61 c -1.12 .11 -2.14 .14 -3.16 .27 a 13.38 13.38 0 0 0 -2.94 .69 14.61 14.61 0 0 0 -2.75 1.29 c -.9 .52 -1.76 1.11 -2.72 1.68 a .73 .73 0 0 1 -1 -1 10.49 10.49 0 0 1 5.66 -4.44 11.47 11.47 0 0 1 3.67 -.59 7.37 7.37 0 0 1 3.55 .83 .65 .65 0 0 1 .28 .87 l -.01 .03 a .68 .68 0 0 1 -.52 .35 z" opacity=".15"/><path d="m 112.39 52.54 a 7.25 7.25 0 0 1 3.65 -.46 12.22 12.22 0 0 1 3.57 1 12.01 12.01 0 0 1 3.12 2 7.57 7.57 0 0 1 2.1 3 .74 .74 0 0 1 -.46 .94 .75 .75 0 0 1 -.71 -.14 c -.82 -.71 -1.59 -1.36 -2.42 -2 a 14.52 14.52 0 0 0 -2.65 -1.51 15.56 15.56 0 0 0 -2.9 -1 c -1 -.23 -2 -.39 -3.09 -.59 a .67 .67 0 0 1 -.61 -.73 c 0 -.02 0 -.04 .01 -.05 a .68 .68 0 0 1 .39 -.46 z" opacity=".15"/><path d="m 179.43 147.63 a 19.83 19.83 0 0 1 -.76 5.26 2.91 2.91 0 0 1 -.11 .56 v -.06 a 10.84 10.84 0 0 1 -2 3.56 l .05 .68 c -3.73 6.48 -7.09 18.64 -15.12 34.62 l 9.31 6.53 c 12.08 -23.59 27.92 -26.33 27.92 -26.33 z"/><path d="m 130.71 236.9 a 21.35 21.35 0 0 1 -11.32 6.21 c -3.49 1.62 -7.84 1.86 -12.62 .13 a 14.4 14.4 0 0 1 -5.63 -2.87 35.77 35.77 0 0 1 -2.92 -2.16 87.05 87.05 0 0 1 -14.51 -14.47 c 9.43 -1.17 21.61 -5.33 32.31 -17.42 -.2 -.33 -.37 -.64 -.55 -1 2.6 -1.9 5.16 -3.89 7.63 -6 2.22 -1.89 11.35 -10.84 11.35 -10.84 l 1.82 -2 c 8.79 -9.5 15.71 -14.76 23.62 -29.34 -2.14 -2.72 -7.1 -10.89 -5.76 -27.2 a 27.42 27.42 0 0 1 1.31 -6.36 21.57 21.57 0 0 0 -9.68 -1.79 c -12.06 .52 -13.17 5.25 -21.2 5.18 a 10.26 10.26 0 0 0 -1.08 .06 c -13.65 -1 -29.84 -1.91 -42.5 -15.24 -.4 -.7 -.74 -1.39 -1.06 -2.08 1.81 4.37 3.51 13.2 2.63 18.22 -1.15 10 -20 16.93 -26.74 27 -4.9 7.32 -6.76 19.81 -1.23 34.26 9.39 24.57 13.33 33.95 13.33 33.95 a 42.07 42.07 0 0 0 10.13 1 c 6.69 36.09 28.73 62.7 34.06 74.15 a 62.14 62.14 0 0 0 30.33 -1.45 c 19.19 -5.84 34.37 -31.21 37.87 -36.84 4.94 -8 -13.13 -33.8 -19 -67.41 a 203.17 203.17 0 0 1 -30.59 44.31 z"/><path d="m 179.43 147.63 a 19.83 19.83 0 0 1 -.76 5.26 2.91 2.91 0 0 1 -.11 .56 v -.06 a 10.84 10.84 0 0 1 -2 3.56 l .05 .68 c -3.73 6.48 -7.09 18.64 -15.12 34.62 l 9.31 6.53 c 12.08 -23.59 27.92 -26.33 27.92 -26.33 z"/><path d="m 130.71 236.9 a 21.35 21.35 0 0 1 -11.32 6.21 c -3.49 1.62 -7.84 1.86 -12.62 .13 a 14.4 14.4 0 0 1 -5.63 -2.87 35.77 35.77 0 0 1 -2.92 -2.16 87.05 87.05 0 0 1 -14.51 -14.47 c 9.43 -1.17 21.61 -5.33 32.31 -17.42 -.2 -.33 -.37 -.64 -.55 -1 2.6 -1.9 5.16 -3.89 7.63 -6 2.22 -1.89 11.35 -10.84 11.35 -10.84 l 1.82 -2 c 8.79 -9.5 15.71 -14.76 23.62 -29.34 -2.14 -2.72 -7.1 -10.89 -5.76 -27.2 a 27.42 27.42 0 0 1 1.31 -6.36 21.57 21.57 0 0 0 -9.68 -1.79 c -12.06 .52 -13.17 5.25 -21.2 5.18 a 10.26 10.26 0 0 0 -1.08 .06 c -13.65 -1 -29.84 -1.91 -42.5 -15.24 -.4 -.7 -.74 -1.39 -1.06 -2.08 1.81 4.37 3.51 13.2 2.63 18.22 -1.15 10 -20 16.93 -26.74 27 -4.9 7.32 -6.76 19.81 -1.23 34.26 9.39 24.57 13.33 33.95 13.33 33.95 a 42.07 42.07 0 0 0 10.13 1 c 6.69 36.09 28.73 62.7 34.06 74.15 a 62.14 62.14 0 0 0 30.33 -1.45 c 19.19 -5.84 34.37 -31.21 37.87 -36.84 4.94 -8 -13.13 -33.8 -19 -67.41 a 203.17 203.17 0 0 1 -30.59 44.31 z"/><path d="m 96.9 95.09 l .38 .15 a 6.09 6.09 0 0 0 2.17 .39 c .62 0 1.23 .07 1.82 .12 h .16 c .65 .06 1.3 .08 1.95 .2 a 9.39 9.39 0 0 0 2.21 0 h .21 a 1.58 1.58 0 0 0 .53 -.2 1.35 1.35 0 0 0 .41 -1.86 4.78 4.78 0 0 0 -2.23 -1.81 9.09 9.09 0 0 0 -2.78 -.65 3.69 3.69 0 0 0 -.47 0 9.19 9.19 0 0 0 -2.34 .3 4.4 4.4 0 0 0 -2.48 1.55 .91 .91 0 0 0 -.17 .29 1.16 1.16 0 0 0 .62 1.52 z" opacity=".15"/><path d="m 107.7 66.08 c -1.6 -9.94 .87 -16.57 3.93 -21.13 -6.73 -3.15 -18.1 -11.34 -27.22 -10.78 a 14.91 14.91 0 0 0 -7.49 1.24 c -5.41 2.44 -8.82 23 -10.09 27.28 a 2.2 2.2 0 0 1 -.67 .82 c -1.68 .44 -2.85 2.45 -3.27 5.17 v -.21 a 17.47 17.47 0 0 0 .19 5.68 9.35 9.35 0 0 0 3.8 5.51 5 5 0 0 1 1.34 1.46 c .86 7.85 3.8 13.93 6.93 19.32 a 87.04 87.04 0 0 1 4.14 7.8 33.45 33.45 0 0 0 -2.82 -5.75 c 15.07 12.48 29.22 9.91 29.22 9.91 s -2.41 -5.63 -3.23 -8.58 a 38.93 38.93 0 0 1 -1.16 -8.07 c -.59 0 -1.2 -.12 -1.82 -.12 a 6.09 6.09 0 0 1 -2.17 -.39 l -.38 -.15 a 1.16 1.16 0 0 1 -.63 -1.51 v -.01 a .91 .91 0 0 1 .17 -.29 4.4 4.4 0 0 1 2.48 -1.55 9.19 9.19 0 0 1 2.34 -.3 25.18 25.18 0 0 1 .83 -5.54 4.5 4.5 0 0 1 1.31 -2.36 c 1.27 -1 3.24 -.64 4.58 -1.57 s 1.56 -2.89 1.45 -4.55 c -.28 -3.81 -1.15 -7.55 -1.76 -11.33 z m -9.34 -1.28 c -.23 2 -1.14 3.58 -2 3.48 s -1.42 -1.83 -1.19 -3.85 1.15 -3.58 2 -3.48 1.43 1.83 1.19 3.85 z m .64 -12.54 a .68 .68 0 0 1 -.52 .35 c -1.12 .11 -2.14 .14 -3.16 .27 a 13.38 13.38 0 0 0 -2.94 .69 14.61 14.61 0 0 0 -2.75 1.29 c -.9 .52 -1.76 1.11 -2.72 1.68 a .73 .73 0 0 1 -1 -1 10.49 10.49 0 0 1 5.66 -4.44 11.47 11.47 0 0 1 3.67 -.59 7.37 7.37 0 0 1 3.55 .83 .65 .65 0 0 1 .23 .89 z"/><path d="m 117.52 109.06 c 6.71 -5.72 12.34 -12.21 15.53 -21.68 .9 -2.72 2.67 -11.71 3.33 -15.13 -.71 -13 -4.74 -24 -6.33 -28.54 a 2.42 2.42 0 0 0 -3.62 -1.28 c -5 3.47 -11.17 4.19 -14.6 2.62 l -.2 -.1 c -3.06 4.56 -5.53 11.19 -3.93 21.13 .61 3.78 1.48 7.52 1.73 11.33 .11 1.66 -.08 3.59 -1.45 4.55 s -3.31 .55 -4.58 1.57 a 4.5 4.5 0 0 0 -1.31 2.36 25.18 25.18 0 0 0 -.83 5.54 3.69 3.69 0 0 1 .47 0 9.09 9.09 0 0 1 2.78 .65 4.78 4.78 0 0 1 2.23 1.81 1.35 1.35 0 0 1 -.41 1.86 1.58 1.58 0 0 1 -.53 .2 h -.21 a 9.39 9.39 0 0 1 -2.21 0 c -.65 -.12 -1.3 -.14 -1.95 -.2 h -.16 a 38.93 38.93 0 0 0 1.16 8.07 90.62 90.62 0 0 0 3.23 8.58 s -14.15 2.6 -29.22 -9.91 c 2.11 3.25 2.78 6.29 4.54 9.36 12.25 14.21 32.37 15.27 42.94 15.27 -13.12 -4.46 -9.48 -15.44 -6.4 -18.06 z m -5.52 -56.06 a .68 .68 0 0 1 .38 -.49 7.25 7.25 0 0 1 3.65 -.46 12.22 12.22 0 0 1 3.57 1 12.01 12.01 0 0 1 3.12 2 7.57 7.57 0 0 1 2.1 3 .74 .74 0 0 1 -.46 .94 .75 .75 0 0 1 -.71 -.14 c -.82 -.71 -1.59 -1.36 -2.42 -2 a 14.52 14.52 0 0 0 -2.65 -1.51 15.56 15.56 0 0 0 -2.9 -1 c -1 -.23 -2 -.39 -3.09 -.59 a .67 .67 0 0 1 -.59 -.74 z m 3.69 12.81 c -.23 2 -1.14 3.58 -2 3.48 s -1.43 -1.83 -1.2 -3.85 1.15 -3.58 2 -3.48 1.45 1.86 1.21 3.88 z" opacity=".8"/></g></svg>