<svg viewBox="0 0 300 300" xmlns="http://www.w3.org/2000/svg"><g fill="#fff"><path d="m 80.32 254.53 c -.27 -5.25 -.59 -10.51 -1.3 -15.72 a 108.16 108.16 0 0 0 -4.49 -19.45 c -1.43 -4.31 -3.14 -8.69 -3.45 -13.16 a 101.79 101.79 0 0 1 -5.85 -22 c -25 22.22 -43.62 48.92 -44.89 69.55 a 55.04 55.04 0 0 0 .44 11.43 c 3.1 20.7 21.57 35.42 42.27 33.09 a 38.74 38.74 0 0 1 2.47 -3.47 118.54 118.54 0 0 0 8.33 -12.27 46.08 46.08 0 0 0 5.92 -13.76 c .97 -4.64 .77 -9.47 .55 -14.24 z m -21 -46.53 c -7.17 10.1 -22.31 36.26 -17.53 62.13 1 5.6 -6.63 8.36 -9.27 3.31 -6.6 -12.63 -6 -33.69 25.52 -66.51 a .84 .84 0 0 1 1.28 1.07 z"/><path d="m 58.04 206.94 c -31.54 32.82 -32.12 53.88 -25.52 66.51 2.64 5.05 10.3 2.29 9.27 -3.31 -4.78 -25.87 10.36 -52.03 17.53 -62.14 a .84 .84 0 0 0 -1.28 -1.06 z" opacity=".6"/><path d="m 96.76 255.24 a 45.68 45.68 0 0 0 -5.09 -16 c -5.51 -10.68 -14.21 -17.2 -20.61 -33.09 .31 4.47 2 8.85 3.45 13.16 a 108.16 108.16 0 0 1 4.49 19.45 c .71 5.21 1 10.47 1.3 15.72 .24 4.77 .44 9.6 -.55 14.27 a 46.08 46.08 0 0 1 -5.92 13.76 118.54 118.54 0 0 1 -8.33 12.27 38.74 38.74 0 0 0 -2.47 3.47 l .71 -.08 c 20.99 -2.7 35.39 -21.9 33.02 -42.93 z" opacity=".8"/><path d="m 93.65 89.07 c -24.28 2 -32 10.26 -33.79 17.66 a 2.66 2.66 0 0 0 4.89 2 c 7.24 -12.12 22.57 -17.27 29.04 -18.73 a .47 .47 0 1 0 -.14 -.93 z" opacity=".8"/><path d="m 165.78 137 c -19.88 -.83 -36.62 -16.39 -42.86 -23.37 a .63 .63 0 0 0 -1 .76 c 18.89 28.77 34.32 32.74 44.74 30 a 3.76 3.76 0 0 0 -.88 -7.39 z" opacity=".8"/><path d="m 188.63 5.15 a 6.77 6.77 0 0 0 -2.31 -4.39 h -43.1 a 8.56 8.56 0 0 0 -8.54 8.54 v 3.7 a 8.56 8.56 0 0 0 8.54 8.54 h 29.08 c .07 -.27 .15 -.53 .23 -.78 l .12 -.34 c .07 -.21 .15 -.41 .24 -.62 s .16 -.35 .25 -.53 l .23 -.43 a 8.52 8.52 0 0 1 .62 -.94 12.3 12.3 0 0 1 4.63 -3.37 c 1.34 -.63 2.75 -1.19 4.07 -1.82 3.04 -1.49 6.17 -4.15 5.94 -7.56 z" opacity=".8"/><path d="m 258.82 74.3 a 2.36 2.36 0 0 1 -.48 -1.94 10.86 10.86 0 0 0 -4.89 8.9 l -28.51 -.74 a 16.83 16.83 0 0 1 -10.29 -3.75 c -5.33 -4.36 -9.9 -11.66 -12.33 -21.72 a 17.27 17.27 0 0 0 -16.87 -13.12 h -6.89 v -20.41 h -6.32 a 27.31 27.31 0 0 0 -.61 6 l -.21 8.93 c -.06 2.4 -.07 5 1.21 7 1.76 2.79 5.33 3.69 8.18 5.37 a 18.74 18.74 0 0 1 7.58 9.2 c 1.47 3.57 2.07 7.47 3.76 10.94 s 4.65 6.57 7.52 9.41 c 3.84 3.82 7.83 7.61 12.6 10.18 6.69 3.59 14.48 4.53 22.08 4.72 8.54 .21 17.65 1.25 26.19 1.17 l 8.25 -.05 a 62.72 62.72 0 0 0 -9.97 -20.09 z" opacity=".8"/><path d="m 193.22 .76 h -7 a 6.76 6.76 0 0 1 2.36 4.39 c .23 3.41 -2.9 6.07 -6 7.54 -1.32 .63 -2.73 1.19 -4.07 1.82 a 12.3 12.3 0 0 0 -4.63 3.37 9.78 9.78 0 0 0 -1.69 3.64 h 21 a 8.57 8.57 0 0 0 8.57 -8.52 v -3.7 a 8.57 8.57 0 0 0 -8.54 -8.54 z" opacity=".6"/><path d="m 30.83 160.53 v 3.82 a 8.88 8.88 0 0 0 8.85 8.86 h 8.64 c 2.75 .24 6.06 0 9.6 0 h 9.4 c 2.52 0 4.9 .07 7.06 0 h 12.94 a 8.27 8.27 0 0 0 1.74 -.18 h .11 a 8.92 8.92 0 0 0 6.42 -5.53 c -15.61 -.1 -39 -3 -56.77 -15.76 a 8.89 8.89 0 0 0 -7.99 8.79 z" opacity=".8"/><path d="m 268.95 70.58 h -4.63 a 10.78 10.78 0 0 0 -6 1.78 2.36 2.36 0 0 0 .48 1.94 62.73 62.73 0 0 1 10 20.08 c 4.21 14.12 4.08 29.26 2.4 42.19 a 10.87 10.87 0 0 0 8.57 -10.57 v -44.6 a 10.85 10.85 0 0 0 -10.82 -10.82 z" opacity=".6"/><path d="m 268.8 94.38 l -8.25 .05 c -8.54 .08 -17.65 -1 -26.19 -1.17 -7.6 -.19 -15.39 -1.13 -22.08 -4.72 -4.77 -2.57 -8.76 -6.36 -12.6 -10.18 -2.87 -2.84 -5.74 -5.79 -7.52 -9.41 s -2.29 -7.37 -3.76 -10.94 a 18.74 18.74 0 0 0 -7.58 -9.2 c -2.85 -1.68 -6.42 -2.58 -8.18 -5.37 -1.28 -2 -1.27 -4.6 -1.21 -7 l .21 -8.93 a 27.31 27.31 0 0 1 .61 -6 h -14.44 v 20.42 h -9.75 a 17.11 17.11 0 0 0 -16.93 14.4 c -2.39 15.09 -13 22.8 -29.26 25.27 q -.72 .11 -1.44 .15 c -45.31 3 -59.41 31.06 -60 69.93 h -.77 a 8.61 8.61 0 0 0 -.88 0 c 17.75 12.8 41.16 15.66 56.77 15.76 a 8.73 8.73 0 0 0 .59 -3.13 v -3.82 a 8.88 8.88 0 0 0 -8.82 -8.81 h -2.74 v -9 a 10.5 10.5 0 0 1 .11 -1.86 c 1.75 -14.77 6.5 -17.21 25.15 -14 a 17.19 17.19 0 0 1 8.8 4.41 c 30.73 28.62 61 30.22 90.8 2.26 a 17.18 17.18 0 0 1 10.91 -4.64 l 33.12 -1.62 a 10.86 10.86 0 0 0 10.85 9.58 h 4.68 a 10.38 10.38 0 0 0 2.25 -.24 c 1.63 -12.93 1.76 -28.07 -2.45 -42.19 z m -175.01 -4.38 c -6.45 1.51 -21.8 6.66 -29 18.74 a 2.66 2.66 0 0 1 -4.89 -2 c 1.82 -7.4 9.51 -15.65 33.79 -17.66 a .46 .46 0 1 1 .1 .92 z m 72.87 54.4 c -10.42 2.74 -25.85 -1.23 -44.74 -30 a .63 .63 0 0 1 1 -.76 c 6.24 7 23 22.54 42.86 23.37 a 3.74 3.74 0 0 1 .88 7.34 z"/></g></svg>