<svg enable-background="new 0 0 841.889 595.281" height="595.28" viewBox="0 0 841.89 595.28" width="841.89" xmlns="http://www.w3.org/2000/svg"><path d="m 491.22 332.45 l -48.99 31.81 -61.16 -45.5 44.82 56.01 c -34.65 22.34 -73.77 47.37 -112.93 72.21 l -51.83 -38.57 37.92 47.37 c -62.14 39.38 -123.08 77.47 -165.13 102.86 -90.38 54.53 -93.73 50.35 -23.4 -27.38 23.5 -25.94 55.21 -60.12 90.07 -96.86 l 18.08 22.6 -12.61 -28.37 c 27.78 -29.25 57.33 -59.9 86.19 -89.27 l 38.04 47.54 -26.42 -59.34 c 37.86 -38.28 73.87 -73.6 102.25 -99.55 l 42.65 53.29 -29.17 -65.55 c 40.18 -36.31 62.14 -53.59 76.93 -55.93 13.52 -2.14 29.83 7.22 44.53 21.2 11.27 -7.71 26.83 -18.4 42.43 -38.42 11.21 -14.37 32.8 -62.55 38.57 -122.29 2.93 -30.2 16.88 -24.49 12.85 2.33 -7.51 49.96 -13.8 92 -42.17 128.43 -13.27 17.02 -26.39 27.52 -37.11 35.18 14.22 -6.63 31.44 -15.71 49.74 -30.07 176.38 -138.21 218.58 -151.16 3.06 13.52 227.83 -85.35 233.77 -75.3 -9.23 16.75 -15.02 5.7 -29.05 11.02 -40.36 14.59 16.78 22.26 27.44 47.49 21.54 59.2 -4.71 9.27 .34 13.79 -89.16 72.21 z" fill="#fff"/></svg>