<svg enable-background="new 0 0 290 296.6" viewBox="0 0 290 296.6" xmlns="http://www.w3.org/2000/svg"><g fill="#fff"><path d="m 147.3 125.1 l -49.7 -34.4 c -2.4 -1.4 -5.4 -.7 -6.9 1.7 -.4 .8 -.7 1.7 -.7 2.6 v 30.2 c 0 1.1 -.9 2 -2 2 -.5 0 -1 -.2 -1.4 -.6 l -6.6 -6.6 h -70 c -5.5 0 -10 4.5 -10 10 s 4.5 10 10 10 h 80 v 25.2 c 0 2.8 2.2 5 5 5 .9 0 1.8 -.3 2.6 -.7 l 49.7 -34.4 c 2.8 -1.8 3.5 -5.5 1.7 -8.3 -.4 -.7 -1 -1.3 -1.7 -1.7 z"/><path d="m 270 0 h -150 c -11 0 -20 9 -20 20 v 55 c 0 3.2 1.6 6.3 4.2 8.1 l 7.9 5.7 c 2.2 1.6 5.4 1.1 7 -1.2 .6 -.8 .9 -1.9 .9 -2.9 v -64.7 h 121.5 c 1.1 0 2 .9 2 2 0 .8 -.4 1.4 -1.1 1.8 l -67.2 33.4 c -3.2 1.8 -5.2 5.1 -5.2 8.8 v 154 h -50 v -44.7 c 0 -2.8 -2.2 -5 -5 -5 -1 0 -2.1 .3 -2.9 .9 l -7.9 5.6 c -2.6 1.9 -4.2 4.9 -4.2 8.1 v 50 c 0 2.8 2.2 5 5 5 h 65 v 51.6 c 0 2.8 2.2 5 5 5 .8 0 1.7 -.2 2.4 -.6 l 107.1 -53.2 c 3.4 -1.7 5.6 -5.2 5.5 -9 v -213.7 c 0 -11 -9 -20 -20 -20 z"/></g></svg>