<svg viewBox="0 0 300 300" xmlns="http://www.w3.org/2000/svg"><g fill="#fff"><path d="m 276.45 20.88 a 67.67 67.67 0 0 1 -83.66 105.26 l -22 5.11 3.75 3.48 22 -5.1 a 67.68 67.68 0 0 0 79.91 -108.75 z" opacity=".3"/><path d="m 84.13 101.36 a 2.64 2.64 0 0 1 1.56 -.24 c .5 .08 1 .3 1.47 .06 a 1.6 1.6 0 0 0 .57 -.73 18.4 18.4 0 0 0 1.78 -7.75 27.47 27.47 0 0 1 1.17 -7.65 c .92 -3.21 2.32 -7.84 5.32 -9.83 13 -8.76 28.32 16.73 43.51 6 a 2.14 2.14 0 0 1 3.18 1.12 c 1.44 4.07 5.09 13.89 5.67 25.53 l -.11 .57 c 1.31 -4.09 5.92 -19.2 5.57 -26.62 -.38 -8.14 -4.23 -10.71 -6.89 -11.52 a 4 4 0 0 1 -2.81 -3.15 24.01 24.01 0 0 0 -2.53 -7.41 c -6.63 -11 -21.47 -19.46 -33.61 -13.08 -6.87 3.72 -7.37 13.24 -13.54 17.94 a 14.05 14.05 0 0 1 -6.58 1.87 c -8.52 .3 -13.34 10.38 -7.14 19.65 1.69 2.63 2.57 8.58 3.41 15.24 z" opacity=".3"/><path d="m 113.29 102.42 c .21 -1.85 -.28 -3.42 -1.1 -3.52 s -1.65 1.34 -1.86 3.19 .29 3.42 1.11 3.51 1.64 -1.33 1.85 -3.18 z" opacity=".15"/><path d="m 129.15 103.32 c -.2 1.85 -1 3.28 -1.85 3.19 s -1.31 -1.67 -1.1 -3.52 1 -3.28 1.85 -3.18 1.31 1.66 1.1 3.51" opacity=".15"/><path d="m 147.69 101.57 c -.19 -1.35 -.42 -2.66 -.66 -3.93 -.62 -3.16 -1.38 -6 -2.12 -8.47 -.29 -1 -.58 -1.89 -.86 -2.73 -.55 -1.67 -1.05 -3 -1.41 -4.07 a 2.2 2.2 0 0 0 -.91 -1.14 2 2 0 0 0 -2.27 0 c -.43 .31 -.86 .57 -1.29 .82 l -.22 .12 a 10.61 10.61 0 0 1 -1.22 .6 l -.27 .12 c -.41 .16 -.81 .31 -1.21 .43 l -.24 .07 c -.35 .1 -.69 .18 -1 .25 l -.32 .06 c -.36 .06 -.72 .1 -1.09 .14 h -2.63 a 4.27 4.27 0 0 1 -1 -.12 l -.43 -.07 a 21.48 21.48 0 0 1 -2.35 -.55 c -3.13 4.19 -6 10.52 -4.32 20.46 .56 3.45 1.37 6.86 1.61 10.35 .1 1.52 -.07 3.29 -1.32 4.16 s -3 .51 -4.18 1.45 a 4.16 4.16 0 0 0 -1.19 2.16 27.99 27.99 0 0 0 -.77 8.13 26.03 26.03 0 0 0 3.39 .64 c .89 .15 1.79 .15 2.68 .29 s 1.81 .08 2.72 .18 h .06 a .59 .59 0 0 1 0 1.16 c -.93 .15 -1.88 .29 -2.82 .35 h -1.43 a 9.76 9.76 0 0 1 -1.43 -.06 21.6 21.6 0 0 1 -3.08 -.42 34.58 34.58 0 0 0 1 6.09 83.35 83.35 0 0 0 3 7.84 s -14.62 2.44 -28.54 -9.26 a .45 .45 0 0 0 0 .09 c .82 1.28 1.65 2.52 2.48 3.74 1 1.4 1.87 2.79 2.71 4.17 13.15 16.19 34.11 20.06 39.79 19.79 a 9.9 9.9 0 0 0 1.13 -.12 c -.4 -.07 -.78 -.16 -1.15 -.26 -.35 -.1 -.69 -.21 -1 -.33 h -.07 a 9.9 9.9 0 0 1 -1.69 -.85 h -.05 c -.24 -.16 -.47 -.33 -.69 -.5 a 6.73 6.73 0 0 1 -1.13 -1.14 v -.05 a 9.4 9.4 0 0 1 -.81 -1.24 c -.11 -.21 -.21 -.43 -.3 -.64 v -.06 a 12.63 12.63 0 0 1 -.46 -1.31 v -.08 c -.06 -.22 -.12 -.43 -.17 -.64 a 3.06 3.06 0 0 0 -.13 -.6 v -.09 l -.12 -.59 v -.12 l -.09 -.56 c -.07 -.38 -.14 -.82 -.21 -1.3 s -.14 -1 -.2 -1.56 -.12 -1.13 -.15 -1.72 a 11.88 11.88 0 0 1 0 -1.79 16.97 16.97 0 0 1 .11 -1.76 9 9 0 0 1 .57 -2.37 4.39 4.39 0 0 1 1.2 -1.77 47.57 47.57 0 0 0 11.37 -13.96 41.13 41.13 0 0 0 2.57 -6 c .12 -.39 .27 -.92 .43 -1.54 l .12 -.49 c .12 -.5 .25 -1 .38 -1.64 q .13 -.59 .27 -1.2 l .27 -1.27 c .09 -.42 .18 -.85 .26 -1.28 l .27 -1.28 c .68 -3.38 1.23 -6.38 1.23 -6.38 a 62.97 62.97 0 0 0 -.62 -6.35 z m -18.54 1.75 c -.2 1.85 -1 3.28 -1.85 3.19 s -1.31 -1.67 -1.1 -3.52 1 -3.28 1.85 -3.18 1.31 1.66 1.1 3.51 z m 9.23 -6.13 a 1.07 1.07 0 0 1 -.71 .35 11.06 11.06 0 0 1 -2.91 -.2 c -.93 -.19 -1.85 -.34 -2.77 -.55 s -1.81 -.45 -2.73 -.68 a 10.26 10.26 0 0 1 -1.37 -.43 6.56 6.56 0 0 1 -1.36 -.67 1 1 0 0 1 -.29 -1.38 v -.01 a 1.07 1.07 0 0 1 .48 -.39 5.74 5.74 0 0 1 1.54 -.35 8.57 8.57 0 0 1 1.52 0 21.79 21.79 0 0 1 3 .39 22.46 22.46 0 0 1 2.9 .85 8.28 8.28 0 0 1 2.66 1.56 1.09 1.09 0 0 1 .04 1.51 z" opacity=".8"/><path d="m 126.68 93.23 a 5.74 5.74 0 0 1 1.54 -.35 8.57 8.57 0 0 1 1.52 0 21.79 21.79 0 0 1 3 .39 22.46 22.46 0 0 1 2.9 .85 8.28 8.28 0 0 1 2.66 1.56 1.09 1.09 0 0 1 .07 1.54 1.07 1.07 0 0 1 -.71 .35 11.55 11.55 0 0 1 -2.91 -.19 c -.93 -.2 -1.85 -.35 -2.77 -.56 s -1.81 -.45 -2.73 -.68 a 10.26 10.26 0 0 1 -1.37 -.43 6.56 6.56 0 0 1 -1.36 -.67 1 1 0 0 1 -.29 -1.38 v -.01 a 1.07 1.07 0 0 1 .48 -.39" opacity=".15"/><path d="m 114.61 93.2 a 6.21 6.21 0 0 1 -1.33 .73 9.81 9.81 0 0 1 -1.34 .49 c -.91 .27 -1.8 .57 -2.7 .8 s -1.83 .45 -2.74 .68 a 11.33 11.33 0 0 1 -2.9 .32 1.08 1.08 0 0 1 -1 -1.13 1.05 1.05 0 0 1 .32 -.73 8.07 8.07 0 0 1 2.58 -1.68 22.95 22.95 0 0 1 2.86 -1 20.33 20.33 0 0 1 3 -.52 7.72 7.72 0 0 1 1.52 0 5.76 5.76 0 0 1 1.56 .28 1.01 1.01 0 0 1 .2 1.75 z" opacity=".15"/><path d="m 126.16 83.11 c -10.67 -3.11 -21.05 -14.11 -30.16 -7.89 -3 2 -4.35 6.62 -5.27 9.83 a 27.47 27.47 0 0 0 -1.17 7.65 18.4 18.4 0 0 1 -1.78 7.75 1.6 1.6 0 0 1 -.57 .73 c -.44 .24 -1 0 -1.47 -.06 -2.65 -.41 -4.13 3.08 -4.48 5.14 -.67 3.95 0 7.36 3.3 9.83 a 4.46 4.46 0 0 1 1.23 1.34 c -.53 8 2.45 14 5.87 19.33 a .45 .45 0 0 1 0 -.09 c 13.92 11.7 28.54 9.26 28.54 9.26 s -2.23 -5.14 -3 -7.84 a 34.58 34.58 0 0 1 -1 -6.09 c -.86 -.17 -1.73 -.39 -2.58 -.64 a 22.48 22.48 0 0 1 -5.21 -2.49 13.36 13.36 0 0 1 -4.15 -4.05 .52 .52 0 0 1 .79 -.67 h .05 a 27.31 27.31 0 0 0 4.32 3 25.74 25.74 0 0 0 4.85 2.11 c .6 .17 1.2 .33 1.81 .48 a 27.99 27.99 0 0 1 .77 -8.13 4.16 4.16 0 0 1 1.19 -2.16 c 1.16 -.94 3 -.59 4.18 -1.45 s 1.42 -2.64 1.32 -4.16 a 98.45 98.45 0 0 0 -1.61 -10.35 c -1.63 -9.94 1.19 -16.27 4.32 -20.46 z m -12.87 19.31 c -.21 1.85 -1 3.28 -1.85 3.18 s -1.31 -1.66 -1.11 -3.51 1 -3.28 1.86 -3.19 1.31 1.67 1.1 3.52 z m 1.71 -9.72 a 1 1 0 0 1 -.36 .49 6.21 6.21 0 0 1 -1.33 .73 9.81 9.81 0 0 1 -1.34 .49 c -.91 .27 -1.8 .57 -2.7 .8 s -1.83 .45 -2.74 .68 a 11.33 11.33 0 0 1 -2.9 .32 1.08 1.08 0 0 1 -1 -1.13 1.05 1.05 0 0 1 .32 -.73 8.07 8.07 0 0 1 2.58 -1.68 22.95 22.95 0 0 1 2.86 -1 20.33 20.33 0 0 1 3 -.52 7.72 7.72 0 0 1 1.52 0 5.76 5.76 0 0 1 1.56 .28 1 1 0 0 1 .53 1.27 z"/><path d="m 174.4 180.33 c -6.25 -10.56 -14.35 -13.41 -22.36 -15 -6.49 -1.27 -4.09 -1.3 -19.54 -1.14 -8.46 -1.13 -24.77 -6.07 -35.7 -19.53 2.22 3.66 3.85 7.33 3.7 11.53 0 1.05 -1.18 7.88 -5.5 10.4 -5.75 .38 -13.94 .69 -17 .83 -.73 -.05 -1.46 -.07 -2.19 -.05 -18.81 .52 -43.75 26.86 -43.75 26.86 s 12.66 27.16 34.11 31.63 a 12.44 12.44 0 0 0 4.78 .08 c 0 .41 -.07 .83 -.11 1.24 .48 -5.34 1 -10.68 1.56 -15.85 a 8.33 8.33 0 0 1 3.32 3.29 c 2.43 4.22 3.21 9.16 4 14 3.59 22.9 7.78 46.25 19.12 66.46 l 1.04 1.92 a 77.08 77.08 0 0 0 10.16 .7 c 18.65 .06 44.43 -.92 54.47 -12.36 5.74 -6.53 -.21 -19.57 1 -30 a 7.21 7.21 0 0 1 .11 -.92 c 1 -9.4 2.14 -17.58 3.12 -24.74 a 63.47 63.47 0 0 0 24 -16.82 s -7.74 -14.6 -18.34 -32.53 z"/><path d="m 79.68 228.65 c -.76 -4.82 -1.54 -9.76 -4 -14 a 8.33 8.33 0 0 0 -3.32 -3.29 c -.55 5.17 -1.08 10.51 -1.56 15.85 v .44 c -.06 .75 -.13 1.5 -.19 2.24 v .47 l -.18 2.25 v .43 l -.18 2.26 v .41 c -.06 .79 -.11 1.58 -.17 2.37 v .27 c -.06 .83 -.12 1.66 -.17 2.48 v .17 c -.47 7.06 -.77 13.86 -.81 20 v 6.86 a 14.8 14.8 0 0 0 .06 1.64 v .41 a 10.07 10.07 0 0 0 .08 1.54 v .41 c 0 .49 .06 1 .1 1.44 v .41 c 0 .46 .08 .92 .12 1.36 v .4 c .05 .44 .1 .86 .15 1.28 v .37 a 7.88 7.88 0 0 0 .17 1.2 v .36 c .06 .38 .13 .75 .2 1.12 l .06 .32 c .07 .36 .15 .71 .22 1 a .44 .44 0 0 0 .07 .29 c .08 .34 .17 .66 .26 1 a 1.65 1.65 0 0 0 .07 .24 c .09 .32 .19 .61 .29 .9 v .16 c .59 1.05 1.19 2.08 1.82 3.11 l .06 .06 c .22 .2 .48 .41 .76 .64 l .3 .22 .66 .48 .41 .28 .74 .48 .49 .3 .91 .53 .48 .27 c .47 .26 1 .52 1.48 .78 l .68 .33 1 .48 .87 .39 1 .42 1 .4 1.06 .4 1.06 .39 1.29 .43 c .61 .2 1.23 .4 1.87 .59 l 1.29 .37 1.28 .34 1.26 .31 c .45 .1 .9 .21 1.36 .3 l 1.35 .28 1.4 .26 1.55 .25 c .44 .07 .87 .15 1.33 .21 l -1.08 -1.89 c -11.17 -20.22 -15.36 -43.57 -18.95 -66.47 z" opacity=".5"/><path d="m 34.9 199.49 l -3.25 2.38 c -1.58 1.15 -3.18 2.29 -4.82 3.37 -.37 -2.77 -1.09 -11.93 -1.09 -11.93 v -2.11 c -.23 -10 -.57 -18.14 2.77 -31 a 13 13 0 0 0 8.61 -7.4 c 1 -2.28 4.06 -10.45 4.14 -12.81 0 -1 -2.08 -1.68 -2.75 -.95 -1.69 1.86 -3.34 4.67 -5.21 5.59 a 1.79 1.79 0 0 1 -2.66 -.83 8 8 0 0 1 -.85 -4 c .08 -3.15 3.57 -21 4.14 -22.75 .8 -2.39 -1.8 -2.8 -3 -1.77 -2.21 2 -4 7.25 -5.1 12.33 a 3.79 3.79 0 0 0 -1.28 -.66 c -5.69 -1.14 -13.71 4 -14.06 10 -.51 8.67 1.71 11.05 3.18 17.34 a 7.42 7.42 0 0 0 .85 2.13 c -2.37 7.73 -7.87 28.15 -11.38 46 a 164.35 164.35 0 0 0 -3.14 22.87 16.46 16.46 0 0 0 1.24 7.46 c 1.62 7.47 9.74 12.79 23 8.93 6.72 -1.62 13 -4.72 19.14 -8 a 99.53 99.53 0 0 0 8.9 -5.42 c 2.4 -1.6 4.53 -3.13 6.78 -4.69 -11.72 -5.57 -20.06 -17.26 -24.16 -24.08 z" opacity=".8"/><path d="m 168.7 229.7 c -1 7.16 -2.07 15.34 -3.12 24.74 a 7.21 7.21 0 0 1 -.11 .92 c -.73 6.57 1.36 14.18 1.56 20.55 10 -8.89 19.33 -24.86 19.26 -49.16 0 -2.68 -.1 -5.13 -.26 -7.39 a 63.12 63.12 0 0 1 -17.33 10.34 z" opacity=".8"/><path d="m 124.84 130.94 h -.06 c -.91 -.1 -1.82 -.12 -2.72 -.18 a 26.77 26.77 0 0 1 -2.68 -.29 30.71 30.71 0 0 1 -5.2 -1.12 25.74 25.74 0 0 1 -4.85 -2.11 27.31 27.31 0 0 1 -4.32 -3 h -.05 a .52 .52 0 0 0 -.79 .67 13.36 13.36 0 0 0 4.15 4.05 22.48 22.48 0 0 0 5.21 2.49 25.58 25.58 0 0 0 5.66 1.06 9.77 9.77 0 0 0 1.43 .06 h 1.43 c .94 -.06 1.89 -.2 2.82 -.35 a .59 .59 0 0 0 0 -1.16 z" opacity=".15"/><path d="m 244 2.81 a 67.66 67.66 0 0 0 -68.46 108 l -4.81 20.48 22 -5.11 a 67.67 67.67 0 1 0 51.27 -123.37 z m -2 91.32 a 72.74 72.74 0 0 1 -3.9 7.43 c -1.26 -1.6 -1.91 -2.48 -3.24 -4.34 -3.14 1.8 -4.7 2.67 -7.77 4.34 -1.31 -1.71 -2 -2.65 -3.35 -4.61 -3.1 1.9 -4.64 2.82 -7.65 4.61 -1.44 -1.68 -2.17 -2.59 -3.65 -4.46 -2.89 1.85 -4.35 2.74 -7.36 4.46 -1.39 -1.74 -2 -2.65 -3.31 -4.51 -3 1.87 -4.53 2.77 -7.7 4.51 -1.23 -1.74 -1.82 -2.65 -3 -4.49 -3.1 1.85 -4.69 2.75 -8 4.49 a 60.67 60.67 0 0 0 4.38 -7.87 c 6.27 -21.32 6.21 -35.48 6.21 -57.57 a 6.29 6.29 0 0 1 6.29 -6.29 h 55.05 a 6.31 6.31 0 0 0 -1.91 .29 6.46 6.46 0 0 1 1.77 -.25 6.29 6.29 0 0 1 6.29 6.27 v 7.6 h -12.37 c .22 18.63 -.78 31.59 -6.78 50.39 z m 28.31 7.43 a 3.93 3.93 0 0 1 -2.88 1.15 4 4 0 0 1 -2.93 -1.15 3.84 3.84 0 0 1 -1.15 -2.83 3.75 3.75 0 0 1 1.15 -2.81 4 4 0 0 1 2.93 -1.12 3.94 3.94 0 0 1 2.88 1.12 3.75 3.75 0 0 1 1.15 2.81 3.84 3.84 0 0 1 -1.11 2.83 z m 8.37 -22.47 a 10.25 10.25 0 0 1 -1.66 2.68 34.06 34.06 0 0 1 -2.55 2.52 19.63 19.63 0 0 0 -2.88 3.06 5.32 5.32 0 0 0 -.95 3.16 h -6.44 a 7.88 7.88 0 0 1 1.25 -4.51 23.44 23.44 0 0 1 3.65 -4 19.69 19.69 0 0 0 2.73 -2.83 4.42 4.42 0 0 0 .89 -2.73 4.17 4.17 0 0 0 -1.72 -3.44 7.41 7.41 0 0 0 -4.64 -1.33 q -5.52 0 -8.32 3.93 l -4.95 -3.22 a 14.39 14.39 0 0 1 5.67 -4.61 19.25 19.25 0 0 1 8.16 -1.61 q 5.71 0 9.1 2.47 a 8 8 0 0 1 3.4 6.81 9.14 9.14 0 0 1 -.7 3.65 z"/><path d="m 248.78 43.76 h -.19 v -7.6 a 6.43 6.43 0 0 1 6.41 -6.33 h -55 a 6.29 6.29 0 0 0 -6.29 6.27 c 0 22.09 .06 36.25 -6.21 57.57 a 60.67 60.67 0 0 1 -4.38 7.87 c 3.31 -1.74 4.9 -2.64 8 -4.49 1.18 1.84 1.77 2.75 3 4.49 3.17 -1.74 4.7 -2.64 7.7 -4.51 1.28 1.86 1.92 2.77 3.31 4.51 3 -1.72 4.47 -2.61 7.36 -4.46 1.48 1.87 2.21 2.78 3.65 4.46 3 -1.79 4.55 -2.71 7.65 -4.61 1.37 2 2 2.9 3.35 4.61 3.07 -1.67 4.63 -2.54 7.77 -4.34 1.33 1.86 2 2.74 3.24 4.34 a 72.74 72.74 0 0 0 3.9 -7.43 c 5.95 -18.78 6.95 -31.74 6.73 -50.35 z m -27.94 37.36 a 4.12 4.12 0 0 0 -.69 -.7 4.4 4.4 0 0 0 -2 -.89 4.07 4.07 0 0 0 -.78 0 6.8 6.8 0 0 0 -5 2.42 h 4.87 c -.07 .23 -.12 .41 -.18 .59 s 0 .17 -.08 .27 l -.1 .32 h -5.32 a 7.14 7.14 0 0 0 -.39 1 4.72 4.72 0 0 0 -.12 .5 2.69 2.69 0 0 0 -.07 .48 h 5.29 a .87 .87 0 0 1 -.11 .32 c -.04 .1 -.11 .35 -.18 .55 s -.06 .2 -.1 .31 h -4.87 a 2.82 2.82 0 0 0 .74 1.37 3.12 3.12 0 0 0 .88 .62 4.12 4.12 0 0 0 1.82 .36 7.3 7.3 0 0 0 2.19 -.41 10.8 10.8 0 0 0 2.36 -1.16 c .09 .15 .17 .28 .25 .39 l .69 1.08 a 11.71 11.71 0 0 1 -1.52 .84 12.08 12.08 0 0 1 -1.6 .64 l -.81 .24 a 9.85 9.85 0 0 1 -2.33 .32 6.59 6.59 0 0 1 -2.11 -.3 4.15 4.15 0 0 1 -3 -4 h -2.1 c .08 -.24 .14 -.42 .19 -.59 s .12 -.35 .19 -.59 h 1.82 a 6.22 6.22 0 0 1 .22 -1 6.59 6.59 0 0 1 .37 -1 h -1.82 a 1.08 1.08 0 0 1 .09 -.32 l .24 -.86 h 2.14 a 9.44 9.44 0 0 1 2.39 -2.5 9.89 9.89 0 0 1 4.34 -1.77 q .6 -.08 1.21 -.09 h .72 a 7.58 7.58 0 0 1 2.05 .49 7.38 7.38 0 0 1 1.18 .63 5.4 5.4 0 0 1 .94 .84 z m 16.25 -12.12 h -35.69 v -1.66 h 35.69 z m 1.44 -8.72 h -35.68 v -1.7 h 35.68 z m .44 -8.87 h -35.69 v -1.66 h 35.72 z m 0 -8.8 h -35.69 v -1.61 h 35.72 z" opacity=".8"/><path d="m 248.59 36.14 v 7.6 h .19 c 0 -1.55 0 -3.13 -.06 -4.78 v -2.84 a 6.28 6.28 0 0 1 4.38 -6 6.3 6.3 0 0 0 -4.51 6.02 z"/><path d="m 218.38 89.38 a 12.08 12.08 0 0 1 -1.6 .64 12.08 12.08 0 0 0 1.6 -.64 z"/><path d="m 216.68 88.16 a 10.8 10.8 0 0 0 2.32 -1.09 10.8 10.8 0 0 1 -2.32 1.09 z"/><path d="m 220.15 80.45 a 4.4 4.4 0 0 0 -2 -.89 4.4 4.4 0 0 1 2 .89 z"/></g></svg>