<svg viewBox="0 0 300 300" xmlns="http://www.w3.org/2000/svg"><g fill="#fff"><path d="m 243.67 250.79 l -4.58 -9.73 a 3.68 3.68 0 0 0 -4.9 -1.76 l -1.39 .65 a 6 6 0 0 0 2.19 -7.6 l -5.39 -11.44 a 6 6 0 0 0 -7.42 -3.1 6 6 0 0 0 2.33 -7.7 l -5.39 -11.44 a 6 6 0 0 0 -7.83 -2.93 6 6 0 0 0 2.73 -7.91 l -5.39 -11.44 a 6 6 0 0 0 -7.88 -2.91 6 6 0 0 0 2.77 -7.94 l -5.39 -11.44 a 6 6 0 0 0 -7.98 -2.88 l -.02 .01 -71.33 33.61 c -8.21 5.26 -1.94 19.21 12.88 21.4 -13.3 5.89 -3.51 20 11.23 21.72 -13.52 6.33 -4.88 19.77 11.3 21.87 -16.75 7.88 -3.37 22.1 11.28 21.83 -10.07 5.53 -4.81 18.43 9.41 19 10 .39 34.27 -6 41.35 -8.92 l -.07 .06 c 13.12 -6.63 15.38 -9.53 21.39 -14 5.63 -4.27 9.1 -10.64 6.1 -17.01 z"/><path d="m 165.93 86.27 l -3.61 -7.65 a 1.6 1.6 0 0 1 .09 .36 c .56 5.25 -21.28 11.89 -48.79 14.82 -24.71 2.63 -45.52 1.37 -49.92 -2.71 .14 .25 .28 .5 .42 .78 11.61 22.86 18.17 35 29.28 36 h .41 l 68.81 -32.41 a 6.52 6.52 0 0 0 1.38 -.86 6.9 6.9 0 0 0 1.93 -8.33 z"/><path d="m 63.7 91.09 c 4.4 4.08 25.21 5.34 49.92 2.71 27.51 -2.93 49.38 -9.57 48.79 -14.8 a 1.6 1.6 0 0 0 -.09 -.36 l -.26 -.55 a 6 6 0 0 0 -2.67 -1.86 l -.6 -.23 c -.11 0 -.21 -.09 -.32 -.12 -7.74 -2.72 -25.93 -3.27 -46.87 -1 -24.32 2.59 -44.16 8.07 -48.06 12.94 a 2.78 2.78 0 0 0 -.71 1.66 l .09 .37 a 7.49 7.49 0 0 1 .78 1.24 z" opacity=".6"/><path d="m 97 14 a .1 .1 0 0 1 -.09 -.06 h .05 l -6.28 -13.3 c .49 1.06 -6.15 5.24 -14.84 9.36 s -16.14 6.56 -16.65 5.5 l 6.26 13.28 v .1 c .18 .37 .85 .49 1.9 .4 2.93 -.28 8.71 -2.28 15.1 -5.28 6.69 -3.16 12.07 -6.53 13.89 -8.57 .54 -.61 .78 -1.11 .66 -1.43 z"/><path d="m 90.68 .64 c -.64 -1 -8 1.47 -16.62 5.52 s -15.19 8.19 -14.84 9.3 c .51 1.06 8 -1.4 16.65 -5.5 s 15.3 -8.26 14.81 -9.32 z" opacity=".8"/><path d="m 114.36 41.61 c 12.56 8.92 12.94 13.29 18.07 13.39 2.21 0 .94 -3.68 -2.23 -7.93 a 57.84 57.84 0 0 0 -13.75 -12.07 c -4.22 -2.36 -10 -5.79 -12.75 -3.06 -2.07 2.06 5.16 5.76 10.66 9.67 z" opacity=".8"/><path d="m 159.12 71.82 c -11.49 -24.41 -34.63 -45.37 -60.74 -52.14 l -2 -4.27 c -1.82 2 -7.2 5.41 -13.89 8.57 -6.39 3 -12.17 5 -15.06 5.23 l 2 4.14 c -8.19 17.39 -11.43 34.65 -6.61 56.03 a 2.78 2.78 0 0 1 .71 -1.66 c 3.9 -4.87 23.74 -10.35 48.06 -12.94 20.94 -2.23 39.13 -1.68 46.87 1 a 1.05 1.05 0 0 1 .32 .12 l .6 .23 a 5.99 5.99 0 0 1 2.67 1.87 z m -26.69 -16.82 c -5.13 -.11 -5.51 -4.48 -18.07 -13.4 -5.5 -3.91 -12.73 -7.66 -10.66 -9.71 2.75 -2.73 8.53 .7 12.75 3.06 a 57.84 57.84 0 0 1 13.75 12.13 c 3.17 4.25 4.44 7.97 2.23 7.92 z" opacity=".4"/><path d="m 93.81 127.89 l -6.94 3.26 a 6.79 6.79 0 0 1 -1.54 .51 l -1.79 .85 a 2 2 0 0 0 -1.01 2.64 l .01 .02 24.85 52.76 a 2 2 0 0 0 2.64 1.01 l .03 -.01 9.11 -4.3 .63 -.34 c -3 1.63 -3.22 .6 -5.36 -3.92 -10.52 -22.28 -19.44 -41.27 -21.59 -46.19 -2.08 -4.69 -.11 -5.79 1 -6.29" opacity=".4"/><path d="m 174.9 290.65 c -14.22 -.56 -19.48 -13.46 -9.41 -19 -14.65 .27 -28 -14 -11.28 -21.83 -16.18 -2.1 -24.82 -15.54 -11.3 -21.87 -14.74 -1.74 -24.53 -15.83 -11.23 -21.72 -14.82 -2.19 -21.09 -16.14 -12.88 -21.4 l -6.44 3 a 6 6 0 0 0 -2.88 7.98 l .01 .02 5.39 11.44 a 6 6 0 0 0 7.88 2.91 6 6 0 0 0 -2.77 7.94 l 5.39 11.44 a 6 6 0 0 0 7.83 2.93 6 6 0 0 0 -2.73 7.91 l 5.39 11.44 a 6 6 0 0 0 7.42 3.1 6 6 0 0 0 -2.33 7.7 l 5.39 11.44 a 6 6 0 0 0 7.23 3.16 l -1.37 .64 a 3.68 3.68 0 0 0 -1.76 4.9 l 4.58 9.73 c 3 6.37 10.36 8.55 17 6.1 9.17 -3.4 20.79 -5.76 36.8 -13.26 2.81 -1.32 5.24 -2.5 7.39 -3.59 l .07 -.06 c -7.12 2.93 -31.41 9.3 -41.39 8.95 z" opacity=".8"/><path d="m 93.4 127.86 c -11.11 -1 -17.67 -13.13 -29.28 -36 -.14 -.28 -.28 -.53 -.42 -.78 a 2.92 2.92 0 0 1 -.69 -.93 117.02 117.02 0 0 0 7.85 23.23 l 6.81 14.45 a 6.9 6.9 0 0 0 7.66 3.82 6.79 6.79 0 0 0 1.54 -.51 l 6.94 -3.26 z" opacity=".8"/><path d="m 193.32 147.47 l -24.85 -52.76 a 2 2 0 0 0 -2.64 -1.01 l -.02 .01 -1.81 .89 a 6.52 6.52 0 0 1 -1.38 .88 s -68.75 32.41 -68.81 32.41 c -1.06 .49 -3 1.6 -1 6.29 2.19 4.92 11.07 23.91 21.63 46.15 2.14 4.52 2.38 5.55 5.36 3.92 l -.63 .34 73.16 -34.46 a 2 2 0 0 0 1 -2.65 z m -44.32 12.53 a 14.38 14.38 0 0 1 -19.85 -3.77 21.1 21.1 0 0 1 -2.07 -3.73 c -3 -7.08 -1.34 -19.09 3.26 -30.69 .37 .51 .73 1 1.09 1.44 l .16 .21 c .35 .44 .68 .85 1 1.24 l .18 .21 c .34 .39 .67 .76 1 1.11 l .11 .11 c .33 .36 .67 .69 1 1 .33 .33 .66 .63 1 .92 l .12 .11 c .33 .28 .64 .54 1 .79 l .1 .08 a 19.24 19.24 0 0 0 2 1.41 43.57 43.57 0 0 0 5.08 2.77 l .9 .45 .14 .07 c .33 .17 .66 .34 1 .52 l .12 .07 c .33 .18 .66 .37 1 .57 l .09 .06 a 9.28 9.28 0 0 1 1 .69 16.99 16.99 0 0 1 4.37 4.46 14.15 14.15 0 0 1 .74 1.25 c .08 .15 .14 .32 .22 .48 s .26 .53 .38 .81 .15 .43 .23 .65 .16 .44 .23 .67 .14 .52 .2 .78 .1 .37 .14 .55 .1 .61 .14 .91 .05 .3 .06 .44 a 5.49 5.49 0 0 0 .06 1 v 1.45 a 1.62 1.62 0 0 0 0 .22 6.92 6.92 0 0 1 -.16 1.2 v .13 c -.08 .42 -.17 .85 -.28 1.26 a 14.06 14.06 0 0 1 -5.76 8.1 z" opacity=".6"/><path d="m 149.69 155.28 c .33 -5.15 .14 -11.05 -3.6 -15 -1.89 -2 -4.54 -3.33 -5.92 -5.72 a 9.05 9.05 0 0 1 -1.09 -4 c -.64 -.41 -1.29 -.88 -2 -1.41 l -.08 -.15 c -.32 -.25 -.63 -.51 -1 -.79 l -.12 -.11 c -.33 -.29 -.66 -.59 -1 -.92 -.33 -.32 -.67 -.65 -1 -1 l -.11 -.11 c -.33 -.35 -.66 -.72 -1 -1.11 l -.18 -.21 c -.34 -.39 -.67 -.8 -1 -1.24 l -.16 -.21 c -.36 -.46 -.72 -.93 -1.09 -1.44 -4.6 11.6 -6.3 23.61 -3.26 30.69 a 21.1 21.1 0 0 0 2.07 3.73 14.38 14.38 0 0 0 19.85 3.72 l .32 -.24 c -.24 -1.4 .29 -3.24 .37 -4.48 z m -15.23 1.72 c -4.32 -3.1 -7.66 -10.2 -2.68 -26.42 a .31 .31 0 1 1 .61 .14 c -.69 4.56 -1.34 15.81 4.6 23.62 a 1.86 1.86 0 0 1 -2.53 2.66 z"/><path d="m 132.39 130.76 a .31 .31 0 1 0 -.61 -.14 c -5 16.22 -1.64 23.32 2.68 26.42 a 1.86 1.86 0 0 0 2.53 -2.66 c -5.94 -7.81 -5.29 -19.06 -4.6 -23.62 z" opacity=".6"/><path d="m 155 150.75 v -.13 c .07 -.39 .12 -.79 .16 -1.2 a 1.62 1.62 0 0 1 0 -.22 v -1.45 a 5.49 5.49 0 0 0 -.06 -1 1.14 1.14 0 0 0 -.06 -.44 c -.06 -.15 -.08 -.6 -.14 -.91 a 5.26 5.26 0 0 0 -.14 -.55 c -.05 -.19 -.12 -.52 -.2 -.78 s -.15 -.45 -.23 -.67 -.15 -.44 -.23 -.65 -.25 -.55 -.38 -.81 -.14 -.33 -.22 -.48 a 14.15 14.15 0 0 0 -.74 -1.25 16.99 16.99 0 0 0 -4.37 -4.46 c -.34 -.25 -.69 -.47 -1 -.69 l -.09 -.06 c -.32 -.2 -.65 -.39 -1 -.57 l -.12 -.07 c -.32 -.18 -.65 -.35 -1 -.52 l -.14 -.07 -.9 -.45 a 43.57 43.57 0 0 1 -5.08 -2.77 9.05 9.05 0 0 0 1.09 4 c 1.38 2.39 4 3.71 5.92 5.72 3.74 4 3.93 9.89 3.6 15 -.08 1.24 -.61 3.08 -.36 4.52 a 14.1 14.1 0 0 0 5.37 -7.75 c .14 -.44 .23 -.87 .32 -1.29 z" opacity=".8"/></g></svg>