<svg enable-background="new 0 0 89.7200012 69.3730011" viewBox="0 0 89.72 69.37" xmlns="http://www.w3.org/2000/svg"><g fill="#fff"><path d="m 4.74 39.97 l -.84 -3.19 -2.45 -1.27 -1.44 3.99 3.93 2.23 h 4.19 l .04 -.03 z"/><path d="m 89.72 56.01 l -3.2 -6.94 -3.32 -16.57 -3.17 -5.3 -12.21 -3.18 -12.53 1.39 -8.25 -1.63 -5.63 -2.56 h -1.57 v -1.64 l -3.01 -2.1 -4.32 .26 2.49 -1.44 -3.8 -2.36 h -5.11 l 1.7 -1.7 -4.85 -1.97 -2.88 .52 1.57 -1.7 -7.86 -.52 -13.77 -8.57 1.97 7.73 7.09 5.31 -4.99 9.43 v 5.76 l -.92 2.55 5.22 3.56 1.61 5.54 8.89 -8.89 11.01 9.91 3.41 6.94 .06 18.32 -3.21 3.21 h 9.69 l 1.75 -4.98 1.4 -11.7 3.5 -7.69 20.06 3.59 .61 4.52 v 13.17 l -3.08 3.08 h 10.28 l .92 -4.59 -.71 -2.88 .65 -9.87 5.61 -10.55 -.24 -8.27 -.92 -3.93 1.53 3.73 1.43 17.73 2.94 6.25 -.13 -5.62 z m -79.01 -29.78 h -2.18 l -1.09 -1.89 1.09 -1.89 h 2.18 l 1.09 1.89 z"/></g></svg>