<svg viewBox="0 0 300 300" xmlns="http://www.w3.org/2000/svg"><g fill="#fff"><path d="m 135.08 86.53 c 25.88 -9.81 49.93 -15.09 65 -15 4.32 -4.57 6.21 -8.61 5 -11.69 a 4.8 4.8 0 0 0 -.26 -.57 l .2 -.08 c -5.26 -9.36 -40.75 -5 -80.56 10.1 -5.73 2.18 -11.21 4.55 -16.41 7.06 l 12.4 16.37 c 4.7 -2.19 9.55 -4.27 14.63 -6.19 z" fill-rule="evenodd" opacity=".86"/><path d="m 110.86 97.54 l -12.33 -16.28 c -26.27 14.44 -42.67 31.4 -39.62 39.26 1.11 2.84 4.66 4.19 10.08 4.32 h 1.12 c 1.41 0 2.92 -.1 4.54 -.26 6.85 -8.24 19.68 -18.17 36.21 -27.04 z" fill-rule="evenodd" opacity=".86"/><path d="m 144.8 124.8 l -9.8 -12.94 a 56.83 56.83 0 0 1 -4.77 6.16 11.8 11.8 0 0 1 -2.23 2.08 l 8.32 11 a 20.96 20.96 0 0 0 3 -1.63 c 1.9 -1.31 3.31 -3.81 5.48 -4.67 z" opacity=".9"/><path d="m 94.9 58.92 l -7.9 -10.42 a 57.4 57.4 0 0 1 -3.65 4.55 10.1 10.1 0 0 1 -2.68 2.33 4.89 4.89 0 0 1 -1.39 .48 l 6.87 9.07 a 24.82 24.82 0 0 0 4.93 -2.43 c 1.39 -.92 2.5 -2.5 3.82 -3.58 z"/><path d="m 161.58 146.94 l -10.12 -13.36 a .51 .51 0 0 1 -.05 .08 55.92 55.92 0 0 1 -5.11 6.68 13.96 13.96 0 0 1 -1.74 1.69 l 8.44 11.18 a 22.33 22.33 0 0 0 3.69 -1.93 c 1.76 -1.15 3.08 -3.28 4.89 -4.34 z" opacity=".9"/><path d="m 111.49 80.82 l -9.41 -12.43 a 57.88 57.88 0 0 1 -4 5 10.26 10.26 0 0 1 -2.68 2.32 4.98 4.98 0 0 1 -.82 .35 l 8.29 10.94 a 23.34 23.34 0 0 0 4.29 -2.17 c 1.55 -1.05 2.77 -2.89 4.33 -4.01 z"/><path d="m 128.12 102.77 l -9.58 -12.65 a 55.97 55.97 0 0 1 -4.38 5.59 10.27 10.27 0 0 1 -2.68 2.29 l -.18 .08 8.28 10.93 a 21.48 21.48 0 0 0 3.64 -1.92 c 1.78 -1.09 3.06 -3.28 4.9 -4.32 z"/><path d="m 64.32 18.55 l -13.53 -17.86 c .36 1.12 -.49 3.24 -2.17 5.22 s -3.8 3.23 -4.94 2.95 l 11.94 15.75 a 24.08 24.08 0 0 0 4.77 -2.37 c 1.42 -.94 2.61 -2.55 3.93 -3.69 z"/><path d="m 193.12 188.57 l -8.91 -11.76 a 54.77 54.77 0 0 1 -4.09 5.16 10.1 10.1 0 0 1 -2.68 2.33 4.66 4.66 0 0 1 -.64 .28 l 7.48 9.87 a 25.75 25.75 0 0 0 5.39 -2.6 32.02 32.02 0 0 0 3.45 -3.28 z" opacity=".9"/><path d="m 216 218.83 a 55.55 55.55 0 0 1 -4 5.17 10.1 10.1 0 0 1 -2.68 2.33 5.41 5.41 0 0 1 -.69 .3 l 16.17 21.35 6.41 -4.85 2 -1.55 z" opacity=".9"/><path d="m 177.06 167.38 l -8.58 -11.33 a 57.13 57.13 0 0 1 -4.74 6.12 11.35 11.35 0 0 1 -2.33 2.1 l 7 9.17 a 24.54 24.54 0 0 0 4.76 -2.36 c 1.37 -.95 2.52 -2.57 3.89 -3.7 z" opacity=".9"/><path d="m 208.89 209.39 l -8.53 -11.25 a 57.9 57.9 0 0 1 -3.68 4.6 10.1 10.1 0 0 1 -2.68 2.33 4.73 4.73 0 0 1 -1.32 .47 l 7.5 9.9 a 24.98 24.98 0 0 0 4.8 -2.38 c 1.41 -.94 2.55 -2.54 3.91 -3.67 z" opacity=".9"/><path d="m 79.76 38.93 l -8.29 -10.93 a 59.38 59.38 0 0 1 -4.07 5.15 10.55 10.55 0 0 1 -2.68 2.32 3.98 3.98 0 0 1 -.67 .29 l 6.85 9 a 26.33 26.33 0 0 0 5.45 -2.63 31.17 31.17 0 0 0 3.41 -3.2 z"/><path d="m 67.4 33.14 a 59.43 59.43 0 0 0 4.07 -5.14 l -7.15 -9.44 c -1.37 1.14 -2.51 2.75 -3.93 3.69 a 24.08 24.08 0 0 1 -4.77 2.37 l 8.43 11.14 a 3.98 3.98 0 0 0 .67 -.29 10.59 10.59 0 0 0 2.68 -2.33 z" opacity=".7"/><path d="m 83.36 53.05 a 57.23 57.23 0 0 0 3.64 -4.55 l -7.25 -9.57 a 31.17 31.17 0 0 1 -3.41 3.23 26.33 26.33 0 0 1 -5.45 2.63 l 8.39 11.07 a 4.89 4.89 0 0 0 1.39 -.48 10.09 10.09 0 0 0 2.69 -2.33 z" opacity=".7"/><path d="m 98.1 73.4 a 57.88 57.88 0 0 0 4 -5 l -7.2 -9.48 c -1.32 1.12 -2.43 2.66 -3.81 3.58 a 24.82 24.82 0 0 1 -4.93 2.43 l 8.44 11.14 a 4.98 4.98 0 0 0 .82 -.35 10.26 10.26 0 0 0 2.68 -2.32 z" opacity=".7"/><path d="m 114.16 95.71 a 55.97 55.97 0 0 0 4.38 -5.59 l -7.05 -9.3 c -1.56 1.12 -2.78 3 -4.33 4 a 23.32 23.32 0 0 1 -4.29 2.18 l 8.43 11.13 .18 -.08 a 10.27 10.27 0 0 0 2.68 -2.34 z" opacity=".7"/><path d="m 146.3 140.34 a 55.92 55.92 0 0 0 5.11 -6.68 .51 .51 0 0 0 .05 -.08 l -6.66 -8.78 c -2.17 .86 -3.58 3.36 -5.51 4.65 a 20.96 20.96 0 0 1 -3 1.63 l 8.27 10.92 a 13.86 13.86 0 0 0 1.74 -1.66 z" opacity=".6"/><path d="m 163.74 162.17 a 57.13 57.13 0 0 0 4.74 -6.12 l -6.9 -9.11 c -1.81 1.06 -3.13 3.19 -4.85 4.34 a 22.33 22.33 0 0 1 -3.69 1.93 l 8.37 11.06 a 11.35 11.35 0 0 0 2.33 -2.1 z" opacity=".6"/><path d="m 180.12 182 a 54.77 54.77 0 0 0 4.09 -5.16 l -7.15 -9.43 c -1.37 1.13 -2.52 2.75 -3.94 3.7 a 24.54 24.54 0 0 1 -4.76 2.36 l 8.44 11.14 a 4.66 4.66 0 0 0 .64 -.28 10.1 10.1 0 0 0 2.68 -2.33 z" opacity=".6"/><path d="m 196.68 202.74 a 57.9 57.9 0 0 0 3.68 -4.6 l -7.24 -9.57 a 32.02 32.02 0 0 1 -3.45 3.28 25.75 25.75 0 0 1 -5.39 2.6 l 8.4 11.09 a 4.73 4.73 0 0 0 1.32 -.47 10.1 10.1 0 0 0 2.68 -2.33 z" opacity=".6"/><path d="m 212 224 a 55.75 55.75 0 0 0 4.06 -5.12 l -7.15 -9.44 c -1.36 1.13 -2.5 2.73 -3.91 3.67 a 24.98 24.98 0 0 1 -4.8 2.38 l 8.43 11.14 a 5.41 5.41 0 0 0 .69 -.3 10.1 10.1 0 0 0 2.68 -2.33 z" opacity=".6"/><ellipse cx="46.86" cy="4.41" opacity=".25" rx="5.57" ry="2.31" transform="matrix(.64971344 -.76017922 .76017922 .64971344 13.06 37.17)"/><g fill-rule="evenodd"><path d="m 132.49 108.54 c 2 -.75 4.07 -1.5 6.13 -2.28 28.43 -10.78 51.51 -24.17 61.5 -34.74 -15.11 -.08 -39.16 5.2 -65 15 -5.06 1.92 -9.93 4 -14.58 6.18 z" opacity=".5"/><path d="m 110.86 97.54 c -16.53 8.87 -29.36 18.8 -36.22 27 11.59 -1.12 28.41 -5.73 47.39 -12.3 z" opacity=".5"/><path d="m 205.32 59.08 l -.45 .18 a 4.8 4.8 0 0 1 .26 .57 c 4 10.21 -25.81 31 -66.51 46.43 q -3.09 1.17 -6.13 2.28 l 59.23 78.19 c 16.87 -2.56 35.58 6.45 49.33 59.87 -4.39 22.43 -53.17 41.68 -78.83 38.31 l -83.62 -150.83 c 18.07 18.93 71.69 -9.61 71.69 47.26 0 26.93 13.19 15.15 30.47 8.46 l -58.76 -77.52 c -31.16 10.8 -56.48 16.29 -62.43 9.77 l 95.21 172.95 c 21.73 15 93.52 -7.5 99.22 -38 z"/><path d="m 191.72 186.73 l 41.51 54.8 -2 1.55 -6.41 4.85 -44 -58.13 c -17.28 6.69 -30.47 18.47 -30.47 -8.46 0 -56.87 -53.62 -28.33 -71.69 -47.26 l 83.62 150.83 c 25.66 3.37 74.44 -15.88 78.83 -38.31 -13.81 -53.42 -32.52 -62.43 -49.39 -59.87 z" opacity=".8"/></g><path d="m 128.12 102.77 c -1.84 1 -3.16 3.2 -4.9 4.36 a 21.48 21.48 0 0 1 -3.64 1.92 l 2.47 3.26 q 5.13 -1.78 10.46 -3.74 z" opacity=".7"/><path d="m 130.23 118 a 56.83 56.83 0 0 0 4.77 -6.16 l -2.49 -3.29 q -5.32 2 -10.46 3.74 l 5.9 7.79 a 11.82 11.82 0 0 0 2.28 -2.08 z" opacity=".6"/></g></svg>