<svg enable-background="new 0 0 320 360" height="360" viewBox="0 0 320 360" width="320" xmlns="http://www.w3.org/2000/svg"><g fill="#fff"><path d="m 75.22 129.13 l -.67 64.36 c 0 11.67 .28 17.79 .83 18.34 1.89 -.11 3.75 -.17 5.59 -.17 1.83 0 2.86 .11 3.08 .33 .56 2.33 .83 5.73 .83 10.17 0 4.45 -.28 6.67 -.83 6.67 h -4.17 c -10.45 0 -19.79 .61 -28.01 1.83 l -4.5 .67 c -.56 -.44 -.83 -3.19 -.83 -8.25 s .33 -7.92 1 -8.59 l 6.84 -1.17 c -.11 -1.56 -.17 -4.45 -.17 -8.67 l .67 -47.02 c 0 -9.89 -.39 -15.23 -1.17 -16.01 -.11 -.11 -.61 -.17 -1.5 -.17 s -2.53 .2 -4.92 .58 c -2.39 .39 -4.56 .81 -6.5 1.25 -1.95 .45 -3 .67 -3.17 .67 s -.25 -2.11 -.25 -6.34 c 0 -4.22 .56 -6.89 1.67 -8 s 6.7 -3.53 16.76 -7.25 16.2 -5.59 18.42 -5.59 c .33 0 .5 .06 .5 .17 .33 .36 .5 4.41 .5 12.19 z"/><path d="m 178.17 137.8 c 3.72 5.89 6.59 12.28 8.59 19.17 s 3 14.59 3 23.09 -1.45 16.45 -4.34 23.84 -6.73 12.98 -11.51 16.76 c -9.34 7.45 -19.84 11.17 -31.51 11.17 -15.9 0 -28.24 -5.61 -37.01 -16.84 -3.11 -3.89 -5.64 -9.06 -7.59 -15.51 s -2.92 -14.06 -2.92 -22.84 1.67 -17.59 5 -26.43 c 3.34 -8.84 8.73 -16.42 16.17 -22.76 7.45 -6.34 16.23 -9.5 26.34 -9.5 7.67 0 14.62 1.83 20.84 5.5 6.24 3.68 11.21 8.46 14.94 14.35 z m -54.52 67.86 c 4.39 6.11 10.64 9.17 18.76 9.17 8.11 0 14.37 -3.06 18.76 -9.17 s 6.59 -15.34 6.59 -27.68 -2.42 -22.51 -7.25 -30.51 c -4.84 -8 -10.87 -12 -18.09 -12 -7.23 0 -13.26 4 -18.09 12 -4.84 8 -7.25 18.17 -7.25 30.51 -.02 12.34 2.18 21.57 6.57 27.68 z"/><path d="m 283.04 137.8 c 3.72 5.89 6.59 12.28 8.59 19.17 s 3 14.59 3 23.09 -1.45 16.45 -4.34 23.84 -6.73 12.98 -11.5 16.76 c -9.34 7.45 -19.84 11.17 -31.51 11.17 -15.9 0 -28.23 -5.61 -37.01 -16.84 -3.11 -3.89 -5.64 -9.06 -7.59 -15.51 s -2.92 -14.06 -2.92 -22.84 1.67 -17.59 5 -26.43 c 3.34 -8.84 8.73 -16.42 16.17 -22.76 7.45 -6.34 16.23 -9.5 26.34 -9.5 7.67 0 14.62 1.83 20.84 5.5 6.23 3.68 11.21 8.46 14.93 14.35 z m -54.52 67.86 c 4.39 6.11 10.64 9.17 18.76 9.17 8.11 0 14.37 -3.06 18.76 -9.17 s 6.59 -15.34 6.59 -27.68 -2.42 -22.51 -7.25 -30.51 c -4.84 -8 -10.87 -12 -18.09 -12 -7.23 0 -13.26 4 -18.09 12 -4.84 8 -7.25 18.17 -7.25 30.51 -.01 12.34 2.18 21.57 6.57 27.68 z"/></g></svg>