<svg viewBox="0 0 300 300" xmlns="http://www.w3.org/2000/svg"><g fill="#fff"><path d="m 199.26 45.67 l -22.39 -17.57 22.44 -13.6 21.73 13.52 z"/><path d="m 172.16 24.86 l -19.48 21.34 -27.61 -9.37 20.05 -20.81 z"/><path d="m 83.43 214.41 a 28.66 28.66 0 0 1 6.66 -10.59 c 5.38 -5.29 12.78 -7.91 19.92 -10.38 8.24 -2.85 16.69 -5.73 25.41 -5.54 7.1 .15 14 2.35 21.09 2.83 18.49 1.28 36.19 -9.39 48 -23.69 s 18.63 -31.94 25.08 -49.3 c 3.77 -10.15 9.12 -21.7 18.37 -25.93 3.34 6.59 7.32 15.27 10.86 23.28 -5.44 -12.19 -11.82 -25.94 -15.47 -31.49 -7.19 -10.93 -18.71 -32.09 -18.71 -32.09 2.77 10.91 -31.92 29.14 -77.49 40.73 s -84.77 12.14 -87.54 1.24 c 0 0 -.28 27 -.3 44 0 10.38 3.42 33 5.27 44.37 a 42.87 42.87 0 0 0 1.15 6.9 c 3.59 14.09 14.14 25.28 29.1 32.73 a 68.7 68.7 0 0 1 -11.4 -7.07 z" opacity=".8"/><path d="m 299.9 221.23 l -30.2 17.28 -29.77 -17.08 .03 10.6 2.66 .08 -18.98 29.16 -34.28 -1.6 13.92 26.9 34.1 1.67 18.1 -27.61 14.12 8.15 30.4 -17.26 z" opacity=".8"/><path d="m 299.9 221.23 l -30.2 17.28 -29.77 -17.08 29.68 -16.88 z"/><path d="m 242.62 232.11 l -18.98 29.16 -34.28 -1.6 18.7 -28.57 z"/><path d="m 94.24 82.81 l 23.57 -26.5 -4.21 -16.56 -40.37 10.26 4.71 18.49 z" opacity=".8"/><path d="m 174.64 84 l 21.26 -17.7 -25.05 -30.06 -30.08 25 22.12 26.55 c 4.05 -1.18 7.98 -2.46 11.75 -3.79 z"/><path d="m 221 28 l -21.74 17.67 -22.39 -17.57 v 15.4 l 19 22.82 -7.13 5.93 h 14.06 c 2.56 -1.32 4.94 -2.63 7.1 -3.94 l .17 -.1 c .78 -.47 1.53 -.94 2.26 -1.41 l .23 -.15 c 1.15 -.75 2.23 -1.5 3.23 -2.24 l .32 -.23 c .53 -.4 1 -.79 1.52 -1.18 l .41 -.34 c .43 -.35 .84 -.71 1.23 -1.06 l .4 -.36 .67 -.64 c .26 -.25 .5 -.5 .73 -.74 z" opacity=".8"/><path d="m 149 81.91 l -30.14 -26.77 -24.62 27.67 -78.43 -68.81 a 9.63 9.63 0 0 0 -13.54 1.15 9.62 9.62 0 0 0 1.12 13.54 l 88.53 72.46 c 5 -.23 10.57 -.71 16.43 -1.44 l .82 -.11 1.78 -.23 1.41 -.2 .47 -.06 c 7.84 -1.12 16.22 -2.66 24.94 -4.62 z"/><path d="m 176.91 43.51 l -4.75 -18.65 -19.48 21.34 -27.61 -9.37 7.83 30.81 8.91 7.92 8.95 -2.28 -9.99 -11.99 30.08 -25.05 z" opacity=".8"/><path d="m 169.12 85.88 c 16.75 -5.47 30.94 -11.64 40.81 -17.59 -2.16 1.31 -4.54 2.62 -7.1 3.94 h -14.06 l 7.13 -5.93 -21.26 17.7 c -1.8 .65 -3.64 1.27 -5.52 1.88 z" opacity=".3"/><path d="m 132.9 67.63 l -3.27 -12.88 q -4.3 1.19 -8.45 2.46 z" opacity=".3"/><path d="m 67.58 81.23 c -5.9 4.53 -8.85 8.76 -8 12.25 1.52 6 13.93 8.49 32.31 7.67 z" opacity=".3"/><path d="m 224.64 51.51 a 6.94 6.94 0 0 0 -3.56 -4.09 v 12.42 c -.23 .24 -.47 .49 -.73 .74 l -.67 .64 -.4 .36 c -.39 .35 -.8 .71 -1.23 1.06 l -.41 .34 c -.48 .39 -1 .78 -1.52 1.18 h -.06 c 6.31 -4.65 9.49 -9.05 8.58 -12.65 z" opacity=".3"/><path d="m 162.89 87.84 l -22.12 -26.55 10 12 -8.95 2.28 7.18 6.34 -11.23 12.58 c 3.09 -.7 6.21 -1.45 9.38 -2.25 7.52 -1.92 14.75 -4 21.56 -6.23 q -2.86 .93 -5.82 1.83 z" opacity=".3"/><path d="m 183.27 226.87 c 55.94 -14.22 94 -54.36 85 -89.64 a 42.73 42.73 0 0 0 -5 -11.83 c -4.28 -9.93 -10.49 -24 -15.37 -33.59 -9.25 4.23 -14.6 15.78 -18.37 25.93 -6.45 17.36 -13.3 35 -25.08 49.3 s -29.47 25 -48 23.69 c -7.08 -.48 -14 -2.68 -21.09 -2.83 -8.72 -.19 -17.17 2.69 -25.41 5.54 -7.14 2.47 -14.54 5.09 -19.92 10.38 a 28.65 28.65 0 0 0 -6.66 10.59 c 21.98 16.86 60.09 22.59 99.9 12.46 z" opacity=".6"/></g></svg>