<svg enable-background="new 0 0 266.2001953 900.7998047" viewBox="0 0 266.2 900.8" xmlns="http://www.w3.org/2000/svg"><path d="m 259.1 547.85 c 0 -49.35 -10.5 -97.65 -27.3 -143.85 -9.45 -26.25 -21 -51.45 -30.45 -77.7 -15.75 -43.05 -24.15 -88.2 -26.25 -135.45 0 -8.4 0 -16.8 -1.05 -26.25 v 1.05 c -1.05 -24.15 -1.05 -48.3 -1.05 -71.4 0 -8.4 0 -17.85 0 -26.25 0 0 0 -1.05 0 -3.15 0 -4.2 2.1 -7.35 3.15 -11.55 0 -2.1 1.05 -3.15 1.05 -5.25 0 -5.25 0 -10.5 0 -15.75 0 -3.15 -2.1 -6.3 -3.15 -10.5 -1.05 -2.1 -1.05 -5.25 -1.05 -7.35 0 -4.2 -2.1 -6.3 -5.25 -7.35 -4.2 -1.05 -10.5 -2.1 -14.7 -2.1 -17.85 0 -26.25 0 -43.05 0 -4.2 0 -7.35 1.05 -11.55 2.1 s -6.3 3.15 -5.25 7.35 c 0 2.1 0 5.25 -1.05 7.35 -1.05 3.15 -2.1 6.3 -3.15 10.5 v 15.75 c 0 2.1 1.05 3.15 1.05 5.25 1.05 4.2 3.15 8.4 3.15 12.6 0 33.6 -1.05 66.15 -2.1 99.75 v 16.8 c -1.05 13.65 -2.1 28.35 -3.15 42 -6.3 50.4 -19.95 98.7 -40.95 144.9 -28.35 61.95 -42 126 -42 193.2 v 240.45 c 0 18.9 1.05 37.8 2.1 56.7 1.05 15.75 8.4 24.15 23.1 27.3 3.15 1.05 7.35 1.05 10.5 2.1 46.2 6.3 91.35 8.4 137.55 5.25 18.9 -1.05 37.8 -4.2 56.7 -6.3 13.65 -2.1 21 -9.45 23.1 -24.15 2.1 -12.6 3.15 -25.2 3.15 -37.8 -1.05 -91.35 -1.05 -184.8 -2.1 -278.25 z" fill="#fff"/></svg>