<svg enable-background="new 0 0 324.0986938 682.1362915" viewBox="0 0 324.1 682.14" xmlns="http://www.w3.org/2000/svg"><g fill="#fff"><path d="m 171.64 7.18 c -2.75 1.93 -6.11 2.03 -9.33 2.32 -5.86 .27 -11.18 3.26 -15.78 6.69 -4.8 3.81 -5.22 10.32 -6.36 15.88 -1.1 5.7 1.68 10.96 3.98 15.96 -.26 4.87 -6.11 7.47 -5.91 12.47 1.3 2.22 3.81 3.09 5.98 4.17 .43 3.56 1.37 7.01 2.67 10.34 1.49 3.47 .62 7.28 1.19 10.91 3.38 2.67 7.86 2.98 11.63 4.91 3.71 .78 8.12 .85 10.76 3.99 1.4 1.55 2.47 3.38 3.33 5.27 2.07 5.27 -.02 10.87 .26 16.32 -5.74 8.87 -12.07 17.39 -19.29 25.11 -2.97 2.39 -5.98 4.73 -8.65 7.45 -4.83 -2.6 -9.33 -5.75 -14.02 -8.59 -.13 -3.17 2.55 -5.22 3.78 -7.89 2.14 -3.75 4 -9.15 .67 -12.78 -4.78 -4.01 -11.42 -3.94 -17.3 -4.72 -6.66 .15 -13.67 -1.6 -20.03 1 -2.09 3.13 1.54 6.76 -1.79 9.36 .44 .47 1.32 1.4 1.76 1.87 -.77 2.3 -2.81 4.5 -1.32 6.99 -.81 1.88 -.86 4.67 -3.16 5.38 -3.38 1.03 -6.93 1.23 -10.43 1.54 -.93 -2.65 -.83 -5.45 -.92 -8.21 -1.5 -1.47 -3.39 -2.45 -5.11 -3.62 -3.32 .04 -6.64 .18 -9.95 -.01 -3.72 -1.95 -8.02 -1.13 -12.04 -1.3 -4.33 -.15 -8.55 1.01 -12.69 2.09 -2.09 1.04 -4.03 2.35 -5.48 4.2 .33 3.86 1.1 7.69 .74 11.58 -2.91 1.01 -5.94 1.68 -8.74 3.01 -2.72 1.25 -5.12 3.26 -8.15 3.75 -5.68 .8 -11.31 1.88 -16.94 2.97 1.1 2.39 1.79 4.94 2.39 7.49 1.11 -.03 2.22 -.06 3.33 -.08 .42 .49 1.28 1.49 1.7 1.99 4.03 -.56 7.72 .97 11.38 2.38 1.22 .81 2.4 1.67 3.56 2.56 1.91 .33 4.17 -.15 5.7 1.29 2.04 1.83 5.18 1.95 6.85 4.23 2.21 3.11 6.22 4.48 9.91 3.61 .39 -.51 1.17 -1.54 1.56 -2.05 1.98 .22 4.14 .87 5.7 -.89 1.56 .4 3.13 .79 4.72 1.1 .49 -.5 1.49 -1.49 1.99 -1.99 4.15 .48 8.29 -.54 12.46 -.24 4.63 -.21 9.06 1.29 13.37 2.8 4.81 1.44 9.47 3.43 13.78 6.02 4.73 2.81 8.29 7.26 13.3 9.66 5.45 3.96 10.39 8.59 15.42 13.05 1.29 11.72 2.77 23.54 1.44 35.33 -.54 6.14 -1.38 12.25 -2.24 18.35 -.39 4.25 .81 8.42 .98 12.66 .74 7.95 6.39 14.59 6.04 22.73 2.49 3.6 3.48 7.91 5.68 11.65 .86 2.55 -.24 5.1 -.94 7.54 .79 1.95 2.29 3.51 3.4 5.29 -1.29 1.35 -2.6 2.69 -3.92 4.01 .4 .71 1.21 2.14 1.61 2.85 -.43 2.05 -.89 4.1 -1.27 6.16 -1.67 2.64 -.62 5.78 -1.34 8.67 -1.09 6.28 -1.02 12.67 -.92 19.02 -1.15 5.87 1.26 11.66 .42 17.55 .44 8.41 -2.26 16.47 -3.18 24.77 2.39 1.26 5.03 1.83 7.6 2.6 3 9.26 5.77 18.73 7.19 28.39 1.33 10 2.8 20.21 7.17 29.42 2.87 6.98 7.38 13.14 10.09 20.18 .53 2.32 1.12 4.63 1.44 7 l .47 .81 c .58 6.17 1.4 12.32 1.23 18.54 1.21 25.9 7.21 51.64 4.63 77.66 -1.02 6.43 -.89 13.11 -2.79 19.34 -1.04 6.93 -3.93 13.31 -7.12 19.48 -2.72 5.41 -3.42 11.51 -5.59 17.12 -2.31 1.19 -4.86 1.32 -7.4 1.5 -3.22 3.37 -7.29 5.86 -10.15 9.54 -2.6 .68 -5.38 1.25 -7.31 3.3 -.63 3.09 -2.12 6.59 .91 8.95 6.84 1.79 13.95 1.28 20.94 1.34 3.55 -.07 7.13 .12 10.65 -.38 3.51 -1.32 5.49 -4.74 7.64 -7.58 5.17 -8.29 11.33 -16.02 18.7 -22.47 2.03 -1.82 5.73 -2.26 6.88 .81 1.6 7.41 -.59 15 -.04 22.42 1.79 .63 3.54 -.05 5.18 -.77 1.05 -11.26 3.67 -22.52 8.79 -32.66 2.07 -3.98 1.74 -8.7 .92 -12.96 -1.18 -5.79 -5.64 -9.99 -8.03 -15.22 -.87 -1.9 -2.1 -3.59 -3.58 -5.04 -1.2 -4.69 -.57 -9.52 -.12 -14.26 .12 -13.26 2.35 -26.35 3.91 -39.49 .78 -12.22 2.47 -24.49 1.21 -36.74 -.74 -7.94 -4.13 -15.32 -5.26 -23.18 5.6 4.87 11.04 10.21 14.31 16.99 4.44 9.47 8.5 19.11 12.49 28.78 3.62 8.27 7.66 16.35 11.34 24.59 5.36 11.65 11.48 23.09 14.58 35.62 1.75 7.6 3.73 15.26 3.58 23.12 2.23 7.03 3.04 14.58 2.33 21.93 -.89 5.74 -.24 11.58 -.6 17.35 -.55 1.29 -1.27 2.48 -1.98 3.69 -1.79 .29 -3.95 .25 -5.3 1.66 -1.17 1.63 -2.08 3.44 -3.07 5.19 -2.56 1.56 -5.47 2.16 -8.4 2.56 -2.11 .46 -1.23 3.17 -1.46 4.72 .38 2.26 -.7 5.48 1.67 6.86 3.59 2.18 7.87 2.47 11.92 3.12 7.21 .4 14.63 .43 21.57 -1.78 3.81 -1.75 7.15 -4.42 10.12 -7.34 2.45 -6.45 3.61 -13.45 7.37 -19.34 2.55 -4.31 5.74 -8.76 10.79 -10.24 3.62 6.82 4 14.81 5.82 22.2 2.02 -.17 3.75 -1.11 5.28 -2.36 -2.21 -11.74 -2.77 -23.98 .7 -35.54 -.71 -6.53 -3.2 -13.68 -9.09 -17.33 -3.66 -2.25 -6.6 -5.69 -10.78 -7.03 -1.32 .37 -2.64 .72 -3.97 1.05 -4.25 -5.63 -7.39 -12.1 -9.08 -18.95 -2.6 -8.57 -4.08 -17.44 -5.01 -26.34 -.83 -6.78 -3.21 -13.2 -4.71 -19.83 -2.86 -10.83 -3.31 -22.46 -8.7 -32.49 -6.21 -13.24 -15.57 -24.62 -22.75 -37.29 -3.58 -9.4 -8.15 -18.39 -11.8 -27.76 -2.64 -10.58 -4.06 -21.51 -3.99 -32.42 .43 -.53 1.28 -1.6 1.7 -2.13 -.81 -2.67 -1.55 -5.37 -2.27 -8.06 .23 -.75 .46 -1.5 .7 -2.24 -3.58 -3.46 -3.57 -9.04 -3.04 -13.64 -.52 -1.29 -1.16 -2.52 -1.77 -3.76 -.3 -3.37 -.34 -6.75 -.3 -10.13 .36 -.51 1.07 -1.54 1.42 -2.05 -.28 -.67 -.85 -2.01 -1.13 -2.68 5.26 2.17 .3 8.65 3.59 11.77 .96 -.63 1.9 -1.31 2.81 -2.02 2.33 .05 4.73 -.3 6.95 .65 1.4 -1.69 2.75 -3.43 4.17 -5.1 1.04 .41 2.08 .84 3.12 1.29 2.07 -3.4 3.49 -7.19 4.3 -11.08 .46 -7.91 -1.24 -15.77 -3.7 -23.26 -1.55 -4.64 -2.67 -9.62 -1.91 -14.53 1.24 -9.07 3.25 -18.05 3.63 -27.21 1.36 -10.9 .57 -21.93 1.67 -32.86 .05 -7.82 .75 -15.79 -1.47 -23.4 -.82 -10.51 -3 -20.82 -4.66 -31.22 -1.78 -12.83 -3.05 -25.89 -6.75 -38.36 .34 -5.43 .67 -11.02 -1.58 -16.13 .27 -1.39 .65 -2.82 .21 -4.22 -1.55 -7.44 -2.2 -15.04 -3.72 -22.49 -1.85 -8.04 -8.14 -14.41 -15.37 -17.99 l -.23 -.41 c -2.99 -4.38 -6.62 -9.18 -5.38 -14.84 4.08 .77 7.92 -.67 11.12 -3.14 3 2.82 7.47 2.51 10.82 4.74 .65 2.98 .75 6.04 1.22 9.04 .94 3.5 3.72 5.98 6.29 8.34 2.78 -1.06 5.71 -1.54 8.67 -1.7 1.02 -.47 2.04 -.92 3.07 -1.37 .68 -1.62 1.35 -3.24 2.03 -4.86 2.42 -3.95 4.65 -8.01 6.82 -12.1 .28 -1.04 .54 -2.08 .82 -3.11 1.79 -5.35 2.24 -11.03 1.59 -16.62 -.54 -.07 -1.62 -.22 -2.16 -.29 .41 -.77 1.23 -2.29 1.64 -3.06 -.65 -.33 -1.93 -1 -2.58 -1.34 -1.42 -3.39 -2.54 -6.89 -3.46 -10.45 -1.86 -4.53 -5.81 -7.69 -9.98 -10.02 -1.91 -2.98 -2.71 -6.82 -5.88 -8.92 -2.4 -1.41 -2.61 -4.26 -3.7 -6.54 -1.68 -2.73 -4.56 -4.39 -7.14 -6.15 -4.23 .06 -8.08 1.78 -11.83 3.53 -2.54 -1.11 -3.6 -4.08 -5.85 -5.63 -2.66 -2.02 -4.61 -4.73 -6.79 -7.2 -3.39 -2.36 -7.67 -2.79 -11.36 -4.54 -3.1 -1.54 -6.6 -.6 -9.85 -1.43 -4.15 -.85 -8.12 1.03 -12.08 1.96 z"/><path d="m 119.2 167.33 c 2.83 .13 5.67 -.06 8.37 -.93 .33 .26 1 .77 1.33 1.03 -1.01 3.65 -.78 7.47 -.86 11.22 -2.79 -1.18 -5.52 -2.61 -7.54 -4.93 -1.85 -1.53 -2.57 -4.27 -1.3 -6.39 z"/><path d="m 213.73 231.79 c 1.05 -3.4 1.97 -6.85 3.25 -10.18 4.47 6.48 7.92 13.69 10.1 21.26 .66 7.03 -1.68 13.94 -1.85 20.97 -.32 7.76 2.04 15.54 1.08 23.22 -3.37 -1.63 -2.49 -5.89 -3.02 -8.94 -1.55 -1.23 -3.17 -2.38 -4.83 -3.46 -1.82 -3.95 -.46 -8.44 -2.18 -12.36 -2.13 -1.23 -4.19 -2.61 -5.98 -4.31 1.29 -2.17 3.76 -4.18 3.37 -6.97 -.93 -1.42 -2.31 -2.45 -3.51 -3.61 .73 -2.01 1.31 -4.11 .83 -6.25 2.23 -2.57 4.31 -5.91 2.74 -9.37 z"/><path d="m 171.64 7.18 c 3.96 -.93 7.93 -2.81 12.08 -1.96 3.25 .83 6.75 -.11 9.85 1.43 3.69 1.75 7.97 2.18 11.36 4.54 2.18 2.47 4.13 5.18 6.79 7.2 2.25 1.55 3.31 4.52 5.85 5.63 3.75 -1.75 7.6 -3.47 11.83 -3.53 2.58 1.76 5.46 3.42 7.14 6.15 1.09 2.28 1.3 5.13 3.7 6.54 3.17 2.1 3.97 5.94 5.88 8.92 4.17 2.33 8.12 5.49 9.98 10.02 .92 3.56 2.04 7.06 3.46 10.45 .65 .34 1.93 1.01 2.58 1.34 -.41 .77 -1.23 2.29 -1.64 3.06 .54 .07 1.62 .22 2.16 .29 .65 5.59 .2 11.27 -1.59 16.62 -.28 1.03 -.54 2.07 -.82 3.11 -2.17 4.09 -4.4 8.15 -6.82 12.1 -.68 1.62 -1.35 3.24 -2.03 4.86 -1.03 .45 -2.05 .9 -3.07 1.37 -2.96 .16 -5.89 .64 -8.67 1.7 -2.57 -2.36 -5.35 -4.84 -6.29 -8.34 -.47 -3 -.57 -6.06 -1.22 -9.04 -3.35 -2.23 -7.82 -1.92 -10.82 -4.74 -3.2 2.47 -7.04 3.91 -11.12 3.14 -1.24 5.66 2.39 10.46 5.38 14.84 l .23 .41 c 7.23 3.58 13.52 9.95 15.37 17.99 1.52 7.45 2.17 15.05 3.72 22.49 .44 1.4 .06 2.83 -.21 4.22 2.25 5.11 1.92 10.7 1.58 16.13 3.7 12.47 4.97 25.53 6.75 38.36 1.66 10.4 3.84 20.71 4.66 31.22 2.22 7.61 1.52 15.58 1.47 23.4 -1.1 10.93 -.31 21.96 -1.67 32.86 -.38 9.16 -2.39 18.14 -3.63 27.21 -.76 4.91 .36 9.89 1.91 14.53 2.46 7.49 4.16 15.35 3.7 23.26 -.81 3.89 -2.23 7.68 -4.3 11.08 -1.04 -.45 -2.08 -.88 -3.12 -1.29 -1.42 1.67 -2.77 3.41 -4.17 5.1 -2.22 -.95 -4.62 -.6 -6.95 -.65 -.91 .71 -1.85 1.39 -2.81 2.02 -3.29 -3.12 1.67 -9.6 -3.59 -11.77 .28 .67 .85 2.01 1.13 2.68 -.35 .51 -1.06 1.54 -1.42 2.05 -.04 3.38 0 6.76 .3 10.13 .61 1.24 1.25 2.47 1.77 3.76 -.53 4.6 -.54 10.18 3.04 13.64 -.24 .74 -.47 1.49 -.7 2.24 .72 2.69 1.46 5.39 2.27 8.06 -.42 .53 -1.27 1.6 -1.7 2.13 -.07 10.91 1.35 21.84 3.99 32.42 3.65 9.37 8.22 18.36 11.8 27.76 7.18 12.67 16.54 24.05 22.75 37.29 5.39 10.03 5.84 21.66 8.7 32.49 1.5 6.63 3.88 13.05 4.71 19.83 .93 8.9 2.41 17.77 5.01 26.34 1.69 6.85 4.83 13.32 9.08 18.95 1.33 -.33 2.65 -.68 3.97 -1.05 4.18 1.34 7.12 4.78 10.78 7.03 5.89 3.65 8.38 10.8 9.09 17.33 -3.47 11.56 -2.91 23.8 -.7 35.54 -1.53 1.25 -3.26 2.19 -5.28 2.36 -1.82 -7.39 -2.2 -15.38 -5.82 -22.2 -5.05 1.48 -8.24 5.93 -10.79 10.24 -3.76 5.89 -4.92 12.89 -7.37 19.34 -2.97 2.92 -6.31 5.59 -10.12 7.34 -6.94 2.21 -14.36 2.18 -21.57 1.78 -4.05 -.65 -8.33 -.94 -11.92 -3.12 -2.37 -1.38 -1.29 -4.6 -1.67 -6.86 .23 -1.55 -.65 -4.26 1.46 -4.72 2.93 -.4 5.84 -1 8.4 -2.56 .99 -1.75 1.9 -3.56 3.07 -5.19 1.35 -1.41 3.51 -1.37 5.3 -1.66 .71 -1.21 1.43 -2.4 1.98 -3.69 .36 -5.77 -.29 -11.61 .6 -17.35 .71 -7.35 -.1 -14.9 -2.33 -21.93 .15 -7.86 -1.83 -15.52 -3.58 -23.12 -3.1 -12.53 -9.22 -23.97 -14.58 -35.62 -3.68 -8.24 -7.72 -16.32 -11.34 -24.59 -3.99 -9.67 -8.05 -19.31 -12.49 -28.78 -3.27 -6.78 -8.71 -12.12 -14.31 -16.99 1.13 7.86 4.52 15.24 5.26 23.18 1.26 12.25 -.43 24.52 -1.21 36.74 -1.56 13.14 -3.79 26.23 -3.91 39.49 -.45 4.74 -1.08 9.57 .12 14.26 1.48 1.45 2.71 3.14 3.58 5.04 2.39 5.23 6.85 9.43 8.03 15.22 .82 4.26 1.15 8.98 -.92 12.96 -5.12 10.14 -7.74 21.4 -8.79 32.66 -1.64 .72 -3.39 1.4 -5.18 .77 -.55 -7.42 1.64 -15.01 .04 -22.42 -1.15 -3.07 -4.85 -2.63 -6.88 -.81 -7.37 6.45 -13.53 14.18 -18.7 22.47 -2.15 2.84 -4.13 6.26 -7.64 7.58 -3.52 .5 -7.1 .31 -10.65 .38 -6.99 -.06 -14.1 .45 -20.94 -1.34 -3.03 -2.36 -1.54 -5.86 -.91 -8.95 1.93 -2.05 4.71 -2.62 7.31 -3.3 2.86 -3.68 6.93 -6.17 10.15 -9.54 2.54 -.18 5.09 -.31 7.4 -1.5 2.17 -5.61 2.87 -11.71 5.59 -17.12 3.19 -6.17 6.08 -12.55 7.12 -19.48 1.9 -6.23 1.77 -12.91 2.79 -19.34 2.58 -26.02 -3.42 -51.76 -4.63 -77.66 .17 -6.22 -.65 -12.37 -1.23 -18.54 l -.47 -.81 c -.32 -2.37 -.91 -4.68 -1.44 -7 -2.71 -7.04 -7.22 -13.2 -10.09 -20.18 -4.37 -9.21 -5.84 -19.42 -7.17 -29.42 -1.42 -9.66 -4.19 -19.13 -7.19 -28.39 -2.57 -.77 -5.21 -1.34 -7.6 -2.6 .92 -8.3 3.62 -16.36 3.18 -24.77 .84 -5.89 -1.57 -11.68 -.42 -17.55 -.1 -6.35 -.17 -12.74 .92 -19.02 .72 -2.89 -.33 -6.03 1.34 -8.67 .38 -2.06 .84 -4.11 1.27 -6.16 -.4 -.71 -1.21 -2.14 -1.61 -2.85 1.32 -1.32 2.63 -2.66 3.92 -4.01 -1.11 -1.78 -2.61 -3.34 -3.4 -5.29 .7 -2.44 1.8 -4.99 .94 -7.54 -2.2 -3.74 -3.19 -8.05 -5.68 -11.65 .35 -8.14 -5.3 -14.78 -6.04 -22.73 -.17 -4.24 -1.37 -8.41 -.98 -12.66 .86 -6.1 1.7 -12.21 2.24 -18.35 1.33 -11.79 -.15 -23.61 -1.44 -35.33 -5.03 -4.46 -9.97 -9.09 -15.42 -13.05 -5.01 -2.4 -8.57 -6.85 -13.3 -9.66 -4.31 -2.59 -8.97 -4.58 -13.78 -6.02 -4.31 -1.51 -8.74 -3.01 -13.37 -2.8 -4.17 -.3 -8.31 .72 -12.46 .24 -.5 .5 -1.5 1.49 -1.99 1.99 -1.59 -.31 -3.16 -.7 -4.72 -1.1 -1.56 1.76 -3.72 1.11 -5.7 .89 -.39 .51 -1.17 1.54 -1.56 2.05 -3.69 .87 -7.7 -.5 -9.91 -3.61 -1.67 -2.28 -4.81 -2.4 -6.85 -4.23 -1.53 -1.44 -3.79 -.96 -5.7 -1.29 -1.16 -.89 -2.34 -1.75 -3.56 -2.56 -3.66 -1.41 -7.35 -2.94 -11.38 -2.38 -.42 -.5 -1.28 -1.5 -1.7 -1.99 -1.11 .02 -2.22 .05 -3.33 .08 -.6 -2.55 -1.29 -5.1 -2.39 -7.49 5.63 -1.09 11.26 -2.17 16.94 -2.97 3.03 -.49 5.43 -2.5 8.15 -3.75 2.8 -1.33 5.83 -2 8.74 -3.01 .36 -3.89 -.41 -7.72 -.74 -11.58 1.45 -1.85 3.39 -3.16 5.48 -4.2 4.14 -1.08 8.36 -2.24 12.69 -2.09 4.02 .17 8.32 -.65 12.04 1.3 3.31 .19 6.63 .05 9.95 .01 1.72 1.17 3.61 2.15 5.11 3.62 .09 2.76 -.01 5.56 .92 8.21 3.5 -.31 7.05 -.51 10.43 -1.54 2.3 -.71 2.35 -3.5 3.16 -5.38 -1.49 -2.49 .55 -4.69 1.32 -6.99 -.44 -.47 -1.32 -1.4 -1.76 -1.87 3.33 -2.6 -.3 -6.23 1.79 -9.36 6.36 -2.6 13.37 -.85 20.03 -1 5.88 .78 12.52 .71 17.3 4.72 3.33 3.63 1.47 9.03 -.67 12.78 -1.23 2.67 -3.91 4.72 -3.78 7.89 4.69 2.84 9.19 5.99 14.02 8.59 2.67 -2.72 5.68 -5.06 8.65 -7.45 7.22 -7.72 13.55 -16.24 19.29 -25.11 -.28 -5.45 1.81 -11.05 -.26 -16.32 -.86 -1.89 -1.93 -3.72 -3.33 -5.27 -2.64 -3.14 -7.05 -3.21 -10.76 -3.99 -3.77 -1.93 -8.25 -2.24 -11.63 -4.91 -.57 -3.63 .3 -7.44 -1.19 -10.91 -1.3 -3.33 -2.24 -6.78 -2.67 -10.34 -2.17 -1.08 -4.68 -1.95 -5.98 -4.17 -.2 -5 5.65 -7.6 5.91 -12.47 -2.3 -5 -5.08 -10.26 -3.98 -15.96 1.14 -5.56 1.56 -12.07 6.36 -15.88 4.6 -3.43 9.92 -6.42 15.78 -6.69 3.22 -.29 6.58 -.39 9.33 -2.32 m -52.44 160.15 c -1.27 2.12 -.55 4.86 1.3 6.39 2.02 2.32 4.75 3.75 7.54 4.93 .08 -3.75 -.15 -7.57 .86 -11.22 -.33 -.26 -1 -.77 -1.33 -1.03 -2.7 .87 -5.54 1.06 -8.37 .93 m 94.53 64.46 c 1.57 3.46 -.51 6.8 -2.74 9.37 .48 2.14 -.1 4.24 -.83 6.25 1.2 1.16 2.58 2.19 3.51 3.61 .39 2.79 -2.08 4.8 -3.37 6.97 1.79 1.7 3.85 3.08 5.98 4.31 1.72 3.92 .36 8.41 2.18 12.36 1.66 1.08 3.28 2.23 4.83 3.46 .53 3.05 -.35 7.31 3.02 8.94 .96 -7.68 -1.4 -15.46 -1.08 -23.22 .17 -7.03 2.51 -13.94 1.85 -20.97 -2.18 -7.57 -5.63 -14.78 -10.1 -21.26 -1.28 3.33 -2.2 6.78 -3.25 10.18 z"/></g></svg>