<svg enable-background="new 0 0 285 289.1" viewBox="0 0 285 289.1" xmlns="http://www.w3.org/2000/svg"><g fill="#fff"><path d="m 38.8 172.7 c .5 1 1 2 1.8 2.9 .2 .2 .5 .2 .7 .1 .1 -.1 .2 -.2 .2 -.3 .2 -1 -.5 -2.6 -.3 -5.7 .1 -.8 .2 -1.6 .5 -2.4 0 -.1 .2 -.1 .2 0 .2 1 .7 2.4 1 2.5 .8 .3 1.2 -4.4 .8 -5.4 -.1 -.4 -.4 -.8 -.7 -1 s -.4 -.6 -.4 -.9 l 8 -40 c .1 -.6 -.1 -1.1 -1.3 -1 l -7.1 -.1 c -.8 0 -1.5 .7 -1.5 1.5 v .1 l -2 40 s -.2 2.3 -.3 4.8 c -.1 1.6 -.2 3.7 .4 4.9 z"/><path d="m 51.7 119.8 l -10.2 -3.2 c -1.3 -.4 -2.4 -1.6 -1.8 -2.8 1.8 -3.8 3.7 -7.4 5.9 -11 .9 -1.4 2.3 -2.4 3.9 -2.9 l 9.3 -1.7 c .2 0 .5 .1 .5 .4 .3 2.7 3.2 5.6 6.9 6.3 l 1.6 5.3 1.8 -5.3 c 3.7 -.7 6.6 -3.7 6.9 -6.3 0 -.2 .3 -.4 .5 -.4 l 14.4 .6 c .5 0 .9 .4 1 .9 l 2.4 10.5 c .1 .5 -.1 1 -.6 1.2 l -10.1 5 c -.5 .2 -.9 .6 -.9 1.2 l 1.5 39.9 c 0 .9 -.7 1.6 -1.5 1.6 h -30.5 c -.9 0 -1.6 -.7 -1.6 -1.6 l 1.5 -36.6 c 0 -.4 -.4 -.9 -.9 -1.1 z"/><path d="m 119.1 76.1 c 2.9 -.9 4.6 -4 3.7 -6.9 -.2 -.5 -.4 -1 -.7 -1.5 -.2 -.3 -.1 -.7 .2 -.8 .3 -.2 .7 -.1 .9 .2 2 3.2 1.1 7.4 -2 9.4 -.5 .3 -1.1 .6 -1.7 .8 -.3 .1 -.7 -.1 -.8 -.4 s .1 -.7 .4 -.8 z"/><path d="m 118.8 73.3 c 1.3 -.4 2.1 -1.8 1.7 -3.1 -.1 -.2 -.2 -.5 -.3 -.7 -.2 -.3 -.1 -.7 .2 -.8 .3 -.2 .7 -.1 .8 .2 1.1 1.7 .6 4 -1.1 5.1 -.3 .2 -.6 .3 -.9 .4 s -.7 -.1 -.8 -.4 .1 -.6 .4 -.7 z"/><path d="m 105.8 61.1 c -1.6 .4 -3 1.6 -3.7 3.1 -.6 1.4 -.6 3 0 4.3 .1 .3 0 .7 -.3 .8 s -.7 0 -.8 -.3 c 0 0 0 0 0 -.1 -.7 -1.7 -.7 -3.6 0 -5.3 .9 -1.9 2.5 -3.3 4.5 -3.8 .3 -.1 .7 .1 .7 .4 v .1 c .1 .4 -.1 .7 -.4 .8 z"/><path d="m 105.9 63.7 c -1.3 .3 -2.1 1.6 -1.8 2.9 .1 .2 .1 .5 .3 .7 .2 .3 .1 .7 -.2 .8 -.3 .2 -.7 .1 -.8 -.2 0 0 0 0 0 -.1 -1 -1.7 -.4 -3.9 1.4 -4.9 .3 -.2 .6 -.3 .9 -.4 s .7 0 .8 .4 c 0 .4 -.2 .7 -.6 .8 .1 0 .1 0 0 0 z"/><path d="m 96.7 98.7 l 11.4 .2 1.9 -21.2 c .3 -.2 1.8 -1.3 2.1 -1.6 l .7 -.5 c .1 -.1 .1 -.3 0 -.4 s -.3 -.1 -.4 -.1 l -.2 .2 c -.3 .2 -.6 .3 -1 .3 h -.2 c -.5 -.1 -1 -.3 -1.5 -.6 l -4.7 -3.2 c -.4 -.3 -.6 -.8 -.6 -1.3 .1 -.4 .4 -.6 .8 -.6 h .1 l 4 1.3 -1.5 -8.2 c -.1 -.4 .1 -.7 .5 -.8 s .7 .1 .8 .5 l 1.8 5.3 c 0 .1 .2 .2 .3 .2 s .2 -.1 .2 -.2 l .2 -6.2 c 0 -.4 .4 -.8 .8 -.8 h .1 c .4 0 .8 .3 .8 .8 l .3 5.8 c 0 .1 .1 .2 .2 .2 s .2 -.1 .3 -.2 l 1.5 -4.7 c .1 -.4 .5 -.6 .9 -.6 .4 .1 .7 .4 .6 .8 l -1.1 5.5 c 0 .1 .1 .2 .2 .2 s .2 -.1 .3 -.2 l 1.4 -3.5 c .1 -.3 .5 -.5 .8 -.3 s .5 .6 .4 .9 l -3.5 10.8 2.2 25.8 c .1 .8 -.4 1.6 -1.2 1.9 l -17.1 6.3 c -.6 .3 -1.4 0 -1.7 -.6 0 -.1 -.1 -.2 -.1 -.2 l -2.2 -9.3 c -.2 -.7 .3 -1.4 1 -1.5 .2 -.2 .3 -.2 .4 -.2 z"/><path d="m 41 246.7 c -.7 .1 -1.1 .8 -1 1.4 s .6 1 1.3 1 h 19.6 c 1.4 0 2.5 -1.1 2.5 -2.5 s -1.1 -2.5 -2.4 -2.5 -6.9 -.2 -8.7 0 -11.3 2.6 -11.3 2.6 z"/><path d="m 94.9 246.7 c .7 .1 1.1 .8 1 1.4 s -.6 1 -1.3 1 h -19.5 c -1.4 0 -2.5 -1.1 -2.5 -2.5 s 1.1 -2.5 2.4 -2.5 6.9 -.2 8.7 0 11.2 2.6 11.2 2.6 z"/><path d="m 51.9 167.2 l 1.2 72.3 c 0 .7 .6 1.2 1.2 1.2 h 6.3 c .7 0 1.2 -.5 1.2 -1.1 l 4.2 -59.4 c 0 -.6 .6 -1.2 1.2 -1.1 h 1.4 c .7 0 1.2 .5 1.2 1.1 l 4.2 59.4 c 0 .6 .6 1.2 1.2 1.1 h 6.3 c .7 0 1.2 -.5 1.2 -1.2 l 1.2 -74.9 c 0 -.7 -.5 -1.2 -1.2 -1.3 h -.1 l -29.6 2.7 c -.6 0 -1.1 .6 -1.1 1.2 z"/><path d="m 81 79.3 c -.2 0 -.4 .1 -.6 .2 -.3 .3 -.7 .4 -1.1 .2 -.1 -.1 -.3 -.3 -.3 -.4 l 1.5 -7.2 c .3 -1.5 -.6 -3 -2.2 -3.3 -.2 0 -.4 -.1 -.6 -.1 h -.5 c 0 -3.1 -2.5 -5.6 -5.5 -5.6 h -10.9 c -1.8 0 -3.3 1.5 -3.3 3.3 l 2.2 2.2 h -1.6 c -1.5 0 -2.8 1.2 -2.8 2.8 0 .2 0 .4 .1 .6 l 1.5 7.2 c -.1 .5 -.5 .8 -.9 .8 -.2 0 -.4 -.1 -.5 -.3 -.2 -.3 -.6 -.3 -.8 -.2 s -.3 .3 -.2 .6 l .7 5 c .1 .6 .5 1 1.1 1 h .5 c .4 0 .8 .3 .8 .8 0 4.4 2.8 6.6 5.6 9.3 l .3 .3 .9 .9 c .2 .2 .2 .6 0 .8 -.1 .1 -.2 .2 -.4 .2 h -.9 c -.2 0 -.3 .1 -.3 .3 v .1 c .8 3 3.9 4.7 6.8 3.9 1.9 -.5 3.3 -2 3.9 -3.9 0 -.2 -.1 -.3 -.2 -.4 h -.1 -.9 c -.3 0 -.6 -.3 -.5 -.6 0 -.1 .1 -.3 .2 -.4 l .9 -.9 .3 -.3 c 2.8 -2.7 5.6 -4.9 5.6 -9.3 0 -.4 .3 -.8 .8 -.8 h .5 c .6 0 1 -.4 1.1 -1 l .7 -5 c -.3 -.4 -.5 -.7 -.9 -.8 z m -12.5 13.6 c -1 0 -3.8 -.8 -4 -2.6 0 -.2 .1 -.3 .3 -.3 h 7.4 c .2 0 .3 .1 .3 .3 -.2 1.7 -2.9 2.6 -4 2.6 z"/><path d="m 282.5 131.6 h -190 c -1.4 0 -2.5 -1.1 -2.5 -2.5 s 1.1 -2.5 2.5 -2.5 h 190 c 1.4 0 2.5 1.1 2.5 2.5 s -1.1 2.5 -2.5 2.5 z"/><path d="m 32.5 131.6 h -30 c -1.4 0 -2.5 -1.1 -2.5 -2.5 s 1.1 -2.5 2.5 -2.5 h 30 c 1.4 0 2.5 1.1 2.5 2.5 s -1.1 2.5 -2.5 2.5 z"/><path d="m 201.5 181.9 h .7 c .6 0 1.1 .5 1.1 1.1 0 6.4 4.1 9.6 8.1 13.6 l .5 .5 1.4 1.4 c .3 .3 .3 .8 0 1.1 -.2 .1 -.4 .2 -.6 .2 h -1.3 c -.3 0 -.5 .2 -.5 .5 v .1 c 1.2 4.3 5.7 6.8 10 5.6 2.7 -.8 4.9 -2.9 5.6 -5.6 .1 -.2 -.1 -.5 -.3 -.6 h -.1 -1.4 c -.4 0 -.8 -.4 -.8 -.8 0 -.2 .1 -.4 .2 -.6 l 1.4 -1.4 c .2 -.1 .4 -.3 .5 -.5 4.1 -4 8.1 -7.2 8.1 -13.6 0 -.6 .5 -1.1 1.1 -1.1 h .7 c .8 0 1.5 -.6 1.6 -1.4 l 1 -7.3 c .1 -.5 -.3 -.9 -.7 -1 -.3 0 -.6 .1 -.8 .4 -.4 .5 -1.1 .6 -1.5 .3 -.2 -.2 -.4 -.4 -.5 -.7 l 2.2 -10.4 c .5 -2.2 -.9 -4.3 -3.1 -4.8 -.3 -.1 -.6 -.1 -.9 -.1 h -2.3 l 3.2 -3.2 c 0 -2.7 -2.2 -4.9 -4.9 -4.9 h -16.2 c -4.5 0 -8.1 3.6 -8.1 8.1 h -.7 c -2.2 0 -4.1 1.8 -4.1 4 0 .3 0 .6 .1 .9 l 2.2 10.5 c -.1 .6 -.7 1 -1.3 .8 -.3 -.1 -.5 -.2 -.7 -.4 -.3 -.4 -.8 -.5 -1.2 -.2 -.3 .2 -.4 .5 -.4 .8 l 1 7.3 c .2 .8 .9 1.4 1.7 1.4 z"/><path d="m 242.6 231.3 l 14.9 -4.6 c 1.9 -.5 3.5 -2.4 2.7 -4.2 -2.6 -5.5 -5.5 -10.9 -8.7 -16.1 -1.3 -2 -3.4 -3.5 -5.7 -4.2 l -13.6 -2.4 c -.4 -.1 -.7 .2 -.8 .5 -.5 3.9 -4.7 8.2 -10.1 9.2 h -5 c -5.4 -1.1 -9.6 -5.3 -10.1 -9.2 -.1 -.4 -.4 -.6 -.8 -.6 l -21 .8 c -.7 0 -1.4 .5 -1.5 1.3 l -3.5 15.4 c -.2 .7 .2 1.5 .9 1.8 l 14.8 7.3 c .8 .2 1.3 1 1.3 1.8 l -2.2 58.3 c 0 1.3 1 2.3 2.3 2.3 h 44.8 c 1.3 0 2.3 -1 2.3 -2.3 l -2.3 -53.4 c -.1 -.7 .5 -1.4 1.3 -1.7 z"/><path d="m 144.1 167.4 c -4.3 -1.3 -6.7 -5.8 -5.4 -10.1 .2 -.7 .6 -1.5 1 -2.1 .3 -.4 .1 -1 -.3 -1.2 -.4 -.3 -1 -.1 -1.2 .3 -3 4.6 -1.7 10.8 2.9 13.7 .8 .5 1.6 .9 2.5 1.2 .5 .2 1 -.1 1.2 -.5 s -.3 -1.1 -.7 -1.3 z"/><path d="m 144.5 163.4 c -1.9 -.6 -3 -2.6 -2.5 -4.5 .1 -.4 .3 -.7 .5 -1 .3 -.4 .1 -1 -.3 -1.2 s -1 -.1 -1.2 .3 c -1.6 2.5 -.9 5.9 1.6 7.5 .4 .3 .9 .5 1.3 .6 .5 .2 1 -.1 1.2 -.5 s -.1 -1 -.6 -1.2 z"/><path d="m 163.5 145.5 c 2.4 .6 4.4 2.3 5.4 4.5 .9 2 .8 4.3 -.1 6.3 -.2 .4 -.1 1 .4 1.2 .4 .2 1 .1 1.2 -.4 0 -.1 .1 -.1 .1 -.2 1.1 -2.5 1.1 -5.2 0 -7.7 -1.2 -2.7 -3.7 -4.8 -6.6 -5.5 -.5 -.1 -1 .1 -1.1 .6 v .1 c -.1 .6 .2 1 .7 1.1 z"/><path d="m 163.3 149.4 c 1.9 .4 3.1 2.3 2.6 4.2 -.1 .3 -.2 .7 -.4 1 -.3 .4 -.2 1 .3 1.2 .4 .3 1 .2 1.2 -.3 0 -.1 .1 -.1 .1 -.2 1.4 -2.5 .5 -5.7 -2 -7.1 -.4 -.2 -.9 -.4 -1.3 -.5 -.4 -.2 -1 0 -1.1 .5 -.2 .4 0 1 .5 1.1 0 .1 0 .1 .1 .1 z"/><path d="m 176.8 200.5 l -16.6 .2 -2.8 -31 c -.5 -.3 -2.6 -1.9 -3.1 -2.3 l -1 -.8 c -.2 -.1 -.2 -.4 -.1 -.6 s .4 -.2 .6 -.1 l .3 .2 c .4 .3 1 .5 1.5 .4 h .3 c .8 -.1 1.5 -.4 2.1 -.8 l 6.9 -4.8 c .6 -.4 .9 -1.1 .8 -1.9 -.1 -.5 -.6 -.9 -1.1 -.9 h -.2 l -5.9 1.9 2.2 -12 c .1 -.5 -.2 -1 -.7 -1.1 s -1.1 .2 -1.2 .7 l -2.6 7.7 c -.1 .2 -.2 .3 -.4 .3 s -.3 -.1 -.3 -.3 l -.3 -9 c 0 -.6 -.5 -1.2 -1.2 -1.2 -.6 0 -1.2 .5 -1.2 1.1 l -.4 8.4 c 0 .2 -.1 .3 -.3 .3 s -.3 -.1 -.4 -.2 l -2.2 -6.8 c -.2 -.6 -.7 -.9 -1.3 -.8 h -.1 c -.5 .1 -.9 .6 -.9 1.1 v .1 .1 l 1.6 8 c 0 .2 -.1 .3 -.2 .3 -.2 0 -.4 -.1 -.4 -.2 l -2.1 -5.1 c -.2 -.4 -.7 -.7 -1.1 -.5 h -.1 c -.5 .2 -.7 .8 -.6 1.3 l 5.1 15.7 -3.2 37.7 c -.1 1.2 .6 2.3 1.7 2.7 l 24.9 9.2 c .9 .4 2 0 2.4 -.9 .1 -.1 .1 -.2 .1 -.3 l 3.2 -13.7 c .2 -1 -.4 -2 -1.4 -2.2 0 .1 -.1 .1 -.3 .1 z"/><path d="m 255.4 289.1 h 5.8 l -2.6 -53.4 c 0 -1.2 -.9 -2.2 -2.1 -2.2 h -.1 l -10 .2 c -1.6 -.2 -2 .6 -1.8 1.4 z"/><path d="m 179.4 37.9 l -7.3 .3 c -1.6 .1 -2.7 1.4 -2.7 3 0 .8 .4 1.5 1 2 l 5.7 4.5 c 1.2 1 3 .8 4 -.5 .2 -.3 .4 -.7 .5 -1 .4 -1.5 .9 -3 1.5 -4.5 .6 -1.4 -.1 -3.1 -1.6 -3.7 -.3 0 -.7 -.1 -1.1 -.1 z"/><path d="m 214.5 9.5 l -4.5 -5.7 c -1 -1.2 -2.8 -1.4 -4 -.4 -.6 .5 -1 1.2 -1 2 l -.3 7.3 c -.1 1.6 1.1 2.9 2.7 2.9 .4 0 .8 0 1.1 -.2 1.5 -.6 3 -1.1 4.5 -1.5 s 2.4 -1.9 2 -3.4 c -.1 -.4 -.3 -.7 -.5 -1 z"/><path d="m 187.9 24.9 l -7 -2 c -1.5 -.4 -3.1 .5 -3.5 2 -.2 .8 -.1 1.6 .4 2.3 l 4 6.1 c .9 1.3 2.6 1.6 3.9 .7 .3 -.2 .6 -.5 .8 -.8 .9 -1.3 1.8 -2.6 2.8 -3.8 s .8 -3 -.4 -4 c -.3 -.3 -.7 -.4 -1 -.5 z"/><path d="m 224.9 12.4 c .8 0 1.6 0 2.4 .1 1.6 .1 2.9 -1.1 2.9 -2.7 0 -.4 0 -.8 -.2 -1.1 l -2.6 -6.8 c -.5 -1.5 -2.2 -2.2 -3.6 -1.6 -.8 .3 -1.4 .9 -1.6 1.6 l -2.5 6.8 c -.5 1.5 .2 3.1 1.6 3.6 .4 .1 .7 .2 1.1 .2 .9 -.1 1.7 -.1 2.5 -.1 z"/><path d="m 281.2 55.5 l -6.8 -2.5 c -1.5 -.5 -3.1 .2 -3.6 1.6 -.1 .4 -.2 .7 -.2 1.1 0 .8 .1 1.6 .1 2.4 s 0 1.6 -.1 2.4 c -.1 1.6 1.1 2.9 2.7 2.9 .4 0 .8 0 1.1 -.2 l 6.8 -2.6 c 1.5 -.6 2.2 -2.2 1.6 -3.6 -.3 -.6 -.9 -1.2 -1.6 -1.5 z"/><path d="m 268 33.2 l 4 -6.1 c .9 -1.3 .5 -3 -.8 -3.9 -.7 -.4 -1.5 -.6 -2.3 -.4 l -7 2 c -1.5 .4 -2.4 2 -1.9 3.5 .1 .4 .3 .7 .5 1 1 1.2 1.9 2.5 2.8 3.8 .8 1.3 2.6 1.7 3.9 .9 .3 -.1 .6 -.4 .8 -.8 z"/><path d="m 245.1 12.7 l -.3 -7.3 c -.1 -1.6 -1.4 -2.7 -3 -2.7 -.8 0 -1.5 .4 -2 1 l -4.5 5.7 c -1 1.2 -.8 3 .5 4 .3 .2 .7 .4 1 .5 1.5 .4 3 .9 4.5 1.5 1.4 .6 3.1 -.1 3.7 -1.6 .1 -.3 .1 -.7 .1 -1.1 z"/><path d="m 273.6 47.8 l 5.7 -4.5 c 1.2 -1 1.4 -2.8 .4 -4 -.5 -.6 -1.2 -1 -2 -1 l -7.3 -.3 c -1.6 -.1 -2.9 1.1 -2.9 2.7 0 .4 .1 .8 .2 1.2 .6 1.5 1.1 3 1.5 4.5 s 1.9 2.4 3.4 2 c .3 -.2 .7 -.4 1 -.6 z"/><path d="m 258.2 21.1 l 2 -7 c .4 -1.5 -.5 -3.1 -2 -3.5 -.8 -.2 -1.6 -.1 -2.3 .4 l -6.1 4 c -1.3 .9 -1.7 2.6 -.8 3.9 .2 .3 .5 .6 .8 .8 1.3 .9 2.6 1.8 3.8 2.8 s 3 .8 4 -.4 c .3 -.2 .5 -.6 .6 -1 z"/><path d="m 200 15 l -6.1 -4 c -1.3 -.9 -3 -.5 -3.9 .8 -.4 .7 -.6 1.5 -.4 2.3 l 1.9 7 c .4 1.5 2 2.4 3.5 2 .4 -.1 .7 -.3 1 -.5 1.2 -1 2.5 -1.9 3.8 -2.8 1.3 -.8 1.7 -2.6 .9 -3.9 -.1 -.3 -.4 -.6 -.7 -.9 z"/><path d="m 179.1 58.1 c 0 -.8 0 -1.6 .1 -2.4 .1 -1.6 -1.1 -2.9 -2.7 -2.9 -.4 0 -.8 0 -1.1 .2 l -6.8 2.5 c -1.5 .5 -2.2 2.2 -1.6 3.6 .3 .8 .9 1.4 1.6 1.6 l 6.8 2.6 c 1.5 .5 3.1 -.2 3.6 -1.6 .1 -.4 .2 -.7 .2 -1.1 -.1 -.8 -.1 -1.6 -.1 -2.5 z"/><path d="m 224.9 15.9 c -23.3 0 -42.2 18.9 -42.2 42.2 s 18.9 42.2 42.2 42.2 42.2 -18.9 42.2 -42.2 -18.9 -42.2 -42.2 -42.2 z m -16 35.6 l -4.7 4.7 c -.3 .3 -.7 .5 -1.2 .4 -3.1 -.4 -5.3 -3.2 -4.9 -6.3 s 3.2 -5.3 6.3 -4.9 c 2.5 .3 4.5 2.3 4.9 4.9 .1 .5 -.1 .9 -.4 1.2 z m 19.2 .5 c -.8 3.8 -4.6 6.2 -8.3 5.3 -2.7 -.6 -4.7 -2.7 -5.3 -5.3 -.2 -.7 .3 -1.5 1.1 -1.7 h .3 10.9 c .8 0 1.4 .6 1.4 1.4 0 .1 0 .2 -.1 .3 z m 11.5 4.6 c -.4 .1 -.9 -.1 -1.2 -.4 l -4.7 -4.7 c -.3 -.3 -.5 -.7 -.4 -1.2 .4 -3.1 3.2 -5.3 6.3 -4.9 s 5.3 3.2 4.9 6.3 c -.4 2.6 -2.4 4.6 -4.9 4.9 z"/><path d="m 270.4 78.3 l 7.3 -.3 c 1.6 -.1 2.7 -1.4 2.7 -3 0 -.8 -.4 -1.5 -1 -2 l -5.7 -4.5 c -1.2 -1 -3 -.8 -4 .5 -.2 .3 -.4 .7 -.5 1 -.4 1.5 -.9 3 -1.5 4.5 -.6 1.4 .1 3.1 1.6 3.7 .3 .1 .7 .1 1.1 .1 z"/><path d="m 235.2 106.8 l 4.5 5.7 c 1 1.2 2.8 1.4 4 .4 .6 -.5 1 -1.2 1 -2 l .3 -7.3 c .1 -1.6 -1.1 -2.9 -2.7 -2.9 -.4 0 -.8 .1 -1.2 .2 -1.5 .6 -3 1.1 -4.5 1.5 s -2.4 1.9 -2 3.4 c .2 .3 .4 .7 .6 1 z"/><path d="m 261.9 91.4 l 7 1.9 c 1.5 .4 3.1 -.5 3.5 -2 .2 -.8 .1 -1.6 -.4 -2.3 l -4 -6.1 c -.9 -1.3 -2.6 -1.7 -3.9 -.8 -.3 .2 -.6 .5 -.8 .8 -.9 1.3 -1.8 2.6 -2.8 3.8 s -.8 3 .4 4 c .3 .4 .6 .6 1 .7 z"/><path d="m 224.9 103.8 c -.8 0 -1.6 0 -2.4 -.1 -1.6 -.1 -2.9 1.1 -2.9 2.7 0 .4 0 .8 .2 1.1 l 2.6 6.8 c .5 1.5 2.2 2.2 3.6 1.6 .8 -.3 1.4 -.9 1.6 -1.6 l 2.6 -6.8 c .5 -1.5 -.2 -3.1 -1.6 -3.6 -.4 -.1 -.7 -.2 -1.1 -.2 -1 .1 -1.8 .1 -2.6 .1 z"/><path d="m 181.8 83 l -4 6.1 c -.9 1.3 -.5 3 .8 3.9 .7 .4 1.5 .6 2.3 .4 l 7 -1.9 c 1.5 -.4 2.4 -2 2 -3.5 -.1 -.4 -.3 -.7 -.5 -1 -1 -1.2 -1.9 -2.5 -2.8 -3.8 -.8 -1.3 -2.6 -1.7 -3.9 -.8 -.4 0 -.7 .3 -.9 .6 z"/><path d="m 204.7 103.6 l .3 7.3 c .1 1.6 1.4 2.7 3 2.7 .8 0 1.5 -.4 2 -1 l 4.5 -5.7 c 1 -1.2 .8 -3 -.5 -4 -.3 -.2 -.7 -.4 -1 -.5 -1.5 -.4 -3 -.9 -4.5 -1.5 -1.4 -.6 -3.1 .1 -3.7 1.6 -.1 .3 -.2 .7 -.1 1.1 z"/><path d="m 176.2 68.4 l -5.7 4.5 c -1.2 1 -1.4 2.8 -.4 4 .5 .6 1.2 1 2 1 l 7.3 .3 c 1.6 .1 2.9 -1.1 2.9 -2.7 0 -.4 -.1 -.8 -.2 -1.2 -.6 -1.5 -1.1 -3 -1.5 -4.5 s -1.9 -2.4 -3.4 -2 c -.3 .2 -.7 .4 -1 .6 z"/><path d="m 191.6 95.1 l -1.9 7 c -.4 1.5 .5 3.1 2 3.5 .8 .2 1.6 .1 2.3 -.4 l 6.1 -4 c 1.3 -.9 1.7 -2.6 .8 -3.9 -.2 -.3 -.5 -.6 -.8 -.8 -1.3 -.9 -2.6 -1.8 -3.8 -2.8 s -3 -.8 -4 .4 c -.4 .2 -.6 .6 -.7 1 z"/><path d="m 249.8 101.1 l 6.1 4 c 1.3 .9 3 .5 3.9 -.8 .4 -.7 .6 -1.5 .4 -2.3 l -2 -7 c -.4 -1.5 -2 -2.4 -3.5 -2 -.4 .1 -.7 .3 -1 .5 -1.2 1 -2.5 1.9 -3.8 2.8 -1.3 .8 -1.7 2.6 -.9 3.9 .2 .4 .5 .7 .8 .9 z"/></g></svg>