<svg enable-background="new 0 0 788.8803101 557.2279663" viewBox="0 0 788.88 557.23" xmlns="http://www.w3.org/2000/svg"><g fill="#fff"><path d="m 767.04 158.91 c -3.92 -6.75 -9.97 -11.98 -13.15 -19.21 -2.09 -5.9 -1.58 -12.27 -1.31 -18.42 1.19 -12.22 2.31 -24.87 -1.31 -36.83 -1.01 -2.77 -1.21 -6.2 -3.95 -7.89 -6.38 -4.69 -12.92 -9.27 -20.26 -12.36 -1.79 -.78 -3.76 -1.57 -5 -3.16 -5.17 -6.4 -6.48 -14.95 -10.79 -21.84 -2.3 -3.58 -6.28 -6.66 -10.79 -6.58 -5.54 .49 -10.39 3.44 -15 6.31 -6.63 -9.04 -15.19 -17.49 -26.57 -19.73 -2.3 -.33 -4.96 -.81 -7.37 -.79 -2.4 .02 -4.75 .34 -6.84 1.58 v .26 c -1.25 1.03 -2.52 2.02 -3.69 3.16 -6.29 -9.07 -14.53 -18.47 -21.29 -18.41 v .26 c -7.86 -.14 -10.74 6.76 -10.79 8.42 0 1.87 5.9 15.4 6.58 16.58 .83 1.13 2.12 4.77 1.05 7.37 -4.73 1.29 -11.15 -.16 -14.47 3.42 -7.26 7.82 -9.27 19.38 -11.05 29.99 -7.49 -.87 -15.33 -5.11 -22.63 -3.16 -24.11 6.44 -19.52 20.08 -53.41 13.68 -18.01 8.82 -25.84 -.33 -42.36 -2.63 -8.88 0 -18 2.02 -26.05 5.79 -3.95 1.92 -6.65 6.62 -11.31 6.84 -10.96 -1.94 -21.39 -5.92 -32.36 -7.89 -9.4 -.45 -18.6 3.18 -26.57 7.89 -5.31 -4.35 -10.4 -8.97 -16.05 -12.89 -4.61 -3.14 -10.41 -5.67 -16.05 -3.95 -8.58 1.82 -12.79 12.1 -22.1 12.1 -13.7 -.49 -24.23 -10.85 -37.1 -14.21 -7.14 -.31 -11.53 6.42 -17.1 9.73 -7.96 -3.69 -14.33 -10.19 -22.89 -12.63 -7.02 -2.07 -15.14 -3.12 -21.84 .53 -5.65 2.83 -8.28 9.06 -13.94 11.84 -10.39 -2.18 -20.69 -4.75 -31.04 -7.1 -7.41 -1.95 -17.66 -.8 -22.1 2.9 -4.44 3.69 -1.34 8.36 -4.21 11.58 -3.18 3.79 -8.43 5.15 -13.15 4.47 -6.77 -1.06 -13.48 -2.67 -20.26 -3.68 -3.04 -.53 -6.07 .16 -8.94 1.05 -5.49 1.89 -10.81 4.36 -16.05 6.84 -3.58 1.66 -6.22 4.8 -8.15 8.16 -4.9 8.12 -5.99 17.87 -11.31 25.78 -2.64 3.9 -6.25 7.73 -11.05 8.68 -19.68 1.51 -26.4 15.37 -25.52 32.89 -.62 .94 -1.21 1.88 -1.82 2.82 -1.76 -1.8 -4.58 -2.36 -6.68 .12 -8.54 10.09 -19.2 18.95 -22.87 32.15 -4.52 16.23 5.91 32.5 7.41 48.38 .6 6.37 9.61 6.51 10 0 .07 -1.15 .15 -2.29 .23 -3.43 1.88 .64 4.12 .25 5.51 -1.29 1.89 6.13 4.52 12.04 7.69 17.54 2.67 4.4 7.72 7.33 9.21 12.37 -.5 8.81 -7.12 16.47 -6.05 25.52 .5 5.17 .37 10.79 3.42 15.26 6.65 10.08 13.2 20.2 21.31 29.2 1.38 1.43 2.33 3.28 2.63 5.26 1.3 6.28 -3.63 11.09 -5.79 16.58 -2.8 4.61 -.07 10.19 2.63 14.21 8.97 12.89 25.07 18.28 34.46 30.78 2.44 2.98 5.75 7.99 5.52 12.37 s -4.6 15.71 -4.47 29.2 c -.15 13.82 1.02 14.19 .79 20 .19 5.15 0 38.88 0 41.3 0 1.96 -.92 4.46 -.79 6.05 -.15 3 1.59 5.57 3.42 6.58 1.87 1.04 2.65 3.69 2.63 5.52 .43 1.87 -.13 11.81 4.73 12.1 4.6 -.31 29.78 -.31 31.31 0 4.23 -.31 5.44 -3.66 3.42 -5.52 -1.47 -1.63 -13.94 -15.26 -13.94 -15.26 s -4.89 -2.06 -3.42 -12.1 c 1.82 -10.52 6.85 -55.83 6.58 -57.35 .27 -1.36 .09 -12.77 7.37 -18.15 .93 -.65 1.94 -1.43 2.89 -2.1 h 25.78 c 4.21 25.74 11.82 76.85 12.1 78.14 0 1.2 .38 8.17 5.26 10 4.58 1.46 5.59 4.44 5.52 6.58 .08 1.56 -1.08 13.86 6.58 14.21 9.62 .61 23.39 -1.15 29.99 -3.42 1.95 -.31 3.91 -2.42 2.1 -4.73 -2.32 -2.19 -12.12 -17.25 -12.63 -17.89 -.73 -.6 -1.86 -2.85 -2.1 -4.21 -.19 -.69 -.4 -4.72 -1.84 -5.26 -1.85 -.7 -2.03 -1.7 -2.63 -3.95 -2.46 -9.99 -8.16 -54.13 -8.16 -78.4 0 -.41 0 -.91 0 -1.32 5.97 1.55 11.84 3.94 17.89 5.26 5.52 1.45 11.29 .24 16.57 -1.58 23.51 -21.22 28.06 -2.55 50.25 3.68 23.77 .28 31.06 -8.02 50.25 2.89 25.01 6.69 37.16 -4.6 54.46 -12.89 4.02 -1.93 9.07 -3.24 13.15 -.79 21.02 19.37 41.64 20.47 63.14 .26 1.41 1.61 2.89 3.24 4.47 4.74 .54 1.64 .78 3.43 .79 5.53 0 9.88 -1.56 33.62 -6.05 48.15 -2.97 9.48 -4.01 25.8 -3.95 33.94 -.04 1.51 .65 4.84 2.11 6.05 1.83 1.26 4.89 4.77 5.79 7.37 .75 2.74 2.62 6.85 2.89 8.68 .54 1.45 .48 5.4 3.95 6.05 3.11 .16 24.95 1.65 26.57 1.84 1.66 .23 9.25 -.07 5.52 -7.89 -4.09 -7.39 -10.74 -17.82 -12.1 -20 -.7 -1.52 -2.77 -3.33 -2.63 -11.31 1.65 -21.46 8.21 -66.1 11.05 -75.24 .19 -.6 21.84 -9.47 21.84 -9.47 .22 11.97 .67 72.14 .52 74.19 .43 2.66 .69 15.56 .53 16.57 -.12 1.45 -.67 4.9 1.32 7.37 5.71 5.73 14.04 11.45 17.63 18.15 1.47 2.91 2.32 5.29 7.1 5.26 8.97 .84 19.08 .46 25.52 -1.32 2.3 -.96 3.49 -2.39 2.63 -4.74 -1.33 -2.04 -8.95 -15.18 -12.63 -17.89 -6.91 -5.62 -9.78 -10.86 -9.47 -19.47 .36 -4 3.91 -46.88 5.26 -64.46 2.13 -1.6 4.13 -3.69 5.79 -5.79 6.22 -8.87 8.86 -20.41 17.89 -27.1 4.87 -3.83 11.25 2.41 16.05 -1.31 3.99 -3.43 5.58 -8.56 7.1 -13.42 2.69 -9.5 3.52 -19.3 5.52 -28.94 .26 -1.35 1.32 -2.35 2.1 -3.42 4.8 -6.27 9.7 -12.52 15.52 -17.89 3.4 -3.03 5.37 -7.58 5.53 -12.1 .6 -7.02 -1.27 -13.84 -1.84 -20.78 0 -1.31 -.45 -3.08 .79 -3.95 8.55 -5.23 18.03 -9.29 26.31 -15 3.77 -2.82 7.75 -5.95 9.47 -10.52 3.37 -8.54 1.85 -17.65 2.37 -26.57 .33 -3.4 .98 -7.34 3.95 -9.47 2.13 -1.72 5.05 -1.69 7.63 -1.31 14.49 2.14 28.92 5.02 43.41 7.1 5.68 .36 11.44 0 17.1 -.79 7.93 -.93 16.48 -2.8 21.84 -9.21 6.51 -7.63 7.62 -18.02 8.16 -27.63 v -.79 c -.61 -18.74 -7.79 -36.5 -16.82 -52.64 z m -49.19 -48.94 c -2.18 7.17 -7.46 11.61 -12.89 10.52 -5.38 -1.06 -9.31 -7.33 -10.26 -15 -2.04 3.46 -6.01 -.97 -3.95 -4.47 4.39 -7.46 9.69 -11.07 14.73 -11.05 6.49 .02 12.68 5.86 16.58 17.1 1.39 4.13 -2.8 6.99 -4.21 2.9 z"/><path d="m 712.85 101.03 c .04 .61 .06 1.13 .02 1.73 -.12 -.38 -.3 -.74 -.55 -1.08 -.74 -.99 -.81 -1.17 -1.85 -1.85 -.41 -.27 -.88 -.45 -1.35 -.57 -.21 -.05 -.42 -.09 -.62 -.12 -.79 -1.19 -2.1 -2.03 -3.97 -2.03 -1.59 0 -2.78 .61 -3.59 1.52 .02 -.08 .05 -.16 .07 -.24 -1.09 .65 -2.37 1.5 -3.42 2.63 -.38 7.19 3.12 13.78 7.89 14.73 4.75 .94 9.11 -4.02 10 -11.05 -.82 -1.47 -1.7 -2.61 -2.63 -3.67 z"/></g></svg>