<svg enable-background="new 0 0 138 281.3" viewBox="0 0 138 281.3" xmlns="http://www.w3.org/2000/svg"><g fill="#fff"><path d="m 78.9 268 h 10.1 c 1.1 0 2 -.9 2 -2 l 2 -122.7 c 0 -1.1 -.9 -2 -2 -2 h -48.1 c -1 .1 -1.9 1 -1.8 2 l 1.9 122.7 c 0 1.1 .9 2 2 2 h 10.2 c 1.1 0 1.9 -.8 2 -1.9 l 6.7 -95.8 c .1 -1 .9 -1.9 2 -1.9 h 2.3 c 1.1 0 1.9 .8 2 1.9 l 6.8 95.8 c 0 1.1 .9 1.9 1.9 1.9 z"/><path d="m 55.5 273.3 s -11.2 -.4 -14 -.1 -18 4.1 -18 4.1 c -1.1 .1 -1.9 1.1 -1.8 2.2 s 1.1 1.9 2.2 1.8 h 31.5 c 2.2 0 4 -1.8 4 -4 s -1.8 -4 -3.9 -4 z"/><path d="m 110.4 277.3 s -15.2 -3.8 -18 -4.1 -14 .1 -14 .1 c -2.2 0 -4 1.8 -4 4 s 1.8 4 4 4 h 31.6 c 1.1 .1 2.1 -.7 2.2 -1.8 .1 -1.2 -.7 -2.2 -1.8 -2.2 z"/><path d="m 45.7 41 h .9 c .7 0 1.3 .6 1.3 1.4 0 7.9 5 11.8 10 16.7 l .6 .6 1.7 1.6 c .4 .4 .4 1 0 1.4 -.2 .2 -.4 .3 -.7 .3 h -1.7 c -.3 0 -.6 .2 -.6 .6 v .1 c 1.5 5.3 7 8.4 12.3 6.9 3.4 -.9 6 -3.6 6.9 -6.9 .1 -.3 -.1 -.6 -.4 -.7 h -.1 -1.7 c -.6 0 -1 -.4 -1 -1 0 -.3 .1 -.5 .3 -.7 l 1.7 -1.7 c .2 -.2 .4 -.4 .6 -.6 5 -4.9 10 -8.8 10 -16.7 0 -.7 .6 -1.3 1.4 -1.3 h .9 c 1 0 1.9 -.7 2 -1.7 l 1.2 -9 c .1 -.6 -.3 -1.1 -.9 -1.2 -.4 0 -.8 .1 -1 .4 -.4 .6 -1.3 .8 -1.9 .3 -.3 -.2 -.5 -.6 -.6 -.9 l 2.8 -12.9 c .6 -2.7 -1.2 -5.3 -3.9 -5.9 -.3 -.1 -.7 -.1 -1 -.1 h -2.8 l 4 -4 c 0 -3.3 -2.7 -6 -6 -6 h -20 c -5.5 0 -10 4.5 -10 10 h -.8 c -2.8 0 -5 2.2 -5 5 0 .3 0 .7 .1 1 l 2.7 13 c -.2 .7 -.9 1.2 -1.6 1 -.3 -.1 -.6 -.3 -.8 -.5 -.3 -.5 -1 -.7 -1.5 -.4 -.4 .2 -.6 .7 -.5 1.2 l 1.2 9 c 0 1 .9 1.7 1.9 1.7 z m 21.3 6 c 3.8 0 6.9 1.1 6.9 2.5 s -3.1 2.5 -6.9 2.5 -6.9 -1.1 -6.9 -2.5 3.1 -2.5 6.9 -2.5 z"/><path d="m 108.7 59.6 c -.4 -1.9 -2.1 -3.2 -4 -3.2 l -21.2 .6 c -.4 -.1 -1.1 .3 -.9 .7 2.7 6.1 -1.7 18.2 -15.6 18.4 -13.9 -.2 -18.3 -12.4 -15.6 -18.4 .2 -.4 -.5 -.8 -.9 -.7 l -21.1 -.6 c -1.9 0 -3.6 1.3 -4 3.2 l -4.9 23.5 c -.1 .4 0 .9 .2 1.3 1.1 -.6 2.3 -1 3.5 -1 h .5 l 10.8 .7 c .5 0 1 .1 1.5 .3 v -2.1 c 0 -1 .6 -1.8 1.6 -2.1 1.1 -.2 2.1 .5 2.3 1.6 v .4 .8 c 1 -.5 2 -.7 3.1 -.7 h .5 l 11.6 .9 c .4 0 .8 .1 1.2 .2 l 7.2 1.8 c .7 .2 1.3 .2 2 0 l 9.9 -2.7 c .4 -.1 .8 -.2 1.2 -.2 l 8.9 -.9 h .7 c 1.9 0 3.6 .7 4.9 2.1 l .8 .8 v -1.8 c -.1 -1 .7 -2 1.7 -2.1 1.1 -.2 2.1 .5 2.3 1.6 v .4 2.2 c .5 -.2 1 -.3 1.5 -.3 l 10.8 -.7 h .5 c 1.2 0 2.5 .4 3.5 1 .2 -.4 .3 -.9 .2 -1.3 z"/><path d="m 67.4 105.8 c -1.1 -.5 -2.3 -.4 -3.3 .1 l -14.4 6.9 c -3 1.4 -6.1 2.6 -9.3 3.5 l -.4 18 c .1 1.1 .9 1.9 2 2 h 50 c 1.1 -.1 1.9 -.9 2 -2 l -.4 -17.8 c -2.8 -.8 -5.5 -1.8 -8.2 -2.9 z"/><path d="m 55.8 88.3 l -11.6 -.9 c -.4 0 -.8 .1 -1.1 .2 -.1 0 -.1 .1 -.2 .2 -.2 .2 -.4 .4 -.6 .6 l -.4 .6 -.1 .2 -.8 1.5 c -.1 .2 -.2 .5 -.2 .7 v .2 .4 .2 c .1 .3 .3 .6 .5 .8 l .1 .1 c .2 .2 .4 .3 .6 .4 l .3 .1 h .7 l 2.9 -.4 h .1 4.4 c .3 0 .5 .1 .8 .2 l 36 15.5 c 5.1 2.2 10.4 3.7 15.9 4.4 l 4.7 .6 h .5 .2 .2 l .2 -.1 .1 -.1 .2 -.1 .1 -.1 .2 -.2 c .1 -.1 .2 -.2 .2 -.3 l .1 -.1 c 0 -.1 .1 -.2 .1 -.2 v -.1 c 0 -.1 .1 -.3 .1 -.4 l 1.7 -21.6 c 0 -.2 0 -.4 0 -.6 0 -.1 0 -.2 -.1 -.3 0 -.1 -.1 -.2 -.1 -.2 l -.1 -.1 -.1 -.1 -.1 -.1 -.2 -.2 -.2 -.1 c -.2 -.1 -.4 -.2 -.7 -.3 h -.1 c -.2 0 -.3 0 -.5 0 l -10.8 .7 c -1.1 .1 -1.9 .9 -1.9 2 v 1.3 c 0 .5 .2 1 .6 1.4 l 1 1 c .8 .8 .8 2 0 2.8 -.4 .4 -.9 .6 -1.4 .6 h -.9 c -.2 0 -.3 0 -.5 -.1 l -39.6 -9.9 z"/><path d="m 36.4 93.9 c .4 -.4 .6 -.9 .6 -1.4 v -1.3 c 0 -1.1 -.8 -1.9 -1.9 -2 l -10.8 -.7 c -1.1 -.1 -2.1 .8 -2.1 1.9 v .3 l 1.7 21.6 c .1 1.1 1 1.9 2.1 1.8 h .1 l 3.6 -.5 c 6.2 -.8 12.2 -2.6 17.9 -5.3 l 14.5 -7 -10.9 -4.7 c -.5 -.2 -1 -.3 -1.6 -.3 h -3 c -.2 0 -.4 0 -.6 0 l -1.7 .2 -6 1.7 c -.2 0 -.4 .1 -.5 .1 h -.9 c -1.1 0 -2 -.9 -2 -2 0 -.5 .2 -1 .6 -1.4 z"/><path d="m 91.6 89.9 l -2.9 -2.9 c -.4 -.4 -1 -.6 -1.6 -.6 l -8.9 .9 -.3 .1 -6.4 1.6 16.9 4.2 h 1.8 c 1.1 0 2 -.9 2 -2 -.1 -.5 -.3 -1 -.6 -1.3 z"/><path d="m 131.2 70.2 c -.9 -1.1 -2.4 -1.3 -3.5 -.4 s -1.3 2.4 -.4 3.5 c 4.7 6 6.6 12.9 5.2 19.6 s -5.9 12.3 -12.6 15.8 c -1.2 .6 -1.7 2.2 -1 3.4 .6 1.2 2.2 1.7 3.4 1 8.1 -4.3 13.4 -11.1 15.1 -19.2 s -.5 -16.5 -6.2 -23.7 z"/><path d="m 127.7 91.9 c .9 -4.6 -.3 -9.3 -3.4 -12.9 -.9 -1.1 -2.4 -1.3 -3.5 -.4 s -1.3 2.4 -.4 3.5 c 3.7 4.1 3.4 10.4 -.7 14.1 -.8 .7 -1.6 1.3 -2.6 1.7 -1.2 .6 -1.7 2.2 -1 3.4 .6 1.2 2.2 1.7 3.4 1 4.1 -2 7.1 -5.9 8.2 -10.4 z"/><path d="m 5.7 60.6 c 1.8 -6.5 6.6 -11.8 13.4 -15 1.2 -.5 1.8 -1.9 1.4 -3.1 -.4 -1.3 -1.9 -2 -3.2 -1.6 -.1 0 -.2 .1 -.2 .1 -8.2 3.8 -14 10.3 -16.2 18.3 -1.9 7.4 -.7 15.2 3.3 21.7 .7 1.2 2.2 1.6 3.4 .9 .1 0 .1 -.1 .2 -.1 1.1 -.8 1.4 -2.2 .7 -3.3 -3.3 -5.3 -4.3 -11.8 -2.8 -17.9 z"/><path d="m 15.3 63.3 c .9 -3 3.1 -5.5 6.1 -6.7 1.3 -.5 1.9 -2 1.4 -3.2 -.5 -1.3 -2 -1.9 -3.2 -1.4 -.1 0 -.1 .1 -.2 .1 -7.7 3 -11.4 11.8 -8.3 19.4 .5 1.2 1.2 2.4 2 3.5 s 2.4 1.3 3.5 .5 c 1 -.8 1.3 -2.3 .6 -3.3 -2 -2.6 -2.7 -5.9 -1.9 -8.9 z"/></g></svg>