<svg enable-background="new 0 0 605.0775757 646.9769897" viewBox="0 0 605.08 646.98" xmlns="http://www.w3.org/2000/svg"><g enable-background="new" fill="#fff"><path d="m 263.76 474.02 c 0 30.69 -5.12 56.76 -15.34 78.17 -10.24 21.43 -22.95 38.78 -38.16 52.05 s -31.38 22.86 -48.52 28.82 c -17.14 5.94 -32.63 8.92 -46.44 8.92 -.83 0 -4.01 -.28 -9.54 -.83 -5.53 -.56 -12.85 -2.07 -21.98 -4.56 -9.12 -2.49 -19.77 -6.37 -31.93 -11.62 -12.17 -5.25 -25.3 -12.57 -39.4 -21.97 l 12.86 -100.36 c 9.67 11.06 19.42 19.57 29.24 25.51 9.81 5.95 18.73 10.44 26.75 13.48 9.12 3.32 18.1 5.39 26.96 6.22 9.4 0 18.04 -2.28 25.92 -6.85 7.88 -4.56 14.58 -10.71 20.11 -18.45 5.53 -7.73 9.88 -16.52 13.07 -26.33 3.18 -9.81 4.77 -20.12 4.77 -30.89 0 -13.27 -2.56 -25.64 -7.67 -37.12 -5.12 -11.47 -12.24 -21.63 -21.36 -30.48 s -19.77 -15.97 -31.93 -21.36 c -12.17 -5.39 -25.3 -8.5 -39.4 -9.32 v -67.18 c 11.62 -6.91 22.6 -15.14 32.97 -24.67 s 19.49 -20.17 27.37 -31.93 c 7.88 -11.75 14.1 -24.4 18.66 -37.95 4.56 -13.54 6.85 -27.64 6.85 -42.3 0 -6.64 -.97 -13.68 -2.9 -21.15 -1.94 -7.47 -5.05 -14.3 -9.33 -20.52 -4.29 -6.22 -9.68 -11.4 -16.17 -15.55 -6.5 -4.15 -14.3 -6.22 -23.43 -6.22 -2.22 0 -5.53 .42 -9.95 1.25 s -9.75 2.77 -15.97 5.8 c -6.22 3.05 -13.48 7.53 -21.77 13.47 -8.3 5.95 -17.56 14.04 -27.79 24.26 l -25.31 -82.13 c 13.27 -13.27 26.47 -23.7 39.6 -31.31 13.13 -7.6 25.51 -13.34 37.11 -17.21 11.62 -3.87 21.91 -6.29 30.9 -7.25 8.98 -.97 15.82 -1.45 20.52 -1.45 16.86 0 32.62 3.8 47.28 11.4 14.65 7.61 27.37 18.04 38.16 31.31 s 19.21 28.76 25.3 46.44 c 6.08 17.69 9.13 36.49 9.13 56.4 0 16.59 -2.56 32.83 -7.67 48.73 -5.12 15.9 -12.24 31.1 -21.36 45.61 s -19.98 28.14 -32.56 40.85 c -12.59 12.72 -26.34 23.92 -41.26 33.59 13.27 6.08 25.02 12.93 35.25 20.53 s 19.29 15.54 27.16 23.84 c 7.88 8.29 14.58 16.79 20.12 25.51 5.53 8.7 10.23 17.21 14.1 25.5 8.82 19.35 14.49 39.13 16.98 59.3 z"/><path d="m 600.08 321.82 c 0 54.19 -4.02 101.05 -12.03 140.58 -8.02 39.54 -18.94 72.16 -32.76 97.87 -13.83 25.71 -30 44.79 -48.52 57.23 -18.53 12.44 -38.3 18.66 -59.3 18.66 -21.02 0 -40.78 -6.01 -59.31 -18.04 s -34.77 -30.75 -48.73 -56.19 c -13.96 -25.43 -24.95 -57.98 -32.97 -97.66 -8.02 -39.66 -12.02 -87.14 -12.02 -142.45 0 -57.78 4.01 -106.58 12.02 -146.39 s 19 -72.09 32.97 -96.84 c 13.96 -24.74 30.2 -42.64 48.73 -53.7 18.52 -11.06 38.29 -16.59 59.31 -16.59 21 0 40.77 6.02 59.3 18.04 18.52 12.03 34.69 30.69 48.52 55.98 13.82 25.3 24.74 57.79 32.76 97.46 8.01 39.68 12.03 87.04 12.03 142.04 z m -94.97 0 c 0 -41.46 -1.53 -77.13 -4.57 -106.99 s -7.12 -54.39 -12.24 -73.6 c -5.12 -19.22 -11.2 -33.39 -18.25 -42.51 s -14.59 -13.68 -22.6 -13.68 c -8.02 0 -15.63 4.15 -22.81 12.44 -7.19 8.29 -13.48 21.77 -18.87 40.43 -5.39 18.67 -9.61 43.07 -12.65 73.2 s -4.56 67.04 -4.56 110.72 c 0 41.75 1.51 77.62 4.56 107.61 3.04 30 7.25 54.69 12.65 74.02 5.39 19.35 11.68 33.59 18.87 42.71 7.19 9.13 14.78 13.69 22.81 13.69 8.01 0 15.55 -4.69 22.6 -14.09 7.05 -9.39 13.13 -23.85 18.25 -43.34 5.11 -19.49 9.19 -44.23 12.24 -74.23 s 4.57 -65.46 4.57 -106.38 z"/></g></svg>