<svg viewBox="0 0 300 300" xmlns="http://www.w3.org/2000/svg"><g fill="#fff"><path d="m 193.2 119.14 a 10.68 10.68 0 0 1 -7 -18.17 l -.11 -.1 .1 -.1 c -62.18 65.6 -178.4 186.23 -186.18 194.28 l .35 .18 c 53.34 .61 64.1 -13.22 85 -21.72 21.35 -8.69 80.83 -58.84 90.31 -68.21 8.14 -8.05 49 -50.06 60.36 -61.78 l 1.55 1.32 c -11 -9.42 -34 -29 -35.15 -30.06 a 10.63 10.63 0 0 1 -9.23 4.36 z"/><path d="m 24.01 299.16 c 34.86 -.19 107.83 -20.73 219.35 -149.41 l -7.35 -6.23 c -11.38 11.72 -52.22 53.73 -60.36 61.78 -9.48 9.37 -69 59.52 -90.31 68.21 -20.88 8.5 -31.64 22.33 -85 21.72 1.67 .77 9.22 4.01 23.67 3.93 z" opacity=".8"/><path d="m 295.83 7 a 13.78 13.78 0 0 0 -2.44 -1.86 l -4.11 -2.44 .15 .1 c .27 .17 .53 .35 .79 .54 s .26 .17 .39 .27 a 13.81 13.81 0 0 1 1.11 .94 13.59 13.59 0 0 1 .37 19.22 c -.09 .1 -.19 .19 -.28 .28 l -89.05 90.25 c -.11 .17 -.24 .32 -.36 .48 l 3.79 3.28 89.73 -91.57 a 13.59 13.59 0 0 0 .18 -19.22 c -.08 -.09 -.17 -.18 -.27 -.27 z" opacity=".5"/><path d="m 291.73 4.55 a 13.46 13.46 0 0 0 -19.03 .47 c -.13 .13 -.25 .27 -.37 .41 l -49.46 56.15 c -5 5.64 -18.56 20.12 -36.75 39.29 l .11 .1 a 10.68 10.68 0 1 0 16.54 13.33 l 89.05 -90.25 a 13.59 13.59 0 0 0 .19 -19.22 c -.09 -.09 -.19 -.19 -.28 -.28 z m -90.64 99.84 a 4.1 4.1 0 1 1 4.33 -3.86 v .01 a 4.1 4.1 0 0 1 -4.33 3.85 z m 43 -44 a 5.42 5.42 0 1 1 .01 .01 l -.01 .01 z m 37.59 -39.73 a 3.01 3.01 0 1 1 .03 -.01 l -.03 .03 z" opacity=".8"/><path d="m 245.29 52.83 a 5.41 5.41 0 0 0 -1.21 7.56 v .02 l .01 -.01 a 5.41 5.41 0 1 0 1.2 -7.57 z" opacity=".3"/><path d="m 279.66 14.98 a 3.01 3.01 0 1 0 2.02 5.68 v .02 l .03 -.03 a 3.01 3.01 0 0 0 -2.04 -5.67 z" opacity=".3"/><path d="m 201.09 104.39 a 4.1 4.1 0 0 0 4.33 -3.85 v -.01 a 4.1 4.1 0 1 0 -4.33 3.86 z" opacity=".3"/></g></svg>