<svg enable-background="new 0 0 1302.2460938 1059.9248047" viewBox="0 0 1302.25 1059.92" xmlns="http://www.w3.org/2000/svg"><path d="m 890.24 944.88 c -11.24 4.25 -14.85 7.72 -20.74 10.94 -4.99 2.77 -14.43 11.82 -20.23 14.28 -15.32 6.42 -63.84 -5.81 -78.87 -8.72 -13.52 -2.64 -23.23 -14.38 -28.86 -26.44 -5.74 -12.34 -11.64 -25.19 -16.73 -38.05 -2.66 -6.65 -22.03 -59.85 -24.58 -59.46 -73.68 12.18 -112.51 16.11 -112.51 16.11 -2.69 9.56 11.25 110.65 12.95 119.01 -.19 -.99 66.44 -7.62 73.18 -8.28 12.95 -1.28 25.68 -2.89 38.68 -3.71 7.3 -.42 21.76 -4.2 27.88 1.18 5.97 5.24 -2.89 14.8 -4.02 20.65 -1.44 7.39 4.43 10.2 3.39 17.9 -1.57 11.75 -8.45 15.77 -17.8 19.2 -10.99 4 -19.13 11.53 -27.5 19.42 -8.02 7.59 -22.94 16.15 -34.09 16.02 -14.07 -.16 -26.29 -3.66 -38.66 -10.67 -6.27 -3.55 -65.29 -32.36 -69.11 -40.56 -2.48 -5.25 -3.65 -15.92 -4.85 -21.97 -1.75 -8.95 -7.13 -71.32 -9.74 -92.97 -4.64 -38.71 2.45 -35.42 -17.41 -36.77 -12.66 -.88 -20.25 -1.7 -30.56 -1.7 -32.18 0 -153.53 -21.69 -184.55 -29.73 -19 -4.93 -38.62 -10.18 -56.38 -18.82 -9.47 -4.64 -51.41 -21.4 -63.84 -23.65 -12.09 -2.19 -22.4 3.52 -33.83 7.1 -16.32 5.11 -32.81 6.81 -49.64 9.66 -27.71 4.7 -57.75 5.45 -86.6 4.39 -3.2 -.12 -10.24 .85 -10.22 -3.95 0 -3.05 2.21 -6.05 3.66 -8.56 7.77 -13.7 22.76 -31.01 27.83 -37.79 11.8 -15.79 67.7 -54.91 78.74 -58.23 14.49 -4.39 9.77 -6.01 17.52 -17.43 12.24 -18 34.21 -34.29 55.09 -41.34 -21.98 .13 -43.46 -3.05 -65.38 -4.23 -8.62 -.45 -17.23 -1 -25.86 -1.73 -12.52 -1.15 -25.05 -2.85 -37.27 -5.8 -4.35 -1.04 -8.87 -.84 -9.89 -5.74 -.6 -2.95 -.08 -6.01 1.44 -8.58 6.24 -10.54 23.69 -12.08 34.53 -13.52 23.46 -3.05 48.6 -9.5 70.93 -17.05 13.18 -4.49 62.33 -18.06 73.41 -20.86 11.48 -2.89 143.15 -57.47 173.43 -72.39 16.5 -8.12 93.64 -37.84 114.1 -47.06 16.73 -7.55 92.6 -30.27 111.39 -36.54 23.1 -7.7 47.4 -10.93 71.66 -12.08 28.86 -1.36 58.18 1.8 86.7 7.05 16.89 3.06 49.69 21.95 65.09 9.53 4.43 -3.58 7.83 -8.54 9.69 -13.76 5.01 -14.12 21.09 -74.7 23.69 -90.74 6.13 -37.48 10.64 -73.39 21.01 -110.55 8.98 -32.33 46.95 -118.54 55.85 -130.03 7.47 -9.61 16.83 -22.58 26.83 -31.61 29.94 -27.04 73.05 -25.19 108.6 -11.51 6.42 2.48 12.66 5.33 18.74 8.54 13.5 7.12 24.48 17.98 34.82 28.97 5.64 5.9 11.06 12.03 16.55 18.03 5.06 5.54 37.73 33.64 51.07 39.75 18.32 8.4 35.19 16 54.71 21.01 12.35 3.16 31.92 9.77 19.67 26.46 -12.22 16.67 -40.24 10.44 -57.89 10.44 -36.9 0 -75.29 -7.07 -111.6 1.98 -33.1 8.23 -59.69 32.86 -79.37 59.9 -20.3 27.88 -22.76 58.6 -14.28 91.27 8.74 33.46 19.29 69.05 24.41 103.53 6.47 43.8 4.91 88.21 -9.19 130.57 -13.03 39.23 -31.55 77.48 -56.85 109.74 -7.6 9.71 -17.25 20.36 -25.29 28.79 -13.84 14.64 -77.36 59.79 -92.73 69.86 -11.17 7.34 -79.11 42.73 -86.8 45.17 -13.94 4.39 -21.37 8.07 -34.55 12.97 -1.36 .49 10.23 29.49 13.75 36.69 3.32 6.86 16.62 33.48 16.62 33.48 3.68 1.31 117 -11.95 123.15 -11.53 5.38 .36 11.46 -.84 16.75 .6 6.34 1.69 5.9 15.56 2.92 19.92 -2.06 3.03 -6.81 7.77 -6.91 11.56 -.03 2.69 1.12 5.19 1.62 7.81 .4 2.37 .4 5.79 -.32 8.04 -1.05 3.21 -4.75 7.94 -7.77 9.4 -6.78 3.19 -11.75 4.55 -18.78 7.19 z" fill="#fff"/></svg>