<svg enable-background="new 0 0 100 100" viewBox="0 0 100 100" xmlns="http://www.w3.org/2000/svg"><path d="m 74.09 75.39 l .84 .37 c -1.78 -1.68 -2.06 -4.87 -2.06 -4.87 l 1.5 1.31 -1.4 -1.78 c .28 -3.09 -1.97 -4.21 -1.97 -4.21 -.37 -2.53 .47 -10.11 .47 -10.11 1.03 -6.65 -1.31 -8.05 -1.31 -8.05 -.66 -.47 -2.25 -2.53 -2.25 -2.53 s .17 .23 .28 .37 c -.28 -.38 -1.03 -1.22 -1.03 -1.22 -1.4 -1.03 -9.64 -2.81 -9.64 -2.81 -3.27 -1.01 -5.52 -5.13 -5.52 -5.13 -.94 -2.9 -2.34 -1.78 -2.34 -1.78 -.56 -1.03 -1.68 -1.12 -1.68 -1.12 -3.28 -1.97 -6.37 -9.55 -6.37 -9.55 -1.03 -3.37 -5.62 -8.47 -5.62 -8.47 -1.08 -2.53 -4.35 -4.59 -4.35 -4.59 .84 -.42 1.69 -2.53 1.69 -2.53 .23 -.75 -.19 -.98 -.19 -.98 -1.31 0 -2.76 2.58 -2.76 2.58 0 -.38 -.84 -.84 -.84 -.84 -.93 -.8 -.7 -3.04 -.7 -3.04 s -.09 .94 0 -.19 c .09 -1.12 -.79 -.75 -.79 -.75 -.66 .33 -.23 2.11 -.23 2.11 -.19 1.17 -.84 .98 -.84 .98 -.75 -.28 -1.08 -1.36 -1.08 -1.36 .28 -1.64 -1.03 -1.54 -1.03 -1.54 -.89 .28 -.05 1.54 -.05 1.54 .28 .94 .05 1.97 .05 1.97 -1.73 -.94 -1.92 -.42 -1.92 -.42 -.05 .84 1.69 2.9 1.69 2.9 l -.47 .42 c -.7 .42 -.61 .75 -.61 .75 0 .52 .98 1.22 .98 1.22 -.42 .56 -.7 1.83 -.7 1.83 -.98 0 -.84 1.83 -.84 1.83 -.14 2.25 1.26 1.54 1.26 1.54 .56 .42 .84 .28 .84 .28 .98 0 1.69 -1.69 1.69 -1.69 1.54 .14 3.09 -.84 3.09 -.84 1.54 1.26 3.79 7.86 3.79 7.86 .98 5.9 5.9 16.29 5.9 16.29 1.54 3.79 .56 3.93 .56 3.93 -.75 1.4 -1.4 2.62 -1.4 2.62 -1.12 3.18 .38 4.49 .38 4.49 .09 .84 1.31 2.81 1.31 2.81 .84 .65 1.5 2.15 1.5 2.15 0 .66 .66 2.81 .66 2.81 .75 1.78 .28 3.74 .28 3.74 -.56 1.22 -.75 3.18 -.75 3.18 -.75 1.31 -2.34 7.02 -2.34 7.02 -.75 2.99 1.5 3.74 1.5 3.74 .47 .56 1.87 2.25 1.87 2.25 2.53 2.25 .47 7.11 .47 7.11 -.65 1.31 -1.03 3.18 -1.03 3.18 -.38 1.5 -1.97 2.81 -1.97 2.81 -1.87 1.69 2.15 1.22 2.15 1.22 2.34 .09 1.12 -1.5 1.12 -1.5 -.47 -.65 .28 -1.59 .28 -1.59 1.12 -.84 1.12 -2.81 1.12 -2.81 -.09 -1.22 .66 -3.84 .66 -3.84 .56 .84 1.03 1.41 1.03 1.41 .56 2.15 2.06 2.9 2.06 2.9 1.31 .75 2.06 2.72 2.06 2.72 .37 2.25 1.31 .56 1.31 .56 l .94 -1.87 c .56 -2.15 -2.34 -1.97 -2.34 -1.97 -.19 -1.22 -1.03 -1.97 -1.03 -1.97 -.56 -.19 -1.59 -1.5 -1.59 -1.5 -.47 -.94 -1.97 -3.28 -1.97 -3.28 -.19 -1.4 .75 -5.62 .75 -5.62 .84 -3.28 -.09 -12.82 -.09 -12.82 .84 -.75 1.4 -2.62 1.4 -2.62 1.31 0 1.59 -1.31 1.59 -1.31 3.37 1.22 8.43 .56 8.43 .56 0 1.22 1.03 2.34 1.03 2.34 .28 2.34 2.62 5.43 2.62 5.43 1.4 1.97 1.03 5.15 1.03 5.15 -.47 .94 -.56 3.09 -.56 3.09 -1.03 4.12 -4.78 11.61 -4.78 11.61 -1.03 1.03 -1.12 2.43 -1.12 2.43 0 .84 -1.4 2.9 -1.4 2.9 -2.06 3 1.4 1.5 1.4 1.5 2.34 -.56 1.69 -1.22 1.69 -1.22 -.56 -.84 -.38 -2.15 -.38 -2.15 1.22 -.47 1.5 -2.99 1.5 -2.99 2.62 -7.49 6.46 -12.92 6.46 -12.92 .75 -.94 2.34 -3.74 2.15 -2.62 -.02 .14 1.03 3.74 1.03 3.74 .75 3.28 .66 14.14 .66 14.14 -.1 1.4 -1.87 3.46 -1.87 3.46 -2.06 1.5 1.31 1.22 1.31 1.22 2.43 .19 1.4 -1.31 1.4 -1.31 -.66 -.84 .56 -1.68 .56 -1.68 1.22 -.19 .75 -2.62 .75 -2.62 -.69 -2.25 -.5 -8.15 -.5 -8.15 .09 -1.87 0 -5.15 0 -5.15 .47 -.28 .66 -1.78 .66 -1.78 l 1.12 .47 c .37 2.15 2.9 3.84 2.9 3.84 -1.12 -1.03 -2.06 -2.99 -2.06 -2.99 z m -29.2 3.83 s -3 -4.21 -2.06 -6.27 c 0 0 .75 -1.31 1.12 -2.81 0 0 .75 2.06 .47 3.09 0 0 -.28 1.69 .28 2.62 0 0 .47 2.06 .19 3.37 z m 23.32 -33.29 l .03 .04 z m 2.32 11.02 c -.28 2.34 -.09 10.01 -.09 10.01 -1.78 -2.62 -1.12 -8.33 -1.12 -8.33 .19 -1.31 .94 -5.9 .94 -5.9 .56 1.97 .27 4.22 .27 4.22 z" fill="#fff"/></svg>