<svg enable-background="new 0 0 254.1 260.3" viewBox="0 0 254.1 260.3" xmlns="http://www.w3.org/2000/svg"><g fill="#fff"><path d="m 23.9 89.9 l 1.9 38.9 c .2 .9 1 1.5 1.9 1.5 l 43.8 -3.4 c .8 -.1 1.5 -.6 1.6 -1.4 l 5.1 -42.3 6.2 -8.4 c .5 -.7 .5 -1.7 -.2 -2.3 l -11.6 -11.7 c -.7 -.7 -1.8 -.7 -2.5 0 l -1 1.3 c -2.3 2.3 -4.9 4.2 -7.9 5.6 -3.7 6.5 -11.9 8.7 -18.4 5 -2.1 -1.2 -3.8 -2.9 -5 -5 -2.9 -1.3 -19.7 .7 -19.7 .7 l -13.6 14.6 c -.6 .6 -.7 1.6 -.2 2.3 z"/><path d="m 60.2 249.1 h 9.1 c 1 0 1.8 -.8 1.8 -1.8 l 1.7 -114.1 c 0 -1 -.8 -1.8 -1.8 -1.8 h -.2 l -43.1 3.3 c -.9 .1 -1.7 .9 -1.7 1.8 l 1.7 110.8 c 0 1 .8 1.8 1.8 1.8 h 9.1 c .9 0 1.7 -.7 1.8 -1.7 l 6.1 -87.1 c .1 -.9 .8 -1.7 1.8 -1.7 h 2 c .9 0 1.7 .7 1.8 1.7 l 6.1 87.1 c .2 1 1 1.8 2 1.7 z"/><path d="m 89 256.4 l -17.9 -3.6 h -10.8 c -2 0 -3.6 1.6 -3.6 3.6 s 1.6 3.6 3.6 3.6 h 28.4 c 1 0 1.8 -.8 1.8 -1.8 -.1 -.9 -.7 -1.7 -1.5 -1.8 z"/><path d="m 39.2 252.7 h -10.8 l -17.9 3.6 c -1 .2 -1.6 1.2 -1.4 2.1 .2 .8 .9 1.4 1.7 1.4 h 28.4 c 2 0 3.6 -1.6 3.6 -3.6 s -1.6 -3.5 -3.6 -3.5 z"/><path d="m 133.9 9.6 c -.2 -.3 -.6 -.5 -.9 -.3 l -3.7 1.9 c -.1 0 -.3 0 -.3 -.1 -.1 -.1 -.1 -.2 0 -.3 l 4.8 -3.9 c .3 -.3 .4 -.8 .1 -1.1 s -.8 -.4 -1.1 -.2 l -4.6 2.9 c -.1 .1 -.2 .1 -.3 0 s -.1 -.2 0 -.3 l 3.9 -5 c .3 -.4 .2 -.9 -.1 -1.2 h -.1 c -.4 -.3 -.9 -.3 -1.2 .1 l -4.5 5 c -.1 .1 -.2 .1 -.3 0 s -.1 -.2 -.1 -.4 l 2.3 -5.6 c .1 -.4 0 -.8 -.4 -1 -.3 -.2 -.8 -.1 -1 .2 l -4.6 8 -2.4 -3.9 -.1 -.1 c -.3 -.3 -.8 -.3 -1.1 -.1 -.4 .4 -.6 .9 -.4 1.5 l 1.6 6.1 c .2 .6 .4 1.1 .8 1.5 l .2 .2 c .3 .3 .7 .5 1.1 .5 h .3 c .2 0 .3 .1 .3 .3 s -.1 .3 -.3 .3 h -1 c -.4 0 -.8 -.1 -1.2 -.2 l -1.2 -.4 c -.1 0 -.3 0 -.4 .1 l -2.7 2.9 -38.6 39.2 c -.7 .7 -.7 1.8 0 2.5 l 8.4 8.5 c .7 .7 1.8 .7 2.5 0 .1 -.1 .2 -.2 .2 -.3 l 34.8 -47.8 1.4 -2.2 9.6 -6.3 c .4 -.2 .5 -.6 .3 -1 z"/><path d="m 253.9 11.8 c -.2 -.3 -.5 -.4 -.9 -.3 l -3.6 1.8 c -.1 .1 -.3 0 -.3 -.1 -.1 -.1 -.1 -.2 0 -.3 l 4.7 -3.7 c .3 -.3 .3 -.7 .1 -1 -.3 -.3 -.8 -.4 -1.1 -.2 l -4.4 2.8 c -.1 .1 -.2 .1 -.3 0 s -.1 -.2 0 -.3 l 3.8 -4.9 c .3 -.4 .2 -.9 -.1 -1.2 -.4 -.3 -.9 -.3 -1.2 .1 l -4.6 4.7 c -.1 .1 -.2 .1 -.3 0 s -.1 -.2 -.1 -.3 l 2.2 -5.5 c .2 -.4 0 -.8 -.3 -1 s -.7 -.1 -.9 .2 l -4.5 7.8 -2.4 -3.8 -.1 -.1 c -.3 -.3 -.7 -.3 -1 -.1 -.4 .4 -.6 .9 -.4 1.4 l 1.6 5.9 c .1 .5 .4 1 .8 1.5 l .2 .2 c .3 .3 .6 .5 1 .5 h .3 c .2 0 .3 .1 .3 .3 s -.1 .3 -.3 .3 h -.9 c -.4 0 -.8 -.1 -1.2 -.2 l -1.2 -.2 c -.1 0 -.3 0 -.4 .1 l -2.7 2.9 -37.2 38.4 c -.7 .7 -.7 1.8 0 2.5 l 8.2 8.3 c .7 .7 1.8 .7 2.4 0 .1 -.1 .2 -.2 .2 -.3 l 33.7 -46.9 v -.1 l 1.4 -2.1 9.3 -6.2 c .3 -.1 .4 -.5 .2 -.9 z"/><path d="m 30.4 44 h .8 c .7 0 1.2 .5 1.2 1.2 0 7.1 4.5 10.6 9 15 .2 .2 .4 .3 .6 .5 l 1.5 1.5 c .4 .3 .4 .9 0 1.3 -.2 .2 -.4 .3 -.6 .3 h -2.1 c 1 4.9 5.8 8 10.6 7 3.5 -.7 6.3 -3.5 7 -7 h -2.1 c -.5 0 -.9 -.4 -.9 -.9 0 -.2 .1 -.5 .3 -.6 l 1.5 -1.4 c .2 -.2 .4 -.3 .6 -.5 4.5 -4.4 9 -8 9 -15 0 -.7 .5 -1.2 1.2 -1.2 h .8 c .9 0 1.7 -.7 1.8 -1.6 l 1.1 -8.1 c 0 -.6 -.4 -1 -1 -1 -.3 0 -.6 .1 -.8 .3 -.2 .3 -.6 .5 -1 .5 -.6 0 -1.1 -.5 -1.2 -1.1 l 2.4 -11.5 c .5 -2.4 -1.1 -4.8 -3.5 -5.3 -.3 -.1 -.6 -.1 -.9 -.1 h -2.7 l 3.6 -3.6 c 0 -3 -2.4 -5.4 -5.4 -5.4 h -18 c -5 0 -9 4 -9 9 h -.8 c -2.5 0 -4.5 2 -4.5 4.5 0 .3 0 .6 .1 .9 l 2.5 11.7 c -.1 .7 -.8 1.1 -1.5 .9 -.3 -.1 -.6 -.2 -.7 -.5 -.4 -.4 -1 -.5 -1.4 -.1 -.3 .2 -.4 .5 -.4 .8 l 1.1 8.1 c .1 .8 .9 1.5 1.8 1.4 z m 24.8 6 c 0 2.2 -2.6 3.9 -5.7 3.9 s -5.7 -1.8 -5.7 -3.9 z"/><path d="m 173.1 248.6 h 8.1 c .9 0 1.7 -.7 1.8 -1.7 l 6.9 -104.3 c .1 -1 -.7 -1.8 -1.7 -1.9 h -.1 -43.4 c -1 0 -1.8 .8 -1.8 1.8 v .1 l 7.8 104.3 c .1 .9 .8 1.7 1.8 1.7 h 8.2 c 1 0 1.8 -.8 1.8 -1.7 l 1.7 -79.8 c .1 -1.5 1.4 -2.6 2.8 -2.5 s 2.4 1.2 2.5 2.5 l 1.7 79.8 c .1 1 .9 1.8 1.9 1.7 z"/><path d="m 133.3 184.1 c .3 -1.5 -.8 -4 -.4 -8.7 .1 -1.3 .4 -2.5 .9 -3.7 .1 -.2 .2 -.1 .3 0 .2 1.5 1 3.7 1.5 3.9 1.3 .4 1.9 -6.8 1.3 -8.4 -.2 -.6 -.5 -1.2 -1.1 -1.6 -.4 -.3 -.7 -.9 -.6 -1.4 l 10 -66.1 c .2 -1 -.5 -1.9 -1.5 -2 -.3 0 -.5 0 -.8 0 l -8.6 2.5 c -.7 .2 -1.2 .9 -1.3 1.6 l -3.9 64.7 s -.3 3.6 -.4 7.3 c -.1 2.8 -.1 6.1 .7 7.9 .7 1.6 1.6 3.1 2.7 4.5 .3 .3 .8 .3 1.1 0 0 -.2 .1 -.4 .1 -.5 z"/><path d="m 159.8 253.1 s -9.5 -.4 -12 0 -15.1 3.6 -15.1 3.6 c -1 .2 -1.6 1.1 -1.4 2.1 .2 .9 .9 1.5 1.8 1.5 h 26.8 c 2 -.1 3.5 -1.8 3.4 -3.8 -.3 -1.8 -1.8 -3.3 -3.5 -3.4 z"/><path d="m 201.1 256.7 s -12.7 -3.4 -15.1 -3.6 -12 0 -12 0 c -2 .1 -3.5 1.8 -3.4 3.8 .1 1.8 1.6 3.3 3.4 3.4 h 26.8 c 1 0 1.8 -.8 1.8 -1.8 0 -.9 -.7 -1.6 -1.5 -1.8 z"/><path d="m 148.9 43.6 c .9 0 2 .2 2 .9 0 8.1 7.1 14.1 12.5 16.6 v 2.1 c 0 1 -.8 1.8 -1.8 1.8 h -1.2 c -.5 0 -.9 .4 -.9 .9 0 .3 .1 .5 .3 .7 1.4 1.2 4.5 2 8 2 s 6.6 -.8 8 -2 c .4 -.3 .4 -.9 .1 -1.3 -.2 -.2 -.4 -.3 -.7 -.3 h -1.2 c -1 0 -1.8 -.8 -1.8 -1.8 h -2.2 c -.3 0 -.5 -.2 -.5 -.5 0 -.2 .1 -.4 .3 -.5 l 3.3 -1.6 c 5.3 -2.7 11.6 -8.5 11.6 -16.1 0 -.7 1.1 -.9 2 -.9 s 1.6 -.7 1.6 -1.6 l .9 -7.5 c .1 -.5 -.3 -.9 -.8 -1 -.2 0 -.3 0 -.5 .1 l -1 .5 c -.4 .2 -1 0 -1.2 -.4 -.1 -.1 -.1 -.2 -.1 -.4 v -.4 c 0 -2.7 2.7 -3.6 2.7 -7.1 0 -2.7 -3.6 -4.5 -4.5 -7.1 s .9 -4.5 -2.7 -8 c -.9 -.9 -3.6 -1.8 -6.2 -1.8 -3.6 0 -4.5 .9 -6.2 .9 -3.3 0 -4.2 -2.9 -8.9 -2.7 -8.7 0 -12.5 8.6 -12.5 16 0 6.3 2.7 8 2.7 9.9 v .4 c 0 .5 -.4 .9 -.9 .9 -.1 0 -.3 0 -.4 -.1 l -1 -.5 c -.4 -.2 -1 0 -1.2 .4 -.1 .2 -.1 .3 -.1 .5 l .9 7.5 c .1 .8 .8 1.5 1.6 1.5 z m 14.8 6.2 h 8.2 c .5 0 .9 .4 .9 .9 0 .1 0 .2 -.1 .4 -1.2 2.7 -4.4 3.9 -7.1 2.7 -1.2 -.5 -2.2 -1.5 -2.7 -2.7 -.2 -.5 0 -1 .5 -1.2 0 0 .2 -.1 .3 -.1 z"/><path d="m 195.1 62.1 c -.7 -.7 -1.7 -.7 -2.4 0 l -.7 .7 c -2.8 1.7 -6 2.7 -9.3 3.1 -.8 -.2 -1.6 .2 -2 .9 -1.6 3 -6.7 5.2 -12.9 5.2 -6.4 0 -11.8 -2.4 -13.1 -5.6 -.3 -.8 -1.2 -1.3 -2 -1.1 -11.2 2.1 -19.7 18.4 -19.7 26.4 0 1 .8 1.7 1.8 1.7 h 10.2 c .3 0 .6 -.2 .8 -.4 l .5 -.8 c .3 -.4 .8 -.6 1.2 -.3 .3 .2 .5 .5 .4 .8 l -4.8 41.5 c -.1 1 .6 1.9 1.5 2 h .2 43.2 c 1 0 1.8 -.8 1.8 -1.8 0 -.1 0 -.1 0 -.2 l 2.4 -48.7 s 3.1 -2.5 6.5 -5.6 c .2 -.1 .3 -.2 .4 -.3 l 5.5 -5.5 c .7 -.7 .7 -1.7 0 -2.4 z"/><path d="m 9.2 165.5 c -.2 -.7 -.6 -1.4 -1.2 -1.8 -.5 -.4 -.8 -1 -.7 -1.6 l 13.8 -69.1 c .2 -1 -.2 -2 -2.2 -1.8 l -12.3 -.2 c -1.5 0 -2.6 1.2 -2.7 2.6 v .1 l -3.4 69.2 s -.3 4 -.4 8.2 c -.1 3.1 -.1 6.8 .8 8.8 .8 1.8 1.8 3.5 3 5 .3 .3 .8 .4 1.2 .1 .1 -.1 .2 -.3 .3 -.5 .3 -1.7 -.9 -4.4 -.5 -9.8 .1 -1.4 .4 -2.8 1 -4.1 .1 -.2 .3 -.1 .3 0 .3 1.7 1.1 4.2 1.6 4.3 1.4 .5 2.1 -7.6 1.4 -9.4 z"/></g></svg>