<svg enable-background="new 0 0 767.6986694 727.40625" viewBox="0 0 767.7 727.41" xmlns="http://www.w3.org/2000/svg"><g fill="#fff"><path d="m 477.66 645.74 v 38.16 c 0 15.68 12.83 28.5 28.51 28.5 h 17.11 c 15.68 0 28.51 -12.83 28.51 -28.5 v -38.16 z"/><path d="m 393.55 645.74 v 38.15 c 0 15.68 12.82 28.51 28.51 28.51 h 17.11 c 15.68 0 28.51 -12.83 28.51 -28.51 v -38.15 z"/><path d="m 628.41 305.58 l 78.62 -78.62 c 10.81 -10.81 10.81 -28.5 0 -39.31 -10.82 -10.81 -28.5 -10.81 -39.31 0 l -63.53 63.53 -73.86 -42.64 c -9.21 -5.32 -19.09 -8.78 -29.87 -8.78 h -55.59 c -5.49 0 -9.91 .71 -15.18 2.12 l -80.55 21.58 -21.58 -80.55 c -1.89 -7.06 -6.38 -12.76 -12.17 -16.36 l 26.09 -97.37 40.25 10.78 c 3.97 -14.82 -4.82 -30.05 -19.64 -34.02 -14.82 -3.97 -30.05 4.82 -34.02 19.64 l -25.93 96.77 c -2.83 -.15 -5.73 .13 -8.62 .9 -14.77 3.96 -23.61 19.28 -19.66 34.04 l 28.77 107.39 c 2.1 7.45 6.79 13.47 13.55 17.18 6.41 3.42 13.51 4.21 20.49 2.48 l 56.87 -14.1 v 34.94 h 49.72 c 10.71 0 19.44 8.73 19.44 19.44 0 9.77 -7.26 17.89 -16.67 19.25 v 27.97 c 0 13.24 -5.85 30.17 -15.11 38.33 h 120.84 v -122.59 l 42.46 22.05 .09 .05 c 10.71 6.47 24.9 5.11 34.1 -4.1 z"/><path d="m 472.66 60.77 c 30.71 0 55.59 28 55.59 62.54 s -24.89 62.54 -55.59 62.54 -55.59 -28 -55.59 -62.54 24.89 -62.54 55.59 -62.54 z"/><path d="m 87.93 411.31 h 596.99 v 211.15 l 18.86 21.38 c -4.11 2.07 -7.97 4.83 -11.4 8.26 -3.43 3.44 -6.18 7.29 -8.26 11.4 l -21.38 -18.86 h -293.51 c 3 -10.6 4.6 -21.77 4.6 -33.33 0 -67.49 -54.72 -122.22 -122.22 -122.22 -67.49 0 -122.22 54.72 -122.22 122.22 0 11.56 1.61 22.74 4.6 33.33 h -60.15 v -215.81 l -35.51 -20.5 c -3.27 1.89 -7.06 2.98 -11.11 2.98 -12.27 0 -22.22 -9.95 -22.22 -22.22 s 9.95 -22.22 22.22 -22.22 22.22 9.95 22.22 22.22 z"/><path d="m 251.61 589.08 c 12.27 0 22.22 9.95 22.22 22.22 s -9.95 22.22 -22.22 22.22 -22.22 -9.95 -22.22 -22.22 9.95 -22.22 22.22 -22.22 z"/><path d="m 192.83 560.37 c 2.43 -2.8 5.05 -5.43 7.86 -7.85 l 35.61 35.61 c -3.12 2.06 -5.79 4.74 -7.86 7.86 z"/><path d="m 174.04 616.86 c -.13 -1.83 -.2 -3.69 -.2 -5.55 0 -1.87 .07 -3.72 .2 -5.56 h 50.35 c -.37 1.8 -.56 3.65 -.56 5.56 0 1.9 .19 3.76 .56 5.55 z"/><path d="m 200.69 670.08 c -2.8 -2.43 -5.43 -5.05 -7.86 -7.85 l 35.61 -35.61 c 2.06 3.12 4.74 5.79 7.86 7.86 z"/><path d="m 257.17 688.88 c -1.84 .13 -3.69 .2 -5.56 .2 s -3.72 -.07 -5.56 -.2 v -50.35 c 1.8 .37 3.65 .56 5.56 .56 1.9 0 3.76 -.19 5.56 -.56 z"/><path d="m 310.4 662.23 c -2.43 2.8 -5.06 5.43 -7.86 7.85 l -35.61 -35.61 c 3.12 -2.06 5.79 -4.74 7.86 -7.86 z"/><path d="m 329.19 605.75 c .13 1.83 .2 3.69 .2 5.56 s -.07 3.72 -.2 5.55 h -50.35 c .37 -1.79 .56 -3.65 .56 -5.55 s -.19 -3.76 -.56 -5.56 z"/><path d="m 302.54 552.52 c 2.8 2.43 5.43 5.05 7.86 7.85 l -35.61 35.61 c -2.06 -3.12 -4.74 -5.79 -7.86 -7.86 z"/><path d="m 251.61 533.53 c 1.87 0 3.72 .07 5.56 .2 v 50.35 c -1.8 -.37 -3.65 -.56 -5.56 -.56 -1.9 0 -3.76 .19 -5.56 .56 v -50.35 c 1.84 -.13 3.69 -.2 5.56 -.2 z"/><path d="m 251.61 500.2 c 61.36 0 111.11 49.74 111.11 111.11 0 61.36 -49.74 111.1 -111.11 111.1 -61.36 0 -111.1 -49.74 -111.1 -111.1 0 -61.37 49.74 -111.11 111.1 -111.11 z m 0 27.77 c 46.02 0 83.33 37.31 83.33 83.33 s -37.31 83.33 -83.33 83.33 -83.33 -37.31 -83.33 -83.33 37.31 -83.33 83.33 -83.33 z"/><path d="m 265.5 316.31 c 4.58 0 8.33 3.75 8.33 8.33 s -3.75 8.33 -8.33 8.33 h -8.33 v 38.89 c 0 18.33 -15 38.33 -33.33 38.33 h -66.66 c -18.33 0 -33.33 -20 -33.33 -38.33 v -38.89 h -8.33 c -4.58 0 -8.33 -3.75 -8.33 -8.33 s 3.75 -8.33 8.33 -8.33 z"/><path d="m 443.27 316.31 c 4.58 0 8.33 3.75 8.33 8.33 s -3.75 8.33 -8.33 8.33 h -8.33 v 38.89 c 0 18.33 -15 38.33 -33.33 38.33 h -66.66 c -18.33 0 -33.33 -20 -33.33 -38.33 v -38.89 h -8.33 c -4.58 0 -8.33 -3.75 -8.33 -8.33 s 3.75 -8.33 8.33 -8.33 z"/><path d="m 201.31 297.05 c 31.68 1.07 55.86 6.8 55.86 13.71 -44.44 0 -88.88 0 -133.33 0 0 -6.9 24.18 -12.63 55.86 -13.71 1.18 -4.87 5.58 -8.52 10.8 -8.52 h .01 c 5.21 .01 9.62 3.65 10.8 8.52 z"/><path d="m 696.31 656.02 c 15.19 -15.19 39.81 -15.19 55 0 s 15.19 39.81 0 55 -39.81 15.19 -55 0 c -15.18 -15.19 -15.18 -39.81 0 -55 z m 11.79 11.79 c 8.68 -8.68 22.75 -8.68 31.42 0 8.68 8.68 8.68 22.75 0 31.43 s -22.75 8.68 -31.42 0 c -8.68 -8.69 -8.68 -22.75 0 -31.43 z"/><path d="m 691.32 165.64 c -30.88 7.16 -55.72 7.89 -57.51 1.22 42.93 -11.5 85.85 -18 128.78 -29.51 1.79 6.67 -20.09 13.46 -50.41 22.7 .12 5.01 -3.19 9.67 -8.23 11.02 s -10.23 -1.03 -12.63 -5.43 z"/></g></svg>