<svg enable-background="new 0 0 234.6 285" viewBox="0 0 234.6 285" xmlns="http://www.w3.org/2000/svg"><g fill="#fff"><path d="m 125.5 206.6 c .2 -.2 .4 -.4 .6 -.6 4.9 -4.8 9.8 -8.7 9.8 -16.4 0 -.7 .6 -1.3 1.3 -1.3 h .9 c 1 0 1.8 -.7 1.9 -1.7 l 1.2 -8.8 c .1 -.6 -.3 -1.1 -.9 -1.2 -.4 -.1 -.8 .1 -1 .4 -.4 .6 -1.3 .7 -1.9 .3 -.3 -.2 -.5 -.5 -.5 -.9 l 2.7 -12.6 c .6 -2.7 -1.1 -5.3 -3.8 -5.8 -.3 -.1 -.7 -.1 -1 -.1 h -2.8 l 3.9 -3.9 c 0 -3.3 -2.6 -5.9 -5.9 -5.9 h -19.6 c -5.4 0 -9.8 4.4 -9.8 9.8 h -.8 c -2.7 0 -4.9 2.2 -4.9 4.9 0 .3 0 .7 .1 1 l 2.7 12.7 c -.2 .7 -1 1.1 -1.7 .9 -.3 -.1 -.5 -.2 -.7 -.5 -.3 -.5 -1 -.6 -1.5 -.2 -.3 .2 -.5 .6 -.4 1 l 1.2 8.8 c .1 1 1 1.7 2 1.7 h .8 c .7 0 1.3 .6 1.3 1.3 0 7.7 4.9 11.6 9.8 16.4 l .6 .6 1.6 1.6 c .4 .4 .4 1 -.1 1.4 -.2 .2 -.4 .3 -.6 .3 h -1.6 c -.3 0 -.6 .2 -.6 .5 v .1 c 1.5 5.2 6.9 8.3 12.1 6.8 3.3 -.9 5.9 -3.5 6.8 -6.8 .1 -.3 -.1 -.6 -.4 -.7 h -.1 -1.6 c -.6 0 -1 -.5 -1 -1 0 -.2 .1 -.5 .3 -.6 z m -8.2 -7.5 c -3.7 0 -6.8 -1.1 -6.8 -2.4 s 3 -2.4 6.8 -2.4 6.8 1.1 6.8 2.4 -3 2.4 -6.8 2.4 z"/><path d="m 82.7 236.5 l -15.5 -5.4 c -.8 -.3 -1.7 .1 -2.1 .8 l -10 13 c -.4 .8 -1.3 1.1 -2.2 .8 l -30.4 -9.7 c -.6 -.1 -1.1 -.5 -1.3 -1 -.2 -.7 -.7 -1.3 -1.4 -1.7 -1.5 -1.1 -9.3 -2.7 -9.2 -1.3 0 .5 2.1 2 3.6 2.8 .1 .1 .2 .3 -.1 .3 -1.4 .1 -2.8 .1 -4.1 -.2 -5.1 -1.1 -7.4 -3 -9.1 -3.2 -.4 -.1 -.9 .3 -.9 .7 0 .2 0 .4 .1 .6 1.1 1.6 2.4 3 3.9 4.2 1.6 1.5 5.1 2.5 8 3.2 3.6 .9 7 1.7 7.7 1.9 .1 0 .2 .1 .3 .1 l 34.5 19.1 c 1 .6 2.2 .5 3.1 -.3 l 25.8 -21.8 c .7 -.7 .7 -1.8 0 -2.5 -.2 -.2 -.5 -.3 -.7 -.4 z"/><path d="m 233.7 231.6 c -1.7 .1 -3.9 2.1 -9.1 3.2 -1.4 .3 -2.7 .4 -4.1 .2 -.2 0 -.2 -.2 -.1 -.3 1.5 -.7 3.6 -2.2 3.6 -2.8 0 -1.4 -7.8 .2 -9.2 1.3 -.6 .4 -1.1 1 -1.4 1.7 -.2 .6 -.7 1 -1.3 1.1 l -30.4 9.6 c -.8 .3 -1.7 -.1 -2.2 -.8 l -10 -13 c -.4 -.7 -1.3 -1 -2.1 -.8 l -15.5 5.4 c -.9 .3 -1.4 1.3 -1.1 2.2 .1 .3 .2 .5 .5 .7 l 25.7 21.8 c .8 .8 2.1 .9 3.1 .3 l 34.5 -19.1 c .1 0 .2 -.1 .3 -.1 .7 -.2 4.1 -.9 7.7 -1.9 3 -.8 6.4 -1.8 8 -3.2 1.5 -1.2 2.8 -2.7 3.9 -4.2 .2 -.4 .1 -.9 -.3 -1.1 -.2 -.1 -.3 -.2 -.5 -.2 z"/><path d="m 168.1 219.6 c -3.2 -3.5 -11.2 -11.5 -14.9 -14.5 -1 -.8 -2.3 -1.2 -3.6 -1.2 l -16.1 .1 c -.4 -.1 -1.1 .3 -.9 .7 2.7 5.9 -1.6 17.8 -15.3 18.1 -13.6 -.2 -17.9 -12.1 -15.3 -18.1 .2 -.4 -.5 -.7 -.9 -.7 l -16.1 -.1 c -1.3 0 -2.6 .4 -3.6 1.2 -5.2 4.6 -10.2 9.4 -14.9 14.5 -.7 .8 -.6 2 .1 2.7 .1 .1 .2 .2 .3 .2 l 21.5 10.9 c .9 .3 1.6 1.2 1.6 2.1 l .4 47.5 c .1 1.1 .9 1.9 2 2 h 49.8 c 1.1 -.1 1.9 -.9 2 -2 l .4 -47.5 c 0 -1 .6 -1.8 1.6 -2.1 l 21.5 -10.9 c .9 -.5 1.2 -1.7 .6 -2.6 0 -.1 -.1 -.2 -.2 -.3 z"/><path d="m 24.6 132 h 127.9 c .6 0 1 .5 .9 1.1 v .2 l -4.9 12.5 c -.4 1.1 .1 2.3 1.2 2.7 .6 .2 1.2 .2 1.7 -.1 l 26.1 -13.3 23.2 -13.6 c .6 -.4 1.4 -.3 2 .1 .7 .6 .9 1.7 .3 2.4 -.1 .1 -.1 .1 -.2 .2 l -7 6.6 c -.3 .2 -.3 .7 0 .9 .1 .1 .3 .2 .5 .2 h 13.8 c 11.7 0 21.2 -9.5 21.2 -21.3 v -89.3 c 0 -11.7 -9.5 -21.3 -21.3 -21.3 h -186.7 c -11 0 -20 9 -20 20 v 90.7 c 0 11.8 9.5 21.3 21.3 21.3 z m 139.7 -110 h 40 c 1.7 0 3 1.3 3 3 v 84 c 0 1.7 -1.3 3 -3 3 h -54 c -1.7 0 -3 -1.3 -3 -3 s 1.3 -3 3 -3 h 34 v -16 h -20 c -1.7 0 -3 -1.3 -3 -3 v -11 c 0 -1.7 1.3 -3 3 -3 h 15 c 1.7 0 3 1.3 3 3 s -1.3 3 -3 3 h -12 v 5 h 20 c 1.7 0 3 1.3 3 3 v 8 h 3 c 1.7 0 3 1.3 3 3 s -1.3 3 -3 3 h -3 v 5 h 11 v -27 h -8 c -1.7 0 -3 -1.3 -3 -3 v -8 h -26 c -1.7 0 -3 -1.3 -3 -3 v -11 c 0 -1.7 1.3 -3 3 -3 h 5 v -5 c 0 -1.7 1.3 -3 3 -3 s 3 1.3 3 3 v 8 c 0 1.7 -1.3 3 -3 3 h -5 v 5 h 13 v -4 c 0 -1.7 1.3 -3 3 -3 s 3 1.3 3 3 v 4 h 7 c 1.7 0 3 1.3 3 3 v 8 h 5 v -16 h -8 c -1.7 0 -3 -1.3 -3 -3 v -4 h -7 c -1.7 0 -3 -1.3 -3 -3 s 1.3 -3 3 -3 h 7 v -8 c 0 -1.7 1.3 -3 3 -3 s 3 1.3 3 3 v 15 h 5 v -23 h -15 v 8 c 0 1.7 -1.3 3 -3 3 s -3 -1.3 -3 -3 v -8 h -16 c -1.7 0 -3 -1.3 -3 -3 s 1.4 -3 3 -3 z m -47 3 c 0 -1.7 1.3 -3 3 -3 h 33 c 1.7 0 3 1.3 3 3 s -1.3 3 -3 3 h -8 v 4 h 25 c 1.7 0 3 1.3 3 3 s -1.3 3 -3 3 h -6 v 7 c 0 1.7 -1.3 3 -3 3 h -30 c -1.7 0 -3 -1.3 -3 -3 v -9 c 0 -1.7 1.3 -3 3 -3 s 3 1.3 3 3 v 6 h 24 v -4 h -16 c -1.7 0 -3 -1.3 -3 -3 v -7 h -16 v 25 h 19 c 1.7 0 3 1.3 3 3 s -1.3 3 -3 3 h -19 v 27 h 19 c 1.7 0 3 1.3 3 3 v 6 h 5 v -25 h -16 v 5 h 5 c 0 -1.7 1.3 -3 3 -3 s 3 1.3 3 3 v 3 c 0 1.7 -1.3 3 -3 3 h -11 c -1.7 0 -3 -1.3 -3 -3 v -11 c 0 -1.7 1.3 -3 3 -3 h 19 v -8 c 0 -1.7 1.3 -3 3 -3 s 3 1.3 3 3 v 39 h 22 c 1.7 0 3 1.3 3 3 s -1.3 3 -3 3 h -36 c -1.7 0 -3 -1.3 -3 -3 v -6 h -16 v 14 h 5 v -6 c 0 -1.7 1.3 -3 3 -3 s 3 1.3 3 3 v 6 h 5 c 1.7 0 3 1.3 3 3 s -1.3 3 -3 3 h -19 c -1.7 0 -3 -1.3 -3 -3 z m -55 -3.1 c 19.3 0 35 15.7 35 35 0 23 -23.6 50.7 -32.1 59.9 -1.5 1.6 -4 1.7 -5.7 .2 -.1 -.1 -.2 -.2 -.2 -.2 -8.4 -9.2 -32.1 -36.9 -32.1 -59.9 .1 -19.4 15.8 -35 35.1 -35 z"/><path d="m 61.9 80.6 c 2.6 0 4.7 2.1 4.7 4.7 s -2.1 4.7 -4.7 4.7 -4.7 -2.1 -4.7 -4.7 2.1 -4.7 4.7 -4.7 z"/><path d="m 59.4 46.7 c .8 -.4 1.7 -.6 2.5 -.6 1 0 1.9 .3 2.8 .7 1.9 1 3.2 3 3.1 5.2 0 1.5 -.6 2.9 -1.6 4 -1.2 1.5 -2.5 2.9 -3.8 4.2 -1.4 1.1 -2.7 2.5 -3.7 4 -.6 1.1 -1 2.3 -1 3.6 v 4.1 c 0 2.3 1.8 4.1 4.1 4.1 s 4.1 -1.8 4.1 -4.1 c 0 -4.1 -1.2 -4.7 4.7 -8.8 3.5 -2.5 5.7 -5.5 6.3 -8.8 .2 -1 .4 -1.9 .4 -2.9 0 -7.4 -6.5 -13.4 -14.6 -13.4 -3.7 0 -7.2 1.2 -10 3.6 -3.1 2.3 -5.3 5.7 -5.3 8.7 -.1 1 .2 2 .8 2.8 .8 .9 2 1.4 3.3 1.3 3.9 -.1 3.2 -6 7.9 -7.7 z"/></g></svg>