<svg enable-background="new 0 0 841.889 595.281" height="595.28" viewBox="0 0 841.89 595.28" width="841.89" xmlns="http://www.w3.org/2000/svg"><g fill="#fff"><path d="m 362.61 524.2 c -4.17 1.73 -8.1 4.29 -11.67 8.1 -1.79 1.91 -54.35 -4.58 -75.18 -37.86 -1.79 -2.86 -2.38 -7.62 -1.49 -10.95 1.55 -5.72 1.73 -11.07 .65 -16.37 5.9 2.14 64.89 23.27 87.69 57.08 z"/><path d="m 528.16 445.87 c .77 -1.61 1.49 -4.64 2.26 -8.81 7.14 -39.11 3.63 -79.47 -9.88 -116.91 -2.98 -8.22 -5.06 -13.87 -5.3 -14.17 -12.92 -19.76 -12.14 -36.61 2.32 -55.6 2.02 -2.68 4.17 -5.48 5.48 -8.51 2.38 -5.36 -.24 -9.23 -6.07 -8.75 -2.14 .18 -4.17 .89 -6.31 1.13 -8.45 .95 -16.97 2.44 -25.42 2.5 -7.14 .06 -12.02 -4.58 -13.93 -11.07 7.5 5.18 15.6 4.7 23.69 2.56 10.95 -2.98 21.85 -6.19 32.62 -9.76 3.33 -1.13 6.91 -3.04 9.23 -5.6 14.82 -16.43 29.88 -32.68 43.75 -49.82 7.5 -9.29 13.39 -20 18.87 -30.66 3.22 -6.25 -.89 -10.42 -7.74 -8.63 -8.33 2.08 -16.13 5.66 -21.79 12.62 -4.47 5.48 -8.69 11.13 -13.1 16.67 -3.04 3.75 -6.13 7.5 -9.23 11.19 -3.04 3.69 -6.07 7.32 -9.11 11.01 14.7 -27.74 29.94 -55 40.78 -84.41 2.38 -6.55 3.99 -13.57 4.82 -20.54 .77 -6.49 -3.87 -9.4 -9.7 -6.37 -3.57 1.85 -6.97 4.35 -9.88 7.14 -5.18 5 -67.44 122.81 -69.77 127.15 1.43 -3.51 33.16 -81.97 23.34 -67.44 -12.86 19.11 -25.36 38.46 -37.98 57.68 13.04 -27.09 26.73 -53.93 40.9 -80.42 4.82 -8.99 4.23 -17.86 1.85 -26.91 -1.37 -5.24 -5.66 -6.31 -9.94 -2.74 -2.92 2.44 -5.54 5.54 -7.56 8.81 -13.22 21.13 -21.25 44.53 -29.77 67.74 -5.06 13.75 -9.52 27.68 -14.29 41.55 -7.44 -2.5 -9.41 -1.79 -13.22 4.94 -1.85 3.21 -3.33 6.67 -5.12 9.88 -6.79 12.32 -15.95 21.61 -30.72 23.1 -5.72 .6 -11.55 .54 -17.26 .12 -15.48 -1.13 -30.84 -.72 -46.02 2.8 -3.04 .71 -7.02 1.85 -9.94 2.56 -26.55 6.61 -73.76 50.78 -77.57 57.09 -23.28 38.81 -26.19 79.59 -9.88 121.5 5.12 13.1 12.62 25.24 19.23 37.68 .6 1.07 17.38 8.75 25.06 12.08 32.21 13.87 57.09 32.2 73.46 53.93 5.54 -1.13 39.47 -.18 50.24 -1.55 49.01 -6.25 86.21 -30 108.6 -74.76 z m -239.9 3.81 c -.3 -.95 -.72 -2.08 -1.19 -3.45 -.48 -1.37 -.95 -2.92 -1.49 -4.7 -.54 -1.79 -1.13 -3.75 -1.73 -5.89 s -1.19 -4.52 -1.79 -7.02 c -.54 -2.56 -1.19 -5.24 -1.73 -8.1 -.48 -2.86 -1.07 -5.89 -1.43 -9.05 -.18 -1.61 -.48 -3.21 -.66 -4.88 s -.3 -3.33 -.48 -5.06 c -.06 -.42 -.06 -.89 -.12 -1.31 0 -.42 -.06 -.89 -.06 -1.31 -.06 -.89 -.06 -1.79 -.12 -2.68 s -.06 -1.79 -.12 -2.68 c 0 -.89 0 -1.85 0 -2.74 -.12 -7.38 .24 -15.24 1.49 -23.22 .18 -1.01 .36 -2.02 .48 -3.04 .18 -1.01 .3 -2.02 .54 -3.04 .24 -1.01 .42 -2.02 .65 -3.04 l .36 -1.55 .36 -1.55 c .54 -2.02 1.01 -4.05 1.67 -6.07 .3 -1.01 .65 -2.02 .95 -3.04 .36 -1.01 .71 -2.02 1.07 -3.04 1.43 -4.05 3.16 -7.98 5.06 -11.91 l 1.49 -2.92 .77 -1.43 .83 -1.43 1.61 -2.86 c .6 -.95 1.13 -1.85 1.73 -2.74 4.64 -7.38 10.24 -14.11 16.25 -20.18 6.07 -6.01 12.56 -11.37 19.23 -15.95 6.67 -4.64 13.51 -8.39 20.12 -11.67 6.61 -3.21 13.1 -5.83 19.17 -7.92 3.04 -1.07 5.95 -2.02 8.75 -2.8 2.8 -.77 5.48 -1.55 7.98 -2.14 5.06 -1.25 9.47 -2.08 13.16 -2.68 s 6.55 -.95 8.57 -1.13 c 1.85 -.18 2.92 -.24 3.04 -.24 -.12 0 -1.13 .24 -2.98 .65 -1.9 .42 -4.76 1.19 -8.27 2.14 -3.57 1.01 -7.8 2.32 -12.68 3.99 -4.82 1.67 -10.24 3.69 -16.01 6.19 -2.92 1.25 -5.83 2.62 -8.87 4.11 s -6.13 3.1 -9.29 4.76 c -6.25 3.51 -12.62 7.5 -18.87 12.08 -3.15 2.26 -6.19 4.76 -9.17 7.38 -.77 .65 -1.49 1.31 -2.26 1.96 -.72 .66 -1.43 1.37 -2.2 2.08 -1.49 1.37 -2.86 2.8 -4.29 4.23 -5.54 5.83 -10.77 12.2 -15.12 19.17 l -1.67 2.62 -1.55 2.68 -.77 1.31 -.71 1.37 -1.43 2.68 c -1.79 3.69 -3.51 7.38 -4.88 11.13 -.36 .95 -.71 1.91 -1.07 2.8 -.3 .95 -.65 1.91 -.95 2.86 -.66 1.91 -1.19 3.81 -1.73 5.72 -1.07 3.81 -1.91 7.68 -2.62 11.43 -1.37 7.62 -2.14 15.06 -2.44 22.2 -.06 .89 -.06 1.79 -.12 2.68 v 2.62 c 0 1.73 -.06 3.45 0 5.12 s .12 3.33 .12 4.94 c .06 1.61 .18 3.22 .3 4.76 .42 6.25 1.07 11.97 1.73 17.08 .42 2.56 .77 4.88 1.07 7.08 s .72 4.23 1.07 6.01 c .65 3.63 1.25 6.49 1.67 8.39 .36 1.85 .6 2.86 .6 2.98 -.07 -.01 -.43 -.96 -1.02 -2.74 z m 24.58 16.01 c -.24 -1.79 -.66 -4.47 -1.07 -7.8 -.18 -1.67 -.54 -3.57 -.66 -5.6 -.18 -2.02 -.3 -4.29 -.48 -6.61 -.06 -1.19 -.18 -2.44 -.24 -3.69 -.06 -.65 -.06 -1.25 -.12 -1.91 0 -.65 0 -1.31 0 -1.96 0 -2.68 0 -5.48 0 -8.39 -.06 -2.92 .24 -5.95 .42 -9.17 .18 -3.16 .36 -6.43 .83 -9.76 .24 -1.67 .42 -3.33 .65 -5.06 .24 -1.73 .42 -3.45 .77 -5.18 s .71 -3.51 1.01 -5.3 c .18 -.89 .36 -1.79 .54 -2.68 s .36 -1.79 .6 -2.68 c .95 -3.57 1.85 -7.2 2.92 -10.89 .6 -1.79 1.19 -3.63 1.79 -5.42 .3 -.89 .6 -1.85 .89 -2.74 l .48 -1.37 .54 -1.37 c 2.8 -7.26 6.01 -14.47 9.88 -21.37 .95 -1.73 1.91 -3.45 2.92 -5.18 1.07 -1.67 2.14 -3.33 3.16 -5 l 1.61 -2.5 c .6 -.77 1.13 -1.61 1.73 -2.38 1.13 -1.61 2.26 -3.16 3.45 -4.76 1.19 -1.55 2.44 -3.04 3.63 -4.52 s 2.38 -2.98 3.69 -4.41 c 1.25 -1.43 2.56 -2.8 3.81 -4.23 1.25 -1.37 2.62 -2.68 3.93 -3.99 2.56 -2.68 5.3 -5.06 7.92 -7.44 1.31 -1.19 2.74 -2.26 4.05 -3.39 .66 -.54 1.31 -1.13 1.97 -1.67 .65 -.54 1.37 -1.01 2.02 -1.55 1.37 -1.01 2.68 -2.02 3.99 -3.04 1.37 -.95 2.68 -1.85 3.99 -2.74 .65 -.48 1.31 -.89 1.9 -1.31 .66 -.42 1.31 -.83 1.97 -1.25 1.31 -.83 2.56 -1.61 3.81 -2.38 5.06 -3.04 9.76 -5.6 14.05 -7.62 4.29 -2.08 8.1 -3.69 11.31 -4.88 3.16 -1.25 5.72 -2.02 7.44 -2.56 .89 -.3 1.55 -.48 2.02 -.6 .36 -.12 .54 -.18 .66 -.18 -.18 .06 -1.07 .48 -2.5 1.13 -1.67 .77 -4.05 1.96 -7.02 3.51 s -6.55 3.63 -10.54 6.01 c -1.01 .6 -2.02 1.25 -3.1 1.9 -1.07 .66 -2.08 1.37 -3.22 2.08 -2.2 1.43 -4.41 3.04 -6.79 4.7 -1.13 .83 -2.32 1.73 -3.51 2.62 -.6 .48 -1.19 .89 -1.79 1.37 s -1.19 .95 -1.79 1.43 c -1.19 .95 -2.44 1.97 -3.69 2.92 -1.19 1.01 -2.44 2.08 -3.69 3.16 -.6 .54 -1.25 1.07 -1.85 1.61 s -1.25 1.13 -1.85 1.73 c -1.25 1.13 -2.5 2.26 -3.75 3.45 -2.38 2.44 -5 4.82 -7.32 7.5 -4.94 5.12 -9.47 10.89 -13.99 16.85 -1.07 1.55 -2.14 3.04 -3.22 4.58 -.54 .77 -1.07 1.55 -1.61 2.32 l -1.49 2.38 c -1.01 1.61 -2.02 3.22 -3.04 4.82 -.95 1.61 -1.85 3.27 -2.74 4.94 l -1.37 2.5 -.71 1.25 -.6 1.25 c -.83 1.73 -1.67 3.39 -2.5 5.12 -.42 .83 -.83 1.67 -1.25 2.56 -.36 .89 -.71 1.73 -1.07 2.62 -.72 1.73 -1.49 3.45 -2.2 5.18 l -.54 1.31 -.48 1.31 c -.3 .89 -.6 1.73 -.95 2.62 -.66 1.73 -1.25 3.45 -1.91 5.18 -.36 .83 -.54 1.73 -.83 2.62 -.24 .89 -.54 1.73 -.77 2.62 -.54 1.73 -1.01 3.45 -1.55 5.18 -.89 3.45 -1.67 6.85 -2.5 10.18 -.48 1.67 -.71 3.33 -1.01 5 s -.6 3.27 -.89 4.88 c -.72 3.22 -1.01 6.43 -1.43 9.47 -.36 3.1 -.89 6.01 -1.01 8.87 -.24 2.86 -.48 5.6 -.66 8.22 -.06 .65 -.12 1.31 -.18 1.96 0 .66 -.06 1.25 -.06 1.91 -.06 1.25 -.06 2.44 -.12 3.63 -.12 4.7 -.42 8.81 -.24 12.15 .06 3.39 0 6.01 .06 7.86 v 2.8 c -.09 -.05 -.27 -1 -.51 -2.73 z m 74.23 -4.29 c -1.37 .83 -2.8 1.67 -4.11 2.5 -1.37 .77 -2.74 1.55 -4.11 2.26 -1.31 .77 -2.68 1.37 -3.99 2.08 -.66 .3 -1.31 .65 -1.97 .95 -.65 .3 -1.31 .6 -1.96 .89 -1.31 .6 -2.5 1.19 -3.75 1.67 -2.5 .95 -4.82 1.97 -7.08 2.74 -1.13 .42 -2.2 .77 -3.22 1.19 -1.07 .36 -2.08 .66 -3.04 .95 -1.97 .6 -3.75 1.19 -5.42 1.55 -1.67 .42 -3.1 .83 -4.41 1.13 s -2.38 .54 -3.27 .71 c -1.55 .36 -2.5 .54 -2.68 .6 .18 -.06 1.07 -.42 2.56 -.95 .83 -.3 1.9 -.72 3.1 -1.13 1.19 -.48 2.62 -1.07 4.17 -1.67 s 3.27 -1.37 5.12 -2.2 c .89 -.42 1.9 -.83 2.86 -1.25 1.01 -.48 2.02 -.95 3.1 -1.43 2.14 -.95 4.29 -2.2 6.61 -3.33 1.13 -.6 2.32 -1.31 3.51 -1.97 .6 -.36 1.19 -.66 1.85 -1.01 .6 -.36 1.19 -.72 1.79 -1.07 4.94 -2.92 10.06 -6.37 15.18 -10.36 s 10.3 -8.51 15.3 -13.51 c 1.25 -1.25 2.44 -2.56 3.69 -3.87 1.19 -1.31 2.38 -2.68 3.57 -4.05 2.32 -2.8 4.64 -5.66 6.85 -8.63 4.35 -6.01 8.45 -12.32 12.02 -18.99 3.57 -6.61 6.79 -13.51 9.52 -20.42 2.74 -6.97 5.06 -13.93 6.97 -20.78 1.97 -6.85 3.51 -13.57 4.76 -20 1.31 -6.43 2.26 -12.56 2.98 -18.27 .77 -5.72 1.31 -10.95 1.67 -15.6 .36 -4.64 .6 -8.75 .72 -12.15 .12 -3.39 .18 -6.01 .18 -7.86 0 -1.61 0 -2.56 0 -2.74 0 .18 .18 1.13 .42 2.74 .24 1.79 .6 4.47 .83 7.8 .24 3.39 .54 7.5 .6 12.26 s .06 10.06 -.24 15.89 c -.6 11.67 -2.26 25.3 -5.72 39.53 -.42 1.79 -.89 3.57 -1.37 5.36 -.54 1.79 -1.01 3.63 -1.55 5.42 -1.13 3.63 -2.32 7.26 -3.69 10.89 -2.68 7.26 -5.95 14.41 -9.7 21.37 -3.75 6.91 -8.04 13.57 -12.74 19.76 s -9.82 11.91 -15.24 16.97 c -5.36 5.06 -11.01 9.53 -16.61 13.34 -1.26 .91 -2.63 1.86 -4.06 2.69 z m 91.32 -16.13 c -2.68 3.51 -5.42 6.85 -8.45 10 -.77 .77 -1.49 1.61 -2.2 2.32 -.77 .77 -1.55 1.49 -2.32 2.26 -1.49 1.49 -3.16 2.86 -4.76 4.29 -.77 .71 -1.61 1.37 -2.44 2.02 -.83 .66 -1.61 1.31 -2.44 1.97 -1.67 1.31 -3.33 2.44 -5 3.69 -6.67 4.7 -13.57 8.57 -20.3 11.85 -6.73 3.21 -13.22 5.89 -19.41 7.92 -.77 .24 -1.49 .54 -2.26 .77 -.77 .24 -1.49 .48 -2.26 .72 -1.49 .48 -2.92 .89 -4.35 1.31 -2.86 .77 -5.54 1.43 -8.1 2.14 -2.56 .6 -4.94 1.13 -7.14 1.61 s -4.29 .77 -6.13 1.13 c -.89 .18 -1.79 .3 -2.62 .48 s -1.61 .24 -2.32 .36 c -1.43 .18 -2.68 .36 -3.63 .54 -1.73 .24 -2.74 .36 -2.98 .42 .24 -.06 1.25 -.36 2.92 -.83 1.9 -.54 4.76 -1.25 8.33 -2.32 1.79 -.54 3.75 -1.07 5.89 -1.79 s 4.47 -1.43 6.91 -2.26 c 2.44 -.89 5.06 -1.79 7.74 -2.8 1.37 -.54 2.74 -1.07 4.17 -1.61 .72 -.3 1.43 -.54 2.14 -.83 .71 -.3 1.43 -.6 2.14 -.95 1.43 -.6 2.92 -1.25 4.47 -1.91 1.49 -.71 2.98 -1.43 4.52 -2.14 1.55 -.72 3.1 -1.49 4.64 -2.32 .77 -.42 1.55 -.77 2.38 -1.19 .77 -.42 1.55 -.83 2.38 -1.31 6.31 -3.45 12.74 -7.5 18.99 -12.2 1.55 -1.19 3.1 -2.38 4.64 -3.63 .77 -.66 1.49 -1.31 2.26 -1.91 .77 -.65 1.55 -1.31 2.26 -1.96 1.49 -1.37 2.98 -2.68 4.35 -4.17 .72 -.72 1.43 -1.43 2.14 -2.14 s 1.37 -1.49 2.08 -2.26 c 2.8 -2.98 5.3 -6.19 7.8 -9.47 2.38 -3.33 4.76 -6.73 6.79 -10.36 4.23 -7.08 7.56 -14.7 10.18 -22.44 .3 -.95 .6 -1.97 .95 -2.92 l .48 -1.43 .42 -1.49 c .3 -.95 .54 -1.97 .83 -2.92 .24 -.95 .48 -1.97 .72 -2.92 .95 -3.93 1.73 -7.8 2.26 -11.67 1.19 -7.74 1.79 -15.3 1.97 -22.56 .06 -3.63 0 -7.14 -.12 -10.54 -.12 -3.39 -.3 -6.73 -.54 -9.82 -.54 -6.31 -1.25 -12.09 -2.02 -17.2 -.83 -5.12 -1.67 -9.52 -2.44 -13.16 -.83 -3.63 -1.49 -6.49 -2.02 -8.39 -.48 -1.79 -.77 -2.86 -.83 -2.98 .06 .12 .48 1.07 1.19 2.8 .72 1.85 1.85 4.58 2.98 8.15 1.19 3.57 2.56 7.92 3.81 13.04 .65 2.56 1.25 5.24 1.85 8.15 .6 2.86 1.13 5.95 1.61 9.11 .48 3.22 .89 6.55 1.25 10 s .54 7.08 .66 10.83 c .18 7.44 0 15.36 -1.01 23.45 -.24 2.02 -.54 4.05 -.83 6.13 -.18 1.01 -.36 2.02 -.54 3.1 -.18 1.01 -.36 2.08 -.6 3.1 -.83 4.11 -1.97 8.27 -3.27 12.38 -2.68 8.22 -6.13 16.31 -10.66 23.93 -2.05 3.63 -4.55 7.26 -7.11 10.83 z"/></g></svg>