<svg enable-background="new 0 0 1084.6092529 1036.6141357" viewBox="0 0 1084.61 1036.61" xmlns="http://www.w3.org/2000/svg"><path d="m 98.04 783.71 s 305.11 12.45 464.14 -83.38 c 88.2 -53.14 233.51 -174.41 311.3 -321.35 68.74 -129.84 45.11 -293.91 57.03 -311.31 11.92 -17.39 91.49 -6.41 91.49 47.77 s -41 72.32 -49.69 91.63 -19.87 68.97 -12.2 84.24 c 23.51 46.83 73.51 146.02 43.5 289.3 -15.78 75.35 -85.33 195.01 -189.95 278.03 -94.31 74.85 -218.02 117.22 -341.01 117.89 -259.42 1.43 -374.61 -103.69 -374.61 -103.69 -61.68 -41.57 -30.26 -99.06 0 -89.13 z" fill="#fff"/></svg>