<svg viewBox="0 0 300 300" xmlns="http://www.w3.org/2000/svg"><g fill="#fff"><path d="m 151 95.7 c .1 -1 .2 -1.9 .3 -2.8 a 81.52 81.52 0 0 1 2.9 -13.7 l .5 -1.4 c .9 -2.8 1.8 -5 2.3 -6.5 a 1.97 1.97 0 0 1 1.5 -1.3 2.32 2.32 0 0 1 1.6 .3 c .3 .2 .7 .4 1 .6 4 2.5 8 2.5 12 1.4 10.3 -2.9 20.4 -13.1 29.1 -6.9 3.4 2.4 4.7 8.1 5.4 11.9 a 30.48 30.48 0 0 1 .6 8.5 c -.1 1.7 -2.1 6.3 1 6.3 a 7.17 7.17 0 0 0 2.5 -.7 5.02 5.02 0 0 1 1.2 -.2 c 1 -6.6 1.9 -12.6 3.7 -15.1 6.2 -8.8 1.7 -18.6 -6.5 -19.1 a 13 13 0 0 1 -6.3 -2 c -5.9 -4.6 -6.1 -13.8 -12.7 -17.6 -11.6 -6.4 -26 1.4 -32.7 11.9 a 25.2 25.2 0 0 0 -2.6 7.1 4.06 4.06 0 0 1 -2.8 3 c -2.6 .7 -6.3 3.1 -6.9 11 -.5 7.2 3.6 21.8 4.8 25.8 a 1.75 1.75 0 0 0 .1 -.5 z" opacity=".25"/><path d="m 184.8 91.2 c .2 1.8 .9 3.2 1.7 3.1 s 1.3 -1.6 1.1 -3.4 -.9 -3.2 -1.7 -3.1 -1.2 1.6 -1.1 3.4" opacity=".15"/><path d="m 169.5 91.7 c .2 1.8 .9 3.2 1.7 3.1 s 1.3 -1.6 1.1 -3.4 -.9 -3.2 -1.7 -3.1 -1.2 1.6 -1.1 3.4" opacity=".15"/><path d="m 172.1 82 a 8.33 8.33 0 0 0 -1.5 -.4 7.57 7.57 0 0 0 -1.5 -.1 14.28 14.28 0 0 0 -2.9 .3 12.9 12.9 0 0 0 -2.8 .8 9.39 9.39 0 0 0 -2.6 1.4 1.09 1.09 0 0 0 -.1 1.5 .91 .91 0 0 0 .7 .3 13.13 13.13 0 0 0 2.8 -.1 c .9 -.2 1.8 -.3 2.7 -.5 s 1.8 -.4 2.6 -.6 a 4.95 4.95 0 0 0 1.3 -.4 c .5 -.2 .9 -.4 1.3 -.6 a .97 .97 0 0 0 .3 -1.3 q 0 -.15 -.3 -.3" opacity=".15"/><path d="m 183.7 82.2 a 5.67 5.67 0 0 0 1.3 .8 5.02 5.02 0 0 0 1.3 .5 25.82 25.82 0 0 0 2.6 .8 c .9 .2 1.8 .5 2.6 .7 a 12.61 12.61 0 0 0 2.8 .4 1.03 1.03 0 0 0 1 -1.1 .91 .91 0 0 0 -.3 -.7 7.39 7.39 0 0 0 -2.5 -1.7 c -.9 -.4 -1.8 -.7 -2.7 -1 a 24.75 24.75 0 0 0 -2.9 -.6 7.57 7.57 0 0 0 -1.5 -.1 7.72 7.72 0 0 0 -1.5 .2 .93 .93 0 0 0 -.6 1.2 c .1 .4 .2 .5 .4 .6 z" opacity=".15"/><path d="m 183.5 113.8 a 7.8 7.8 0 0 1 -6.9 3.2 16.35 16.35 0 0 0 -2.2 -.2 2.28 2.28 0 0 0 -1.9 1 c -2.2 4.2 11.8 2.9 14 1.3 4.5 -3.3 1.7 -12.1 -3 -5.3 z" opacity=".15"/><path d="m 86.9 134.1 a 67.68 67.68 0 0 1 -63.4 -113.7 67.7 67.7 0 0 0 79.9 108.8 l 22 5.1 3.8 -3.5 -22 -5.1 a 69.7 69.7 0 0 1 -20.3 8.4 z" opacity=".3"/><path d="m 137.3 52.7 a 67.74 67.74 0 1 0 -50.5 81.4 66.4 66.4 0 0 0 20.4 -8.5 l 22 5.1 -4.8 -20.5 a 67.12 67.12 0 0 0 12.9 -57.5 z m -52.3 33.5 v 35.4 l -57.3 -14.1 v -83 l 50.2 -7 v 19.4 l 7 1.7 z m 24.5 14.9 a 4 4 0 0 1 -2.9 1.2 3.85 3.85 0 0 1 -2.9 -1.2 3.78 3.78 0 0 1 -1.2 -2.8 3.63 3.63 0 0 1 1.2 -2.8 3.56 3.56 0 0 1 2.9 -1.1 4.36 4.36 0 0 1 2.9 1.1 3.78 3.78 0 0 1 1.2 2.8 3.95 3.95 0 0 1 -1.2 2.8 z m 8.4 -22.5 a 9.48 9.48 0 0 1 -1.7 2.7 30.7 30.7 0 0 1 -2.6 2.5 17.18 17.18 0 0 0 -2.9 3.1 5.02 5.02 0 0 0 -.9 3.2 h -6.5 a 8.35 8.35 0 0 1 1.2 -4.6 27.69 27.69 0 0 1 3.6 -4 17.89 17.89 0 0 0 2.7 -2.8 4.39 4.39 0 0 0 .9 -2.7 4.27 4.27 0 0 0 -1.7 -3.5 7.68 7.68 0 0 0 -4.6 -1.3 c -3.7 0 -6.4 1.3 -8.3 3.9 l -4.9 -3.2 a 14.2 14.2 0 0 1 5.7 -4.6 18.63 18.63 0 0 1 8.1 -1.6 c 3.8 0 6.8 .8 9.1 2.5 a 8.04 8.04 0 0 1 3.4 6.8 11.33 11.33 0 0 1 -.6 3.6 z"/><path d="m 104.6 85.4 a 27.69 27.69 0 0 1 3.6 -4 24.67 24.67 0 0 0 2.8 -2.8 4.39 4.39 0 0 0 .9 -2.7 4.27 4.27 0 0 0 -1.7 -3.5 7.68 7.68 0 0 0 -4.6 -1.3 c -3.7 0 -6.4 1.3 -8.3 3.9 l -4.9 -3.2 a 14.2 14.2 0 0 1 5.7 -4.6 18.63 18.63 0 0 1 8.1 -1.6 c 3.8 0 6.8 .8 9.1 2.5 a 8.04 8.04 0 0 1 3.4 6.8 9.37 9.37 0 0 1 -.7 3.7 9.48 9.48 0 0 1 -1.7 2.7 30.7 30.7 0 0 1 -2.6 2.5 17.18 17.18 0 0 0 -2.9 3.1 5.02 5.02 0 0 0 -.9 3.2 h -6.5 a 7.09 7.09 0 0 1 1.2 -4.7 z m -.9 15.7 a 3.78 3.78 0 0 1 -1.2 -2.8 3.63 3.63 0 0 1 1.2 -2.8 3.56 3.56 0 0 1 2.9 -1.1 4.36 4.36 0 0 1 2.9 1.1 3.78 3.78 0 0 1 1.2 2.8 3.63 3.63 0 0 1 -1.2 2.8 4 4 0 0 1 -2.9 1.2 4.77 4.77 0 0 1 -2.9 -1.2 z" opacity=".15"/><path d="m 79.7 107.7 s -10.9 -12.6 -11 -12.8 l -.9 -1.1 -.4 -.5 -.6 -.7 -31.3 -39 v .1 .1 l -.1 .1 v .1 l -.1 .2 -.1 .1 a .35 .35 0 0 1 -.1 .2 .31 .31 0 0 1 -.1 .2 v .4 c 0 .1 0 .2 -.1 .2 a .6 .6 0 0 0 -.1 .4 .37 .37 0 0 1 -.1 .3 .75 .75 0 0 0 -.1 .5 l -.1 .3 c 0 .3 -.1 .6 -.1 .9 a 26.56 26.56 0 0 0 1.8 12.2 c .3 .8 .6 1.6 1 2.5 a 55.04 55.04 0 0 0 2.7 5.5 c 1.1 2 2.3 4.1 3.8 6.3 .4 .6 .8 1.1 1.2 1.7 a 149.92 149.92 0 0 0 10.4 13.4 l 1.2 -1.1 c 1.5 -1.3 4 -3.6 5.1 -4.6 l 13.9 17.7 a 2.3 2.3 0 0 0 3.3 .5 h .1 c .1 -.1 .3 -.2 .4 -.4 l .5 -.7 c .1 -.1 .2 -.2 .2 -.3 .1 -.3 .2 -.5 .3 -.8 a 2.88 2.88 0 0 0 -.6 -1.9 z" opacity=".15"/><path d="m 85 86.2 c -5 -5.7 -11.4 -13.3 -18 -21.6 a 4.31 4.31 0 0 1 -.6 -4.1 6.84 6.84 0 0 0 -1.8 -7.5 46.94 46.94 0 0 1 -10.1 -12.9 1.44 1.44 0 0 0 -1.3 -.8 .95 .95 0 0 0 -1 1 .6 .6 0 0 0 .1 .4 46.85 46.85 0 0 0 7.5 10.7 1.24 1.24 0 0 1 -.1 1.7 l -.1 .1 a 1.22 1.22 0 0 1 -1.6 -.1 47.89 47.89 0 0 1 -7.4 -10.4 1.12 1.12 0 1 0 -2 1 51.72 51.72 0 0 0 7.4 10.6 1.24 1.24 0 0 1 0 1.7 1.4 1.4 0 0 1 -.9 .3 1.23 1.23 0 0 1 -.8 -.4 47.89 47.89 0 0 1 -7.4 -10.4 1.24 1.24 0 0 0 -1.5 -.5 1.17 1.17 0 0 0 -.5 1.5 49.14 49.14 0 0 0 7.4 10.6 1.24 1.24 0 0 1 -.1 1.7 l -.1 .1 c -.1 .1 -.4 .1 -.7 .1 a 1.23 1.23 0 0 1 -.8 -.4 46.19 46.19 0 0 1 -7.4 -10.5 1.46 1.46 0 0 0 -.9 -.6 1.27 1.27 0 0 0 -.6 .1 1.17 1.17 0 0 0 -.5 1.5 49.78 49.78 0 0 0 11 14 c .5 .4 1.2 1 2 1.6 a 6.23 6.23 0 0 0 3.4 1.3 5.46 5.46 0 0 0 1.8 -.1 4.87 4.87 0 0 1 1.2 -.1 4.08 4.08 0 0 1 2.7 1.3 c 8.7 9.3 16.6 19.3 21.7 25.9 z" opacity=".15"/><path d="m 77.9 17.5 l -50.2 7 50.2 12.3 z" opacity=".15"/><path d="m 67 64.6 c 6.6 8.3 13 15.8 18 21.6 v -47.6 l -57.3 -14.1 v 83 l 57.3 14.1 v -28.6 c -5 -6.6 -13 -16.6 -21.5 -25.7 a 4.59 4.59 0 0 0 -2.7 -1.3 5.7 5.7 0 0 0 -1.3 .1 10.87 10.87 0 0 1 -1.8 .1 7.11 7.11 0 0 1 -3.4 -1.3 c -.8 -.6 -1.5 -1.2 -2 -1.6 a 49.78 49.78 0 0 1 -11 -14 1.06 1.06 0 0 1 .5 -1.5 1.27 1.27 0 0 1 .6 -.1 1.15 1.15 0 0 1 .9 .6 51.07 51.07 0 0 0 7.4 10.5 2.01 2.01 0 0 0 .8 .4 1.88 1.88 0 0 0 .8 -.2 1.27 1.27 0 0 0 .3 -1.7 v -.1 a 51.72 51.72 0 0 1 -7.4 -10.6 1.08 1.08 0 0 1 .5 -1.5 1.08 1.08 0 0 1 1.5 .5 47.89 47.89 0 0 0 7.4 10.4 2.01 2.01 0 0 0 .8 .4 1.4 1.4 0 0 0 .9 -.3 1.24 1.24 0 0 0 .1 -1.7 49.14 49.14 0 0 1 -7.4 -10.6 1.12 1.12 0 1 1 2 -1 47.47 47.47 0 0 0 7.3 10.4 1.12 1.12 0 0 0 1.6 .1 1.24 1.24 0 0 0 .2 -1.7 l -.1 -.1 a 46.85 46.85 0 0 1 -7.5 -10.7 .99 .99 0 0 1 .5 -1.3 .6 .6 0 0 1 .4 -.1 2.22 2.22 0 0 1 1.3 .8 46.49 46.49 0 0 0 10.1 12.8 6.8 6.8 0 0 1 1.8 7.5 3.83 3.83 0 0 0 .4 4.1 z m -.2 28 l .6 .7 .4 .5 .9 1.1 c .2 .2 11 12.8 11 12.8 a 2.56 2.56 0 0 1 .6 1.9 1.14 1.14 0 0 1 -.3 .8 c -.1 .1 -.1 .2 -.2 .3 l -.5 .7 c -.1 .1 -.2 .3 -.4 .4 a 2.29 2.29 0 0 1 -3.3 -.4 v -.1 l -14 -17.7 c -1.2 1 -3.6 3.2 -5.1 4.6 l -1.2 1.1 a 138.68 138.68 0 0 1 -10.6 -13.4 c -.4 -.6 -.8 -1.2 -1.2 -1.7 -1.5 -2.2 -2.7 -4.3 -3.8 -6.3 s -1.9 -3.8 -2.7 -5.5 c -.4 -.9 -.7 -1.7 -1 -2.5 -2 -5.6 -2.1 -9.6 -1.8 -12.2 0 -.3 .1 -.6 .1 -.9 l .1 -.3 a 4.33 4.33 0 0 1 .1 -.5 .37 .37 0 0 1 .1 -.3 c 0 -.1 .1 -.3 .1 -.4 s 0 -.2 .1 -.2 l .1 -.3 c 0 -.1 0 -.1 .1 -.2 a .31 .31 0 0 0 .1 -.2 l .1 -.1 .1 -.2 v -.1 l .1 -.1 v -.1 -.1 z" opacity=".7"/><path d="m 177.4 133 s 2.2 -4.9 3 -7.5 a 30.64 30.64 0 0 0 1 -5.1 c -4.6 .6 -10.4 .2 -8.9 -2.6 a 2.28 2.28 0 0 1 1.9 -1 16.35 16.35 0 0 1 2.2 .2 7.11 7.11 0 0 0 5.1 -1.4 28.8 28.8 0 0 0 -.6 -5.9 3.6 3.6 0 0 0 -1.1 -2.1 c -1.1 -.9 -2.9 -.6 -4 -1.5 s -1.3 -2.6 -1.2 -4 a 87.49 87.49 0 0 1 1.8 -10 28.88 28.88 0 0 0 -3.5 -19.9 c -4 1.1 -8 1.1 -12 -1.4 -.3 -.2 -.7 -.4 -1 -.6 a 2.22 2.22 0 0 0 -1.6 -.3 2.2 2.2 0 0 0 -1.5 1.3 c -.6 1.5 -1.4 3.7 -2.3 6.5 l -.5 1.4 a 71.08 71.08 0 0 0 -2.9 13.7 c -.1 .9 -.2 1.9 -.3 2.8 0 0 1.6 9.7 2.6 13.6 .1 .4 .2 .7 .3 1 2.6 8.4 7.4 14.2 13.2 19.4 a 4.52 4.52 0 0 1 1.1 1.7 4.95 4.95 0 0 1 .4 1.3 25.43 25.43 0 0 1 -.3 7.8 c -.1 .4 -.1 .7 -.2 1 l -.1 .6 v .1 c 0 .2 -.1 .4 -.1 .7 v .1 a 1.85 1.85 0 0 1 -.2 .7 v .1 c -.1 .2 -.1 .5 -.2 .7 v .1 c -.1 .2 -.2 .5 -.3 .7 a 9.8 9.8 0 0 1 -1.3 2.2 c 7.1 -.1 22.4 -2.2 33.5 -14.5 1.6 -2.7 3.7 -5.3 5.6 -8.1 -13.8 10.8 -27.6 8.2 -27.6 8.2 z m -10.5 -47.6 c -.9 .2 -1.8 .3 -2.7 .5 a 8.78 8.78 0 0 1 -2.8 .1 1.49 1.49 0 0 1 -.7 -.3 1.09 1.09 0 0 1 .1 -1.5 8.16 8.16 0 0 1 2.6 -1.4 c .9 -.3 1.9 -.6 2.8 -.8 a 14.28 14.28 0 0 1 2.9 -.3 7.57 7.57 0 0 1 1.5 .1 8.33 8.33 0 0 1 1.5 .4 .78 .78 0 0 1 .4 .4 .95 .95 0 0 1 -.3 1.3 3.79 3.79 0 0 1 -1.3 .6 6.47 6.47 0 0 1 -1.3 .4 25.58 25.58 0 0 0 -2.7 .5 z m 4.3 9.4 c -.8 .1 -1.6 -1.3 -1.7 -3.1 s .3 -3.3 1.1 -3.4 1.6 1.3 1.7 3.1 -.3 3.3 -1.1 3.4 z" opacity=".8"/><path d="m 124.9 263.8 c -3.4 -9.3 1.6 -39.5 7.2 -66.5 -4.5 -.1 -10.1 -1.2 -14 -5.5 -1.7 13.7 -2 25.9 -4.4 36.8 -3.6 16.1 -7 35.6 -16.8 44.3 a 12.88 12.88 0 0 0 -1.6 1.7 c -3.4 2.5 -7 4.6 -9.6 9.9 -2.4 4.8 3 11.3 6.2 14.5 a 1.87 1.87 0 0 0 2.6 0 2.09 2.09 0 0 0 .4 -.6 47.26 47.26 0 0 1 3.1 -6.4 c 1.2 -1.9 2.3 -3.6 3.9 -4.3 a 1.94 1.94 0 0 1 2.5 1 c .7 1.4 .4 4 .6 5.9 .1 .8 1.7 1.3 2.2 .7 1.1 -1.5 3 -8 3.4 -9.9 s -.2 -3.1 -.5 -4.9 c 3 -2 9 -6.9 14.8 -16.7 z" opacity=".8"/><path d="m 280.4 130.2 a 6.8 6.8 0 0 0 1.1 -3.1 c .7 -6 2.5 -8.5 1.2 -16.5 -.3 -1.7 -2.6 -1.9 -3.2 -1.6 a 2.75 2.75 0 0 0 -1.7 -2.4 5.35 5.35 0 0 0 -3.3 .2 c -.4 -.8 -1.1 -2.7 -2.6 -2.8 a 5.18 5.18 0 0 0 -3.8 .9 35.15 35.15 0 0 0 -4.1 -9.3 1.9 1.9 0 0 0 -2.7 -.1 2.04 2.04 0 0 0 -.6 1.5 c .1 3.1 3.9 15.4 4.3 18.4 a 7.02 7.02 0 0 1 -.4 3.8 1.74 1.74 0 0 1 -2.1 1.2 c -.1 0 -.2 -.1 -.3 -.1 -1.8 -.7 -3.7 -3.1 -5.5 -4.7 -.7 -.6 -2.6 .3 -2.5 1.2 .3 2.2 4 9.5 5.2 11.5 1.4 2.4 3.4 2.6 5.4 4.6 a 4.18 4.18 0 0 0 1.8 1.1 c 4.4 12.2 4.9 20 5.5 29.8 l .1 2 s .1 9.7 0 11.9 c 0 .5 -.1 1.1 -.1 1.6 l -3.3 -1.2 c -2 -.8 -4 -1.7 -6 -2.6 l -3.7 -1.7 c -.7 1.9 -6.7 17.6 -19.4 26.8 l .7 .3 c 2.6 1.1 5 2.2 7.7 3.4 3.1 1.3 6.2 2.5 9.4 3.5 6.4 2 13 3.8 19.6 4 a 27.41 27.41 0 0 0 6.4 -.1 13.75 13.75 0 0 0 7.1 -1.9 13.97 13.97 0 0 0 3.3 -2.7 l .1 -.1 a 10.92 10.92 0 0 0 1.3 -1.7 16.49 16.49 0 0 0 2.2 -4.4 l .8 -2.5 a 24.95 24.95 0 0 0 1.4 -9 c -.5 -33.4 -14.5 -49.5 -19.3 -59.2 z" opacity=".8"/><path d="m 258.9 172.7 s -10.6 -7.1 -23.4 -17.7 c -7.5 -6.3 -15.1 -6 -21.6 -5.6 -3.6 .2 -9.9 2.3 -13.4 3.5 -3.6 -2.8 -4.4 -8.8 -4.5 -9.7 -.2 -12.5 15.8 -19.8 15 -37.1 a 4.89 4.89 0 0 1 1.2 -1.3 8.56 8.56 0 0 0 3.5 -4.8 c .7 -3.4 1 -10.1 -4.1 -8.8 a 11.7 11.7 0 0 1 -2.5 .7 c -3.1 0 -1.2 -4.6 -1 -6.3 a 30.22 30.22 0 0 0 -.6 -8.5 c -.7 -3.7 -2 -9.5 -5.4 -11.9 -8.6 -6.1 -18.8 4 -29.1 6.9 a 29.39 29.39 0 0 1 3.6 19.9 c -.6 3.3 -1.5 6.6 -1.8 10 -.1 1.5 0 3.2 1.2 4 s 2.9 .6 4 1.5 a 3.6 3.6 0 0 1 1.1 2.1 19.43 19.43 0 0 1 .6 5.9 5.81 5.81 0 0 0 1.7 -1.8 c 4.7 -6.9 7.6 2 3 5.2 a 12.83 12.83 0 0 1 -5.1 1.3 30.64 30.64 0 0 1 -1 5.1 c -.8 2.6 -3 7.5 -3 7.5 s 13.8 2.6 27.4 -8.1 c -1.9 2.8 -4 5.4 -5.6 8.1 -11.1 12.3 -26.4 14.4 -33.5 14.5 l -.9 .9 a 56.63 56.63 0 0 1 -15.9 1.7 l -4.9 -.3 c -11.4 -2.4 -17.4 -.8 -23.2 21.5 -1.9 7.2 -6.9 15.7 -2.6 20.5 3.9 4.3 9.5 5.5 14 5.5 -6.1 29.3 -11.5 62.4 -6.1 68.4 3.3 3.8 15.9 9.2 30.4 13.9 a 43.99 43.99 0 0 0 36.3 -3.6 41.72 41.72 0 0 1 -8.1 3.6 c 33.5 -54.9 21.6 -97.7 21.6 -97.7 s 13.6 10.1 20.8 24.2 c 0 -.2 .1 -.3 .1 -.5 a 12.56 12.56 0 0 0 3.8 -.6 c 20 -6.9 28.5 -31.8 28.5 -31.8 z m -72.3 -78.4 c -.8 .1 -1.6 -1.3 -1.7 -3.1 s .3 -3.3 1.1 -3.4 1.6 1.3 1.7 3.1 -.4 3.3 -1.1 3.4 z m 7.7 -8.9 a 9.03 9.03 0 0 1 -2.8 -.4 19.73 19.73 0 0 1 -2.6 -.7 19.75 19.75 0 0 0 -2.6 -.8 6.94 6.94 0 0 1 -1.3 -.5 8.27 8.27 0 0 1 -1.3 -.7 .55 .55 0 0 1 -.3 -.5 1.02 1.02 0 0 1 .6 -1.2 7.72 7.72 0 0 1 1.5 -.2 7.57 7.57 0 0 1 1.5 .1 14.96 14.96 0 0 1 2.9 .6 21.52 21.52 0 0 1 2.7 1 8.52 8.52 0 0 1 2.5 1.7 .91 .91 0 0 1 .3 .7 1.1 1.1 0 0 1 -1.1 .9 z"/><path d="m 227 206.2 c -7.2 -14.1 -20.8 -24.2 -20.8 -24.2 s 11.9 42.9 -21.6 97.7 c 15.1 -5.1 27.5 -18.2 33.3 -35.1 2.2 -6.5 6.8 -28.5 9.1 -38.4 z" opacity=".5"/></g></svg>