<svg enable-background="new 0 0 312 390" height="390" viewBox="0 0 312 390" width="312" xmlns="http://www.w3.org/2000/svg"><g fill="#fff"><path d="m 286.96 99.67 c -4.27 -3.64 -9.33 -6.01 -14.41 -8.28 -1.9 -.85 -5.6 -1.01 -4.7 -3.7 1.58 -4.72 -1.13 -3.81 -3.65 -3.73 -7.3 .23 -12.4 -3.59 -14.67 -9.95 -1.97 -5.51 -5.07 -9.54 -10.17 -11.46 -7.83 -2.94 -2.05 -9.55 -4.17 -14.11 -.94 -2.05 3.92 -1.69 5.76 -3.21 .9 -.75 2.26 -1.31 3.43 -1.34 3.7 -.11 2.59 -2.66 1.94 -4.22 -.76 -1.83 2.05 -5.27 -2.46 -5.56 -2.51 -.17 -6.13 .01 -7.27 -1.49 -4.35 -5.7 -8.96 -1.74 -13.72 -1.84 -5.79 -.1 -8.15 8.98 -14.64 4.43 -1.97 5.05 -4.43 6.19 -7.81 1.05 -.13 -.19 -1.73 .1 -1.84 .4 -1.55 4.86 -5.76 4.08 -9.36 4.54 -1.31 .18 -3.15 1.35 -2.84 1.74 3.62 4.64 -2.08 9.09 .2 14.07 2.33 5.09 8.11 9.16 11.76 6.27 8.61 -6.81 16.4 -4.67 19.32 6.01 1.41 5.18 4.94 7.98 8.58 10.62 6.55 4.77 11.85 10.89 20.64 13.2 5.95 1.59 10.58 8.31 16.4 12.07 3.71 2.38 4.67 7.51 4.42 11.4 -.14 2.33 -3.35 5.06 -7.18 6.21 -6.99 2.12 -13.82 .97 -20.71 .72 -2.17 -.07 -3.51 .31 -3.87 2.47 -.35 2.09 .76 3.01 2.73 3.83 4.87 2.01 9.7 4.23 14.28 6.82 2.06 1.15 3.86 2.91 6.12 1.5 2.27 -1.42 2.19 -3.82 1.1 -6.5 .36 -2.28 .24 -6.52 3.28 -6.05 6.72 1.07 6.6 -4.7 9.69 -7.37 5.19 -4.51 6.14 -7.19 -.09 -10.94 -.48 -.29 -.2 -2.41 .22 -3.52 1.54 -4.16 6.02 -4.16 10.57 -.01 1.33 1.23 2.2 4.12 4.51 1.73 2.16 -2.2 .4 -4.26 -1.39 -5.8 z"/><path d="m 206.87 92.23 c -3.09 1.21 -12.44 1.77 -6.51 10.27 .81 1.16 .11 3.36 .11 5.81 -.55 2.75 -1.73 7.52 3.42 7.22 3.43 -.2 8.99 -1.51 8 -8.12 -.4 -2.58 1.35 -5.48 .97 -8.06 -.49 -3.41 -1.24 -8.97 -5.99 -7.12 z"/><path d="m 261.13 174.53 c -3.65 -6.42 -10.9 -5.33 -16.44 -5.26 5.3 -10.67 6.79 -22.18 .29 -20.95 -11.5 2.17 -15.25 29.79 -15.31 30.86 -.65 11.46 2.83 14.33 9.49 17.33 -5.71 17.59 -2.51 56.69 -31.67 48 -15.34 -4.57 -35.35 -11.69 -45.58 -10.28 -.84 -4.43 .11 -10.65 4.77 -19.36 .31 .2 .64 .38 1 .52 3.12 1.27 6.69 -.22 7.96 -3.35 1.27 -3.12 -.23 -6.68 -3.35 -7.96 -.66 -.27 -1.34 -.41 -2.02 -.44 .1 -2.76 -.77 -10.72 -1.65 -13.37 11.15 -5.42 13 -22.15 11.49 -23.31 -1.52 -1.15 -15.21 6.82 -22.59 -1.81 -7.08 -8.28 -23.51 -12.17 -37.73 2.14 -9.88 9.94 -5.33 20.21 -2.57 23.4 -2.36 5.79 .38 13.75 1.88 17.77 -1.85 .2 -3.53 1.38 -4.28 3.22 -1.09 2.67 .19 5.73 2.86 6.81 2.02 .83 4.25 .3 5.7 -1.17 4.73 8.6 9.57 16.34 3.15 22.05 0 0 -11.89 -1.57 -22.05 4.45 -11.94 7.08 -22.9 22.1 -30 25 -17.61 7.19 -26.33 -4.33 -29.67 -15 -3.87 -12.38 6.86 -28.19 11.67 -31 7.26 5.3 11.62 10.97 19.67 4 5.96 -5.16 3.35 -11.01 1.53 -16.65 12.59 2.02 24.83 -.11 21.5 -6.36 -5.87 -11.06 -35.29 -6.12 -36.4 -5.84 -22.16 5.53 -31.63 14.85 -37.63 29.52 -5.23 12.78 -2.83 30.92 2.33 42.33 6.33 14 19.05 29.12 43 22.67 -11.12 37.98 8.01 85.79 43.48 84.44 36.99 -1.41 53.56 -28.51 54.3 -30.32 .74 -1.82 -19.26 -15.06 -6.01 -44.37 3.68 -8.14 16.92 -26.42 37.26 -29 14.4 -1.82 30.22 -1.63 40.15 -5.94 16.17 -7.01 15.82 -31.64 15.82 -43.47 0 -11.33 1.28 -30.35 .99 -31.57 6.77 -5 9.58 -9.08 4.66 -17.73 z m -131.08 29.56 c -2.15 -.88 -3.18 -3.33 -2.31 -5.48 .88 -2.15 3.33 -3.18 5.48 -2.3 s 3.18 3.33 2.3 5.48 c -.87 2.14 -3.32 3.17 -5.47 2.3 z m 17.5 17.86 c -9.98 2.21 -13.28 -7.73 -13.28 -7.73 -.25 -.76 .2 -1.44 .99 -1.5 l 19.01 -1.53 c .8 -.06 1.59 .52 1.75 1.31 0 0 1.52 7.24 -8.47 9.45 z m 12.88 -22.14 c -.88 2.15 -3.33 3.18 -5.48 2.3 s -3.18 -3.33 -2.3 -5.48 3.33 -3.18 5.48 -2.3 3.18 3.33 2.3 5.48 z"/></g></svg>