<svg viewBox="0 0 300 300" xmlns="http://www.w3.org/2000/svg"><g fill="#fff"><path d="m 59.29 274.51 a 28.16 28.16 0 0 0 .5 -3.87 v -.9 c -7.09 3.61 -12.81 0 -15.88 -2.87 -.14 .9 -.28 1.81 -.36 2.71 a 26.72 26.72 0 0 0 0 3.9 26.73 26.73 0 0 1 -.07 3.9 c -.15 1.29 -.27 2.59 -.46 3.88 a 71.58 71.58 0 0 1 -1.43 7.74 9 9 0 1 0 17.65 1.14 73.67 73.67 0 0 1 -.42 -7.83 v -3.9 a 26.64 26.64 0 0 1 .47 -3.9 z" opacity=".8"/><path d="m 105.08 280 l -10.51 -3.74 -8.78 -7.17 -.2 -7.35 -2.7 .47 2.74 -45.32 -6.63 -51.51 -.72 9.55 -.41 7 -1.87 31.57 -.1 1.82 -.24 .87 -2.42 9.18 v 1.26 c 0 1.25 0 2.53 .05 3.82 v 1.28 c 0 2.15 .08 4.31 .14 6.43 s .11 4.21 .18 6.21 c .05 1.2 .09 2.37 .15 3.5 .15 3.4 .33 6.44 .56 8.84 a 7.63 7.63 0 0 0 .09 .85 9.39 9.39 0 0 0 .14 1.24 .97 .97 0 0 1 0 .17 5.84 5.84 0 0 0 .15 1 v .09 l 1 .56 1.52 .88 v 4.24 a 27.74 27.74 0 0 0 -.58 4.89 5.17 5.17 0 0 0 .79 3.38 6.83 6.83 0 0 0 3.29 1.66 c .34 .09 .66 .15 .94 .2 h .1 c .5 .08 .82 .1 .82 .1 s 4.11 1.94 8.83 3.6 l .67 .23 c 1.52 .52 3.08 1 4.57 1.37 .91 .22 1.79 .41 2.62 .53 a 15.05 15.05 0 0 0 2.57 .2 5.57 5.57 0 0 0 1.89 -.34 2.19 2.19 0 0 0 1.17 -.95 l .19 -.35 z" opacity=".5"/><path d="m 200.85 52 c -.54 -2.38 .2 -5.13 -1.2 -7.13 -.93 -1.33 -2.63 -2 -3.42 -3.42 -1.18 -2.57 -1 -4.53 -4.19 -3.88 -1.79 -.31 -1.41 -3.63 -3.16 -4.13 -2.11 0 -2.68 .6 -4.71 -.85 a 7.39 7.39 0 0 0 -8 1 c -.07 -.15 -.15 -.28 -.22 -.41 -1.11 5.63 -1.65 12.37 .28 16.85 1.52 .56 2.58 -1.72 4 .14 a 9.57 9.57 0 0 1 .77 5 3.32 3.32 0 0 1 1.24 -.06 1.27 1.27 0 0 1 1 1.45 v .17 a 1.93 1.93 0 0 1 -.73 1.26 4.46 4.46 0 0 1 -1.41 .76 h -.07 a 7.05 7.05 0 0 0 .57 2 c .47 1.74 2.9 3.22 4.07 4.82 a 11.93 11.93 0 0 0 3.91 -1.57 c 3.6 -2 7.5 -5.94 11.54 -11.2 a 6.66 6.66 0 0 1 -.27 -.8 z m -22.42 -6.1 c -.44 -2.18 1.08 -2.47 1.48 -.29 s -1.07 2.44 -1.48 .26 z m 5.21 -7.9 a .71 .71 0 0 1 -.33 .24 h -.08 a 17.61 17.61 0 0 0 -3.06 1.3 3.61 3.61 0 0 1 -1.37 .58 2.44 2.44 0 0 1 -1.77 -.39 l -.24 -.13 a 1.75 1.75 0 0 1 -.85 -2 2.46 2.46 0 0 1 1.51 -1.73 3.84 3.84 0 0 1 2.07 -.25 7.84 7.84 0 0 1 4 1.33 .72 .72 0 0 1 .16 1.01 c -.02 .01 -.03 .03 -.04 .04 z"/><path d="m 181.66 60.66 a 7.05 7.05 0 0 1 -.57 -2 4.45 4.45 0 0 1 -1.44 .14 2.08 2.08 0 0 1 -1.4 -.62 1.25 1.25 0 0 1 -.1 -1.64 l .07 -.08 a 2.33 2.33 0 0 1 1 -.8 c .32 -.12 .61 -.27 .88 -.34 s .52 -.14 .82 -.23 h .08 a 9.57 9.57 0 0 0 -.77 -5 c -1.41 -1.86 -2.47 .42 -4 -.14 -1.93 -4.48 -1.39 -11.22 -.28 -16.85 -1.38 -2.45 -3.18 -1.39 -5.1 .15 a 24.55 24.55 0 0 0 -.23 5.57 2.09 2.09 0 0 1 1.25 .43 2 2 0 0 1 .79 2 v .21 a 2.09 2.09 0 0 1 -.8 1.43 1.81 1.81 0 0 1 -.58 .27 c .25 1.38 .51 2.66 .78 3.9 .11 -.91 .92 -.83 1.17 .53 s -.37 1.7 -.81 1.06 c 3.1 12.93 7.75 17.68 13.31 16.75 -1.17 -1.52 -3.6 -3 -4.07 -4.74 z" opacity=".8"/><path d="m 173.23 47.67 c -.25 -1.36 -1.06 -1.44 -1.17 -.53 a 2.48 2.48 0 0 0 0 .75 2.17 2.17 0 0 0 .32 .84 c .48 .64 1.11 .27 .85 -1.06 z" opacity=".15"/><path d="m 178.43 45.87 c .41 2.18 1.92 1.89 1.48 -.29 s -1.91 -1.89 -1.48 .29 z" opacity=".15"/><path d="m 182.27 55 a 3.32 3.32 0 0 0 -1.24 .06 h -.08 c -.3 .09 -.56 .14 -.82 .23 s -.56 .22 -.88 .34 a 2.33 2.33 0 0 0 -1 .8 l -.07 .08 a 1.25 1.25 0 0 0 .1 1.64 2.08 2.08 0 0 0 1.4 .62 4.45 4.45 0 0 0 1.44 -.14 h .07 a 4.46 4.46 0 0 0 1.41 -.76 1.93 1.93 0 0 0 .73 -1.26 v -.17 a 1.27 1.27 0 0 0 -1.06 -1.44 z" opacity=".15"/><path d="m 179.52 35.68 a 3.84 3.84 0 0 0 -2.07 .25 2.46 2.46 0 0 0 -1.51 1.73 1.75 1.75 0 0 0 .85 2 l .24 .13 a 2.44 2.44 0 0 0 1.77 .39 3.61 3.61 0 0 0 1.37 -.58 17.61 17.61 0 0 1 3.06 -1.3 h .08 a .71 .71 0 0 0 .33 -.24 .72 .72 0 0 0 -.13 -1 7.85 7.85 0 0 0 -3.99 -1.38 z" opacity=".15"/><path d="m 172.66 41.54 v -.21 a 2 2 0 0 0 -.79 -2 2.09 2.09 0 0 0 -1.25 -.43 31.85 31.85 0 0 0 .62 4.38 1.81 1.81 0 0 0 .58 -.27 2.09 2.09 0 0 0 .84 -1.47 z" opacity=".15"/><path d="m 220.6 25.27 c 1.28 -2.44 2.91 -4.85 3 -7.61 a 7.63 7.63 0 0 0 -7.64 -7.62 c -.14 0 -.29 0 -.43 .01 1.56 -3.14 -5 -8.73 -7.89 -9.15 -2.56 -.46 -5.67 1.62 -5.13 4.17 -4 -3.59 -15 -9.21 -16.92 -1.06 -2.19 1.14 -7.59 -2.71 -8.65 1.72 -4.07 .59 -8.61 .3 -12.38 2 -1.9 2.27 -.92 7.22 1.78 8.57 -3.46 1 -9.49 2.32 -8.06 7.14 .08 .53 .18 1.07 .3 1.6 a 6 6 0 0 0 2.12 3.79 c -1.86 3 -.19 5.32 2.79 6.26 .72 .44 .79 1.1 1.75 1.27 1.82 .36 3.79 -1.58 5.65 -3.07 s 3.72 -2.6 5.1 -.15 c .07 .13 .15 .26 .22 .41 a 7.39 7.39 0 0 1 8 -1 c 2 1.45 2.6 .87 4.71 .85 1.75 .5 1.37 3.82 3.16 4.13 3.22 -.65 3 1.31 4.19 3.88 .79 1.41 2.49 2.09 3.42 3.42 1.4 2 .66 4.75 1.2 7.13 a 6.63 6.63 0 0 0 .27 .87 v .06 a 4.45 4.45 0 0 0 .94 1.49 6.58 6.58 0 0 0 3.06 1.75 c 5.4 1.53 13.62 -1.5 10.69 -7.4 7.38 .3 8 -10.11 3.93 -14.42 2 .44 3.93 -1.72 3.88 -3.8 s -1.48 -3.89 -3.06 -5.24 z" opacity=".3"/><path d="m 240.32 94.27 l .76 -.6 z"/><path d="m 239.1 95.19 l .93 -.7 z"/><path d="m 243.09 92 l .64 -.57 z"/><path d="m 241.36 93.44 l .68 -.56 z"/><path d="m 244.11 91.05 l .13 -.12 z"/><path d="m 242.29 92.68 l .61 -.53 z"/><path d="m 220.31 94.82 l .1 .18 -.1 -.17 z"/><path d="m 218.21 91.44 l -.17 -.13 z"/><path d="m 220.31 94.83 c -.25 -.42 -.51 -.85 -.79 -1.28 .2 .31 .39 .63 .58 .94 .07 .11 .15 .23 .21 .34 z"/><path d="m 218.06 91.33 c .39 .56 .76 1.12 1.12 1.68 -.36 -.56 -.73 -1.12 -1.12 -1.68 z"/><path d="m 242.41 180.26 a 5.36 5.36 0 0 1 -3.43 2.32 c 1.49 13.07 2.81 24.36 2.81 24.36 a 27.88 27.88 0 0 0 .69 3.6 l 13 48.57 c .59 -.41 1.17 -.84 1.73 -1.3 l -9.92 -49.22 s .38 -34.16 .61 -53 c -2 3.89 -3.64 6.76 -4 9 -.7 3.64 1.15 11.17 -1.49 15.67 z" opacity=".5"/><path d="m 221.24 211.89 l -.11 -1.83 -1.86 -31.6 -.41 -7 -.72 -9.55 -6.68 51.52 2.74 45.32 -2.7 -.47 -.2 7.36 -8.77 7.16 -10.53 3.77 v .28 c .07 .12 .12 .24 .19 .36 2.71 4.61 22.32 -4.65 22.32 -4.65 s 3.51 -.24 5.15 -2 .22 -8.28 .22 -8.28 v -4.23 l 2.48 -1.45 c 1 -5.72 1.39 -21.4 1.53 -34.69 l -2.43 -9.18 z" opacity=".5"/><path d="m 254.08 277.82 c -.19 -1.29 -.32 -2.58 -.47 -3.87 a 26.72 26.72 0 0 1 -.06 -3.9 30.01 30.01 0 0 0 0 -3.91 c -.09 -.9 -.22 -1.8 -.36 -2.7 a 14.89 14.89 0 0 1 -9.68 4.38 12.58 12.58 0 0 1 -4.89 -.92 c -.43 -.17 -.87 -.37 -1.31 -.59 v -2.83 c 0 1.24 -.06 2.49 0 3.72 a 29.81 29.81 0 0 0 .5 3.87 28.25 28.25 0 0 1 .44 3.88 v 3.89 a 71.11 71.11 0 0 1 -.42 7.83 9 9 0 0 0 17.87 2.15 9.51 9.51 0 0 0 -.21 -3.29 70.98 70.98 0 0 1 -1.41 -7.71 z" opacity=".8"/><path d="m 251 261.6 l -.28 .11 c -.46 .19 -.92 .37 -1.38 .53 l -.17 .06 a 26.32 26.32 0 0 1 -3.71 1 h -.19 c -.62 .11 -1.23 .2 -1.85 .26 h -.18 c -.63 .06 -1.26 .1 -1.89 .11 h -2.11 a 13.01 13.01 0 0 1 -1.86 -.18 v 2.83 c .44 .22 .88 .42 1.31 .59 a 12.58 12.58 0 0 0 4.89 .92 c 4.2 -.09 7.56 -2.41 9.68 -4.38 l -.18 -1.16 c -.09 -.5 -.18 -1 -.28 -1.5 l -.24 .11 c -.49 .25 -1 .49 -1.49 .71 z"/><path d="m 243.5 267.82 c 4.2 -.09 7.56 -2.41 9.68 -4.38 -2.12 1.97 -5.48 4.29 -9.68 4.38 z" opacity=".5"/><path d="m 196 151.65 c .14 -1.13 .3 -2.26 .49 -3.38 v -.27 c .17 -1 .37 -2 .58 -3.06 a 2.29 2.29 0 0 1 .11 -.52 c .25 -1.16 .52 -2.32 .82 -3.47 l .22 -.85 a 13.18 13.18 0 0 1 -4.07 -1.3 c -3.47 -2.14 -5.87 -17.67 -7.41 -32.89 -.32 .06 -.65 .12 -1 .16 l -.45 .05 h -2.49 a 11.09 11.09 0 0 1 -3.87 -.94 c 1.57 9 3.79 16.82 4.36 24.23 .69 8.92 1.92 19.31 -.12 26.89 a 3.44 3.44 0 0 0 -1.86 1.15 c -2.22 2.49 -4.81 4.11 -6.17 8.39 -1.07 3.39 3.16 7.12 5.57 8.91 a 1.23 1.23 0 0 0 1.72 -.26 1.21 1.21 0 0 0 .21 -.45 28.98 28.98 0 0 1 1.38 -4.54 6.54 6.54 0 0 1 2.09 -3.2 1.31 1.31 0 0 1 1.73 .37 c .62 .87 .68 2.56 1 3.82 .12 .49 1.26 .69 1.48 .24 .54 -1.09 1.16 -5.55 1.25 -6.84 a 3.2 3.2 0 0 0 -.1 -1.14 30.63 30.63 0 0 0 4.11 -7.52 c .1 -1.2 .22 -2.4 .37 -3.59 z" opacity=".8"/><path d="m 196.1 72 c -.79 -4.33 .49 -8.42 2.33 -11.93 -1.84 3.52 -3.12 7.61 -2.33 11.93 z"/><path d="m 200.82 56.15 l -.39 .59 z"/><path d="m 201.46 55.25 c -.11 .14 -.21 .29 -.31 .43 z"/><path d="m 199.58 58.07 l -.48 .8 z"/><path d="m 199 59.07 c -.17 .29 -.34 .59 -.5 .9 a 9.84 9.84 0 0 1 .5 -.9 z"/><path d="m 200.2 57.09 l -.45 .7 z"/><path d="m 196.1 72 c -.79 -4.33 .49 -8.42 2.33 -11.93 l .06 -.11 c .16 -.31 .33 -.61 .5 -.9 l .11 -.2 .48 -.8 .17 -.28 .45 -.7 .23 -.35 .39 -.59 .33 -.47 c .1 -.14 .2 -.29 .31 -.43 l .62 -.86 a 4.45 4.45 0 0 1 -.94 -1.49 v -.06 c -4 5.26 -7.94 9.17 -11.54 11.2 a 14.64 14.64 0 0 1 3.66 8.74 l 1.78 -.49 c .41 -.12 .76 -.21 1.06 -.28 z" opacity=".8"/><path d="m 201.15 55.68 l -.33 .47 z"/><path d="m 202.08 54.39 l -.62 .86 z"/><path d="m 199.1 58.87 l -.11 .2 z"/><path d="m 242.48 210.54 a 27.88 27.88 0 0 1 -.69 -3.6 s -1.32 -11.29 -2.81 -24.36 c -2.79 .73 -6.35 .26 -8.6 -.19 a 1.42 1.42 0 0 1 -.88 -2.22 34.75 34.75 0 0 0 2.84 -4.72 c .73 -1.54 1.38 -3 1.13 -4.3 a 1.51 1.51 0 0 0 -1.66 -1.2 c -1.24 .14 -2.74 1.4 -4.08 2.11 -.52 .28 -1.58 -.55 -1.36 -1.1 .52 -1.31 3.89 -5.32 4.93 -6.41 s 2 -1.13 3.2 -1.63 c .68 -2.06 1.21 -3.92 1.63 -5.67 a 59.3 59.3 0 0 0 1.61 -14.52 v -1.57 l -1 -.2 c -3 .71 -9.94 2.19 -14.39 2.08 -2.35 0 -.14 -3.68 2 -9.94 a .27 .27 0 0 1 .08 -.23 c .13 -.41 .27 -.84 .4 -1.27 a .42 .42 0 0 1 0 -.1 c .05 -.19 .11 -.38 .17 -.57 s .07 -.27 .11 -.4 .11 -.38 .16 -.58 .09 -.32 .14 -.48 .15 -.6 .23 -.91 l .12 -.51 c .05 -.18 .09 -.37 .13 -.56 s .08 -.39 .13 -.58 .11 -.56 .17 -.84 l .12 -.67 a 2.87 2.87 0 0 1 .1 -.56 c .04 -.19 .06 -.42 .1 -.64 s .05 -.36 .08 -.54 c .05 -.36 .09 -.71 .13 -1.08 l .06 -.54 .06 -.72 a 2.13 2.13 0 0 1 .05 -.56 c 0 -.38 .05 -.77 .06 -1.16 v -3.44 a 6.76 6.76 0 0 0 -.06 -1.1 v -.55 c 0 -.18 -.06 -.65 -.09 -1 a 1.48 1.48 0 0 0 -.05 -.46 9.36 9.36 0 0 0 -.18 -1.37 4.71 4.71 0 0 0 -.08 -.5 c -.06 -.34 -.12 -.69 -.19 -1 a 2.33 2.33 0 0 0 -.1 -.5 c -.09 -.48 -.2 -1 -.32 -1.45 l -.09 -.38 c -.1 -.4 -.21 -.79 -.32 -1.19 a 1.94 1.94 0 0 0 -.14 -.51 c -.14 -.47 -.29 -1 -.45 -1.42 a 1.41 1.41 0 0 0 -.07 -.22 c -.17 -.5 -.35 -1 -.54 -1.51 l -.19 -.49 c -.17 -.44 -.35 -.87 -.53 -1.31 l -.15 -.35 c -.23 -.54 -.48 -1.09 -.74 -1.63 -.07 -.15 -.15 -.29 -.22 -.44 -.21 -.44 -.44 -.88 -.67 -1.33 -.08 -.14 -.15 -.29 -.23 -.44 -.3 -.56 -.62 -1.12 -1 -1.69 l -.19 -.31 -.1 -.18 c -.67 -1.13 -1.39 -2.27 -2.19 -3.42 l .17 .13 .06 .06 a 93.03 93.03 0 0 1 9.87 9.54 c .54 -.18 1.09 -.38 1.62 -.59 l .5 -.21 1.09 -.47 .55 -.26 1 -.5 .52 -.27 1 -.56 .44 -.25 c .38 -.23 .76 -.45 1.13 -.69 l .24 -.14 c .93 -.59 1.8 -1.18 2.6 -1.77 l .22 -.15 .93 -.7 .29 -.22 .76 -.6 .28 -.23 .68 -.56 .25 -.2 .61 -.53 .19 -.17 .64 -.57 .38 -.36 .13 -.12 .38 -.36 .48 -.47 a 197.44 197.44 0 0 1 -12.43 -16.45 c -3.76 -5.58 -10.26 -7.43 -15.76 -7.91 -1 -.53 -2 -1.06 -3.07 -1.56 -4.89 -2.3 -7.86 -4.43 -8.7 -8 a 6.58 6.58 0 0 1 -3.06 -1.75 l -.62 .86 -.31 .43 -.33 .47 -.39 .59 -.23 .35 -.45 .7 -.17 .28 -.48 .8 -.11 .2 c -.17 .29 -.34 .59 -.5 .9 l -.06 .11 c -1.84 3.51 -3.12 7.6 -2.33 11.93 -.3 .06 -.65 .15 -1.08 .28 l -1.78 .49 c -2.71 .7 -6.21 1.22 -8 1.66 l -.37 .1 c -3.3 1.19 -8.62 .76 -8.94 16.17 -.1 4.94 -2.06 11.22 1.52 13.68 a 10.92 10.92 0 0 0 1.52 .84 11.31 11.31 0 0 0 3.87 .94 h 2.5 l .45 -.05 a 5.63 5.63 0 0 0 1 -.16 c 1.54 15.22 3.94 30.75 7.41 32.89 a 13.02 13.02 0 0 0 4.07 1.29 l -.24 .73 c -.3 1.15 -.58 2.31 -.82 3.47 a 2.55 2.55 0 0 1 -.11 .52 c -.21 1 -.41 2 -.58 3.06 a 2.43 2.43 0 0 0 0 .27 c -.19 1.13 -.35 2.25 -.49 3.38 -.15 1.19 -.27 2.39 -.37 3.59 a 83.35 83.35 0 0 0 -.08 12.24 l 2.65 38.67 4.64 49.17 2.66 1.39 .12 1.33 -2.67 4.5 a 4.54 4.54 0 0 1 -2.14 1.87 l -4.22 1.81 c -4.49 2.64 -6.92 6.16 -4.54 10.6 v -.28 l 10.52 -3.74 8.77 -7.16 .2 -7.36 2.7 .47 -2.74 -45.32 6.68 -51.52 .72 9.55 .41 7 1.86 31.6 .11 1.83 .23 .87 2.43 9.18 10.82 41.01 1.3 .24 c .42 .08 .85 .14 1.27 .2 .62 .09 1.24 .14 1.86 .18 h .26 c .62 0 1.24 .05 1.85 0 h .07 c .59 0 1.17 -.05 1.76 -.1 h .28 c .59 -.06 1.17 -.14 1.75 -.24 h .29 c .52 -.1 1 -.21 1.53 -.34 l .3 -.07 c .55 -.14 1.09 -.3 1.63 -.48 l .25 -.09 .17 -.06 c .46 -.16 .92 -.34 1.38 -.53 l .28 -.11 c .51 -.22 1 -.46 1.49 -.71 a 24.41 24.41 0 0 0 3 -1.78 z"/><path d="m 200.43 56.74 l -.23 .35 z"/><path d="m 198.49 60 l -.06 .11 z"/><path d="m 199.75 57.79 l -.17 .28 z"/><path d="m 220.1 94.49 c -.19 -.31 -.38 -.63 -.58 -.94 l -.21 -.34 c .27 .43 .54 .86 .79 1.28 z"/><path d="m 220.6 95.31 l -.19 -.31 z"/><path d="m 218.21 91.44 l .06 .06 z"/><path d="m 238.73 122.71 a 12.26 12.26 0 0 0 -.09 -1.81 v -.18 a 8.35 8.35 0 0 0 -.11 -1.11 4 4 0 0 0 -.08 -.48 c -.02 -.16 -.09 -.55 -.15 -.83 s -.1 -.39 -.14 -.58 l -.16 -.72 c -.06 -.21 -.13 -.41 -.2 -.61 s -.14 -.47 -.22 -.7 -.16 -.44 -.25 -.65 -.16 -.44 -.25 -.66 -.2 -.47 -.31 -.7 -.17 -.4 -.26 -.6 l -.36 -.74 c -.1 -.18 -.19 -.37 -.28 -.56 l -.43 -.77 c -.09 -.17 -.18 -.34 -.28 -.51 s -.33 -.56 -.5 -.84 -.16 -.28 -.25 -.42 c -.18 -.3 -.37 -.59 -.56 -.88 -.08 -.12 -.16 -.25 -.25 -.37 -.2 -.31 -.41 -.61 -.62 -.92 -.08 -.1 -.15 -.21 -.22 -.31 -.23 -.33 -.46 -.65 -.7 -1 a 1.92 1.92 0 0 1 -.17 -.23 c -.26 -.35 -.52 -.69 -.79 -1 l -.11 -.15 -.85 -1 -.08 -.09 q -.45 -.55 -.9 -1.08 c -.31 -.37 -.62 -.73 -.94 -1.08 a 92.93 92.93 0 0 0 -9.87 -9.54 l -.06 -.06 -.17 -.13 c .39 .56 .76 1.12 1.12 1.68 a 1.06 1.06 0 0 0 .08 .11 l .26 .43 c .28 .43 .54 .86 .79 1.28 l .1 .17 .19 .31 c .33 .57 .65 1.13 1 1.69 .08 .15 .15 .3 .23 .44 .23 .45 .46 .89 .67 1.33 .07 .15 .15 .29 .22 .44 .26 .54 .51 1.09 .74 1.63 l .15 .35 c .18 .44 .36 .87 .53 1.31 l .19 .49 c .19 .51 .37 1 .54 1.51 a 1.41 1.41 0 0 1 .07 .22 c .16 .47 .31 1 .45 1.42 a 1.94 1.94 0 0 0 .14 .51 c .11 .4 .22 .79 .32 1.19 l .09 .38 c .12 .49 .23 1 .32 1.45 a 2.77 2.77 0 0 0 .1 .5 c .07 .35 .13 .7 .19 1 a 2.75 2.75 0 0 0 .08 .5 c .07 .46 .13 .92 .18 1.37 a 1.42 1.42 0 0 0 .05 .46 c 0 .33 .07 .66 .09 1 a 4.81 4.81 0 0 1 0 .55 c 0 .37 .05 .73 .06 1.1 v 3.44 a 7.45 7.45 0 0 1 -.06 1.16 2.13 2.13 0 0 1 -.05 .56 l -.06 .72 -.06 .54 a 7.77 7.77 0 0 1 -.13 1.08 5.03 5.03 0 0 1 -.08 .54 c -.02 .18 -.07 .43 -.1 .64 s -.07 .38 -.1 .56 l -.12 .67 c -.06 .28 -.12 .56 -.17 .84 s -.09 .39 -.13 .58 -.08 .38 -.13 .56 l -.12 .51 c -.08 .31 -.16 .61 -.23 .91 a 3.99 3.99 0 0 1 -.14 .48 c -.05 .16 -.1 .39 -.16 .58 s -.08 .27 -.11 .4 -.12 .38 -.17 .57 v .1 c -.13 .43 -.27 .86 -.4 1.27 a .79 .79 0 0 1 -.08 .23 c -.14 .43 -.29 .84 -.43 1.24 -.07 .19 -.13 .37 -.2 .55 l -.21 .58 c -.11 .29 -.21 .58 -.32 .86 -1.61 4.25 -2.71 6.66 -.8 6.7 4.45 .11 11.34 -1.37 14.39 -2.08 l 1 -.23 .51 -.13 h .07 a 154.28 154.28 0 0 0 .25 -17.94 z" opacity=".5"/><path d="m 218.04 91.31 l .01 .01 z"/><path d="m 219.52 93.55 l -.26 -.43 a .44 .44 0 0 0 .05 .09 z"/><path d="m 218 91.31 l .17 .13 -.15 -.11 z"/><path d="m 244.24 90.93 l .38 -.36 z"/><path d="m 242.9 92.15 l .19 -.17 z"/><path d="m 241.08 93.67 l .28 -.23 z"/><path d="m 238.88 95.34 l .22 -.15 z"/><path d="m 247.89 155.55 c 3.81 -7.56 8.67 -19 7.19 -37.15 a 50.09 50.09 0 0 0 -3.17 -12.74 64.23 64.23 0 0 0 -2.54 -6.08 c -.82 -1.75 -1.61 -3.29 -2.42 -5 -.65 -1.29 -1.45 -2.66 -2.33 -4.06 l -.38 .36 -.13 .12 -.38 .36 -.64 .57 -.19 .17 -.61 .53 -.25 .2 -.68 .56 -.28 .23 -.76 .6 -.29 .22 -.93 .7 -.22 .15 c -.8 .59 -1.67 1.18 -2.6 1.77 l -.24 .14 c -.37 .24 -.75 .46 -1.13 .69 l -.44 .25 -1 .56 -.52 .27 -1 .5 -.55 .26 -1.09 .47 -.5 .21 c -.53 .21 -1.08 .41 -1.62 .59 l .93 1.08 q .45 .53 .9 1.08 l .08 .09 .85 1 .11 .15 c .27 .34 .53 .68 .79 1 a 2.01 2.01 0 0 0 .17 .23 c .24 .32 .47 .64 .7 1 .07 .1 .14 .21 .22 .31 .21 .31 .42 .61 .62 .92 .09 .12 .16 .25 .25 .37 .19 .29 .38 .58 .56 .88 .09 .14 .17 .28 .25 .42 s .34 .56 .5 .84 .19 .34 .28 .51 l .43 .77 c .09 .19 .18 .38 .28 .56 l .36 .74 c .09 .2 .18 .4 .26 .6 s .22 .47 .31 .7 .17 .44 .25 .66 .17 .43 .25 .65 .15 .46 .22 .7 .14 .4 .2 .61 l .18 .72 a 3.06 3.06 0 0 0 .14 .58 c .04 .19 .1 .55 .15 .83 s .06 .32 .08 .48 c 0 .37 .08 .74 .11 1.11 v .18 c 0 .61 .06 1.21 .09 1.81 a 154.22 154.22 0 0 1 -.4 17.87 h -.07 l -.51 .13 v 2 a 59.3 59.3 0 0 1 -1.61 14.52 c -.42 1.75 -.95 3.61 -1.63 5.67 -1.2 .5 -2.22 .6 -3.2 1.63 s -4.41 5.1 -4.93 6.41 c -.22 .55 .84 1.38 1.36 1.1 1.34 -.71 2.84 -2 4.08 -2.11 a 1.51 1.51 0 0 1 1.66 1.2 c .25 1.28 -.4 2.76 -1.13 4.3 a 34.85 34.85 0 0 1 -2.84 4.72 1.42 1.42 0 0 0 .88 2.22 c 2.25 .45 5.81 .92 8.6 .19 a 5.36 5.36 0 0 0 3.43 -2.32 c 2.64 -4.5 .79 -12 1.44 -15.7 .41 -2.1 2.09 -4.97 4.05 -8.86 z" opacity=".8"/><path d="m 240 94.49 l .29 -.22 z"/><path d="m 242 92.88 l .25 -.2 z"/><path d="m 243.73 91.41 l .38 -.36 z"/><path d="m 219.18 93 c -.36 -.56 -.73 -1.12 -1.12 -1.68 .4 .57 .77 1.14 1.14 1.71 z"/><path d="m 220.31 94.83 c -.06 -.11 -.14 -.23 -.21 -.34 l .21 .33 z"/><path d="m 219.26 93.12 a 1.06 1.06 0 0 1 -.08 -.11 v .06 a .1 .1 0 0 0 .08 .05 z"/><path d="m 218.05 91.32 v .01 h .01 z"/><path d="m 219.31 93.21 l -.09 -.14 c -.37 -.57 -.74 -1.14 -1.14 -1.71 .8 1.15 1.52 2.29 2.19 3.42 l -.21 -.33 c -.21 -.38 -.48 -.81 -.75 -1.24 z"/><path d="m 56.3 201.75 c .08 -.69 .17 -1.42 .26 -2.18 a 9.36 9.36 0 0 1 .13 -1.16 c .14 -1.18 .28 -2.42 .43 -3.71 .49 -4.29 1.05 -9.12 1.6 -14 .12 -1 .23 -2 .34 -2.95 a 14.06 14.06 0 0 1 .16 -1.47 c .17 -1.46 .34 -2.93 .5 -4.37 s .32 -2.87 .47 -4.26 c .21 -1.86 .41 -3.66 .6 -5.38 .14 -1.29 .27 -2.53 .4 -3.7 s .25 -2.3 .36 -3.35 c .07 -.69 .14 -1.36 .2 -2 0 -.27 .06 -.53 .08 -.78 -3.36 -1.21 -6 -2.89 -7.38 -5.43 -1.48 16.79 -5.82 65 -5.82 65 l -8.74 49.26 c .56 .46 1.14 .89 1.73 1.3 l 13 -48.58 c .16 -.59 .29 -1.18 .41 -1.78 s .21 -1.21 .28 -1.81 c -.01 -.02 .39 -3.4 .99 -8.65 z" opacity=".5"/><path d="m 113.77 124 c -.32 .52 -.62 1 -.91 1.59 l -.28 .55 c -.19 .36 -.37 .72 -.55 1.08 s -.22 .44 -.32 .66 -.31 .67 -.46 1 -.22 .48 -.32 .72 l -.39 .92 c -3.18 7.56 -5.2 15.6 -10 20.74 a 16.99 16.99 0 0 1 -3.13 2.74 l -.21 .13 c -.24 .15 -.49 .3 -.75 .44 l -.36 .19 -.76 .37 -.42 .17 c -.42 .17 -.86 .33 -1.31 .48 l -.66 .2 c -.23 .07 -.46 .12 -.69 .17 l -.77 .17 -.69 .12 -1 .13 a 1.94 1.94 0 0 0 -.58 .06 q -.78 .07 -1.62 .09 h -2.49 a 12.69 12.69 0 0 1 -1.35 -.11 l -.63 -.06 c -.67 -.08 -1.36 -.17 -2.08 -.29 a 91.69 91.69 0 0 0 20.31 1 h .1 l 4.46 -2.83 a 15.8 15.8 0 0 0 7 -10.05 l 3.89 -18.14 z" opacity=".5"/><path d="m 59.76 266.91 a 25.73 25.73 0 0 1 -15.39 -2.7 c -.09 .5 -.19 1 -.27 1.5 s -.12 .78 -.18 1.16 c 3.07 2.87 8.79 6.48 15.88 2.87 0 -.94 -.01 -1.88 -.04 -2.83 z" opacity=".5"/><path d="m 165.12 109.67 c .15 -.43 .28 -.86 .41 -1.28 -.13 .42 -.26 .85 -.41 1.28 z"/><path d="m 165.59 108.16 c .1 -.37 .2 -.73 .29 -1.09 -.09 .36 -.19 .72 -.29 1.09 z"/><path d="m 165.94 106.8 c .1 -.41 .18 -.81 .25 -1.2 -.07 .4 -.19 .79 -.25 1.2 z"/><path d="m 166.24 105.36 c .06 -.34 .11 -.68 .16 -1 -.05 .32 -.1 .64 -.16 1 z"/><path d="m 166.43 104.1 c 0 -.38 .1 -.76 .13 -1.13 -.03 .37 -.08 .75 -.13 1.13 z"/><path d="m 160.12 119.31 c .35 -.51 .7 -1 1 -1.52 -.3 .5 -.65 1.01 -1 1.52 z"/><path d="m 163.15 114.3 c .22 -.43 .42 -.85 .62 -1.27 -.2 .42 -.4 .84 -.62 1.27 z"/><path d="m 162.27 115.92 c .27 -.49 .54 -1 .79 -1.44 -.25 .52 -.52 .95 -.79 1.44 z"/><path d="m 163.91 112.71 c .21 -.46 .41 -.91 .59 -1.36 -.18 .45 -.38 .9 -.59 1.36 z"/><path d="m 164.58 111.14 c .16 -.4 .3 -.79 .44 -1.18 -.14 .39 -.28 .78 -.44 1.18 z"/><path d="m 166.67 99.4 v .85 a 8.03 8.03 0 0 0 0 -.85 z"/><path d="m 166.4 95.78 c 0 -.22 -.06 -.42 -.08 -.63 .02 .21 .05 .41 .08 .63 z"/><path d="m 166.58 102.72 a 4.17 4.17 0 0 1 .07 -.93 c -.02 .31 -.04 .62 -.07 .93 z"/><path d="m 166.67 99.19 v -1 a 8.34 8.34 0 0 0 0 1 z"/><path d="m 161.23 117.64 c .29 -.46 .57 -.92 .84 -1.37 -.27 .45 -.55 .91 -.84 1.37 z"/><path d="m 166.53 97 a 6.12 6.12 0 0 0 -.1 -.86 c .04 .24 .07 .53 .1 .86 z"/><path d="m 166.6 97.94 a 3.25 3.25 0 0 0 -.06 -.76 c .03 .25 .05 .51 .06 .76 z"/><path d="m 157.92 76 a 1.2 1.2 0 0 0 .36 .38 .71 .71 0 0 0 .18 .08 h .05 a 1 1 0 0 0 .51 0 h .08 l .22 -.11 h .09 l .32 -.24 c 1.14 -1 1.13 -3 1.2 -4.4 a 32.13 32.13 0 0 1 .39 -3.89 28 28 0 0 1 2.15 -6.18 4.01 4.01 0 0 1 .53 -.64 5.15 5.15 0 0 1 .56 -.46 5.21 5.21 0 0 1 .65 -.37 4.57 4.57 0 0 1 .71 -.25 c -2.18 -2 -4.73 -.71 -5.81 1.07 a 27.43 27.43 0 0 0 -1.55 6.35 31.49 31.49 0 0 0 0 3.91 c .06 1.38 .26 3.38 -.78 4.49 z"/><path d="m 155.29 82.65 c .7 1.57 .25 3.14 0 4.77 a 20.86 20.86 0 0 1 -1 4.35 27.07 27.07 0 0 1 -1.54 3.32 l .49 -.77 c .2 -.31 .4 -.62 .59 -.93 a 19.26 19.26 0 0 0 .94 -1.73 20.82 20.82 0 0 0 1.39 -4.24 c .38 -1.6 1 -3.12 .43 -4.75 -.47 -1.39 -1.63 -2.46 -2 -3.88 a 6.78 6.78 0 0 1 0 -3.29 c .09 -.46 .2 -.92 .32 -1.37 s .21 -.75 .33 -1.12 c -.13 -1.33 -.45 -3 -1.47 -2 a 2.27 2.27 0 0 0 -.56 1.14 25.71 25.71 0 0 0 -.64 3.59 6.87 6.87 0 0 0 .28 3.28 c .58 1.33 1.83 2.28 2.44 3.63 z"/><path d="m 145.4 107 c -1.11 -.45 -2.2 -.91 -3.27 -1.42 -1.27 -.59 -2.51 -1.26 -3.74 -1.93 l -4.61 -2.55 a 21.42 21.42 0 0 1 -1.9 -1.16 6.13 6.13 0 0 1 1.65 4 l 1.48 1 c 1.19 .74 2.37 1.49 3.61 2.16 1.57 .87 3.19 1.68 4.85 2.41 .66 -.8 1.3 -1.62 1.93 -2.45 z"/><path d="m 166.28 94.9 a 2.09 2.09 0 0 1 0 .25 4.72 4.72 0 0 0 .08 .63 v .32 c 0 .28 .07 .57 .1 .86 v .22 c 0 .25 .05 .51 .06 .76 a 2.14 2.14 0 0 1 0 .28 v 3.33 a 1.77 1.77 0 0 0 0 .23 4.17 4.17 0 0 1 -.07 .93 2.09 2.09 0 0 1 0 .25 8.9 8.9 0 0 1 -.13 1.13 v .25 c -.05 .33 -.1 .67 -.16 1 a .42 .42 0 0 1 -.05 .24 c -.07 .39 -.15 .79 -.25 1.2 l -.06 .27 c -.09 .36 -.19 .72 -.29 1.09 l -.06 .23 c -.13 .42 -.26 .85 -.41 1.28 a 1 1 0 0 1 -.1 .29 c -.14 .39 -.28 .78 -.44 1.18 l -.08 .21 c -.18 .45 -.38 .9 -.59 1.36 0 .11 -.09 .21 -.14 .32 -.2 .42 -.4 .84 -.62 1.27 l -.09 .18 c -.25 .47 -.52 1 -.79 1.44 -.07 .12 -.14 .23 -.2 .35 -.27 .45 -.55 .91 -.84 1.37 l -.09 .15 c -.32 .5 -.67 1 -1 1.52 l -.26 .37 c -.35 .49 -.72 1 -1.1 1.5 l -.07 .09 c -.4 .53 -.83 1.06 -1.28 1.6 -.1 .14 -.22 .27 -.33 .4 -.45 .55 -.92 1.1 -1.42 1.66 a 40.43 40.43 0 0 1 -3.61 3 10.54 10.54 0 0 1 -6.93 2.47 8.06 8.06 0 0 1 -.85 -.06 3.9 3.9 0 0 1 -.76 -.13 8.41 8.41 0 0 0 4.86 1 10.53 10.53 0 0 0 6.65 -3.12 39.49 39.49 0 0 0 3.31 -3.3 c 10.06 -13.58 9.48 -23.09 8.01 -29.87 z"/><path d="m 171.85 72.15 c .18 -10.63 -3.23 -12.93 -5.91 -12.25 a 4.57 4.57 0 0 0 -.71 .25 5.21 5.21 0 0 0 -.65 .37 5.03 5.03 0 0 0 -.58 .48 3.97 3.97 0 0 0 -.48 .54 28 28 0 0 0 -2.15 6.18 32.13 32.13 0 0 0 -.39 3.89 c -.07 1.38 -.06 3.39 -1.2 4.4 l -.32 .24 h -.09 l -.22 .11 h -.08 a 1 1 0 0 1 -.51 0 h -.05 a .71 .71 0 0 1 -.18 -.08 1.21 1.21 0 0 1 -.36 -.38 3.38 3.38 0 0 1 -.42 -1.59 c 0 -.67 .36 -4.7 -1.24 -3.5 a 2.28 2.28 0 0 0 -.67 1.09 c -.12 .34 -.21 .68 -.32 1 s -.22 .74 -.33 1.12 -.23 .91 -.32 1.37 a 6.78 6.78 0 0 0 0 3.29 c .42 1.42 1.58 2.49 2 3.88 .55 1.63 0 3.15 -.43 4.75 a 20.82 20.82 0 0 1 -1.39 4.24 19.26 19.26 0 0 1 -.94 1.73 c -.19 .31 -.39 .62 -.59 .93 -.85 1.32 -1.74 2.61 -2.48 4 l -.62 1.19 s -3.29 5.45 -4.13 6.63 c -.21 .29 -.44 .58 -.65 .88 -.63 .83 -1.27 1.65 -1.93 2.45 -1.66 -.73 -3.28 -1.54 -4.85 -2.41 -1.24 -.67 -2.42 -1.42 -3.61 -2.16 l -1.48 -1 a 2.26 2.26 0 0 1 0 .26 l -10.79 17.69 .56 .33 a 61.8 61.8 0 0 0 5.71 3 48.79 48.79 0 0 0 12.1 4.14 8.17 8.17 0 0 0 2.41 .85 l .76 .13 a 8.06 8.06 0 0 0 .85 .06 10.54 10.54 0 0 0 6.93 -2.47 40.43 40.43 0 0 0 3.61 -3 c .5 -.56 1 -1.11 1.42 -1.66 .11 -.13 .23 -.26 .33 -.4 .45 -.54 .88 -1.07 1.28 -1.6 l .07 -.09 c .38 -.51 .75 -1 1.1 -1.5 l .26 -.37 c .35 -.51 .7 -1 1 -1.52 l .09 -.15 c .29 -.46 .57 -.92 .84 -1.37 .06 -.12 .13 -.23 .2 -.35 .27 -.49 .54 -1 .79 -1.44 l .09 -.18 c .22 -.43 .42 -.85 .62 -1.27 0 -.11 .1 -.21 .14 -.32 .21 -.46 .41 -.91 .59 -1.36 l .08 -.21 c .16 -.4 .3 -.79 .44 -1.18 a 1.25 1.25 0 0 1 .1 -.29 c .15 -.43 .28 -.86 .41 -1.28 l .06 -.23 c .1 -.37 .2 -.73 .29 -1.09 l .06 -.27 c .09 -.41 .18 -.81 .25 -1.2 a .42 .42 0 0 1 .05 -.24 c .06 -.34 .11 -.68 .16 -1 v -.25 c 0 -.38 .1 -.76 .13 -1.13 a 2.09 2.09 0 0 0 0 -.25 4.17 4.17 0 0 1 .07 -.93 1.77 1.77 0 0 1 0 -.23 v -3.33 a 2.62 2.62 0 0 0 0 -.28 3.25 3.25 0 0 0 -.06 -.76 v -.22 a 6.12 6.12 0 0 0 -.1 -.86 v -.32 c 0 -.22 -.06 -.42 -.08 -.63 a 1 1 0 0 1 0 -.26 c -.49 -3.62 -1.17 -6.46 -.47 -8.59 1.08 -3.31 5.84 -8.92 5.93 -14.02 z" opacity=".8"/><path d="m 163.51 61.55 a 4 4 0 0 1 .49 -.55 4 4 0 0 0 -.49 .55 z"/><path d="m 164.57 60.53 a 5.14 5.14 0 0 0 -.57 .47 5.14 5.14 0 0 1 .57 -.47 z"/><path d="m 165.94 59.9 a 4.57 4.57 0 0 0 -.71 .25 4.57 4.57 0 0 1 .71 -.25 z"/><path d="m 165.23 60.15 a 5.21 5.21 0 0 0 -.65 .37 5.21 5.21 0 0 1 .65 -.37 z"/><path d="m 166.54 97.18 v -.22 a 1.6 1.6 0 0 0 0 .22 z"/><path d="m 164.5 111.35 l .08 -.21 z"/><path d="m 163.77 113 c 0 -.11 .1 -.21 .14 -.32 a 1.22 1.22 0 0 1 -.14 .32 z"/><path d="m 166.32 95.15 a 2.09 2.09 0 0 0 0 -.25 .7 .7 0 0 0 0 .25 z"/><path d="m 161.14 117.79 l .09 -.15 z"/><path d="m 166.62 98.22 v -.28 a 2.62 2.62 0 0 1 0 .28 z"/><path d="m 159.86 119.68 l .26 -.37 z"/><path d="m 163.06 114.48 l .09 -.18 z"/><path d="m 166.19 105.6 a .42 .42 0 0 1 .05 -.24 c -.02 .08 -.03 .16 -.05 .24 z"/><path d="m 162.07 116.27 c .06 -.12 .13 -.23 .2 -.35 a 1.9 1.9 0 0 0 -.2 .35 z"/><path d="m 165.88 107.07 l .06 -.27 z"/><path d="m 165.53 108.39 l .06 -.23 z"/><path d="m 166.65 101.79 a 1.77 1.77 0 0 1 0 -.23 1.77 1.77 0 0 0 0 .23 z"/><path d="m 166.56 103 a 2.09 2.09 0 0 0 0 -.25 2.09 2.09 0 0 1 0 .25 z"/><path d="m 165 110 a 1.25 1.25 0 0 1 .1 -.29 2.02 2.02 0 0 1 -.1 .29 z"/><path d="m 98.89 87.86 a 2.83 2.83 0 0 0 .23 -.26 c 4.52 -2.11 7.59 -2.27 11.72 -.65 a 17.25 17.25 0 0 0 -2.15 -3.33 33.42 33.42 0 0 0 -9.39 -8.09 c -.48 -.28 -1 -.55 -1.44 -.84 a 3.48 3.48 0 0 1 -1 -.09 c 2.54 4.6 2 7.84 -.74 11.42 a 7.6 7.6 0 0 0 2.77 1.84 z"/><path d="m 100.81 73.79 h -.1 a 2.49 2.49 0 0 1 -1.79 1 h -1.06 c .47 .29 1 .56 1.44 .84 a 33.42 33.42 0 0 1 9.39 8.09 17.2 17.2 0 0 1 2.15 3.28 33.92 33.92 0 0 1 3.22 1.48 l .31 .17 a 12.14 12.14 0 0 1 1.77 -8.32 c -5.52 -.08 -7.41 -1.64 -11.23 -4 -1.38 -.85 -2.76 -1.63 -4.1 -2.54 z" opacity=".8"/><path d="m 123.41 62.28 a 39.78 39.78 0 0 0 -3 -8.74 2.53 2.53 0 0 1 -.44 .85 8.82 8.82 0 0 1 -.83 1 10.95 10.95 0 0 1 -1 .81 2.74 2.74 0 0 1 -1.35 .54 h -.06 a 1.3 1.3 0 0 1 -1.45 -1.12 v -.12 a 2.65 2.65 0 0 1 .44 -1.54 6.91 6.91 0 0 1 .94 -1.15 6.16 6.16 0 0 1 1.21 -.86 2.36 2.36 0 0 1 1.59 -.34 69.65 69.65 0 0 0 -4.73 -8 c -3.22 -.2 -7 .29 -7 3.42 0 1.61 .23 3.22 .18 4.83 a 6.54 6.54 0 0 1 -1.58 4.44 2.54 2.54 0 0 1 -1 .66 4.28 4.28 0 0 1 -2.15 -.19 c -2.65 -.57 -4.17 1.67 -3.74 4.1 a 7.57 7.57 0 0 0 2.39 4.23 c .16 .14 .31 .29 .46 .45 .69 .73 .39 6 -1.49 8.17 l .08 .06 c 1.34 .91 2.72 1.69 4.1 2.53 3.82 2.32 5.71 3.88 11.23 4 1.07 0 2.28 0 3.68 -.12 h .3 a 21.19 21.19 0 0 0 1.48 -3.31 5.88 5.88 0 0 0 .19 -1.25 10.11 10.11 0 0 0 -.5 -3.36 c -.46 -1.5 -1.12 -2.93 -1.55 -4.43 a 4.28 4.28 0 0 1 -.14 -2.45 c .7 -2.19 2.43 -.42 3.65 -1.44 .34 -.41 .18 -1.24 .09 -1.67 z m -4.6 -2.54 c -.41 .06 -.85 -.64 -1 -1.56 s .08 -1.72 .48 -1.78 .85 .64 1 1.56 -.08 1.71 -.48 1.78 z"/><path d="m 126.19 71.9 l -3 .08 a 2 2 0 0 1 0 -4 c 1.43 0 2.5 -.07 3.3 -.1 a 84.84 84.84 0 0 0 -.87 -11.58 h -.08 a 8.34 8.34 0 0 1 -1.24 -.34 9.19 9.19 0 0 1 -1.15 -.54 2.84 2.84 0 0 1 -1.06 -1 v -.05 a 1.3 1.3 0 0 1 .4 -1.79 l .11 -.06 a 2.75 2.75 0 0 1 1.58 -.25 l .72 .15 a 24.63 24.63 0 0 0 -2.17 -5.68 6.62 6.62 0 0 0 -4.23 -2.56 24.06 24.06 0 0 0 -3.74 -.52 69.65 69.65 0 0 1 4.73 8 1.23 1.23 0 0 1 .99 1.34 2.59 2.59 0 0 1 -.11 .53 39.78 39.78 0 0 1 3 8.74 c .09 .43 .25 1.26 -.16 1.61 -1.22 1 -3 -.75 -3.65 1.44 a 4.28 4.28 0 0 0 .14 2.45 c .43 1.5 1.09 2.93 1.55 4.43 a 10.11 10.11 0 0 1 .5 3.36 5.88 5.88 0 0 1 -.19 1.25 21.19 21.19 0 0 1 -1.48 3.31 c 3.7 -.41 5.5 -3.5 6.11 -8.22 z m -1.69 -15.26 c .31 0 .65 .49 .75 1.19 s -.06 1.31 -.37 1.36 -.64 -.49 -.75 -1.19 .06 -1.31 .37 -1.36 z" opacity=".8"/><path d="m 124.88 59.19 c .31 0 .48 -.66 .37 -1.36 s -.44 -1.24 -.75 -1.19 -.48 .66 -.37 1.36 .44 1.24 .75 1.19 z" opacity=".15"/><path d="m 118.3 56.4 c -.4 .06 -.62 .86 -.48 1.78 s .58 1.62 1 1.56 .62 -.86 .48 -1.78 -.59 -1.62 -1 -1.56 z" opacity=".15"/><path d="m 129.11 34.94 a 4.88 4.88 0 0 0 -2.71 -1.94 c -13.6 -4.29 -21.1 -1.55 -26.56 5.27 -3 3.75 -4.26 1.43 -8.36 4.11 -2.48 1.62 -5.3 2.62 -5.75 5.93 .93 5.26 .64 4.59 -2.19 9.18 a 7.08 7.08 0 0 0 3.53 9.21 c 1.38 .62 3.05 .91 4 2.07 1.11 2 1.57 4.85 4.29 5.58 a 11.88 11.88 0 0 0 1.5 .25 c .32 0 .68 .07 1 .09 s .7 0 1.06 0 a 2.49 2.49 0 0 0 1.79 -1 c 1.88 -2.22 2.18 -7.44 1.49 -8.17 -.15 -.16 -.3 -.31 -.46 -.45 a 7.57 7.57 0 0 1 -2.39 -4.23 c -.43 -2.43 1.09 -4.67 3.74 -4.1 a 4.28 4.28 0 0 0 2.15 .19 2.54 2.54 0 0 0 1 -.66 6.54 6.54 0 0 0 1.58 -4.44 c 0 -1.61 -.21 -3.22 -.18 -4.83 .06 -3.13 3.79 -3.62 7 -3.42 a 24.06 24.06 0 0 1 3.74 .52 6.62 6.62 0 0 1 4.23 2.56 c .11 .14 .23 .28 .35 .41 a 9.13 9.13 0 0 1 1.29 -1.31 c 4.75 -2.96 6.75 -7.91 4.86 -10.82 z" opacity=".3"/><path d="m 119.42 51.61 a 2.36 2.36 0 0 0 -1.59 .34 6.16 6.16 0 0 0 -1.21 .86 6.91 6.91 0 0 0 -.94 1.15 2.65 2.65 0 0 0 -.44 1.54 v .12 a 1.3 1.3 0 0 0 1.45 1.12 h .06 a 2.74 2.74 0 0 0 1.35 -.54 10.95 10.95 0 0 0 1 -.81 8.82 8.82 0 0 0 .83 -1 2.53 2.53 0 0 0 .44 -.85 2.59 2.59 0 0 0 .11 -.53 v -.01 a 1.23 1.23 0 0 0 -1.05 -1.39 z" opacity=".15"/><path d="m 122.53 52.48 l -.11 .06 a 1.3 1.3 0 0 0 -.4 1.79 v .05 a 2.84 2.84 0 0 0 1.06 1 9.19 9.19 0 0 0 1.15 .54 8.34 8.34 0 0 0 1.24 .34 h .08 v -.3 a 30.18 30.18 0 0 0 -.71 -3.6 l -.72 -.15 a 2.75 2.75 0 0 0 -1.59 .27 z" opacity=".15"/><path d="m 123.15 68 a 2 2 0 0 0 0 4 l 3 -.08 c .09 -.64 .15 -1.32 .19 -2 v -2.02 c -.69 -.01 -1.76 .03 -3.19 .1 z" opacity=".15"/><path d="m 131.88 100 a 25.73 25.73 0 0 0 -5.88 -4.87 c -3.17 -2 -6.68 -3.79 -9.12 -5.17 l -.81 -.45 -.32 -.18 c -.48 -.27 -.92 -.5 -1.37 -.73 l -.31 -.17 a 33.68 33.68 0 0 0 -3.23 -1.43 c -4.13 -1.62 -7.2 -1.46 -11.72 .65 a 2.83 2.83 0 0 1 -.23 .26 7.59 7.59 0 0 1 -2.81 -1.91 2.36 2.36 0 0 1 -.41 -.71 c -.81 -2.47 -23.52 27.58 -32.6 38.88 -9.21 11.46 -10.93 18.43 -8.62 22.83 1.34 2.54 4 4.22 7.38 5.43 a 2.66 2.66 0 0 1 -.08 .78 c -.06 .62 -.13 1.29 -.2 2 -.11 1 -.23 2.17 -.36 3.35 s -.26 2.41 -.4 3.7 c -.19 1.72 -.39 3.52 -.6 5.38 -.15 1.39 -.31 2.82 -.47 4.26 s -.33 2.91 -.5 4.37 a 14.06 14.06 0 0 1 -.16 1.47 c -.11 1 -.22 2 -.34 2.95 -.55 4.89 -1.11 9.72 -1.6 14 -.15 1.29 -.29 2.53 -.43 3.71 a 11.12 11.12 0 0 1 -.13 1.16 c -.09 .76 -.18 1.49 -.26 2.18 -.6 5.23 -1 8.63 -1 8.63 -.07 .6 -.17 1.21 -.28 1.81 s -.25 1.19 -.41 1.78 l -13 48.58 a 27.43 27.43 0 0 0 3 1.78 c .48 .25 1 .49 1.48 .7 l .28 .12 c .46 .19 .92 .36 1.38 .53 l .43 .14 c .53 .18 1.08 .35 1.62 .49 l .3 .07 q .77 .19 1.53 .33 l .29 .06 c .58 .1 1.17 .18 1.76 .24 h .27 c .59 .06 1.18 .09 1.77 .11 h 2.17 a 13.01 13.01 0 0 0 1.86 -.18 c .43 -.06 .85 -.13 1.28 -.21 l 1.29 -.24 10.87 -41.1 2.42 -9.18 .24 -.87 .1 -1.82 1.86 -31.6 .41 -7 .72 -9.55 6.68 51.52 -2.74 45.32 2.7 -.47 .2 7.35 8.78 7.17 10.52 3.75 v .28 l -.19 .35 c 2.72 -4.6 .27 -8.24 -4.34 -11 l -4.23 -1.8 a 4.5 4.5 0 0 1 -2.13 -1.83 l -2.66 -4.5 .11 -1.32 2.67 -1.4 4.69 -49.17 2.59 -38.61 a 82.48 82.48 0 0 0 -.21 -13.79 91.69 91.69 0 0 1 -20.31 -1 c .72 .12 1.41 .21 2.08 .29 l .63 .06 c .46 .05 .91 .08 1.35 .11 h 2.49 a 9.6 9.6 0 0 0 1.62 -.09 1.88 1.88 0 0 0 .58 -.06 l 1 -.13 .69 -.12 .77 -.17 a 2.49 2.49 0 0 0 .69 -.17 l .66 -.2 c .45 -.15 .89 -.31 1.31 -.48 l .42 -.17 .76 -.37 .36 -.19 c .26 -.14 .51 -.29 .75 -.44 l .21 -.13 a 17 17 0 0 0 3.17 -2.68 c 4.75 -5.14 6.77 -13.18 10 -20.74 l .39 -.92 c .1 -.24 .21 -.48 .32 -.72 s .3 -.67 .46 -1 .21 -.44 .32 -.66 .36 -.72 .55 -1.08 l .28 -.55 c .29 -.54 .59 -1.07 .91 -1.59 l 3.07 2.14 2.33 1.58 3.56 -5.83 10.79 -17.69 a 2.26 2.26 0 0 0 0 -.26 6.13 6.13 0 0 0 -1.71 -3.95 z"/></g></svg>