<svg enable-background="new 0 0 841.889 595.281" height="595.28" viewBox="0 0 841.89 595.28" width="841.89" xmlns="http://www.w3.org/2000/svg"><path d="m 694.49 417.72 c -2.98 -25 -13.69 -45.24 -28.57 -60.12 .6 -10.12 1.19 -20.84 1.19 -31.55 0 -13.1 -.6 -25.6 -1.79 -38.1 4.17 -10.72 5.36 -22.03 2.38 -33.34 -1.79 -7.74 -5.36 -14.88 -9.52 -21.43 7.74 -10.12 11.31 -22.62 11.31 -35.72 27.38 -38.69 23.81 -86.91 8.33 -117.27 l -8.33 -15.48 -11.31 13.1 c -15.48 17.26 -30.95 31.55 -47.03 42.27 -12.5 -19.65 -36.31 -30.96 -60.72 -25.6 -3.57 .6 -7.14 1.79 -10.72 3.57 -13.09 -16.07 -35.12 -23.81 -55.95 -19.05 -2.38 .6 -5.36 1.19 -7.74 2.38 -1.79 .6 -2.98 1.19 -4.17 1.79 -8.33 -7.14 -19.65 -11.31 -32.74 -12.5 -15.48 -1.79 -32.15 1.79 -44.65 8.33 -10.12 -9.52 -24.41 -15.48 -38.69 -15.48 -17.86 0 -34.53 8.33 -44.65 22.03 -8.33 -4.76 -17.86 -7.14 -27.38 -7.14 -8.93 0 -17.26 2.38 -25 5.95 -35.12 -28.57 -81.55 -30.96 -112.51 -19.05 l -16.67 5.95 11.91 13.1 c 17.26 19.05 30.36 38.1 38.69 57.15 -9.52 10.12 -14.88 23.81 -14.88 38.1 0 10.72 2.98 21.43 8.93 30.36 -3.57 8.33 -7.14 17.26 -9.52 26.79 -20.84 7.14 -35.12 26.79 -35.12 48.81 0 17.26 8.93 33.34 23.22 42.86 0 9.53 .6 19.05 1.19 28.57 -15.48 14.88 -26.79 35.12 -29.76 60.72 -4.76 41.67 8.93 79.17 37.5 104.77 26.19 23.81 62.5 35.72 105.96 35.72 17.26 0 35.72 -1.79 54.77 -5.95 7.14 2.38 14.88 4.17 25.6 5.36 14.29 13.1 41.07 22.62 57.74 22.62 14.29 0 33.34 -7.74 44.65 -21.43 2.98 0 5.95 -.6 8.93 -1.19 h 3.57 .6 v -.6 c 10.72 -1.19 21.43 -2.98 30.96 -4.76 19.64 4.17 38.69 6.55 56.55 6.55 42.86 0 79.77 -11.91 105.96 -35.72 28.55 -26.2 42.24 -63.11 37.48 -105.37 z m -110.72 -73.22 c 18.45 45.84 18.45 85.13 .6 116.08 -25 43.46 -82.15 66.67 -123.22 72.63 -.6 0 -1.79 0 -2.38 0 -10.72 -.6 -21.43 -4.76 -30.96 -10.12 16.07 -19.05 18.45 -45.24 6.55 -64.29 17.86 -9.52 29.76 -27.98 29.76 -49.41 0 -7.74 -1.79 -15.48 -4.76 -23.22 12.5 -10.72 19.65 -26.19 19.65 -42.86 0 -23.81 -14.88 -44.65 -36.31 -52.98 5.95 -10.12 17.86 -16.67 30.36 -15.48 l 15.48 1.19 -2.38 -14.88 c -.6 -3.57 -.6 -7.74 0 -11.31 2.98 -17.86 20.24 -29.76 38.1 -26.19 4.76 .6 8.93 2.38 12.5 5.36 l 9.52 6.55 c -13.1 3.57 -24.41 12.5 -31.55 25 -6.55 11.31 -8.33 25 -5.95 38.1 -13.1 4.17 -23.81 12.5 -30.36 24.41 l 20.83 11.31 c 3.57 -6.55 10.12 -11.91 17.86 -13.69 8.33 -2.38 17.26 -.6 25 3.57 l 11.31 -20.84 c -6.55 -3.57 -13.69 -5.95 -20.84 -7.14 -1.79 -8.33 -1.19 -17.26 2.98 -24.41 s 10.12 -11.91 17.86 -14.29 c 7.74 -1.79 15.48 -.6 22.03 4.17 7.14 4.76 12.5 11.91 14.29 20.83 l 23.22 -5.95 c -3.57 -14.29 -12.5 -26.79 -24.41 -34.53 s -25.6 -10.12 -39.29 -7.74 l 4.76 -10.72 c 5.95 -13.69 20.84 -21.43 35.72 -19.05 s 25.6 14.88 26.79 29.77 l 7.74 -.6 10.12 8.93 c 5.36 4.76 8.93 10.72 10.72 17.26 1.79 7.14 .6 14.29 -2.38 20.84 l -1.19 2.98 .6 3.57 c 1.19 12.5 2.38 25.6 2.38 38.69 0 4.76 0 10.12 -.6 14.88 -15.48 -8.33 -32.15 -13.1 -48.81 -13.1 h -17.86 z m -225.02 -160.73 c 5.95 -5.36 13.69 -8.33 21.43 -7.74 16.07 1.19 28.57 16.67 27.38 34.53 l 23.81 1.79 c 1.19 -22.03 -8.93 -41.67 -25.6 -51.79 6.55 -9.52 17.26 -14.88 28.57 -13.69 9.53 1.19 17.26 7.74 21.43 16.07 l 4.76 19.05 c 14.88 -3.57 29.76 5.95 35.12 21.43 -16.67 7.14 -29.76 22.62 -33.34 41.67 -.6 1.79 -.6 4.17 -.6 5.95 -8.93 1.19 -17.86 5.36 -25 10.72 -8.33 -20.24 -28.57 -35.12 -52.39 -35.12 -3.57 0 -7.74 .6 -11.31 1.19 -5.36 -10.72 -14.29 -19.05 -24.41 -24.41 1.22 -7.15 4.2 -14.29 10.15 -19.65 z m 166.68 -63.7 l 6.55 12.5 11.31 -8.93 c 3.57 -2.98 7.74 -4.76 12.5 -5.95 17.86 -4.17 35.12 7.14 39.29 25 .6 3.57 1.19 7.14 .6 11.31 l -1.79 15.48 15.48 -1.79 c 16.67 -2.38 32.15 8.93 35.72 25 2.38 10.12 -.6 20.83 -7.14 28.57 -5.95 -20.24 -22.62 -35.72 -44.05 -39.29 s -42.27 4.76 -54.77 21.43 c -3.57 -1.19 -7.14 -2.38 -10.72 -2.98 -2.98 -.6 -5.95 -.6 -8.93 -.6 -5.95 -19.64 -20.84 -34.53 -39.29 -39.29 -3.57 -10.72 -10.72 -20.24 -19.05 -26.79 .6 -6.55 2.98 -12.5 7.74 -17.86 l 9.53 -6.55 c 3.57 -2.98 7.74 -4.76 11.91 -5.36 13.68 -4.73 28.56 2.41 35.11 16.1 z m -169.65 -32.74 c 10.72 0 20.83 5.36 26.79 14.29 l 7.74 10.72 10.12 -8.93 c 6.55 -5.95 20.84 -10.72 36.31 -8.93 4.17 .6 8.33 1.19 13.1 2.98 -7.14 7.15 -11.31 16.07 -13.1 25.6 -22.03 -2.98 -43.46 8.93 -54.17 29.17 -.6 0 -.6 0 -1.19 0 -2.38 0 -4.76 0 -7.14 0 -4.17 -11.31 -11.91 -20.83 -22.03 -27.98 -9.52 -5.95 -19.64 -8.93 -30.36 -8.33 l 3.57 -8.93 c 5.35 -11.92 17.26 -19.66 30.36 -19.66 z m -49.41 23.82 l 5.95 5.95 c -.6 0 -1.19 0 -1.19 0 -14.29 3.57 -25.6 12.5 -32.74 25.6 -7.14 12.5 -8.93 27.98 -5.36 42.27 l 23.22 -5.95 c -2.38 -8.93 -1.19 -17.26 2.98 -25 4.17 -7.14 10.12 -11.91 17.86 -14.29 7.74 -1.79 15.48 -.6 22.03 4.17 5.36 3.57 9.52 8.93 12.5 14.88 -3.57 1.79 -6.55 4.17 -9.52 7.14 -8.93 8.33 -14.88 19.05 -16.67 30.95 -1.19 0 -1.79 0 -2.98 0 -20.84 0 -39.88 11.91 -50 29.77 -4.76 -1.19 -9.52 -1.79 -14.29 -1.79 -19.65 0 -37.5 10.12 -47.62 25.6 -5.95 -6.55 -13.1 -11.31 -21.43 -14.29 2.98 -8.33 5.95 -16.07 9.52 -23.22 l 3.57 -7.14 -4.76 -5.95 c -4.76 -5.95 -7.74 -13.1 -7.74 -20.83 0 -17.86 14.88 -32.74 32.74 -32.74 4.17 0 8.93 .6 12.5 2.38 l 17.86 7.74 -1.79 -19.65 c 0 -.6 0 -1.79 0 -2.38 0 -17.86 14.88 -32.74 32.74 -32.74 8.33 .59 16.66 3.56 22.62 9.52 z m -129.77 215.49 c 0 -.6 0 -1.79 0 -2.38 v -10.12 l -7.14 -2.98 c -10.12 -4.76 -16.67 -14.88 -16.67 -25.6 0 -13.1 9.52 -25 22.62 -27.38 7.14 .6 13.69 4.17 18.45 10.12 5.36 6.55 7.74 14.88 7.74 23.81 l 23.81 1.79 c 0 -4.17 0 -7.74 -.6 -11.91 0 -17.86 14.88 -32.74 32.74 -32.74 5.36 0 10.72 1.19 15.48 4.17 l 5.95 2.98 c -23.22 7.14 -40.48 28.57 -40.48 54.17 h 23.81 c 0 -17.86 14.88 -32.74 32.74 -32.74 9.52 0 18.45 4.17 24.41 11.31 l 4.17 4.76 6.55 -1.19 c 1.79 0 3.57 -.6 4.76 -.6 17.86 0 32.74 14.88 32.74 32.74 0 14.88 -10.12 27.38 -23.81 31.55 -5.36 -3.57 -11.31 -6.55 -17.26 -7.74 l -5.36 23.22 c 7.74 1.79 13.69 6.55 17.86 13.69 s 5.36 16.07 3.57 25 l 23.22 5.36 c 3.57 -14.29 1.19 -29.77 -5.95 -42.27 l -.6 -.6 c 20.24 -6.55 32.15 -23.22 32.15 -48.22 0 -30.95 -25.6 -56.55 -56.55 -56.55 -.6 0 -1.19 0 -1.79 0 -10.12 -9.52 -23.81 -14.88 -38.1 -14.88 -2.38 0 -4.76 0 -7.14 .6 l 2.38 -8.93 c 3.57 -14.29 16.67 -24.41 31.55 -24.41 s 27.98 10.12 31.55 25 l 3.57 13.69 13.1 -5.95 c 4.17 -1.79 8.93 -2.98 13.69 -2.98 17.86 0 32.74 14.88 32.74 32.74 0 3.57 -.6 7.74 -1.79 11.31 l -5.36 14.29 15.48 1.19 c 16.67 1.79 29.76 15.48 29.76 32.74 0 11.91 -6.55 23.22 -17.26 29.17 l -11.91 6.55 8.33 11.31 c 4.17 5.95 6.55 12.5 6.55 19.65 0 17.86 -14.88 32.74 -32.74 32.74 v 23.81 h 2.98 l -.6 .6 c 11.31 11.31 10.72 30.36 -1.19 42.86 -22.03 -20.24 -36.91 -47.62 -41.07 -62.51 l -5.95 -20.24 -14.29 14.88 c -15.48 16.07 -23.22 37.5 -22.62 59.53 .6 7.14 1.79 16.07 5.36 26.19 -36.31 -10.72 -76.2 -32.15 -95.84 -66.67 -17.86 -31.55 -17.86 -70.24 .6 -116.08 l 6.55 -16.67 h -17.86 c -16.07 0 -32.15 4.17 -47.62 12.5 .59 -4.75 .59 -8.92 .59 -13.68 z" fill="#fff"/></svg>