<svg enable-background="new 0 0 1310.4047852 1060.0053711" viewBox="0 0 1310.4 1060.01" xmlns="http://www.w3.org/2000/svg"><path d="m 1249.66 995.47 l -78.51 -77.24 c -93.78 -77.24 -82.4 -187.47 -83.57 -198.85 -1.26 -11.29 -1.26 -56.91 2.53 -72.09 s -1.27 -31.72 -1.27 -31.72 c 27.92 -114.02 117.81 -82.4 117.81 -82.4 36.68 3.79 38.04 -31.62 38.04 -31.62 25.29 -12.65 18.97 -39.21 18.97 -39.21 l -44.46 -46.89 c -17.71 -46.79 -68.29 -58.27 -68.29 -58.27 7.49 -46.79 -16.54 -75.98 -16.54 -75.98 -3.79 13.91 -56.91 69.95 -60.8 70.92 -62.07 15.18 -41.83 25.39 -81.04 53.21 s -122.87 62.07 -159.55 41.83 c -36.68 -20.33 -341.86 -46.89 -473.49 -46.89 -39.01 0 -69.46 8.07 -93 19.36 -21.6 -16.54 -49.42 -52.24 -69.95 -100.79 -30.26 -71.5 -34.54 -143.3 -11.28 -192.04 12.45 -26.27 26.66 -41.15 42.32 -44.26 23.25 -4.57 52.05 15.66 60.32 23.15 15.56 14.3 39.79 13.33 54.19 -2.24 s 13.52 -39.89 -2.04 -54.29 c -6.13 -5.64 -61.39 -54.67 -126.86 -42.13 -41.05 7.88 -73.84 37.07 -97.38 86.78 -32.98 69.27 -29.38 162.18 9.92 254.98 17.71 41.83 45.92 88.92 80.46 120.63 -9.05 12.65 -12.65 21.99 -12.65 21.99 -11.38 26.56 -43 86.1 -31.62 140.58 s -22.77 79.77 -29.09 86.1 c -6.42 6.42 -72.28 45.63 -72.28 45.63 l -54.49 192.54 c -8.85 36.77 40.57 58.27 40.57 58.27 17.71 -2.43 18.97 -60.71 18.97 -60.71 l 43.1 -101.47 162.08 -59.44 s 0 68.39 -2.53 81.04 -8.85 34.15 -8.85 34.15 c 6.32 44.27 115.28 146.9 115.28 146.9 h 82.3 v -26.56 c -6.32 -29.19 -48.16 -15.18 -48.16 -15.18 l -60.8 -92.42 c 64.6 -50.69 91.16 -135.52 91.16 -135.52 30.35 25.29 175.99 -21.6 175.99 -21.6 l 87.46 8.85 -25.29 203.81 c -7.59 49.42 3.79 67.13 3.79 67.13 h 39.21 c 27.92 0 46.89 3.79 46.89 -25.39 0 -29.09 -39.21 -24.03 -39.21 -24.03 l 96.12 -189.9 c 91.25 -55.74 149.43 25.29 149.43 25.29 l 5.16 29.19 c 35.41 51.85 230.47 184.84 230.47 184.84 h 96.22 v -29.19 c -16.56 -30.33 -55.76 -18.85 -55.76 -18.85 z" fill="#fff"/></svg>