<svg viewBox="0 0 300 300" xmlns="http://www.w3.org/2000/svg"><g fill="#fff"><path d="m 138.55 24.37 l .22 -.19 -.15 -.06 z"/><path d="m 139 24.27 l -.41 -.16 .18 .07 -138.77 119.82 v .07 s 71.54 5.18 105.39 -30.85 33.61 -88.95 33.61 -88.95 z" opacity=".4"/><path d="m 138.77 24.18 c -3.35 -1.37 -44.14 -16.83 -90.7 20 -47.69 37.82 -48.07 97.64 -48.07 99.82 z" opacity=".25"/><path d="m 138.65 24 v .1 l .15 .06 .23 .09 s .24 53 -33.61 89 c -8.28 8.82 -18.81 15.16 -30 19.72 .08 1.37 .17 2.73 .28 4.08 17.24 -6.16 34.69 -15.76 46.09 -30.74 21.91 -28.8 24.7 -64.74 24.63 -81.92 a 8.85 8.85 0 0 0 -7.77 -.39 z" opacity=".8"/><path d="m 223.89 275.37 a 50.95 50.95 0 0 1 4.6 -10.45 c 7.22 -12.39 18 -22.56 24.11 -35.55 6.51 -13.91 7 -29.82 6.72 -45.18 -.24 -12.91 -1 -25.9 -4.08 -38.43 -4.64 -18.6 -14.37 -35.46 -24 -52 -11.69 -20.14 -25.1 -41.77 -47 -49.56 -5.86 -2.08 -12.11 -3.06 -17.78 -5.61 -4.32 -1.95 -8.41 -5.13 -10.51 -9.25 a 24.63 24.63 0 0 1 -7.5 -3.65 15.97 15.97 0 0 0 -2 -1.26 c .07 17.18 -2.72 53.12 -24.63 81.92 -11.4 15 -28.85 24.58 -46.09 30.74 -.11 -1.35 -.2 -2.71 -.28 -4.08 4.55 83.99 71.98 127.55 71.98 127.55 a 80.17 80.17 0 0 0 16.65 7.35 l .7 .2 a 104.29 104.29 0 0 0 35.53 4.74 84 84 0 0 1 23.59 2.52 z"/><path d="m 211.16 33.93 a 105.58 105.58 0 0 0 -44.52 -3.78 26.16 26.16 0 0 1 -10.72 -.85 c 2.1 4.12 6.19 7.3 10.51 9.25 5.67 2.55 11.92 3.53 17.78 5.61 21.95 7.79 35.36 29.42 47 49.56 9.61 16.58 19.34 33.44 24 52 3.12 12.53 3.84 25.52 4.08 38.43 .28 15.36 -.21 31.27 -6.72 45.18 -6.08 13 -16.89 23.16 -24.11 35.55 a 50.95 50.95 0 0 0 -4.6 10.45 107.18 107.18 0 0 1 11.92 3.7 18.46 18.46 0 0 0 3.79 1 c 7.06 1.05 15.75 -3.57 18.81 -10 a 17.55 17.55 0 0 0 1.1 -2.91 c 3.13 -10.95 7.84 -21.45 15.33 -30 a 104.1 104.1 0 0 0 21.21 -38.51 c .11 -.35 .24 -.7 .35 -1.05 17.13 -56.01 -29.24 -146.56 -85.21 -163.63 z" opacity=".8"/></g></svg>