<svg enable-background="new 0 0 841.889 595.281" height="595.28" viewBox="0 0 841.89 595.28" width="841.89" xmlns="http://www.w3.org/2000/svg"><path d="m 522.06 166.78 c -35.13 -41.13 -98.14 -68.21 -183.42 -68.21 -135.96 0 -215.34 68.81 -215.34 153.69 0 72.89 51.08 133.9 158 149.7 9.57 17.86 53.84 94.76 210.07 94.76 199.22 0 227.21 -117.73 227.21 -165.56 0 -46.3 -27.16 -148.49 -196.52 -164.38 z m -365.19 118.12 c -8.67 0 -15.7 -12.14 -15.7 -27.12 s 7.02 -27.12 15.7 -27.12 c 8.67 0 15.7 12.14 15.7 27.12 s -7.03 27.12 -15.7 27.12 z m 334.51 188.07 c -65.94 0 -203.47 -20.26 -203.47 -141.82 0 -114.32 141.29 -141.82 203.47 -141.82 67.24 0 203.47 25.06 203.47 141.82 0 124 -137.54 141.82 -203.47 141.82 z m 70.26 -134.49 c -3.02 13.13 -28.9 46.61 -66.22 42.06 -32.87 -4.01 -66.22 -18.83 -66.22 -42.06 s 31.15 -33.53 62.18 -38.72 c 31.07 -3.46 75.47 16.09 70.26 38.72 z m -67.57 -44.88 s -8.51 -9.12 -8.51 -14.91 3.82 -9.23 8.51 -9.23 c 4.7 0 8.51 3.45 8.51 9.23 .01 5.79 -8.51 14.91 -8.51 14.91 z m -33.41 -25 c -1.3 -5.64 1.64 -9.86 6.22 -10.91 4.59 -1.06 9.07 1.44 10.37 7.08 s -4.94 16.45 -4.94 16.45 -10.35 -6.97 -11.65 -12.62 z m -48.43 5.52 c 3.01 -3.61 8.09 -4.34 12.54 -.63 s 6.02 16.08 6.02 16.08 -12.45 .71 -16.91 -3 c -4.45 -3.7 -4.66 -8.84 -1.65 -12.45 z m -28.41 41.99 c .99 -4.6 5.15 -7.6 10.81 -6.39 5.67 1.22 12.81 11.45 12.81 11.45 s -10.7 6.41 -16.36 5.2 c -5.67 -1.22 -8.24 -5.67 -7.26 -10.26 z m 19.17 41.4 s -3.47 11.98 -8.45 14.95 c -4.97 2.97 -9.88 1.45 -12.29 -2.58 -2.41 -4.04 -1.4 -9.07 3.57 -12.04 s 17.17 -.33 17.17 -.33 z m 91.08 28.14 s 8.51 9.13 8.51 14.92 -3.81 9.23 -8.51 9.23 -8.51 -3.44 -8.51 -9.23 8.51 -14.92 8.51 -14.92 z m -21.81 12.12 s 7.76 9.77 7.3 15.54 -4.53 8.9 -9.22 8.54 c -4.68 -.38 -8.21 -4.11 -7.75 -9.88 .47 -5.79 9.67 -14.2 9.67 -14.2 z m 108.51 -64.85 c 5.79 0 9.23 3.82 9.23 8.51 0 4.7 -3.44 8.51 -9.23 8.51 -5.8 0 -14.92 -8.51 -14.92 -8.51 s 9.12 -8.51 14.92 -8.51 z m 41.55 8.5 c 0 4.7 -3.45 8.51 -9.24 8.51 s -14.91 -8.51 -14.91 -8.51 9.12 -8.51 14.91 -8.51 9.24 3.82 9.24 8.51 z m -198.42 -1.79 s -9.12 8.51 -14.91 8.51 -9.24 -3.81 -9.24 -8.51 3.45 -8.51 9.24 -8.51 14.91 8.51 14.91 8.51 z m -35.66 1.79 s -9.12 8.51 -14.91 8.51 -9.24 -3.81 -9.24 -8.51 3.45 -8.51 9.24 -8.51 c 5.79 .01 14.91 8.51 14.91 8.51 z m 154.27 48.05 c 2.71 5.12 .95 9.95 -3.2 12.15 -4.16 2.2 -9.13 .94 -11.84 -4.18 -2.72 -5.12 .54 -17.17 .54 -17.17 s 11.79 4.08 14.5 9.2 z m -17.34 19.81 c 1.29 5.64 -1.66 9.85 -6.24 10.89 -4.58 1.05 -9.07 -1.46 -10.35 -7.11 -1.29 -5.64 4.98 -16.44 4.98 -16.44 s 10.31 7.01 11.61 12.66 z m -67.15 -28.73 s 2.41 12.24 -.64 17.16 -8.11 5.83 -12.11 3.35 -5.41 -7.42 -2.35 -12.33 c 3.05 -4.93 15.1 -8.18 15.1 -8.18 z m -26.19 5.1 s 2.41 12.25 -.64 17.16 c -3.07 4.92 -8.11 5.83 -12.11 3.35 -3.99 -2.48 -5.41 -7.42 -2.35 -12.34 3.05 -4.92 15.1 -8.17 15.1 -8.17 z m 103.81 -85.88 s -2.15 -12.29 1.01 -17.14 8.24 -5.66 12.17 -3.1 c 3.94 2.57 5.26 7.54 2.1 12.39 s -15.28 7.85 -15.28 7.85 z m -18.43 -14.47 s -4.87 -11.49 -2.88 -16.93 6.76 -7.37 11.17 -5.76 6.82 6.16 4.83 11.6 -13.12 11.09 -13.12 11.09 z m 45.8 11 s -3.37 -12.01 -.71 -17.16 c 2.66 -5.14 7.63 -6.45 11.8 -4.29 4.18 2.16 5.98 6.97 3.32 12.11 s -14.41 9.34 -14.41 9.34 z m -120.3 -4.95 c -2.76 -5.09 -1.05 -9.94 3.1 -12.17 4.13 -2.23 9.13 -1.02 11.88 4.07 2.76 5.1 -.39 17.17 -.39 17.17 s -11.84 -3.98 -14.59 -9.07 z m 128.19 90.98 c -2.87 3.73 -7.92 4.64 -12.51 1.12 -4.59 -3.53 -6.64 -15.84 -6.64 -15.84 s 12.42 -1.19 17.01 2.35 c 4.6 3.51 5.01 8.64 2.14 12.37 z m -1.81 13.43 c 3.71 4.45 2.98 9.54 -.64 12.54 -3.61 3.01 -8.74 2.79 -12.45 -1.66 -3.7 -4.45 -2.98 -16.91 -2.98 -16.91 s 12.38 1.57 16.07 6.03 z m 27.98 -22.57 c -2.86 3.73 -7.92 4.65 -12.52 1.12 -4.59 -3.54 -6.63 -15.84 -6.63 -15.84 s 12.42 -1.19 17.01 2.35 c 4.59 3.53 5 8.65 2.14 12.37 z m -186.05 -68.6 c 2.38 -4.05 7.29 -5.59 12.28 -2.65 s 8.54 14.9 8.54 14.9 -12.17 2.71 -17.17 -.22 c -5.01 -2.94 -6.04 -7.97 -3.65 -12.03 z m 147.6 13.02 s 4.65 -11.58 9.9 -14.03 c 5.24 -2.45 9.98 -.46 11.97 3.8 s .49 9.17 -4.76 11.63 c -5.24 2.45 -17.11 -1.4 -17.11 -1.4 z m 28.9 5.15 s 4.65 -11.57 9.9 -14.03 c 5.25 -2.45 9.98 -.46 11.98 3.79 1.99 4.26 .48 9.17 -4.76 11.63 -5.25 2.46 -17.12 -1.39 -17.12 -1.39 z m -153.53 41.59 s -3.74 11.9 -8.79 14.76 c -5.04 2.85 -9.92 1.23 -12.23 -2.86 -2.32 -4.1 -1.2 -9.11 3.85 -11.96 s 17.17 .06 17.17 .06 z" fill="#fff"/></svg>