<svg viewBox="0 0 300 300" xmlns="http://www.w3.org/2000/svg"><g fill="#fff"><path d="m 48.4 104.47 c -.8 -13 -12.52 -29.86 -28.32 -43.88 -3.42 21.24 -11.94 25.52 -16.69 34.74 a 28.71 28.71 0 0 0 -3.21 10.06 24.34 24.34 0 0 0 20.84 27.12 24.33 24.33 0 0 0 27.1 -20.83 34.1 34.1 0 0 0 .28 -7.21 z m -36.74 19 c -2.24 -1.75 -4 -4.83 -5.2 -8.52 a 35.72 35.72 0 0 1 -1.5 -7.3 43.57 43.57 0 0 0 3.06 6.1 c 4.53 7.32 11 11.88 20.07 12.3 -6.91 1.47 -11.8 1.07 -16.43 -2.54 z m 15.84 -4.34 a 3.81 3.81 0 0 1 -2.81 1.11 3.9 3.9 0 0 1 -2.86 -1.11 3.79 3.79 0 0 1 -1.12 -2.76 3.69 3.69 0 0 1 1.12 -2.74 3.93 3.93 0 0 1 2.86 -1.1 3.85 3.85 0 0 1 2.81 1.1 3.66 3.66 0 0 1 1.12 2.74 3.75 3.75 0 0 1 -1.12 2.8 z m 8.16 -21.92 a 9.56 9.56 0 0 1 -1.64 2.65 28.76 28.76 0 0 1 -2.48 2.47 18.74 18.74 0 0 0 -2.81 3 5.16 5.16 0 0 0 -.92 3.09 h -6.3 a 7.72 7.72 0 0 1 1.22 -4.46 23.02 23.02 0 0 1 3.55 -3.85 19.36 19.36 0 0 0 2.67 -2.76 4.35 4.35 0 0 0 .87 -2.66 4.09 4.09 0 0 0 -1.69 -3.39 7.31 7.31 0 0 0 -4.53 -1.3 c -3.58 0 -6.29 1.28 -8.11 3.83 l -4.83 -3.13 a 14 14 0 0 1 5.53 -4.51 18.82 18.82 0 0 1 8 -1.56 q 5.53 -.01 8.83 2.37 a 7.78 7.78 0 0 1 3.3 6.64 8.88 8.88 0 0 1 -.66 3.61 z"/><path d="m 165.96 163.82 s .83 1.31 2.14 3.59 a 97.96 97.96 0 0 0 4.92 9.09 c 4 8 8.84 21.94 11.58 32.91 -1.38 7.67 -3 13.33 -4.64 23.56 l -.15 .95 c -3.38 21.13 -16.91 36.43 -33 40.37 5.33 -14.08 36.14 -56.15 19.15 -110.47 z" opacity=".5"/><path d="m 174.19 81.43 c -.36 -2.26 -1.33 -3.93 -2.72 -4.29 a 1.77 1.77 0 0 1 -.56 -.68 c -1.06 -3.54 -3.9 -20.67 -8.4 -22.7 a 12.25 12.25 0 0 0 -6.23 -1 c -7.66 -.47 -17.24 6.48 -22.82 9 -2.85 1.31 -8 .72 -12.14 -2.18 a 2 2 0 0 0 -3 1.07 c -1.35 3.86 -4.78 13.17 -5.3 24.2 a 2.1 2.1 0 0 0 .1 .53 c -1.25 -3.89 -5.65 -18.17 -5.35 -25.19 .34 -7.71 4 -10.16 6.5 -10.93 a 3.78 3.78 0 0 0 2.65 -3 22.79 22.79 0 0 1 2.38 -7 c 6.25 -10.47 20.27 -18.49 31.8 -12.48 6.51 3.51 7 12.53 12.86 17 a 13.25 13.25 0 0 0 6.24 1.76 c 8.07 .26 12.67 9.8 6.82 18.58 -1.62 2.36 -2.07 11.17 -2.83 17.31 z" opacity=".25"/><path d="m 138.59 117.82 s 2 -4.69 2.69 -7.14 a 32.07 32.07 0 0 0 .93 -6.2 13.17 13.17 0 0 0 -1.87 .16 7.62 7.62 0 0 0 -2 .58 l -.21 .1 a 3 3 0 1 1 .27 -5.35 3.74 3.74 0 0 0 1.73 .5 5.66 5.66 0 0 0 1.74 -.16 1.46 1.46 0 0 0 .39 -.12 20.79 20.79 0 0 0 -.67 -4.43 3.81 3.81 0 0 0 -1.09 -2 c -1.06 -.85 -2.7 -.53 -3.81 -1.31 s -1.3 -2.4 -1.21 -3.78 c .21 -3.17 .93 -6.28 1.44 -9.42 1.33 -8.28 -.72 -13.79 -3.27 -17.59 l -.17 .08 c -2.85 1.31 -8 .72 -12.14 -2.18 a 2 2 0 0 0 -3 1.07 c -1.32 3.84 -4.71 12.95 -5.32 23.78 .54 2.84 2 10.32 2.77 12.59 2.65 7.88 7.34 13.27 12.92 18 2.56 2.18 .37 14.25 -.72 17.69 a 45.69 45.69 0 0 0 31.12 -15.37 c 1.47 -2.55 2 -5.08 3.78 -7.78 -12.52 10.46 -24.3 8.28 -24.3 8.28 z m -6.65 -35.82 c -.75 .08 -1.51 -1.21 -1.7 -2.9 s .25 -3.11 1 -3.2 1.51 1.21 1.7 2.89 -.26 3.09 -1 3.21 z m 1.54 -12.17 a .53 .53 0 0 1 -.32 .39 15.07 15.07 0 0 1 -2.52 .75 l -2.52 .57 a 40.55 40.55 0 0 1 -5.12 1 .59 .59 0 0 1 -.64 -.54 .6 .6 0 0 1 .26 -.54 15.12 15.12 0 0 1 5.05 -1.92 24.31 24.31 0 0 1 2.67 -.41 9.65 9.65 0 0 1 2.73 .09 .54 .54 0 0 1 .41 .58 z" opacity=".8"/><path d="m 288.2 220.19 c .47 -.58 -1.48 -1.32 -3 -2.16 -3.45 -1.92 -3.68 -3 -5 -2.9 -.56 .05 -.13 1 .8 2 a 14.87 14.87 0 0 0 3.85 2.69 c 1.17 .44 2.72 1.18 3.35 .37 z" opacity=".7"/><path d="m 282.02 178.58 l -1.7 -2.76 a 1.53 1.53 0 0 0 -2.1 -.51 1.55 1.55 0 0 0 .49 -2.11 l -1.7 -2.76 a 1.54 1.54 0 0 0 -2.1 -.51 1.55 1.55 0 0 0 .49 -2.11 l -1.71 -2.76 a 1.53 1.53 0 0 0 -2 -.54 1.53 1.53 0 0 0 .44 -2.07 l -1.7 -2.76 a 1.54 1.54 0 0 0 -2 -.57 l .37 -.23 a .93 .93 0 0 0 .33 -1.27 l -.02 -.03 -1.44 -2.35 a 3.38 3.38 0 0 0 -4.5 -1.06 c -1.31 .66 -2.85 1.26 -4.66 2.11 a 6.2 6.2 0 0 0 .77 3.26 c 1 1.81 2.54 3.6 2.27 5.69 -3.76 1.62 -8.51 -1.25 -9.39 -5.35 a 25.32 25.32 0 0 0 -4.82 4 c -1.31 1.23 -2 3 -1.07 4.49 l 1.45 2.35 a .94 .94 0 0 0 1.29 .32 h .01 l .38 -.23 a 1.53 1.53 0 0 0 -.38 2 l 1.7 2.77 a 1.53 1.53 0 0 0 2 .53 1.54 1.54 0 0 0 -.44 2.07 l 1.74 2.82 a 1.53 1.53 0 0 0 2.1 .51 1.55 1.55 0 0 0 -.48 2.11 l 1.7 2.76 a 1.54 1.54 0 0 0 2.1 .51 1.55 1.55 0 0 0 -.49 2.11 l 1.7 2.76 a 1.54 1.54 0 0 0 2.12 .5 l 18.77 -11.57 a 1.53 1.53 0 0 0 .48 -2.11 z" opacity=".5"/><ellipse cx="146.01" cy="78.06" opacity=".15" rx="1.35" ry="3.07" transform="matrix(.99343281 -.11441701 .11441701 .99343281 -7.97 17.22)"/><ellipse cx="131.58" cy="78.92" opacity=".15" rx="1.35" ry="3.07" transform="matrix(.99343281 -.11441701 .11441701 .99343281 -8.16 15.57)"/><path d="m 133.16 70.19 a 15.07 15.07 0 0 1 -2.52 .75 l -2.52 .57 a 40.55 40.55 0 0 1 -5.12 1 .59 .59 0 0 1 -.64 -.54 .6 .6 0 0 1 .26 -.54 15.12 15.12 0 0 1 5.05 -1.92 24.31 24.31 0 0 1 2.67 -.41 9.65 9.65 0 0 1 2.73 .09 .54 .54 0 0 1 .41 .64 .53 .53 0 0 1 -.32 .36 z" opacity=".15"/><path d="m 143.88 68.52 a 8.86 8.86 0 0 1 2.67 -.53 24.5 24.5 0 0 1 2.71 0 15.13 15.13 0 0 1 5.29 1.1 .59 .59 0 0 1 .29 .78 v .01 a .6 .6 0 0 1 -.49 .34 40.82 40.82 0 0 1 -5.21 -.15 l -2.58 -.16 a 14.92 14.92 0 0 1 -2.62 -.35 .54 .54 0 0 1 -.39 -.65 .53 .53 0 0 1 .33 -.39 z" opacity=".15"/><path d="m 144.96 98.46 a 5.01 5.01 0 0 1 -1.46 1.21 6.8 6.8 0 0 1 -1.65 .64 5.66 5.66 0 0 1 -1.74 .16 3.74 3.74 0 0 1 -1.73 -.5 3 3 0 1 0 -.27 5.35 l .21 -.1 a 7.62 7.62 0 0 1 2 -.58 13.53 13.53 0 0 1 2 -.17 20.53 20.53 0 0 1 2.06 .07 12.68 12.68 0 0 1 2.22 .4 l .43 .13 a 4.18 4.18 0 1 0 -2.1 -6.61 z" opacity=".15"/><path d="m 174.21 81.26 a 1.21 1.21 0 0 0 0 .17 c -.36 -2.26 -1.33 -3.93 -2.72 -4.29 a 1.77 1.77 0 0 1 -.56 -.68 c -1.06 -3.54 -3.9 -20.67 -8.4 -22.7 a 12.25 12.25 0 0 0 -6.23 -1 c -7.59 -.47 -17 6.34 -22.65 9 2.55 3.8 4.6 9.31 3.27 17.59 -.51 3.14 -1.23 6.25 -1.44 9.42 -.09 1.38 .07 3 1.21 3.78 s 2.75 .46 3.81 1.31 a 3.81 3.81 0 0 1 1.09 2 20.79 20.79 0 0 1 .67 4.43 7.28 7.28 0 0 0 1.26 -.52 5.01 5.01 0 0 0 1.46 -1.21 4.18 4.18 0 1 1 2.1 6.61 l -.43 -.13 a 12.68 12.68 0 0 0 -2.22 -.4 20.53 20.53 0 0 0 -2.06 -.07 h -.14 a 32.07 32.07 0 0 1 -.93 6.2 c -.68 2.45 -2.69 7.14 -2.69 7.14 s 11.78 2.13 24.32 -8.25 a 29.33 29.33 0 0 0 -2.41 4.93 c 1 -2.14 2.16 -4.31 3.51 -6.64 a 39.51 39.51 0 0 0 5.76 -16.07 4.32 4.32 0 0 1 1.12 -1.22 7.74 7.74 0 0 0 3.11 -4.66 14.43 14.43 0 0 0 .19 -4.74 z m -27.84 -.16 c -.75 .09 -1.51 -1.21 -1.7 -2.89 s .25 -3.12 1 -3.2 1.51 1.21 1.7 2.89 -.27 3.1 -1 3.2 z m 8.47 -11.24 a .6 .6 0 0 1 -.49 .34 40.82 40.82 0 0 1 -5.21 -.15 l -2.58 -.16 a 14.92 14.92 0 0 1 -2.62 -.35 .54 .54 0 0 1 -.39 -.65 .53 .53 0 0 1 .33 -.37 8.86 8.86 0 0 1 2.67 -.53 24.5 24.5 0 0 1 2.71 0 15.13 15.13 0 0 1 5.29 1.1 .59 .59 0 0 1 .29 .77 z"/><path d="m 202.15 152.76 c -6 -10.34 -13.91 -12.5 -20.72 -14.14 a 15.47 15.47 0 0 0 -2.42 -.39 v -.07 l -12.37 -1.55 c -3.36 -.34 -8.7 -4.87 -8.52 -9.5 .16 -4.29 .45 -7.93 2 -11.62 l -.42 .89 c -.16 .32 -.33 .63 -.51 .94 q -.84 1 -1.71 1.86 c -.47 .48 -1 .94 -1.44 1.39 l -.09 .1 a 46 46 0 0 1 -27.83 12 c -5.38 0 -12.22 -2.14 -16.19 -3 -5.63 -1.16 -12 -.34 -18.66 5.12 -14.72 12 -23 36.28 -23 36.28 s 2.35 12.85 22.75 24.39 a 11.63 11.63 0 0 0 8.47 1.3 c -3.92 28.24 -6.55 56.58 -2.28 62.24 3 4 14.18 9.41 27.11 14.15 a 34.81 34.81 0 0 0 20.44 1.19 c 5.39 -14.08 36.19 -56.16 19.2 -110.47 0 0 .83 1.31 2.14 3.59 a 97.97 97.97 0 0 0 4.92 9.04 c 4 8 8.84 21.94 11.58 32.91 22.47 -2 35.31 -24.64 35.31 -24.64 s -7.52 -14.42 -17.76 -32.01 z"/><path d="m 6.46 115 a 35.72 35.72 0 0 1 -1.5 -7.3 43.49 43.49 0 0 0 3.06 6.05 c 4.53 7.32 11 11.88 20.07 12.3 -6.93 1.47 -11.82 1.07 -16.45 -2.54 -2.23 -1.75 -3.99 -4.83 -5.18 -8.51 z" opacity=".8"/><path d="m 22.73 103.94 a 23.02 23.02 0 0 1 3.55 -3.85 19.36 19.36 0 0 0 2.67 -2.76 4.35 4.35 0 0 0 .87 -2.66 4.09 4.09 0 0 0 -1.69 -3.39 7.3 7.3 0 0 0 -4.53 -1.28 c -3.58 0 -6.29 1.28 -8.11 3.83 l -4.83 -3.13 a 14 14 0 0 1 5.53 -4.51 18.82 18.82 0 0 1 8 -1.56 q 5.53 -.01 8.83 2.37 a 7.78 7.78 0 0 1 3.3 6.64 8.86 8.86 0 0 1 -.67 3.58 9.57 9.57 0 0 1 -1.63 2.64 28.76 28.76 0 0 1 -2.48 2.47 19.24 19.24 0 0 0 -2.81 3 5.16 5.16 0 0 0 -.92 3.09 h -6.3 a 7.72 7.72 0 0 1 1.22 -4.48 z m -.9 15.23 a 3.79 3.79 0 0 1 -1.12 -2.76 3.69 3.69 0 0 1 1.12 -2.74 3.93 3.93 0 0 1 2.86 -1.1 3.85 3.85 0 0 1 2.81 1.1 3.66 3.66 0 0 1 1.12 2.74 3.75 3.75 0 0 1 -1.12 2.76 3.82 3.82 0 0 1 -2.81 1.12 3.9 3.9 0 0 1 -2.86 -1.12 z" opacity=".15"/><path d="m 99.85 197 a 11.62 11.62 0 0 1 -6.83 -1.54 c -9.56 -5.4 -15.18 -11.06 -18.46 -15.56 l -.9 1.67 c -1.08 2 -2.16 4 -3.34 5.85 -.71 1.15 -1.45 2.28 -2.2 3.4 -.44 -.64 -.88 -1.28 -1.3 -1.94 -1.21 -1.87 -6 -10.59 -6 -10.59 l -.92 -1.9 c -4.66 -9.59 -8.48 -17.1 -11.46 -32.19 .13 -7.5 -4.54 -8.66 -9.52 -7.72 l -4.47 2.52 s -4.62 3.13 -22.46 -.16 c -15.64 -2.89 -7.72 13.2 6.5 17.44 8 2.37 14.09 2.62 18.52 2.12 -.27 14.44 -1.38 38.1 18 62.17 a 53.31 53.31 0 0 0 5 4.56 10 10 0 0 0 9.24 3.62 h .36 a 10.41 10.41 0 0 0 5.37 -2 26.98 26.98 0 0 0 4.76 -3.51 c 4.92 -4 9.08 -9.37 13 -14.84 a 101.7 101.7 0 0 0 5.53 -8.56 c .53 -1.01 1.06 -1.93 1.58 -2.84 z" opacity=".8"/><path d="m 290.62 193.27 l -7.85 -12.73 a .51 .51 0 0 0 -.7 -.17 l -19.86 12.24 a .5 .5 0 0 0 -.17 .69 l .01 .01 7.84 12.69 a .51 .51 0 0 0 .7 .18 l .01 -.01 19.85 -12.17 a .52 .52 0 0 0 .18 -.71 z m -11.79 4.73 a 8.68 8.68 0 0 0 -2.48 -2 c -.95 -.48 -1.74 -.61 -2.52 -1 a 4.33 4.33 0 0 1 -1.24 -1 3.72 3.72 0 0 1 -.85 -2.73 .34 .34 0 0 1 0 .1 3.67 3.67 0 0 1 .69 -1.92 3.42 3.42 0 0 1 .45 -.49 l .08 -.08 a 3.68 3.68 0 0 1 5.16 .39 4.92 4.92 0 0 1 .64 .89 c 1 1.68 .91 4.84 .07 7.84 z"/><path d="m 276.77 189.19 a .48 .48 0 0 0 -.57 .75 c 1.74 1.82 1.9 4.7 1.85 5.88 a .08 .08 0 0 0 .16 0 c .81 -4.27 -.25 -6 -1.44 -6.65" fill-rule="evenodd"/><path d="m 272.58 194 a 4.33 4.33 0 0 0 1.24 1 c .78 .44 1.57 .57 2.52 1 a 2.21 2.21 0 0 0 -.39 -1 9.28 9.28 0 0 0 -1.67 -1.29 5 5 0 0 1 -1.35 -3.73 5.03 5.03 0 0 0 0 -1.15 3.69 3.69 0 0 0 -.35 5.17 z" opacity=".8"/><path d="m 278.77 190.12 a 4.92 4.92 0 0 0 -.64 -.89 3.68 3.68 0 0 0 -5.16 -.39 l -.08 .08 a 5.03 5.03 0 0 1 0 1.15 5 5 0 0 0 1.35 3.73 9.28 9.28 0 0 1 1.67 1.29 2.19 2.19 0 0 1 .39 1 8.68 8.68 0 0 1 2.48 2 c .89 -3.09 .98 -6.25 -.01 -7.97 z m -.57 5.72 a .08 .08 0 1 1 -.16 0 c .05 -1.18 -.11 -4.06 -1.85 -5.88 a .48 .48 0 0 1 .57 -.75 c 1.2 .64 2.26 2.36 1.45 6.63 z" opacity=".7"/><path d="m 276.77 189.19 a .48 .48 0 0 0 -.57 .75 c 1.74 1.82 1.9 4.7 1.85 5.88 a .08 .08 0 0 0 .16 0 c .81 -4.27 -.25 -6 -1.44 -6.65" fill-rule="evenodd"/><path d="m 266.52 153.26 c -16.91 -5 -21.27 -4.57 -24.69 .58 a 5.15 5.15 0 0 0 -.46 .94 v .05 a 41.73 41.73 0 0 0 -1.64 7.73 c -2.81 11.44 -6.21 18.17 -10.24 26.44 l -.92 1.9 s -4.79 8.72 -6 10.59 c -.42 .66 -.86 1.3 -1.3 1.94 -.75 -1.12 -1.49 -2.25 -2.2 -3.4 -1.18 -1.9 -2.26 -3.87 -3.34 -5.85 l -1.14 -2.11 c -5.11 6.06 -13.81 14.08 -25.55 16.63 .69 1.21 1.39 2.43 2.14 3.69 a 101.7 101.7 0 0 0 5.53 8.56 c 3.91 5.47 8.07 10.8 13 14.84 a 26.75 26.75 0 0 0 4.77 3.51 10.34 10.34 0 0 0 5.36 2 h .37 a 10 10 0 0 0 9.23 -3.62 52.02 52.02 0 0 0 5 -4.56 c 16.27 -20.23 18.08 -40.17 18.08 -54.59 l -.2 -.33 a 1.53 1.53 0 0 1 .19 -1.85 v -.11 a 1.53 1.53 0 0 1 -1.79 -.64 l -1.7 -2.77 a 1.53 1.53 0 0 1 .38 -2 l -.38 .23 a .94 .94 0 0 1 -1 0 .86 .86 0 0 1 -.28 -.29 l -1.45 -2.35 c -.94 -1.53 -.24 -3.26 1.07 -4.49 a 25.32 25.32 0 0 1 4.82 -4 8.54 8.54 0 0 0 .25 .86 v .05 a 6.74 6.74 0 0 0 .34 .78 c 1.63 3.15 5.56 5 8.77 3.66 .27 -2.09 -1.25 -3.88 -2.27 -5.69 a 6.21 6.21 0 0 1 -.77 -3.26 c 1.81 -.85 3.35 -1.45 4.66 -2.11 a 3.38 3.38 0 0 1 4.5 1.06 l 1.44 2.35 a .93 .93 0 0 1 -.28 1.28 l -.03 .02 -.37 .23 a 1.54 1.54 0 0 1 2 .57 l 1.7 2.76 a 1.53 1.53 0 0 1 -.44 2.07 1.53 1.53 0 0 1 2 .54 l 1.71 2.76 a 1.55 1.55 0 0 1 .09 1.43 c 9.7 -.13 2.75 -12.54 -8.96 -16.03 z" opacity=".8"/><path d="m 292.4 227.79 c -.16 -.26 1.42 -1.51 3.51 -2.81 s 3.93 -2.13 4.09 -1.87 l -2 -3.21 c -.21 -.34 -2.08 .43 -4.18 1.72 s -3.63 2.62 -3.41 3 z"/><ellipse cx="296.21" cy="225.44" opacity=".8" rx="4.46" ry=".54" transform="matrix(.85136092 -.5245804 .5245804 .85136092 -74.24 188.89)"/><path d="m 297.02 204.38 a 2 2 0 0 0 -1 -.71 1.44 1.44 0 0 1 .89 .51 29.97 29.97 0 0 0 -2.67 -5.69 l -2.16 -3.49 a 1.76 1.76 0 0 0 -2.42 -.59 l -.02 .01 -18.28 11.26 a 1.78 1.78 0 0 0 -.58 2.44 l 1.14 1.88 a .34 .34 0 0 1 0 -.09 .49 .49 0 0 1 0 -.29 1.07 1.07 0 0 0 .1 .52 l .92 1.5 c 3.63 5.89 10.12 10.57 17 11.55 l .64 1 a 13.47 13.47 0 0 1 3.29 -2.58 14.41 14.41 0 0 1 3.69 -1.76 l -.62 -1 a 21 21 0 0 0 .08 -14.47 z m -8.77 15.81 c -.63 .78 -2.2 .07 -3.34 -.41 a 14.87 14.87 0 0 1 -3.85 -2.69 c -.93 -1 -1.36 -1.91 -.8 -2 1.31 -.12 1.54 1 5 2.9 1.46 .87 3.41 1.62 2.94 2.2 z" opacity=".5"/></g></svg>