<svg viewBox="0 0 300 300" xmlns="http://www.w3.org/2000/svg"><g fill="#fff"><path d="m 92.9 41.88 a 27.3 27.3 0 0 1 7.53 1.42 27.3 27.3 0 0 0 -7.53 -1.42 z"/><path d="m 110.27 194 a .27 .27 0 0 0 0 -.09 .27 .27 0 0 1 0 .09 z"/><path d="m 109.71 189.57 v -.27 a .62 .62 0 0 0 0 .27 z"/><path d="m 69.44 62.13 a 6.99 6.99 0 0 1 2.58 .74 c 1.29 .64 2.59 1.46 4 1.39 -1.43 .07 -2.73 -.75 -4 -1.39 a 6.99 6.99 0 0 0 -2.58 -.74 z"/><path d="m 109.06 185.24 v -.29 a .26 .26 0 0 0 0 .29 z"/><path d="m 66.12 79.2 c -.1 -.18 -.22 -.36 -.33 -.54 .11 .18 .23 .36 .33 .54 z"/><path d="m 62.93 68.91 a 12.83 12.83 0 0 0 0 2.4 12.83 12.83 0 0 1 0 -2.4 c .28 -3.94 3 -7 6.51 -6.78 -3.55 -.24 -6.23 2.87 -6.51 6.78 z"/><path d="m 59.45 94.2 l -.09 -.1 z"/><path d="m 92.7 115.49 h -.25 l .47 .09 h .34 c -.17 -.04 -.36 -.05 -.56 -.09 z"/><path d="m 43.1 200.2 l -1.09 .35 z"/><path d="m 45.61 199.3 l -1.1 .4 z"/><path d="m 40.61 201 l -1.08 .29 z"/><path d="m 35.64 202.17 l -1 .18 z"/><path d="m 38.12 201.62 c -.35 .09 -.69 .17 -1 .24 .31 -.07 .65 -.15 1 -.24 z"/><path d="m 48.11 198.27 l -1.07 .45 z"/><path d="m 111.69 218 c -2.83 .36 -5.7 .66 -8.7 1 3.01 -.33 5.86 -.63 8.7 -1 z"/><path d="m 59.23 201.33 c -.46 -1.3 -.87 -2.62 -1.26 -3.94 .39 1.32 .8 2.61 1.26 3.94 z"/><path d="m 50.62 197.09 l -1 .48 z"/><path d="m 53.11 195.77 l -.85 .46 z"/><path d="m 33.18 202.6 l -.89 .14 z"/><path d="m 66.24 79.56 a .42 .42 0 0 1 0 .1 .42 .42 0 0 0 0 -.1 z"/><path d="m 78.3 63.48 a 5.25 5.25 0 0 1 -1.66 .7 5.25 5.25 0 0 0 1.66 -.7 z"/><path d="m 66.26 80.85 a .48 .48 0 0 1 0 .12 .48 .48 0 0 0 0 -.12 z"/><path d="m 84.45 51.13 c -.22 1.17 -.45 2.33 -.73 3.49 .28 -1.16 .51 -2.32 .73 -3.49 z"/><path d="m 56.84 193.43 l .18 .64 z"/><path d="m 55.55 194.32 c .38 -.24 .72 -.49 1.07 -.75 -.35 .25 -.69 .51 -1.07 .75 z"/><path d="m 38.06 120.73 a 12.75 12.75 0 0 1 1.7 .09 30.6 30.6 0 0 1 5.8 3.93 40.4 40.4 0 0 0 8.59 4.58 l 1.16 .36 a 60.11 60.11 0 0 0 13.22 1.18 22.7 22.7 0 0 0 4.12 -.56 c .07 -.82 .11 -1.65 .1 -2.47 a 28.54 28.54 0 0 0 -3 -11.1 65.66 65.66 0 0 0 -14 -20 c -.78 -.76 -1.58 -1.5 -2.34 -2.28 -.68 -.21 -1.33 -.44 -1.94 -.67 3.47 13.07 -2 19.15 -14.43 26.52 l -.31 .19 a 5.01 5.01 0 0 1 1.33 .23 z" opacity=".9"/><path d="m 79.22 111.73 c -5.66 -2.58 -8.42 -6 -13.12 -10.71 -2.25 -2.27 -4.51 -4.42 -6.65 -6.82 l -.12 -.08 a 4.93 4.93 0 0 1 -3.9 1 l -.72 -.2 c -.44 -.13 -.86 -.25 -1.28 -.39 .76 .78 1.56 1.52 2.34 2.28 a 65.66 65.66 0 0 1 14 20 28.54 28.54 0 0 1 3 11.1 20.41 20.41 0 0 1 -.1 2.47 c 5.6 -1.36 6 -4.57 6 -4.57 a 25.81 25.81 0 0 1 6.94 -11.81 39.86 39.86 0 0 1 -6.39 -2.27 z" opacity=".8"/><path d="m 100.43 43.3 a 27.3 27.3 0 0 0 -7.53 -1.42 c -3.54 -.07 -6.53 1.07 -7.48 4.6 -.42 1.53 -.69 3.09 -1 4.65 -.22 1.17 -.45 2.33 -.73 3.49 -.09 .38 -.17 .77 -.27 1.15 s -.23 .76 -.36 1.14 a 16.4 16.4 0 0 1 -.94 2.21 10.63 10.63 0 0 1 -3.85 4.36 5.25 5.25 0 0 1 -1.66 .7 4.18 4.18 0 0 1 -.6 .08 c -1.43 .07 -2.73 -.75 -4 -1.39 a 6.99 6.99 0 0 0 -2.58 -.74 c -3.55 -.24 -6.23 2.84 -6.51 6.78 a 12.83 12.83 0 0 0 0 2.4 15.47 15.47 0 0 0 2.49 6.8 c .12 .17 .22 .36 .33 .54 s .23 .36 .33 .54 a 1.09 1.09 0 0 1 .12 .36 .42 .42 0 0 1 0 .1 2.72 2.72 0 0 1 0 .51 v .68 a .48 .48 0 0 1 0 .12 4.49 4.49 0 0 1 -.11 .76 v .14 a 3.69 3.69 0 0 1 -.19 .87 c -.08 .32 -.17 .65 -.27 1 v .13 c -.21 .69 -.47 1.43 -.77 2.18 -1.23 3.09 -3.16 6.38 -5.49 8 l .09 .1 c 2.14 2.4 4.4 4.55 6.65 6.82 4.7 4.75 7.46 8.13 13.12 10.71 a 39.86 39.86 0 0 0 6.39 2.33 c 2 .53 4.24 1 6.84 1.49 h .25 a 3.68 3.68 0 0 1 .58 .08 c 1.49 -1.84 3.29 -3.55 4.43 -5.61 a 11.89 11.89 0 0 0 1 -2.3 16.58 16.58 0 0 0 .63 -3.59 12.65 12.65 0 0 1 -2.44 -.36 c -.55 -.15 -1.13 -.34 -1.68 -.55 a 16.37 16.37 0 0 1 -1.67 -.85 10.57 10.57 0 0 1 -2.85 -2.68 7.99 7.99 0 0 1 -1.37 -3.06 5.25 5.25 0 0 1 0 -2.36 l .34 -1.4 a 2.32 2.32 0 0 1 2.79 -1.68 2.52 2.52 0 0 1 .63 .26 14.06 14.06 0 0 1 2.4 2 8.77 8.77 0 0 0 1.32 1.12 4.25 4.25 0 0 0 1 .52 4.36 4.36 0 0 1 .58 .2 4.27 4.27 0 0 1 .51 .14 c -.12 -1.17 -.24 -2.35 -.28 -3.53 a 8.43 8.43 0 0 1 .91 -4.74 c 2.38 -3.85 4.83 .36 7.66 -1 .94 -.46 1 -2.12 1.07 -3 .46 -11.8 -3.42 -27.95 -7.83 -39.8 z m 1.91 29.57 c -.17 1.82 -1 3.24 -1.77 3.16 s -1.32 -1.62 -1.14 -3.44 1 -3.24 1.77 -3.16 1.32 1.62 1.14 3.44 z m 2.92 -9.47 a 1 1 0 0 1 -.45 .39 8.73 8.73 0 0 1 -2.66 .58 c -.87 .06 -1.73 .16 -2.6 .19 s -1.73 0 -2.6 .08 a 10.59 10.59 0 0 1 -2.69 -.28 1 1 0 0 1 -.73 -1.21 l .01 -.03 a 1 1 0 0 1 .43 -.59 7.64 7.64 0 0 1 2.66 -1 21.65 21.65 0 0 1 2.78 -.33 20.14 20.14 0 0 1 2.8 .12 6.63 6.63 0 0 1 2.74 .83 .92 .92 0 0 1 .31 1.25 z"/><path d="m 175 107.6 l -1 .28 5.22 19.7 a 11.11 11.11 0 0 1 1 -.6 z" opacity=".15"/><path d="m 161.74 100.74 l -6 -22.8 a 3.87 3.87 0 0 1 2.74 -4.74 h .01 l 20.51 -5.44 -21.59 5.71 a 3.88 3.88 0 0 0 -2.76 4.74 l 6 22.81 a 10 10 0 0 0 12.19 7.17 l .16 -.04 1 -.26 a 10 10 0 0 1 -12.24 -7.08 z" opacity=".15"/><path d="m 174 107.88 l 1.03 -.28 z"/><path d="m 146.18 204.81 l -2.3 .75 a 6.21 6.21 0 0 0 -4.25 5.32 c 1.75 -.7 3.56 -1.46 5.47 -2.31 .32 -1.09 .66 -2.41 1.08 -3.76 z"/><path d="m 113.12 51 l .1 .17 z"/><path d="m 108.19 46.55 l .28 .16 z"/><path d="m 110.94 48.46 l .21 .2 z"/><path d="m 112.81 50.57 l .07 .11 z"/><path d="m 109.71 47.5 l .27 .2 z"/><path d="m 113.4 51.52 l .09 .17 z"/><path d="m 107.31 46.08 a 48.43 48.43 0 0 0 -6.88 -2.78 48.43 48.43 0 0 1 6.88 2.78 z"/><path d="m 113.9 52.47 l .08 .16 z"/><path d="m 111.46 49 l .18 .18 z"/><path d="m 109 47 l .29 .19 z"/><path d="m 111.94 49.46 l .14 .15 z"/><path d="m 110.36 48 l .24 .2 z"/><path d="m 113.66 52 l .09 .17 z"/><path d="m 114.63 53.94 c -.16 -.3 -.31 -.61 -.46 -.92 -.06 -.13 -.12 -.26 -.19 -.39 l -.08 -.16 -.15 -.31 -.09 -.17 c 0 -.1 -.11 -.2 -.17 -.3 l -.09 -.17 -.18 -.31 -.1 -.17 -.24 -.36 -.07 -.11 c -.11 -.16 -.22 -.32 -.35 -.48 v -.06 l -.34 -.42 -.14 -.15 c -.1 -.11 -.19 -.22 -.3 -.33 l -.18 -.18 -.31 -.29 -.21 -.2 -.34 -.28 -.24 -.2 c -.12 -.1 -.25 -.19 -.38 -.28 l -.27 -.2 -.43 -.29 -.32 -.21 -.52 -.31 -.28 -.16 -.85 -.45 a 48.43 48.43 0 0 0 -6.88 -2.78 c 4.41 11.85 8.29 28 7.7 39.79 0 .87 -.13 2.53 -1.07 3 -2.83 1.37 -5.28 -2.84 -7.66 1 a 8.43 8.43 0 0 0 -.91 4.74 34.73 34.73 0 0 0 .28 3.53 l .19 .06 a 37.94 37.94 0 0 0 3.81 .72 11.87 11.87 0 0 1 2.26 .4 9.3 9.3 0 0 1 2.49 .92 l .17 .1 a 2.52 2.52 0 0 1 1 3.42 2.57 2.57 0 0 1 -.52 .65 9.57 9.57 0 0 1 -2.47 1.54 12.79 12.79 0 0 1 -2.71 .73 21.96 21.96 0 0 1 -3.67 .17 16.58 16.58 0 0 1 -.63 3.59 11.89 11.89 0 0 1 -1 2.3 c -1.14 2.06 -2.94 3.77 -4.43 5.61 13.81 2.37 19.27 -17.82 22.17 -43.45 0 -.45 .09 -.89 .13 -1.34 l -.21 -.14 -.41 -.27 c -.71 -.49 -1.39 -1 -2.1 -1.54 a 9.98 9.98 0 0 1 -2 -1.86 1 1 0 0 1 .88 -1.62 7.57 7.57 0 0 1 2.73 .83 c .37 .2 .74 .4 1.11 .62 l .21 .12 a 50.56 50.56 0 0 0 -1.18 -12.98 z m -3.08 21.33 c .14 -1.4 .74 -2.48 1.36 -2.42 s 1 1.24 .87 2.63 -.78 2.52 -1.36 2.42 -1 -1.24 -.87 -2.63 z" opacity=".8"/><path d="m 112.42 77.9 c .62 .06 1.22 -1 1.36 -2.42 s -.26 -2.57 -.87 -2.63 -1.22 1 -1.36 2.42 .26 2.57 .87 2.63 z" opacity=".15"/><path d="m 101.2 69.43 c -.8 -.08 -1.6 1.34 -1.77 3.16 s .33 3.41 1.14 3.41 1.6 -1.34 1.77 -3.16 -.34 -3.33 -1.14 -3.41 z" opacity=".15"/><path d="m 94.24 64.36 a 10.59 10.59 0 0 0 2.69 .28 c .87 0 1.74 0 2.6 -.08 s 1.73 -.13 2.6 -.19 a 8.73 8.73 0 0 0 2.66 -.58 1 1 0 0 0 .45 -.39 .92 .92 0 0 0 -.33 -1.26 6.63 6.63 0 0 0 -2.74 -.83 20.14 20.14 0 0 0 -2.8 -.12 21.65 21.65 0 0 0 -2.78 .33 7.64 7.64 0 0 0 -2.66 1 1.02 1.02 0 0 0 .26 1.83 z" opacity=".15"/><path d="m 115.6 66.81 c -.37 -.22 -.74 -.42 -1.11 -.62 a 7.57 7.57 0 0 0 -2.73 -.83 1 1 0 0 0 -.88 1.62 9.98 9.98 0 0 0 2 1.86 c .71 .52 1.39 1.05 2.1 1.54 l .41 .27 .21 .14 c .12 -1.32 .21 -2.61 .25 -3.87 z" opacity=".15"/><path d="m 192.65 163.87 a 2.64 2.64 0 0 1 -3.22 -1.87 l -1 -3.88 -6.43 -24.05 -.37 -1.38 c -.31 .35 -.62 .67 -.89 1 l .53 2 6 22.69 1 3.95 a 2.64 2.64 0 0 0 3.22 1.87 l 2.09 -.55 z" opacity=".15"/><path d="m 194.13 163.48 l -.46 .12 z" opacity=".15"/><path d="m 197.06 160 l -1.47 -5.55 -6.94 -26.24 -6 -22.61 1 -.27 a 10 10 0 0 0 7.15 -12.2 l -.02 -.06 -6 -22.81 a 3.87 3.87 0 0 0 -4.73 -2.75 l -1 .27 -20.6 5.42 a 3.87 3.87 0 0 0 -2.75 4.73 v .01 l 6 22.8 a 10 10 0 0 0 12.19 7.17 l .11 -.03 1 -.28 5.16 19.4 a 6.69 6.69 0 0 1 2.62 -.84 c 4.53 -.35 1.32 3.87 -1.11 6.54 l .37 1.38 6.36 24.05 1 3.88 a 2.64 2.64 0 0 0 3.22 1.87 l 1.48 -.39 1.06 -.28 a 2.64 2.64 0 0 0 1.9 -3.21 z m -27.49 -59.62 l -1.07 .28 -.62 .16 a 1.11 1.11 0 0 1 -1.35 -.78 l -5.7 -21.55 a 1.09 1.09 0 0 1 .76 -1.34 l .02 -.01 1.06 -.28 .63 -.17 a 1.1 1.1 0 0 1 1.34 .79 l 5.71 21.52 a 1.12 1.12 0 0 1 -.78 1.36 z m 7.25 -1.93 l -.62 .17 -1.06 .28 a 1.1 1.1 0 0 1 -1.35 -.78 l -.2 -.76 -.1 -.37 -5.41 -20.42 a 1.11 1.11 0 0 1 .79 -1.35 l .62 -.17 1.06 -.28 a 1.11 1.11 0 0 1 1.35 .78 l 5.4 20.4 v .2 l .26 1 a 1.1 1.1 0 0 1 -.74 1.28 z m 5 -2.47 l -5.7 -21.55 a 1.1 1.1 0 0 1 .78 -1.35 l .62 -.16 1.07 -.28 a 1.1 1.1 0 0 1 1.35 .78 l 5.73 21.58 a 1.11 1.11 0 0 1 -.78 1.35 l -.63 .16 -1.06 .29 a 1.11 1.11 0 0 1 -1.35 -.8 z"/><path d="m 179 137.39 a 2.38 2.38 0 0 1 .68 -2.6 c .1 -.1 .54 -.53 1.13 -1.14 .27 -.29 .58 -.61 .89 -1 2.43 -2.67 5.64 -6.89 1.11 -6.54 a 6.68 6.68 0 0 0 -2.62 .84 11.11 11.11 0 0 0 -1 .6 c -4 2.69 -7.51 8.24 -8.31 8.81 -3.38 2.43 -2.89 8.43 -3 12.08 -15.17 12.63 -25.13 16.34 -37.74 21.38 l -2.4 1 s -11.59 3.91 -14.28 4.6 c -2 .51 -4 .94 -6 1.32 .27 1.3 .53 2.64 .78 4 v .2 c .24 1.3 .47 2.63 .69 4 v .29 c .21 1.34 .42 2.69 .61 4.06 v .27 c .2 1.41 .38 2.84 .55 4.29 a .27 .27 0 0 1 0 .09 c .72 6 1.2 12.28 1.36 18.57 a 124.45 124.45 0 0 0 45.44 -28.05 c 4 -4 7.76 -8.24 11.5 -12.49 1.44 -1.63 2.87 -3.28 4.42 -4.8 2.95 -2.89 9.32 -6.81 13.41 -8.8 a 4.74 4.74 0 0 0 .92 -.06 l -6 -22.69 z" opacity=".8"/><path d="m 201.92 129.75 c -1.73 -2.68 -4.9 -4.56 -8.06 -4.12 a 11.54 11.54 0 0 0 -5.21 2.56 l 6.94 26.24 a 19.15 19.15 0 0 0 8.32 -15.5 15.35 15.35 0 0 0 -1.99 -9.18 z" opacity=".8"/><path d="m 107.69 97.56 l -.17 -.1 a 9.3 9.3 0 0 0 -2.49 -.92 11.87 11.87 0 0 0 -2.26 -.4 38.02 38.02 0 0 1 -3.77 -.72 l -.19 -.06 a 4.27 4.27 0 0 0 -.51 -.14 4.36 4.36 0 0 0 -.58 -.2 4.25 4.25 0 0 1 -1 -.52 8.77 8.77 0 0 1 -1.32 -1.12 14.06 14.06 0 0 0 -2.4 -2 2.52 2.52 0 0 0 -.63 -.26 2.32 2.32 0 0 0 -2.79 1.68 l -.34 1.4 a 5.25 5.25 0 0 0 0 2.36 7.99 7.99 0 0 0 1.37 3.06 10.57 10.57 0 0 0 2.85 2.68 16.37 16.37 0 0 0 1.67 .85 c .55 .21 1.13 .4 1.68 .55 a 12.65 12.65 0 0 0 2.44 .36 21.96 21.96 0 0 0 3.67 -.17 12.79 12.79 0 0 0 2.71 -.73 9.57 9.57 0 0 0 2.47 -1.54 2.57 2.57 0 0 0 .52 -.65 2.52 2.52 0 0 0 -.93 -3.41 z" opacity=".15"/><path d="m 44.51 199.7 l -1.41 .5 z"/><path d="m 39.53 201.26 l -1.41 .36 z"/><path d="m 47 198.72 l -1.43 .58 z"/><path d="m 42 200.55 l -1.4 .42 z"/><path d="m 49.61 197.57 c -.5 .24 -1 .48 -1.5 .7 .5 -.22 1 -.46 1.5 -.7 z"/><path d="m 55.55 194.32 c -.81 .51 -1.62 1 -2.44 1.45 .82 -.45 1.63 -.94 2.44 -1.45 z"/><path d="m 52.26 196.23 c -.55 .29 -1.09 .59 -1.64 .86 .55 -.27 1.09 -.57 1.64 -.86 z"/><path d="m 37.08 201.86 l -1.44 .31 z"/><path d="m 34.67 202.35 c -.5 .09 -1 .18 -1.49 .25 .49 -.07 .99 -.16 1.49 -.25 z"/><path d="m 32.29 202.74 l -1.58 .21 z"/><path d="m 27.67 203.24 c -.75 .06 -1.5 .1 -2.23 .13 .73 -.03 1.48 -.07 2.23 -.13 z"/><path d="m 17.46 203.25 a 71.89 71.89 0 0 0 8 .11 71.89 71.89 0 0 1 -8 -.11 z"/><path d="m 56.66 193.55 l .18 -.12 z"/><path d="m 30 203 l -1.77 .16 z"/><path d="m 107.51 176.77 c .27 1.3 .53 2.64 .78 4 -.29 -1.36 -.51 -2.7 -.78 -4 z"/><path d="m 111.63 212.52 c -.16 -6.29 -.64 -12.55 -1.36 -18.57 .73 6.05 1.2 12.28 1.36 18.57 z"/><path d="m 110.26 193.86 c -.17 -1.45 -.35 -2.88 -.55 -4.29 .2 1.43 .38 2.84 .55 4.29 z"/><path d="m 109.67 189.3 c -.19 -1.37 -.4 -2.72 -.61 -4.06 .21 1.34 .42 2.69 .61 4.06 z"/><path d="m 109 185 c -.22 -1.35 -.45 -2.68 -.69 -4 .25 1.27 .48 2.6 .69 4 z"/><path d="m 58 197.39 c -.33 -1.1 -.64 -2.21 -.95 -3.32 .28 1.11 .59 2.22 .95 3.32 z"/><path d="m 16.86 203.22 c 1 3 2 6 3.16 8.94 -1.17 -2.94 -2.2 -5.93 -3.16 -8.94 z" opacity=".4"/><path d="m 187.71 205.68 a 10.44 10.44 0 0 0 -.16 -1.22 8.73 8.73 0 0 0 -5.16 -6.55 11.28 11.28 0 0 0 -5.35 -.35 c -1.75 .22 -3.51 .17 -5.26 .46 a 51.08 51.08 0 0 0 -10.63 3.42 6.86 6.86 0 0 0 -1.87 1.16 .61 .61 0 0 0 -.07 -.14 c -.26 -.55 -.54 -1.11 -.85 -1.64 a 8.16 8.16 0 0 0 -1.59 -2 5.71 5.71 0 0 0 -5.58 -1 c -2.69 1 -4.07 4.08 -5 7.07 -.42 1.35 -.76 2.67 -1.08 3.76 -1.91 .85 -3.72 1.61 -5.47 2.31 a 103.99 103.99 0 0 1 -27.95 7.04 c -2.84 .36 -5.7 .66 -8.7 1 l -2.57 .28 s -12.21 .65 -15 .58 a 113.61 113.61 0 0 1 -16.42 -1.64 l -2.58 -.05 c -.21 -.5 -.43 -1 -.67 -1.49 a 111.3 111.3 0 0 1 -6.49 -15.35 c -.46 -1.3 -.87 -2.62 -1.26 -3.94 -.33 -1.1 -.64 -2.21 -.95 -3.32 l -.18 -.64 -.18 .12 c -.35 .26 -.69 .51 -1.07 .75 -.81 .51 -1.62 1 -2.44 1.45 l -.85 .46 c -.55 .29 -1.09 .59 -1.64 .86 l -1 .48 c -.5 .24 -1 .48 -1.5 .7 l -1.07 .45 -1.43 .58 -1.1 .4 -1.41 .5 -1.09 .35 -1.49 .47 -1.07 .29 -1.41 .36 c -.35 .09 -.69 .17 -1 .24 l -1.44 .31 -1 .18 c -.5 .09 -1 .18 -1.49 .25 l -.89 .14 -1.58 .21 -.72 .02 -1.77 .16 h -.51 c -.75 .06 -1.5 .1 -2.23 .13 a 71.89 71.89 0 0 1 -8 -.11 h -.61 c 1 3 2 6 3.16 8.94 .39 1 .79 2 1.22 2.91 3.3 7.77 7 15.47 12.19 22.06 a 33.09 33.09 0 0 0 9.55 9.33 19.92 19.92 0 0 0 6.84 2.63 20.93 20.93 0 0 0 7.35 3.87 l 8.64 2.53 c 1.14 0 2.29 -.07 3.43 -.12 h 1 l 2.67 -.16 .86 -.06 c 1.08 -.08 2.15 -.18 3.23 -.28 l 1.2 -.13 2.15 -.24 1.4 -.18 2.4 -.34 2.15 -.35 1.58 -.27 1.85 -.35 1.21 -.25 c 1.35 -.27 2.69 -.57 4 -.89 l .46 -.11 2.23 -.56 .73 -.19 c 2.38 -.65 4.75 -1.36 7.09 -2.14 l .45 -.15 2.38 -.83 a 116.19 116.19 0 0 0 16.58 -7.5 c 5 -2.74 9.69 -5.84 14.44 -8.92 1.82 -1.18 3.64 -2.39 5.55 -3.43 3.87 -2.13 9 -2.91 13.3 -3.58 l 1.1 -.15 a 13.72 13.72 0 0 0 6.37 1.17 25.26 25.26 0 0 0 9.89 -1.84 21.47 21.47 0 0 0 9.38 -8.48 15.91 15.91 0 0 0 2.8 -9.44 z" opacity=".8"/><path d="m 33.43 237.13 c -5.2 -6.59 -8.89 -14.29 -12.19 -22.06 -.43 -1 -.83 -1.93 -1.22 -2.91 -1.17 -2.94 -2.2 -5.93 -3.16 -8.94 -1.82 -.14 -3.51 -.34 -5.07 -.56 -.27 6 -.34 12 -.16 17.91 1.74 56.23 19.62 66.33 43.19 65.73 l -11.82 -39.88 a 33.08 33.08 0 0 1 -9.57 -9.29 z" opacity=".5"/><path d="m 21.24 215.07 c -.43 -1 -.83 -1.93 -1.22 -2.91 .39 .98 .79 1.95 1.22 2.91 z"/><path d="m 21.24 215.07 c -.43 -1 -.83 -1.93 -1.22 -2.91 .39 .98 .79 1.95 1.22 2.91 z" opacity=".4"/><path d="m 105.54 248.79 c -2.34 .78 -4.71 1.49 -7.09 2.14 l -.73 .19 -2.23 .56 -.46 .11 c -1.34 .32 -2.68 .62 -4 .89 l -1.21 .25 -1.85 .35 -1.58 .27 -2.15 .35 -2.4 .34 -1.4 .18 -2.15 .24 -1.2 .13 c -1.08 .1 -2.15 .2 -3.23 .28 l -.86 .06 -2.67 .16 h -1 c -1.14 0 -2.29 .09 -3.43 .12 l -8.64 -2.53 a 20.93 20.93 0 0 1 -7.35 -3.87 19.91 19.91 0 0 1 -6.91 -2.59 l 11.82 39.88 a 172.94 172.94 0 0 0 20 -2.12 c 18.79 -2.76 28.9 -17.49 33.56 -36.37 l -2.38 .83 z"/><path d="m 17.46 203.25 a 71.65 71.65 0 0 0 8 .12 c .73 0 1.48 -.07 2.23 -.13 h .51 l 1.8 -.24 .76 -.09 1.58 -.21 .89 -.14 c .49 -.07 1 -.16 1.49 -.25 l 1 -.18 1.44 -.31 c .35 -.07 .69 -.15 1 -.24 l 1.41 -.36 1.03 -.22 1.41 -.42 1.09 -.35 1.41 -.5 1.1 -.4 1.43 -.58 1.07 -.45 c .5 -.22 1 -.46 1.5 -.7 l 1 -.48 c .55 -.27 1.09 -.57 1.64 -.86 l .85 -.46 c .82 -.45 1.63 -.94 2.44 -1.45 .38 -.24 .72 -.5 1.07 -.75 l .18 -.12 .18 .64 c .31 1.11 .62 2.22 .95 3.32 .39 1.32 .8 2.64 1.26 3.94 a 111.3 111.3 0 0 0 6.49 15.35 c .24 .5 .46 1 .67 1.49 l 2.58 .05 a 113.6 113.6 0 0 0 16.45 1.64 c 2.79 .07 15 -.58 15 -.58 l 2.63 -.33 c 3 -.33 5.87 -.63 8.7 -1 q 0 -2.74 -.06 -5.49 c -.16 -6.29 -.64 -12.55 -1.36 -18.57 a .27 .27 0 0 0 0 -.09 c -.17 -1.45 -.35 -2.88 -.55 -4.29 v -.27 c -.19 -1.37 -.4 -2.72 -.61 -4.06 v -.29 c -.22 -1.35 -.45 -2.68 -.69 -4 v -.2 c -.25 -1.36 -.51 -2.7 -.78 -4 a 141.85 141.85 0 0 0 -5.12 -18.86 c -2.75 -7.61 -13.65 -30.32 -19.49 -31.42 -3.7 -.7 -4.16 -.73 -4.21 -.73 s -.38 3.21 -6 4.57 a 22.7 22.7 0 0 1 -4.12 .56 60.11 60.11 0 0 1 -13.22 -1.18 l -1.16 -.36 a 40.36 40.36 0 0 1 -8.59 -4.58 30.6 30.6 0 0 0 -5.8 -3.93 s -.74 0 -1.7 -.09 a 4.99 4.99 0 0 0 -1.31 -.16 5.25 5.25 0 0 0 -1 .09 l -2.95 -.11 a 27.52 27.52 0 0 0 -19.98 8.83 c -6.25 6.82 -13.3 14.94 -13 28.83 .26 13.65 .82 25.63 1.24 33.31 .31 5.6 .55 8.91 .55 8.91 a 59.51 59.51 0 0 0 10 2.24 c 1.56 .22 3.25 .42 5.07 .56"/><path d="m 65.62 83.85 c -.21 .69 -.47 1.43 -.77 2.18 .3 -.75 .56 -1.49 .77 -2.18 z"/><path d="m 66.3 80.26 v .59 a 5.8 5.8 0 0 1 0 -.59 z"/><path d="m 65.92 82.74 c -.08 .32 -.17 .65 -.27 1 .1 -.35 .19 -.68 .27 -1 z"/><path d="m 66.11 81.87 a 3.69 3.69 0 0 1 -.19 .87 c .08 -.31 .14 -.59 .19 -.87 z"/><path d="m 66.25 81 a 4.49 4.49 0 0 1 -.11 .76 c .05 -.3 .08 -.56 .11 -.76 z"/><path d="m 66.12 79.2 a 1.09 1.09 0 0 1 .12 .36 1.09 1.09 0 0 0 -.12 -.36 z"/><path d="m 66.26 79.66 a 2.72 2.72 0 0 1 0 .51 2.72 2.72 0 0 0 0 -.51 z"/><path d="m 85.41 46.48 c -.41 1.53 -.68 3.09 -1 4.65 a 43.75 43.75 0 0 1 1 -4.65 c 1 -3.53 4 -4.67 7.49 -4.6 -3.54 -.07 -6.53 1.12 -7.49 4.6 z"/><path d="m 65.79 78.65 c -.11 -.18 -.21 -.37 -.33 -.54 a 15.46 15.46 0 0 1 -2.46 -6.8 15.47 15.47 0 0 0 2.49 6.8 c .09 .17 .19 .36 .3 .54 z"/><path d="m 83.09 56.91 q .19 -.57 .36 -1.14 c .1 -.38 .18 -.77 .27 -1.15 -.09 .38 -.17 .77 -.27 1.15 s -.23 .76 -.36 1.14 z"/><path d="m 78.3 63.48 a 10.63 10.63 0 0 0 3.85 -4.36 10.63 10.63 0 0 1 -3.85 4.36 z"/><path d="m 76 64.26 a 4.18 4.18 0 0 0 .6 -.08 4.18 4.18 0 0 1 -.6 .08 z"/><path d="m 59.36 94.1 c 2.33 -1.67 4.26 -5 5.49 -8 -1.23 3.04 -3.16 6.33 -5.49 8 z"/><path d="m 127.87 28.65 c -23.87 -14.65 -39.52 -13.06 -53.21 -2.65 -7.52 5.72 -8.81 .7 -17.93 3.84 -5.58 1.85 -11.35 2.37 -13.81 8.56 -.74 10.47 -1 9.06 -8.57 16.47 -4.62 5.53 -3.52 14.59 2.33 19.26 2.32 1.87 5.38 3.19 6.56 5.87 1.14 4.42 .66 10 5.52 12.71 a 23.01 23.01 0 0 0 2.73 1.2 c .61 .23 1.26 .46 1.94 .67 .42 .14 .84 .26 1.28 .39 l .72 .2 a 4.93 4.93 0 0 0 3.9 -1 c 2.33 -1.67 4.26 -5 5.49 -8 .3 -.75 .56 -1.49 .77 -2.18 v -.13 c .1 -.33 .19 -.66 .27 -1 .08 -.31 .14 -.59 .19 -.87 v -.14 a 5.55 5.55 0 0 1 .11 -.76 .48 .48 0 0 0 0 -.12 v -.68 a 2.72 2.72 0 0 0 0 -.51 .42 .42 0 0 0 0 -.1 1.09 1.09 0 0 0 -.12 -.36 c -.1 -.18 -.22 -.36 -.33 -.54 s -.21 -.37 -.33 -.54 a 15.47 15.47 0 0 1 -2.38 -6.93 12.83 12.83 0 0 1 0 -2.4 c .28 -3.94 3 -7 6.51 -6.78 a 6.99 6.99 0 0 1 2.58 .74 c 1.29 .64 2.59 1.46 4 1.39 a 4.18 4.18 0 0 0 .6 -.08 5.25 5.25 0 0 0 1.66 -.7 10.63 10.63 0 0 0 3.85 -4.36 16.4 16.4 0 0 0 .94 -2.21 q .19 -.57 .36 -1.14 c .1 -.38 .18 -.77 .27 -1.15 .28 -1.16 .51 -2.32 .73 -3.49 a 43.75 43.75 0 0 1 1 -4.65 c 1 -3.53 4 -4.67 7.49 -4.6 a 27.3 27.3 0 0 1 7.53 1.42 48.43 48.43 0 0 1 6.88 2.78 l .85 .45 .28 .16 .47 .31 .29 .19 .43 .29 .27 .2 c .13 .09 .26 .18 .38 .28 l .24 .2 .34 .28 .21 .2 .31 .29 .18 .18 c .11 .11 .2 .22 .3 .33 l .14 .15 .34 .42 v .06 c .13 .16 .24 .32 .35 .48 l .07 .11 .24 .36 .1 .17 .18 .31 .09 .17 c .06 .1 .12 .2 .17 .3 l .09 .17 .15 .31 .08 .16 c .07 .13 .13 .26 .19 .39 .15 .31 .3 .62 .46 .92 a 18.05 18.05 0 0 1 3.09 -1.89 c 13.47 -4.45 20.01 -17.33 10.18 -23.38 z" opacity=".3"/><path d="m 109.28 47.21 l .43 .29 z"/><path d="m 112.46 50.09 c .13 .16 .24 .32 .35 .48 -.11 -.16 -.22 -.32 -.35 -.48 z"/><path d="m 113.75 52.16 l .15 .31 z"/><path d="m 112.08 49.61 l .34 .42 z"/><path d="m 114 52.63 c .07 .13 .13 .26 .19 .39 a 2.33 2.33 0 0 1 -.19 -.39 z"/><path d="m 113.49 51.69 c .06 .1 .12 .2 .17 .3 -.05 -.1 -.11 -.2 -.17 -.3 z"/><path d="m 107.34 46.1 l .85 .45 z"/><path d="m 112.88 50.68 l .24 .36 z"/><path d="m 113.22 51.21 l .18 .31 z"/><path d="m 110 47.7 c .13 .09 .26 .18 .38 .28 -.14 -.1 -.27 -.19 -.38 -.28 z"/><path d="m 108.47 46.71 l .53 .29 z"/><path d="m 111.15 48.66 l .31 .29 z"/><path d="m 110.6 48.18 l .34 .28 z"/><path d="m 111.64 49.13 c .11 .11 .2 .22 .3 .33 -.1 -.11 -.19 -.22 -.3 -.33 z"/><path d="m 193.46 187.2 a 17 17 0 0 0 6.25 4.39 c 1.46 -3.56 14.36 -10.22 32.61 -16.66 a 31.13 31.13 0 0 1 -2 -11.7 c -20 7.57 -36.74 17.04 -36.86 23.97 z" opacity=".25"/><path d="m 296.55 157.34 a 3.08 3.08 0 0 0 -.06 -.84 c .19 -8.08 -17.46 -7.14 -38.2 -2.05 a 5.08 5.08 0 0 1 -.05 .87 5.08 5.08 0 0 1 .94 .14 2.61 2.61 0 0 1 .64 .16 l .3 .11 .36 .13 .33 .14 .33 .16 .31 .15 .44 .27 .35 .23 .37 .28 a 3.54 3.54 0 0 1 .3 .26 l .23 .2 .36 .37 .08 .09 a 6.43 6.43 0 0 1 .46 .58 7.66 7.66 0 0 1 .73 1.12 8.2 8.2 0 0 1 .94 3.82 v .05 a 12.33 12.33 0 0 1 0 1.36 c 14.36 -3.61 25.29 -5.39 28.77 -4.59 a 8.12 8.12 0 0 0 .77 -5.37 17.41 17.41 0 0 1 1.3 2.36 z" opacity=".25"/><path d="m 233.2 176.75 c -.33 -.6 -.62 -1.21 -.88 -1.82 -18.25 6.44 -31.15 13.1 -32.61 16.66 10.33 4.45 27.49 2.74 44.46 -2.09 a 47.8 47.8 0 0 1 -10.97 -12.75 z" opacity=".5"/><path d="m 265.81 165 a 4.31 4.31 0 0 1 -1.61 3.58 l -.21 .16 a 8.25 8.25 0 0 1 -2.66 2.22 8.83 8.83 0 0 1 -1.55 .62 c .33 1.57 .69 3.14 1.11 4.68 a 60.46 60.46 0 0 0 2 6.06 l .21 .52 c 15.39 -6.58 28.06 -15 31.51 -22.43 -3.51 -.85 -14.44 .93 -28.8 4.59 z" opacity=".5"/><path d="m 279.53 117.41 a 9.76 9.76 0 0 0 -3.86 -5.32 30.07 30.07 0 0 0 -5.48 -2.94 c -.92 -.43 -1.85 -.86 -2.74 -1.36 a 11.22 11.22 0 0 1 -2.31 -1.57 l -.36 -.36 -.32 -.37 a 3.8 3.8 0 0 1 -.35 -.54 s -.18 -.36 -.23 -.44 a 4.83 4.83 0 0 1 0 -3.35 c .85 -2.65 3.14 -4.7 5.31 -6.3 4.8 -3.55 10.09 -7.15 10.48 -13.69 .32 -5.45 -3.17 -10.69 -7.66 -13.51 -5.41 -3.41 -12.46 -3 -18.22 -.75 s -12.05 6 -14.74 11.75 c -1.46 3.11 -1.6 6.52 -2.46 9.8 a 30.67 30.67 0 0 1 -2.65 6.69 h .36 a 8.45 8.45 0 0 1 .88 .13 l .59 .16 .29 .1 a 2.17 2.17 0 0 1 .33 .12 l .31 .13 .3 .21 .28 .15 .42 .25 .31 .21 c .12 .09 .24 .17 .36 .27 l .27 .23 .22 .2 .33 .34 a .6 .6 0 0 1 .08 .08 7.86 7.86 0 0 1 1.11 1.58 7.73 7.73 0 0 1 .87 3.56 c .07 1.43 .27 3.17 -1.46 4.6 l -.2 .15 a 7.57 7.57 0 0 1 -2.48 2.06 7.68 7.68 0 0 1 -11.06 -5 30.87 30.87 0 0 1 -4 2.84 c -5.21 3 -12 3.84 -16 8.72 a 10.78 10.78 0 0 0 -2.64 8.8 10 10 0 0 0 5.39 6.63 c 2.73 1.44 5.72 1.91 8.64 2.78 a 11.28 11.28 0 0 1 3.55 1.6 3.85 3.85 0 0 1 .3 .27 6.01 6.01 0 0 1 1.52 -2 5.11 5.11 0 0 1 3.69 -1.35 h .59 a 4.74 4.74 0 0 1 .66 .1 6.72 6.72 0 0 1 .72 .22 h .12 a 6.91 6.91 0 0 1 .73 .34 h .07 a 5.82 5.82 0 0 1 .66 .44 h .06 a 6.15 6.15 0 0 1 .65 .6 5.67 5.67 0 0 1 .85 1.2 5.85 5.85 0 0 1 .66 2.7 c .06 1.08 .21 2.39 -1.09 3.47 l -.15 .11 a 5.75 5.75 0 0 1 -4.3 2.21 37.06 37.06 0 0 1 1.75 3.72 27.88 27.88 0 0 1 1.68 9.71 c 0 1.7 0 3.4 .07 5.1 a 31.13 31.13 0 0 0 2 11.7 c .26 .61 .55 1.22 .88 1.82 a 47.81 47.81 0 0 0 11 12.75 158.28 158.28 0 0 0 18.9 -6.71 l -.21 -.52 c -.76 -2 -1.41 -4 -2 -6.06 -.42 -1.54 -.78 -3.11 -1.11 -4.68 a 8.33 8.33 0 0 1 -8.62 -2.6 8.62 8.62 0 0 1 -1 -1.52 8.3 8.3 0 0 1 2 -10.22 7.29 7.29 0 0 1 5.26 -1.92 h .81 a 5.08 5.08 0 0 1 .05 -.87 28.15 28.15 0 0 1 .64 -4.4 11.46 11.46 0 0 1 1.7 -4.33 c .09 -.14 .18 -.28 .28 -.42 v -.05 l .06 -.08 c .22 -.24 .44 -.47 .67 -.69 a 33.4 33.4 0 0 1 3.7 -2.89 52.11 52.11 0 0 0 7.57 -5.9 24.09 24.09 0 0 0 5.17 -8.46 c 1.28 -2.62 2.37 -6.21 1.55 -9.43 z" opacity=".2"/><path d="m 296.55 157.34 a 17.38 17.38 0 0 0 -1.2 -2.35 8.12 8.12 0 0 1 -.77 5.37 c -3.45 7.44 -16.12 15.85 -31.51 22.43 a 158.34 158.34 0 0 1 -18.9 6.71 c -17 4.83 -34.13 6.54 -44.46 2.09 a 17.77 17.77 0 0 1 -5.09 -3.22 l -.35 -.35 c -.27 -.27 -.56 -.53 -.81 -.82 .07 .24 -35.1 13.62 -35.1 13.62 .31 .53 .59 1.09 .85 1.64 a .59 .59 0 0 1 .07 .14 6.86 6.86 0 0 1 1.87 -1.16 51.11 51.11 0 0 1 10.63 -3.44 c 1.75 -.29 3.51 -.24 5.26 -.46 a 11.28 11.28 0 0 1 5.35 .35 8.73 8.73 0 0 1 5.16 6.55 l 14.56 -6.08 c 10 8.16 24.93 9.73 40 7.09 a 93.45 93.45 0 0 0 12.37 -3.06 c 26.46 -8.46 49.34 -28.1 42.07 -45.05 z"/><path d="m 260.26 166.39 c -.67 -2.08 -1.17 -4.86 -2 -7 -1.08 -2.7 -2.74 -4.36 -6.05 -2.2 a 8.3 8.3 0 0 0 -2 10.22 8.62 8.62 0 0 0 1 1.52 8.33 8.33 0 0 0 8.62 2.6 8.83 8.83 0 0 0 1.55 -.62 8.25 8.25 0 0 0 2.66 -2.22 c -2.04 1.49 -3.04 .05 -3.78 -2.3 z"/><path d="m 265.63 165 a 7.84 7.84 0 0 0 .13 -1.45 9 9 0 0 0 -1.67 -4.94 c -.15 -.2 -.3 -.4 -.46 -.58 l -.08 -.09 -.36 -.37 -.23 -.2 a 3.54 3.54 0 0 0 -.3 -.26 l -.37 -.28 -.35 -.23 -.44 -.27 -.31 -.15 -.33 -.16 -.33 -.14 -.36 -.13 -.3 -.11 -.66 -.17 c -.31 -.06 -.63 -.11 -.94 -.14 h -.81 a 8.41 8.41 0 0 0 -3.8 .94 9.18 9.18 0 0 0 -1.45 1 c 3.31 -2.16 5 -.5 6.05 2.2 .86 2.14 1.36 4.92 2 7 .76 2.35 1.75 3.79 3.73 2.3 l .21 -.16 a 4.31 4.31 0 0 0 1.61 -3.58 z" opacity=".8"/><path d="m 233 96.81 c -1 -1 -2.34 -1.2 -4.35 .11 a 7.72 7.72 0 0 0 8.52 12.77 7.57 7.57 0 0 0 2.48 -2.06 c -4.22 3.15 -3.65 -7.7 -6.65 -10.82 z"/><path d="m 239.29 97.69 a .6 .6 0 0 0 -.08 -.08 l -.33 -.34 -.22 -.2 -.27 -.23 c -.12 -.1 -.24 -.18 -.36 -.27 l -.31 -.21 -.42 -.25 -.3 -.11 -.31 -.14 -.31 -.13 a 2.17 2.17 0 0 0 -.33 -.12 l -.29 -.1 a 6.08 6.08 0 0 0 -.61 -.16 8.45 8.45 0 0 0 -.88 -.13 h -.77 a 7.63 7.63 0 0 0 -3.5 .78 7.42 7.42 0 0 0 -1.36 .9 c 2 -1.31 3.37 -1.1 4.35 -.11 3.05 3.12 2.46 14 6.65 10.82 a 7.7 7.7 0 0 0 1.65 -4.8 8.23 8.23 0 0 0 -2 -5.12 z" opacity=".8"/><path d="m 222.78 134.42 a 6.01 6.01 0 0 0 -1.52 2 5.81 5.81 0 0 0 5.51 8.32 5.75 5.75 0 0 0 4.3 -2.21 c -4.17 3.09 -2.07 -12.19 -8.29 -8.11 z"/><path d="m 232.31 138.91 a 6.16 6.16 0 0 0 -1.51 -3.9 5.2 5.2 0 0 0 -.65 -.6 h -.06 c -.22 -.16 -.44 -.31 -.66 -.44 h -.07 a 5.26 5.26 0 0 0 -.73 -.34 h -.12 a 6.72 6.72 0 0 0 -.72 -.22 5.08 5.08 0 0 0 -.66 -.1 h -.59 a 5.92 5.92 0 0 0 -2.66 .66 6.72 6.72 0 0 0 -1 .68 c 6.24 -4.08 4.12 11.2 8.29 8.07 l .15 -.11 a 4.39 4.39 0 0 0 .99 -3.7 z" opacity=".8"/></g></svg>