<svg enable-background="new 0 0 1008.8168945 933.3291016" viewBox="0 0 1008.82 933.33" xmlns="http://www.w3.org/2000/svg"><g fill="#fff"><path d="m 944.06 448.01 c 23.89 38.66 50.59 72.95 54.94 119.16 6.12 65.03 4.4 129.42 -13.02 192.51 -6.07 22.01 -11.52 51.35 -39.15 53.1 -31.98 2.03 -37.61 -29.83 -44.09 -52.6 -24.25 -85.24 -24.71 -171.37 -1.17 -256.96 5.73 -20.84 12.66 -42.73 42.49 -55.21 z"/><path d="m 794.07 598.2 c 22.3 26.82 18.27 49.63 13.35 70.49 -20.71 87.61 -61.72 164.85 -124.53 229.69 -16.14 16.65 -35.67 38.78 -60.3 26.3 -25.69 -13.01 -16.31 -42.44 -11.7 -64.24 15.44 -73.04 47.35 -139.92 94.67 -196.82 22.39 -26.95 57.61 -43.24 88.51 -65.42 z"/><path d="m 318.09 41.68 c 8.28 53.69 20.24 103.75 -2.31 153.7 -16.29 36.07 -31.99 72.5 -50.37 107.5 -9.42 17.93 -22.96 34.17 -36.8 49.18 -12.64 13.72 -27.88 30.27 -48.78 20.8 -20.16 -9.14 -21.35 -31.72 -19.82 -50.21 8.04 -97.71 41.13 -185.85 106.35 -260.29 14.67 -16.74 15.8 -15.75 51.73 -20.68 z"/><path d="m 654.97 219.21 c 46.17 -5.76 88.15 -24.39 135.23 -10.64 56.75 16.58 112.77 34.56 162.27 67.59 16.8 11.2 32.34 25.76 44.76 41.66 12.4 15.88 6.76 31.34 -12.37 38.39 -12.08 4.45 -25.9 6.19 -38.86 5.87 -93.89 -2.25 -178.85 -32.35 -255.73 -85.45 -16.83 -11.63 -32.65 -25.52 -35.3 -57.42 z"/><path d="m 390.23 300.58 c 25.78 14.71 29.18 35.59 30.17 55.75 4.61 94.53 -16.73 183.25 -64.67 264.9 -10.83 18.44 -24.35 42.23 -49.77 34.91 -24.83 -7.15 -24.21 -33.96 -25.65 -55.81 -4.72 -71.48 10.5 -139.83 34.83 -206.35 14.61 -39.95 49.8 -62.64 75.09 -93.4 z"/><path d="m 567.89 772.98 c -31.63 32.06 -58.02 64.19 -97.73 77.98 -62.62 21.76 -127.25 34.98 -194.09 31.04 -15.83 -.93 -32.28 -4.25 -46.89 -10.25 -22.41 -9.19 -26.1 -27.36 -9.22 -45.41 10.79 -11.54 24.24 -21.64 38.3 -28.92 72.94 -37.79 151.05 -55.24 233.03 -54.17 26.15 .33 52.43 3.68 76.6 29.73 z"/><path d="m 25.37 394.54 c 42.39 27.28 80.09 54.94 98.64 103.68 20.96 55.08 41.97 109.89 45.1 169.34 1.35 25.6 8.08 59.23 -22.54 68.96 -27.03 8.6 -43.75 -19.54 -57.46 -39.67 -49.68 -72.98 -80.02 -153.26 -83.56 -242.23 -.79 -19.8 -3.76 -41.6 19.82 -60.08 z"/><path d="m 524.86 5 c 25.59 37.03 53.2 72.35 57.24 120.35 5.31 63.3 7.34 126.42 -10.15 188.16 -6.53 23.05 -10.3 55.14 -41.87 54.25 -27.22 -.76 -34.13 -30.05 -40.7 -51.94 -25.91 -86.25 -29.47 -173.49 -5.24 -260.82 5.76 -20.71 11.52 -43.12 40.72 -50 z"/><path d="m 801.4 456.09 c 3.97 32.04 -11.5 44.74 -26.68 55.68 -80.7 58.17 -170.66 89.52 -270.64 90.29 -5.84 .04 -11.76 -.61 -17.5 -1.69 -32.97 -6.21 -40.55 -27.08 -18.07 -52.77 9.52 -10.88 21.38 -20.21 33.52 -28.23 58.31 -38.56 122.92 -64.04 191.25 -74.14 34.48 -5.11 71.49 6.64 108.12 10.86 z"/></g></svg>