<svg enable-background="new 0 0 960 1080" height="1080" viewBox="0 0 960 1080" width="960" xmlns="http://www.w3.org/2000/svg"><g fill="#fff"><path d="m 796.46 290.59 c 50.38 13.03 101.68 -17.27 114.71 -67.66 13.01 -50.45 -17.21 -101.78 -67.6 -114.81 -50.46 -13.05 -101.74 17.23 -114.81 67.64 -12.99 50.45 17.16 101.79 67.7 114.83 z"/><path d="m 927.44 566.68 l -196.09 -302.75 c -6.4 -10.56 -19.04 -22.73 -36.85 -31.62 -15.36 -7.69 -38.85 -9.49 -62.37 -8.72 -4.13 -.52 -8.1 -.03 -12.13 .6 -36.08 2.44 -69.02 9.65 -69.02 9.65 l -200.48 44.62 c -22.6 6.26 -42.23 20.58 -55.58 40.24 -1.27 1.53 -2.64 3 -3.73 4.7 l -90.88 141.35 -139.89 -79.93 c -27.3 -15.61 -62.1 -6.1 -77.68 21.18 -15.61 27.33 -6.12 62.11 21.16 77.7 l 186.82 106.74 c 8.89 5.07 18.61 7.51 28.19 7.51 18.78 0 37.09 -9.3 47.94 -26.18 l 42.41 -65.97 -27.32 98.35 -218.17 113.14 c -27.92 14.45 -38.81 48.8 -24.36 76.7 10.13 19.54 30 30.74 50.6 30.74 8.82 0 17.77 -2.06 26.15 -6.41 l 240.17 -124.55 c 16.06 -8.99 23.46 -20.11 28.65 -35.26 l 64.68 -201.34 73.52 -14.99 c 1.16 1.16 2.82 1.74 4.65 1.14 7.37 -2.42 14.89 -4.51 22.49 -5.98 .73 -.01 1.46 -.03 2.19 -.05 l 22.93 98.35 c 5.34 18.62 22.21 31 40.8 31 3.57 0 7.09 -.45 10.7 -1.34 22.79 -5.88 36.57 -29.17 30.71 -51.98 l -24.12 -93.76 80.67 -16.75 137.25 212.42 c 5.9 9.89 15.63 17.51 27.73 20.56 24.17 5.98 48.56 -8.68 54.66 -32.87 3.25 -12.95 .56 -26.01 -6.4 -36.24 z m -407.19 -211.18 h .84 c -.05 .75 -.08 1.5 -.14 2.24 -.26 -.73 -.5 -1.48 -.7 -2.24 z"/><path d="m 416.14 908.64 c .44 -2.52 1.49 -4.8 1.49 -7.44 v -82.98 c 0 -23.78 -19.26 -43.01 -43.03 -43.01 h -82.96 c -23.76 0 -43.02 19.24 -43.02 43.01 v 82.98 c 0 2.64 1.04 4.93 1.51 7.44 h -139.39 v 35.58 h 180.89 82.96 333.6 v -35.58 z"/></g></svg>