<svg viewBox="0 0 300 300" xmlns="http://www.w3.org/2000/svg"><g fill="#fff"><path d="m 275.7 102.92 a 16.97 16.97 0 0 0 -1.63 -3 17.58 17.58 0 0 0 -14.6 -7.77 h -71.21 c -.14 9.2 -.39 18.4 -.87 27.54 a 75.31 75.31 0 0 1 -54.83 139.78 177.7 177.7 0 0 1 -33.34 23.66 h 160.27 a 17.68 17.68 0 0 0 14.58 -7.78 16.97 16.97 0 0 0 1.63 -3 17.3 17.3 0 0 0 1.39 -6.83 v -155.77 a 17.3 17.3 0 0 0 -1.39 -6.83 z m -15.43 141 a 4.17 4.17 0 0 1 -1.15 2.08 4.09 4.09 0 0 1 -1.06 .73 4.19 4.19 0 0 1 -1 .36 h .13 l -1.44 .34 a 4.07 4.07 0 0 1 -.94 .11 4.2 4.2 0 0 1 -4.21 -4.19 c 0 -.04 0 -.09 0 -.13 l .33 -39.7 -14.85 .89 -.54 .06 c -2.87 -52.4 8.93 -72.55 16.67 -80.33 a 18.01 18.01 0 0 1 6.11 -4.4 l -.38 .37 a 7.05 7.05 0 0 1 .92 -.36 c 0 3.48 0 55.73 .24 83.65 v 16.83 l 1 22.63 a 4.48 4.48 0 0 1 .17 1.06 z" opacity=".8"/><path d="m 256.87 247.12 a 4.43 4.43 0 0 1 -.63 .06 3.49 3.49 0 0 1 -.66 -.06 l -.45 -.1 a 4.43 4.43 0 0 1 -.72 -.27 3.74 3.74 0 0 1 -.64 -.39 l -.07 -.06 a 4.24 4.24 0 0 1 -.65 -.62 v -.06 a 3.73 3.73 0 0 1 -.48 -.76 v -.07 c -.07 -.15 -.13 -.29 -.19 -.44 a 4.27 4.27 0 0 1 -.17 -.62 4.16 4.16 0 0 1 -.07 -.87 l .38 -32.64 .08 -6.67 v -.13 l -1.54 .09 -.33 39.7 a 4.2 4.2 0 0 0 4.08 4.32 h .13 a 4.07 4.07 0 0 0 .94 -.11 l 1.44 -.34 h -.2 z" opacity=".2"/><path d="m 259.34 219.67 v -16.34 c -.22 -27.92 -.24 -80.17 -.24 -83.65 a 7.05 7.05 0 0 0 -.92 .36 c -11.92 11.52 -13.18 17.49 -15.86 23.96 -3.58 8.59 -5.27 29.87 -5.36 34 -.08 3.54 0 21.33 -.05 26.38 h -.84 l 14.85 -.89 1.54 -.09 -.08 6.8 -.12 10.86 -.26 21.79 a 4.33 4.33 0 0 0 .07 .88 4.27 4.27 0 0 0 .17 .62 4.02 4.02 0 0 0 .24 .51 3.73 3.73 0 0 0 .48 .76 v .06 a 3.85 3.85 0 0 0 .65 .62 4.73 4.73 0 0 0 .71 .45 4.43 4.43 0 0 0 .72 .27 l .45 .1 a 3.49 3.49 0 0 0 .66 .06 4.43 4.43 0 0 0 .63 -.06 h .18 a 4.19 4.19 0 0 0 1 -.36 4.09 4.09 0 0 0 1.06 -.73 4.17 4.17 0 0 0 1.15 -2.08 4.47 4.47 0 0 0 .11 -1.1 l -1 -22.63 z"/><path d="m 237 178 c .09 -4.12 1.78 -25.4 5.36 -34 2.68 -6.44 3.94 -12.41 15.61 -23.88 l .38 -.37 a 18.01 18.01 0 0 0 -6.11 4.4 c -7.74 7.78 -19.54 27.93 -16.67 80.33 l .54 -.06 h .84 c -.03 -5.13 -.07 -22.92 .05 -26.42 z" opacity=".2"/><path d="m 79.79 188.15 a 74.51 74.51 0 0 1 33.93 -62.52 73.92 73.92 0 0 1 73.68 -5.94 c .48 -9.14 .73 -18.34 .87 -27.54 h -137.2 a 17.64 17.64 0 0 0 -17.6 17.59 v 155.8 a 17.65 17.65 0 0 0 17.6 17.6 h 48.15 a 177.7 177.7 0 0 0 33.34 -23.66 74.6 74.6 0 0 1 -52.77 -71.33 z m -21.79 -43.34 a 82.38 82.38 0 0 1 1.73 -21.52 1.87 1.87 0 0 1 1.9 -1.46 l 1.46 .08 h -.51 l -.2 .06 h -.13 l -.18 .09 -.11 .08 -.16 .12 a .55 .55 0 0 0 -.11 .1 l -.14 .15 a .72 .72 0 0 1 -.08 .11 l -.12 .2 a .52 .52 0 0 1 -.05 .11 1.69 1.69 0 0 0 -.11 .34 q -.82 3.82 -1.27 7.71 -.33 2.83 -.47 5.7 c 0 .9 -.07 1.8 -.09 2.7 0 1.81 0 3.61 .1 5.41 a 1.9 1.9 0 0 1 -.13 .83 2.03 2.03 0 0 1 -1.95 1.28 2 2 0 0 1 -.76 -.19 2 2 0 0 0 1.38 -1.9 z m 6.74 100.39 a 4.4 4.4 0 0 1 -4.16 -4.57 c .12 -1.86 2.52 -37.08 .54 -70.87 a 7.08 7.08 0 0 0 -2.12 -4.47 7.98 7.98 0 0 0 -1.67 -1.29 10.63 10.63 0 0 1 -2.46 -1.85 11.01 11.01 0 0 1 -2.95 -5.36 c -.35 -1.56 -.65 -3 -.81 -4.11 a 82.5 82.5 0 0 1 .89 -29.68 1.84 1.84 0 0 1 1.91 -1.46 l 1.46 .07 h -.38 a .55 .55 0 0 0 -.14 0 h -.2 l -.13 .06 a .76 .76 0 0 0 -.18 .09 l -.12 .07 -.16 .13 -.1 .09 -.14 .16 a .72 .72 0 0 0 -.08 .11 1.31 1.31 0 0 0 -.12 .2 .42 .42 0 0 0 0 .1 2.02 2.02 0 0 0 -.12 .34 c -.26 1.22 -.49 2.45 -.7 3.68 a 82.17 82.17 0 0 0 -1.12 14.85 v .14 a 68.13 68.13 0 0 0 .42 7 c .13 1.34 .3 2.68 .5 4 .08 .53 .2 1.17 .33 1.87 .07 .35 .15 .71 .23 1.09 s .16 .75 .25 1.14 a 10.77 10.77 0 0 0 .46 1.52 9.99 9.99 0 0 0 .65 1.41 10.74 10.74 0 0 0 1.84 2.43 9.43 9.43 0 0 0 1.5 1.24 8.72 8.72 0 0 0 1 .62 l .53 .35 a 8.56 8.56 0 0 1 1.15 .92 7.81 7.81 0 0 1 1.17 1.52 6.8 6.8 0 0 1 .74 1.74 6.38 6.38 0 0 1 .2 1.22 c .12 2.11 .23 4.23 .32 6.34 .14 3.17 .24 6.34 .31 9.47 0 2.08 .09 4.16 .11 6.2 s 0 4.07 0 6.06 v 8.71 c 0 2.81 -.09 5.52 -.15 8.09 0 1.72 -.09 3.38 -.13 5 s -.11 3.12 -.16 4.58 c -.11 2.9 -.23 5.5 -.34 7.74 -.05 1.11 -.11 2.14 -.16 3.06 s -.09 1.75 -.13 2.46 c -.11 1.79 -.18 2.89 -.2 3.18 a 4.41 4.41 0 0 0 .72 2.61 6.08 6.08 0 0 0 .56 .68 4.57 4.57 0 0 0 .64 .53 c .07 0 .15 .08 .23 .13 a 4.78 4.78 0 0 0 .49 .26 1.64 1.64 0 0 0 .24 .2 3.87 3.87 0 0 0 .48 .15 l .36 .06 .37 .05 z m 6 -123 h -.1 a .96 .96 0 0 0 -.24 0 h -.13 l -.2 .06 h -.13 l -.18 .09 -.12 .07 -.16 .13 -.1 .09 -.14 .16 -.08 .1 a 1.25 1.25 0 0 0 -.11 .2 l -.06 .1 a 3.37 3.37 0 0 0 -.11 .34 c -.19 .89 -.36 1.77 -.53 2.66 a 82.99 82.99 0 0 0 -1.3 13.43 q 0 2.7 .09 5.4 a 2.07 2.07 0 0 1 -1.15 2 2.01 2.01 0 0 1 -.78 .19 1.93 1.93 0 0 1 -.9 -.19 2.07 2.07 0 0 0 1.38 -2.03 82.47 82.47 0 0 1 1.74 -21.48 1.83 1.83 0 0 1 1.88 -1.44 l 1.46 .08 z m 7.47 .37 a 1.62 1.62 0 0 0 -.49 .06 1.41 1.41 0 0 0 -.44 .22 l -.12 .09 a 1.64 1.64 0 0 0 -.25 .27 1.04 1.04 0 0 0 -.09 .12 1.6 1.6 0 0 0 -.21 .5 80.91 80.91 0 0 0 -1.84 16.17 c 0 1.81 0 3.62 .1 5.44 a 2 2 0 0 1 -.58 1.51 2.2 2.2 0 0 1 -.67 .45 2.1 2.1 0 0 1 -.83 .14 2.1 2.1 0 0 1 -.76 -.18 2 2 0 0 0 1.38 -2 82.09 82.09 0 0 1 1.75 -21.65 1.6 1.6 0 0 1 1.65 -1.26 l 1.46 .07 z" opacity=".75"/><path d="m 65.47 245.17 a 3.77 3.77 0 0 1 -.47 -.17 1.61 1.61 0 0 1 -.31 -.11 4.78 4.78 0 0 1 -.49 -.26 c -.08 -.05 -.16 -.08 -.23 -.13 a 4.57 4.57 0 0 1 -.64 -.53 6.08 6.08 0 0 1 -.56 -.68 4.4 4.4 0 0 1 -.77 -2.59 c 0 -.29 .09 -1.39 .2 -3.18 0 -.71 .08 -1.53 .13 -2.46 s .11 -1.95 .16 -3.06 c .11 -2.24 .23 -4.84 .34 -7.74 .05 -1.46 .11 -3 .16 -4.58 s .09 -3.25 .13 -5 c .06 -2.57 .12 -5.28 .15 -8.09 s 0 -5.72 0 -8.71 v -6.06 c 0 -2.06 -.06 -4.12 -.11 -6.2 -.07 -3.13 -.17 -6.3 -.31 -9.47 -.09 -2.11 -.2 -4.23 -.32 -6.34 a 6.38 6.38 0 0 0 -.2 -1.22 6.8 6.8 0 0 0 -.74 -1.74 7.81 7.81 0 0 0 -1.17 -1.52 8.56 8.56 0 0 0 -1.15 -.92 l -.53 -.35 a 8.72 8.72 0 0 1 -1 -.62 9.43 9.43 0 0 1 -1.5 -1.24 10.74 10.74 0 0 1 -1.84 -2.43 9.99 9.99 0 0 1 -.65 -1.41 10.77 10.77 0 0 1 -.46 -1.52 c -.09 -.39 -.17 -.77 -.25 -1.14 s -.16 -.74 -.23 -1.09 c -.13 -.7 -.25 -1.34 -.33 -1.87 -.2 -1.34 -.37 -2.68 -.5 -4 -.24 -2.32 -.38 -4.66 -.42 -7 v -.14 a 82.17 82.17 0 0 1 1.12 -14.85 c .21 -1.23 .44 -2.46 .7 -3.68 a 2.02 2.02 0 0 1 .12 -.34 .42 .42 0 0 1 0 -.1 1.31 1.31 0 0 1 .12 -.2 .72 .72 0 0 1 .08 -.11 l .14 -.16 .1 -.09 .16 -.13 .12 -.07 a .76 .76 0 0 1 .18 -.09 l .13 -.06 h .2 a .55 .55 0 0 1 .14 0 h .38 l -1.46 -.07 a 1.84 1.84 0 0 0 -1.79 1.35 82.5 82.5 0 0 0 -.91 29.68 c .16 1.07 .46 2.55 .81 4.11 a 11.01 11.01 0 0 0 2.95 5.36 10.67 10.67 0 0 0 2.48 1.85 7.98 7.98 0 0 1 1.67 1.29 7.08 7.08 0 0 1 2.11 4.47 c 2 33.79 -.42 69 -.54 70.87 a 4.4 4.4 0 0 0 4.16 4.57 l 1.46 .08 -.37 -.05 z" opacity=".2"/><path d="m 67.43 123.56 a 82.43 82.43 0 0 0 -1.74 21.44 2.07 2.07 0 0 1 -1.37 2.06 1.92 1.92 0 0 0 .9 .19 2.01 2.01 0 0 0 .78 -.19 2.07 2.07 0 0 0 1.15 -2 q -.14 -2.7 -.09 -5.4 a 82.99 82.99 0 0 1 1.3 -13.43 c .17 -.89 .34 -1.77 .53 -2.66 a 3.37 3.37 0 0 1 .11 -.34 l .06 -.1 a 1.25 1.25 0 0 1 .11 -.2 l .08 -.1 .14 -.16 .1 -.09 .16 -.13 .12 -.07 .18 -.09 h .13 l .2 -.06 h .13 a .96 .96 0 0 1 .24 0 h .12 l -1.46 -.08 a 1.83 1.83 0 0 0 -1.88 1.41 z" opacity=".2"/><path d="m 57.37 147 a 2.01 2.01 0 0 0 1.95 -1.28 1.9 1.9 0 0 0 .13 -.83 c -.09 -1.8 -.12 -3.6 -.1 -5.41 0 -.9 0 -1.8 .09 -2.7 q .14 -2.86 .47 -5.7 .45 -3.89 1.27 -7.71 a 1.69 1.69 0 0 1 .11 -.34 .52 .52 0 0 0 .05 -.11 l .12 -.2 a .72 .72 0 0 0 .08 -.11 l .14 -.15 a .55 .55 0 0 1 .11 -.1 l .16 -.12 .11 -.08 .18 -.09 h .13 l .2 -.06 h .51 l -1.46 -.08 a 1.87 1.87 0 0 0 -1.9 1.46 82.4 82.4 0 0 0 -1.72 21.42 2 2 0 0 1 -1.38 2 2 2 0 0 0 .76 .19 z" opacity=".2"/><path d="m 155.68 260.39 a 73.91 73.91 0 0 1 -42 -134.76 74.58 74.58 0 1 0 111.19 86.75 73.94 73.94 0 0 1 -69.19 48.01 z" opacity=".2"/><path d="m 155.6 143.54 c 23.93 0 43.34 19.41 43.34 43.35 0 23.93 -19.41 43.34 -43.34 43.34 -23.94 0 -43.34 -19.41 -43.34 -43.34 0 -23.94 19.4 -43.35 43.34 -43.35 z"/><path d="m 155.68 112.56 a 73.92 73.92 0 1 0 73.91 73.93 v -.02 a 73.91 73.91 0 0 0 -73.91 -73.91 z m -.08 120.25 a 45.92 45.92 0 1 1 45.92 -45.92 45.92 45.92 0 0 1 -45.92 45.92 z"/><path d="m 155.6 141 a 45.92 45.92 0 1 0 45.92 45.92 45.92 45.92 0 0 0 -45.92 -45.92 z m 0 89.25 a 43.34 43.34 0 1 1 43.34 -43.34 v .01 a 43.33 43.33 0 0 1 -43.34 43.3 z" opacity=".7"/><path d="m 79.75 123.72 a 2.27 2.27 0 0 0 -.44 -.69 1.78 1.78 0 0 0 -.32 -.24 l -.12 -.06 a .98 .98 0 0 0 -.2 -.08 1.4 1.4 0 0 0 -.44 -.08 1.55 1.55 0 0 0 -.93 .28 l -.12 .09 a 1.5 1.5 0 0 0 -.31 .35 1.6 1.6 0 0 0 -.21 .5 c -.26 1.18 -.48 2.37 -.68 3.56 l -.15 .9 c -.38 2.39 -.66 4.8 -.82 7.21 l -.06 .9 q -.19 3.17 -.14 6.35 a 24.82 24.82 0 0 0 .1 2.72 2 2 0 0 1 -.58 1.51 3.84 3.84 0 0 1 -.31 .26 2.01 2.01 0 0 1 -.79 .3 1.78 1.78 0 0 1 -.4 0 h -.16 a 2.4 2.4 0 0 1 -.6 -.16 2.15 2.15 0 0 1 -.58 -.41 2.09 2.09 0 0 1 -.19 -.23 2.6 2.6 0 0 1 -.22 -.35 1.91 1.91 0 0 1 -.17 -.72 c -.11 -1.77 -.16 -3.56 -.14 -5.34 v -.06 a 77.47 77.47 0 0 1 1.75 -15.84 1.88 1.88 0 0 0 -.23 -1.36 1.92 1.92 0 0 0 -.28 -.36 1.79 1.79 0 0 0 -.86 -.48 h -.12 a 1.92 1.92 0 0 0 -.24 0 h -.1 a .96 .96 0 0 0 -.24 0 1.29 1.29 0 0 0 -.33 .08 l -.24 .11 h -.07 a 1.82 1.82 0 0 0 -.38 .29 l -.14 .16 -.12 .18 a .8 .8 0 0 0 -.07 .12 l -.06 .1 a 3.37 3.37 0 0 0 -.11 .34 c -.1 .49 -.19 1 -.29 1.48 l -.24 1.18 q -.27 1.5 -.48 3 a 9.82 9.82 0 0 1 -.13 1 c -.09 .71 -.18 1.43 -.25 2.14 0 .36 -.07 .72 -.1 1.08 -.07 .72 -.12 1.43 -.17 2.15 l -.06 1 c 0 1 -.09 2 -.11 3.06 q 0 2.7 .09 5.4 a 2.1 2.1 0 0 1 -.52 1.5 2.03 2.03 0 0 1 -.63 .48 l -.27 .1 a 2.32 2.32 0 0 1 -.51 .09 2.36 2.36 0 0 1 -.46 0 2.05 2.05 0 0 1 -.41 -.14 1.93 1.93 0 0 1 -.58 -.4 1.98 1.98 0 0 1 -.23 -.27 2.22 2.22 0 0 1 -.29 -.65 2.32 2.32 0 0 1 -.06 -.37 c -.11 -1.78 -.15 -3.57 -.14 -5.35 s .09 -3.56 .22 -5.34 .33 -3.55 .59 -5.32 .57 -3.52 .94 -5.27 a 1.93 1.93 0 0 0 -.49 -1.69 1.82 1.82 0 0 0 -.87 -.48 2.27 2.27 0 0 0 -.35 0 1.9 1.9 0 0 0 -.81 .16 l -.18 .09 -.18 .13 -.09 .07 a 1.21 1.21 0 0 0 -.16 .16 l -.09 .09 a .72 .72 0 0 1 -.08 .11 l -.12 .2 -.05 .1 a 1.69 1.69 0 0 0 -.11 .34 c -.25 1.16 -.47 2.32 -.66 3.49 l -.12 .73 c -.34 2.09 -.6 4.2 -.78 6.31 q -.23 2.77 -.27 5.55 c 0 1.77 0 3.55 .1 5.32 v .12 a 1.92 1.92 0 0 1 -.23 1 1.78 1.78 0 0 1 -.34 .5 h -.05 a 2.1 2.1 0 0 1 -.5 .34 l -.22 .1 a 2.01 2.01 0 0 1 -.74 .12 2.57 2.57 0 0 1 -.39 -.06 2.58 2.58 0 0 1 -.36 -.13 2.07 2.07 0 0 1 -.58 -.4 2.1 2.1 0 0 1 -.29 -.38 2.24 2.24 0 0 1 -.2 -.45 2.4 2.4 0 0 1 -.09 -.46 79.21 79.21 0 0 1 1.1 -18.66 c .16 -.88 .33 -1.76 .52 -2.63 a 1.85 1.85 0 0 0 -.22 -1.33 1.76 1.76 0 0 0 -1.15 -.83 1.93 1.93 0 0 0 -.34 0 h -.22 a 2.03 2.03 0 0 0 -.43 .08 l -.13 .06 a .76 .76 0 0 0 -.18 .09 l -.12 .07 -.16 .13 -.1 .09 v .06 a 1.72 1.72 0 0 0 -.17 .21 1.31 1.31 0 0 0 -.12 .2 .42 .42 0 0 0 0 .1 2.29 2.29 0 0 0 -.12 .34 c -.26 1.22 -.49 2.45 -.7 3.68 a 82.17 82.17 0 0 0 -1.12 14.85 71 71 0 0 0 .52 8 c .11 1 .24 2.09 .4 3.13 a 6.53 6.53 0 0 0 .18 1.06 l .15 .81 .09 .43 c .09 .41 .18 .84 .28 1.29 a 2.33 2.33 0 0 0 .11 .51 10.62 10.62 0 0 0 .35 1.17 10.87 10.87 0 0 0 2.6 4.19 9.33 9.33 0 0 0 .88 .77 13.3 13.3 0 0 0 1.16 .81 c .14 .09 .27 .19 .42 .27 a 4.15 4.15 0 0 1 .41 .27 l .12 .08 .54 .39 a 7.88 7.88 0 0 1 .61 .53 6.98 6.98 0 0 1 .3 .68 1.08 1.08 0 0 1 .13 .17 5.32 5.32 0 0 1 .48 .7 6.76 6.76 0 0 1 .38 .75 l .09 .2 c .1 .26 .19 .52 .27 .78 a 6.66 6.66 0 0 1 .2 1.23 c .12 2.11 .23 4.23 .32 6.34 .14 3.17 .24 6.34 .31 9.47 0 2.08 .09 4.16 .11 6.2 s 0 4.07 0 6.06 v 8.8 c 0 1.25 0 2.47 -.06 3.68 v .93 c 0 1.18 -.05 2.35 -.08 3.48 0 1.72 -.09 3.38 -.13 5 v 1.19 c 0 .78 -.06 1.53 -.08 2.27 v 1.12 c 0 .75 -.06 1.49 -.09 2.2 -.05 1.34 -.11 2.61 -.16 3.79 0 .6 -.06 1.19 -.09 1.75 v .78 c -.08 1.6 -.15 3 -.22 4.13 v 2.6 a 3.03 3.03 0 0 1 0 .33 v .86 a 3.97 3.97 0 0 0 .05 .85 1.92 1.92 0 0 1 0 .24 3.81 3.81 0 0 0 .17 .58 l .08 .23 a 6.73 6.73 0 0 0 .37 .71 6.08 6.08 0 0 0 .56 .68 4.17 4.17 0 0 0 1.39 .9 l .24 .08 a 5.34 5.34 0 0 0 .6 .13 h .61 a 4.3 4.3 0 0 0 1.76 -.37 4.51 4.51 0 0 0 1.71 -1.37 3.94 3.94 0 0 0 .44 -.7 4.04 4.04 0 0 0 .43 -1.24 4.55 4.55 0 0 0 .06 -.91 c 0 -.69 -.28 -6.35 -.52 -15.32 -.32 -11.72 -.63 -29.09 -.42 -48.34 0 -2.27 .06 -4.58 .1 -6.9 a 6.57 6.57 0 0 1 1 -3.35 7.44 7.44 0 0 1 1.14 -1.41 6.46 6.46 0 0 1 .7 -.59 6.73 6.73 0 0 1 .77 -.49 11.12 11.12 0 0 0 4.91 -5.46 10.95 10.95 0 0 0 .52 -1.62 7.26 7.26 0 0 0 .17 -.84 10.16 10.16 0 0 0 .15 -1.75 11.21 11.21 0 0 0 -.14 -1.82 c -.16 -1.14 -.31 -2.28 -.43 -3.42 s -.21 -2.28 -.27 -3.43 a 78.61 78.61 0 0 1 .37 -13.72 c .13 -1.13 .29 -2.27 .47 -3.4 s .39 -2.26 .62 -3.39 a 2.15 2.15 0 0 0 0 -.63 3.29 3.29 0 0 0 -.24 -1.02 z"/><path d="m 300 39.67 h -291.87 v -39.67 h -8.13 v 123.72 h 8.13 v -36.54 a 41.53 41.53 0 0 1 35.81 -38.4 9.4 9.4 0 0 1 1.31 -.08 h 34.4 a 7.62 7.62 0 0 0 -1.54 4.66 7.52 7.52 0 0 0 2.07 5.27 6.77 6.77 0 0 0 .13 11.88 9 9 0 0 0 -.17 9.43 11.42 11.42 0 0 0 -6.79 6.79 h -11.22 a 20.35 20.35 0 0 0 -8.22 5.43 h 205.58 a 17.57 17.57 0 0 1 6.84 1.38 17.71 17.71 0 0 1 7.76 6.39 16.97 16.97 0 0 1 1.63 3 17.3 17.3 0 0 1 1.39 6.83 v 155.78 a 17.3 17.3 0 0 1 -1.39 6.83 16.97 16.97 0 0 1 -1.63 3 17.68 17.68 0 0 1 -14.58 7.78 h -41.51 c 8.39 2.44 15.66 4.35 21.16 5.7 h 23.54 a 20 20 0 0 0 20 -20 v -162.12 a 20 20 0 0 0 -20 -20 h -31.6 a 11.43 11.43 0 0 0 -6.78 -6.79 8.52 8.52 0 0 0 1.25 -4.58 8.39 8.39 0 0 0 -1.43 -4.85 6.77 6.77 0 0 0 .13 -11.88 7.48 7.48 0 0 0 2.07 -5.27 7.61 7.61 0 0 0 -1.53 -4.66 h 75.19 z m -291.87 27.91 v -18.88 h 18.68 a 44 44 0 0 0 -18.68 18.88 z m 212.24 -18.19 c 1.6 0 2.94 1.82 2.94 4 s -1.34 4 -2.94 4 -2.93 -1.82 -2.93 -4 1.34 -4 2.93 -4 z m -136.32 0 c 1.59 0 2.94 1.82 2.94 4 s -1.35 4 -2.94 4 -2.94 -1.82 -2.94 -4 1.35 -4 2.94 -4 z m -4.33 15.14 a 4.35 4.35 0 0 1 8.66 0 4.09 4.09 0 0 1 -3.74 3.91 3.87 3.87 0 0 0 -.59 0 3.87 3.87 0 0 0 -.59 0 4.09 4.09 0 0 1 -3.74 -3.91 z m 6.49 10.83 c 0 2 -.88 3.54 -1.79 3.89 h -.74 c -.91 -.35 -1.79 -1.89 -1.79 -3.89 s .87 -3.52 1.77 -3.88 h .78 c .9 .36 1.77 1.9 1.77 3.88 z m -9.59 11.37 a 8.45 8.45 0 0 1 6.77 -4.47 3.56 3.56 0 0 0 .66 .07 3.74 3.74 0 0 0 .66 -.07 8.45 8.45 0 0 1 6.77 4.47 z m 133 0 h -114.87 a 11.45 11.45 0 0 0 -6.75 -6.79 8.52 8.52 0 0 0 1.25 -4.58 8.39 8.39 0 0 0 -1.43 -4.85 6.76 6.76 0 0 0 .14 -11.88 7.52 7.52 0 0 0 2.04 -5.27 7.62 7.62 0 0 0 -1.54 -4.66 h 127.54 a 7.61 7.61 0 0 0 -1.53 4.66 7.48 7.48 0 0 0 2.07 5.27 6.76 6.76 0 0 0 .13 11.88 8.39 8.39 0 0 0 -1.43 4.85 8.52 8.52 0 0 0 1.25 4.58 11.48 11.48 0 0 0 -6.82 6.79 z m 18.13 0 h -14.81 a 8.45 8.45 0 0 1 6.77 -4.47 3.74 3.74 0 0 0 .66 .07 3.48 3.48 0 0 0 .66 -.07 8.45 8.45 0 0 1 6.77 4.47 z m -9.59 -11.37 c 0 -2 .87 -3.52 1.77 -3.88 h .79 c .9 .36 1.77 1.9 1.77 3.88 s -.89 3.54 -1.79 3.89 h -.75 c -.86 -.35 -1.74 -1.89 -1.74 -3.89 z m 6.49 -10.83 a 4.09 4.09 0 0 1 -3.65 3.91 3.87 3.87 0 0 0 -.59 0 3.74 3.74 0 0 0 -.58 0 4.1 4.1 0 0 1 -3.83 -3.91 4.35 4.35 0 0 1 8.66 0 z" opacity=".5"/><path d="m 99.22 283.14 h -48.15 a 17.65 17.65 0 0 1 -17.6 -17.6 v -155.79 a 17.64 17.64 0 0 1 17.6 -17.59 h 2.84 a 20.35 20.35 0 0 1 8.22 -5.43 h -14.22 a 20 20 0 0 0 -20 20 v 162.11 a 20 20 0 0 0 20 20 h 191.22 c -5.5 -1.35 -12.77 -3.26 -21.16 -5.7 z" opacity=".4"/><path d="m 277.77 93.63 a 19.94 19.94 0 0 1 4.9 13.1 v 162.11 a 20 20 0 0 1 -20 20 h -214.76 a 19.88 19.88 0 0 1 -13.09 -4.9 19.94 19.94 0 0 0 15.09 6.9 h 214.76 a 20 20 0 0 0 20 -20 v -162.11 a 20 20 0 0 0 -6.9 -15.1 z" opacity=".3"/><path d="m 83.68 79.25 h .49 a 6.44 6.44 0 0 1 -.28 -1.88 c 0 -2 .87 -3.52 1.77 -3.88 h .27 a 3.11 3.11 0 0 0 -1.49 -2 h -.78 c -.9 .36 -1.77 1.9 -1.77 3.88 s .88 3.53 1.79 3.88 z" opacity=".3"/><path d="m 93 83.63 a 11.52 11.52 0 0 1 1.74 3.1 h 1 a 11.28 11.28 0 0 0 -2.74 -3.1 z" opacity=".3"/><path d="m 90.25 60.86 a 6.58 6.58 0 0 1 1.13 3.67 6.89 6.89 0 0 1 -3.6 6 8.39 8.39 0 0 1 1.43 4.85 8.52 8.52 0 0 1 -1.21 4.56 11.19 11.19 0 0 1 2.41 1.24 8.73 8.73 0 0 0 .84 -3.82 8.39 8.39 0 0 0 -1.43 -4.85 6.74 6.74 0 0 0 .47 -11.65 z" opacity=".3"/><path d="m 79.72 64.53 a 3.89 3.89 0 0 0 2.33 3.47 3.57 3.57 0 0 1 -.33 -1.49 4.16 4.16 0 0 1 4.31 -4 h .02 a 4.64 4.64 0 0 1 2 .47 4.35 4.35 0 0 0 -4 -2.47 4.16 4.16 0 0 0 -4.33 3.98 z" opacity=".3"/><path d="m 8.13 0 h 2 v 39.67 h -2 z" opacity=".3"/><path d="m 84.71 82.26 a 3.74 3.74 0 0 1 -.66 .07 3.56 3.56 0 0 1 -.66 -.07 8.45 8.45 0 0 0 -6.77 4.47 h 3.48 a 8.39 8.39 0 0 1 5.29 -2.47 3.56 3.56 0 0 0 .66 .07 3.74 3.74 0 0 0 .66 -.07 8.48 8.48 0 0 1 4.19 1.53 8.39 8.39 0 0 0 -6.19 -3.53 z" opacity=".3"/><path d="m 220.37 49.39 c -1.59 0 -2.93 1.82 -2.93 4 0 1.89 1 3.52 2.38 3.88 a 4.82 4.82 0 0 1 -.38 -1.88 c 0 -2.15 1.34 -4 2.93 -4 a 2.08 2.08 0 0 1 .56 .08 3 3 0 0 0 -2.56 -2.08 z" opacity=".3"/><path d="m 220.37 82.33 a 3.74 3.74 0 0 1 -.66 -.07 8.45 8.45 0 0 0 -6.77 4.47 h 3.48 a 8.42 8.42 0 0 1 5.29 -2.47 3.74 3.74 0 0 0 .66 .07 3.48 3.48 0 0 0 .66 -.07 8.52 8.52 0 0 1 4.2 1.53 8.41 8.41 0 0 0 -6.2 -3.53 3.48 3.48 0 0 1 -.66 .07 z" opacity=".3"/><path d="m 90 53.36 a 7.52 7.52 0 0 1 -2.07 5.27 7.28 7.28 0 0 1 2.07 1.89 7.78 7.78 0 0 0 .43 -9.82 h 124.47 a 7.08 7.08 0 0 1 1.07 -2 h -127.52 a 7.62 7.62 0 0 1 1.55 4.66 z" opacity=".3"/><path d="m 220.37 60.57 a 4.17 4.17 0 0 0 -4.33 4 3.89 3.89 0 0 0 2.33 3.43 3.57 3.57 0 0 1 -.33 -1.49 4.17 4.17 0 0 1 4.33 -4 4.61 4.61 0 0 1 2 .47 4.35 4.35 0 0 0 -4 -2.41 z" opacity=".3"/><path d="m 47.25 50.7 h 31.32 a 7.4 7.4 0 0 1 1.08 -2 h -34.4 a 9.4 9.4 0 0 0 -1.31 .08 41.53 41.53 0 0 0 -35.81 38.4 v 36.54 h 2 v -34.54 a 41.53 41.53 0 0 1 35.81 -38.4 9.4 9.4 0 0 1 1.31 -.08 z" opacity=".3"/><path d="m 10.13 50.7 h 13.3 c 1.1 -.71 2.22 -1.39 3.38 -2 h -18.68 v 18.88 c .61 -1.19 1.29 -2.34 2 -3.46 z" opacity=".3"/><path d="m 226.31 53.36 a 7.48 7.48 0 0 1 -2.07 5.27 7.01 7.01 0 0 1 2.1 1.89 7.51 7.51 0 0 0 2 -5.16 7.61 7.61 0 0 0 -1.53 -4.66 h 73.19 v -2 h -75.22 a 7.61 7.61 0 0 1 1.53 4.66 z" opacity=".3"/><path d="m 229.34 83.63 a 11.22 11.22 0 0 1 1.73 3.1 h 1.05 a 11.45 11.45 0 0 0 -2.78 -3.1 z" opacity=".3"/><path d="m 84.05 49.39 c -1.59 0 -2.94 1.82 -2.94 4 0 1.89 1 3.52 2.38 3.88 a 4.99 4.99 0 0 1 -.38 -1.88 c 0 -2.15 1.35 -4 2.94 -4 a 2.16 2.16 0 0 1 .56 .08 3 3 0 0 0 -2.56 -2.08 z" opacity=".3"/><path d="m 220 79.25 h .5 a 6.12 6.12 0 0 1 -.29 -1.88 c 0 -2 .87 -3.52 1.77 -3.88 h .27 a 3.14 3.14 0 0 0 -1.48 -2 h -.79 c -.9 .36 -1.77 1.9 -1.77 3.88 s .88 3.53 1.79 3.88 z" opacity=".3"/><path d="m 226.58 60.86 a 6.65 6.65 0 0 1 1.12 3.67 6.88 6.88 0 0 1 -3.59 6 8.39 8.39 0 0 1 1.43 4.85 8.52 8.52 0 0 1 -1.25 4.58 11.19 11.19 0 0 1 2.41 1.24 8.86 8.86 0 0 0 .84 -3.82 8.39 8.39 0 0 0 -1.43 -4.85 6.75 6.75 0 0 0 .47 -11.65 z" opacity=".3"/></g></svg>