<svg enable-background="new 0 0 946.1074219 1009.6454468" viewBox="0 0 946.11 1009.65" xmlns="http://www.w3.org/2000/svg"><path d="m 826.38 302.7 c -35.62 -31.74 -94.15 -55.3 -162.92 -70.81 24.71 -27.3 38.73 -67.83 35.13 -97.18 0 0 -12.21 67.2 -66.63 72.29 -23.81 2.23 -39.94 .24 -56.05 6.43 8.39 -9.06 19.99 -15.61 36.32 -17.61 54.37 -6.63 92.02 -80.36 86.36 -126.4 0 0 -12.21 67.2 -66.63 72.29 -39.52 3.7 -57.87 -4.36 -90.1 32.9 -2.68 3.1 -5.11 5.96 -7.46 8.74 13.79 -52.31 23.79 -122.86 22.31 -127.31 -1.9 -5.67 -37.81 -39.69 -57.97 -9.45 -16.56 24.81 -12.72 73.81 -5.25 133.4 -1.83 -2.77 -3.73 -5.64 -5.77 -8.66 -33.08 -49.14 -60.48 -49.14 -113.36 -69.26 -72.83 -27.7 -69.76 -97.06 -69.76 -97.06 -21.26 41.63 8.52 127.91 80.8 157.06 30.67 12.37 45.94 29.45 52.81 47.61 -12.94 .13 -25.83 .41 -38.59 .99 -4.2 -9.66 -10.38 -20.73 -19.67 -36.06 -22.56 -37.25 -35.41 -29.2 -63.06 -32.9 -38.09 -5.08 -46.64 -72.29 -46.64 -72.29 -3.96 46.04 22.4 119.76 60.45 126.4 11.53 2 19.71 8.64 25.59 17.83 -95.37 8.55 -179.34 30.63 -224.45 66.36 -132.45 104.88 -171.79 375.73 -66.9 523.14 104.9 147.41 140.62 185.89 424.09 201.33 53.78 2.92 314.68 -29.95 399.72 -231.21 85.04 -201.27 68.04 -354.35 -62.37 -470.57 z" fill="#fff"/></svg>