<svg enable-background="new 0 0 287.6 275" viewBox="0 0 287.6 275" xmlns="http://www.w3.org/2000/svg"><g fill="#fff"><path d="m 144.2 55.2 l 7.3 5.8 c 1.6 1.2 3.8 1 5.1 -.6 .3 -.4 .5 -.8 .6 -1.3 .5 -1.9 1.1 -3.8 1.9 -5.7 .7 -1.8 -.2 -3.9 -2 -4.7 -.5 -.2 -1 -.3 -1.5 -.2 l -9.3 .4 c -2 .1 -3.5 1.8 -3.4 3.8 .1 .9 .5 1.8 1.3 2.5 z"/><path d="m 192.7 19.7 c 1.9 -.7 3.8 -1.3 5.7 -1.9 1.9 -.5 3.1 -2.5 2.6 -4.4 -.1 -.5 -.3 -.9 -.7 -1.3 l -5.8 -7.3 c -1.2 -1.6 -3.5 -1.8 -5 -.6 -.8 .6 -1.3 1.6 -1.4 2.7 l -.4 9.3 c -.1 2 1.5 3.7 3.5 3.7 .5 0 1 -.1 1.5 -.2 z"/><path d="m 158.6 42.4 c 1.1 1.6 3.4 2.1 5 1 .4 -.3 .7 -.6 1 -1 1.1 -1.7 2.3 -3.3 3.5 -4.9 1.3 -1.5 1.1 -3.8 -.5 -5.1 -.4 -.3 -.8 -.6 -1.3 -.7 l -8.9 -2.5 c -1.9 -.6 -3.9 .5 -4.5 2.4 -.3 1 -.1 2.1 .5 3 z"/><path d="m 210.5 15.9 c 1 -.1 2 -.1 3.1 -.1 1 0 2.1 0 3.1 .1 2 .1 3.6 -1.5 3.7 -3.4 0 -.5 -.1 -1 -.2 -1.4 l -3.2 -8.7 c -.7 -1.9 -2.8 -2.8 -4.6 -2.1 -1 .4 -1.8 1.1 -2.1 2.1 l -3.2 8.7 c -.7 1.8 .2 3.9 2.1 4.6 .3 .1 .8 .2 1.3 .2 z"/><path d="m 285.3 70.8 l -8.7 -3.2 c -1.8 -.7 -3.9 .2 -4.6 2.1 -.2 .5 -.3 .9 -.2 1.4 .1 1 .1 2 .1 3.1 0 1 0 2.1 -.1 3.1 -.1 2 1.4 3.7 3.4 3.7 .5 0 1 -.1 1.4 -.2 l 8.7 -3.2 c 1.8 -.7 2.8 -2.8 2 -4.7 -.3 -1 -1.1 -1.8 -2 -2.1 z"/><path d="m 258.9 37.5 c 1.3 1.6 2.4 3.2 3.5 4.9 s 3.3 2.1 5 1.1 c .4 -.3 .8 -.6 1 -1 l 5.1 -7.7 c 1.1 -1.6 .7 -3.9 -1 -5 -.9 -.6 -2 -.8 -3 -.5 l -8.9 2.5 c -1.9 .6 -3 2.6 -2.4 4.5 .2 .4 .4 .8 .7 1.2 z"/><path d="m 228.7 17.8 c 1.9 .5 3.8 1.1 5.7 1.9 1.8 .7 3.9 -.2 4.7 -2 .2 -.5 .3 -1 .2 -1.5 l -.4 -9.3 c -.1 -2 -1.8 -3.5 -3.7 -3.4 -1 0 -2 .5 -2.7 1.4 l -5.8 7.3 c -1.2 1.6 -1 3.8 .6 5.1 .4 .1 .9 .4 1.4 .5 z"/><path d="m 268 53.3 c .7 1.9 1.3 3.8 1.9 5.8 .5 1.9 2.5 3.1 4.4 2.6 .5 -.1 .9 -.3 1.3 -.7 l 7.2 -5.8 c 1.6 -1.2 1.8 -3.5 .6 -5 -.6 -.8 -1.6 -1.3 -2.7 -1.4 l -9.3 -.4 c -2 -.1 -3.7 1.5 -3.7 3.5 .1 .4 .1 .9 .3 1.4 z"/><path d="m 245.3 25.2 c 1.7 1.1 3.3 2.3 4.9 3.5 1.5 1.3 3.8 1.1 5.1 -.5 .3 -.4 .6 -.8 .7 -1.3 l 2.5 -9 c .6 -1.9 -.5 -3.9 -2.4 -4.5 -1 -.3 -2.1 -.1 -3 .5 l -7.7 5.1 c -1.7 1.1 -2.2 3.3 -1.1 5 .2 .6 .6 .9 1 1.2 z"/><path d="m 171.1 27 c .5 1.9 2.5 3 4.4 2.5 .5 -.1 .9 -.4 1.3 -.7 1.6 -1.3 3.2 -2.4 4.9 -3.5 s 2.1 -3.3 1.1 -5 c -.3 -.4 -.6 -.8 -1 -1 l -7.7 -5.1 c -1.6 -1.1 -3.9 -.7 -5 1 -.6 .9 -.8 2 -.5 3 z"/><path d="m 141.8 77.5 l 8.7 3.2 c 1.8 .7 3.9 -.2 4.6 -2.1 .2 -.5 .2 -.9 .2 -1.4 -.1 -1 -.1 -2 -.1 -3.1 0 -1 0 -2.1 .1 -3.1 .1 -2 -1.4 -3.7 -3.4 -3.7 -.5 0 -1 .1 -1.4 .2 l -8.7 3.2 c -1.8 .7 -2.8 2.8 -2 4.6 .3 1.1 1 1.8 2 2.2 z"/><path d="m 213.5 20.3 c -29.7 0 -53.8 24 -53.9 53.7 0 4.6 .6 9.1 1.7 13.6 h 104.3 c 7.5 -28.8 -9.8 -58.1 -38.5 -65.6 -4.4 -1.1 -9 -1.7 -13.6 -1.7 z m -20.3 45.4 l -6 6 c -.4 .4 -.9 .6 -1.5 .5 -3.9 -.5 -6.7 -4.1 -6.3 -8 s 4.1 -6.7 8 -6.3 c 3.3 .4 5.9 3 6.3 6.3 0 .5 -.2 1.1 -.5 1.5 z m 24.5 .6 c -1.2 4.8 -6.1 7.7 -11 6.5 -3.2 -.8 -5.7 -3.3 -6.5 -6.5 -.2 -1 .4 -1.9 1.4 -2.1 h .4 13.9 c 1 0 1.8 .8 1.8 1.8 z m 14.6 5.9 c -.6 .1 -1.1 -.1 -1.5 -.5 l -6 -6 c -.4 -.4 -.6 -.9 -.5 -1.5 .5 -3.9 4.1 -6.7 8 -6.3 s 6.7 4.1 6.3 8 c -.5 3.3 -3.1 5.9 -6.3 6.3 z"/><path d="m 192.4 142.7 c -.3 -.5 -.9 -.6 -1.4 -.3 -.3 .2 -.5 .6 -.4 1 l 1.1 8.3 c .1 .9 .9 1.6 1.8 1.6 h .8 c .7 0 1.2 .6 1.2 1.2 0 7.2 4.6 10.9 9.2 15.4 .2 .2 .4 .4 .6 .5 l 1.5 1.5 c .4 .4 .4 .9 0 1.3 -.2 .2 -.4 .3 -.6 .3 h -1.5 c -.3 0 -.5 .2 -.5 .5 v .1 c 1.4 4.9 6.5 7.7 11.4 6.4 3.1 -.9 5.5 -3.3 6.4 -6.4 .1 -.3 -.1 -.6 -.4 -.6 h -.1 -1.5 c -.5 0 -.9 -.4 -.9 -.9 0 -.2 .1 -.5 .3 -.6 l 1.5 -1.5 c .2 -.2 .4 -.3 .6 -.5 4.6 -4.5 9.2 -8.1 9.2 -15.4 0 -.7 .6 -1.2 1.2 -1.2 h .8 c .9 0 1.7 -.7 1.8 -1.6 l 1.1 -8.3 c 0 -.6 -.4 -1 -.9 -1.1 -.3 0 -.7 .1 -.9 .4 -.4 .6 -1.2 .7 -1.8 .3 -.3 -.2 -.5 -.5 -.5 -.8 l 2.5 -11.9 c .5 -2.5 -1.1 -4.9 -3.6 -5.5 -.3 -.1 -.6 -.1 -.9 -.1 h -2.6 l 3.7 -3.7 c 0 -3 -2.5 -5.5 -5.5 -5.5 h -18.4 c -5.1 0 -9.2 4.1 -9.2 9.2 h -.8 c -2.5 0 -4.6 2.1 -4.6 4.6 0 .3 0 .6 .1 .9 l 2.5 11.9 c -.2 .7 -.8 1.1 -1.5 1 -.4 -.1 -.7 -.3 -.8 -.5 z"/><path d="m 240 209.4 l 16.9 -5.3 c 2.1 -.6 4 -2.7 3 -4.7 -2.9 -6.3 -6.2 -12.3 -9.8 -18.2 -1.5 -2.3 -3.8 -4 -6.5 -4.7 l -15.4 -2.8 c -.4 -.1 -.8 .2 -.9 .6 -.5 4.4 -5.3 9.3 -11.4 10.5 h -5.7 c -6.2 -1.2 -11 -6.1 -11.5 -10.5 -.1 -.4 -.4 -.7 -.9 -.6 l -23.9 .9 c -.8 0 -1.5 .6 -1.7 1.4 l -4 17.5 c -.2 .8 .2 1.7 1 2.1 l 16.8 8.3 c .9 .3 1.5 1.1 1.5 2 l -2.5 66.1 c 0 1.4 1.1 2.6 2.6 2.7 h .1 50.8 c 1.4 0 2.6 -1.2 2.6 -2.6 0 0 0 0 0 -.1 l -2.5 -60.6 c 0 -.9 .6 -1.7 1.4 -2 z"/><path d="m 128.2 136.8 c -4.9 -1.5 -7.7 -6.6 -6.2 -11.5 .3 -.9 .6 -1.7 1.1 -2.5 .3 -.5 .1 -1.1 -.4 -1.4 s -1.1 -.1 -1.4 .4 c -3.4 5.2 -1.9 12.2 3.4 15.6 .9 .6 1.8 1 2.7 1.3 .5 .2 1.1 -.1 1.3 -.6 s 0 -1.1 -.5 -1.3 z"/><path d="m 128.8 132.3 c -2.2 -.6 -3.4 -2.9 -2.8 -5.1 .1 -.4 .3 -.8 .5 -1.2 .3 -.5 .1 -1.1 -.4 -1.4 s -1.1 -.1 -1.4 .4 c -1.8 2.9 -1 6.7 1.8 8.5 .5 .3 1 .5 1.5 .7 s 1.1 -.1 1.3 -.6 0 -1.1 -.5 -1.3 z"/><path d="m 156.9 125.6 c .5 .2 1.1 0 1.3 -.4 0 0 0 0 0 -.1 1.2 -2.8 1.2 -5.9 .1 -8.7 -1.4 -3.1 -4.1 -5.4 -7.4 -6.3 -.5 -.1 -1.1 .2 -1.2 .7 v .1 c -.1 .5 .2 1 .7 1.1 2.7 .7 5 2.6 6.2 5.1 1 2.3 .9 4.9 -.1 7.2 -.3 .5 -.1 1 .4 1.3 z"/><path d="m 149.4 115.2 c -.1 .5 .2 1.1 .7 1.2 2.2 .5 3.5 2.7 3 4.8 -.1 .4 -.2 .7 -.4 1.1 -.3 .5 -.2 1.1 .3 1.4 s 1.1 .2 1.4 -.3 c 0 -.1 .1 -.1 .1 -.2 1.6 -2.9 .5 -6.6 -2.4 -8.1 -.4 -.2 -.9 -.4 -1.4 -.6 -.6 -.1 -1.2 .2 -1.3 .7 z"/><path d="m 165.4 174.4 l -18.9 .2 -3.2 -35.2 c -.6 -.3 -3 -2.2 -3.5 -2.6 l -1.2 -.9 c -.2 -.2 -.3 -.5 -.1 -.7 s .5 -.3 .7 -.1 l .4 .3 c .5 .4 1.1 .5 1.7 .4 l .4 -.1 c .9 -.1 1.7 -.5 2.4 -1 l 7.8 -5.4 c .7 -.5 1 -1.3 .9 -2.1 -.1 -.6 -.6 -1.1 -1.3 -1 h -.2 l -6.6 2.1 2.5 -13.7 c .1 -.6 -.2 -1.2 -.8 -1.3 s -1.2 .2 -1.4 .8 l -2.9 8.7 c -.1 .2 -.3 .3 -.5 .3 s -.4 -.2 -.4 -.4 l -.3 -10.2 c 0 -.7 -.6 -1.3 -1.4 -1.3 h -.1 c -.7 0 -1.3 .6 -1.4 1.3 l -.4 9.5 c 0 .2 -.2 .4 -.4 .4 s -.4 -.1 -.4 -.3 l -2.4 -7.6 c -.2 -.6 -.8 -1 -1.5 -.9 h -.1 c -.6 .1 -1.1 .7 -1 1.3 v .1 l 1.8 9.1 c 0 .2 -.1 .3 -.3 .4 -.2 0 -.4 -.1 -.5 -.3 l -2.4 -5.8 c -.2 -.5 -.8 -.8 -1.3 -.5 h -.1 c -.6 .3 -.8 .9 -.6 1.5 l 5.8 17.8 -3.6 42.8 c -.1 1.3 .7 2.6 1.9 3.1 l 28.3 10.4 c 1 .5 2.3 0 2.8 -1 .1 -.1 .1 -.2 .1 -.4 l 3.7 -15.5 c .2 -1.2 -.5 -2.3 -1.7 -2.5 0 .3 -.1 .3 -.3 .3 z"/><path d="m 255.8 211.9 l -11.4 .2 c -1.8 -.2 -2.2 .7 -2 1.6 l 12.2 61.2 h 6.6 l -3 -60.6 c 0 -1.3 -1 -2.5 -2.3 -2.5 0 .1 -.1 .1 -.1 .1 z"/><path d="m 43.3 142.3 c .2 -1 -.5 -2.6 -.3 -5.8 .1 -.8 .2 -1.6 .6 -2.4 0 -.1 .2 -.1 .2 0 .2 1 .7 2.4 1 2.5 .8 .3 1.2 -4.5 .8 -5.5 -.1 -.4 -.4 -.8 -.7 -1.1 -.3 -.2 -.4 -.6 -.4 -.9 l 8 -40.6 c .1 -.6 -.1 -1.2 -1.3 -1.1 l -7.2 -.1 c -.9 0 -1.6 .7 -1.6 1.5 v .1 l -2 40.6 s -.2 2.3 -.3 4.8 c -.1 1.8 -.1 4 .5 5.2 .5 1.1 1.1 2 1.8 2.9 .2 .2 .5 .2 .7 0 .1 .1 .2 0 .2 -.1 z"/><path d="m 43.4 82.7 l 10.3 3.2 c .5 .2 .9 .7 .9 1.2 l -1.5 37.1 c 0 .9 .7 1.6 1.6 1.6 h 31.2 c .9 0 1.6 -.7 1.6 -1.6 l -1.5 -40.5 c 0 -.6 .4 -1.1 .9 -1.2 l 10.3 -5.1 c .5 -.2 .7 -.8 .6 -1.3 l -2.4 -10.7 c -.1 -.5 -.5 -.9 -1.1 -.9 l -14.7 -.5 c -.3 0 -.5 .1 -.5 .4 -.3 2.7 -3.3 5.7 -7 6.4 l -1.8 5.4 -1.7 -5.4 c -3.8 -.7 -6.7 -3.7 -7 -6.4 0 -.3 -.3 -.4 -.5 -.4 l -9.5 1.7 c -1.6 .4 -3.1 1.5 -4 2.9 -2.2 3.6 -4.2 7.3 -6 11.2 -.7 1.2 .5 2.5 1.8 2.9 z"/><path d="m 125.9 38 c -.6 1.7 -2 2.9 -3.7 3.5 -.3 .1 -.5 .4 -.5 .8 s .4 .5 .8 .5 h .1 c 3.6 -1.1 5.7 -5 4.6 -8.6 -.2 -.6 -.5 -1.2 -.8 -1.7 -.2 -.3 -.5 -.4 -.8 -.3 -.3 .2 -.4 .5 -.3 .8 0 0 0 .1 .1 .1 .9 1.3 1.1 3.2 .5 4.9 z"/><path d="m 121.9 38.7 c -.3 .1 -.5 .4 -.5 .8 .1 .3 .4 .5 .8 .5 h .1 c 2 -.6 3.1 -2.8 2.4 -4.7 -.1 -.3 -.2 -.6 -.4 -.9 s -.6 -.3 -.9 -.1 c -.2 .2 -.3 .5 -.2 .8 .8 1.2 .5 2.7 -.7 3.5 -.2 -.1 -.4 0 -.6 .1 z"/><path d="m 104.7 34.6 c .3 -.1 .4 -.5 .3 -.8 -.6 -1.4 -.6 -3 0 -4.4 .7 -1.6 2.1 -2.7 3.8 -3.2 .3 -.1 .5 -.4 .4 -.7 s -.4 -.5 -.7 -.5 c 0 0 0 0 -.1 0 -2 .5 -3.7 1.9 -4.6 3.8 -.7 1.7 -.7 3.6 0 5.4 .2 .4 .5 .5 .9 .4 -.1 0 0 0 0 0 z"/><path d="m 108.5 27.8 c -2 .5 -3.2 2.5 -2.7 4.4 .1 .3 .2 .6 .4 .9 s .5 .4 .8 .3 c .3 -.2 .4 -.5 .3 -.8 -.7 -1.2 -.3 -2.7 .9 -3.3 .2 -.1 .4 -.2 .7 -.3 s .5 -.5 .4 -.8 c -.2 -.3 -.5 -.5 -.8 -.4 z"/><path d="m 100.4 75.5 c .2 .7 .9 1.1 1.6 .9 .1 0 .2 0 .2 -.1 l 17.4 -6.4 c .8 -.3 1.3 -1.1 1.2 -1.9 l -2.2 -26.2 3.4 -10.8 c .1 -.4 -.1 -.8 -.4 -.9 s -.7 0 -.8 .3 l -1.5 3.6 c 0 .1 -.2 .2 -.3 .2 s -.2 -.1 -.2 -.2 l 1.1 -5.6 c .1 -.4 -.2 -.7 -.6 -.8 s -.8 .2 -.9 .6 l -1.5 4.8 c 0 .1 -.2 .2 -.3 .2 s -.2 -.1 -.2 -.2 l -.3 -5.8 c 0 -.4 -.4 -.8 -.8 -.8 h -.1 c -.4 0 -.8 .4 -.8 .8 l -.3 6.1 c 0 .1 -.1 .2 -.2 .2 s -.2 -.1 -.3 -.2 l -1.8 -5.3 c -.1 -.4 -.5 -.6 -.9 -.5 s -.6 .4 -.5 .8 l 1.5 8.4 -4 -1.3 h -.1 c -.4 -.1 -.7 .2 -.8 .6 -.1 .5 .1 1 .6 1.3 l 4.8 3.3 c .4 .3 1 .5 1.5 .6 h .2 c .4 .1 .8 0 1.1 -.3 l .2 -.2 c .2 -.1 .3 0 .4 .2 v .3 l -.7 .5 c -.3 .2 -1.8 1.4 -2.2 1.6 l -2 21.5 -11.6 -.2 c -.7 0 -1.3 .5 -1.4 1.3 v .4 z"/><path d="m 97.6 214.8 s -9.6 -2.4 -11.3 -2.6 -8.8 0 -8.8 0 c -1.4 -.2 -2.6 .8 -2.8 2.2 s .8 2.6 2.2 2.8 h .6 19.9 c .7 0 1.2 -.6 1.2 -1.3 -.1 -.6 -.5 -1.1 -1 -1.1 z"/><path d="m 77.8 208.8 h 6.4 c .7 0 1.2 -.6 1.3 -1.2 l 1.2 -76.1 c 0 -.7 -.5 -1.3 -1.2 -1.3 h -.1 l -30.2 2.6 c -.7 0 -1.2 .6 -1.2 1.2 l 1.2 73.5 c 0 .7 .6 1.2 1.3 1.2 h 6.4 c .7 0 1.2 -.5 1.3 -1.2 l 4.2 -60.3 c 0 -.7 .6 -1.2 1.3 -1.2 h 1.3 c .7 0 1.2 .5 1.3 1.2 l 4.2 60.4 c 0 .7 .6 1.2 1.3 1.2 z"/><path d="m 63 212.1 s -7 -.2 -8.8 0 -11.3 2.5 -11.3 2.5 c -.4 .1 -.7 .3 -.9 .7 -.4 .6 -.3 1.4 .3 1.8 .2 .2 .5 .2 .7 .2 h 19.9 c 1.4 0 2.6 -1.1 2.6 -2.6 s -1 -2.6 -2.5 -2.6 z"/><path d="m 58.3 51.5 h .5 c .4 0 .8 .3 .8 .8 0 4.4 2.8 6.7 5.6 9.4 l .3 .3 .9 .9 c .2 .2 .3 .5 .1 .8 -.1 .2 -.3 .3 -.5 .3 h -.9 c -.2 0 -.3 .1 -.3 .3 v .1 c .8 3 4 4.7 7 3.9 1.9 -.5 3.4 -2 3.9 -3.9 0 -.2 -.1 -.3 -.2 -.4 0 0 0 0 -.1 0 h -.9 c -.3 0 -.6 -.2 -.6 -.5 0 -.2 .1 -.4 .2 -.5 l .9 -.9 .4 -.3 c 2.8 -2.8 5.6 -5 5.6 -9.4 0 -.4 .3 -.8 .8 -.8 h .5 c .6 0 1.1 -.4 1.1 -1 l .7 -5.1 c 0 -.3 -.3 -.6 -.6 -.6 -.2 0 -.4 .1 -.5 .2 -.2 .4 -.7 .5 -1.1 .3 -.2 -.1 -.3 -.3 -.4 -.5 l 1.5 -7.3 c .3 -1.5 -.6 -3 -2.2 -3.4 -.2 0 -.4 -.1 -.6 -.1 h -.5 c 0 -3.1 -2.5 -5.6 -5.6 -5.6 h -11.2 c -1.9 0 -3.4 1.5 -3.4 3.3 v .1 l 2.3 2.2 h -1.6 c -1.6 0 -2.8 1.3 -2.8 2.8 0 .2 0 .4 .1 .6 l 1.5 7.3 c -.1 .4 -.5 .7 -.9 .6 -.2 0 -.4 -.1 -.5 -.3 -.2 -.3 -.6 -.3 -.8 -.2 s -.3 .4 -.3 .6 l .7 5.1 c 0 .5 .5 .9 1.1 .9 z m 8.8 4.1 h 7.5 c .2 0 .3 .1 .3 .3 -.2 1.8 -3 2.6 -4.1 2.6 s -3.9 -.8 -4.1 -2.6 c .1 -.2 .2 -.3 .4 -.3 z"/><path d="m 282.5 95.1 h -185 c -1.4 0 -2.5 1.1 -2.5 2.5 s 1.1 2.5 2.5 2.5 h 185 c 1.4 0 2.5 -1.1 2.5 -2.5 s -1.1 -2.5 -2.5 -2.5 z"/><path d="m 32.5 95.1 h -30 c -1.4 0 -2.5 1.1 -2.5 2.5 s 1.1 2.5 2.5 2.5 h 30 c 1.4 0 2.5 -1.1 2.5 -2.5 s -1.1 -2.5 -2.5 -2.5 z"/></g></svg>