<svg viewBox="0 0 300 300" xmlns="http://www.w3.org/2000/svg"><g fill="#fff"><path d="m 280.19 254.09 a 3.31 3.31 0 0 0 -2.27 -2.45 l -41.58 -12.17 a 5.78 5.78 0 0 0 -3.37 0 l -29 9 c 19.62 1.4 43.25 28.79 65.28 47 l 10.88 -39.58 a 3.81 3.81 0 0 0 .06 -1.8 z" fill-rule="evenodd"/><path d="m 187.43 108.19 c 20.11 7.9 35.86 15.53 44.59 21.61 .66 .46 1.3 .91 1.88 1.36 5.28 -.31 8.48 -1.44 9.09 -3.45 2 -6.52 -23.85 -20.53 -62.19 -34.76 a 18.61 18.61 0 0 0 2.6 6.2 c 1.82 2.85 4.42 5.71 4.03 9.04 z" opacity=".8"/><path d="m 39.49 70.58 c 9.27 0 23.12 1.88 39.82 5.3 l 4.67 1 c 1.75 .38 3.54 .77 5.34 1.18 l 2.28 .52 4.7 1.11 q 3.24 .77 6.59 1.61 l 4.61 1.18 1.84 .48 c 0 -2.16 -.08 -4.33 -.15 -6.48 -.06 -2 -.13 -4 -.38 -5.94 -43.48 -11.12 -76.31 -14.73 -78.43 -7.81 -.62 2 1.41 4.73 5.61 7.94 1.08 -.06 2.25 -.09 3.5 -.09 z" opacity=".8"/><path d="m 109.34 82.94 l -1.84 -.48 -4.61 -1.18 q -3.35 -.84 -6.59 -1.61 l -4.7 -1.11 -2.28 -.56 c -1.8 -.41 -3.59 -.8 -5.34 -1.18 l -4.67 -1 c -16.7 -3.42 -30.55 -5.27 -39.82 -5.3 -1.25 0 -2.42 0 -3.5 .09 11.09 8.47 37.36 20.38 70.65 31.87 a 55.68 55.68 0 0 0 1.76 -6.71 66.85 66.85 0 0 0 .94 -12.83 z" opacity=".3"/><path d="m 249.72 37.9 c -4.89 -5.76 -11.66 -10.62 -19.22 -10.62 -10.28 0 -19.09 8.84 -29.36 8.48 -8.36 -.29 -15.3 -6.69 -19.88 -13.69 -3.34 -5.11 -5.93 -10.78 -10.19 -15.15 a 22 22 0 0 0 -15.39 -6.92 c -9.43 0 -15.65 5.7 -16 14.9 -.52 13.78 2.61 26.18 -.3 40.22 -.8 3.9 -2 8 -4.89 10.69 s -8.06 3.39 -10.71 .42 c -3.17 -3.56 -.91 -9.15 1.71 -13.13 2.4 -3.66 5.07 -7.28 6.17 -11.52 2.07 -8 -2 -16.54 -8.13 -22.07 -11.76 -10.62 -28.64 -15.12 -44 -16 -6.34 -.32 -13.07 -.43 -18.53 2.76 -5 2.89 -8.24 8.24 -9.36 13.89 a 32.75 32.75 0 0 0 1.67 17 15.09 15.09 0 0 0 2.82 5.27 c 3.31 3.68 8.85 4 13.78 4.43 a 107.79 107.79 0 0 1 25 5.13 c 5.71 1.91 10.07 7.2 12.48 12.83 a 21.22 21.22 0 0 1 1.46 5.72 c 10.36 2.65 21.32 5.71 32.62 9.17 14 4.29 27.32 8.78 39.37 13.26 a 14.76 14.76 0 0 1 -.31 -3.57 11.47 11.47 0 0 1 4.59 -8.87 c 2.43 -1.71 5.5 -2.2 8.45 -2.54 a 152.41 152.41 0 0 1 23 -.56 c 6.71 .23 13.29 2.29 20.06 2.75 6.33 .43 13.33 -.55 17.67 -5.18 a 17.62 17.62 0 0 0 3.94 -7.53 c 2.7 -10.32 -1.62 -21.47 -8.52 -29.57 z" opacity=".2"/><path d="m 108.81 70.52 c .25 2 .32 4 .38 5.94 .07 2.15 .13 4.32 .15 6.48 q 2.88 .75 5.81 1.55 5.09 1.38 10.31 2.87 6.17 1.77 12.49 3.71 l 4.2 1.29 9.56 3 c 6.58 2.15 12.94 4.33 19 6.52 5.83 2.09 11.41 4.18 16.69 6.26 .39 -3.33 -2.21 -6.2 -4 -9 a 18.61 18.61 0 0 1 -2.6 -6.2 c -12.05 -4.48 -25.33 -9 -39.37 -13.26 -11.3 -3.45 -22.26 -6.51 -32.62 -9.16 z"/><path d="m 154.68 105.08 a 25.71 25.71 0 0 1 17 9 c 1.19 .12 2.38 .22 3.57 .29 a 17.85 17.85 0 0 0 7.39 -.74 7.18 7.18 0 0 0 4.76 -5.31 v -.17 c -5.28 -2.08 -10.86 -4.17 -16.69 -6.26 -6.09 -2.19 -12.45 -4.37 -19 -6.52 q -4.71 -1.53 -9.56 -3 l -4.15 -1.3 q -6.31 -1.93 -12.49 -3.71 -5.22 -1.5 -10.31 -2.87 -2.93 -.8 -5.81 -1.55 a 66.9 66.9 0 0 1 -.94 12.89 55.68 55.68 0 0 1 -1.76 6.71 h .14 q 2.82 1 5.72 1.94 l .69 .23 c 1.84 .62 3.69 1.23 5.57 1.84 l .36 .12 c 1.89 .62 3.81 1.23 5.74 1.84 l 1.22 .38 q 2.91 .91 5.86 1.82 l -2.15 -.67 c 9.55 -3.04 19.04 -5.7 24.84 -4.96 z" opacity=".4"/><path d="m 232 129.8 c -8.73 -6.08 -24.48 -13.71 -44.59 -21.61 v .17 a 7.18 7.18 0 0 1 -4.76 5.31 17.85 17.85 0 0 1 -7.39 .74 c -1.19 -.07 -2.38 -.17 -3.57 -.28 a 36.21 36.21 0 0 1 5.46 8.87 c 25.16 5.86 45.6 8.81 56.75 8.16 -.58 -.45 -1.22 -.9 -1.9 -1.36 z" opacity=".3"/><path d="m 163.43 113.18 c -.38 -.24 -.76 -.47 -1.16 -.69 l -.66 -.36 c -.38 -.19 -.77 -.38 -1.17 -.55 l -.61 -.26 c -.41 -.16 -.83 -.32 -1.25 -.46 l -.49 -.15 c -.54 -.17 -1.11 -.32 -1.68 -.45 l -.42 -.09 c -.62 -.12 -1.26 -.24 -1.91 -.32 -3.65 -.47 -10.07 1 -16.05 2.74 -2 -.6 -4.05 -1.2 -6.09 -1.83 l 4.88 1.48 1.28 .38 3.67 1.07 .7 .21 c 9.94 2.88 19.55 5.44 28.62 7.65 a 24.39 24.39 0 0 0 -7.66 -8.37 z" opacity=".4"/><path d="m 204 248.48 l -.9 .27 a 3.27 3.27 0 0 0 -1.1 .69 6.43 6.43 0 0 0 -.67 .73 c -13.92 -13.66 -15 -42.7 -16.13 -70.8 -1.34 -34.79 -2.73 -70.75 -30.51 -74.29 -5.8 -.74 -15.29 1.93 -24.89 5 l 2.15 .67 c 2 .63 4.06 1.23 6.09 1.83 6 -1.73 12.4 -3.21 16.05 -2.74 23.74 3 25 35.41 26.31 69.7 1.14 29.54 2.31 60.09 18.34 74.82 .47 .42 .94 .83 1.42 1.22 a 6.52 6.52 0 0 0 1 2.14 l 18.84 27.47 a 6.68 6.68 0 0 0 3.49 2.52 l 41.63 12.18 a 2.89 2.89 0 0 0 3.5 -2.11 c .01 -.04 .02 -.08 .03 -.12 l .59 -2.15 c -22 -18.24 -45.63 -45.63 -65.24 -47.03 z" fill-rule="evenodd" opacity=".5"/><path d="m 185.77 192.85 l -.15 -3.09 z"/><path d="m 185.55 188.22 c -.05 -1.08 -.09 -2.17 -.14 -3.25 .05 1.08 .09 2.16 .14 3.25 z"/><path d="m 185.36 183.7 c -.06 -1.44 -.11 -2.89 -.17 -4.33 .06 1.44 .11 2.89 .17 4.33 z"/><path d="m 186.07 198.21 c -.08 -1.29 -.16 -2.58 -.22 -3.88 .07 1.3 .15 2.59 .22 3.88 z"/><path d="m 243.41 126.27 l -.44 -.13 a 2.8 2.8 0 0 1 0 1.57 c -1.91 6.25 -28.75 3.93 -65.84 -4.71 4.62 10.4 6.33 24.27 7.23 39 a 1.92 1.92 0 0 0 0 -.24 c 12.88 -2.09 27.91 -6.52 45.74 -14 -6.45 19.55 -22.58 38.34 -44 51 .25 3.83 .55 7.61 1 11.29 a 111.3 111.3 0 0 0 29.4 -24.9 32.66 32.66 0 1 0 27 -58.86 z m 10.45 37.35 a 20.88 20.88 0 0 1 -30.37 12 111.16 111.16 0 0 0 13.7 -29 l 2.78 -9.11 a 20.93 20.93 0 0 1 13.89 26.11 z"/><path d="m 181.43 200.93 v .4 c -35.74 19 -84.42 21 -127.65 -16.66 -18.62 -16.22 -29.46 -51.42 -21.32 -90.14 74.89 -7.94 66.79 77.73 147.12 67.88 -1 -16.39 -2.88 -31.13 -8.52 -40.85 -12.24 -3 -25.45 -6.61 -39.15 -10.8 -58.69 -17.94 -104.15 -39.44 -101.53 -48.03 l -5.78 18.91 a 111.14 111.14 0 0 0 157.9 130.93 c -.45 -3.8 -.79 -7.69 -1.07 -11.64 z"/><path d="m 179.61 162.42 c .33 5.57 .55 11.32 .78 17.13 -.23 -5.81 -.45 -11.55 -.78 -17.13 z"/><path d="m 181.12 196.05 v -.75 a 6.26 6.26 0 0 0 0 .75 z"/><path d="m 180.63 185.74 v -1.38 a 10.59 10.59 0 0 0 0 1.38 z"/><path d="m 180.87 191 c 0 -.51 -.05 -1 -.08 -1.53 .03 .53 .05 1.04 .08 1.53 z"/><g fill-rule="evenodd"><path d="m 184.37 161.72 c .36 5.81 .59 11.75 .82 17.65 .25 6.47 .5 13 .91 19.37 21.43 -12.66 37.56 -31.45 44 -51 -17.82 7.46 -32.85 11.89 -45.73 13.98 z" opacity=".8"/><path d="m 180.39 179.55 c -.23 -5.81 -.45 -11.57 -.78 -17.14 -80.33 9.85 -72.23 -75.82 -147.12 -67.88 -8.14 38.72 2.7 73.92 21.32 90.14 43.19 37.62 91.91 35.63 127.65 16.66 -.46 -7.15 -.79 -14.49 -1.07 -21.78 z" opacity=".8"/></g></g></svg>