<svg enable-background="new 0 0 594.8710938 956.3319702" viewBox="0 0 594.87 956.33" xmlns="http://www.w3.org/2000/svg"><path d="m 527.38 480.43 c -27.3 -34.65 -44.1 -57.75 -55.65 -78.75 -15.75 -29.4 -21 -51.45 -28.35 -86.1 -1.05 -6.3 -3.15 -12.6 -5.25 -19.95 -17.85 -75.6 -51.45 -127.05 -145.95 -128.1 37.8 -94.5 116.55 -107.1 116.55 -107.1 9.45 -22.05 -5.25 -32.55 -5.25 -32.55 -54.6 14.7 -88.2 66.15 -106.05 103.95 10.5 -51.45 -19.95 -93.45 -63 -100.8 -45.15 -8.4 -72.45 -25.2 -72.45 -25.2 s -12.6 98.7 63 107.1 c 55.65 6.3 68.25 18.9 70.35 24.15 -5.25 12.6 -9.45 24.15 -10.5 30.45 -18.9 1.05 -88.2 6.3 -115.5 57.75 -32.55 60.9 -37.8 174.3 -72.45 219.45 s -133.35 162.75 -71.4 325.5 c 60.9 161.7 189 173.25 252 179.55 h 1.05 c 6.3 1.05 12.6 1.05 19.95 1.05 9.45 0 19.95 0 31.5 -1.05 s 23.1 -3.15 35.7 -5.25 c 18.9 -4.2 37.8 -9.45 56.7 -17.85 48.3 -21 95.55 -56.7 124.95 -117.6 22.05 -44.1 35.7 -86.1 39.9 -126 0 -3.15 1.05 -7.35 1.05 -10.5 1.05 -7.35 1.05 -14.7 1.05 -21 1.05 -63 -21 -119.7 -61.95 -171.15 z" fill="#fff"/></svg>