<svg viewBox="0 0 300 300" xmlns="http://www.w3.org/2000/svg"><g fill="#fff"><path d="m 296.64 75.42 c 12.3 -35.91 -12.37 -59.15 -23.4 -67.4 a 37.79 37.79 0 0 1 10.05 16.13 c 5.58 17.13 1 37.76 -12.19 55.21 q -2.53 3.35 -5.16 6.37 c 13.54 -.73 25.06 -3.2 30.7 -10.31 z" opacity=".5"/><path d="m 230.24 110 a 39.83 39.83 0 0 1 -24.64 -1.66 c 41.13 26.09 75.64 -3.4 84.37 -18.49 a 81.75 81.75 0 0 0 6.67 -14.47 c -5.64 7.15 -17.16 9.62 -30.7 10.35 -11.25 13 -23.48 21.36 -35.7 24.27 z" opacity=".3"/><path d="m 283.29 24.15 c -3.79 -11.63 -11.97 -20.15 -22.44 -23.28 -4.41 -1.33 -11 -1.12 -18 .58 a 70.34 70.34 0 0 0 -42.95 31.93 c -18.9 30.94 -19 60.55 -.26 72 a 39.66 39.66 0 0 0 30.6 4.66 c 14.11 -3.41 28.24 -14 40.86 -30.68 13.21 -17.45 17.77 -38.08 12.19 -55.21 z m -13.4 54.35 c -24.2 32 -50.36 37 -69.3 25.44 s -16.72 -41.48 .56 -69.78 47.74 -35.1 59.09 -31.68 c 24.54 7.41 33.85 44.06 9.65 76.02 z" opacity=".6"/><path d="m 260.24 2.48 c -11.35 -3.42 -41.8 3.39 -59.09 31.68 s -19.49 58.21 -.56 69.78 45.1 6.52 69.3 -25.44 14.89 -68.61 -9.65 -76.02 z m -23 29.8 c .58 -7.42 .11 -13.55 1.34 -20.91 .72 -4.27 4.13 -4.52 7.88 -5.51 5.42 -1.42 19.75 1.71 17.15 6 -5.23 8.65 -7 10.88 -9.43 13.92 -4.13 5.19 -8.81 11.13 -13.7 15.66 -5.57 5.17 -3.38 -7.11 -3.23 -9.16 z m -41.78 21.66 a 64.85 64.85 0 0 1 4.19 -10.94 c 1.24 -2.54 2.74 -6.48 4.92 -8.38 s 3.27 -.43 4.8 1 l 7.86 7.23 7.61 7 c .86 .8 1.94 1.45 1.85 2.76 -.2 2.88 -2.92 3.15 -5.08 3.7 l -11.72 3 -10.71 2.69 c -2.13 .53 -4.48 1.68 -5.21 -1.1 -.48 -1.8 1.03 -5.19 1.49 -6.96 z m .26 36.17 c -3.27 -4.39 -6.49 -13.91 -5.58 -19.56 a 3.9 3.9 0 0 1 2.68 -3.18 c 2.61 -1.11 5.85 -1.5 8.58 -2.21 l 13.15 -3.39 c 1.61 -.41 8.35 -3.3 8.1 .3 -.16 2.24 -3.16 4.85 -4.46 6.48 l -9.25 11.6 c -2.23 2.8 -4.43 5.62 -6.7 8.4 -2.1 2.58 -4.24 4.62 -6.52 1.56 z m 33.77 -13.32 c -.61 7.8 -.55 16 -1.85 23.7 -.76 4.49 -3.51 4.48 -7.61 4.2 -3.66 -.24 -17.49 -2.61 -17 -7.88 a 6.1 6.1 0 0 1 1.66 -3 c 2.47 -3.26 5.13 -6.39 7.69 -9.58 4.38 -5.45 8.5 -12.27 13.68 -17 5.94 -5.49 3.6 7.41 3.43 9.56 z m -3.14 -30.35 l -9.35 -8.44 c -1.92 -1.72 -7.69 -5.1 -7.7 -8.06 0 -2.38 3.26 -4.59 4.86 -6 a 60.78 60.78 0 0 1 7.87 -6 c 2.27 -1.45 7.78 -6.37 10.63 -6.18 3.87 .24 .81 14.65 .68 17.13 l -.88 16.81 c -.33 5.3 -4.31 2.35 -6.11 .74 z m 28.46 43.67 a 66.87 66.87 0 0 1 -8.81 6.44 c -2.54 1.54 -8 5.45 -11.21 5.18 -4.26 -.35 -1.22 -14.74 -1 -17.46 q .71 -9.22 1.4 -18.45 c .44 -5.83 4.77 -2.51 6.72 -.71 l 10.09 9.44 c 2.09 1.93 8.39 5.78 8.32 9 -.04 2.65 -3.71 5 -5.51 6.56 z m 21.08 -35 a 71.11 71.11 0 0 1 -4.64 12 c -1.38 2.79 -3 7.11 -5.44 9.2 s -3.63 .47 -5.32 -1.08 l -8.69 -7.93 -8.42 -7.7 c -.95 -.87 -2.15 -1.59 -2 -3 .22 -3.16 3.23 -3.46 5.62 -4.06 l 13 -3.27 11.86 -3 c 2.35 -.59 5 -1.85 5.76 1.2 .46 2 -1.17 5.72 -1.73 7.68 z m .57 -14.27 c -2.88 1.23 -6.47 1.65 -9.5 2.43 l -14.55 3.73 c -1.78 .45 -9.24 3.63 -8.95 -.33 .17 -2.45 3.49 -5.33 4.92 -7.11 l 10.25 -12.75 c 2.47 -3.08 4.91 -6.18 7.41 -9.23 2.33 -2.84 4 -3.39 6.5 0 3.61 4.82 7.89 13.58 6.88 19.78 a 4.28 4.28 0 0 1 -2.96 3.52 z"/><path d="m 271.78 46.25 l -11.86 3 -13 3.27 c -2.39 .6 -5.4 .9 -5.62 4.06 -.11 1.44 1.09 2.16 2 3 l 8.42 7.7 8.69 7.94 c 1.69 1.55 3 3.06 5.32 1.08 s 4.06 -6.41 5.44 -9.2 a 71.11 71.11 0 0 0 4.64 -12 c .56 -2 2.19 -5.68 1.65 -7.7 -.73 -3 -3.33 -1.74 -5.68 -1.15 z" opacity=".6"/><path d="m 252 74.55 l -10.18 -9.44 c -2 -1.8 -6.28 -5.12 -6.72 .71 q -.7 9.23 -1.4 18.45 c -.2 2.72 -3.24 17.11 1 17.46 3.16 .27 8.67 -3.64 11.21 -5.18 a 66.69 66.69 0 0 0 8.86 -6.44 c 1.8 -1.56 5.47 -3.91 5.53 -6.53 .11 -3.25 -6.19 -7.1 -8.3 -9.03 z" opacity=".6"/><path d="m 226.07 67.16 c -5.18 4.76 -9.3 11.58 -13.68 17 -2.56 3.19 -5.22 6.32 -7.69 9.58 a 6.1 6.1 0 0 0 -1.66 3 c -.5 5.27 13.33 7.64 17 7.88 4.1 .28 6.85 .29 7.61 -4.2 1.3 -7.73 1.24 -15.9 1.85 -23.7 .16 -2.08 2.5 -14.98 -3.43 -9.56 z" opacity=".6"/><path d="m 272.54 17.6 c -2.52 -3.37 -4.17 -2.82 -6.5 0 -2.5 3.05 -4.94 6.15 -7.41 9.23 l -10.25 12.77 c -1.43 1.78 -4.75 4.66 -4.92 7.11 -.29 4 7.17 .78 8.95 .33 l 14.59 -3.73 c 3 -.78 6.62 -1.2 9.5 -2.43 a 4.28 4.28 0 0 0 3 -3.5 c .93 -6.2 -3.35 -14.96 -6.96 -19.78 z" opacity=".6"/><path d="m 199.18 62 l 10.71 -2.72 11.72 -3 c 2.16 -.55 4.88 -.82 5.08 -3.7 .09 -1.31 -1 -2 -1.85 -2.76 l -7.61 -7 -7.86 -7.23 c -1.53 -1.42 -2.75 -2.79 -4.8 -1 s -3.68 5.84 -4.92 8.38 a 64.82 64.82 0 0 0 -4.19 10.9 c -.5 1.77 -2 5.16 -1.49 7 .73 2.85 3.08 1.7 5.21 1.13 z" opacity=".6"/><path d="m 232.61 11.73 c -2.85 -.19 -8.36 4.73 -10.63 6.18 a 60.78 60.78 0 0 0 -7.87 6 c -1.6 1.45 -4.86 3.66 -4.86 6 0 3 5.78 6.34 7.7 8.06 l 9.4 8.4 c 1.8 1.61 5.78 4.54 6.06 -.77 l .88 -16.81 c .13 -2.41 3.19 -16.79 -.68 -17.06 z" opacity=".6"/><path d="m 240.49 41.46 c 4.89 -4.53 9.57 -10.47 13.7 -15.66 2.42 -3 4.2 -5.27 9.43 -13.92 2.6 -4.31 -11.73 -7.44 -17.15 -6 -3.75 1 -7.16 1.24 -7.88 5.51 -1.23 7.36 -.76 13.49 -1.34 20.91 -.15 2.03 -2.34 14.31 3.24 9.16 z" opacity=".6"/><path d="m 218.19 68.55 c 1.3 -1.63 4.3 -4.24 4.46 -6.48 .25 -3.6 -6.49 -.71 -8.1 -.3 l -13.15 3.39 c -2.73 .71 -6 1.1 -8.58 2.21 a 3.9 3.9 0 0 0 -2.68 3.18 c -.91 5.65 2.31 15.17 5.58 19.56 2.28 3.06 4.42 1 6.52 -1.56 2.27 -2.78 4.47 -5.6 6.7 -8.4 z" opacity=".6"/><path d="m 238.8 67.29 s .1 8.46 3 7.18 -3 -7.18 -3 -7.18 z"/><path d="m 248.67 55.25 s 7 4.88 7.72 1.89 -7.72 -1.89 -7.72 -1.89 z"/><path d="m 227 70.78 s -5.89 6.3 -2.93 7.27 2.93 -7.27 2.93 -7.27 z"/><path d="m 218.19 63.87 s -8.56 1.58 -6.84 4.1 6.84 -4.1 6.84 -4.1 z"/><path d="m 221 53.3 s -5.91 -3.88 -6.24 -.85 6.24 .85 6.24 .85 z"/><path d="m 229.06 44.21 s 0 -7 -2.72 -5.51 2.72 5.51 2.72 5.51 z"/><path d="m 240 38.58 s 4.91 -5.16 1.88 -5.89 -1.88 5.89 -1.88 5.89 z"/><path d="m 249 44.06 s 8 -3.39 5.75 -5.47 -5.75 5.47 -5.75 5.47 z"/><path d="m 192.09 284 l -.24 -.13 c -6.54 5.79 -16.08 9.7 -29.84 9.7 -25.08 0 -41.15 -13.85 -50.76 -27 5 17.42 13.7 31.54 31.42 33.2 14.51 1.34 31.33 -2.47 49.42 -15.77 z" opacity=".5"/><path d="m 111.25 266.53 a 85.98 85.98 0 0 1 -12.09 -23.18 s -9.74 14.8 -7.28 21.85 c 3.52 10.08 22.9 31.89 50.79 34.53 -17.67 -1.66 -26.39 -15.73 -31.42 -33.2 z" opacity=".3"/><path d="m 203.27 236.61 l -104.11 6.74 s 15.11 50.17 62.85 50.17 44.77 -46.93 41.26 -56.91 z m -78.18 35.18 c -3.18 2.83 -5.12 .51 -7.88 -3.16 -2.46 -3.27 -10.93 -16.76 -7.49 -20.4 .83 -.88 1.88 -.84 3 -1 3.67 -.44 7.4 -.62 11.09 -.92 6.32 -.52 13.24 -2.32 19.73 -1.63 7.38 .79 -1.83 8.8 -3.21 10.32 -5.04 5.55 -9.78 11.92 -15.24 16.79 z m 31.48 14.21 c -1.58 2 -5.57 .7 -7.76 .38 a 54.22 54.22 0 0 1 -10.09 -2.48 c -2.71 -1 -8.8 -4.66 -9.06 -8.2 -.35 -4.6 5.81 -9.67 7.55 -11.59 l 11.79 -13.11 c 3.73 -4.14 4.87 2.07 5.2 5.11 q .85 7.94 1.72 15.88 c .37 3.29 2.61 11.56 .65 14.01 z m 35.12 -11.75 c -.22 1.95 -.68 3.41 -4 6.13 -3.06 2.47 -6.81 3.88 -10.49 5.2 -2.67 1 -8.74 1.13 -11.78 .64 -2.87 -.48 -3 -2.82 -3.38 -5.51 q -.94 -6.89 -1.9 -13.77 -.93 -6.68 -1.85 -13.35 c -.21 -1.51 -.69 -3.12 .22 -4.14 2 -2.25 4.46 .15 6.62 1.79 l 11.68 8.84 10.68 8.1 c 2.08 1.61 4.56 2.82 4.2 6.08 z m 10.53 -28.86 c -.25 6.76 -2.33 17.14 -6.69 21.08 -1.31 1.19 -2.58 1 -4.16 .2 -2.77 -1.48 -5.58 -4.17 -8.19 -6.12 l -12.55 -9.38 c -1.53 -1.15 -8.71 -5 -6.18 -7.8 1.56 -1.75 5.61 -1.17 7.67 -1.34 l 14.77 -1.22 c 3.56 -.3 7.12 -.64 10.69 -.89 3.32 -.22 4.82 .75 4.64 5.48 z"/><path d="m 187.45 268.19 l -10.68 -8.1 -11.68 -8.84 c -2.16 -1.64 -4.6 -4 -6.62 -1.79 -.91 1 -.43 2.63 -.22 4.14 q .92 6.68 1.85 13.35 .94 6.89 1.9 13.77 c .37 2.69 .51 5 3.38 5.51 3 .49 9.11 .31 11.78 -.64 3.68 -1.32 7.43 -2.73 10.49 -5.2 3.36 -2.72 3.82 -4.18 4 -6.13 .4 -3.26 -2.08 -4.47 -4.2 -6.07 z" opacity=".6"/><path d="m 154.22 256.15 c -.33 -3 -1.47 -9.25 -5.2 -5.11 l -11.81 13.08 c -1.74 1.92 -7.9 7 -7.55 11.59 .26 3.54 6.35 7.24 9.06 8.2 a 54.22 54.22 0 0 0 10.09 2.48 c 2.19 .32 6.18 1.6 7.76 -.38 2 -2.46 -.28 -10.73 -.63 -14 q -.85 -7.91 -1.72 -15.86 z" opacity=".6"/><path d="m 143.51 244.72 c -6.49 -.69 -13.41 1.11 -19.73 1.63 -3.69 .3 -7.42 .48 -11.09 .92 -1.09 .12 -2.14 .08 -3 1 -3.44 3.64 5 17.13 7.49 20.4 2.76 3.67 4.7 6 7.88 3.16 5.46 -4.87 10.2 -11.24 15.21 -16.75 1.41 -1.56 10.62 -9.57 3.24 -10.36 z" opacity=".6"/><path d="m 197.58 239.93 c -3.57 .25 -7.13 .59 -10.69 .89 l -14.77 1.18 c -2.06 .17 -6.11 -.41 -7.67 1.34 -2.53 2.82 4.65 6.65 6.18 7.8 l 12.55 9.38 c 2.61 1.95 5.42 4.64 8.19 6.12 1.58 .84 2.85 1 4.16 -.2 4.36 -3.94 6.44 -14.32 6.69 -21.08 .18 -4.69 -1.32 -5.66 -4.64 -5.43 z" opacity=".6"/><path d="m 150.78 255.28 s -4.89 6.61 -2.1 8 2.1 -8 2.1 -8 z"/><path d="m 164.47 255.21 s 2.15 9.69 4.39 8 -4.39 -8 -4.39 -8 z"/><path d="m 142 248.29 s -7.89 -.09 -6.35 3.15 6.35 -3.15 6.35 -3.15 z"/><path d="m 170 246 s 7.69 4.13 7.31 .62 -7.31 -.62 -7.31 -.62 z"/><path d="m 175.44 59.67 s -20.14 -8.21 -29.85 5.33 5.41 23.21 11.19 16.28 1.06 -12.85 18.66 -21.61 z" fill-rule="evenodd" opacity=".5"/><path d="m 182.12 50.36 s -5.39 -9.79 -12.54 -8.12 -4.05 10.33 -.07 9.75 3.74 -4.35 12.61 -1.63 z" fill-rule="evenodd" opacity=".5"/><path d="m 149.07 66.34 a 13.71 13.71 0 0 1 -.67 3.14 c -.27 .92 -.5 1.76 -.66 2.59 a 19.92 19.92 0 0 0 -.33 2.53 c -.1 .92 0 1.88 -.1 3.09 a 5.14 5.14 0 0 1 -2.22 -2.69 6.38 6.38 0 0 1 -.29 -3.57 7 7 0 0 1 1.55 -3.13 7.92 7.92 0 0 1 2.72 -1.96 z"/><path d="m 168.82 44.51 a 4.35 4.35 0 0 1 -.34 1.22 l -.35 .92 -.33 .89 a 10.18 10.18 0 0 1 -.43 1.15 2.24 2.24 0 0 1 -.64 -2.58 2.56 2.56 0 0 1 .84 -1.1 2.52 2.52 0 0 1 1.25 -.5 z"/><path d="m 60.14 89.76 c 9.92 -3 35.48 2.54 63.54 14.49 27.39 11.67 48.75 25.84 54.11 35.12 4.54 -.38 7.79 -1.57 9.36 -3.61 l .65 -1.11 c 4.06 -9.51 -22.18 -29.8 -58.59 -45.31 s -69.21 -20.34 -73.28 -10.87 l -.34 1.23 c -.42 2.74 1.23 6.19 4.55 10.06 z" opacity=".3"/><path d="m 123.68 104.25 c -28.06 -12 -53.62 -17.52 -63.54 -14.49 8.73 10.17 29.1 23.25 54.39 34 26 11.07 50.08 16.71 63.26 15.59 -5.36 -9.26 -26.72 -23.43 -54.11 -35.1 z" opacity=".6"/><path d="m 89.29 291.27 c -24.59 2.56 -74.49 -12.82 -77.66 -36.84 27 -80.79 70.72 -16.79 92.3 -73.23 16.61 -43.44 45.77 -25.19 65.6 -32.35 a 21.66 21.66 0 0 0 8.18 -5.19 l -2.57 4.28 -56.39 94.14 5.76 -.37 62.64 -106 c -1.57 2 -4.82 3.23 -9.36 3.61 -13.18 1.12 -37.29 -4.52 -63.26 -15.59 -25.29 -10.73 -45.66 -23.8 -54.39 -33.97 -3.32 -3.87 -5 -7.32 -4.55 -10.06 l -48.43 173.89 c -4.06 9.51 12.39 25.63 36.72 36 s 47.35 11.06 51.4 1.55 l 6.75 -11.4 c -1.28 -1.3 -2.45 -2.6 -3.52 -3.87 z"/><path d="m 177.71 143.66 a 21.66 21.66 0 0 1 -8.18 5.19 c -19.83 7.16 -49 -11.09 -65.6 32.35 -21.58 56.44 -65.28 -7.56 -92.3 73.23 3.17 24 53.07 39.4 77.66 36.84 l 9.22 -15.4 a 37.43 37.43 0 0 1 -6.63 -10.67 c -2.46 -7.05 7.28 -21.85 7.28 -21.85 l 19.59 -1.27 56.39 -94.14 z" opacity=".6"/></g></svg>