<svg viewBox="0 0 300 300" xmlns="http://www.w3.org/2000/svg"><g fill="#fff"><path d="m 192.19 260.76 c -15.28 -16.89 -21.35 -36.92 -17 -51.34 a 39.14 39.14 0 0 0 1.46 -6 21.15 21.15 0 0 0 -4.35 -14.42 c -66.9 -86.41 -143.3 -163.94 -147.53 -168.31 a 13.69 13.69 0 0 1 -3.85 -10.15 10.42 10.42 0 0 1 4.62 -8 11.95 11.95 0 0 0 -3.1 1.46 10.41 10.41 0 0 0 -4.81 8.11 13.63 13.63 0 0 0 3.86 10.15 c 4.24 4.38 80.62 81.9 147.53 168.34 a 21.19 21.19 0 0 1 4.37 14.4 38.07 38.07 0 0 1 -1.46 6 c -4.38 14.41 -5 37.72 10.32 54.61 26.51 29.3 67.82 40.74 86.12 30.12 -18.7 7.12 -51.21 -7.38 -76.18 -34.97 z" opacity=".6"/><path d="m 255.39 216.62 c -11.94 -13.19 -27 -21.92 -41 -25 0 0 -15.53 -3.93 -20.51 -9.56 -80.1 -90.19 -144.35 -171.06 -147.74 -175.28 -5.09 -6.32 -14.35 -8.3 -20.41 -4.36 a 10.42 10.42 0 0 0 -4.81 8.12 13.69 13.69 0 0 0 3.85 10.15 c 4.23 4.37 80.63 81.9 147.53 168.31 a 21.15 21.15 0 0 1 4.38 14.37 39.14 39.14 0 0 1 -1.46 6 c -4.38 14.42 1.69 34.45 17 51.34 27.25 30.11 63.5 44.65 80.95 32.46 s 9.48 -46.43 -17.78 -76.55 z m 15.5 73.58 c -14.18 9.71 -45.77 -4.95 -70.56 -32.74 -19.24 -21.57 -23.83 -47.46 -9.65 -57.16 s 41.48 .14 61 22 c 24.78 27.8 33.39 58.2 19.21 67.9 z"/><path d="m 251.66 222.31 c -19.5 -21.87 -46.8 -31.72 -61 -22 s -9.59 35.59 9.65 57.16 c 24.79 27.79 56.38 42.45 70.56 32.74 s 5.59 -40.11 -19.21 -67.9 z" opacity=".8"/></g></svg>