<svg enable-background="new 0 0 930.6381836 956.0111694" viewBox="0 0 930.64 956.01" xmlns="http://www.w3.org/2000/svg"><path d="m 839.36 134.21 c -88.64 -8.05 -249.7 -47.67 -293.29 -94.48 4.3 -7.02 8.88 -13.96 13.96 -20.65 0 0 5.98 -14.96 -10.48 -13.47 -4.32 6.19 -11.59 16.19 -19.74 29.88 -37.96 10.31 -108.47 86.98 -336.88 125.53 -84.98 14.34 -156.17 64.52 -186.62 69.51 21.86 14.84 42.17 24.21 85.1 24.21 181.22 0 380.45 -185.58 430.65 -205.52 -15.17 28.53 -31.08 68.8 -35.94 120.35 -4.35 -3.74 -9.03 -7.11 -14.11 -10.04 -57.88 -33.33 -140.74 2.1 -185.08 79.12 -44.35 77.01 -33.38 166.47 24.48 199.78 57.87 33.33 140.73 -2.1 185.07 -79.11 4.56 -7.91 8.5 -15.96 11.9 -24.07 10.36 30.17 24.62 62.28 43.61 96.29 -5.23 2.1 -10.28 4.66 -15.1 7.79 -56.15 36.48 -60.01 130.2 -8.6 209.33 26.18 40.31 61.66 69.01 97.59 82.69 h -.03 c 24.58 11.76 29.26 16.13 29.26 48.28 0 45.69 -37.15 71.06 -37.15 119.35 0 28.45 23.07 51.52 51.53 51.52 s 51.53 -23.07 51.53 -51.52 c 0 -33.77 -43.08 -85.52 -43.08 -119.35 0 -6.16 4.45 -32.42 18.4 -42.21 3.9 -.99 7.71 -2.22 11.44 -3.71 h .03 -.02 c 5.28 -2.11 10.37 -4.69 15.24 -7.85 56.15 -36.49 60.01 -130.2 8.61 -209.32 -42.22 -64.98 -108.57 -99.89 -162.06 -90.07 -19.79 -29.26 -38.96 -72.11 -51.29 -121.1 10.5 -42.59 5.52 -84.21 -13.61 -114.23 1 -50.23 11.96 -100.92 37.97 -145.91 123.31 154.87 246.16 187.21 326.64 179.98 81.02 -7.27 76.27 -81.34 -29.93 -91 z m -109.14 80.41 c -85.56 -32.1 -173.39 -8.89 -196.16 51.84 -22.78 60.73 28.11 135.96 113.66 168.06 85.54 32.1 173.38 8.88 196.16 -51.84 22.79 -60.73 -28.11 -135.97 -113.66 -168.06 z" fill="#fff"/></svg>