<svg enable-background="new 0 0 841.889 595.281" height="595.28" viewBox="0 0 841.89 595.28" width="841.89" xmlns="http://www.w3.org/2000/svg"><path d="m 651.18 534.86 c -22.09 -8.14 -39.54 -33.72 -58.14 -31.4 -118.61 9.3 -140.7 39.54 -222.1 58.14 -25.58 5.81 -63.96 18.61 -104.65 18.61 -41.86 0 -87.21 0 -117.45 -32.56 -25.58 -27.91 -24.42 -98.84 -29.07 -83.72 -3.49 15.12 8.14 65.12 2.33 68.61 s -29.07 16.28 -58.14 12.79 c -22.09 -2.33 -50 -18.6 -55.82 -26.75 -5.81 -10.47 -9.3 -27.91 -6.98 -43.02 1.16 -12.79 8.14 -24.42 19.77 -29.07 30.23 -12.79 29.07 36.05 33.72 48.84 4.65 13.95 0 -54.65 5.81 -60.47 16.28 -15.12 39.54 -5.81 41.86 -6.98 9.3 -5.81 63.96 -115.12 205.82 -184.89 58.14 -29.07 240.71 -89.54 269.78 -138.38 30.23 -50 -37.21 -56.98 -37.21 -56.98 -3.49 -15.12 90.7 -11.63 79.07 48.84 -18.6 103.49 -363.97 195.36 -440.71 289.55 -13.95 17.44 -27.91 41.86 -36.05 53.49 -12.79 22.09 12.79 -18.61 39.54 -50 11.63 -12.79 23.26 -20.93 31.4 -27.91 29.07 -22.09 54.65 -30.23 97.68 -53.49 70.93 -38.37 152.33 -77.91 211.64 -112.8 80.24 -47.68 182.56 -94.19 245.36 -163.96 10.47 -12.79 13.95 -18.61 16.28 -16.28 4.65 4.65 2.33 18.61 1.16 24.42 -6.98 20.93 -40.7 60.47 -58.14 75.58 -20.93 17.44 -86.05 53.49 -146.52 82.56 -106.98 53.49 -230.24 104.66 -282.57 130.24 -22.09 9.3 -36.05 18.61 -24.42 16.28 s 50 -18.61 93.03 -37.21 c 59.31 -25.58 155.82 -72.1 232.57 -109.31 52.33 -25.58 108.14 -67.44 168.61 -48.84 13.95 4.65 26.75 11.63 25.58 9.3 -8.14 -12.79 -53.49 -20.93 -69.77 -19.77 -10.47 0 -18.61 1.16 -11.63 -2.33 s 27.91 -10.47 46.51 -11.63 c 8.14 -1.16 80.24 10.47 81.4 13.95 1.16 3.49 -9.3 10.47 -13.95 16.28 -18.61 18.61 -36.05 -4.65 -24.42 12.79 29.07 46.51 24.42 70.93 -23.26 113.96 -51.17 46.51 -106.98 76.75 -172.1 101.17 -73.26 26.75 -143.03 50 -215.12 80.24 -45.35 18.61 -131.4 61.63 -176.75 61.63 -36.05 1.16 -55.82 -15.12 -66.28 -41.86 -1.16 -2.33 1.16 89.54 169.77 19.77 68.61 -29.07 129.07 -54.65 200.01 -80.24 81.4 -29.07 150.01 -48.84 223.26 -96.52 16.28 -10.47 24.42 -17.44 30.23 -24.42 16.28 -20.93 30.23 -32.56 43.03 9.3 3.49 15.12 -20.93 1.16 -24.42 0 -5.81 -1.16 -70.93 51.17 -87.21 60.47 -6.98 4.65 -9.3 5.81 -4.65 9.3 32.56 18.61 46.51 36.05 47.68 76.75 0 10.47 -4.65 23.26 -8.14 18.61 -25.58 -39.54 -51.17 -48.84 -69.77 -50 -46.51 -2.33 -52.33 10.47 -186.05 58.14 -15.12 5.81 -26.75 11.63 -17.44 10.47 9.3 -2.33 41.86 -12.79 67.44 -18.61 40.7 -10.47 94.19 -16.28 123.26 22.09 11.62 13.97 13.94 44.21 -4.67 37.23 z m -445.36 -93.03 l -3.49 -11.63 c -3.49 -6.98 -12.79 -11.63 -19.77 -8.14 -8.14 3.49 -11.63 11.63 -8.14 19.77 l 4.65 10.47 c 2.33 8.14 11.63 11.63 18.6 8.14 8.15 -2.33 11.64 -11.63 8.15 -18.61 z m 15.12 46.51 l -4.65 -11.63 c -2.33 -6.98 -11.63 -10.47 -18.61 -8.14 v 1.16 c -8.14 2.33 -11.63 11.63 -8.14 18.61 l 3.49 11.63 c 3.49 6.98 12.79 10.47 19.77 8.14 8.14 -3.48 11.63 -12.79 8.14 -19.77 z m 38.37 -13.95 l -4.65 -11.63 c -2.33 -6.98 -11.63 -10.47 -18.61 -8.14 -8.14 3.49 -11.63 11.63 -8.14 19.77 l 4.65 10.47 c 2.33 8.14 11.63 11.63 18.6 8.14 8.15 -2.33 11.64 -11.63 8.15 -18.61 z m 40.7 -12.79 l -3.49 -11.63 c -3.49 -6.98 -12.79 -10.47 -19.77 -6.98 -8.14 2.33 -11.63 11.63 -8.14 18.61 l 4.65 11.63 c 2.33 6.98 11.63 10.47 18.61 8.14 8.14 -3.49 11.63 -12.79 8.14 -19.77 z m 37.21 -12.79 l -4.65 -11.63 c -3.49 -6.98 -11.63 -10.47 -19.77 -8.14 -6.98 3.49 -11.63 12.79 -8.14 19.77 l 4.65 11.63 c 3.49 6.98 11.63 10.47 19.77 8.14 6.98 -3.49 10.47 -12.79 8.14 -19.77 z m 41.86 -17.44 l -4.65 -11.63 c -2.33 -6.98 -11.63 -10.47 -18.61 -8.14 -8.14 3.49 -11.63 12.79 -8.14 19.77 l 4.65 11.63 c 2.33 6.98 11.63 10.47 18.6 8.14 8.15 -3.49 11.64 -12.8 8.15 -19.77 z m 37.21 -16.28 l -4.65 -10.47 c -2.33 -8.14 -11.63 -11.63 -18.6 -8.14 -8.14 3.49 -11.63 11.63 -8.14 19.77 l 4.65 10.47 c 2.33 8.14 11.63 11.63 18.61 8.14 8.13 -3.49 11.62 -11.63 8.13 -19.77 z m 41.87 -16.28 l -3.49 -11.63 c -3.49 -6.98 -12.79 -10.47 -19.77 -8.14 -8.14 3.49 -11.63 12.79 -8.14 19.77 l 4.65 11.63 c 2.33 6.98 11.63 10.47 18.6 8.14 8.15 -3.49 11.63 -12.8 8.15 -19.77 z m 41.86 -17.45 l -4.65 -10.47 c -3.49 -8.14 -11.63 -11.63 -19.77 -8.14 -6.98 2.33 -10.47 11.63 -8.14 18.61 l 4.65 11.63 c 3.49 6.98 11.63 11.63 19.77 8.14 6.97 -3.49 11.63 -11.63 8.14 -19.77 z m 39.53 -15.11 l -4.65 -10.47 c -3.49 -8.14 -11.63 -11.63 -19.77 -8.14 -6.98 2.33 -10.47 11.63 -8.14 18.61 l 4.65 11.63 c 3.49 6.98 12.79 11.63 19.77 8.14 8.14 -3.49 11.63 -11.63 8.14 -19.77 z m 40.7 -16.28 l -4.65 -10.47 c -2.33 -8.14 -11.63 -11.63 -18.6 -8.14 -8.14 2.33 -11.63 11.63 -8.14 18.61 l 4.65 11.63 c 2.33 6.98 11.63 11.63 18.61 8.14 8.13 -3.49 11.62 -11.63 8.13 -19.77 z m 39.54 -18.61 l -4.65 -10.47 c -3.49 -8.14 -11.63 -11.63 -19.77 -8.14 -6.98 2.33 -10.47 11.63 -8.14 18.6 l 4.65 11.63 c 3.49 6.98 11.63 11.63 19.77 8.14 6.98 -3.48 10.47 -11.62 8.14 -19.76 z m 39.53 -20.93 l -4.65 -11.63 c -3.49 -6.98 -11.63 -10.47 -19.77 -8.14 -6.98 3.49 -10.47 12.79 -8.14 19.77 l 4.65 11.63 c 3.49 6.98 11.63 10.47 19.77 8.14 8.14 -3.49 11.63 -12.79 8.14 -19.77 z m 43.03 -16.28 l -4.65 -11.63 c -3.49 -6.98 -12.79 -10.47 -19.77 -8.14 -8.14 3.49 -11.63 11.63 -8.14 19.77 l 4.65 10.47 c 3.49 8.14 11.63 11.63 19.77 8.14 6.98 -2.33 10.47 -11.63 8.14 -18.61 z m 38.37 -24.42 l -4.65 -11.63 c -3.49 -6.98 -11.63 -11.63 -19.77 -8.14 -6.98 3.49 -11.63 11.63 -8.14 19.77 l 4.65 10.47 c 3.49 8.14 11.63 11.63 19.77 8.14 6.98 -2.33 10.47 -11.63 8.14 -18.61 z m 34.89 -18.6 l -4.65 -11.63 c -3.49 -6.98 -11.63 -10.47 -19.77 -8.14 -6.98 3.49 -10.47 11.63 -8.14 19.77 l 4.65 10.47 c 3.49 8.14 11.63 11.63 19.77 8.14 6.98 -2.33 10.46 -11.64 8.14 -18.61 z m 27.91 -39.54 l -3.49 -11.63 c -3.49 -6.98 -12.79 -11.63 -19.77 -8.14 -8.14 3.49 -11.63 11.63 -8.14 19.77 l 4.65 10.47 c 2.33 8.14 11.63 11.63 18.61 8.14 8.14 -2.33 11.62 -11.63 8.14 -18.61 z m -46.52 -23.26 l -4.65 -11.63 c -2.33 -6.98 -11.63 -10.47 -18.61 -8.14 -8.14 3.49 -11.63 11.63 -8.14 19.77 l 4.65 10.47 c 2.33 8.14 11.63 11.63 18.6 8.14 8.15 -2.33 11.64 -11.63 8.15 -18.61 z m -47.67 12.8 l -3.49 -10.47 c -3.49 -8.14 -12.79 -11.63 -19.77 -8.14 -8.14 2.33 -11.63 11.63 -8.14 18.6 l 4.65 11.63 c 2.33 6.98 11.63 10.47 18.61 8.14 8.14 -3.48 11.63 -11.62 8.14 -19.76 z m -39.54 19.76 l -4.65 -10.47 c -3.49 -8.14 -11.63 -11.63 -19.77 -8.14 -6.98 3.49 -11.63 11.63 -8.14 19.77 l 4.65 10.47 c 3.49 8.14 11.63 11.63 19.77 8.14 6.98 -3.49 10.47 -11.63 8.14 -19.77 z m -425.59 198.85 l -4.65 -10.47 c -2.33 -8.14 -11.63 -11.63 -18.61 -8.14 -8.14 2.33 -11.63 11.63 -8.14 18.61 l 4.65 11.63 c 2.33 6.98 11.63 10.47 18.61 8.14 8.14 -3.49 11.62 -11.63 8.14 -19.77 z m 36.04 -20.93 l -4.65 -10.47 c -3.49 -8.14 -11.63 -11.63 -19.77 -8.14 -6.98 2.33 -11.63 11.63 -8.14 18.61 l 4.65 11.63 c 3.49 6.98 11.63 11.63 19.77 8.14 6.98 -3.49 10.47 -11.63 8.14 -19.77 z m 38.38 -11.63 l -4.65 -11.63 c -2.33 -6.98 -11.63 -11.63 -18.61 -8.14 -8.14 3.49 -11.63 11.63 -8.14 19.77 l 4.65 10.47 c 2.33 8.14 11.63 11.63 18.61 8.14 8.14 -2.33 11.62 -11.63 8.14 -18.61 z m 39.53 -20.93 l -4.65 -10.47 c -3.49 -8.14 -11.63 -11.63 -19.77 -8.14 -6.98 2.33 -11.63 11.63 -8.14 18.61 l 4.65 11.63 c 3.49 6.98 11.63 11.63 19.77 8.14 6.98 -3.49 10.47 -11.63 8.14 -19.77 z m 39.54 -22.1 l -4.65 -10.47 c -3.49 -8.14 -12.79 -11.63 -19.77 -8.14 -8.14 3.49 -11.63 11.63 -8.14 19.77 l 4.65 10.47 c 3.49 8.14 11.63 11.63 19.77 8.14 6.98 -3.49 10.46 -11.63 8.14 -19.77 z m 41.86 -12.79 l -4.65 -11.63 c -3.49 -6.98 -11.63 -10.47 -19.77 -8.14 -6.98 3.49 -10.47 11.63 -8.14 19.77 l 4.65 10.47 c 3.49 8.14 11.63 11.63 19.77 8.14 6.98 -2.33 10.47 -11.63 8.14 -18.61 z m 37.21 -20.93 l -4.65 -11.63 c -2.33 -6.98 -11.63 -10.47 -18.61 -8.14 -8.14 3.49 -11.63 11.63 -8.14 19.77 l 3.49 10.47 c 3.49 8.14 12.79 11.63 19.77 8.14 8.14 -2.33 11.63 -11.63 8.14 -18.61 z m 40.7 -17.44 l -4.65 -11.63 c -2.33 -6.98 -11.63 -10.47 -18.6 -8.14 -8.14 3.49 -11.63 11.63 -8.14 19.77 l 4.65 10.47 c 2.33 8.14 11.63 11.63 18.61 8.14 8.13 -2.33 11.62 -11.63 8.13 -18.61 z m 38.37 -16.28 l -4.65 -10.47 c -2.33 -8.14 -11.63 -11.63 -18.61 -8.14 -8.14 3.49 -11.63 11.63 -8.14 19.77 l 4.65 10.47 c 2.33 6.98 11.63 11.63 18.61 8.14 8.14 -3.49 11.63 -11.63 8.14 -19.77 z m 37.21 -18.61 l -4.65 -11.63 c -3.49 -6.98 -11.63 -10.47 -19.77 -8.14 -6.98 3.49 -10.47 11.63 -8.14 19.77 l 4.65 10.47 c 3.49 8.14 11.63 11.63 19.77 8.14 6.98 -2.33 10.47 -11.63 8.14 -18.61 z m 40.7 -17.44 l -3.49 -11.63 c -3.49 -6.98 -12.79 -10.47 -19.77 -8.14 -8.14 3.49 -11.63 11.63 -8.14 19.77 l 4.65 10.47 c 2.33 8.14 11.63 11.63 18.61 8.14 h 1.16 c 6.98 -2.33 10.47 -11.63 6.98 -18.61 z" fill="#fff"/></svg>