<svg enable-background="new 0 0 299.8 269.9" viewBox="0 0 299.8 269.9" xmlns="http://www.w3.org/2000/svg"><g fill="#fff"><path d="m 279.8 89.9 h -259.8 c -11 0 -20 9 -20 20 v 10.2 h 299.8 v -10.2 c 0 -11.1 -9 -20 -20 -20 z"/><path d="m 0 249.9 c 0 11 9 20 20 20 h 259.8 c 11 0 20 -9 20 -20 v -90 h -299.8 z m 86.5 -38.6 c .9 -.9 2.2 -1.5 3.5 -1.5 h 55 c 2.8 0 5 2.2 5 5 s -2.2 5 -5 5 h -55 c -2.8 0 -5 -2.2 -5 -5 0 -1.2 .5 -2.5 1.5 -3.5 z m -50 0 c .9 -.9 2.2 -1.5 3.5 -1.5 h 30 c 2.8 0 5 2.2 5 5 s -2.2 5 -5 5 h -30 c -2.8 0 -5 -2.2 -5 -5 0 -1.2 .5 -2.5 1.5 -3.5 z m 0 20 c .9 -.9 2.2 -1.5 3.5 -1.5 h 165 c 2.8 0 5 2.2 5 5 s -2.2 5 -5 5 h -165 c -2.8 0 -5 -2.2 -5 -5 0 -1.2 .5 -2.5 1.5 -3.5 z"/><path d="m 122.3 56.9 c 3.9 3.9 10.2 3.9 14.1 0 l 12.9 -12.9 12.9 12.9 c 4 3.8 10.3 3.7 14.1 -.2 3.7 -3.9 3.7 -10 0 -13.9 l -12.9 -12.9 12.9 -12.9 c 3.8 -4 3.7 -10.3 -.2 -14.1 -3.9 -3.7 -10 -3.7 -13.9 0 l -12.9 12.9 -12.9 -13 c -4 -3.8 -10.3 -3.7 -14.1 .2 -3.7 3.9 -3.7 10 0 13.9 l 12.9 12.9 -12.9 12.9 c -3.9 4 -3.9 10.3 0 14.2 z"/></g></svg>