<svg enable-background="new 0 0 320 360" height="360" viewBox="0 0 320 360" width="320" xmlns="http://www.w3.org/2000/svg"><path d="m 230.48 97.41 c -6.62 -.47 -10.99 -.71 -13.12 -.71 -19.14 0 -36.04 5.32 -50.69 15.95 s -24.81 23.87 -30.48 39.7 c 7.09 -1.65 15.95 -2.48 26.58 -2.48 29.07 0 51.87 6.38 68.41 19.14 s 24.81 29.42 24.81 49.98 c 0 14.18 -2.66 26.76 -7.98 37.75 s -12.23 19.67 -20.74 26.06 c -17.49 12.53 -36.75 18.79 -57.78 18.79 -14.42 0 -27.24 -2.48 -38.46 -7.44 -11.23 -4.96 -20.03 -11.05 -26.41 -18.25 -6.38 -7.21 -11.58 -15.54 -15.6 -24.99 -6.62 -15.6 -9.93 -30.66 -9.93 -45.19 s 1.65 -28.36 4.96 -41.47 c 3.31 -13.12 8.62 -26.05 15.95 -38.81 7.32 -12.76 16.18 -24.1 26.58 -34.03 s 23.27 -17.9 38.64 -23.93 c 15.36 -6.03 32.13 -9.04 50.33 -9.04 3.78 0 5.9 .24 6.38 .71 6.14 8.04 9.22 20.09 9.22 36.16 .04 1.39 -.2 2.1 -.67 2.1 z m -104.57 109.17 c 0 17.25 4.08 30.72 12.23 40.41 s 19.32 14.53 33.5 14.53 c 10.4 0 19.38 -3.42 26.94 -10.28 7.56 -6.85 11.34 -15.71 11.34 -26.59 0 -24.1 -18.67 -36.15 -56.01 -36.15 -9.69 0 -18.79 1.3 -27.29 3.9 -.48 5.68 -.71 10.41 -.71 14.18 z" fill="#fff"/></svg>