<svg enable-background="new 0 0 90.0291519 76.6834946" viewBox="0 0 90.03 76.68" xmlns="http://www.w3.org/2000/svg"><g fill="#fff"><path d="m 83.63 47.14 c -1.42 -1.81 -3.05 -3.45 -4.84 -4.89 -1.43 1 -3.13 3 -3.19 7 1.03 .69 1.98 1.48 2.84 2.37 .58 -1.43 2.2 -4.25 5.19 -4.48 z"/><path d="m 80.53 54.03 c .97 1.3 1.86 2.65 2.67 4.06 1.35 -1.57 3.48 -2.24 5.48 -1.71 -.8 -2.29 -1.85 -4.49 -3.14 -6.55 -2.31 .37 -4.23 1.99 -5.01 4.2 z"/><path d="m 89.74 60.11 c -.07 -.31 -.15 -.61 -.23 -.91 -1.81 -.63 -3.81 -.1 -5.07 1.34 .57 1.61 .86 3.3 .86 5 1.45 -.49 3.05 -.17 4.2 .83 .61 -2.03 .69 -4.19 .24 -6.26 z"/><path d="m 76.14 40.34 c -1.58 -1.01 -3.26 -1.86 -5 -2.55 l -1 -.38 c -2.73 2.39 -1.95 7.3 -1.43 9.49 1.47 .1 2.92 .44 4.29 1 -.08 -1.62 .09 -5.62 3.14 -7.56 z"/><path d="m 85.18 67.9 c -.08 1.34 -.44 2.64 -1.07 3.82 -1.05 1.41 -3.87 4.92 -3.87 4.92 .94 .47 5.83 -2.77 8.32 -7.88 -.92 -.81 -2.18 -1.13 -3.38 -.86 z"/><path d="m 49.76 27.65 c .44 -.32 .92 -.6 1.41 -.84 -.85 -.11 -1.71 -.02 -2.52 .25 l -1.55 -.85 c .61 -.5 1.28 -.93 2 -1.27 -1.14 -.14 -2.29 .06 -3.32 .57 l -2 -1 c .72 -.68 1.53 -1.25 2.42 -1.68 -1.4 -.18 -2.82 .15 -4 .93 l -.27 -.13 -1.38 -.64 c 1 -1.03 2.18 -1.87 3.47 -2.5 -2 -.23 -4.01 .32 -5.61 1.53 l -1.2 -.57 c 1.07 -1.2 2.36 -2.18 3.81 -2.89 -2.17 -.24 -4.34 .42 -6 1.83 l -1.41 -.72 c 1.11 -1.36 2.5 -2.45 4.08 -3.22 -2.26 -.25 -4.52 .48 -6.21 2 -.4 -.25 -.78 -.5 -1.14 -.76 1.12 -1.42 2.55 -2.56 4.18 -3.35 -2.17 -.24 -4.34 .42 -6 1.83 -.26 -.26 -.52 -.53 -.77 -.81 1.18 -1.52 2.45 -2.97 3.78 -4.36 -1.86 .56 -3.63 1.4 -5.24 2.49 -.24 -.34 -.48 -.7 -.73 -1.09 s -.54 -.86 -.78 -1.26 c 2.25 -1 6.93 -2.43 6.93 -2.43 -1.85 -.71 -6.46 .07 -8.15 .4 -.3 -.47 -.64 -1 -1.06 -1.51 2.82 -.43 5.67 -.65 8.52 -.65 -3.19 -1.77 -6.88 -2.38 -10.47 -1.74 -.33 -.36 -.68 -.73 -1.07 -1.11 2.25 -1.2 6.27 -.51 6.27 -.51 -4.09 -2 -6.86 -1.49 -8.08 -1 -.51 -.39 -1.09 -.8 -1.76 -1.25 -1.2 -.8 -4.88 -1.76 -5.79 -1.14 -1.82 1.24 -6.83 1.22 -8.28 2.55 -3.45 3.17 -1 4.72 -1 4.72 s 4.22 3.95 5.47 5.37 c 0 0 4.84 8.82 4.1 8.54 s -2.39 -2.36 -3.76 -4.17 l .29 4.37 c 0 1.05 0 6.5 1.58 7.73 s 3.52 6.86 4.75 7.38 .35 -2.48 .35 -2.48 c -.49 -3.79 -.61 -7.62 -.35 -11.43 .53 -4.75 -.18 -4.92 3.69 -6 s 3.52 -8.57 3.52 -8.57 c 1.93 7.73 -1.05 9.14 -1.93 9.67 -2 1.18 -3 1.76 -3.34 3.52 s -1.05 7.21 -.35 9 3.86 6.81 3.86 6.81 l 1.41 -.35 c -1.58 1.41 -4.39 7.73 -4.39 7.73 -.53 1.41 -6.33 .35 -8.79 .7 s -2.64 4 -2.64 4 c -.42 1.17 .11 2.46 1.23 3 -.88 -1.05 .35 -2.29 .18 -3 s 1.76 -3.16 3.52 -1.05 c .95 1.2 2.54 1.69 4 1.23 -.88 1.76 1.23 3.52 1.23 3.52 -.88 -1.05 .7 -3 .7 -3 1.14 .1 2.29 -.08 3.34 -.53 1.23 -.7 7.91 -6 9 -10.55 s -4.57 -12.13 -4.57 -12.13 c 2.5 2.38 4.47 5.25 5.8 8.43 1.76 4.75 -1.93 10 -1.93 10 1.39 .9 2.86 1.66 4.39 2.29 5.62 1.05 15.47 .53 15.47 .53 -5.62 -4.75 -2.81 -7.56 -2.81 -7.56 -.53 3 4.75 8.09 6.68 9 1.23 .58 2.36 1.35 3.34 2.29 -1.28 0 -2.52 .44 -3.52 1.23 -.68 .61 -1.17 1.41 -1.41 2.29 -.7 1.41 1.41 1.93 1.41 1.93 -.35 -.88 2.46 -3.16 4.39 -2.29 s 6.5 -.53 6.5 -.53 c 1.76 -1.41 4.22 1.05 4.22 1.05 -.88 -3.69 -3.16 -2.64 -3.16 -2.64 -1.49 -3.94 -3.69 -7.58 -6.5 -10.72 l .7 -1.76 .51 1.61 c 1.93 1.05 4.22 4.75 4.22 4.75 h 4.11 c -1.71 -6.75 -.07 -9.67 1.36 -10.91 -1.75 -.74 -3.08 -1.31 -5.64 -2.27 -2.77 -1.05 -6.63 -3.29 -11.31 -5.85 z m -40.93 -23.43 c .43 -.38 .96 -.62 1.52 -.7 .7 .06 1.36 .36 1.86 .86 0 0 -1.64 2.84 -3.38 -.16 z m 6.37 11.46 c -1.47 0 -2.58 -1.49 -1.91 -3.04 .19 -.45 .57 -.81 1.02 -.99 1.95 -.81 3.79 1.2 2.65 3.15 -.33 .57 -.97 .88 -1.63 .88 z"/></g></svg>