<svg enable-background="new 0 0 955 272.5010071" viewBox="0 0 955 272.5" xmlns="http://www.w3.org/2000/svg"><path d="m 482.08 202.64 l 9.36 9.36 c 1.92 1.92 4.52 3 7.24 3 h 370.3 c 2.71 0 5.32 -1.08 7.24 -3 l 9.36 -9.36 c 1.92 -1.92 3 -4.52 3 -7.24 v -3.44 c 0 -4.24 -3.44 -7.68 -7.68 -7.68 h -394.14 c -4.24 0 -7.68 3.44 -7.68 7.68 v 3.44 c 0 2.72 1.08 5.32 3 7.24 z m 99.42 -78.9 c -13.98 -9.09 -33.38 -7.84 -45.86 3.75 -3.44 3.19 -6.04 6.88 -7.78 10.81 -8.35 .56 -16.54 4.03 -22.93 10.42 -8.3 8.3 -11.68 19.66 -10.13 30.45 h 379.67 c 5.99 -8.95 5.04 -21.18 -2.87 -29.08 -6.73 -6.73 -16.6 -8.43 -24.91 -5.08 -.19 -9.67 -4.64 -19.29 -13.35 -26.66 -14.66 -12.42 -36.81 -14.61 -54.12 -6.59 -2.26 -10.75 -8.65 -21.06 -19.18 -29.35 -26.8 -21.12 -70.26 -21.12 -97.06 0 -8.36 6.58 -14.11 14.44 -17.26 22.78 -.94 -1.14 -1.98 -2.24 -3.1 -3.28 -13.99 -12.99 -36.68 -12.99 -50.67 0 -6.53 6.05 -10.02 13.88 -10.45 21.83 z m 174.61 -21.97 c 6 6 6 15.72 0 21.72 s -15.72 6 -21.72 0 -6 -15.72 0 -21.72 15.73 -6 21.72 0 m -108.99 32.21 c 8 8 8 20.96 0 28.96 s -20.96 8 -28.96 0 -8 -20.96 0 -28.96 20.97 -8 28.96 0 m 179.16 0 c 8 8 8 20.96 0 28.96 s -20.96 8 -28.96 0 -8 -20.96 0 -28.96 20.96 -8 28.96 0 m -249.32 -47.57 c -6 -6 -15.72 -6 -21.72 0 s -6 15.72 0 21.72 15.72 6 21.72 0 6 -15.72 0 -21.72 m 237.58 -27.71 c -10 -10 -26.2 -10 -36.19 0 -10 10 -10 26.2 0 36.19 9.99 10 26.2 10 36.19 0 10 -9.99 10 -26.2 0 -36.19 m -520.87 33.52 c 0 -1.66 -.66 -3.26 -1.84 -4.43 l -59.01 -59.01 c -1.18 -1.18 -1.84 -2.77 -1.84 -4.43 v -13.08 c 0 -3.46 -2.81 -6.27 -6.27 -6.27 h -81.49 c -3.46 0 -6.27 2.81 -6.27 6.27 v 13.08 c 0 1.66 .66 3.26 1.84 4.43 l 59.01 59.01 c 1.18 1.18 1.84 2.77 1.84 4.43 v 116.51 c 0 3.46 2.81 6.27 6.27 6.27 h 81.49 c 3.46 0 6.27 -2.81 6.27 -6.27 v -50.15 -3.13 -6.27 h -6.27 -3.14 -59.55 c -3.46 0 -6.27 -2.81 -6.27 -6.27 v -34.48 c 0 -3.46 2.81 -6.27 6.27 -6.27 h 59.55 3.14 6.27 v -6.27 -3.13 z m -223.84 -1.29 c -1.17 1.18 -1.84 2.77 -1.84 4.43 v 113.37 c 0 3.46 2.81 6.27 6.27 6.27 h 112.84 c 3.46 0 6.27 -2.81 6.27 -6.27 v -113.37 c 0 -1.66 -.66 -3.26 -1.84 -4.43 l -56.41 -56.42 c -2.45 -2.45 -6.42 -2.45 -8.87 0 z m 23.24 58.25 h 75.22 c 3.46 0 6.27 2.81 6.27 6.27 v 34.48 c 0 3.46 -2.81 6.27 -6.27 6.27 h -75.22 c -3.46 0 -6.27 -2.81 -6.27 -6.27 v -34.48 c .01 -3.46 2.81 -6.27 6.27 -6.27 z m 304.89 -90.6 c -4.91 0 -14.74 -16.18 -44.23 -16.18 s -44.23 26.97 -44.23 48.54 c 0 35.96 19.66 97.09 29.49 107.88 s 14.74 16.18 29.49 16.18 c 14.74 0 29.49 -10.79 29.49 -10.79 s 14.74 10.79 29.49 10.79 c 14.74 0 19.66 -5.39 29.49 -16.18 s 29.49 -71.92 29.49 -107.88 c 0 -21.58 -14.74 -48.54 -44.23 -48.54 -29.51 0 -39.34 16.18 -44.25 16.18 z m -39.26 -.8 s -16.37 31.54 -24.36 35.15 c -8 3.61 -9.42 -15.01 -.79 -26.52 8.63 -11.5 25.15 -8.63 25.15 -8.63 z m 35.66 -5.61 s -7.36 -36.54 -14.59 -43.77 c -7.23 -7.24 -21.89 -2.43 -19.45 9.73 2.43 12.16 34.04 34.04 34.04 34.04 z m 5.18 1.74 c 1.32 0 2.44 -.97 2.62 -2.28 l 5.78 -40.93 c .39 -2.73 -1.52 -5.26 -4.25 -5.65 -.23 -.03 -.47 -.05 -.7 -.05 -3.18 0 -5.75 2.58 -5.75 5.75 v 40.85 c 0 1.28 1.03 2.31 2.3 2.31 z m -354.34 213.59 h 864.6 c 5.57 0 10.91 -2.21 14.85 -6.15 l 21.64 -21.64 c 2.38 -2.37 3.71 -5.6 3.71 -8.96 0 -2.9 -2.35 -5.25 -5.25 -5.25 h -934.5 c -2.9 0 -5.25 2.35 -5.25 5.25 0 3.36 1.33 6.59 3.71 8.96 l 21.64 21.64 c 3.94 3.94 9.28 6.15 14.85 6.15 z" fill="#fff"/></svg>