<svg enable-background="new 0 0 934.0687866 909.934082" viewBox="0 0 934.07 909.93" xmlns="http://www.w3.org/2000/svg"><g fill="#fff"><path d="m 653.81 27.56 l 32.82 14.44 -129.94 267.75 h -39.38 z"/><path d="m 304.69 309.75 h 448.87 v 66.94 h -448.87 z"/><path d="m 739.13 376.69 l -70.88 540.75 h -286.12 l -57.75 -540.75 z"/><path d="m 706.22 909.62 s .91 15.54 14.64 15.54 h 293.56 s 8.23 -4.58 8.23 -15.54 c 0 -10.98 0 -27.44 0 -27.44 h -316.43 z"/><path d="m 997.65 761.16 c -35.98 -31.7 -112.16 -44.51 -135.35 -45.12 -23.18 -.61 -103.67 14.49 -135.98 55.71 -32.32 41.23 -22.55 55.73 -22.55 55.73 h 316.42 c .01 0 13.43 -34.61 -22.54 -66.32 z m -249.38 59.3 c -3.12 1.25 -8.11 -3.79 -11.14 -11.29 -3.02 -7.49 -2.95 -14.58 .17 -15.85 3.12 -1.25 8.11 3.79 11.13 11.29 3.03 7.48 2.96 14.58 -.16 15.85 z m 33.85 -42.83 c -7.58 0 -13.72 -2.87 -13.72 -6.41 s 6.13 -6.39 13.72 -6.39 c 7.58 0 13.71 2.86 13.71 6.39 s -6.14 6.41 -13.71 6.41 z m 30.32 25.42 c -2.65 7.64 -8.4 12.57 -12.86 11.04 -4.45 -1.54 -5.92 -8.98 -3.28 -16.62 2.65 -7.64 8.4 -12.57 12.86 -11.04 4.45 1.54 5.92 8.99 3.28 16.62 z m 26.07 -39.46 c -3.61 2.46 -10.09 -.7 -14.46 -7.11 -4.37 -6.39 -4.99 -13.57 -1.38 -16.04 3.61 -2.46 10.08 .7 14.46 7.11 4.37 6.39 4.98 13.56 1.38 16.04 z m 21.42 46.21 c -3.5 .5 -7.11 -4.49 -8.07 -11.15 -.96 -6.67 1.1 -12.48 4.6 -12.98 s 7.12 4.49 8.07 11.16 c .96 6.66 -1.11 12.47 -4.6 12.97 z m 18.92 -46.91 c -3.55 -2.55 -2.92 -9.5 1.42 -15.52 4.33 -6.02 10.72 -8.82 14.27 -6.26 3.54 2.55 2.91 9.5 -1.42 15.52 -4.33 6.03 -10.72 8.82 -14.27 6.26 z m 28.6 36.36 c -6.34 4.15 -13.27 4.76 -15.49 1.38 -2.21 -3.37 1.13 -9.48 7.48 -13.63 6.34 -4.15 13.28 -4.76 15.49 -1.38 2.21 3.39 -1.14 9.48 -7.48 13.63 z m 32.27 7.63 c -5.39 0 -9.75 -6.54 -9.75 -14.64 0 -8.08 4.37 -14.63 9.75 -14.63 5.39 0 9.75 6.54 9.75 14.63 0 8.1 -4.37 14.64 -9.75 14.64 z m 17.68 -35.67 c -6.38 0 -11.58 -3.34 -11.58 -7.47 0 -4.14 5.19 -7.48 11.58 -7.48 s 11.59 3.34 11.59 7.48 -5.2 7.47 -11.59 7.47 z m 34.45 46.76 c -3.92 1.05 -8.49 -3.38 -10.24 -9.87 -1.74 -6.5 0 -12.62 3.9 -13.68 3.91 -1.04 8.49 3.38 10.24 9.87 1.74 6.51 0 12.63 -3.9 13.68 z"/><path d="m 699.42 867.29 h 333 s 12.69 1.21 12.08 -11.59 c -.61 -12.81 -2.24 -17.68 -12.08 -17.68 -9.86 0 -333 0 -333 0 s -12.79 2.46 -12.79 14.64 4.26 14.63 12.79 14.63 z"/><path d="m 1187.13 406 s 20.12 0 19.25 14.88 -29.75 238.88 -29.75 238.88 -4.38 14.85 -20.13 13.11 -18.39 -9.62 -17.5 -21.87 c .88 -12.25 26.25 -232.75 26.25 -232.75 s 1.76 -13.13 21.88 -12.25 z"/><path d="m 1115.7 428.83 s 19.99 -2.25 20.79 12.62 c .8 14.88 -2.75 240.69 -2.75 240.69 s -2.69 15.27 -18.53 15.3 c -15.84 .04 -19.35 -7.5 -19.86 -19.76 -.49 -12.29 -.03 -234.22 -.03 -234.22 s .29 -13.24 20.38 -14.63 z"/><path d="m 1066.02 403.07 s 20.08 -1.11 20.04 13.77 c -.05 14.9 -16.34 240.18 -16.34 240.18 s -3.55 15.08 -19.37 14.22 -18.9 -8.58 -18.68 -20.85 c .19 -12.28 13.18 -233.85 13.18 -233.85 s 1.03 -13.2 21.17 -13.47 z"/><path d="m 1015 437.55 s 20.08 -1.11 20.04 13.78 c -.05 14.9 -16.34 240.19 -16.34 240.19 s -3.55 15.08 -19.37 14.22 c -15.82 -.84 -18.9 -8.57 -18.68 -20.85 .19 -12.29 13.18 -233.85 13.18 -233.85 s 1.03 -13.24 21.17 -13.49 z"/><path d="m 963.99 446.72 s 19.98 -2.3 20.82 12.57 c .83 14.88 -2.11 240.72 -2.11 240.72 s -2.66 15.26 -18.5 15.34 -19.37 -7.46 -19.89 -19.72 c -.55 -12.27 -.65 -234.22 -.65 -234.22 s .25 -13.24 20.33 -14.69 z"/><path d="m 892.91 391.99 s 19.52 -4.82 22.26 9.82 c 2.71 14.66 28.5 239.04 28.5 239.04 s -.68 15.48 -16.4 17.56 c -15.7 2.11 -20.16 -4.91 -22.23 -17.02 -2.09 -12.11 -30.42 -232.24 -30.42 -232.24 s -1.44 -13.17 18.29 -17.16 z"/><path d="m 1174 927.5 l 54.26 -413 s -72.63 69.12 -177.63 66.07 c -105 -3.06 -179.38 -43.34 -193.38 -66.07 l 84 413 z"/></g></svg>