<svg viewBox="0 0 300 300" xmlns="http://www.w3.org/2000/svg"><g fill="#fff"><path d="m 152.94 149.11 a 37.77 37.77 0 0 0 4.39 -1.51 l 4.27 -1.73 4.26 -1.78 a 33.51 33.51 0 0 0 4.19 -2 .67 .67 0 0 0 .32 -.64 .65 .65 0 0 0 -.7 -.59 h -.02 a 22.29 22.29 0 0 0 -4.61 1 c -1.49 .48 -3 1 -4.43 1.58 s -2.87 1.25 -4.28 1.94 a 25.57 25.57 0 0 0 -4 2.44 .74 .74 0 0 0 -.26 .78 .72 .72 0 0 0 .87 .51 z" opacity=".15"/><path d="m 120 168.57 a 39.65 39.65 0 0 0 4 -2.35 l 3.85 -2.54 3.82 -2.58 a 32.05 32.05 0 0 0 3.71 -2.81 .64 .64 0 0 0 .19 -.68 .65 .65 0 0 0 -.81 -.45 h -.02 a 22.05 22.05 0 0 0 -4.32 1.9 c -1.37 .76 -2.72 1.57 -4 2.43 s -2.57 1.78 -3.81 2.74 a 25.52 25.52 0 0 0 -3.47 3.19 .73 .73 0 0 0 .87 1.14 z" opacity=".15"/><path d="m 188.92 268.84 c -48.84 -14.72 -78.09 -61.27 -82.72 -90.8 -34.28 -25.24 -46.74 -41.54 -49.14 -87.04 a 150.74 150.74 0 0 1 1.09 -29.49 c -7.58 5.19 -15.15 9.01 -22.15 9.79 -11 1.21 -34.11 -1.3 -34.11 -7.56 0 20.75 4.66 77.91 32.73 102.47 19.83 17.35 53.52 11.7 67.43 29.86 l .21 .41 a 93.3 93.3 0 0 0 166.46 67.39 c -21.14 10.46 -50.4 13.84 -79.8 4.97 z"/><path d="m 216.84 164.07 c -32.89 -9.91 -64.12 -2.78 -69.77 15.94 -3.14 10.41 2.31 22.21 13.41 32.34 a 11.1 11.1 0 0 1 .37 -3.35 c 2 -7.44 12.15 -9.08 12.15 -9.08 7.33 -1.72 17 -1.17 27 2.05 18.48 5.95 30.89 18.75 27.72 28.58 a 11.31 11.31 0 0 1 -4.11 5.55 l -.27 .18 c 21.55 .51 38.76 -7 42.81 -20.38 5.66 -18.7 -16.42 -41.9 -49.31 -51.83 z" opacity=".5"/><path d="m 200 202 c -10 -3.22 -19.71 -3.77 -27 -2.05 11.6 5.48 3.52 19.85 14.48 24 16 6.08 14.94 -1.22 29.09 3.84 4.46 1.59 9 6.81 7.08 8.33 a 11.31 11.31 0 0 0 4.11 -5.55 c 3.17 -9.85 -9.24 -22.65 -27.76 -28.57 z" opacity=".6"/><path d="m 36 71.3 c 7 -.78 14.61 -4.6 22.19 -9.83 3 -20.86 11.07 -35.34 22.66 -44.61 -18.65 4.51 -64.29 17.24 -76.12 37.14 a 19.22 19.22 0 0 0 -2.84 9.7 c 0 6.3 23.11 8.81 34.11 7.6 z" opacity=".69"/><path d="m 216.57 227.77 c -14.15 -5.06 -13.11 2.24 -29.09 -3.84 -11 -4.16 -2.88 -18.54 -14.48 -24 0 0 -10.13 1.64 -12.15 9.08 a 11.1 11.1 0 0 0 -.37 3.35 c 8.86 8.08 21.33 15.11 35.92 19.51 a 102.6 102.6 0 0 0 27 4.44 l .27 -.18 c 1.96 -1.52 -2.67 -6.76 -7.1 -8.36 z" opacity=".3"/><path d="m 152.3 147.82 a 25.57 25.57 0 0 1 4 -2.44 c 1.41 -.69 2.83 -1.34 4.28 -1.94 s 2.94 -1.1 4.43 -1.58 a 22.29 22.29 0 0 1 4.61 -1 .65 .65 0 0 1 .72 .57 v .02 a .67 .67 0 0 1 -.32 .64 33.51 33.51 0 0 1 -4.19 2 l -4.26 1.78 -4.27 1.73 a 37.77 37.77 0 0 1 -4.39 1.51 .72 .72 0 0 1 -.89 -.49 l -.01 -.02 a .74 .74 0 0 1 .29 -.78 z" opacity=".15"/><path d="m 135.34 158.29 a 32.05 32.05 0 0 1 -3.71 2.81 l -3.82 2.58 -3.81 2.54 a 39.65 39.65 0 0 1 -4 2.35 .73 .73 0 0 1 -.87 -1.14 25.52 25.52 0 0 1 3.47 -3.19 c 1.24 -1 2.51 -1.88 3.81 -2.74 s 2.66 -1.67 4 -2.43 a 22.05 22.05 0 0 1 4.32 -1.9 .65 .65 0 0 1 .82 .43 l .01 .02 a .64 .64 0 0 1 -.22 .67 z" opacity=".15"/><path d="m 276.17 252.71 a 65.57 65.57 0 0 1 -6.15 3.12 c -2.12 .93 -4.33 1.79 -6.63 2.56 l -.22 .07 c -2.22 .73 -4.52 1.39 -6.9 2 l -.54 .13 c -2.26 .53 -4.58 1 -7 1.36 l -1 .16 -2.17 .31 -.9 .1 c -1.25 .15 -2.51 .28 -3.79 .39 l -1.52 .13 c -.64 0 -1.28 .09 -1.93 .12 -.85 .05 -1.7 .09 -2.56 .12 l -2.15 .05 h -3.71 c -1.12 0 -2.24 0 -3.38 -.08 l -1.29 -.06 -2.65 -.16 -1.44 -.1 c -1.23 -.09 -2.45 -.2 -3.69 -.33 l -.91 -.1 c -1.06 -.12 -2.11 -.25 -3.17 -.39 l -1.25 -.17 c -1.31 -.18 -2.62 -.38 -3.94 -.6 l -.55 -.1 c -1.2 -.21 -2.4 -.44 -3.6 -.67 l -1.14 -.23 c -1.36 -.28 -2.73 -.58 -4.1 -.9 l -.26 -.06 c -1.31 -.31 -2.62 -.65 -3.94 -1 l -1.08 -.28 q -2.09 -.57 -4.2 -1.2 c -48.83 -14.72 -76.26 -50.8 -82.15 -78.86 -21.26 -22.55 -49.2 -59.12 -42.17 -110.26 .62 -4.5 1.39 -8.71 2.28 -12.66 -.06 .28 -.13 .55 -.2 .83 .07 -.28 .14 -.55 .2 -.83 .15 -.67 .31 -1.32 .47 -2 s .35 -1.44 .53 -2.14 .33 -1.23 .5 -1.84 .4 -1.4 .6 -2.08 l .53 -1.7 c .21 -.67 .43 -1.35 .66 -2 s .37 -1.06 .56 -1.59 .48 -1.31 .73 -1.95 .39 -1 .59 -1.47 .52 -1.26 .79 -1.88 c .2 -.46 .41 -.91 .61 -1.36 .29 -.61 .57 -1.22 .87 -1.82 .2 -.42 .41 -.83 .63 -1.24 .3 -.59 .61 -1.18 .92 -1.75 l .64 -1.16 c .32 -.57 .65 -1.13 1 -1.67 .22 -.36 .44 -.71 .67 -1.06 .35 -.54 .7 -1.08 1.06 -1.6 .22 -.33 .45 -.65 .68 -1 .37 -.52 .75 -1 1.13 -1.52 .23 -.3 .46 -.6 .7 -.89 .39 -.49 .78 -1 1.18 -1.44 l .72 -.82 c .41 -.46 .82 -.91 1.24 -1.35 l .74 -.76 c .43 -.43 .86 -.86 1.29 -1.27 l .33 -.32 c -1.21 .27 -2.91 .66 -5 1.17 -12.08 9.26 -20.44 23.96 -23.55 45.39 l .57 -4.23 c -.22 1.23 -.42 2.47 -.61 3.74 a 150.74 150.74 0 0 0 -1.09 29.49 c 2.4 45.55 14.86 61.85 49.15 87.1 4.63 29.53 33.88 76.08 82.72 90.8 29.4 8.87 58.66 5.49 79.8 -5 a 92.6 92.6 0 0 0 7.45 -11.16 z" opacity=".55"/><path d="m 222 145.35 a 147.19 147.19 0 0 0 -41.65 -6.45 c 3.75 -17.84 11 -42.35 8.74 -62.81 -5.75 -52.5 -25.58 -76.72 -56.91 -76.09 -33.56 .7 -60.73 14.26 -68.09 67.78 -3.94 28.67 3.12 52.76 13.82 72.37 .3 .55 .6 1.08 .91 1.62 s .53 1 .8 1.43 .63 1.06 .94 1.6 .55 .91 .82 1.36 .65 1.05 1 1.57 l .84 1.33 1 1.52 .87 1.3 c .33 .5 .66 1 1 1.48 s .59 .86 .89 1.28 .66 1 1 1.42 l .93 1.29 1 1.34 c .41 .56 .83 1.11 1.24 1.65 l 1.47 1.91 1.09 1.38 .94 1.16 c .34 .43 .69 .86 1 1.28 l .93 1.12 1.06 1.26 .9 1.06 1.08 1.25 .87 1 1.14 1.28 c .27 .29 .53 .59 .8 .89 l 1.25 1.38 .66 .71 c .63 .69 1.26 1.36 1.88 2 5.89 28.06 33.32 64.14 82.15 78.86 34 10.24 67 7.85 87.81 -4.19 10.11 -5.85 17.35 -14 20.39 -24 9.28 -30.82 -24.11 -68.13 -74.57 -83.34 z m -69.69 2.47 a 25.57 25.57 0 0 1 4 -2.44 c 1.41 -.69 2.83 -1.34 4.28 -1.94 s 2.94 -1.1 4.43 -1.58 a 22.29 22.29 0 0 1 4.61 -1 .65 .65 0 0 1 .72 .57 v .02 a .67 .67 0 0 1 -.32 .64 33.51 33.51 0 0 1 -4.19 2 l -4.26 1.78 -4.27 1.73 a 37.77 37.77 0 0 1 -4.39 1.51 .72 .72 0 0 1 -.89 -.49 l -.01 -.02 a .74 .74 0 0 1 .28 -.78 z m -17 10.47 a 32.05 32.05 0 0 1 -3.71 2.81 l -3.82 2.58 -3.78 2.54 a 39.65 39.65 0 0 1 -4 2.35 .73 .73 0 0 1 -.87 -1.14 25.52 25.52 0 0 1 3.47 -3.19 c 1.24 -1 2.51 -1.88 3.81 -2.74 s 2.66 -1.67 4 -2.43 a 22.05 22.05 0 0 1 4.32 -1.9 .65 .65 0 0 1 .82 .43 l .01 .02 a .64 .64 0 0 1 -.21 .68 z m 130.83 57.63 c -.16 .52 -.34 1 -.54 1.54 -.05 .14 -.11 .28 -.17 .42 -.17 .4 -.34 .78 -.53 1.17 l -.17 .34 c -.24 .47 -.5 .94 -.78 1.4 -.07 .1 -.14 .2 -.2 .3 -.23 .37 -.48 .73 -.73 1.08 l -.28 .38 a 12.36 12.36 0 0 1 -1 1.19 l -.08 .1 c -.36 .41 -.75 .81 -1.14 1.21 l -.35 .34 c -.32 .3 -.64 .6 -1 .89 -.11 .09 -.22 .2 -.34 .29 -.43 .37 -.88 .72 -1.34 1.07 l -.33 .24 c -.37 .27 -.75 .53 -1.15 .79 -.15 .11 -.31 .21 -.47 .31 -.43 .28 -.87 .54 -1.32 .8 l -.26 .15 c -.52 .3 -1.06 .58 -1.61 .86 l -.54 .26 -1.26 .59 -.55 .24 c -.58 .24 -1.17 .48 -1.77 .71 l -.48 .17 -1.43 .5 -.69 .22 -1.51 .45 -.49 .14 c -.65 .17 -1.3 .34 -2 .49 l -.75 .17 -1.43 .29 -.77 .15 c -.68 .13 -1.37 .24 -2.07 .35 l -.65 .08 c -.53 .08 -1.07 .15 -1.61 .21 l -.88 .1 -1.61 .15 -.72 .06 q -1.09 .07 -2.22 .12 h -5.7 c -1.05 0 -2.1 -.07 -3.16 -.13 h -.41 c -.89 -.06 -1.79 -.12 -2.69 -.21 l -.93 -.09 -2.21 -.25 -1.13 -.15 q -1 -.13 -2.07 -.3 l -1.21 -.2 c -.68 -.11 -1.35 -.24 -2 -.36 l -1.25 -.25 c -.69 -.14 -1.37 -.28 -2.06 -.44 l -1.22 -.27 -2.23 -.56 c -.35 -.09 -.71 -.17 -1.06 -.27 q -1.65 -.43 -3.3 -.93 c -1 -.3 -1.93 -.6 -2.89 -.92 l -1 -.33 c -.63 -.21 -1.25 -.43 -1.86 -.65 l -1.14 -.43 -1.63 -.62 -1.2 -.48 -1.49 -.62 -1.23 -.54 c -.47 -.2 -.92 -.41 -1.38 -.62 s -.85 -.38 -1.26 -.58 l -1.26 -.61 -1.3 -.65 -1.08 -.57 -1.4 -.74 -.49 -.28 c -1.3 -.72 -2.58 -1.47 -3.81 -2.23 l -.14 -.08 c -.56 -.35 -1.1 -.71 -1.65 -1.07 -.18 -.11 -.36 -.22 -.53 -.34 l -1.54 -1.05 -.55 -.39 c -.51 -.35 -1 -.71 -1.48 -1.07 l -.52 -.39 c -.49 -.37 -1 -.75 -1.45 -1.13 l -.44 -.35 c -.49 -.39 -1 -.79 -1.44 -1.19 l -.31 -.27 -1.49 -1.31 c -.66 -.61 -1.31 -1.22 -1.93 -1.84 l -.21 -.21 c -.55 -.56 -1.09 -1.12 -1.62 -1.69 l -.27 -.29 c -.49 -.54 -1 -1.09 -1.43 -1.64 l -.28 -.33 c -.45 -.55 -.89 -1.1 -1.3 -1.65 l -.25 -.33 c -.43 -.57 -.84 -1.14 -1.23 -1.72 l -.17 -.25 c -.44 -.65 -.85 -1.31 -1.24 -2 a 34.49 34.49 0 0 1 -2.08 -4.11 l -.06 -.14 c -.26 -.61 -.49 -1.22 -.71 -1.82 -.06 -.17 -.11 -.35 -.16 -.52 -.16 -.48 -.31 -1 -.44 -1.45 -.06 -.22 -.11 -.44 -.17 -.66 -.1 -.43 -.2 -.87 -.28 -1.3 a 4.46 4.46 0 0 0 -.13 -.73 c -.06 -.41 -.12 -.82 -.16 -1.23 0 -.26 -.05 -.51 -.07 -.76 q 0 -.6 -.06 -1.2 v -1.97 a 3 3 0 0 1 .06 -.73 7.18 7.18 0 0 1 .19 -1.29 2.59 2.59 0 0 1 .1 -.61 17.83 17.83 0 0 1 .46 -1.88 c 5.65 -18.72 36.88 -25.85 69.77 -15.94 s 55.15 33.17 49.51 51.89 z"/></g></svg>