<svg enable-background="new 0 0 960 1080" viewBox="0 0 960 1080" xmlns="http://www.w3.org/2000/svg"><g fill="#fff"><path d="m 473.15 416.11 c -.08 0 -.14 0 -.2 -.01 4.69 .21 5.82 .26 .2 .01 z"/><path d="m 891.46 563.46 c -10.05 -4.19 -62.77 -32.04 -84.37 -33.62 -21.61 -1.57 -16.5 4.11 -35.97 -6.95 -19.49 -11.06 -19.49 -11.06 -19.49 -11.06 s 9.13 -17.37 13.06 -40.82 7.6 -36.31 7.6 -36.31 34.88 -24.53 53.03 -14.31 c 18.17 10.22 18.07 10.68 27.79 5.62 9.73 -5.07 -.16 -15.09 -.16 -15.09 s 7.6 9.68 12.79 -.62 c 2.24 -4.45 8.92 -15.95 -4.41 -30.51 -16.57 -18.11 -5.29 -17.82 -13.27 -22.52 -8 -4.72 -27.17 -16.6 -42.06 -19.2 -15.21 -2.66 -14.99 -.71 -25.34 -3.26 -3.22 3.76 5.78 13.62 5.78 13.62 s -27.07 -.97 -43.52 7.75 c -16.42 8.68 -16.23 10.57 -35.58 19.33 -19.34 8.77 -14.47 .17 -41.54 9.84 s -52.72 34.26 -72.74 39.48 c -28.99 7.55 -140.37 -9.55 -120.11 -8.72 -13.1 -.58 -54.01 -2.44 -54.01 -2.44 -60.85 3.42 -83.03 7.91 -155.1 71.41 s -100.22 71.1 -151.41 72.13 c -51.19 1.05 -29.91 -12.64 -50.71 -13.05 -20.78 -.4 -9.51 11.2 -9.35 19.89 .16 8.72 29.09 18.02 63.01 18.02 33.94 0 85.3 -14.04 172.21 -84.2 26.05 -21.02 40.9 -33.13 48.93 -39.79 -2.39 11.28 -19.7 90.68 -36.27 98.7 -17.85 8.66 -46.38 19.8 -66.8 34.8 -20.42 15.02 -32.76 57.43 -34.33 70.07 -1.57 12.63 3.68 18.92 10.19 23.12 6.51 4.19 9.31 10.11 19.07 10.11 s 4.39 -8.07 1.04 -12.78 c -6.88 -9.68 -18.49 -19.95 .48 -43.83 26.48 -33.36 60.13 -28.58 99.68 -50.12 39.54 -21.52 94.16 -72.83 94.16 -72.83 s 29.4 -6.1 54.81 6.45 c 25.41 12.56 45.25 30.16 83.25 36.74 38.02 6.55 137.23 -16.84 137.23 -16.84 s 15.12 20.06 41.81 21.32 c 26.68 1.26 48.73 -13.54 60.6 -11.22 11.9 2.3 57.78 11.82 69.24 18.84 11.45 7.01 7.51 23.27 34.03 11.47 3.74 -1.7 -3.22 -14.45 -13.25 -18.62 z"/><path d="m 780.66 329.05 l -.03 -.11 c 0 -.01 .02 .04 .03 .11 z"/><path d="m 426.47 519.94 c -7.64 7.05 -32.55 29.61 -59.12 49.34 4.72 11.43 8.39 22.19 8.46 28.17 .21 17.08 -27.28 58.35 -27.08 71.27 .2 12.96 5.76 18.73 12.82 25.28 7.07 6.55 13.57 13.54 15.56 -1.46 2 -14.98 -10.69 -8.68 -10.73 -17.61 s 11.43 -28.37 20.6 -40.13 c 9.17 -11.74 32.13 -32.66 42.15 -51.38 6.06 -11.33 16.33 -41.36 23.5 -63.34 -4.97 -.75 -9.6 -1 -13.44 -1 -5.51 0 -10.04 .48 -12.72 .86 z"/><path d="m 779.4 560.6 c -7.45 2.38 -16.18 5.17 -25.9 6.65 7.86 5.35 13.79 10.39 14.11 13.65 1.01 10.11 3.98 13.63 0 17.61 -3.97 3.97 -6.06 4.35 -8.33 8.34 -2.28 3.97 -2.99 16.39 2.93 17.68 5.9 1.28 10 -1.61 12.07 -6.08 2.05 -4.48 12.5 -39.88 12.35 -48.65 -.05 -2.28 -2.24 -5.8 -5.55 -9.73 -.56 .18 -1.11 .34 -1.68 .53 z"/></g></svg>