<svg enable-background="new 0 0 100 100" viewBox="0 0 100 100" xmlns="http://www.w3.org/2000/svg"><path d="m 94.58 49.75 c .28 -1.42 .17 -2.82 -.45 -4.29 -.67 -1.59 -1.51 -3.19 -2.42 -4.67 -1.43 -2.32 -2.7 -4.78 -4.44 -6.84 -2.15 -2.55 -5.02 -4.1 -8.51 -4.24 -.92 -.04 -1.82 -.21 -2.68 -.51 -1.87 -.65 -3.8 -.68 -5.62 -.17 -5.21 1.44 -10.54 1.21 -15.84 1.39 -1.42 .05 -2.86 -.28 -4.27 -.54 -3.49 -.64 -6.91 -1.02 -10.16 .98 -2.36 1.45 -4.86 2.67 -7.22 4.12 -1.97 1.21 -3.81 2.61 -5.72 3.91 -.8 .54 -1.62 1.05 -2.45 1.57 -1.1 -2.18 -3.34 -2.11 -5.47 -1.39 -1.85 .84 -.19 2.14 1.31 3 .71 .41 .73 .97 .33 1.74 -.36 .68 -.39 1.53 -.6 2.29 s -.39 1.55 -.75 2.24 c -.38 .72 -.83 .82 -1.74 .31 -1.4 -.79 -2.9 -1.76 -3.92 -2.92 -.31 -.35 -1.04 -.99 -1.42 -.68 s .01 1.45 .16 1.92 c .45 1.49 1.03 2.94 1.54 4.41 .4 1.17 .18 1.4 -1.08 1.25 -3.58 -.44 -6.27 -2.13 -7.86 -5.45 -.68 -1.22 -.45 .73 -.45 .73 .36 2.78 1.74 4.85 3.76 6.43 .98 .77 4.33 2.9 5.52 3.5 .47 3.01 2.4 5.21 4.89 4.8 3.31 -.55 5.75 -2.81 7.9 -5.29 s 3.96 -4.21 6.6 -4.42 c 2.65 -.21 4.19 1.33 4.78 2.27 .9 1.42 1.68 2.92 2.43 4.43 .29 .59 .46 1.27 .54 1.93 .1 .94 -.01 1.9 .11 2.84 .2 1.59 -.2 2.83 -1.66 3.68 -.44 .26 -.91 .67 -1.1 1.12 -.16 .39 -.16 1.17 .14 1.35 .61 .38 4.85 .44 5.47 .36 1.34 -.17 1.84 -1.09 1.31 -2.32 -.21 -.47 -.33 -1.25 -.19 -1.75 .48 -1.77 1.09 -3.51 1.59 -5.06 1.08 2.78 1.93 3.15 4.84 4.55 2.44 1.17 2.72 3.36 3.77 3.51 s 2.53 -.39 2.67 -2.56 c .02 -.23 .04 -.46 .1 -.67 .61 -2.31 -.08 -3.16 -2.48 -3.1 -.95 .02 -1.71 -.32 -2.38 -1.08 -1.41 -1.61 -1.24 -3.36 -.61 -5.3 .14 -.43 .56 -.7 1.01 -.67 1.26 .1 2.55 .04 3.78 .26 2.52 .46 5.05 .94 7.57 .36 3.1 -.72 6.17 -1.61 8.4 -4.16 .39 -.44 .85 -.82 1.43 -1.38 .87 1.59 2.19 2.97 2.29 4.44 .14 2.19 1.57 3.92 1.45 6.22 -.1 1.9 .15 3.71 -1.08 5.35 -.82 1.1 -.25 2.45 1.13 2.41 1.24 -.04 2.91 -.33 3.71 -.81 s 1.18 -2.39 .54 -3.83 c -.18 -.39 .32 -1.94 .43 -2.46 .28 .54 .75 2.67 .88 3.55 .21 1.44 -.46 1.42 -1.24 2.22 -.63 .81 -.46 1.88 .23 1.98 1.33 .2 4 .2 5.26 -.05 s .99 -1.5 .69 -2.66 c -.51 -1.91 -1.07 -3.91 .32 -5.8 .27 -.37 .18 -1.1 .07 -1.63 -.13 -.62 -.57 -1.18 -.68 -1.81 -.27 -1.55 -.8 -3.18 -.56 -4.66 .55 -3.42 1.5 -6.78 2.28 -10.16 .07 -.31 .14 -.61 .27 -1.15 1.58 2.25 3.38 4.68 2.64 7.5 -.16 .49 -.63 1.46 -.71 2 -.09 .64 .33 1.5 .33 1.5 s .64 -.19 1.14 -1.17 .19 -2.8 .19 -2.8 z" fill="#fff"/></svg>