<svg enable-background="new 0 0 817.7061768 583.7626953" viewBox="0 0 817.71 583.76" xmlns="http://www.w3.org/2000/svg"><g fill="#fff"><path d="m 558.14 394.55 l 13.05 -110.63 c -3.64 .74 -7.15 1.28 -10.5 1.55 -1.66 .15 -3.66 .47 -5.61 .77 l -10.72 90.88 -499.72 -58.96 23.95 -203.01 225.01 26.55 c 2.98 -5.22 6.19 -10.17 9.74 -14.69 l -248.53 -29.32 -27.63 234.24 44.45 5.24 -71.63 17.39 55.74 229.2 519.48 -126.32 -15.23 -62.67 z m -219.41 -25.89 c 3.6 7.06 6.72 14.53 8.71 22.8 10.61 43.61 -7.59 85.44 -40.63 93.48 -33.07 8.06 -68.45 -20.78 -79.03 -64.39 -5.77 -23.73 -2.79 -46.72 6.25 -64.25 z m -271.43 196.09 l -48.32 -198.61 97.46 -23.7 44.81 5.29 -123.26 29.96 40.86 168.08 458.39 -111.46 -10.57 -43.48 16.66 1.97 12.92 53.06 z m 38.09 -92.87 c -11.25 2.73 -22.61 -4.18 -25.34 -15.4 -2.73 -11.25 4.18 -22.64 15.43 -25.34 11.25 -2.73 22.61 4.18 25.34 15.43 2.73 11.24 -4.15 22.58 -15.43 25.31 z"/><path d="m 286.11 156.62 l -203.74 -24.03 -20.27 171.77 339.75 40.08 c -11.11 -2.74 -20.46 -9.34 -26.46 -19.41 -7.2 -12.02 -6.66 -22.43 -4.93 -29.07 4.19 -16.22 18.89 -26.52 31.22 -33.69 22.04 -12.78 77.24 -48.13 94.62 -62.81 -4.6 -5.5 -13.49 -13.55 -23.23 -20.78 l -93.13 -10.99 c -7.64 5.39 -14.17 12.89 -19.48 22.56 -1.09 2.02 -2.07 3.87 -3.1 5.79 8.66 15.66 12.83 35.81 10.3 57.29 -5.26 44.58 -36.91 77.45 -70.68 73.46 -33.8 -3.99 -56.9 -43.34 -51.65 -87.89 3.19 -27.05 16.18 -49.66 33.39 -62.45 2.13 -6.73 4.56 -13.4 7.39 -19.83 z m -173.4 87.74 c -11.49 -1.36 -19.72 -11.8 -18.37 -23.28 s 11.8 -19.72 23.28 -18.37 c 11.51 1.36 19.73 11.77 18.37 23.28 s -11.77 19.73 -23.28 18.37 z"/><path d="m 438.33 338.74 c -2.89 1.81 -4.77 2.89 -5.36 3.21 -4.01 2.05 -10.58 3.77 -17.88 4.04 l 115.53 13.63 8.23 -69.74 c -21.66 6.15 -53.61 19.78 -100.52 48.86 z"/><path d="m 544.53 54.43 c -94.02 -8.44 -177.22 37.15 -219.42 70.43 -42.2 33.3 -48.51 131.73 -43.28 132.11 32.67 2.53 30.92 -16.14 62.86 -74.39 31.96 -58.24 93.18 -40.46 114.39 -30.06 21.21 10.41 56.02 39.61 53.51 49.87 -2.54 10.26 -88 63.52 -104.97 73.37 -17 9.88 -31.72 22.65 -20.69 41.11 s 32.75 13.1 36.96 10.97 c 4.21 -2.16 81.54 -53.72 133.52 -58.15 51.98 -4.42 154.46 -78.99 154.46 -78.99 l -67.89 -117.95 c -.03 .02 -5.44 -9.85 -99.45 -18.32 z"/><path d="m 701.45 6.13 h 74.7 v 192.06 h -74.7 z" transform="matrix(.8769307 -.4806168 .4806168 .8769307 41.82 367.65)"/></g></svg>