<svg enable-background="new 0 0 827.2529297 803.5639648" viewBox="0 0 827.25 803.56" xmlns="http://www.w3.org/2000/svg"><path d="m 808.13 312.78 c -22.26 -10.98 -48.07 -21.56 -72.18 -10.9 -22.85 10.14 -39.9 4.96 -59.47 -5.65 -58.16 -31.5 -115.31 -26.89 -174.16 1.9 -34.48 16.91 -74.7 23.2 -112.05 14.35 -27.45 -6.48 -53.74 -10.16 -81.1 -7.29 -19.73 2.08 -32.19 -4.1 -45.38 -20.21 -17.27 -21.08 -31.85 -45.8 -57.24 -62.34 -1.13 -6.65 -5.32 -12.04 -10.4 -16.85 23.89 -1.1 44.81 -2.05 69.18 -3.17 -33.6 -35.57 -67.55 -43.06 -107.58 -29.33 -1.41 -7.31 -1.6 -14.78 -1.95 -22.25 25.21 -77.78 90.36 -100.75 162.95 -114.93 -71.69 -6.52 -141.53 6.33 -171.27 75.29 -1.67 3.87 -3.39 7.66 -5.14 11.41 .73 -6.33 1.5 -12.64 3.24 -18.76 7.31 -15.5 15.33 -29.14 25.95 -40.39 21.94 -23.27 48.54 -40.69 74.76 -58.66 -62.86 15.91 -101.54 52.99 -116.98 105.06 -.11 .27 -.19 .56 -.25 .86 -4.52 15.52 -6.99 32.37 -7.42 50.38 -24.05 38.94 -54.26 70.92 -92.19 98.99 -19.14 14.15 -31.55 36.38 -19.99 60.05 13.27 27.19 36.05 9.56 53.61 4.02 19.28 -6.06 23.5 -.14 22.71 17.58 -.79 18.02 -10.56 35.54 -4.24 56.92 28.14 -22.53 37.5 -52.41 44.75 -89.15 29.56 35.03 41.24 71.89 59.67 104.9 29.58 53 21.13 126.03 84.58 161.04 14.37 66.42 73.36 130.57 11.54 200.96 -4.65 1.09 -4.77 8.23 -.34 9.62 .02 .14 .05 .27 .07 .41 .37 -.07 .76 -.14 1.15 -.19 .13 .01 .25 .02 .38 .02 .36 0 .71 -.04 1.03 -.1 .31 .06 .63 .1 .97 .1 .8 0 1.5 -.15 2.1 -.42 16.9 -.67 41.97 6.21 40.09 -6.99 -4.1 -28.62 14.02 -54.05 5.92 -79.78 -14.5 -46.08 -8.17 -91.49 -2.38 -137.94 2.47 7.87 5.32 15.64 7.95 23.46 .36 1.08 .97 1.89 1.71 2.45 .3 2.02 .71 4.05 1.29 6.05 .09 .32 .21 .62 .35 .89 1 3.77 3.01 7.69 3.69 10.72 3.68 16.16 8.55 32.33 15.16 47.54 4.6 10.56 9.89 21.11 14.31 31.63 1.12 14.27 .1 28.62 1.48 42.89 .1 1.08 .2 2.17 .29 3.25 -.11 .28 -.21 .59 -.28 .92 -2.25 11.01 -7.12 20.69 -11.96 30.69 -.96 .66 -1.89 1.35 -2.82 2.05 -.73 .31 -1.34 .77 -1.82 1.33 -.2 .15 -.4 .3 -.6 .44 -.07 .05 -.14 .1 -.21 .15 -.67 .24 -1.29 .61 -1.81 1.14 -.48 .49 -.85 .99 -1.13 1.56 -2.15 .27 -3.34 1.92 -3.58 3.8 -.42 .29 -.82 .59 -1.25 .88 .4 -.18 .81 -.32 1.21 -.46 -.13 2.59 1.47 5.45 4.79 5.75 6.65 .6 13.08 -.9 19.56 -2.17 11.32 3.08 21.2 2.65 24.27 -24.44 6.43 -56.8 -21.42 -105.23 -23.88 -158.9 -.07 -1.44 -.36 -2.7 -.84 -3.83 .75 -4.06 1.53 -8.12 2.26 -12.19 .32 -1.75 .47 -3.69 .68 -5.67 4.72 .26 9.57 .39 14.44 .54 60.16 1.94 119.62 -2.6 178.72 -14.33 4.43 -.88 8.59 -1.85 12.36 -3.02 12.27 -1.58 26.29 -5.32 34.36 -13.09 4.99 13.41 10.63 26.29 16.65 38.88 .49 9.24 2.99 17.94 5.96 26.61 .24 3.21 .5 6.41 .79 9.62 -.16 -.16 -.33 -.33 -.49 -.48 8.21 56.16 34.86 115.02 -26.22 162.24 .7 .05 1.38 .06 2.06 .08 -.04 .08 -.07 .17 -.11 .25 -.66 .59 -1.16 1.43 -1.39 2.57 -.17 .83 -.33 1.67 -.5 2.5 -.51 2.57 .7 5.52 3.49 6.15 9.17 2.06 18.66 -.5 27.85 -2.13 .82 2.3 2.98 4.36 7.16 5.93 12.19 4.55 34.92 10.52 41.4 -5.39 11.01 -27.02 31.4 -54.66 5.92 -87.1 -11.66 -14.85 -4.4 -37.24 -3.52 -56.3 .35 -8.12 8.06 -16.58 1.7 -24.11 -31.29 -37.12 -9.15 -69.1 13.01 -96.61 26.72 -33.2 33.49 -69.76 35.57 -109.95 1.67 -31.78 -2.17 -61.42 -22.18 -88.26 33.69 14.67 51.52 44.09 76.84 65.59 22.66 -40.62 24.94 -68.57 4.37 -78.68 z m -130.89 431.82 c .41 -4.83 .76 -9.67 1.1 -14.5 1.03 -1.78 1.83 -3.86 2.41 -6.17 .31 4.1 .54 8.19 .58 12.3 -1.17 2.8 -2.53 5.59 -4.09 8.37 z" fill="#fff"/></svg>