<svg enable-background="new 0 0 956.2319946 713.3237915" viewBox="0 0 956.23 713.32" xmlns="http://www.w3.org/2000/svg"><path d="m 683.82 77.85 c -11.87 -14.11 -24.58 -25.45 -36.72 -33.54 -3.95 -2.66 -7.81 -4.94 -11.54 -6.94 3.11 3.53 6.2 7.58 9.15 12.27 8.97 14.66 10.82 17.62 11.54 16.24 1.75 -4.15 15.49 14.05 25.77 41.29 9.29 23.5 14.97 55.6 15.1 64.35 .27 8.63 2.89 23.56 6.02 29.11 2.94 5.41 9.3 20.41 14.54 64.97 4.35 39.23 1.01 66.77 -1.29 77.77 -1.77 8.52 -1.85 27.34 .55 30.98 2.29 3.58 5.53 23.1 3 63.57 -1.09 22.66 -9.15 67.14 -12.66 60.08 -1.2 -2.73 -3.73 12.12 -4.89 22.39 -3.67 34.56 -11.59 63.51 -18.8 81.25 -7.22 17.81 -12.86 24.52 -11.74 16.41 .24 -2.32 -.28 -2.08 -1.53 .36 -1.28 2.41 -3.21 7.02 -6.06 13.36 -9.72 21.78 -20.38 38.14 -31.4 48.31 10.76 -4.33 21.87 -10.32 30.35 -16.13 14.97 -10.24 19.36 -15.47 18.8 -17.85 -.76 -2.82 10.9 -15.07 25.73 -37.33 14.94 -22.12 32.41 -54.82 46.49 -93.57 6.24 -17.35 8.11 -26.07 9.69 -40.58 2.43 -22.99 6.24 -53.39 8.31 -86.78 2.15 -33.39 2.61 -69.71 .87 -103.86 -1.2 -22.16 -3.72 -32.7 -8.97 -47.06 -12.81 -34.07 -27.56 -74.53 -47.45 -110.4 -9.87 -17.91 -20.96 -34.62 -32.86 -48.67 z m -187.71 -20.01 c -.1 3.04 -16.84 13.05 -39.53 33.15 -22.73 19.91 -50.61 51.23 -73.24 91.62 -10.02 18.09 -13.44 27.55 -17.47 43.38 -6.24 25.11 -13.73 58.57 -17.21 95.81 -1.53 15.9 -2.17 32.48 -2.17 49.17 l 50.09 -21.17 c -.12 -6.26 -.6 -11.69 -1.6 -13.59 -2.05 -4.12 -5.56 -26.86 1.09 -73.41 1.9 -12.98 6.18 -32.17 11.02 -46.84 4.76 -14.69 9.76 -24.82 10.7 -20.65 .63 3.24 6.08 -13.25 9.67 -24.61 11.64 -38.44 29.78 -68.65 43.98 -85.67 14.36 -17.07 23.17 -22 18.4 -13.94 -1.28 2.32 -.64 2.25 1.65 .1 l 12.02 -11.81 c 6.83 -6.55 13.64 -12.03 20.29 -16.74 -.56 .22 -1.15 .42 -1.69 .65 -19.43 7.65 -25.78 11.97 -26 14.55 z m 211.56 584.26 l -12.03 11.81 c -6.84 6.56 -13.63 12.03 -20.29 16.74 .56 -.22 1.14 -.42 1.69 -.64 19.44 -7.67 25.78 -11.99 26 -14.56 .1 -3.06 16.84 -13.06 39.52 -33.15 22.74 -19.92 50.61 -51.24 73.25 -91.62 10.02 -18.1 13.44 -27.56 17.46 -43.38 6.25 -25.11 13.75 -58.58 17.21 -95.82 3.62 -37.19 3.12 -77.99 -2.05 -115.94 -3.5 -24.62 -7.67 -36.13 -15.23 -51.46 -18.31 -36.36 -42.84 -77.99 -74.37 -111.8 -11.33 -12.31 -23.49 -23.49 -35.96 -33.33 .5 .6 1 1.15 1.49 1.75 9.34 11.25 18.23 25.5 24.72 38.23 6.47 12.75 10.7 23.85 12 28.73 2.7 9.57 8.86 25.85 13.16 31.67 2.12 2.83 5.49 8.25 10.03 19.3 4.47 11.05 10.22 27.73 15.48 53.15 9.03 44.89 6.05 77 4 89.62 -1.55 9.83 -1.77 31.47 .46 35.68 2.04 4.13 5.55 26.86 -1.09 73.41 -1.9 12.98 -6.18 32.18 -11.04 46.85 -4.76 14.69 -9.76 24.82 -10.69 20.64 -.64 -3.24 -6.08 13.25 -9.68 24.62 -11.65 38.43 -29.78 68.64 -43.98 85.66 -14.36 17.08 -23.16 22 -18.38 13.94 1.25 -2.32 .59 -2.25 -1.68 -.1 z m -190.52 -574.91 c .75 2.82 -10.9 15.06 -25.75 37.32 -14.93 22.13 -32.4 54.84 -46.48 93.57 -6.25 17.35 -8.12 26.07 -9.7 40.58 -2.42 23.01 -6.24 53.39 -8.3 86.79 -.25 3.92 -.41 7.99 -.62 11.98 l 10.76 17.04 c 1.31 2.09 3.69 3.39 6.14 3.39 .96 0 1.9 -.19 2.8 -.58 .16 -.07 .58 -.3 .97 -.56 l 13.4 -8.25 12.89 9.03 c 1.25 .88 2.76 1.37 4.24 1.37 .93 0 1.87 -.2 2.76 -.58 1.4 -.6 2.52 -1.56 3.34 -2.92 l .4 -.65 c .06 -7.05 -.48 -13.78 -1.82 -15.8 -2.28 -3.58 -5.53 -23.1 -2.99 -63.57 1.09 -22.66 9.15 -67.13 12.66 -60.07 1.19 2.73 3.72 -12.13 4.89 -22.39 3.65 -34.57 11.59 -63.5 18.79 -81.26 7.21 -17.8 12.85 -24.51 11.74 -16.4 -.25 2.32 .28 2.07 1.53 -.36 1.28 -2.42 3.22 -7.02 6.07 -13.37 9.72 -21.78 20.38 -38.13 31.4 -48.31 -10.76 4.33 -21.87 10.32 -30.36 16.13 -14.94 10.24 -19.32 15.46 -18.76 17.87 z m 82.43 -61.69 c -193.94 0 -351.15 157.22 -351.15 351.14 0 18.38 1.42 36.41 4.15 54.03 l 63.24 -26.73 c .23 -3.98 .57 -7.31 .86 -9.87 1.28 -11.24 1.69 -35.88 -.32 -40.75 -1.1 -2.4 -2.13 -10.04 -1.82 -23.79 .42 -13.71 2.13 -33.65 8.61 -59.79 3.52 -14.64 10.83 -35.99 18.57 -51.88 7.65 -15.94 14.99 -26.51 14.98 -21.77 -.08 3.66 9.01 -13.9 15.56 -25.8 21.45 -40.5 50.11 -68.86 70.32 -83.48 20.42 -14.72 31.28 -17.71 23.6 -10.57 -2.09 2.14 -1.4 2.18 1.67 .44 l 16.45 -9.49 c 30.15 -16.79 56.26 -23.68 75.53 -26.36 12.81 -1.71 22.64 -1.72 29.78 -.8 2.15 .19 4 .53 5.64 .95 .69 .11 1.35 .25 1.93 .45 .89 -1.21 1.7 -1.27 2.4 .04 .16 -.59 1.14 -1.19 2.96 -1.47 .94 -.21 2.11 -.37 3.53 -.47 2.27 -.23 5.09 -.39 8.66 -.39 11.44 .19 30.15 1.71 55.34 10.47 20.69 7.67 24.89 9.39 24.36 7.73 -2.07 -4.45 26.39 3 57.21 25.65 13.33 9.7 27.17 22.81 37.65 35.19 10.56 12.33 17.99 23.65 20.68 28.69 5.47 9.85 15.85 26.71 21.54 32.53 2.85 2.8 7.52 8.33 14.49 20.02 6.86 11.7 16.12 29.69 25.1 58.04 15.45 50.24 13.02 87.46 11.34 101.77 -1.28 11.23 -1.69 35.89 .31 40.75 1.1 2.4 2.14 10.04 1.82 23.79 -.42 13.72 -2.12 33.66 -8.6 59.8 -3.53 14.63 -10.84 35.99 -18.57 51.87 -7.65 15.95 -15 26.51 -14.99 21.77 .09 -3.67 -9.01 13.91 -15.56 25.81 -21.44 40.49 -50.09 68.85 -70.31 83.48 -20.42 14.71 -31.28 17.71 -23.61 10.56 2.09 -2.13 1.41 -2.19 -1.67 -.43 l -16.44 9.49 c -30.15 16.78 -56.27 23.68 -75.53 26.34 -12.81 1.72 -22.64 1.72 -29.79 .81 -2.15 -.19 -4 -.54 -5.63 -.94 -1.39 -.23 -2.63 -.59 -3.53 -1.09 -.31 -.2 -.43 -.36 -.56 -.54 -.04 -.06 -.18 -.13 -.19 -.19 -.52 -1.54 7.25 -2.44 15.35 -8.59 9.51 -6.77 19.05 -20.34 25.43 -31.2 8.06 -13.82 10.05 -19.49 8.47 -21.4 -1.78 -2.14 3.08 -16.42 9.58 -39.51 6.55 -23.06 14.52 -55.05 21.67 -90.96 3.18 -16.08 3.81 -23.92 3.54 -36.92 -.67 -41.11 3.32 -109.12 4.64 -169.81 .5 -19.68 -.77 -29.12 -4.23 -42.29 -8.46 -31.33 -15.51 -69.07 -24.02 -104.98 -8.38 -35.82 -18.46 -70.01 -30.81 -92.15 -6.06 -11.13 -12.66 -18.82 -18.39 -23.23 -4.88 -3.83 -8.92 -5.45 -10.47 -6.83 -.21 -.15 -.35 -.29 -.48 -.43 1.81 4.77 2.73 19.72 2.01 48.22 -.39 15.39 .66 18.52 1.73 17.72 3.48 -2.4 6.76 16.97 8.19 42.5 1.23 22.18 -.03 51.05 -1.51 58.8 -1.48 7.62 -1.5 21.25 .78 26.59 1.86 4.3 4.35 14.67 5.84 40.63 l 46.5 -19.65 6.8 27.08 c 27.86 110.84 4.11 222.81 -57.97 309.71 -1.32 20.03 -3.98 29.44 -6.1 21.76 -.56 -2.01 -.99 -1.63 -1.31 .79 s -.54 6.89 -.64 13.11 c -.73 45.29 -.97 70.69 -5.5 81.1 l .04 .03 c .26 .2 .46 .38 .59 .57 .02 .05 .1 .08 .13 .13 .46 .67 -.48 1.62 -2.87 2 -.95 .21 -2.11 .36 -3.53 .46 -2.28 .23 -5.09 .39 -8.67 .39 -11.42 -.18 -30.13 -1.7 -55.35 -10.47 -20.69 -7.66 -24.87 -9.39 -24.36 -7.73 .54 1.14 -.98 1.5 -3.99 1.01 -6.11 3.69 -12.33 7.23 -18.69 10.62 36.77 13.05 76.32 20.23 117.57 20.23 193.92 -.02 351.14 -157.24 351.14 -351.18 .03 -193.92 -157.19 -351.13 -351.12 -351.13 z m -15.4 25.86 c -9.5 6.77 -19.04 20.35 -25.42 31.2 -8.06 13.82 -10.06 19.49 -8.47 21.4 1.79 2.14 -3.08 16.42 -9.58 39.51 -6.56 23.06 -14.53 55.06 -21.67 90.97 -3.19 16.06 -3.81 23.92 -3.55 36.92 .4 24.03 -.8 57.28 -2.13 92.86 .17 -.05 .34 -.03 .49 -.1 3.2 -1.36 4.38 -4.38 4.42 -6.56 l .26 -14.22 12.59 -6.57 c 2.58 -1.34 4.13 -4.21 3.82 -7.14 l -1.74 -17.56 54.03 -22.83 c -.3 -3.59 -.79 -7.16 -1.46 -11.09 -14.03 -80.46 .23 -207.03 9.6 -232.94 -2.9 1.21 -6.97 2.95 -11.19 6.15 z m 4.11 652.43 c 2.59 2.05 4.95 3.41 6.86 4.49 -2.32 -10.25 -3.94 -35.94 -3.78 -53.41 .14 -15.21 .13 -20.71 -2.22 -21.77 -.97 -.44 -1.81 -2.98 -2.52 -7.2 -8.92 9.95 -18.44 19.44 -28.45 28.44 3.67 9.83 7.56 18.74 11.72 26.22 6.08 11.14 12.68 18.83 18.39 23.23 z m -45.03 -36.69 c -.15 .13 -.27 .23 -.42 .35 -.13 .25 -.32 .4 -.56 .46 -2.82 2.26 -5.69 4.47 -8.58 6.66 6.14 5.56 12.32 10.38 18.34 14.41 3.94 2.66 7.8 4.94 11.53 6.93 -3.11 -3.52 -6.19 -7.57 -9.15 -12.27 -7.76 -12.72 -10.2 -16.61 -11.16 -16.54 z m -114.4 .83 c 143.28 -60.56 217.59 -215.87 180.81 -362.18 l -50.9 21.5 c 1.24 12.43 -5.11 24.75 -16.57 30.72 -.22 11.94 -7.31 23.22 -19.03 28.17 -6.27 2.65 -12.9 3.07 -19.08 1.64 -3.29 5.42 -8.2 9.89 -14.48 12.55 -10.28 4.35 -21.55 2.73 -30.05 -3.24 -1.34 .83 -2.75 1.59 -4.22 2.24 -14.28 6.02 -30.47 .59 -38.48 -12.1 l -373.74 157.95 c 79.29 128.36 242.45 183.32 385.74 122.75 z m 154.36 -318.42 c 3.98 -6.81 10.4 -10.47 14.34 -8.17 3.93 2.3 3.9 9.69 -.06 16.49 -3.98 6.81 -10.4 10.47 -14.33 8.16 -3.94 -2.3 -3.93 -9.69 .05 -16.48 z m -50.99 60.35 c 1.4 -4.34 8.61 -5.9 16.12 -3.48 7.5 2.42 12.45 7.91 11.05 12.25 s -8.61 5.9 -16.12 3.46 c -7.51 -2.39 -12.47 -7.88 -11.05 -12.23 z m -2.32 52.86 c 3.99 -6.79 10.41 -10.45 14.34 -8.16 3.94 2.31 3.92 9.69 -.06 16.5 -3.97 6.81 -10.39 10.47 -14.33 8.16 -3.94 -2.29 -3.91 -9.68 .05 -16.5 z m -23.26 92.4 c 7.87 -.05 14.28 3.59 14.33 8.15 .03 4.57 -6.34 8.33 -14.23 8.38 -7.88 .05 -14.28 -3.59 -14.31 -8.15 -.04 -4.59 6.33 -8.32 14.21 -8.38 z m -26.79 -63.38 c 7.9 -.04 14.3 3.6 14.33 8.17 .04 4.56 -6.33 8.31 -14.22 8.37 -7.88 .06 -14.29 -3.59 -14.34 -8.16 -.01 -4.58 6.34 -8.3 14.23 -8.38 z m -38.65 85.35 c 5.45 -5.71 12.53 -7.77 15.83 -4.61 3.31 3.16 1.56 10.33 -3.89 16.02 -5.45 5.7 -12.54 7.75 -15.84 4.6 -3.31 -3.14 -1.56 -10.32 3.9 -16.01 z m -108.13 -6.78 c -5.46 5.7 -12.56 7.75 -15.86 4.6 -3.28 -3.16 -1.54 -10.32 3.91 -16.02 5.46 -5.69 12.54 -7.76 15.83 -4.61 3.29 3.16 1.55 10.34 -3.88 16.03 z m 74.09 -21.11 c -5.44 5.69 -12.54 7.75 -15.83 4.6 -3.3 -3.16 -1.54 -10.33 3.9 -16.03 5.46 -5.7 12.55 -7.77 15.84 -4.6 3.29 3.14 1.55 10.33 -3.91 16.03 z m -6.87 -90.86 c 7.88 -.38 14.45 3.01 14.66 7.57 .22 4.58 -6 8.58 -13.86 8.95 -7.89 .38 -14.43 -3 -14.66 -7.57 -.21 -4.57 5.99 -8.57 13.86 -8.95 z m -34.97 184.69 c 3.3 3.17 1.56 10.34 -3.89 16.03 -5.45 5.7 -12.54 7.76 -15.83 4.61 -3.3 -3.16 -1.55 -10.33 3.89 -16.03 5.45 -5.7 12.54 -7.76 15.83 -4.61 z m -16.85 -140.23 c 3.3 3.16 1.56 10.32 -3.89 16.03 -5.46 5.69 -12.53 7.75 -15.83 4.6 -3.31 -3.15 -1.56 -10.32 3.89 -16.03 5.45 -5.7 12.54 -7.77 15.83 -4.6 z m -29 -34.66 c 5.44 -5.71 12.53 -7.77 15.83 -4.61 3.3 3.15 1.55 10.33 -3.89 16.02 -5.46 5.7 -12.54 7.75 -15.85 4.6 -3.29 -3.15 -1.55 -10.32 3.91 -16.01 z m -28.64 165.8 c .22 4.56 -5.99 8.56 -13.87 8.95 -7.87 .38 -14.43 -3.01 -14.66 -7.58 -.22 -4.56 6 -8.56 13.87 -8.95 7.87 -.37 14.46 3.02 14.66 7.58 z m -38.95 -147.43 c 7.88 -.37 14.44 3.02 14.66 7.58 .21 4.57 -6 8.56 -13.88 8.96 -7.87 .37 -14.43 -3.02 -14.66 -7.58 -.2 -4.57 6.01 -8.58 13.88 -8.96 z m -9.35 69.1 c 7.9 -.06 14.31 3.6 14.34 8.17 .04 4.55 -6.33 8.31 -14.22 8.36 -7.88 .06 -14.28 -3.59 -14.33 -8.15 -.04 -4.58 6.33 -8.31 14.21 -8.38 z m -61.5 -28.99 c 5.45 -5.69 12.54 -7.76 15.85 -4.6 3.29 3.15 1.54 10.33 -3.89 16.03 -5.46 5.69 -12.56 7.76 -15.86 4.6 -3.28 -3.15 -1.55 -10.33 3.9 -16.03 z m 4.76 101.1 c 7.86 -.37 14.43 3.01 14.66 7.59 .22 4.55 -6 8.55 -13.87 8.92 -7.86 .39 -14.44 -2.99 -14.66 -7.57 -.21 -4.56 5.98 -8.56 13.87 -8.94 z m -65.19 -52.87 c 1.42 -4.35 8.62 -5.9 16.14 -3.49 7.5 2.4 12.44 7.91 11.05 12.24 -1.41 4.35 -8.61 5.9 -16.13 3.49 -7.5 -2.41 -12.44 -7.89 -11.06 -12.24 z m 526.43 -284.9 l -20.76 8.78 c 38.94 154.91 -39.71 319.32 -191.4 383.43 -151.7 64.11 -324.42 5.92 -408.38 -129.95 l -20.77 8.76 c 89.77 145.3 274.46 207.51 436.65 138.96 162.2 -68.56 246.3 -244.35 204.66 -409.98 z" fill="#fff"/></svg>