<svg enable-background="new 0 0 841.889 595.281" height="595.28" viewBox="0 0 841.89 595.28" width="841.89" xmlns="http://www.w3.org/2000/svg"><path d="m 641.22 459.64 v -388.31 c 0 -27.05 -16.74 -67.29 -62.89 -67.29 h -358.95 c -6.46 -.48 -30.23 -.68 -52.73 19.22 -26.8 23.71 -40.39 65.69 -40.39 124.82 v 18.27 h 73.04 v 363.49 c 0 21.7 5.85 38.3 17.4 49.3 9.13 8.7 19.06 11.24 24.86 11.95 v .3 h 382.77 c 72.22 0 91.3 -74.32 91.3 -113.61 v -18.31 z m -477.94 -329.82 c 2.6 -44.3 14.53 -66.19 25.27 -77.03 5.17 4.08 10.75 14.65 10.75 37.17 v 39.86 z m 110.07 348.95 c 0 57.49 -16.99 74.69 -27.74 75.99 -4.62 -.85 -9.79 -7.79 -9.79 -24.94 v -439.86 c 0 -22 -4.52 -38.03 -11.09 -49.52 l 353.6 .12 c 24.05 0 26.27 23.64 26.36 30.77 v 388.41 l -331.35 .83 v 18.2 z m 350.98 76.08 h -328.45 c 6.7 -13.62 11.79 -32.29 13.43 -57.88 l 368.15 -.91 c -3.64 22.84 -15.38 58.79 -53.13 58.79 m -172.81 -435.91 h 114.05 v 36.52 h -114.05 z m 0 81.15 h 114.05 v 36.51 h -114.05 z m 0 79.25 h 114.05 v 36.51 h -114.05 z m -155.64 83.24 h 271.26 v 36.52 h -271.26 z m 107.34 -137.2 c 0 4.65 -.71 9.32 -2.1 13.87 -1.43 4.7 -3.84 9.09 -7.17 13.05 -3.29 3.92 -7.6 7.33 -12.8 10.13 -4.33 2.32 -9.51 4.11 -15.42 5.34 v 26.68 h -35.04 v -25.73 c -9.02 -.94 -16.59 -2.52 -22.55 -4.68 -6.68 -2.41 -11.53 -4.39 -14.83 -6.05 l -3.29 -1.65 12.02 -32.17 4.06 1.97 c 4.75 2.31 10.52 4.45 17.14 6.35 6.48 1.88 13.45 2.83 20.7 2.83 10.14 0 13.98 -1.71 15.37 -2.73 2.13 -1.56 3.12 -3.66 3.12 -6.61 0 -1.89 -.4 -3.41 -1.23 -4.66 -.95 -1.43 -2.42 -2.8 -4.35 -4.04 -2.19 -1.42 -5.04 -2.85 -8.48 -4.23 -3.64 -1.48 -7.84 -3.05 -12.6 -4.73 -4.81 -1.75 -9.54 -3.69 -14.1 -5.79 -4.75 -2.19 -9.14 -4.92 -13.03 -8.11 -4.06 -3.34 -7.34 -7.47 -9.79 -12.29 -2.49 -4.88 -3.75 -10.78 -3.75 -17.51 0 -5.08 .75 -10.06 2.21 -14.75 1.5 -4.8 3.85 -9.24 7 -13.17 3.17 -3.96 7.32 -7.35 12.32 -10.08 4.06 -2.22 8.78 -3.96 14.06 -5.18 v -23.76 h 35.04 v 22.57 c 6.03 .71 11.41 1.7 16.03 2.92 5.49 1.47 9.97 2.97 13.32 4.49 l 3.14 1.42 -8.66 33.51 -4.38 -1.86 c -4.44 -1.88 -9.7 -3.53 -15.62 -4.89 -5.86 -1.35 -12.11 -2.02 -18.58 -2.02 -7.31 0 -10.68 1.4 -12.22 2.56 -1.98 1.52 -2.87 3.26 -2.87 5.69 0 1.54 .29 2.84 .85 3.84 .59 1.04 1.61 2.03 3.02 2.94 1.77 1.15 4.02 2.28 6.7 3.39 2.85 1.2 6.3 2.48 10.32 3.87 6.45 2.35 12.44 4.94 17.88 7.69 5.62 2.86 10.57 6.18 14.72 9.88 4.3 3.83 7.71 8.38 10.15 13.56 2.44 5.22 3.69 11.32 3.69 18.14 z" fill="#fff"/></svg>