<svg enable-background="new 0 0 163.9 300" viewBox="0 0 163.9 300" xmlns="http://www.w3.org/2000/svg"><g fill="#fff"><path d="m 113.5 258.5 l -15.4 -43 c -.1 -.3 -.1 -.7 -.1 -1 l 7.4 -43.9 c .3 -1.8 .4 -3.6 .2 -5.5 l -2.1 -19.3 c 0 -1.1 -.9 -2 -2 -2 h -.2 l -47.8 4.2 c -1 .1 -1.9 1 -1.8 2 l -31.2 57.8 c -.3 .5 -.3 1.2 -.1 1.7 l 20.7 48.5 c .4 1 1.6 1.5 2.6 1.1 .1 0 .1 -.1 .2 -.1 l 9.7 -5.2 c .8 -.4 1.2 -1.3 1 -2.2 l -9.4 -38.7 c -.1 -.5 0 -1.1 .3 -1.6 l 26.2 -40.3 c .8 -1.2 2.1 -1.9 3.5 -1.8 h .8 c 1.1 0 1.9 .8 2 1.9 l -3 48.4 c 0 .4 .1 .8 .2 1.1 l 24.1 43.4 c .5 .9 1.5 1.2 2.4 .9 l 10.5 -3.8 c 1.1 -.4 1.7 -1.5 1.3 -2.6 z"/><path d="m 115.3 65.5 c -.8 -1.6 -2.5 -2.4 -4.3 -2.1 l -7.5 1.4 c -.4 .1 -.8 .1 -1.2 0 l -8.2 -1 c -.4 -.1 -.9 .2 -.9 .7 -.7 5.5 -7.4 11.7 -15.6 11.7 s -14.9 -6.2 -15.6 -11.7 c -.1 -.4 -.5 -.7 -.9 -.7 l -6.2 .9 c -.6 .1 -1.3 0 -1.8 -.2 l -5.4 -1.8 c -1.6 -.5 -3.3 0 -4.4 1.3 l -14.4 18.2 c -1.4 1.7 -1.1 4.3 .7 5.6 .2 .1 .4 .3 .6 .4 l 18 9.5 c .9 .3 1.6 1.2 1.6 2.2 l .4 38.3 c .1 1.1 .9 1.9 2 2 h 50.7 c 1.1 -.1 1.9 -.9 2 -2 l .4 -38.3 c 0 -1 .7 -1.9 1.6 -2.2 l 16.3 -8 c 2 -1 2.8 -3.4 1.8 -5.4 0 0 0 0 0 -.1 z"/><path d="m 56.4 41.6 h .9 c .7 0 1.4 .6 1.4 1.3 0 7.9 5 11.8 10 16.7 .2 .2 .4 .4 .6 .6 l 1.7 1.7 c .4 .4 .4 1 0 1.4 -.2 .2 -.4 .3 -.7 .3 h -1.7 c -.3 0 -.6 .2 -.6 .6 v .1 c 1.5 5.3 7 8.4 12.3 6.9 3.4 -.9 6 -3.6 6.9 -6.9 .1 -.3 -.1 -.6 -.4 -.7 h -.1 -1.7 c -.6 0 -1 -.4 -1 -1 0 -.3 .1 -.5 .3 -.7 l 1.7 -1.7 c .2 -.2 .4 -.4 .6 -.6 5 -4.9 10 -8.8 10 -16.7 0 -.7 .6 -1.3 1.3 -1.3 h .9 c 1 0 1.9 -.7 2 -1.7 l 1.2 -9 c .1 -.6 -.3 -1.1 -.9 -1.2 -.4 0 -.8 .1 -1 .4 -.4 .6 -1.3 .8 -1.9 .3 -.3 -.2 -.5 -.6 -.6 -.9 l 2.7 -12.9 c .6 -2.7 -1.2 -5.3 -3.9 -5.9 -.3 -.1 -.7 -.1 -1 -.1 h -2.8 l 4 -4 c 0 -3.3 -2.7 -6 -6 -6 h -20 c -5.5 0 -10 4.5 -10 10 h -.8 c -2.8 0 -5 2.2 -5 5 0 .3 0 .7 .1 1 l 2.7 13 c -.2 .7 -.9 1.2 -1.6 1 -.3 -.1 -.6 -.3 -.8 -.5 -.3 -.5 -1 -.7 -1.5 -.4 -.4 .2 -.6 .7 -.5 1.2 l 1.2 9 c .1 1 1 1.7 2 1.7 z m 14.7 6.7 h 13 c .3 0 .6 .2 .6 .5 -.3 3.1 -5.2 4.6 -7.1 4.6 s -6.8 -1.5 -7.1 -4.6 c 0 -.3 .3 -.5 .6 -.5 z"/><path d="m 26.9 78.5 l 11 -14.4 c .5 -.6 .3 -1.5 -.3 -2 l -22 -13.9 c -.4 -.2 -.6 -.6 -.7 -1.1 l -2.9 -30.3 c -.1 -.6 -.5 -1.1 -1.1 -1.2 l -5.5 -1.4 c -.8 -.2 -1.5 .3 -1.7 1 v .2 l -3.7 35.8 c 0 .4 .1 .8 .4 1.1 l 24.4 26.3 c .5 .6 1.4 .6 2 .1 0 -.1 .1 -.1 .1 -.2 z"/><path d="m .9 10.2 l 11.8 4.2 c .7 .2 1.4 -.1 1.7 -.7 l 4.1 -8.2 c .2 -.4 .2 -.9 0 -1.3 l -1.3 -2.6 c -.2 -.5 -.7 -.8 -1.2 -.8 h -13.8 c -.7 0 -1.3 .5 -1.4 1.2 l -.7 6.7 c -.1 .7 .2 1.3 .8 1.5 z"/><path d="m 19.8 13.3 l 1.2 -.3 c .6 -.1 1 -.5 1.1 -1.1 l .8 -3.8 c .1 -.8 -.4 -1.5 -1.1 -1.7 -.6 -.1 -1.2 .2 -1.5 .7 l -2 4 c -.4 .7 -.1 1.5 .6 1.9 .2 .3 .5 .3 .9 .3 z"/><path d="m 159.1 15 l -6.3 .7 c -.5 .1 -1 .4 -1.2 .9 l -11.5 31.8 c -.1 .3 -.3 .6 -.6 .7 l -21.3 13 c -.7 .4 -.9 1.3 -.5 1.9 v .1 l 10.2 15.3 c .4 .6 1.3 .8 2 .4 .1 -.1 .2 -.1 .2 -.2 l 24.5 -26.4 c .2 -.2 .3 -.5 .4 -.7 l 5.6 -35.8 c .1 -.8 -.4 -1.5 -1.1 -1.6 -.1 -.1 -.3 -.1 -.4 -.1 z"/><path d="m 162.9 4.4 l -10.3 -4.3 c -.4 -.2 -.9 -.1 -1.3 .1 l -3.4 2 c -.6 .3 -.8 1 -.6 1.7 l 2.4 7 c .2 .6 .7 1 1.2 1 l 10.7 .8 c .8 .1 1.4 -.5 1.5 -1.2 l .7 -5.6 c .1 -.7 -.3 -1.3 -.9 -1.5 z"/><path d="m 144.8 12.9 c .1 .6 .5 1 1.1 1.1 l 1.3 .2 c .8 .2 1.5 -.3 1.7 -1.1 .1 -.3 0 -.6 -.1 -.9 l -2 -4 c -.4 -.7 -1.2 -1 -1.9 -.6 -.6 .3 -.9 .9 -.7 1.5 z"/><path d="m 58.7 261.2 l -3.8 -2.6 c -.6 -.4 -1.4 -.4 -2 -.1 l -6.2 3.1 c -.5 .2 -.8 .6 -1 1.1 l -4.6 13 c -.8 2.1 -1.1 4.4 -1.1 6.7 v 3.1 c 0 2.1 1.7 3.8 3.8 3.8 .2 0 .4 0 .6 -.1 1 -.2 1.9 -.7 2.5 -1.6 l 13.2 -19.5 c 1.6 -2.2 1 -5.3 -1.4 -6.9 .1 0 .1 0 0 0 z"/><path d="m 113.2 265.4 c -.6 -.6 -1.5 -.7 -2.2 -.4 l -6.6 2.9 c -.7 .3 -1.2 1 -1.2 1.8 v 19.5 c 0 1.4 .3 2.8 .9 4.1 l 1.7 3.7 c 1.1 2.5 4.1 3.6 6.6 2.5 .2 -.1 .5 -.2 .7 -.4 2.6 -1.7 4.2 -4.6 4.3 -7.7 l .6 -16.7 c .1 -2.8 -.9 -5.5 -2.9 -7.5 z"/></g></svg>