<svg enable-background="new 0 0 987.8432007 738.8480835" viewBox="0 0 987.84 738.85" xmlns="http://www.w3.org/2000/svg"><path d="m 902.45 521.09 c -11.85 -43.18 0 -77.05 22.01 -131.23 9.95 -24.48 18.41 -52.3 18.41 -73.38 0 -63.67 -16.71 -100.18 -70.9 -116.27 -43.67 -12.97 -99.35 16.89 -117.26 24.93 -16.66 -13.99 -41.59 -25.45 -80.77 -27.09 -33.24 -1.38 -64.91 7.52 -95.56 16.13 l -32.65 8.71 c -19.07 6.03 -40.16 10.25 -57.82 11.59 -15.82 1.2 -30.46 1.09 -43.83 .1 -25.23 -10.31 -53.07 -36.06 -78.5 -60.65 -21.8 -21.07 -38.15 -41.42 -52.58 -59.39 -21.47 -26.7 -40.01 -49.77 -68.17 -64.95 -43.37 -23.35 -86.42 -13.46 -107.09 -7.48 -8.82 -7.13 -11.94 -8.04 -17.3 -16.6 -11.36 -18.14 -25.83 -18.38 -28.44 -20.52 .44 2.36 11.71 62.92 11.71 62.92 l -84.04 93.25 c -10.01 11.11 -14.67 19.11 -14.67 26.76 0 4.45 1.6 8.81 4.63 13.57 10.84 17.02 16.13 22.09 30.45 22.89 8.71 .48 21.68 -5.96 36.73 -13.44 l 9.87 -4.87 s 21.64 -8.31 37.2 -13.76 c 8.46 -2.96 24.61 -14.18 24.61 -14.18 s 10.05 -9.19 10.09 -9.1 c 100.97 148.38 70.49 169.54 82.71 211.55 9.09 31.26 48.12 75.3 48.56 76.28 l .02 .07 s 43.41 145.1 28.2 243.31 c -2.58 16.69 -13.13 16.31 -15.24 21.6 -4.88 12.19 3.01 11.82 3.02 12 h 42.69 c 5.29 -6.13 -5.09 -15.65 -3.8 -31.27 .48 -6.01 11.55 -2.15 11.2 -9.73 -3.6 -79.37 14.8 -228.35 14.8 -228.35 l .51 .14 c 69.19 17.39 126.68 -6.19 172.73 -15.98 51.47 -10.94 87.6 -9.41 88.21 -9.75 l .31 -.17 s 87.08 73.45 97.51 108.36 c 28.99 97.16 5.45 164.34 5.28 171.68 -.25 11.94 7.69 14.91 7.71 15.1 h 43.11 c 0 -.02 1.06 -6.87 -1.15 -14.83 -3.62 -13.04 -12.43 -27.38 -7.91 -35.33 6.86 -12.05 7.72 -2.99 10.28 -9.51 2.53 -6.46 -4.31 -22.91 -3.78 -60.28 .27 -20.39 11 -48.84 11 -91.43 0 0 -28.93 -57.68 -31.31 -78.05 -3.05 -25.99 6.86 -46.95 19.16 -97.64 4.87 -19.9 7.29 -35.98 7.29 -49.7 0 -15.69 -3.2 -28.31 -9.61 -40.02 -.39 -.71 -.83 -1.45 -1.23 -2.19 .01 .03 .04 .05 .05 .08 13.36 -4.05 54.16 -15.7 72.13 4.84 22.13 25.27 11.09 58.5 -2.9 100.56 -11.19 33.63 -25.12 75.47 -25.12 124.26 0 44.55 23.69 86.97 51.6 100.75 40.1 19.8 91.28 -17.7 108.2 -34.62 -19.41 -11.05 -71.88 1.23 -80.36 -29.67 z" fill="#fff"/></svg>