<svg viewBox="0 0 300 300" xmlns="http://www.w3.org/2000/svg"><g fill="#fff"><ellipse cx="132.28" cy="125.65" opacity=".15" rx="3.01" ry="1.33" transform="matrix(.05251025 -.99862039 .99862039 .05251025 -.14 251.15)"/><ellipse cx="146.49" cy="125.62" opacity=".15" rx="3.01" ry="1.33" transform="matrix(.05251025 -.99862039 .99862039 .05251025 13.35 265.31)"/><path d="m 104.87 130.68 c .21 -2.23 1.06 -3.93 2.4 -4.38 a 1.66 1.66 0 0 0 .51 -.7 c .82 -3.53 2.56 -20.5 6.85 -22.77 a 12.12 12.12 0 0 1 6.05 -1.39 c 7.48 -.93 17.3 5.31 22.92 7.48 2.87 1.11 7.9 .21 11.78 -2.88 a 2 2 0 0 1 3 .86 c 1.56 3.71 5.49 12.63 6.67 23.41 a 3.4 3.4 0 0 1 -.06 .53 c 1 -3.89 4.43 -18.16 3.7 -25 -.8 -7.54 -4.52 -9.72 -7 -10.32 a 3.75 3.75 0 0 1 -2.79 -2.78 22.51 22.51 0 0 0 -2.77 -6.74 c -6.77 -9.89 -21 -16.9 -31.95 -10.3 -6.17 3.84 -6.11 12.71 -11.58 17.41 a 13 13 0 0 1 -6 2.1 c -7.89 .75 -11.82 10.38 -5.55 18.64 1.71 2.24 2.7 10.86 3.82 16.83 z" opacity=".25"/><path d="m 141.3 126.29 c -1.81 -8 -.13 -13.56 2.13 -17.44 -5.65 -2.23 -15.34 -8.33 -22.75 -7.41 a 12.12 12.12 0 0 0 -6.05 1.39 c -4.29 2.27 -6 19.24 -6.85 22.77 a 1.66 1.66 0 0 1 -.51 .7 c -1.34 .45 -2.19 2.15 -2.4 4.38 v -.17 a 14.31 14.31 0 0 0 .43 4.63 7.61 7.61 0 0 0 3.39 4.3 4.22 4.22 0 0 1 1.17 1.13 38.84 38.84 0 0 0 6.6 15.43 c 1.43 2.15 2.71 4.16 3.78 6.15 a 28.06 28.06 0 0 0 -2.6 -4.55 c 12.93 9.4 24.36 6.59 24.36 6.59 s -2.26 -4.47 -3.07 -6.84 a 29.74 29.74 0 0 1 -1.22 -5.41 h -4.29 a 15.72 15.72 0 0 1 -2 -.1 9.01 9.01 0 0 1 -2.15 -.49 l -.3 -.12 a 1.91 1.91 0 0 1 -1.07 -2.47 2.15 2.15 0 0 1 .42 -.64 7.87 7.87 0 0 1 2 -1.48 8.98 8.98 0 0 1 2.22 -.82 19.95 19.95 0 0 1 4.71 -.69 h .16 a 16.45 16.45 0 0 1 .32 -2.39 3.6 3.6 0 0 1 1 -2 c 1 -.9 2.61 -.69 3.65 -1.52 s 1.13 -2.43 1 -3.78 c -.49 -3.09 -1.38 -6.1 -2.08 -9.15 z m -18.86 -12.94 c -3.87 -.29 -.39 -6.69 -.39 -6.69 s 4.17 6.12 .39 6.69 z m 11.17 12.37 c -.08 1.66 -.75 3 -1.48 2.94 s -1.26 -1.41 -1.17 -3.08 .75 -3 1.48 -2.94 1.26 1.42 1.17 3.08 z m .39 -10.22 a 16.62 16.62 0 0 1 -2.36 .92 l -2.36 .79 -2.36 .8 a 23.32 23.32 0 0 1 -2.42 .7 .47 .47 0 0 1 -.57 -.35 v -.01 a .47 .47 0 0 1 .17 -.49 11.75 11.75 0 0 1 2.23 -1.33 c .79 -.35 1.59 -.67 2.41 -.94 a 24.24 24.24 0 0 1 2.5 -.67 9.36 9.36 0 0 1 2.59 -.24 .43 .43 0 0 1 .41 .45 v .01 a .44 .44 0 0 1 -.24 .36 z"/><path d="m 151.49 160.86 c 5 -5.2 9.45 -10.59 11.57 -18.48 .6 -2.26 1.59 -9.69 1.95 -12.51 -1.24 -10.59 -5.08 -19.31 -6.62 -23 a 2 2 0 0 0 -3 -.86 c -3.88 3.09 -8.91 4 -11.78 2.88 l -.17 -.07 c -2.26 3.88 -3.94 9.41 -2.13 17.44 .69 3 1.59 6.06 2 9.16 .17 1.35 .11 2.93 -1 3.78 s -2.67 .62 -3.65 1.52 a 3.6 3.6 0 0 0 -1 2 16.45 16.45 0 0 0 -.32 2.39 18.19 18.19 0 0 1 4.75 .64 8.52 8.52 0 0 1 4.38 2.85 2 2 0 0 1 -.34 2.81 l -.06 .04 a 2 2 0 0 1 -1 .4 h -.4 a 21.85 21.85 0 0 1 -3.67 .15 c -1.07 -.06 -2.17 -.05 -3.29 -.05 a 29.74 29.74 0 0 0 1.22 5.41 c .81 2.37 3.07 6.84 3.07 6.84 h -.1 a 35.12 35.12 0 0 1 -14.1 -1.31 37.12 37.12 0 0 1 -9.36 -4.76 c -.36 -.27 -.73 -.54 -1.09 -.83 0 0 4.11 7.54 3.78 14.41 s -2.46 7.39 -2.46 7.39 17.71 15.83 37 -1 l -3.5 -.75 s -2.72 -4.13 -1.16 -15.23 a 3.29 3.29 0 0 1 .48 -1.26 z m -3.67 -35.17 c -.09 1.66 -.76 3 -1.49 2.94 s -1.26 -1.42 -1.17 -3.08 .75 -3 1.49 -2.94 1.25 1.39 1.17 3.08 z m 1.4 -7.08 l -2.27 -1 a 17.65 17.65 0 0 1 -2.25 -1.15 .44 .44 0 0 1 -.14 -.6 .46 .46 0 0 1 .39 -.21 9.99 9.99 0 0 1 2.55 .51 c .82 .27 1.63 .57 2.42 .92 a 23.81 23.81 0 0 1 2.3 1.19 10.89 10.89 0 0 1 2.09 1.55 .48 .48 0 0 1 0 .68 .47 .47 0 0 1 -.5 .12 20.12 20.12 0 0 1 -2.33 -1 z" opacity=".8"/><path d="m 172.77 92.13 l -1.37 -.64 12.25 -7.34 a 42.77 42.77 0 0 0 29.91 -79.53 42.76 42.76 0 0 0 -40.31 75 l -1.85 11.87 z"/><path d="m 77.09 184 c 10.54 6.36 25.28 -15.57 25.28 -15.57 s .11 .4 .33 1.09 c -4.47 -16.19 -10.24 -33.94 -14 -43.7 -10.44 -26.82 -37.98 -63.82 -45.1 -73.33 l -.87 -1.22 c -2.71 -3.8 4.07 -23.4 2.35 -26.4 -1 -1.69 -3.47 .69 -4.49 2.17 a 15.58 15.58 0 0 0 -1.89 4.05 c -.43 1.31 -.77 3.3 -2 4.14 -4.34 3 -7.84 -10.92 -8.94 -13.24 -1.28 -2.7 -4.53 -10.21 -8.86 -8.25 -3.8 1.72 4.85 13 5 15.75 -1.3 -1.1 -3.9 -3 -4.86 -4.36 -1.14 -1.64 -2.25 -3.29 -3.5 -4.85 -1.5 -1.87 -5 -5.87 -7.82 -4 -4.33 2.94 8.91 14.85 9.8 17.91 -1.43 -.57 -2.76 -2.18 -3.91 -3.17 -1.61 -1.39 -3.19 -2.82 -4.86 -4.14 s -4.61 -4 -7 -2.39 c -4.61 3.14 11.07 13.18 12.65 15 -3.71 .31 -7.15 -2.16 -10.8 -2 -1.05 0 -4 1 -3.52 2.56 .64 1.82 2.36 2.38 4.09 2.7 5.87 1.08 11.44 6 15.37 10.51 s 8.7 5.36 12.4 10.23 c .62 .82 2.08 3 3.08 4.36 6.82 10.36 9.83 19.52 13.61 28.75 0 0 16.63 48.05 17.79 52.2 .69 2.4 1.23 4.83 1.76 7.26 l 2 9.14 c 1.08 4.81 2.24 9.61 3.55 14.34 a 8.44 8.44 0 0 0 3.36 4.46 z m -31.61 -128.86 c -.62 -.87 -1.24 -1.73 -1.85 -2.6 l 1.95 2.62 z" opacity=".8"/><path d="m 85 215.38 l -.44 -.66 c 2.85 22.33 9.26 68.26 13.41 77.78 5.89 4.38 18.85 5.68 30.77 6.07 -11.17 -6.45 -41.55 -60.32 -43.74 -83.19 z" opacity=".5"/><path d="m 135 298.7 h 7.63 c -2.56 .03 -5.1 0 -7.63 0 z"/><path d="m 202.54 182.21 c -.66 1.38 -1.92 4.06 -3.44 7.59 1.14 -2.25 2.3 -4.8 3.44 -7.59 z"/><path d="m 295.73 49.34 c -3.6 -.61 -7.35 1.35 -11 .54 1.81 -1.6 18.74 -9.38 14.6 -13.12 -2.12 -1.92 -5.29 .26 -7.24 1.4 s -3.6 2.28 -5.39 3.43 c -1.27 .82 -2.81 2.24 -4.31 2.6 1.32 -2.91 16.07 -12.87 12.19 -16.38 -2.53 -2.29 -6.55 1.19 -8.3 2.83 -1.45 1.36 -2.78 2.85 -4.13 4.32 -1.15 1.25 -4 2.73 -5.42 3.64 .49 -2.73 10.62 -12.68 7.09 -14.91 -4 -2.54 -8.27 4.44 -9.91 6.94 -1.41 2.15 -6.8 15.4 -10.69 11.88 -1.1 -1 -1.16 -3 -1.4 -4.37 a 15.74 15.74 0 0 0 -1.32 -4.28 c -.8 -1.6 -2.95 -4.31 -4.15 -2.77 -2.11 2.73 1.9 23.08 -1.32 26.47 -2.1 2.22 -4.19 4.51 -6.4 6.63 l -.49 .49 c -14.1 12.94 -37.24 35.34 -49.26 54 -6 9.33 -16.06 27 -24 42.69 .63 1.14 16.33 29.35 28 19.93 5.28 -13 9.95 -28.85 9.95 -28.85 1 -2.27 2 -4.55 3.18 -6.76 2 -3.82 28 -47.53 28 -47.53 6.5 -9.66 12 -19.45 23.94 -29.87 3.2 -1.8 6.53 -2.71 9.78 -5.5 4.51 -3.88 10.7 -8 16.66 -8.28 1.77 -.08 3.54 -.39 4.43 -2.11 .78 -1.49 -2.06 -2.88 -3.09 -3.06 z" opacity=".8"/><path d="m 203 181.17 c -11.91 9.9 -28.12 -19.87 -28.12 -19.87 a 68.07 68.07 0 0 1 -10.27 15.3 c -1.58 1.24 -5.09 1.64 -9.42 1.43 l .41 .09 c -19.22 16.78 -36.88 1.08 -37 1 -4.34 1.85 -11.09 1.16 -13.06 -1.84 a 70.15 70.15 0 0 1 -3.24 -8.84 s -14.67 21.93 -25.21 15.56 a 8.7 8.7 0 0 1 -3.62 -5.08 66 66 0 0 0 11.53 36.46 8.4 8.4 0 0 0 .12 1.1 v .35 c 0 .12 .07 .52 .12 .8 s 0 .29 .07 .43 a 3.96 3.96 0 0 1 .13 .75 c .04 .25 .07 .35 .11 .53 s .09 .46 .14 .7 .08 .36 .12 .54 .1 .48 .16 .72 .09 .37 .13 .55 l .18 .75 .16 .58 c .06 .25 .13 .5 .2 .76 s .11 .4 .17 .6 l .21 .77 c .06 .21 .13 .42 .19 .63 s .15 .51 .23 .77 l .21 .67 .24 .76 .23 .69 c .08 .25 .17 .51 .25 .77 l .24 .69 .27 .79 .26 .72 c .09 .26 .19 .52 .28 .79 l .27 .73 .3 .8 c .09 .24 .19 .49 .28 .74 l .31 .81 c .1 .25 .2 .51 .31 .77 s .2 .53 .31 .79 .21 .53 .32 .8 l .32 .78 c .11 .28 .23 .56 .34 .83 l .32 .77 .36 .85 .33 .76 .37 .87 .33 .75 .39 .89 c .11 .24 .22 .49 .34 .74 s .27 .61 .41 .91 l .33 .73 .43 .93 .33 .71 c .15 .32 .3 .65 .46 1 l .31 .67 .48 1 c .1 .22 .21 .44 .32 .66 l .49 1 c .11 .21 .21 .41 .31 .62 l .52 1.06 c .1 .2 .2 .39 .29 .59 l .55 1.08 .28 .56 c .19 .37 .38 .74 .58 1.11 .08 .17 .17 .34 .26 .51 .19 .38 .39 .76 .59 1.14 l .26 .5 c .2 .38 .4 .77 .61 1.15 l .24 .46 .64 1.19 .23 .42 .66 1.21 .21 .38 .67 1.22 .2 .36 .71 1.27 c .06 .09 .11 .19 .16 .28 .24 .43 .49 .85 .73 1.27 l .16 .29 .74 1.27 .14 .25 .76 1.3 .12 .2 .78 1.31 .11 .18 c .26 .44 .53 .87 .79 1.3 l .09 .15 .8 1.3 .08 .14 .82 1.3 .06 .1 .82 1.3 v .07 c .28 .43 .55 .86 .83 1.28 v .07 l .84 1.28 .84 1.27 c .28 .42 .57 .83 .85 1.24 l .84 1.2 c 4.45 6.32 8.43 10.89 11.22 12.51 l .29 .17 c 3.11 -.06 6.22 0 9.4 0 h 4.26 a 182.52 182.52 0 0 0 22.66 -1.18 c 14.28 -1.74 25 -10.48 28.05 -14.18 4.16 -5.11 0 -28.17 -5.57 -51.31 -.54 -18.89 15.34 -50.9 15.34 -50.9 z"/><path d="m 239.58 40.56 a 42.75 42.75 0 0 0 -26 -35.94 42.76 42.76 0 0 1 -29.91 79.53 l -12.27 7.34 2.93 1.37 12.26 -7.34 a 42.75 42.75 0 0 0 53 -45 z" opacity=".3"/><path d="m 145 115.62 a 9.99 9.99 0 0 1 2.55 .51 c .82 .27 1.63 .57 2.42 .92 a 23.81 23.81 0 0 1 2.3 1.19 10.89 10.89 0 0 1 2.09 1.55 .48 .48 0 0 1 0 .68 .47 .47 0 0 1 -.5 .12 20.12 20.12 0 0 1 -2.33 -1 l -2.27 -1 -2.27 -1 a 17.65 17.65 0 0 1 -2.25 -1.15 .44 .44 0 0 1 -.14 -.6 .46 .46 0 0 1 .4 -.22 z" opacity=".15"/><path d="m 128.27 148.11 a 7.87 7.87 0 0 1 2 -1.48 8.98 8.98 0 0 1 2.22 -.82 19.95 19.95 0 0 1 4.71 -.69 18.51 18.51 0 0 1 4.91 .65 8.52 8.52 0 0 1 4.38 2.85 2 2 0 0 1 -.34 2.81 c -.02 .02 -.04 .03 -.06 .04 a 2 2 0 0 1 -1 .4 h -.4 a 21.98 21.98 0 0 1 -3.69 .13 c -1.2 -.07 -2.43 -.05 -3.69 -.05 h -3.89 a 15.72 15.72 0 0 1 -2 -.1 9.01 9.01 0 0 1 -2.15 -.49 l -.3 -.12 a 1.91 1.91 0 0 1 -1.07 -2.47 2.15 2.15 0 0 1 .37 -.66 z" opacity=".15"/><path d="m 134 115.5 a 16.62 16.62 0 0 1 -2.36 .92 l -2.36 .79 -2.36 .8 a 23.32 23.32 0 0 1 -2.42 .7 .47 .47 0 0 1 -.57 -.35 v -.01 a .47 .47 0 0 1 .17 -.49 11.75 11.75 0 0 1 2.23 -1.33 c .79 -.35 1.59 -.67 2.41 -.94 a 24.24 24.24 0 0 1 2.5 -.67 9.36 9.36 0 0 1 2.59 -.24 .43 .43 0 0 1 .41 .45 v .01 a .44 .44 0 0 1 -.24 .36 z" opacity=".15"/><path d="m 122.05 106.66 s 4.17 6.12 .39 6.69 c -3.87 -.29 -.39 -6.69 -.39 -6.69 z" opacity=".4"/></g></svg>