<svg viewBox="0 0 300 300" xmlns="http://www.w3.org/2000/svg"><g fill="#fff"><path d="m 99.9 70 l -10.9 -18.7 -12 8.23 -1.57 49.77 a 8.08 8.08 0 0 1 3.42 -.22 8.62 8.62 0 0 1 7 7.59 c .2 2.45 -.69 4.87 -.7 7.33 s 1.37 5.31 3.82 5.49 a 5.79 5.79 0 0 0 3 -.84 28.3 28.3 0 0 0 5.68 -3.84 z" opacity=".3"/><path d="m 126.38 116.41 a 4.92 4.92 0 0 1 3.77 -1.84 1.57 1.57 0 0 1 .88 .21 1.78 1.78 0 0 1 .58 .79 l .24 .52 a 18.08 18.08 0 0 1 .83 2.37 2.81 2.81 0 0 1 -.11 2.41 3.01 3.01 0 0 1 -1.33 .87 c -4.1 1.72 -8.13 -1.17 -4.86 -5.33 z"/><path d="m 138.1 38.72 l -43.36 -.31 a 5.22 5.22 0 0 0 -5.26 5.18 v .01 l -.06 7.7 h 22.93 l .65 -4.3 c .5 -2.86 5.21 -4.71 10.7 -4.12 4.64 .49 8.36 2.55 9.34 4.93 h .1 v .38 a 2.98 2.98 0 0 1 .11 1.15 c 0 .52 .09 1.14 .13 1.81 h 9.77 l .06 -7.2 a 5.23 5.23 0 0 0 -5.11 -5.23 z" opacity=".3"/><path d="m 143.4 51.19 h -10 a 55.15 55.15 0 0 1 .1 7.68 c -3.76 3.86 -14.69 6.19 -22.11 -1.38 l .91 -6.26 -23.3 .07 10.9 18.7 -2.22 54.81 c .65 -.56 1.27 -1.15 1.87 -1.76 1.44 -1.49 3.2 -3.31 5.21 -2.79 1.86 .49 2.6 2.7 2.93 4.59 a 69.2 69.2 0 0 1 -.07 21.74 c -.38 2.71 -.83 5.64 .48 8 2 3.54 6.7 4.18 10.74 4.29 3.42 .08 7.19 0 9.72 -2.34 2.82 -2.54 3.1 -6.94 2.14 -10.61 -.56 -2.12 -1.42 -4.51 -.28 -6.38 1.39 -2.29 4.83 -2.17 7.25 -1 s 4.57 3 7.21 3.46 a 9.06 9.06 0 0 0 7.25 -2.5 l 2.87 -71.43 z" opacity=".4"/><path d="m 133.32 49.4 c -.34 3 -5.13 4.87 -10.73 4.28 s -9.9 -3.49 -9.58 -6.46 a 1.51 1.51 0 0 1 0 -.19 h -.01 l -1.53 10.48 c 7.42 7.57 18.35 5.24 22.11 1.38 a 65.66 65.66 0 0 0 -.26 -9.49 z"/><path d="m 133.22 48.23 v -.38 h -.1 a 1.56 1.56 0 0 0 .1 .38 z"/><path d="m 47.39 267.33 c -20.91 -2.16 -37.2 -10.8 -37 -19.45 a 4.47 4.47 0 0 0 -.09 .54 c -1 9.39 15.52 18.8 36.83 21 s 39.39 -3.61 40.36 -13 v -.55 c -1.49 8.52 -19.19 13.63 -40.1 11.46 z" opacity=".5"/><path d="m 223.32 13.47 a 37.72 37.72 0 1 0 37.36 38.08 v -.01 a 37.71 37.71 0 0 0 -37.35 -38.07 z m -.63 66.66 h -1.44 l -.92 -.08 h -.45 a 28.94 28.94 0 0 1 .55 -57.61 h .44 l .94 -.06 h 1.44 a 28.95 28.95 0 0 1 -.55 57.89 z" opacity=".6"/><path d="m 221.25 80.08 l -.92 -.08 z"/><path d="m 220.86 22.32 l .94 -.06 z"/><path d="m 246.28 51.41 a 29 29 0 0 0 -25.85 -29.06 28.94 28.94 0 0 0 -.55 57.65 29 29 0 0 0 26.4 -28.59 z m -18.56 1.3 a 2.22 2.22 0 0 1 -.68 1.52 l -9.3 9.1 a 3.31 3.31 0 0 1 -2.32 .87 3.43 3.43 0 0 1 -1.87 -.56 2.12 2.12 0 0 1 -.8 -2.89 2.09 2.09 0 0 1 .4 -.51 l 8.63 -8.45 .13 -14.65 a 3 3 0 1 1 6 .06 z"/><path d="m 224.91 34.18 a 3.06 3.06 0 0 0 -3 2.63 l -.13 14.97 -8.63 8.45 a 2.12 2.12 0 0 0 .4 3.4 3.43 3.43 0 0 0 1.87 .56 3.3 3.3 0 0 0 2.32 -.87 l 9.3 -9.1 a 2.21 2.21 0 0 0 .68 -1.52 l .15 -15.83 a 3.06 3.06 0 0 0 -2.96 -2.69 z" opacity=".15"/><path d="m 222.69 80.13 h -1.44 c .48 -.02 .96 -.01 1.44 0 z"/><path d="m 221.8 22.26 h 1.44 a 13.85 13.85 0 0 0 -1.44 0 z"/><path d="m 251.46 51.46 a 29 29 0 0 0 -28.67 -29.22 h -1.44 l -.94 .06 h -.43 a 28.94 28.94 0 0 1 -.55 57.7 h .45 l .92 .08 h 1.44 a 29 29 0 0 0 29.22 -28.62 z" opacity=".15"/><path d="m 88.17 198.41 c 0 1 -.93 2 -2.67 2.89 -5.65 2.95 -19.65 5.23 -36.06 5.53 s -30.44 -1.46 -36.24 -4.2 c -1.77 -.86 -2.76 -1.8 -2.78 -2.8 s -.06 .74 -.05 2.1 c 0 1 0 2.27 .14 3.84 a 16.05 16.05 0 0 0 8.49 30.84 l .69 -.16 c 10 17.91 30.57 16.33 30.57 16.33 a 36.77 36.77 0 0 0 14.57 -3 30.51 30.51 0 0 0 15.6 -14.78 c 9.71 -19.66 7.74 -36.59 7.74 -36.59 z m -82.17 24.29 a 10.29 10.29 0 0 1 5.26 -10.94 76.45 76.45 0 0 0 5.74 19.29 10.29 10.29 0 0 1 -11 -8.35 z m 67.3 15.72 c -7.83 8.58 -20.82 12.78 -35.8 6.29 -7.3 -3.17 -19.93 -16.79 -20.72 -29 27.28 -7.35 28.4 24.81 66.49 -4 -.48 8.03 -3.11 19.15 -10.02 26.71 z"/><path d="m 57.56 191.45 a 18.73 18.73 0 0 0 3.66 2 c 1.86 .74 3.89 1.2 5.42 2.49 a 6.33 6.33 0 0 1 .86 .88 c 10 .81 17 2.46 18 4.5 1.74 -.91 2.69 -1.89 2.67 -2.89 -.06 -3.7 -13.17 -6.54 -30.61 -6.98 z" opacity=".8"/><path d="m 36.37 196.94 c -.63 -.06 -1.25 -.13 -1.87 -.22 a 43.56 43.56 0 0 1 -8.32 -2.46 c -.55 -.2 -1.11 -.42 -1.67 -.64 -8.64 1.57 -14.13 3.81 -14.09 6.21 0 1 1 1.94 2.78 2.8 1.08 -2.44 10.38 -4.63 23.17 -5.69 z" opacity=".8"/><path d="m 55.61 202.1 a 29.92 29.92 0 0 0 -10.35 -4.46 c -2.93 -.55 -5.93 -.44 -8.89 -.7 -12.79 1.06 -22.09 3.25 -23.17 5.69 5.76 2.74 19.83 4.5 36.24 4.2 3.6 -.07 7.08 -.23 10.38 -.48 a 3.29 3.29 0 0 0 -.29 -.67 11.62 11.62 0 0 0 -3.92 -3.58 z" opacity=".15"/><path d="m 67.5 196.8 c 1.83 2.28 1.92 5.63 1.12 8.67 -2.74 .36 -5.69 .65 -8.79 .88 11.75 -.86 21.26 -2.74 25.67 -5 -1 -2.09 -7.99 -3.74 -18 -4.55 z" opacity=".15"/><path d="m 57.56 191.45 a 18.55 18.55 0 0 1 -4.46 -4.38 8.63 8.63 0 0 1 -1.75 -4.07 c -.31 -3.25 2.18 -6 4.65 -8.17 a 85.18 85.18 0 0 1 9.34 -6.88 c 2.93 -1.89 6.15 -3.92 7.26 -7.22 a 8.46 8.46 0 0 0 -2 -8.25 11.27 11.27 0 0 0 -8 -3.3 c -3.14 0 -6.18 1 -9.26 1.54 -4.24 .76 -9.08 .42 -12.14 -2.6 -3.77 -3.71 -3.57 -10.13 -7.2 -14 -2.67 -2.83 -6.88 -3.64 -10.76 -3.43 -5.48 .29 -11.16 2.6 -14 7.26 a 9.01 9.01 0 0 0 -1.42 4.13 c -.2 3.26 1.91 6.22 4.3 8.44 3 2.73 6.49 4.79 9.62 7.33 s 6 5.74 6.86 9.68 a 4.6 4.6 0 0 1 -.38 3.58 5.73 5.73 0 0 1 -2.54 1.73 l -7.87 3.46 a 8.91 8.91 0 0 0 -4 2.74 6.1 6.1 0 0 0 -.46 5.26 c 1.55 4.81 6.44 7.41 11.25 9.31 a 158.25 158.25 0 0 1 24.65 -2.2 c 2.75 -.04 5.6 -.03 8.31 .04 z" opacity=".2"/><path d="m 34.49 196.72 c .62 .09 1.24 .16 1.87 .22 4 -.34 8.34 -.56 12.88 -.64 6.65 -.12 12.88 .07 18.25 .5 a 6.33 6.33 0 0 0 -.86 -.88 c -1.53 -1.29 -3.56 -1.75 -5.42 -2.49 a 18.73 18.73 0 0 1 -3.66 -2 c -2.71 -.07 -5.52 -.08 -8.4 0 a 158.25 158.25 0 0 0 -24.65 2.2 c .56 .22 1.12 .44 1.67 .64 a 43.64 43.64 0 0 0 8.32 2.45 z"/><path d="m 67.5 196.8 c -5.37 -.43 -11.6 -.62 -18.25 -.5 -4.54 .08 -8.88 .3 -12.88 .64 3 .26 6 .15 8.89 .7 a 29.92 29.92 0 0 1 10.35 4.46 11.62 11.62 0 0 1 3.92 3.58 3.29 3.29 0 0 1 .29 .67 c 3.1 -.23 6 -.52 8.79 -.88 .81 -3.04 .72 -6.39 -1.11 -8.67 z" opacity=".4"/><path d="m 75.69 242 a 31.1 31.1 0 0 1 -10.84 7.74 l -.15 .06 c 1.57 1.09 2.43 2.27 2.31 3.43 a 2.51 2.51 0 0 1 -.74 1.45 c -.74 2.48 -8.53 3.71 -17.85 2.75 s -16.7 -3.77 -16.91 -6.36 a 2.53 2.53 0 0 1 -.43 -1.57 2.42 2.42 0 0 1 .47 -1.15 30.25 30.25 0 0 1 -10.91 -10.35 c -6 2.19 -9.79 5.43 -10.19 9.36 -.92 8.81 15.62 17.76 36.94 20 s 39.34 -3.14 40.25 -12 c .5 -4.78 -4.16 -9.61 -11.95 -13.36 z" opacity=".9"/><path d="m 32.99 249.11 c -.49 -.24 -1 -.49 -1.46 -.76 a 2.42 2.42 0 0 0 -.47 1.15 2.53 2.53 0 0 0 .43 1.57 1.05 1.05 0 0 1 0 -.25 c .06 -.66 .61 -1.23 1.5 -1.71 z" opacity=".3"/><path d="m 64.69 249.8 q -1.28 .54 -2.49 1 c 2.68 1.14 4.26 2.44 4.13 3.67 a .84 .84 0 0 1 -.07 .25 2.51 2.51 0 0 0 .74 -1.45 c .13 -1.2 -.73 -2.38 -2.31 -3.47 z" opacity=".3"/><path d="m 62.21 250.76 a 36.47 36.47 0 0 1 -11.93 2 36.81 36.81 0 0 1 -17.28 -3.65 c -.91 .48 -1.46 1 -1.52 1.71 -.28 2.65 7.3 5.61 16.93 6.61 s 17.65 -.35 17.92 -3 c .14 -1.23 -1.44 -2.53 -4.12 -3.67 z" opacity=".8"/><path d="m 83.22 211.76 c -38.09 28.8 -39.21 -3.36 -66.49 4 .79 12.17 13.42 25.79 20.72 29 15 6.49 28 2.29 35.8 -6.29 6.91 -7.61 9.54 -18.73 9.97 -26.71 z" fill-rule="evenodd" opacity=".8"/><path d="m 216.44 213.76 c -31.79 0 -57.56 -11.89 -57.56 -26.57 0 -4.86 2.84 -9.41 7.78 -13.33 -7.71 5.14 -12.29 11.56 -12.29 18.53 0 16.86 26.78 30.53 59.81 30.53 s 59.82 -13.67 59.82 -30.53 a 15.57 15.57 0 0 0 -.26 -2.75 c -2.68 13.53 -27.3 24.12 -57.3 24.12 z" opacity=".3"/><path d="m 133.32 49.38 c -.32 3 -5.12 4.89 -10.74 4.3 s -9.9 -3.49 -9.58 -6.46 5.12 -4.91 10.73 -4.31 9.91 3.49 9.59 6.47 z" opacity=".6"/><path d="m 205.12 281.37 c -51 -1 -92.14 -18.6 -93.3 -39.56 0 .43 -.07 .87 -.08 1.32 -.46 22.87 41.26 42.32 93.26 43.36 s 94.47 -16.7 94.93 -39.62 v -1.32 c -2.01 20.9 -43.85 36.84 -94.81 35.82 z" opacity=".3"/><path d="m 218.69 255.52 c -31.78 0 -57.55 -11.89 -57.55 -26.57 0 -3.72 1.67 -7.26 4.66 -10.47 a 2.61 2.61 0 0 0 -.11 -.47 c -5.74 4.68 -9.07 10.21 -9.07 16.14 0 16.86 26.78 30.53 59.82 30.53 s 59.81 -13.67 59.81 -30.53 a 15.76 15.76 0 0 0 -.25 -2.75 c -2.68 13.53 -27.31 24.12 -57.31 24.12 z" opacity=".3"/><path d="m 284.71 212 c -2.68 13.52 -27.31 24.12 -57.3 24.12 -29.12 0 -53.18 -10 -57 -22.94 a 48.95 48.95 0 0 1 -4.46 -2.75 16.18 16.18 0 0 0 -.61 4.32 c 0 16.86 26.78 30.53 59.82 30.53 s 59.84 -13.66 59.84 -30.52 a 15.69 15.69 0 0 0 -.29 -2.76 z" opacity=".3"/><path d="m 273.92 193.91 c -1.3 13.52 -19.83 24.73 -44.61 28 1.2 3.85 1.32 8.91 1.3 14.16 30.3 -.77 54.36 -12.35 54.36 -26.53 .03 -5.83 -4.11 -11.24 -11.05 -15.63 z" opacity=".6"/><path d="m 228.72 245.23 a 20.8 20.8 0 0 0 1.28 9.77 c 25.15 -2.3 44.39 -12.17 46.15 -24.26 -10 8.26 -27.38 13.89 -47.43 14.49 z" opacity=".6"/><path d="m 192.44 183 c -.25 2.79 8.06 2.42 11.07 3.6 s 5.88 2.88 9.09 3.31 c 7.08 1 13.37 -4.42 18 -9.9 a 3 3 0 0 0 .95 -2 2.87 2.87 0 0 0 -1.43 -1.91 c -8.4 -6.08 -20.58 -9.79 -29.6 -4.68 -4.3 2.44 -11.41 1.67 -8 11.62" opacity=".9"/><path d="m 231.51 178 a 2.99 2.99 0 0 1 -.95 2 c -4.59 5.48 -10.88 10.86 -18 9.9 -3.21 -.43 -6.08 -2.13 -9.09 -3.31 -2.79 -1.09 -10.15 -.86 -11 -3.05 a 17.47 17.47 0 0 0 .79 2.85 c 1.1 .58 6.7 -.11 9.55 1.43 s 5.5 3.56 8.63 4.37 c 6.92 1.8 13.81 -2.78 19 -7.67 a 3.04 3.04 0 0 0 1.19 -1.92 c .1 -.82 .49 -4.09 -.12 -4.6 z" opacity=".3"/><path d="m 231.6 183.08 a 3.91 3.91 0 0 1 -1.09 1.44 c -5.21 4.89 -12.1 9.47 -19 7.67 -3.13 -.81 -5.78 -2.84 -8.63 -4.37 s -8.45 -.85 -9.55 -1.43 a 17.37 17.37 0 0 1 -.79 -2.85 1.12 1.12 0 0 1 -.09 -.55 c -3.37 -10 3.74 -9.18 8 -11.62 a 17.65 17.65 0 0 1 3.06 -1.34 c -14.41 1.1 -29.47 6 -33.61 4.07 a 18.53 18.53 0 0 1 -2.09 -1.14 c -5.67 4.12 -9 9 -9 14.23 0 14.68 25.77 26.57 57.56 26.57 a 120.7 120.7 0 0 0 16.7 -1.14 c -1.67 -8.44 .28 -21.1 -1.47 -29.54 z"/><path d="m 216.44 160.62 c -20.45 0 -38.39 4.93 -48.6 12.34 a 18.7 18.7 0 0 0 2.09 1.14 c 4.14 1.9 19.2 -3 33.61 -4.07 8.57 -2.91 19.06 .6 26.54 6 a 2.87 2.87 0 0 1 1.43 1.91 c .61 .55 .22 3.82 .19 4.64 a 1.83 1.83 0 0 1 -.1 .48 c 1.75 8.44 -.2 21.1 1.54 29.54 23.64 -3.3 40.86 -13.44 40.86 -25.43 0 -14.65 -25.77 -26.55 -57.56 -26.55 z" opacity=".6"/><path d="m 283.43 221.65 a 25.99 25.99 0 0 1 -7.32 9.1 c -.05 .31 -.11 .61 -.18 .91 a 1.53 1.53 0 0 1 .07 -.26 15.76 15.76 0 0 1 .25 2.75 c 0 16.86 -26.78 30.53 -59.81 30.53 a 109.53 109.53 0 0 1 -25.47 -2.9 c -24 -2.19 -41.82 -8.39 -43 -15.48 a 8.28 8.28 0 0 1 -1.77 -5.05 c .09 -4.29 4.15 -8.18 11 -11.31 1.18 -4.33 4.14 -8.38 8.5 -11.93 a 1.97 1.97 0 0 0 .11 .46 15.43 15.43 0 0 1 .15 -8.03 38.62 38.62 0 0 1 -4 -3.17 c -29.59 6 -49.87 18.48 -50.16 33.3 -.43 21.5 41.36 39.77 93.33 40.8 s 94.45 -15.55 94.88 -37.06 c .14 -8.31 -6.01 -16.13 -16.58 -22.66 z" opacity=".8"/><path d="m 156.92 237.17 c -5.64 2.34 -8.94 5.18 -9 8.29 -.14 7.44 18.16 14 43.08 16.32 -18.63 -4.47 -32 -13.7 -34.08 -24.61 z" opacity=".5"/><path d="m 230.61 236.09 c 0 -5.25 -.1 -10.31 -1.3 -14.16 a 7.98 7.98 0 0 0 1.09 -.15 114.46 114.46 0 0 1 -16.22 1.14 c -17.29 0 -32.85 -3.75 -43.77 -9.73 3.83 12.95 27.89 22.94 57 22.94 a 120.67 120.67 0 0 0 16.7 -1.13 120.54 120.54 0 0 1 -13.5 1.09 z"/><path d="m 230 255 a 20.82 20.82 0 0 1 -1.24 -9.78 h .05 c -1.19 0 -2.4 .06 -3.61 .06 -30.57 0 -55.77 -11.71 -59.36 -26.82 -3 3.22 -4.66 6.76 -4.66 10.48 0 14.68 25.77 26.57 57.55 26.57 a 120.71 120.71 0 0 0 15.39 -1 c -1.39 .22 -2.77 .37 -4.12 .49 z"/><path d="m 92 128.65 a 5.79 5.79 0 0 1 -3 .84 c -2.45 -.18 -3.84 -3 -3.82 -5.49 s .9 -4.88 .7 -7.33 a 8.62 8.62 0 0 0 -7 -7.59 8.08 8.08 0 0 0 -3.42 .22 l -2.55 83.28 c 9.25 1.24 15.25 3.34 15.29 5.83 s 1.4 12 -4 27.54 l 9.08 7.64 4.4 -108.78 a 28.37 28.37 0 0 1 -5.68 3.84 z" opacity=".6"/><path d="m 149.26 210.41 l 2.87 -70.88 a 9.06 9.06 0 0 1 -7.25 2.5 c -2.64 -.42 -4.79 -2.31 -7.21 -3.46 s -5.86 -1.28 -7.25 1 c -1.14 1.87 -.28 4.26 .28 6.38 1 3.67 .68 8.07 -2.14 10.61 -2.53 2.29 -6.3 2.42 -9.72 2.34 -4 -.11 -8.78 -.75 -10.74 -4.29 -1.31 -2.39 -.86 -5.32 -.48 -8 a 69.2 69.2 0 0 0 .07 -21.74 c -.33 -1.89 -1.07 -4.1 -2.93 -4.59 -2 -.52 -3.77 1.3 -5.21 2.79 -.6 .61 -1.22 1.2 -1.87 1.76 l -4.4 108.78 21.34 -2.16 c 5.31 -8.69 17.76 -16.05 34.64 -21.04 z"/></g></svg>