<svg viewBox="0 0 300 300" xmlns="http://www.w3.org/2000/svg"><g fill="#fff"><path d="m 127.9 172 c -.16 -.48 -.3 -.95 -.42 -1.43 .12 .49 .26 .96 .42 1.43 z"/><path d="m 128.46 173.62 c -.17 -.45 -.34 -.91 -.49 -1.37 .15 .46 .32 .92 .49 1.37 z"/><path d="m 127.1 168.94 c .1 .48 .21 1 .33 1.46 -.12 -.49 -.23 -.98 -.33 -1.46 z"/><path d="m 128.59 173.94 c .17 .43 .35 .87 .54 1.3 -.19 -.43 -.37 -.87 -.54 -1.3 z"/><path d="m 126.84 167.32 c .06 .49 .14 1 .24 1.49 -.08 -.5 -.18 -1 -.24 -1.49 z"/><path d="m 126.69 165.74 a 12.51 12.51 0 0 0 .14 1.49 c -.06 -.5 -.11 -1 -.14 -1.49 z"/><path d="m 130.78 178.48 q -.33 -.57 -.63 -1.14 .3 .57 .63 1.14 z"/><path d="m 129.9 176.86 c -.2 -.41 -.4 -.81 -.59 -1.22 .19 .41 .39 .81 .59 1.22 z"/><path d="m 136.66 186.42 l -.67 -.75 z"/><path d="m 134 183.29 l -.66 -.88 z"/><path d="m 135.28 184.86 l -.66 -.8 z"/><path d="m 132.83 181.69 c -.23 -.31 -.44 -.63 -.66 -.95 .22 .32 .43 .64 .66 .95 z"/><path d="m 131.75 180.09 l -.64 -1 z"/><path d="m 121.4 151 q -2 -1.92 -4 -3.82 c -43.87 .56 -75.62 7.86 -78.08 19.39 .39 3.36 5.42 6.92 14 10.4 15.58 -6.8 41.08 -10.91 71.39 -11.27 .06 -.93 .15 -1.84 .28 -2.69 a 23.34 23.34 0 0 0 .33 -3.76 12.88 12.88 0 0 0 -3.92 -8.25 z" opacity=".3"/><path d="m 141.11 185 a 6.84 6.84 0 0 1 -1.24 -1.73 c -9.61 -10.73 -12.43 -23 -5.67 -29.33 8 -7.42 26 -3.82 40.26 8 8.5 7.07 14.84 14.82 18.34 21.84 .9 .14 1.81 .27 2.69 .42 a 46.53 46.53 0 0 0 -4.62 -8.93 c -.37 -.57 -.76 -1.14 -1.16 -1.7 a 1.46 1.46 0 0 0 -.14 -.2 c -.37 -.53 -.77 -1.06 -1.17 -1.59 0 -.07 -.11 -.14 -.16 -.22 -.45 -.58 -.91 -1.16 -1.39 -1.75 a 79.26 79.26 0 0 0 -11.07 -11 c -8.38 -6.86 -18.24 -10.75 -27 -11.32 0 0 -9.7 -1 -13.21 -3.9 -56.36 -46.99 -102.37 -89.83 -104.79 -92.08 -3.64 -3.35 -9.4 -3.7 -12.69 -.78 a 6.38 6.38 0 0 0 -2.16 5.33 8.35 8.35 0 0 0 3.24 5.76 c 2.95 2.24 56 42 104.07 88 a 12.92 12.92 0 0 1 3.94 8.26 23.47 23.47 0 0 1 -.34 3.76 c -1.16 7.93 2.87 17.71 11.06 25.91 1.87 .2 4 .35 6 .46 z"/><path d="m 174.46 162 c -14.28 -11.85 -32.3 -15.45 -40.26 -8 -6.76 6.29 -3.95 18.62 5.68 29.36 -2.87 -5.92 16.83 -3.46 28.15 -2.5 8.57 .72 16.85 1.75 24.77 3 -3.5 -7.05 -9.8 -14.8 -18.34 -21.86 z" opacity=".32"/><path d="m 129 186.26 c 2 .43 5.18 1 8.47 1.41 h .45 c -8.19 -8.2 -12.22 -18 -11.06 -25.91 a 23.47 23.47 0 0 0 .34 -3.76 12.92 12.92 0 0 0 -3.94 -8.26 c -48.11 -46 -101.12 -85.72 -104.07 -88 a 8.35 8.35 0 0 1 -3.24 -5.76 6.35 6.35 0 0 1 2.05 -5.15 7.18 7.18 0 0 0 -1.74 1.17 6.32 6.32 0 0 0 -2.16 5.32 8.28 8.28 0 0 0 3.24 5.76 c 2.95 2.25 56 42 104.06 88 a 12.88 12.88 0 0 1 3.94 8.25 23.28 23.28 0 0 1 -.34 3.67 38.32 38.32 0 0 0 4 23.26 z" opacity=".25"/><path d="m 137.46 187.25 l .44 .46 h -.45 c -3.29 -.37 -6.45 -1 -8.47 -1.41 a 38 38 0 0 1 -4.26 -20.54 c -30.31 .37 -55.8 4.47 -71.38 11.27 l .35 .15 c 18.53 7.4 53.24 14.46 94.23 18.65 l 3.08 .31 q 4.84 .47 9.8 .89 c 33.08 2.8 63.3 3.14 85.74 1.45 q 6.93 -.52 12.82 -1.3 h .19 l 2.77 -.39 h .07 c .86 -.12 1.69 -.26 2.5 -.4 h .29 l 2.31 -.42 .41 -.08 c .75 -.15 1.49 -.3 2.2 -.46 -16.54 -10.82 -46.81 -20.29 -83.26 -25.48 a 52.23 52.23 0 0 1 8.66 14.42 c -8.72 -1.46 -17.92 -2.62 -27.46 -3.43 -12.29 -1 -34.47 -3.86 -26.92 4.2 l 2.81 3.15 -6 -.46" opacity=".55"/><path d="m 174.62 149.92 a 29.79 29.79 0 0 1 4.46 -3.95 c 10.69 -7.58 27.93 -2.39 40.12 -7.94 a 64.1 64.1 0 0 0 28.05 -25.4 c 2.1 -3.43 3.12 -7.9 1.27 -11.46 -1.47 -2.82 -4.4 -4.53 -7.27 -5.89 -3.71 -1.75 -7.61 -3.21 -11 -5.58 s -6.19 -5.88 -6.56 -10 c -.41 -4.56 2.27 -8.84 5.41 -12.18 4.83 -5.15 11.63 -9.14 18.87 -8.9 s 14.2 -2.94 20 -7.49 a 26.89 26.89 0 0 0 9.83 -14.38 c 2.08 -8.39 -1.14 -17.53 -7 -23.85 s -14.15 -10 -22.6 -11.86 c -6.8 -1.46 -14.13 -1.72 -20.48 1.12 a 31.42 31.42 0 0 0 -8.45 5.84 c -9.83 9.12 -15 25.07 -25.65 32.78 -11 8 -31.75 2.75 -44.36 2 -14.06 -.87 -29.94 1.11 -38.84 12 -8.45 10.39 -7 27.38 3 36.23 4.89 4.31 11.22 6.66 16.41 10.62 a 32.87 32.87 0 0 1 12.17 30.93 43.12 43.12 0 0 1 -4.31 12.37 c 4.27 1.94 11.07 2.62 11.07 2.62 a 37.52 37.52 0 0 1 4.59 .61 q 5.73 .36 11.59 .85 4.92 .42 9.68 .91 z" opacity=".2"/><path d="m 174.62 149.92 q -4.77 -.49 -9.64 -.91 -5.86 -.49 -11.59 -.85 a 49.09 49.09 0 0 1 17.12 6.92 43.71 43.71 0 0 1 4.11 -5.16 z" opacity=".3"/><path d="m 174.62 149.92 q -4.77 -.49 -9.64 -.91 -5.86 -.49 -11.59 -.85 a 49.09 49.09 0 0 1 17.12 6.92 43.71 43.71 0 0 1 4.11 -5.16 z" opacity=".2"/><path d="m 174.62 149.92 a 43.71 43.71 0 0 0 -4.11 5.16 55.56 55.56 0 0 1 5.26 3.8 79.26 79.26 0 0 1 11.07 11 c 36.45 5.19 66.72 14.66 83.26 25.47 9.75 -2.13 15.43 -5 15.74 -8.61 -.1 1.18 -.23 2.37 -.36 3.54 a 7.61 7.61 0 0 0 .43 -1.86 c 1.28 -15.24 -47.76 -31.95 -111.29 -38.5 z" opacity=".3"/><path d="m 53.69 177.14 c -9.47 -3.78 -14.71 -7.65 -14.41 -11.27 a 123.71 123.71 0 0 0 211.38 97.25 c -101.6 41.24 -190.25 3.53 -196.97 -85.98 z" opacity=".79"/><path d="m 250.66 263.12 a 123.23 123.23 0 0 0 35.17 -76.42 c -1 11.43 -56.94 16 -125 10.29 -46.53 -3.93 -86.67 -11.68 -107.11 -19.85 6.69 89.51 95.34 127.22 196.94 85.98 z"/></g></svg>