<svg viewBox="0 0 300 300" xmlns="http://www.w3.org/2000/svg"><g fill="#fff"><path d="m 153.74 164.77 c 35.49 -18.59 66.75 -37.79 89.57 -54.39 -1.05 -.32 -2.11 -.6 -3.2 -.82 a 33.23 33.23 0 0 0 -29.54 8.33 c -.19 .18 -16.26 .36 -23.71 6.61 s -5.86 14.83 -8.25 15 -4.82 .37 -6.93 .66 c -1.32 5 -19.76 8.72 -19.5 25.48 z" opacity=".6"/><path d="m 251.17 67.46 a 16.39 16.39 0 1 1 6.91 -22.13 v .01 a 16.41 16.41 0 0 1 -6.91 22.12 z m -12.43 -23.71 a 10.38 10.38 0 1 0 14.01 4.39 l -.01 -.02 a 10.39 10.39 0 0 0 -14 -4.37 z"/><path d="m 173.99 101.8 a 19.8 19.8 0 1 1 8.35 -26.73 v .01 a 19.83 19.83 0 0 1 -8.35 26.72 z m -15.01 -28.65 a 12.54 12.54 0 1 0 16.93 5.3 l -.01 -.02 a 12.55 12.55 0 0 0 -16.92 -5.28 z"/><path d="m 29.1 80.63 a 34.83 34.83 0 1 0 49.61 48.35 c -24.94 18.74 -12.22 -72.86 -49.61 -48.35 z"/><path d="m 176.88 31.98 a 13.78 13.78 0 1 0 19.6 19.16 c -9.84 7.34 -4.83 -28.82 -19.6 -19.16 z"/><path d="m 272.78 119.64 c -.71 -2.42 -4.79 -13.8 -8.93 -25.49 -3.12 2.74 -6.6 5.6 -10.4 8.59 a 14.12 14.12 0 0 1 -5 -4.34 33.72 33.72 0 0 0 -37.33 -12.71 33.24 33.24 0 0 0 -22.06 21.35 c -.2 .59 -25.87 12.46 -17.5 31.55 a 2.21 2.21 0 0 1 .12 1.55 c 2.11 -.29 4.4 -.52 6.93 -.66 s .85 -8.73 8.25 -15 23.52 -6.43 23.71 -6.61 a 33.23 33.23 0 0 1 29.54 -8.33 c 1.09 .22 2.15 .5 3.2 .82 -22.3 16.22 -52.67 34.93 -87.17 53.13 l -8.94 4.65 c -12.3 6.33 -24.33 12.17 -35.87 17.47 a 44.95 44.95 0 1 0 -83.7 30.72 c -14.75 3.2 -24.37 2.91 -26.71 -1.57 a 158.41 158.41 0 0 0 123.69 84.1 c -.48 -.48 -1 -1 -1.42 -1.47 -4.86 -5.43 -7.83 -13 -6.36 -20.1 2.41 -11.77 15.49 -18.27 27.45 -19.43 s 24.18 1.22 36 -1 c 12.65 -2.39 23.71 -9.84 34 -17.56 8.66 -6.48 17.15 -13.33 24.14 -21.59 10.39 -12.26 17.09 -27.13 23.66 -41.79 8 -17.82 16.15 -37.53 10.7 -56.28 z m -233.8 93.87 c -.46 -.73 -.89 -1.47 -1.3 -2.24 a 33.71 33.71 0 1 1 63.15 -20.9 l -4.38 1.92 a 30.67 30.67 0 1 0 -57.26 21.16 m 10.38 -4.35 a 19.43 19.43 0 1 1 36.36 -12.35 c -13 5.38 -25.07 9.88 -35.77 13.36 -.18 -.34 -.44 -.66 -.62 -1.01 z"/><path d="m 129.69 299.32 c -1.7 -.13 -3.39 -.28 -5.08 -.46 1.69 .18 3.37 .33 5.08 .46 z"/><path d="m 111.81 145.3 a 12.36 12.36 0 0 1 -.56 1.43 c -.4 -27.5 9.72 -92.69 13.65 -116.9 a 7.26 7.26 0 0 1 .77 .26 c -5.55 -2.31 -12.39 2.08 -14.72 7.81 a 18 18 0 0 0 -1 9.88 c .73 4.1 2.84 8.44 1 12.18 -1.58 3.27 -5.57 4.63 -7.74 7.55 -2.85 3.84 -1.85 9.27 -.17 13.76 s 4 9.09 3.23 13.83 c -.87 5.68 -5.91 10.17 -6.28 15.9 -.48 7.42 6.25 13.49 8.69 20.08 1.45 3.93 3.08 16 .38 19.17 a 15.31 15.31 0 0 0 2.75 -4.95 z"/><path d="m 131.7 50.84 c 1.26 -1.82 1.17 -4.21 1 -6.41 -.42 -5.28 -1.55 -11.34 -6.17 -13.93 a 7.35 7.35 0 0 0 -1.63 -.67 c -3.93 24.21 -14 89.4 -13.65 116.9 a 15.62 15.62 0 0 0 1.41 -6.45 12.98 12.98 0 0 1 .22 -4 c .63 -2 2.47 -3.26 4.23 -4.35 4.81 -3 10.66 -7.14 9.56 -12.7 -.67 -3.4 -4 -6.58 -2.6 -9.75 .57 -1.32 1.83 -2.18 2.88 -3.16 a 13.4 13.4 0 0 0 2.4 -16 c -1.66 -2.88 -4.52 -5.55 -4.06 -8.83 .62 -4.38 6.79 -6.37 7.24 -10.76 .56 -5.53 -8.38 -9.58 -6.16 -14.67 1.01 -2.29 3.9 -3.15 5.33 -5.22 z" opacity=".8"/><path d="m 61.84 23.77 c -17.58 5.21 -42.86 12.3 -44.3 6.67 v .23 c 1.01 9.87 12.12 9.38 11.44 12.31 -2.4 9.7 11.65 10.2 11.82 10.41 a 14.05 14.05 0 0 0 24.52 -4.88 5.84 5.84 0 0 1 3.56 -3.86 16.84 16.84 0 0 0 9.93 -10.12 c -2.16 -5.05 -6.92 -11.7 -16.97 -10.76 z"/><path d="m 61.84 23.77 c 10 -.94 14.82 5.72 17 10.77 a 16.79 16.79 0 0 0 -10.23 -21.43 q -.57 -.2 -1.15 -.36 a 5.84 5.84 0 0 1 -3.89 -3.53 14.06 14.06 0 0 0 -24.85 -2.7 c -.06 .09 -6.54 1.77 -8.93 5 s -.89 6.58 -1.84 6.87 c -11.66 3.59 -10.2 8.9 -10.48 11.22 -.86 7.11 25.99 -.37 44.37 -5.84 z" opacity=".8"/><path d="m 29.07 80.64 c 5 -5.7 17.34 -10 29.67 -7.3 13.24 2.92 26.45 13.79 27.49 34.15 .33 6.48 1.21 14.29 -6.58 20.76 -26.21 21.73 -12.67 -72.48 -50.58 -47.61 z" opacity=".8"/><path d="m 153.54 90.04 a 12.55 12.55 0 1 0 22.24 -11.65 13.06 13.06 0 0 0 -.86 -1.39 q -11.07 4.22 -22.63 9.31 a 12.37 12.37 0 0 0 1.25 3.73 z" opacity=".3"/><path d="m 248.38 62.14 a 10.31 10.31 0 0 0 3.89 -3.56 131.45 131.45 0 0 0 -16.29 1.4 10.38 10.38 0 0 0 12.4 2.16 z" opacity=".3"/><path d="m 176.86 31.98 c 2 -2.26 6.86 -4 11.73 -2.89 5.26 1.16 10.47 5.46 10.88 13.51 .13 2.57 .48 5.66 -2.6 8.22 -10.37 8.62 -5.02 -28.67 -20.01 -18.84 z" opacity=".8"/><path d="m 85.9 196.75 a 19.43 19.43 0 1 0 -36.36 12.35 c .18 .35 .39 .67 .59 1 10.7 -3.47 22.76 -7.97 35.77 -13.35 z" opacity=".3"/><path d="m 100.8 190.37 a 33.71 33.71 0 1 0 -63.15 20.9 c .4 .77 .84 1.51 1.3 2.24 l .21 -.06 a 30.67 30.67 0 1 1 57.26 -21.16 z" opacity=".3"/><path d="m 282.42 69.64 v -.21 a 5.18 5.18 0 0 0 -.1 -.7 .49 .49 0 0 0 -.09 -.34 .47 .47 0 0 0 0 -.13 c -3.76 -5.83 -11.88 -9 -23.24 -9.62 a 16.34 16.34 0 0 1 -29.51 2.42 304.94 304.94 0 0 0 -47.52 13.33 c .12 .2 .25 .38 .35 .59 a 19.81 19.81 0 1 1 -36.66 14.34 q -7.23 3.32 -14.56 7 a 13.28 13.28 0 0 1 -4 10 c -1 1 -2.31 1.84 -2.88 3.16 -1.37 3.17 1.93 6.35 2.6 9.75 1.1 5.56 -4.75 9.71 -9.56 12.7 -1.76 1.09 -3.6 2.38 -4.23 4.35 a 12.98 12.98 0 0 0 -.22 4 15.36 15.36 0 0 1 -.87 5.07 c -.15 .44 -.32 .87 -.5 1.29 a .34 .34 0 0 0 0 .09 15.08 15.08 0 0 1 -2.21 3.54 c 2.7 -3.21 1.07 -15.24 -.38 -19.17 -2.22 -6 -8 -11.57 -8.63 -18.1 q -8.05 4.68 -15.63 9.46 a 18.46 18.46 0 0 1 -4.75 5.81 c -.33 .28 -.66 .52 -1 .77 a 34.72 34.72 0 0 1 -22.81 12.83 c -40 29.95 -62.55 59.17 -54.31 74.88 a 14.3 14.3 0 0 0 1.76 2.58 q -1.29 -2.28 -2.51 -4.61 a 4.67 4.67 0 0 0 .47 .71 l .15 .18 a 4.53 4.53 0 0 0 .49 .49 l .16 .15 a 6.22 6.22 0 0 0 .77 .53 l .13 .07 c .25 .14 .52 .27 .8 .4 l .25 .1 a 8.36 8.36 0 0 0 1 .33 h .12 c .39 .11 .8 .21 1.24 .29 h .2 c .39 .07 .78 .13 1.2 .18 h .25 a 29.12 29.12 0 0 0 3.22 .17 h .19 c .57 0 1.15 0 1.75 -.05 h .08 c 1.3 -.06 2.7 -.17 4.18 -.35 h .09 c 3 -.35 6.35 -.92 10 -1.71 a 44.94 44.94 0 1 1 83.7 -30.72 c 11.54 -5.3 23.57 -11.14 35.87 -17.47 l 5 -2.58 c -.25 -16.72 18.1 -20.44 19.49 -25.44 a 2.21 2.21 0 0 0 -.12 -1.55 c -8.37 -19.09 17.3 -31 17.5 -31.55 a 33.24 33.24 0 0 1 22.06 -21.35 33.72 33.72 0 0 1 37.33 12.71 14 14 0 0 0 5 4.33 l .31 -.24 2.35 -1.87 .16 -.12 2.43 -2 .5 -.42 2 -1.67 .34 -.29 c .77 -.65 1.51 -1.3 2.24 -1.93 l .07 -.06 c .84 -.74 1.65 -1.46 2.44 -2.18 l .09 -.08 q 2.67 -2.43 4.92 -4.71 c .48 -.47 .93 -.94 1.37 -1.4 l .26 -.28 c 1.16 -1.22 2.21 -2.4 3.17 -3.54 a 3.99 3.99 0 0 0 .26 -.32 c .45 -.54 .88 -1.07 1.29 -1.6 v -.06 l .1 -.14 c .39 -.5 .74 -1 1.08 -1.47 l .11 -.16 c .34 -.51 .67 -1 1 -1.49 .06 -.12 .13 -.23 .19 -.34 .23 -.38 .43 -.74 .62 -1.1 l .18 -.34 c .2 -.41 .38 -.81 .55 -1.2 l .15 -.4 c .12 -.32 .23 -.63 .32 -.94 a .25 .25 0 0 1 .05 -.18 .75 .75 0 0 0 0 -.15 8.72 8.72 0 0 0 .2 -1 1 1 0 0 1 .05 -.38 6.8 6.8 0 0 0 0 -.88 z" opacity=".3"/><path d="m 214.98 281.63 a 158.56 158.56 0 0 0 66.88 -214 c 2.62 5 -4.21 14.48 -18 26.56 4.14 11.69 8.22 23.07 8.93 25.49 5.45 18.75 -2.7 38.46 -10.68 56.28 -6.57 14.66 -13.27 29.53 -23.66 41.79 -7 8.26 -15.48 15.11 -24.14 21.59 -10.32 7.72 -21.38 15.17 -34 17.56 -11.81 2.22 -24 -.16 -36 1 s -25 7.66 -27.45 19.43 c -1.47 7.14 1.5 14.67 6.36 20.1 .45 .51 .94 1 1.43 1.47 a 157.75 157.75 0 0 0 90.33 -17.27 z" opacity=".8"/></g></svg>