<svg enable-background="new 0 0 100 100" viewBox="0 0 100 100" xmlns="http://www.w3.org/2000/svg"><path d="m 94.91 49.07 c .33 .29 .67 .45 1.64 .6 -.3 -.2 -.88 -.68 -1.01 -1.12 .34 .26 .8 .4 1.45 .6 -.57 -.6 -.91 -.71 -1.19 -.97 -.1 -.09 -.28 -.3 -.37 -.4 -.17 -.18 -.54 -.52 -.68 -.72 -.14 -.21 -.14 -.21 -.45 -.9 .69 .59 .54 .32 1.56 1.27 -.37 -1.07 -1.04 -1.72 -1.72 -2.31 -.67 -.6 -.82 -1.42 -.82 -1.42 s -.3 -3.21 -.97 -4.25 -1.94 -2.75 -5.59 -3.8 c -.28 -.08 -1.05 -.26 -2.01 -.45 -1.72 -.33 -3.14 -.87 -5.74 -2.01 -1.73 -.76 -4 -.8 -5.22 -1.27 -.56 -.21 -1.64 -.97 -1.64 -.97 l -.9 -.52 -.67 -.25 -.82 -.2 s -1.49 -.9 -1.79 -.9 -1.94 -.6 -2.16 -.67 c -.22 -.08 -1.19 -.52 -1.64 -.82 s -2.23 -.9 -2.23 -.9 -1.57 -.6 -1.87 -.6 -1.94 -.52 -2.38 -.6 c -.45 -.07 -1.79 -.52 -1.79 -.52 l -1.77 -.52 -1.56 -.22 s -1.45 0 -1.9 -.15 c -.35 -.13 -1.47 -.52 -1.99 -.52 s -1.59 .23 -1.88 0 c -.3 -.22 -2.09 -.52 -2.31 -.52 s -1.42 0 -1.71 0 c -.3 0 -1.12 -.07 -1.42 0 -.3 .08 -2.13 0 -2.13 0 s -.88 -.16 -1.4 .03 c -.52 .18 -2.43 .64 -2.66 .64 s -.67 .22 -1.04 .37 -1.79 .52 -1.79 .52 l -1.64 .75 s -1.23 .37 -1.6 .44 -1.22 .86 -1.37 1.09 c -.15 .22 -.33 .45 -.78 .6 s -.93 .54 -.93 .54 -.16 .47 -.68 .47 -.67 .07 -.9 .15 c -.22 .08 -.37 .3 -.82 .37 s -.89 .6 -.89 .6 -.44 .66 -.44 .88 -.67 .36 -.67 .36 l -.49 .36 s -.29 .48 -.41 .63 c -.13 .16 -.39 .57 -.6 .6 -.22 .03 -.54 -.39 -.75 -.45 -.16 -.05 -.5 0 -.67 0 s -.51 .04 -.67 0 c -.25 -.07 -.59 -.58 -.81 -.45 -.11 .06 .02 .34 -.08 .41 -.59 .41 -.66 -.54 -.94 -.35 -.2 .14 -.09 .77 -.33 .83 -.27 .07 -.43 -.84 -.7 -.84 -.27 .01 -.36 .57 -.44 .83 -.21 .58 -.11 1.16 -.42 1.35 -.14 .09 -.32 .11 -.43 .23 -.16 .16 -.24 .43 -.39 .6 -.56 .61 -.35 .3 -.47 .44 -.16 .2 -.59 -.48 -.83 -.39 -.47 .18 -.7 .23 -.84 .43 -.29 .41 -.64 -.02 -.54 .11 .06 .09 -.32 .16 -.4 .23 -.17 .17 -.43 .07 -.67 .08 -.67 .04 -.29 .68 -.42 .91 -.34 .6 -.9 .09 -1.01 .42 -.17 .51 -.23 .62 -.26 .82 -.1 .68 -.75 .54 -.88 .73 -.09 .13 .2 .61 .14 .76 -.2 .49 -.18 .9 0 1.12 .12 .14 .5 .29 .6 .45 .09 .14 -.03 .48 -.11 .63 -.35 .62 -.09 .78 -.13 1.04 -.04 .25 -.42 .49 -.52 .72 -.08 .19 .01 .62 0 .82 -.03 .6 -.61 .86 -.58 1.19 .08 .74 .1 .75 0 .97 -.08 .17 .05 .56 0 .75 -.07 .25 -.56 .64 -.52 .89 .07 .52 -.26 .85 -.37 1.12 -.06 .14 -.11 .49 0 .6 .14 .14 .6 .17 .78 .28 .26 .16 .79 .69 1.01 .69 s .18 .35 .22 .52 c .07 .27 .08 1.12 .08 1.12 v 1.05 s -.25 .68 -.15 1.04 c .39 1.36 1.43 2.08 2.61 1.94 0 0 1.06 .92 1.36 1.05 .37 .15 1.02 .07 1.32 .59 .3 .53 1.15 2.93 1.7 3.25 .58 .34 1.08 2.46 1.58 2.86 .62 .5 1.89 .57 2.01 .52 .1 -.04 -.02 -.28 .07 -.32 .12 -.06 .7 .07 .75 -.05 .08 -.18 -.3 -.5 -.19 -.66 .12 -.18 .51 .2 .66 .05 .1 -.09 -.19 -.4 -.11 -.51 .05 -.08 .26 .07 .32 0 .17 -.2 -.06 -.99 .18 -1.09 .11 -.05 .23 .2 .33 .15 .22 -.1 -.14 -.69 .02 -.87 .09 -.1 .26 .23 .35 .13 s -.1 -.4 .09 -.62 c .16 -.19 .39 .03 .48 -.04 .14 -.1 -.18 -.4 -.03 -.48 .47 -.27 .68 -.08 1.24 -.18 .37 -.07 .59 -.39 .77 -.41 .14 -.02 .39 .28 .63 .13 .13 -.08 .24 .4 .39 .39 .26 -.02 .41 -.43 .54 -.2 .11 .2 .47 .38 .63 .24 .17 -.16 .32 -.1 .54 .11 .08 .07 .38 .07 .48 .11 s .28 .44 .37 .37 c .19 -.15 .28 -.67 .3 -.56 .07 .3 .22 .73 .61 .83 .17 .04 .51 .2 .67 .15 .19 -.06 .34 -.67 .52 -.6 .21 .08 -.2 .99 0 .9 .29 -.14 .38 -.29 .6 0 .09 .12 .22 .37 .45 .37 .22 0 .64 .07 .6 .22 -.23 .82 -.08 2.67 -.14 2.87 -.24 .71 -.25 1.01 -.31 1.38 -.05 .29 -.26 .85 -.37 1.12 -.13 .29 -.49 .82 -.6 1.12 -.11 .31 -.25 2.35 -.33 2.75 -.05 .25 -.45 .68 -.61 .88 -.25 .31 -.84 .48 -1.15 .74 -.44 .36 -1.02 1.01 -.8 1.22 .26 .27 2.1 .68 2.38 .67 .39 0 2.33 -.15 2.77 -.54 .29 -.26 .83 -.48 1.04 -.82 .19 -.3 .21 -1.05 .26 -1.4 .07 -.5 .59 -1.44 .52 -1.94 -.03 -.22 -.19 -.57 -.11 -.78 .07 -.18 .13 -.06 .28 -.19 .29 -.24 .3 -1.3 .67 -1.34 .24 -.03 .46 .55 .6 .74 .16 .22 .58 .6 .82 .75 .22 .14 .76 .52 .97 .37 .14 -.1 -.13 -.56 0 -.67 .13 -.12 .52 .15 .67 .07 .18 -.1 .18 -.66 .37 -.75 .07 -.03 .23 .05 .3 .08 .16 .05 .5 .32 .64 .22 .08 -.05 -.09 -.35 0 -.37 .19 -.05 .26 .49 .44 .42 .11 -.05 .19 -.71 .39 -.89 .12 -.11 .5 .05 .62 -.05 .18 -.15 .22 -.88 .45 -.82 .13 .03 .08 .36 .14 .25 .64 -1.29 1.28 -2.26 1.72 -2.41 .45 -.15 .48 -.42 .9 -.15 .14 .09 .19 -.51 .35 -.48 s .33 .29 .37 .45 .1 .4 .25 .45 c .2 .07 .25 -.4 .46 -.39 .22 .02 .29 .65 .35 .86 .06 .2 .12 .58 .19 .78 .14 .4 .56 1.01 .63 1.54 .07 .52 .02 1.67 0 1.94 -.03 .35 .14 .87 .02 1.42 -.12 .53 -.47 1.23 -.61 1.64 -.09 .25 -1.2 .94 -1.35 1.16 -.09 .14 -.78 .84 -.76 1.01 .02 .16 1.22 .33 1.66 .41 .57 .1 1.64 .05 2.07 .05 .28 0 1.51 -.59 1.64 -.84 .34 -.6 .39 -1.31 .48 -1.55 .2 -.53 .81 -1.62 .88 -1.92 s .18 -.87 .57 -1.14 c .58 -.4 .64 -.25 .76 -.11 .13 .15 .22 .35 .41 .28 .21 -.08 -.1 -.52 .11 -.58 s .27 .41 .48 .35 c .31 -.09 -.16 -.49 -.03 -.58 .17 -.11 .55 .22 .69 .08 .13 -.13 -.36 -.31 -.24 -.45 .12 -.13 .7 .18 .81 .04 .14 -.18 -.56 -.54 -.53 -.77 .02 -.18 .38 -.27 .53 -.38 .14 -.1 .38 -.09 .47 -.23 .08 -.13 -.02 -.31 .12 -.37 .17 -.07 .49 .2 .43 .02 -.08 -.22 -.61 -.51 -.69 -.77 -.05 -.17 .3 .31 .4 .17 .15 -.21 -.47 -.55 -.33 -.76 .09 -.13 .49 .25 .62 .15 .16 -.13 -.11 -.47 0 -.59 .1 -.11 .32 .26 .41 .15 .14 -.16 -.04 -.66 .04 -.86 .05 -.12 0 0 .05 -.12 .07 -.18 -.49 -.25 -.42 -.43 .08 -.21 .53 -.17 .8 -.31 .22 -.12 -.75 -.24 -.87 -.45 -.07 -.11 .19 -.4 .11 -.51 -.07 -.1 -.58 -.04 -.58 -.16 .01 -.23 .89 .01 .9 -.22 s -.89 -.06 -.9 -.3 c 0 -.22 -.25 -.2 -.24 -.42 .02 -.28 .3 -.23 .09 -.4 -.09 -.08 -.58 -.28 -.65 -.37 -.09 -.13 -.21 -.27 -.13 -.48 .06 -.16 -.19 -.16 -.15 -.32 .07 -.27 .18 -.01 .04 -.24 -.11 -.18 .03 -.64 .09 -.83 .04 -.13 .08 -.44 .21 -.43 .49 .03 -.02 -.57 .05 -.67 .15 -.2 .82 -.24 1.01 -.39 .4 -.3 .8 -.51 1.92 -.59 1.12 -.07 1.49 .22 2.16 .3 s 2.01 .08 2.76 .23 3.26 1.02 4.03 .95 c .67 -.06 .55 .4 1.03 .6 s 1.19 .14 1.79 0 c 1.72 -.41 2.99 -1.16 3.52 -1.53 s 2.74 -2.31 3.19 -2.18 c .63 .18 .65 3.81 .8 4.58 .14 .7 .69 5.05 .54 5.65 s -1.26 2.97 -1.48 3.49 c -.23 .52 -1.87 2.91 -2.31 3.28 s -1.64 1.34 -2.01 1.86 -.67 .82 .07 .97 1.19 .37 2.31 .37 1.79 .07 2.53 -.37 c .74 -.45 1.27 -.82 1.42 -1.49 s .37 -1.49 .67 -2.09 1.8 -3.19 2.45 -4.04 c .67 -.88 1.21 -2 1.65 -2.3 .45 -.3 .6 -.67 .67 -1.12 s -.32 -1.25 -.32 -2 .1 -2.65 .1 -3.08 .97 -1.55 .97 -1.55 3.06 3.36 3.58 3.95 c .52 .6 2.24 1.64 2.61 2.09 s 2.01 2.16 2.16 3.06 1.27 4.62 1.34 5.22 -.45 1.82 -.51 2.12 c -.09 .43 -.62 1.77 -.76 1.98 -.11 .18 -.33 .64 -.22 .82 .23 .39 1.58 .37 1.79 .37 .22 0 1.43 -.15 1.97 -.44 .4 -.21 .83 -.83 .93 -1.12 .14 -.41 -.17 -1.53 -.13 -1.96 .04 -.4 -.11 -2.09 -.11 -2.46 s .17 -.58 .31 -.67 c .09 -.06 -.24 -.02 -.25 -.13 -.03 -.22 .04 -.33 -.04 -.53 -.06 -.14 .42 -.43 .3 -.52 -.99 -.74 -.62 -.76 -.07 -.9 .12 -.03 -.42 -.1 -.45 -.23 -.02 -.09 .17 -.24 .22 -.31 .07 -.11 -.4 -.12 -.43 -.25 -.06 -.33 -.2 -.65 -.39 -.92 -.16 -.23 -.15 -.6 -.15 -1.12 s -.37 -1.57 -.37 -2.24 -.37 -1.71 -.37 -2.01 .08 -1.13 -.3 -1.42 c -1.16 -.88 -3.7 -3.5 -4.03 -5.59 -.28 -1.78 .69 -4.41 .93 -5.68 .2 -1.07 -.18 -4.21 -.26 -4.81 -.07 -.6 .23 -2.71 -.3 -3.75 s -1.19 -2.01 -1.19 -2.01 1.49 .15 2.16 .82 1.56 1.79 1.72 2.83 c .15 1.04 .6 2.46 .52 2.76 -.07 .3 -1.04 2.01 -1.04 2.24 s -.24 1.23 -.23 1.72 c .01 .17 .15 .43 .25 .71 s 1.26 .99 1.64 1.16 c -.41 -.63 -.79 -.94 -1.15 -1.72 1.02 1.07 1.08 1.35 2.08 1.91 .41 .23 1.5 .28 1.96 .31 -.39 -.16 -.73 -.3 -1.21 -.58 -.27 -.16 -.45 -.71 -.58 -.98 -.1 -.2 -.18 -.84 -.24 -1.23 .2 .28 .48 .88 .7 1.07 z m -71.96 -8.9 c -.17 1.17 -1.28 2.33 -2.66 2.49 -1.13 .13 -2.5 -1.47 -2.23 -2.46 .12 -.46 1.07 -.1 1.89 -.85 s -.17 -6 .12 -6.02 c .27 -.01 1.75 2.35 2.38 3.91 .44 1.09 .64 1.92 .5 2.93 z" fill="#fff"/></svg>