<svg viewBox="0 0 300 300" xmlns="http://www.w3.org/2000/svg"><g fill="#fff"><path d="m 283.49 236.28 l -24.24 4.8 -24.46 -14.93 22.01 -4.27 z" opacity=".4"/><path d="m 294.61 249.24 l -37.73 8.04 2.37 -16.2 24.24 -4.8 z" opacity=".6"/><path d="m 294.05 269.98 l -37.08 8.81 -.09 -21.51 37.73 -8.04 z" opacity=".4"/><path d="m 213.18 242.77 l 21.94 4.6 -24.67 14.57 -24.17 -5.16 z" opacity=".4"/><path d="m 186.28 256.78 l 24.17 5.16 2.12 16.23 -37.6 -8.6 z" opacity=".6"/><path d="m 174.97 269.57 l 37.6 8.6 -.41 21.51 -36.94 -9.37 z" opacity=".4"/><path d="m 212.16 299.68 l .41 -21.51 33.83 -20.2 -.52 20.11 z" opacity=".25"/><path d="m 207.68 64.25 c -6.27 -6 -15.15 -7.83 -26.4 -5.42 -14.79 3.17 -26.85 21.4 -36.7 55.58 -.37 1.27 -2.51 8.91 -4.67 16.67 5.31 -1.36 10.28 -2.88 14.83 -4.52 1.85 -6.57 3.55 -12.59 3.77 -13.29 10.72 -34.64 21.13 -40.77 25.5 -41.7 6.75 -1.45 11.68 -.76 14.63 2.06 5.52 5.27 4.9 17.46 4.19 21.7 a 6.51 6.51 0 1 0 12.84 2.2 c .39 -2.25 3.44 -22.32 -7.99 -33.28 z" opacity=".7"/><path d="m 78.66 108.86 a 66.86 66.86 0 0 0 -.46 -7 c -18.05 6.5 -29.43 14.89 -28.32 22.35 .42 2.78 2.57 5.17 6.06 7.13 4.28 -4.47 12 -8.9 22 -12.75 .06 -3.05 .31 -6.27 .72 -9.73 z" opacity=".5"/><path d="m 77.92 118.55 c -10 3.85 -17.7 8.28 -22 12.75 .33 .19 .65 .37 1 .55 5.23 2.62 13.08 4.39 22.63 5.15 a 66.59 66.59 0 0 1 -1.63 -18.45 z" opacity=".15"/><path d="m 125.72 91.76 c 1.67 -1.17 3.37 -2.29 5 -3.35 74.28 -43.41 13.35 -44.58 13.07 -55.21 -4.19 -7.23 -.15 -13.64 2.26 -21.1 1.95 -11.16 -14.87 -12.89 -22.91 -11.49 -16.35 1.83 -19.39 23.71 -36.72 25.58 -12.91 3.12 -19.14 -7.9 -29.65 -13.35 -28.14 -13 -43.89 3.63 -51.34 25.87 -4.8 41.29 66.43 9.58 72.77 63.11 a 187.28 187.28 0 0 1 35.08 -8.57 c 4.23 -.64 8.39 -1.12 12.44 -1.49 z" opacity=".2"/><path d="m 77.92 118.55 a 175.46 175.46 0 0 1 31.81 -8.55 c 2.42 -7.44 9 -13.33 16 -18.2 -4 .37 -8.21 .85 -12.44 1.49 a 187.28 187.28 0 0 0 -35.08 8.57 66.86 66.86 0 0 1 .46 7 c -.42 3.46 -.67 6.68 -.75 9.69 z" opacity=".6"/><path d="m 109.73 110 a 175.43 175.43 0 0 0 -31.81 8.59 66.58 66.58 0 0 0 1.66 18.41 h .15 c 1.26 .09 2.54 .18 3.85 .24 2.71 .13 5.53 .19 8.45 .16 h .07 c 1.44 0 2.91 0 4.39 -.09 h .14 q 2.2 -.08 4.47 -.21 h .19 q 2.25 -.14 4.56 -.33 h .22 c 1.53 -.13 3.08 -.28 4.64 -.44 h .24 q 2.34 -.26 4.71 -.57 h .15 c -1 -2.33 -2.19 -4.64 -3.35 -6.89 -4.04 -7.32 -4.46 -13.52 -2.73 -18.87 z" opacity=".4"/><path d="m 162.64 75.37 a 7.12 7.12 0 0 0 -1.36 -.66 81.1 81.1 0 0 0 -4.41 7.46 c .31 .1 .6 .19 .78 .27 .93 .41 1.84 .85 2.74 1.32 2.71 1.42 5.3 3.06 7.91 4.66 a 69.33 69.33 0 0 1 3.59 -6.14 c -2 -1.61 -4.26 -3 -6.27 -4.58 a 31.78 31.78 0 0 0 -2.98 -2.33 z"/><path d="m 173.65 62 a 34.63 34.63 0 0 0 -7.44 6.35 c .82 1.09 2.28 2.38 2.77 3 l 5.92 6.93 a 22.4 22.4 0 0 1 6.45 -5.62 c -1.35 -1.83 -2.47 -3.87 -3.66 -5.82 a 15.25 15.25 0 0 0 -4.04 -4.84 z"/><path d="m 192.54 57.88 a 39.76 39.76 0 0 0 -9.83 .67 c -.23 2.12 .41 4.68 .73 6.76 s .74 4.11 1.22 6.14 a 28.74 28.74 0 0 1 5.32 -.59 51.47 51.47 0 0 1 1.94 -11 c .2 -.69 .43 -1.33 .62 -1.98 z"/><path d="m 207.68 64.25 a 22.15 22.15 0 0 0 -5.78 -4 27.62 27.62 0 0 0 -2.11 5.38 33.25 33.25 0 0 1 -3.53 6.4 8.82 8.82 0 0 1 2.38 1.6 11 11 0 0 1 2 2.72 81.03 81.03 0 0 0 11 -7 23.63 23.63 0 0 0 -3.96 -5.1 z"/><path d="m 207.63 88.15 c 2.75 .62 5.44 1.51 8.2 2.15 l .48 .11 a 47.84 47.84 0 0 0 -1.41 -13.19 c -2.28 1.08 -5.35 2.33 -5.84 2.54 -1.71 .7 -4.45 1.28 -6.39 2.44 a 34.68 34.68 0 0 1 .58 5.3 h .35 a 28.89 28.89 0 0 1 4.03 .65 z"/><path d="m 208.15 102.85 a 6.51 6.51 0 0 0 7.52 -5.31 v -.01 c .08 -.46 .27 -1.67 .43 -3.39 -.59 0 -1.18 -.06 -1.77 -.07 -3.77 -.07 -7.54 -.07 -11.33 -.07 -.06 .5 -.12 1 -.19 1.35 a 6.52 6.52 0 0 0 5.34 7.5 z"/><path d="m 166 93.24 a 152.46 152.46 0 0 0 -5.62 14.4 c 8 1 14.55 2.75 18.92 5.21 2.77 -2.9 4.11 -5.82 3.7 -8.6 -.8 -5.03 -7.12 -8.8 -17 -11.01 z" opacity=".5"/><path d="m 146.91 106.76 q 2.72 -8.45 5.65 -15.39 a 167.28 167.28 0 0 0 -26.84 .39 c -7 4.87 -13.57 10.76 -16 18.2 q 2.91 -.51 5.91 -1 a 194.46 194.46 0 0 1 31.28 -2.2 z" opacity=".5"/><path d="m 158.51 113.27 c -.22 .7 -1.92 6.72 -3.77 13.29 -4.55 1.64 -9.52 3.16 -14.83 4.52 2.16 -7.76 4.3 -15.4 4.67 -16.67 .76 -2.65 1.54 -5.19 2.33 -7.65 a 194.47 194.47 0 0 0 -31.27 2.24 c -2 .3 -4 .63 -5.91 1 -1.75 5.39 -1.31 11.59 2.78 18.83 1.16 2.25 2.35 4.56 3.35 6.89 l 3.7 -.51 c 27.9 -4.18 51 -13.17 59.7 -22.32 -4.37 -2.46 -10.9 -4.23 -18.92 -5.21 -.61 1.75 -1.22 3.62 -1.83 5.59 z" opacity=".15"/><path d="m 183.36 161.08 a 9.91 9.91 0 0 1 -4.48 .72 c -2.8 -.22 -5.34 -1.64 -7.94 -2.72 -6.26 -2.6 -14.22 -3 -19.17 1.65 -3.81 3.59 -5.41 9.73 -10.34 11.51 -2.89 1 -6.14 .18 -8.87 -1.24 s -5.16 -3.37 -7.93 -4.7 a 20.57 20.57 0 0 0 -18.79 .65 c -4 2.28 -7.31 6 -11.81 6.9 -8.83 1.84 -17.91 -7.7 -26.13 -4 a 9.67 9.67 0 0 0 -2.6 1.75 l 11.86 77.93 c .92 9 8 17.16 20.86 22.2 24.91 9.68 61.93 4.05 82.77 -12.59 10.74 -8.62 15.11 -18.51 13.32 -27.4 z" opacity=".7"/><path d="m 174.77 270.09 v -.09 a 1 1 0 0 1 0 -.19 .14 .14 0 0 1 0 -.07 v -.07 l .06 -.07 11.23 -12.6 .08 -.07 .09 -.06 15.77 -8.29 a 23.91 23.91 0 0 0 .92 -12.42 l -2.68 -17.57 22.61 -4.12 a 16.33 16.33 0 0 0 13.26 -17.68 c -1.39 -13.79 -4.11 -39.65 -6.54 -58.79 a 16.23 16.23 0 0 0 -20.19 -13.72 c -7.45 1.94 -15.06 3.59 -22.68 4.93 l -3.7 -24.21 c .46 11.42 -27.48 24.79 -63.45 30.18 -36.39 5.45 -67.32 .66 -69.6 -10.67 l 20.05 131.87 c 1 10.25 9.14 19.5 23.71 25.24 23.65 9.19 56.88 6.23 81 -6 z m 38.63 -130 c 2.37 19 5.12 44.75 6.57 58.39 l -22.14 4 -8.68 -57.12 c 8.18 -1.44 16.33 -3.2 24.25 -5.31 z m -115.4 131.65 c -12.82 -5 -19.94 -13.19 -20.86 -22.2 l -11.84 -77.93 a 9.67 9.67 0 0 1 2.6 -1.75 c 8.22 -3.71 17.3 5.83 26.13 4 4.5 -.94 7.83 -4.62 11.81 -6.9 a 20.57 20.57 0 0 1 18.79 -.65 c 2.77 1.33 5.2 3.28 7.93 4.7 s 6 2.28 8.87 1.24 c 4.93 -1.78 6.53 -7.92 10.34 -11.51 4.95 -4.64 12.91 -4.25 19.17 -1.65 2.6 1.08 5.14 2.5 7.94 2.72 a 9.91 9.91 0 0 0 4.48 -.72 l 10.75 70.67 c 1.79 8.89 -2.58 18.78 -13.32 27.4 -20.79 16.63 -57.86 22.26 -82.79 12.58 z"/><path d="m 212.57 278.17 l 33.83 -20.17 a .79 .79 0 0 0 -.25 -.61 l -10.65 -9.76 -.09 -.06 h -.18 l -24.67 14.57 z" opacity=".5"/><path d="m 235.12 247.37 h .18 l .09 .06 10.65 9.76 a .79 .79 0 0 1 .25 .61 l -.35 13.59 11.06 7.4 -.09 -21.51 -33.52 -20.7 .09 8.35 z" opacity=".25"/><path d="m 234.68 226.18 h -.09 l -.08 .06 -10.79 9.6 a .8 .8 0 0 0 -.26 .61 l 33.52 20.7 2.36 -16.2 -24.45 -14.93 z" opacity=".5"/></g></svg>