<svg viewBox="0 0 300 300" xmlns="http://www.w3.org/2000/svg"><g fill="#fff"><path d="m 212.42 52.84 a 26.15 26.15 0 0 0 -3.47 -1.53 9.28 9.28 0 0 0 -3.82 -.62 1.22 1.22 0 0 0 -.73 .31 1.24 1.24 0 0 0 -.12 1.75 l .01 .01 a 11.73 11.73 0 0 0 2.88 2.3 c 1 .59 2 1.22 3 1.78 s 2.08 1.08 3.12 1.64 c .39 .19 .79 .37 1.19 .54 .1 -1.64 .15 -3.23 .13 -4.77 a 22.98 22.98 0 0 0 -2.19 -1.41 z" opacity=".15"/><path d="m 87.49 98.53 a 50.78 50.78 0 0 0 11.77 -11.47 l 16.71 -2.54 -9 -12.9 a 50.6 50.6 0 1 0 -19.48 26.91 z"/><path d="m 124.52 65.19 c 2.66 2.11 6.15 3.66 7.49 6.68 1.3 5 .76 11.44 6.3 14.5 a 39.49 39.49 0 0 0 7.63 2.82 c 7.65 1.55 13.6 -15.72 12.23 -18.19 -.24 -.42 -.49 -.84 -.76 -1.25 a 17 17 0 0 1 -2.89 -10.5 c .39 -5.54 4.94 -9.59 10.38 -6.9 1.47 .73 3 1.67 4.6 1.59 a 5.48 5.48 0 0 0 2.57 -.89 c 3.09 -1.87 4.9 -5.33 5.88 -8.81 s 1.31 -7.11 2.25 -10.6 c 2.69 -9.94 19.43 -3.26 25 -.46 6 3 6.93 6.2 8.36 9 a 20.28 20.28 0 0 1 3.52 -2.18 c 15.35 -5.13 22.82 -19.84 11.59 -26.75 -27.29 -16.78 -45.14 -14.91 -60.77 -3 -8.59 6.53 -10.06 .8 -20.48 4.39 -6.38 2.11 -13 2.71 -15.77 9.77 -.85 12 -1.12 10.35 -9.79 18.82 -5.28 6.28 -4.02 16.63 2.66 21.96 z" opacity=".3"/><ellipse cx="205" cy="64.6" opacity=".15" rx="4.22" ry="1.86" transform="matrix(.12966094 -.99155839 .99155839 .12966094 114.36 259.49)"/><ellipse cx="189.07" cy="61.92" opacity=".15" rx="1.86" ry="4.22" transform="matrix(.99873696 -.05024432 .05024432 .99873696 -2.87 9.58)"/><path d="m 193.04 51 a 11.45 11.45 0 0 1 -3.47 1.22 c -1.16 .23 -2.3 .51 -3.46 .7 s -2.31 .35 -3.48 .53 a 14.25 14.25 0 0 1 -3.65 .08 1.36 1.36 0 0 1 -.69 -2.4 10.44 10.44 0 0 1 3.4 -1.8 27.39 27.39 0 0 1 3.68 -.91 25.05 25.05 0 0 1 3.77 -.31 9.13 9.13 0 0 1 3.81 .65 1.25 1.25 0 0 1 .13 2.24 z" opacity=".15"/><path d="m 184.49 91.14 a 19.46 19.46 0 0 1 -4.81 -3.42 .56 .56 0 0 1 0 -.79 .55 .55 0 0 1 .65 -.1 c 1.69 .88 3.34 1.73 5 2.48 .25 .11 .51 .2 .76 .3 .31 -3.51 .8 -7.39 1.58 -8.37 3.21 -4.06 5.44 -1.88 8.82 -3.06 1.13 -.4 1.45 -2.27 1.61 -3.26 2.19 -13.14 0 -31.69 -3.41 -45.65 -6.27 -1.57 -12.93 -1.59 -14.54 4.37 -.94 3.49 -1.26 7.13 -2.25 10.6 s -2.79 6.94 -5.88 8.81 a 5.48 5.48 0 0 1 -2.57 .89 c -1.64 .08 -3.13 -.86 -4.6 -1.59 -5.44 -2.69 -10 1.36 -10.38 6.9 a 17 17 0 0 0 2.89 10.5 c .27 .41 .52 .83 .76 1.25 1.1 2 -2.41 13.21 -7.73 17 2.47 2.79 5.1 5.27 7.71 7.91 6.37 6.44 9.63 10.68 19 13.8 1.91 -1.84 4.12 -3.53 5.65 -5.67 a 14.12 14.12 0 0 0 1.39 -2.49 22.28 22.28 0 0 0 1.61 -7.46 c 0 -.64 .09 -1.42 .15 -2.28 -.45 -.2 -.93 -.43 -1.41 -.67 z m 4.79 -25 c -1 0 -2 -1.8 -2.07 -4.12 s .62 -4.25 1.65 -4.31 1.95 1.8 2.07 4.12 -.62 4.25 -1.65 4.31 z m -10.32 -12.63 a 1.36 1.36 0 0 1 -.69 -2.4 10.44 10.44 0 0 1 3.4 -1.8 27.39 27.39 0 0 1 3.68 -.91 25.05 25.05 0 0 1 3.77 -.31 9.13 9.13 0 0 1 3.81 .65 1.25 1.25 0 0 1 .13 2.24 11.45 11.45 0 0 1 -3.47 1.22 c -1.16 .23 -2.3 .51 -3.46 .7 s -2.31 .35 -3.48 .53 a 14.25 14.25 0 0 1 -3.65 .08 z"/><path d="m 164.88 136.6 c .21 -3.35 1 -6.67 .89 -10 -.08 -4.41 -1.57 -8.67 -3.4 -12.68 a 74.85 74.85 0 0 0 -16 -22.78 c -.89 -.87 -1.8 -1.72 -2.68 -2.6 h .05 c -.79 -.25 -1.55 -.52 -2.25 -.78 4 14.92 -2.27 21.87 -16.48 30.29 -1.85 1.09 -3.61 2.21 -5.29 3.33 0 0 6.09 4.3 14.8 9.95 15.44 9.95 24.82 10.29 30.35 8.1 a 26.72 26.72 0 0 1 .01 -2.83 z" opacity=".8"/><path d="m 293.26 16.79 c -1.06 -2.09 -5.08 .05 -6.16 1.11 -3.74 3.68 -4.6 9.69 -8.62 13.24 -.33 -3.46 4.86 -29.73 -3 -28.07 -4 .86 -4.16 6.39 -4.47 9.62 -.3 3.05 -.38 6.11 -.54 9.17 -.12 2.18 .23 5.16 -.6 7.22 -2.29 -4 -1.47 -29.58 -8.83 -28 -4.8 1 -4.13 8.64 -3.69 12.06 .37 2.84 1 5.64 1.55 8.45 .49 2.4 -.16 6.94 -.32 9.39 -2.77 -2.88 -5.83 -23.06 -11.4 -20.83 -6.35 2.53 -1.79 13.38 -.26 17.4 1.33 3.45 12.25 20.88 4.86 22.45 -2.1 .45 -4.49 -1.18 -6.28 -2 a 22.24 22.24 0 0 0 -6.09 -2.07 c -2.55 -.41 -7.52 -.19 -6.73 2.5 1.18 4 20.39 13.4 27.32 20.22 1.05 4 .91 12.39 -14.73 19.52 -14.41 6.56 -23.86 12.69 -34.38 16.36 3.06 3.75 10.34 30.83 11.11 33.29 a 10.1 10.1 0 0 1 .45 2.58 c 12.77 -6.23 29.31 -14.23 33.28 -15.86 23.49 -9.6 28.66 -31.42 29.7 -43 .41 -4.57 2.69 -25.35 2.18 -31.37 -.73 -8.52 -.33 -19.23 4.39 -26.4 1.39 -2.16 2.52 -4.5 1.26 -6.98 z" opacity=".8"/><path d="m 117.96 222.81 a 26.11 26.11 0 0 1 -8.86 -1 c -.88 2 -1.73 4 -2.5 6 q -1.89 4.95 -3.4 10 a 126.37 126.37 0 0 0 10.81 6.69 c 2 1.07 8.56 4.13 12.76 6 3.26 -14.94 14.09 -44.49 12.75 -60.8 -5.56 16.67 -13.02 32.23 -21.56 33.11 z" opacity=".5"/><path d="m 110.45 285 a 51.35 51.35 0 0 0 11.77 8.69 51.84 51.84 0 0 1 -1 -6.72 q -5.18 -.7 -10.77 -1.97 z" opacity=".5"/><path d="m 179.68 286.58 c -10.61 -2.17 -31.54 5.17 -62.81 -.27 1.47 .26 2.93 .5 4.36 .7 a 51.84 51.84 0 0 0 1 6.72 c .45 .23 .89 .46 1.35 .67 8.66 4 18.55 4.44 28.07 3.69 11.5 -.92 23.18 -3.6 32.74 -10 a 29.35 29.35 0 0 0 -4.71 -1.51 z"/><path d="m 222 137.78 c -.8 -2.55 -8.55 -31.4 -11.4 -33.59 a 15.52 15.52 0 0 0 -5.46 -2.27 c -3.91 7.7 -9.23 11.83 -16.64 10.54 -2.33 -.41 -4.42 -.84 -6.31 -1.3 l -1.3 -.32 -.27 -.08 -.21 -.06 c -3.5 3.55 -8.63 10.2 -8.43 18.47 0 1.11 .08 2.19 .14 3.24 a 12.81 12.81 0 0 1 -7 6.89 c -5.49 2.31 -14.93 2.15 -30.65 -8 -8.72 -5.66 -14.8 -9.95 -14.8 -9.95 s -10.14 5.86 -16.45 12 l -.21 .22 c -30.09 27.87 -44.49 59.69 -44.49 59.69 s 30.31 23.26 50.58 28.52 c -.38 .86 -.76 1.72 -1.12 2.59 .36 -.87 .75 -1.73 1.13 -2.59 a 29.63 29.63 0 0 0 6.77 1 h 1.13 a 4.8 4.8 0 0 0 .93 -.06 7.53 7.53 0 0 0 .83 -.14 l .27 -.07 a 1.86 1.86 0 0 0 .56 -.15 l .32 -.12 .5 -.2 .34 -.16 a 4.07 4.07 0 0 0 .47 -.24 l .35 -.2 .46 -.28 .35 -.24 .44 -.32 .36 -.28 c .14 -.11 .29 -.23 .43 -.36 l .36 -.31 .42 -.4 .36 -.34 q .21 -.21 .42 -.45 l .34 -.36 c .15 -.16 .29 -.33 .43 -.49 l .34 -.4 .43 -.54 .32 -.4 c .2 -.26 .4 -.53 .59 -.81 l .48 -.67 c .12 -.18 .25 -.36 .37 -.55 l .39 -.59 .33 -.52 c .14 -.21 .27 -.42 .4 -.64 s .21 -.34 .31 -.52 .27 -.45 .4 -.68 l .3 -.52 .4 -.73 .29 -.52 .4 -.78 .27 -.5 c .14 -.28 .28 -.55 .41 -.83 s .17 -.32 .25 -.49 .28 -.59 .43 -.88 .13 -.3 .2 -.44 c .16 -.33 .31 -.65 .46 -1 l .15 -.34 c .17 -.36 .33 -.73 .49 -1.1 a 1.02 1.02 0 0 0 .07 -.15 c 1.41 -3.22 2.75 -6.66 4 -10.18 l .53 -1.52 c .17 -.51 .35 -1 .52 -1.54 1.34 16.31 -9.49 45.86 -12.75 60.8 2.09 1 3.59 1.63 3.59 1.63 l 2.9 1.12 c 15.24 5.92 27 10.84 50.76 12.19 2 -2.09 3.09 -4.15 6.08 -5.35 1.92 -.78 6.85 -2.48 11.13 -3.69 -.43 -4.88 -.86 -9.76 -1.32 -14.65 q -1 -10.32 -2.09 -20.64 c -.1 -7.16 -.45 -35.56 .8 -42.72 s 1.34 -19.11 9.85 -25.69 l 4.46 -2.58 a 9.92 9.92 0 0 0 2.42 -1.39 l 2.91 -1.69 a 10.93 10.93 0 0 0 2.59 -1.86 c 1.86 -1.89 1.99 -4.93 1.19 -7.47 z"/><path d="m 224.39 269.42 a 78.47 78.47 0 0 1 -12.27 2 c -3.85 .25 -7.5 .38 -10 -1.21 a 3.41 3.41 0 0 1 -1.14 -4.48 c 1.33 -2.48 5.22 -4.59 7.82 -6.81 1 -.86 .17 -3.77 -1.17 -3.76 a 31.27 31.27 0 0 0 -6.42 1.33 l -1.52 .45 -.28 .08 -1.28 .39 -.26 .08 -.72 .23 -.31 .09 -1.1 .36 -.45 .15 -.66 .22 -.72 .24 -.42 .15 -.82 .28 -.24 .09 -.69 .25 -.2 .07 -.72 .26 -.14 .06 c -.22 .08 -.43 .16 -.6 .24 -3 1.2 -4.06 3.26 -6.08 5.35 -23.72 -1.35 -35.52 -6.27 -50.76 -12.19 l -2.9 -1.12 -.14 -.06 h -.07 l -.77 -.35 h -.07 l -1.72 -.79 -.14 -.06 -.65 -.3 c -4.2 -1.92 -10.8 -5 -12.76 -6 a 126.51 126.51 0 0 1 -10.85 -6.77 q 1.52 -5.1 3.4 -10 c .44 -1.15 .9 -2.28 1.38 -3.41 .36 -.87 .74 -1.73 1.12 -2.59 -13.2 -3.48 -30.7 -14.58 -41.27 -21.89 -1.6 4 -3.08 8.06 -4.28 12.19 -2.76 9.17 -5.14 18.56 -5.41 28.08 -.12 1.7 -.16 3.33 -.12 4.88 a 22.64 22.64 0 0 0 0 4 23.27 23.27 0 0 0 2.75 8.82 19.86 19.86 0 0 0 6.14 7.62 l .26 .25 a 50.76 50.76 0 0 0 14.93 10 c 50.91 21.94 83.42 7.9 97.57 10.79 8.23 1.69 22.51 11.82 34.16 10 9.22 -1.42 13.07 -15.74 14.48 -23.49 a 3.21 3.21 0 0 0 -3.89 -3.72 z" opacity=".8"/><path d="m 162.37 113.9 c 1.83 4 3.32 8.27 3.4 12.68 .07 3.35 -.68 6.67 -.89 10 a 24.29 24.29 0 0 0 0 2.83 12.84 12.84 0 0 0 7.27 -7 c -.06 -1 -.12 -2.13 -.14 -3.24 -.2 -8.27 4.93 -14.92 8.43 -18.47 l -.78 -.21 h -.31 l -.9 -.26 -.3 -.1 -.84 -.27 h -.14 c -9.38 -3.12 -12.64 -7.36 -19 -13.8 -2.58 -2.6 -5.16 -5.06 -7.6 -7.8 l -.15 -.09 a 5.64 5.64 0 0 1 -4.44 1.15 c -.78 -.21 -1.55 -.44 -2.3 -.67 .88 .88 1.79 1.73 2.68 2.6 a 74.86 74.86 0 0 1 16.01 22.65 z" opacity=".5"/><path d="m 99.26 87.06 a 50.61 50.61 0 0 1 -87.24 -50.06 50.61 50.61 0 0 0 85.59 53.51 l 16.72 -2.51 1.64 -3.45 z" opacity=".3"/><path d="m 210.23 56.84 c -1 -.56 -2 -1.19 -3 -1.78 a 11.75 11.75 0 0 1 -2.89 -2.28 1.24 1.24 0 0 1 .1 -1.75 l .01 -.01 a 1.22 1.22 0 0 1 .73 -.31 9.28 9.28 0 0 1 3.82 .62 26.15 26.15 0 0 1 3.47 1.53 22.85 22.85 0 0 1 2.25 1.41 55.25 55.25 0 0 0 -1.6 -13 c -1.24 -2.56 -2.61 -5.37 -7.88 -8 a 54.64 54.64 0 0 0 -10.47 -3.92 c 3.39 14 5.6 32.52 3.41 45.66 -.16 1 -.48 2.86 -1.61 3.26 -3.38 1.18 -5.61 -1 -8.82 3.06 -.78 1 -1.27 4.86 -1.58 8.37 a 37.71 37.71 0 0 0 4.48 1.54 36.93 36.93 0 0 0 5.44 1 c 1.84 .21 3.7 .3 5.59 .36 a .61 .61 0 0 1 .6 .62 v .01 a .62 .62 0 0 1 -.47 .59 20.79 20.79 0 0 1 -5.89 .48 29.18 29.18 0 0 1 -5.86 -1 28.27 28.27 0 0 1 -4.07 -1.47 c -.06 .86 -.11 1.64 -.15 2.28 a 22.28 22.28 0 0 1 -1.61 7.46 14.12 14.12 0 0 1 -1.39 2.49 c -1.53 2.14 -3.74 3.83 -5.65 5.67 a 80.83 80.83 0 0 0 11.36 2.73 c 16.08 2.82 22.32 -20.06 25.62 -49.57 .15 -1.33 .25 -2.61 .33 -3.87 -.4 -.17 -.8 -.35 -1.19 -.54 -1 -.56 -2.06 -1.07 -3.08 -1.64 z m -3.39 8 c -.3 2.3 -1.37 4.07 -2.39 3.93 s -1.6 -2.11 -1.3 -4.42 1.37 -4.07 2.39 -3.94 1.63 2.13 1.3 4.44 z" opacity=".8"/><path d="m 180.33 86.83 c 1.69 .88 3.34 1.73 5 2.48 a 36.13 36.13 0 0 0 5.24 1.84 36.93 36.93 0 0 0 5.44 1 c 1.84 .21 3.7 .3 5.59 .36 a .61 .61 0 0 1 .6 .62 v .01 a .62 .62 0 0 1 -.47 .59 20.79 20.79 0 0 1 -5.89 .48 28.01 28.01 0 0 1 -11.38 -3.11 19.46 19.46 0 0 1 -4.81 -3.42 .56 .56 0 0 1 0 -.79 .55 .55 0 0 1 .68 -.06 z" opacity=".15"/></g></svg>