<svg enable-background="new 0 0 522.1494141 793.8256836" viewBox="0 0 522.15 793.83" xmlns="http://www.w3.org/2000/svg"><g fill="#fff"><path d="m 5 127.77 l 389.37 -1.75 v -121.02 c -89.45 80.68 -389.37 122.77 -389.37 122.77 z"/><path d="m 5 134.61 v 654.22 h 512.15 v -654.22 z m 196.44 268.35 l 14.03 287.65 c 1.75 12.28 -8.77 22.8 -21.05 22.8 s -22.8 -10.52 -21.05 -22.8 l 14.03 -287.65 c -33.32 -5.26 -57.88 -47.36 -57.88 -96.47 0 -54.37 29.82 -96.47 66.65 -96.47 s 66.65 43.85 66.65 96.47 c -1.75 50.87 -28.06 91.21 -61.38 96.47 z m 164.87 312.2 c -17.54 0 -29.82 -10.52 -28.06 -22.8 l 12.28 -203.46 c -28.06 -84.19 -54.37 -213.98 12.28 -275.37 7.02 -7.02 19.29 -1.76 19.29 7.02 v 256.08 l 14.03 213.98 c 0 14.03 -14.03 24.55 -29.82 24.55 z"/></g></svg>