<svg enable-background="new 0 0 165.2 300" viewBox="0 0 165.2 300" xmlns="http://www.w3.org/2000/svg"><g fill="#fff"><path d="m 5.4 160.3 l 8.1 6.4 c 1.7 1.4 4.2 1.1 5.6 -.7 .3 -.4 .6 -1 .7 -1.5 .6 -2.2 1.3 -4.3 2.1 -6.4 s -.2 -4.4 -2.2 -5.2 c -.5 -.2 -1.1 -.3 -1.7 -.3 l -10.3 .4 c -2.2 .1 -3.9 2 -3.8 4.2 0 1.3 .6 2.4 1.5 3.1 z"/><path d="m 54.3 106.5 l -.4 10.3 c -.1 2.2 1.6 4.1 3.8 4.2 .6 0 1.1 -.1 1.7 -.3 2.1 -.8 4.2 -1.5 6.4 -2.1 2.1 -.5 3.4 -2.7 2.9 -4.9 -.1 -.5 -.4 -1.1 -.7 -1.5 l -6.4 -8.1 c -1.4 -1.7 -3.9 -2 -5.6 -.6 -1.1 .8 -1.6 1.9 -1.7 3 z"/><path d="m 21.4 146.1 c 1.2 1.8 3.7 2.4 5.5 1.1 .5 -.3 .9 -.7 1.2 -1.2 1.2 -1.9 2.5 -3.7 3.9 -5.4 s 1.2 -4.2 -.5 -5.6 c -.4 -.4 -.9 -.6 -1.5 -.8 l -10 -2.8 c -2.1 -.6 -4.3 .7 -4.9 2.8 -.3 1.1 -.1 2.3 .5 3.3 z"/><path d="m 82.6 116.4 c 1.2 0 2.3 0 3.4 .1 2.2 .1 4.1 -1.6 4.2 -3.8 0 -.5 -.1 -1.1 -.2 -1.6 l -3.6 -9.7 c -.8 -2.1 -3.1 -3.1 -5.2 -2.3 -1.1 .4 -1.9 1.3 -2.3 2.3 l -3.6 9.7 c -.8 2.1 .3 4.4 2.4 5.1 .5 .2 1 .3 1.6 .2 1 .1 2.1 0 3.3 0 z"/><path d="m 162.6 177.7 l -9.7 -3.6 c -2.1 -.8 -4.4 .3 -5.1 2.4 -.2 .5 -.3 1 -.2 1.6 .1 1.1 .1 2.3 .1 3.4 0 1.2 0 2.3 -.1 3.4 -.1 2.2 1.6 4.1 3.8 4.2 .5 0 1.1 -.1 1.6 -.2 l 9.7 -3.6 c 2.1 -.8 3.1 -3.1 2.4 -5.1 -.6 -1.2 -1.4 -2.1 -2.5 -2.5 z"/><path d="m 133.1 140.6 c 1.4 1.7 2.7 3.6 3.9 5.4 1.2 1.9 3.6 2.4 5.5 1.2 .5 -.3 .9 -.7 1.2 -1.2 l 5.7 -8.6 c 1.2 -1.8 .7 -4.3 -1.1 -5.5 -1 -.6 -2.2 -.8 -3.3 -.5 l -10 2.8 c -2.1 .6 -3.4 2.8 -2.8 4.9 .3 .5 .6 1 .9 1.5 z"/><path d="m 105.8 120.7 c 2.1 .8 4.4 -.2 5.2 -2.2 .2 -.5 .3 -1.1 .3 -1.7 l -.4 -10.3 c -.1 -2.2 -2 -3.9 -4.2 -3.8 -1.2 0 -2.2 .6 -3 1.5 l -6.4 8.1 c -1.4 1.7 -1.1 4.2 .7 5.6 .4 .3 1 .6 1.5 .7 2.1 .6 4.2 1.3 6.3 2.1 z"/><path d="m 143.3 158.2 c .8 2.1 1.5 4.2 2.1 6.4 .5 2.1 2.7 3.4 4.9 2.9 .5 -.1 1.1 -.4 1.5 -.7 l 8.1 -6.4 c 1.7 -1.4 2 -3.9 .6 -5.6 -.7 -.9 -1.8 -1.5 -3 -1.5 l -10.3 -.4 c -2.2 -.1 -4.1 1.6 -4.2 3.8 0 .4 .1 1 .3 1.5 z"/><path d="m 118 120.2 c -1.8 1.2 -2.4 3.7 -1.1 5.5 .3 .5 .7 .9 1.2 1.2 1.9 1.2 3.7 2.5 5.4 4 1.7 1.4 4.2 1.2 5.6 -.5 .4 -.4 .6 -.9 .8 -1.5 l 2.8 -10 c .6 -2.1 -.7 -4.3 -2.8 -4.9 -1.1 -.3 -2.3 -.1 -3.3 .5 z"/><path d="m 35.3 128.9 c .6 2.1 2.8 3.4 4.9 2.8 .5 -.2 1 -.4 1.5 -.8 1.7 -1.4 3.6 -2.7 5.4 -4 1.9 -1.2 2.4 -3.6 1.2 -5.5 -.3 -.5 -.7 -.9 -1.2 -1.2 l -8.6 -5.7 c -1.8 -1.2 -4.3 -.7 -5.5 1.1 -.6 1 -.8 2.2 -.5 3.3 z"/><path d="m 129.9 234 c -.6 -2.1 -2.8 -3.4 -4.9 -2.8 -.5 .2 -1 .4 -1.5 .8 -1.7 1.4 -3.6 2.7 -5.4 3.9 -1.9 1.2 -2.4 3.6 -1.2 5.5 .3 .5 .7 .9 1.2 1.2 l 8.6 5.7 c 1.8 1.2 4.3 .7 5.5 -1.1 .6 -1 .8 -2.2 .5 -3.3 z"/><path d="m 86 246.3 c -1.1 .1 -2.3 .1 -3.4 .1 s -2.3 0 -3.4 -.1 c -2.2 -.1 -4.1 1.6 -4.2 3.8 0 .5 .1 1.1 .2 1.6 l 3.6 9.7 c .8 2.1 3.1 3.1 5.2 2.3 1.1 -.4 1.9 -1.3 2.3 -2.3 l 3.6 -9.7 c .8 -2.1 -.3 -4.4 -2.4 -5.1 -.4 -.2 -.9 -.3 -1.5 -.3 z"/><path d="m 105.8 242.1 c -2.1 .8 -4.2 1.5 -6.4 2.1 -2.1 .5 -3.4 2.7 -2.9 4.9 .1 .5 .4 1.1 .7 1.5 l 6.4 8.1 c 1.4 1.7 3.9 2 5.6 .6 .9 -.7 1.5 -1.8 1.5 -3 l .4 -10.3 c .1 -2.2 -1.6 -4.1 -3.8 -4.2 -.4 0 -.9 .1 -1.5 .3 z"/><path d="m 159.8 202.6 l -8.1 -6.4 c -1.7 -1.4 -4.2 -1.1 -5.6 .7 -.3 .4 -.6 1 -.7 1.5 -.6 2.2 -1.3 4.3 -2.1 6.4 s .2 4.4 2.2 5.2 c .5 .2 1.1 .3 1.7 .3 l 10.3 -.4 c 2.2 -.1 3.9 -2 3.8 -4.2 0 -1.3 -.6 -2.4 -1.5 -3.1 z"/><path d="m 143.8 216.8 c -1.2 -1.8 -3.7 -2.4 -5.5 -1.1 -.5 .3 -.9 .7 -1.2 1.2 -1.2 1.9 -2.5 3.7 -3.9 5.4 s -1.2 4.2 .5 5.6 c .4 .4 .9 .6 1.5 .8 l 10 2.8 c 2.1 .6 4.3 -.7 4.9 -2.8 .3 -1.1 .1 -2.3 -.5 -3.3 z"/><path d="m 32.1 222.3 c -1.4 -1.7 -2.7 -3.6 -3.9 -5.4 -1.2 -1.9 -3.6 -2.4 -5.5 -1.2 -.5 .3 -.9 .7 -1.2 1.2 l -5.7 8.6 c -1.2 1.8 -.7 4.3 1.1 5.5 1 .6 2.2 .8 3.3 .5 l 10 -2.8 c 2.1 -.6 3.4 -2.8 2.8 -4.9 -.3 -.6 -.6 -1.1 -.9 -1.5 z"/><path d="m 21.9 204.7 c -.8 -2.1 -1.5 -4.2 -2.1 -6.4 -.5 -2.1 -2.7 -3.4 -4.9 -2.9 -.5 .1 -1.1 .4 -1.5 .7 l -8.1 6.4 c -1.7 1.4 -2 3.9 -.6 5.6 .7 .9 1.8 1.5 3 1.5 l 10.3 .4 c 2.2 .1 4.1 -1.6 4.2 -3.8 0 -.4 -.1 -1 -.3 -1.5 z"/><path d="m 17.7 184.9 c -.1 -1.1 -.1 -2.3 -.1 -3.4 0 -1.2 0 -2.3 .1 -3.4 .1 -2.2 -1.6 -4.1 -3.8 -4.2 -.5 0 -1.1 .1 -1.6 .2 l -9.7 3.6 c -2.1 .8 -3.1 3.1 -2.3 5.2 .4 1.1 1.3 1.9 2.3 2.3 l 9.7 3.6 c 2.1 .8 4.4 -.2 5.2 -2.3 .1 -.5 .2 -1.1 .2 -1.6 z"/><path d="m 47.2 235.9 c -1.9 -1.2 -3.7 -2.5 -5.4 -3.9 s -4.2 -1.2 -5.6 .5 c -.4 .4 -.6 .9 -.8 1.5 l -2.8 10 c -.6 2.1 .7 4.3 2.8 4.9 1.1 .3 2.3 .1 3.3 -.5 l 8.6 -5.7 c 1.8 -1.2 2.4 -3.7 1.2 -5.5 -.4 -.6 -.8 -1 -1.3 -1.3 z"/><path d="m 61.4 258.7 l 6.4 -8.1 c 1.4 -1.7 1.1 -4.2 -.7 -5.6 -.4 -.3 -1 -.6 -1.5 -.7 -2.2 -.6 -4.3 -1.3 -6.4 -2.1 s -4.4 .2 -5.2 2.2 c -.2 .5 -.3 1.1 -.3 1.7 l .4 10.3 c .1 2.2 2 3.9 4.2 3.8 1.4 -.1 2.4 -.6 3.1 -1.5 z"/><path d="m 22.6 181.4 c 0 33.1 26.9 60 60 60 s 60 -26.9 60 -60 -26.9 -60 -60 -60 -60 26.9 -60 60 z m 79 -17.9 c .6 -.1 1.2 .1 1.7 .6 l 6.7 6.7 c .4 .4 .7 1 .6 1.7 -.6 4.4 -4.6 7.4 -9 6.9 s -7.4 -4.6 -6.9 -9 c .5 -3.6 3.3 -6.5 6.9 -6.9 z m -33.7 14.5 c 1.3 -5.4 6.7 -8.6 12.1 -7.3 3.6 .9 6.4 3.7 7.3 7.3 .2 1.1 -.5 2.1 -1.6 2.4 -.1 0 -.3 0 -.4 0 h -15.5 c -1.1 0 -2 -.9 -2 -2 0 -.1 .1 -.3 .1 -.4 z m -22.7 -7.2 l 6.7 -6.7 c .4 -.4 1 -.7 1.7 -.6 4.4 .6 7.4 4.6 6.9 9 s -4.6 7.4 -9 6.9 c -3.6 -.5 -6.4 -3.3 -6.9 -6.9 -.1 -.7 .2 -1.3 .6 -1.7 z"/><path d="m 50.3 46.2 c 8.4 8.4 9.4 21.8 2.3 31.3 -1.2 1.6 -1.1 3.8 .3 5.2 l 1.5 1.5 c 1.6 1.6 4.1 1.6 5.7 0 .1 -.1 .3 -.3 .4 -.5 10.3 -13.5 9 -32.6 -3 -44.6 -8.5 -8.4 -9.5 -21.7 -2.3 -31.3 1.2 -1.6 1.1 -3.8 -.3 -5.2 l -1.5 -1.5 c -1.6 -1.6 -4.1 -1.6 -5.7 0 -.1 .1 -.3 .3 -.4 .5 -10.3 13.6 -9 32.6 3 44.6 z"/><path d="m 80.3 46.2 c 8.4 8.4 9.4 21.8 2.3 31.3 -1.2 1.6 -1.1 3.8 .3 5.2 l 1.5 1.5 c 1.6 1.6 4.1 1.6 5.7 0 .1 -.1 .3 -.3 .4 -.5 10.3 -13.5 9 -32.6 -3 -44.6 -8.5 -8.4 -9.5 -21.7 -2.3 -31.3 1.2 -1.6 1.1 -3.8 -.3 -5.2 l -1.5 -1.5 c -1.6 -1.6 -4.1 -1.6 -5.7 0 -.1 .1 -.3 .3 -.4 .5 -10.3 13.6 -9 32.6 3 44.6 z"/><path d="m 110.3 46.2 c 8.4 8.4 9.4 21.8 2.3 31.3 -1.2 1.6 -1.1 3.8 .3 5.2 l 1.5 1.5 c 1.6 1.6 4.1 1.6 5.7 0 .1 -.1 .3 -.3 .4 -.5 10.3 -13.5 9 -32.6 -3 -44.6 -8.4 -8.4 -9.4 -21.8 -2.3 -31.3 1.2 -1.6 1.1 -3.8 -.3 -5.2 l -1.5 -1.5 c -1.6 -1.6 -4.1 -1.6 -5.7 0 -.1 .1 -.3 .3 -.4 .5 -10.3 13.6 -9 32.6 3 44.6 z"/><path d="m 122.1 261.6 c -2.9 3.2 -6.5 8.1 -6.5 11.5 0 4.4 3.6 8 8 8 s 8 -3.6 8 -8 c 0 -3.4 -3.6 -8.2 -6.5 -11.5 -.7 -.8 -2 -.9 -2.8 -.1 -.1 0 -.1 0 -.2 .1 z"/><path d="m 65.5 280.6 c -2.9 3.2 -6.5 8.1 -6.5 11.5 0 4.4 3.6 8 8 8 s 8 -3.6 8 -8 c 0 -3.4 -3.6 -8.2 -6.5 -11.5 -.7 -.8 -2 -.9 -2.8 -.1 -.1 0 -.1 0 -.2 .1 z"/></g></svg>