<svg enable-background="new 0 0 320 360" height="360" viewBox="0 0 320 360" width="320" xmlns="http://www.w3.org/2000/svg"><g fill="#fff"><path d="m 184.04 88.47 c -2.81 10.99 -4.74 22.67 -6.06 33.64 1.86 -14.22 4.03 -25.28 6.06 -33.64 z"/><path d="m 235.86 68.67 h -41.94 c -1.85 4.61 -4.06 11.13 -6.26 20.04 -4.93 19.98 -10.81 56.33 -10.81 116.1 v 115.19 l 59 -38.93 v -212.4 z"/><path d="m 150.77 152.95 c -.01 0 -.01 0 -.01 0 l -51.77 -7.19 4.49 6.94 47 7.07 c .07 -2.13 .17 -4.41 .29 -6.82 z"/><path d="m 173.57 182.15 l -22.51 -3.66 c -.49 -.08 -.85 -.5 -.86 -.99 0 -.08 -.02 -1.37 -.01 -3.61 l -62.91 -10.9 c -.49 -.09 -.85 -.51 -.85 -1.01 0 -.49 .15 -49.2 10.77 -83.91 .1 -.34 .38 -.6 .72 -.69 .32 -.08 32.61 -8.15 85.82 -1.43 .31 .04 .58 .22 .75 .49 .16 .27 .19 .59 .08 .89 l -.89 2.41 h 2.62 c .02 0 .04 0 .06 .01 2.64 -9.05 5.12 -14.89 6.85 -18.34 -6.55 -1 -55.12 -7.79 -91.97 2.67 0 0 -16.6 19.41 -17.11 102.17 v 130.78 l 89.14 25.46 v -117.68 c .01 -7.96 .12 -15.51 .3 -22.66 z m -2.58 18.83 c 0 .3 -.14 .6 -.37 .79 -.19 .15 -.42 .24 -.65 .24 -.06 0 -.13 0 -.19 -.02 l -33.77 -6.22 c -1.07 .22 -6.1 1.16 -12.76 1.16 -3.79 0 -7.42 -.31 -10.82 -.92 -10.9 -1.97 -15.78 -7.01 -16.92 -8.37 l -7.74 -1.49 c -.48 -.09 -.83 -.51 -.83 -1 v -14.56 c 0 -.3 .13 -.59 .36 -.78 .23 -.2 .54 -.28 .83 -.23 l 81.99 14.44 c .49 .09 .85 .51 .85 1.01 v 15.95 z"/><path d="m 184.04 88.47 c .1 -.38 .18 -.75 .28 -1.12 .49 -1.97 .98 -3.82 1.47 -5.57 h -21.58 c -11.97 33.25 -12.01 87.39 -11.96 94.83 l 21.39 3.47 c .7 -23.43 2.33 -42.56 4.35 -57.98 1.31 -10.95 3.24 -22.64 6.05 -33.63 z m -12.04 53.55 c -.06 .52 -.5 .9 -1.01 .9 -.04 0 -.09 0 -.13 -.01 l -12.77 -1.53 c -.56 -.07 -.96 -.58 -.89 -1.14 s .57 -.96 1.14 -.9 l 12.77 1.54 c .56 .07 .96 .58 .89 1.14 z m 1.88 -13.24 c -.03 0 -.06 0 -.09 -.01 l -15.84 -1.45 c -.56 -.06 -.97 -.55 -.93 -1.11 .05 -.56 .55 -.98 1.11 -.92 l 15.84 1.45 c .56 .05 .97 .55 .92 1.11 -.04 .53 -.49 .93 -1.01 .93 z"/><path d="m 88.99 184.3 l 6.95 1.34 c 1.45 -.63 7.19 -2.42 21.57 .07 14.17 2.46 18.12 6.58 19.13 8.1 l 32.3 5.95 v -13.88 l -79.95 -14.07 z m 7.26 -9.31 c .23 -.19 .54 -.27 .84 -.22 l 44.32 8.22 c .48 .09 .84 .52 .84 1.01 v 2.79 c .01 .05 .01 .1 .01 .15 0 .56 -.46 1.02 -1.02 1.02 h -.01 c -.07 0 -.13 0 -.2 -.02 l -44.31 -8.56 c -.48 -.09 -.83 -.51 -.83 -1 v -2.6 c 0 -.3 .13 -.59 .36 -.79 z"/><path d="m 140.2 185.69 v -.85 l -42.27 -7.83 v .52 z"/><path d="m 117.17 187.73 c -11.36 -1.97 -17.02 -1.18 -19.3 -.58 1.83 1.76 6.41 5.32 14.93 6.85 3.27 .59 6.79 .89 10.46 .89 4.78 0 8.75 -.52 10.87 -.85 -1.68 -1.56 -6.1 -4.43 -16.96 -6.31 z"/><path d="m 107.87 99.7 l 48.82 1.99 c 1.55 -7.57 3.47 -14.83 5.85 -21.28 .14 -.4 .53 -.67 .96 -.67 h 18.02 l .71 -1.92 c -45.98 -5.63 -75.84 -.18 -82.41 1.23 z"/><path d="m 88.55 161.11 l 12.89 -7.8 -5.39 -8.31 c -.02 -.03 -.04 -.07 -.05 -.1 -.01 -.02 -.03 -.05 -.04 -.07 -.02 -.05 -.03 -.1 -.04 -.15 -.01 -.02 -.01 -.04 -.01 -.05 -.03 -.14 -.02 -.27 .01 -.41 0 -.01 0 -.01 0 -.01 l 10.05 -43.76 c 0 -.01 0 -.01 0 -.01 l -7.53 -19.29 c -9.07 31.64 -9.88 73.49 -9.95 79.98 h .03 c .01 0 .02 -.01 .03 -.02 z"/><path d="m 150.38 161.82 c -.05 0 -.1 -.01 -.15 -.01 l -47.14 -7.09 -11.5 6.95 58.62 10.16 c .02 -2.6 .08 -6 .2 -10.01 -.01 -.01 -.02 0 -.03 0 z"/><path d="m 107.76 101.74 l -9.61 41.85 52.71 7.31 c .11 -2.07 .24 -4.22 .39 -6.44 l -.2 -.02 -44.62 -5.45 6.64 -29.12 41.66 2.53 c .46 -2.92 .97 -5.83 1.53 -8.69 z m -1.4 32.3 c -.06 .52 -.5 .91 -1.02 .91 -.04 0 -.07 0 -.11 -.01 l -2.47 -.27 c -.56 -.06 -.97 -.56 -.91 -1.13 .06 -.56 .57 -.97 1.13 -.91 l 2.47 .27 c .56 .07 .97 .57 .91 1.14 z m .89 -3.82 c -.06 .52 -.5 .91 -1.02 .91 -.04 0 -.07 0 -.11 0 l -2.47 -.27 c -.56 -.06 -.96 -.56 -.9 -1.12 s .56 -.97 1.12 -.9 l 2.47 .27 c .56 .04 .97 .55 .91 1.11 z m .78 -3.93 c -.06 .53 -.5 .91 -1.01 .91 -.04 0 -.08 0 -.11 -.01 l -2.47 -.27 c -.56 -.06 -.97 -.57 -.9 -1.13 .06 -.56 .57 -.97 1.12 -.91 l 2.47 .27 c .56 .08 .96 .58 .9 1.14 z"/></g></svg>