<svg enable-background="new 0 0 358.0355835 953.3407593" viewBox="0 0 358.04 953.34" xmlns="http://www.w3.org/2000/svg"><path d="m 180.17 534.1 c 10.35 -24.36 33.14 -21.63 54.8 -28.43 22.57 -7.11 43.68 -18.83 61.55 -34.37 36.95 -32.12 55.68 -77.04 56.49 -125.54 1.47 -87.59 -55.13 -138.78 -139.46 -146.5 14.2 -56.42 34.7 -118.64 25.03 -177.21 l -12.14 1.63 s .64 13.18 .48 22.61 c -.28 17.08 -2.08 34.17 -5.29 50.96 -4.6 24.08 -10.08 48.37 -16.66 71.96 4.13 -27.67 6.16 -55.79 7.2 -83.73 .51 -13.78 .67 -41.35 .67 -41.35 l -16.24 -2.66 c -.19 38.34 -2.17 76.8 -7.61 114.77 -4.67 -50.1 -9.02 -100.88 -7.37 -151.24 l -14.73 4.25 s .71 44.64 .65 55.78 c 0 35.02 1.83 69.76 3.56 104.74 -7.64 -25.76 -11.83 -52.33 -14.13 -79.06 -.87 -10.25 -1.06 -45.7 -1.06 -45.7 l -13.57 -3.6 c -1.69 53.11 2.46 107.18 20.15 157.62 -67.61 1.5 -136.42 43.35 -153.13 111.39 -20.02 81.62 31.12 162.93 107.7 191.59 45.77 17.14 27.29 56.68 26.53 95.79 -1.01 52.1 14.84 102.35 53.42 138.61 32.97 30.97 82.76 45.31 110.9 80.89 25.96 32.8 24.83 92.52 11.83 130.11 .82 .3 1.64 .62 2.46 .92 15.12 -37.29 14.53 -81.3 2.54 -119.27 -14.06 -38.84 -58.04 -57.95 -88.95 -81.26 -30.7 -23.18 -54.53 -52.76 -63.47 -90.79 -8.46 -36.1 -8.2 -88.69 7.85 -122.91 4.75 -11.2 -6.78 14.46 0 0 z" fill="#fff"/></svg>