<svg viewBox="0 0 300 300" xmlns="http://www.w3.org/2000/svg"><g fill="#fff"><path d="m 219.24 251.86 c -.11 -.08 -.2 -.17 -.31 -.26 l -.33 -.28 c -.24 -.2 -.47 -.42 -.69 -.64 l -.19 -.19 a 8.51 8.51 0 0 1 -2.53 -5.06 c 0 .22 -.05 .45 -.05 .68 a 12.43 12.43 0 0 0 1.13 5 21.52 21.52 0 0 1 2.97 .75 z" opacity=".15"/><path d="m 251.91 248.73 a 10.29 10.29 0 0 1 -.68 1 11.01 11.01 0 0 1 -.8 .9 l -.06 .06 c -.28 .28 -.57 .55 -.89 .82 l -.12 .09 a 10.35 10.35 0 0 1 -1 .73 l -.2 .13 c -.32 .21 -.65 .42 -1 .62 l -.29 .16 c -.34 .19 -.67 .37 -1 .53 l -.4 .19 -1 .43 -.53 .19 c -.33 .12 -.65 .24 -1 .35 l -.67 .19 c -.31 .09 -.63 .19 -.95 .27 l -.81 .17 -.89 .19 c -.32 .06 -.65 .1 -1 .15 l -.81 .12 -1.19 .1 -.66 .06 c -.63 0 -1.27 .05 -1.91 .05 a 14.54 14.54 0 0 1 -1.66 -.06 h -.54 l -1.08 -.1 -.62 -.07 -1.15 -.18 c -.37 -.06 -.73 -.14 -1.09 -.21 l -.54 -.12 c -.32 -.07 -.64 -.15 -.95 -.24 l -.31 -.09 a 21.58 21.58 0 0 1 -2.06 -.68 8.46 8.46 0 0 1 3 4.87 8.03 8.03 0 0 1 .08 1.89 17.85 17.85 0 0 0 6.29 1.19 c 10.48 0 19.58 -9.07 19.61 -16.17 a 3.69 3.69 0 0 0 -.05 -.74 7.63 7.63 0 0 1 -1.07 3.21 z" opacity=".15"/><path d="m 238.52 284.46 h -.06 l -1.31 .61 -.12 .05 -1.3 .56 -.18 .09 -1.28 .52 -.25 .1 -1.27 .48 -.3 .11 -1.25 .46 -.36 .12 -1.24 .43 -.41 .13 -1.24 .4 -.46 .14 -1.24 .37 -.49 .14 -1.24 .35 -.53 .15 -1.24 .32 -.57 .15 -1.24 .3 -.61 .14 -1.24 .29 -.65 .14 -1.23 .26 -.69 .14 -1.24 .25 -.72 .13 -1.23 .23 -.77 .13 -1.22 .21 -.8 .12 -1.23 .19 -.83 .12 -1.23 .18 -.86 .11 -1.23 .16 -.9 .1 -1.22 .14 -.93 .1 -1.22 .12 -1 .09 -1.23 .11 -1 .08 -1.22 .1 -1 .07 -1.22 .08 -1 .05 -1.23 .07 -1.06 .05 -1.23 .05 h -15.5 l -1.2 -.05 -1.26 -.05 -1.21 -.06 -1.26 -.07 -1.23 -.07 -1.31 -.08 -1.19 -.08 -1.36 -.11 a 11.11 11.11 0 0 1 -1.16 -.09 l -1.39 -.12 -1.16 -.1 -1.39 -.13 -1.16 -.12 -1.52 -.16 -1 -.12 -1.78 -.21 -.81 -.09 -2.59 -.34 -2.59 -.36 -.89 -.14 -1.68 -.25 -1 -.16 -1.53 -.25 -1.08 -.19 -1.45 -.25 -1.11 -.2 -1.4 -.26 -1.17 -.22 -1.31 -.26 -1.17 -.24 -1.29 -.26 -1.18 -.25 -1.25 -.27 -1.18 -.27 -1.24 -.28 -1.16 -.28 -1.22 -.29 -1.18 -.29 -1.18 -.3 -1.18 -.3 -1.15 -.3 -1.18 -.33 -1.13 -.3 -1.17 -.33 -1.1 -.32 -1.17 -.35 -1.07 -.32 -1.17 -.35 -1.06 -.33 -1.15 -.37 -1 -.33 -1.17 -.39 -1 -.33 -1.15 -.4 -1 -.34 -1.15 -.41 -.96 -.33 -1.15 -.43 -.9 -.34 -1.14 -.44 -.88 -.35 -1.15 -.44 -.84 -.35 -1.14 -.47 -.81 -.34 -1.13 -.49 -.78 -.34 -1.12 -.5 -.74 -.34 -1.13 -.52 -.71 -.33 -1.12 -.54 -.66 -.33 -1.13 -.56 -.63 -.32 -1.11 -.57 -.6 -.32 -1.11 -.6 -.56 -.3 -1.11 -.62 -.51 -.29 -1.11 -.64 -.47 -.28 -1.11 -.67 -.43 -.27 -1.1 -.68 -.4 -.26 -1.09 -.71 -.36 -.24 -1.09 -.73 -.31 -.22 -1.09 -.77 -.27 -.19 c -.36 -.27 -.73 -.53 -1.08 -.8 l -.22 -.17 c -.37 -.27 -.73 -.55 -1.09 -.83 l -.16 -.13 -1.1 -.88 -.11 -.1 -1.1 -.92 c -8.61 -7.38 -13.29 -15.38 -12.83 -23.22 -.1 .46 -.18 .94 -.25 1.41 -3.33 24.69 39.37 50.83 95.37 58.37 s 104.09 -6.34 107.41 -31 c .07 -.48 .11 -1 .14 -1.43 -1.63 7.63 -8.25 14.08 -18.47 18.95 z" opacity=".5"/><path d="m 113.62 126.67 q -1.25 -.23 -2.49 -.39 c -21.88 5.95 -36.39 13.59 -35.45 19.72 l .84 1.86 a 10.91 10.91 0 0 0 4.75 3.14 c .52 -2.24 3.71 -4.73 8.91 -7.24 8.41 -4.06 22.1 -8.19 38.4 -11.42 a 50.06 50.06 0 0 0 -14.96 -5.67 z" opacity=".8"/><path d="m 210.05 125.43 c -1.26 -8.17 -29.58 -10.69 -64.34 -6 2.95 1 6 2 8.34 4 a 12.16 12.16 0 0 1 3.39 4.62 c 15.69 -1.61 29.23 -1.7 38.1 -.39 5.72 .84 9.51 2.26 10.67 4.24 a 10.75 10.75 0 0 0 3.63 -4.54 l .21 -1.92 z" opacity=".8"/><path d="m 195.54 127.65 c -8.87 -1.31 -22.41 -1.22 -38.1 .39 a 16.43 16.43 0 0 1 1.21 5.26 27.17 27.17 0 0 1 -2.12 12 34.48 34.48 0 0 1 -2.16 4.4 c 24.22 -4.5 43.84 -11.37 51.84 -17.83 -1.16 -1.96 -4.95 -3.38 -10.67 -4.22 z" opacity=".15"/><path d="m 145.71 119.42 c -.64 -.23 -1.28 -.46 -1.9 -.71 a 34.91 34.91 0 0 1 -15.35 -12 16.28 16.28 0 0 1 -3.33 -7.75 c -.58 -6.14 4.13 -11.42 8.8 -15.44 a 159.36 159.36 0 0 1 17.66 -13 c 5.54 -3.57 11.64 -7.41 13.74 -13.66 1.78 -5.33 0 -11.5 -3.82 -15.59 a 21.38 21.38 0 0 0 -15.17 -6.27 c -5.94 -.09 -11.68 1.87 -17.52 2.92 -8 1.43 -17.17 .8 -23 -4.91 -7.12 -7 -6.75 -19.16 -13.62 -26.43 -5 -5.35 -13 -6.88 -20.35 -6.49 -10.31 .52 -21.06 4.91 -26.52 13.7 a 17 17 0 0 0 -2.69 7.82 c -.38 6.16 3.6 11.76 8.14 16 5.6 5.13 12.22 9.02 18.22 13.82 s 11.31 10.87 13 18.32 c .5 2.27 .58 4.83 -.74 6.76 -1.11 1.61 -3 2.48 -4.79 3.27 l -14.9 6.56 c -2.88 1.25 -5.86 2.66 -7.57 5.17 -1.94 2.85 -1.93 6.67 -.87 9.95 3.28 10.15 14.44 15.12 24.44 18.82 a 83.81 83.81 0 0 0 15.74 4.65 c 5.9 .93 12 .6 17.86 1.35 a 269.21 269.21 0 0 1 29.36 -6.12 c 1.72 -.27 3.47 -.51 5.18 -.74 z" opacity=".2"/><path d="m 252.75 248.51 c -1.64 6.63 -9.91 13.95 -19.3 13.91 a 17.93 17.93 0 0 1 -6 -1.09 c .9 7.2 -6.06 15.82 -16.58 17.75 -10.78 2 -21.19 -3.81 -22.53 -11.13 a 6.51 6.51 0 0 1 -.08 -.75 6.65 6.65 0 0 1 -.19 -.68 v -.34 l -.26 .05 -.42 .08 -1.17 .21 -.63 .1 c -.34 .05 -.68 .11 -1 .15 l -.69 .1 -1 .13 -.7 .08 -1.14 .12 -.65 .06 -1.53 .12 h -.3 c -.61 .05 -1.24 .08 -1.87 .11 h -8.99 l -2.1 -.08 h -.49 l -1.66 -.09 -.77 -.05 -1.42 -.11 -.84 -.07 -1.44 -.09 -.83 -.08 -1.53 -.16 -.72 -.09 c -.75 -.08 -1.5 -.18 -2.26 -.28 s -1.51 -.21 -2.26 -.33 l -.72 -.11 -1.52 -.24 -.82 -.14 -1.39 -.25 -.83 -.16 -1.4 -.27 -.76 -.16 -1.62 -.34 -.48 -.11 c -.69 -.15 -1.37 -.31 -2 -.48 l -.53 -.13 -1.48 -.38 -.73 -.19 -1.25 -.34 -.75 -.21 -1.2 -.36 -.72 -.21 -1.26 -.4 -.59 -.19 q -.9 -.29 -1.77 -.6 l -.29 -.1 c -.49 -.17 -1 -.34 -1.44 -.52 l -.62 -.23 -1.06 -.42 -.65 -.26 -1 -.4 -.63 -.28 -1 -.42 -.58 -.26 -1.09 -.52 -.37 -.18 -1.36 -.69 -.45 -.25 -.86 -.47 -.51 -.3 -.73 -.44 -.5 -.32 -.68 -.44 -.46 -.31 -.68 -.48 -.38 -.27 -.94 -.74 -.26 -.23 -.63 -.54 -.33 -.31 -.47 -.47 -.32 -.33 -.4 -.45 c -.09 -.11 -.19 -.22 -.28 -.34 s -.24 -.31 -.36 -.46 a 2.96 2.96 0 0 1 -.23 -.32 c -.07 -.11 -.25 -.39 -.37 -.58 l -.12 -.2 a 8.37 8.37 0 0 1 -.46 -1 .9 .9 0 0 0 -.11 -.28 5.96 5.96 0 0 1 -.21 -.69 3.18 3.18 0 0 1 -.08 -.32 c 0 -.22 -.07 -.45 -.09 -.67 a 1.25 1.25 0 0 1 0 -.29 6.03 6.03 0 0 1 0 -.95 c .41 -3 3.3 -5.52 8 -7.35 l -12.94 -28.69 c -27.9 3.92 -47.28 14.28 -49.23 28.73 q -.09 .67 -.12 1.35 c -.43 7.9 4.25 15.9 12.82 23.25 l 1.1 .92 .11 .1 1.1 .88 .16 .13 c .36 .28 .72 .56 1.09 .83 l .22 .17 c .35 .27 .72 .53 1.08 .8 l .27 .19 1.09 .77 .31 .22 1.09 .73 .36 .24 1.09 .71 .4 .26 1.1 .68 .43 .27 1.11 .67 .47 .28 1.11 .64 .51 .29 1.11 .62 .56 .3 1.11 .6 .6 .32 1.11 .57 .63 .32 1.13 .56 .66 .33 1.12 .54 .71 .33 1.13 .52 .74 .34 1.12 .5 .78 .34 1.13 .49 .81 .34 1.14 .47 .84 .35 1.14 .45 .88 .35 1.14 .44 .9 .34 1.2 .45 .93 .34 1.15 .41 1 .34 1.15 .4 1 .33 1.17 .39 1 .33 1.15 .37 1.06 .33 1.17 .35 1.07 .32 1.17 .35 1.1 .32 1.17 .33 1.13 .3 1.18 .33 1.15 .3 1.18 .3 1.18 .3 1.18 .29 1.22 .29 1.16 .28 1.24 .28 1.18 .27 1.25 .27 1.18 .25 1.29 .26 1.17 .24 1.31 .26 1.17 .22 1.4 .26 1.11 .2 1.45 .25 1.08 .19 1.53 .25 1 .16 1.68 .25 .89 .14 2.59 .36 2.59 .34 .81 .09 1.78 .21 1 .12 1.52 .16 1.16 .12 1.39 .13 1.16 .1 1.39 .12 c .38 0 .77 .06 1.16 .09 l 1.36 .11 1.19 .08 1.31 .08 1.23 .07 1.26 .07 1.21 .06 1.26 .05 1.2 .05 h 15.49 l 1.23 -.05 1.06 -.05 1.23 -.07 1 -.05 1.22 -.08 1 -.07 1.22 -.1 1 -.08 1.23 -.11 1 -.09 1.22 -.12 .93 -.1 1.22 -.14 .9 -.1 1.23 -.16 .86 -.11 1.23 -.18 .83 -.12 1.23 -.19 .8 -.12 1.22 -.21 .77 -.13 1.23 -.23 .72 -.13 1.24 -.25 .69 -.14 1.23 -.26 .65 -.14 1.24 -.29 .61 -.14 1.24 -.3 .57 -.15 1.24 -.32 .53 -.15 1.24 -.35 .49 -.14 1.24 -.37 .46 -.14 1.24 -.4 .41 -.13 1.24 -.43 .36 -.12 1.25 -.46 .3 -.11 1.27 -.48 .25 -.1 1.28 -.52 .18 -.09 1.3 -.56 .12 -.05 1.31 -.61 h .06 c 10.22 -4.87 16.84 -11.32 18.47 -19 .09 -.44 .18 -.88 .24 -1.33 .74 -5.14 -.88 -10.47 -4.44 -15.63 z" opacity=".9"/><path d="m 190 243.38 c 5.58 2.68 9.66 5.66 11.67 8.66 a 34.61 34.61 0 0 1 3.7 -.91 29.94 29.94 0 0 1 10.88 -.06 12.36 12.36 0 0 1 -1.13 -5 3.08 3.08 0 0 1 .06 -.74 4.7 4.7 0 0 1 0 -.65 c 0 -6.33 8.52 -11.43 19 -11.39 a 18.78 18.78 0 0 1 2.13 .08 c -9.54 -6.25 -21.9 -11.88 -36.17 -16.38 l -2.18 20.06 s -1.71 2.95 -7.96 6.33 z"/><path d="m 109.61 247.61 c .36 -2.67 3.72 -4.74 9.14 -6.09 l -2.14 -4.75 c -4.67 1.83 -7.56 4.32 -8 7.35 a 6.03 6.03 0 0 0 0 .95 v .29 a 6.32 6.32 0 0 0 .09 .67 2.93 2.93 0 0 0 .08 .32 5.96 5.96 0 0 0 .21 .69 .75 .75 0 0 0 .11 .28 8.37 8.37 0 0 0 .46 1 3.75 3.75 0 0 1 .05 -.71 z" opacity=".6"/><path d="m 190 243.38 a 53.32 53.32 0 0 1 -7.72 3.36 c 6.5 2.14 11.7 4.57 15 7.06 a 29.47 29.47 0 0 1 4.4 -1.76 c -2 -3.04 -6.08 -5.98 -11.68 -8.66 z" opacity=".6"/><path d="m 161.17 251.55 c -30.88 4.16 -39.52 -3.6 -39.52 -3.6 l -2.9 -6.43 c -5.42 1.35 -8.78 3.42 -9.14 6.09 a 3.75 3.75 0 0 0 0 .67 l .12 .2 c .12 .19 .24 .39 .37 .58 s .15 .21 .23 .32 .23 .31 .36 .46 .19 .23 .28 .34 l .4 .45 .32 .33 .47 .47 .33 .31 .63 .54 .26 .23 .94 .74 .38 .27 .68 .48 .46 .31 .68 .44 .5 .32 .73 .44 .51 .3 .86 .47 .45 .25 1.36 .69 .37 .18 1.09 .52 .58 .26 1 .42 .63 .28 1 .4 .65 .26 1.06 .42 .62 .23 c .47 .18 1 .35 1.44 .52 l .29 .1 q .87 .31 1.77 .6 l .59 .19 1.26 .4 .72 .21 1.2 .36 .75 .21 1.25 .34 .73 .19 1.48 .38 .53 .13 c .68 .17 1.36 .33 2 .48 l .48 .11 1.62 .34 .76 .16 1.4 .27 .83 .16 1.39 .25 .82 .14 1.52 .24 .72 .11 c .75 .12 1.5 .23 2.26 .33 s 1.51 .2 2.26 .28 l .72 .09 1.53 .16 .83 .08 1.41 .13 .84 .07 1.42 .11 .77 .05 1.66 .09 h .49 l 2.1 .08 h 8.85 c .63 0 1.26 -.06 1.87 -.11 h .3 l 1.53 -.12 .65 -.06 1.14 -.12 .7 -.08 1 -.13 .69 -.1 a 6.16 6.16 0 0 0 1 -.15 l .63 -.1 1.17 -.21 .42 -.08 .26 -.05 c -.62 -4.61 3.17 -9.35 9.29 -12.38 -3.29 -2.49 -8.49 -4.92 -15 -7.06 a 104.77 104.77 0 0 1 -21.1 4.75 z" opacity=".8"/><path d="m 128.58 132.36 q 6.42 -1.28 13.42 -2.36 c 5.3 -.81 10.48 -1.47 15.44 -2 a 12.16 12.16 0 0 0 -3.39 -4.62 c -2.38 -2 -5.39 -3 -8.34 -4 -1.72 .23 -3.46 .47 -5.22 .74 a 269.21 269.21 0 0 0 -29.36 6.12 q 1.25 .16 2.49 .39 a 50.07 50.07 0 0 1 14.96 5.73 z"/><path d="m 158.65 133.3 a 16.43 16.43 0 0 0 -1.21 -5.26 q -7.5 .75 -15.44 2 -6.94 1.06 -13.42 2.35 c 1.57 .87 3.1 1.8 4.61 2.76 .84 .53 1.68 1.1 2.5 1.69 a 17.44 17.44 0 0 1 4.91 5.07 c 1.51 2.53 1.21 6.72 2.3 9.73 l 2.35 -.35 c 3.1 -.47 6.15 -1 9.12 -1.54 a 34.42 34.42 0 0 0 2.16 -4.4 27.19 27.19 0 0 0 2.12 -12.05 z" opacity=".4"/><path d="m 227.34 260.79 a 3.47 3.47 0 0 0 -.19 -.77 c .56 6.32 -7 12.8 -17.42 14.72 s -19.78 -1.45 -21.51 -7.54 a 6.51 6.51 0 0 0 .08 .75 c 1.34 7.32 11.75 13.12 22.53 11.13 s 17.85 -10.99 16.51 -18.29 z" opacity=".15"/><path d="m 234.14 233.33 c -10.47 0 -19 5.06 -19 11.39 0 2.7 1.52 5.17 4.09 7.14 a 27.91 27.91 0 0 0 -13.85 -.73 c -10.79 2 -18.55 8.88 -17.36 15.39 s 10.91 10.19 21.7 8.22 18.55 -8.88 17.35 -15.4 a 8.36 8.36 0 0 0 -3 -4.87 28.47 28.47 0 0 0 10 1.78 c 10.47 0 19 -5.07 19 -11.39 s -8.45 -11.49 -18.93 -11.53 z m -8.66 26.44 c -2.29 1.13 -5 .2 -7.39 .64 -5.53 1.73 -9.74 6.09 -15.26 7.82 -4.85 .89 -9.82 1.09 -12.88 -1.93 6.59 -.5 12.8 -3.07 18.75 -7 4.46 -3 12.67 -3.79 16.78 .47 z m 14 -10.8 c -5.49 -.7 -10.19 -4.08 -15.67 -4.77 -2.36 0 -4.72 1.33 -7.07 .65 3.16 -4.7 11 -5.35 15.7 -3.31 6.27 2.71 12.54 4.08 18.83 3.43 -2.41 3.36 -7.11 4.03 -11.82 4.03 z" opacity=".5"/><path d="m 251.24 245 c -2.38 3.36 -7.09 4 -11.79 4 -5.49 -.7 -10.19 -4.08 -15.67 -4.77 -2.36 0 -4.72 1.33 -7.07 .65 3.16 -4.7 11 -5.35 15.7 -3.31 6.27 2.71 12.54 4.08 18.83 3.43 z" opacity=".15"/><path d="m 190 266.3 c 3.06 3 8 2.82 12.88 1.93 5.52 -1.73 9.73 -6.09 15.26 -7.82 2.42 -.44 5.1 .49 7.39 -.64 -4.11 -4.26 -12.32 -3.47 -16.78 -.5 -5.95 4 -12.16 6.53 -18.75 7 z" opacity=".15"/><path d="m 140.6 141.88 a 17.43 17.43 0 0 0 -4.91 -5.07 c -.82 -.59 -1.66 -1.16 -2.5 -1.69 -1.51 -1 -3 -1.89 -4.61 -2.76 -16.3 3.23 -30 7.36 -38.4 11.42 -5.2 2.51 -8.39 5 -8.91 7.24 10.44 4.11 34.25 4.56 61.63 .59 -1.09 -3.01 -.79 -7.2 -2.3 -9.73 z" opacity=".15"/><path d="m 95.76 166 l 32.32 71.65 s 6.83 6.15 31.29 2.86 29.1 -11.45 29.1 -11.45 l 8.21 -75.69 c -53.83 46.63 -60.02 -1.72 -100.92 12.63 z" opacity=".8"/><path d="m 207.71 147 l 2.13 -19.61 a 10.75 10.75 0 0 1 -3.63 4.54 c -8 6.46 -27.62 13.33 -51.84 17.83 -3 .55 -6 1.07 -9.12 1.54 l -2.35 .35 c -27.38 4 -51.19 3.52 -61.63 -.59 a 10.9 10.9 0 0 1 -4.75 -3.16 l 45.13 100.1 s 8.64 7.76 39.52 3.6 36.75 -14.46 36.75 -14.46 l 2.54 -23.35 a 33.63 33.63 0 0 0 7.25 -66.79 z m -19.24 82.1 s -4.65 8.16 -29.1 11.45 -31.29 -2.86 -31.29 -2.86 l -32.32 -71.69 c 40.9 -14.39 47.09 33.93 100.92 -12.63 z m 35.31 -46.33 a 21.59 21.59 0 0 1 -22 18.93 l 4.62 -42.7 a 21.57 21.57 0 0 1 17.38 23.77 z"/></g></svg>