<svg enable-background="new 0 0 634.2138672 956.1190796" viewBox="0 0 634.21 956.12" xmlns="http://www.w3.org/2000/svg"><path d="m 271.43 559.63 c -1.38 -1.64 -2.72 -3.31 -3.98 -5.07 -2.43 -3.41 -4.61 -7.02 -6.59 -10.79 -6.78 -13.01 -10.74 -28.1 -10.74 -44.24 0 -4.17 .36 -8.25 .85 -12.27 -12.05 -.09 -23.56 -3.46 -33.31 -9.84 -5.4 -3.54 -10.06 -7.91 -14.02 -12.86 -7.91 5.41 -14.98 12.43 -20.53 20.89 -9.94 15.15 -14.13 32.72 -11.8 49.47 2.29 16.43 10.59 30.09 23.41 38.48 8.34 5.47 18.2 8.35 28.52 8.35 4.99 0 9.97 -.73 14.85 -1.99 5.51 -1.43 10.91 -3.58 16.01 -6.45 6.32 -3.57 12.14 -8.22 17.33 -13.68 z m 292.61 -179.09 c 11.69 -23.92 -6.1 -56.73 -39.65 -73.12 -12.27 -5.99 -25.39 -9.16 -37.91 -9.16 -20.66 0 -37.17 8.52 -44.14 22.8 -5.45 11.14 -4.6 24.67 2.3 38.11 3.34 -.38 6.72 -.63 10.15 -.63 32.48 0 60.83 17.7 75.96 43.86 15.48 -2.47 27.6 -10.19 33.29 -21.86 z m -33.71 65.22 c 0 -7.56 -1.15 -14.87 -3.25 -21.77 -.92 -2.99 -2.04 -5.89 -3.31 -8.71 -1.15 -2.58 -2.47 -5.06 -3.89 -7.46 -.96 -1.59 -1.89 -3.16 -2.94 -4.67 -13.64 -19.58 -36.39 -32.45 -62.12 -32.45 -.84 0 -1.66 .1 -2.49 .13 -4.66 .14 -9.22 .67 -13.62 1.63 -29.85 6.47 -53.08 30.52 -58.26 60.64 14.32 13.95 24.09 33.58 26.49 55.73 .38 3.51 .64 7.07 .64 10.69 0 .81 -.1 1.59 -.11 2.38 -.01 .72 -.06 1.45 -.1 2.17 12.98 10.45 29.48 16.75 47.43 16.75 1.14 0 2.24 -.13 3.36 -.18 5.45 -.24 10.74 -1.06 15.83 -2.38 1.63 -.43 3.25 -.88 4.85 -1.42 4.4 -1.48 8.64 -3.32 12.64 -5.53 23.14 -12.82 38.85 -37.38 38.85 -65.55 z m -210.64 -33.73 c 1.25 -6.86 1.77 -13.76 .95 -20.52 -1.96 -16.17 -9.79 -29.49 -22.06 -37.54 -7.74 -5.07 -16.93 -7.74 -26.59 -7.74 -21.56 0 -43.37 12.82 -56.91 33.48 -9.98 15.21 -14.36 32.72 -12.36 49.3 .78 6.52 2.77 12.4 5.37 17.83 1.95 4.08 4.29 7.85 7.17 11.15 2.8 3.23 5.9 6.18 9.52 8.55 7.74 5.07 16.93 7.75 26.6 7.75 .7 0 1.4 -.14 2.1 -.16 1.65 -6.1 3.87 -11.92 6.59 -17.39 2.03 -4.05 4.34 -7.89 6.89 -11.52 12.64 -18.01 31.37 -30.39 52.73 -33.19 z m -42.94 134.67 c .79 1.13 1.62 2.24 2.47 3.31 2.8 3.58 5.87 6.86 9.21 9.77 11.22 9.84 25.21 15.74 40.41 15.74 9.1 0 17.76 -2.1 25.66 -5.9 4.41 -2.11 8.56 -4.78 12.42 -7.88 1.29 -1.02 2.54 -2.08 3.75 -3.2 3 -2.77 5.75 -5.86 8.28 -9.17 8.45 -11.07 14.14 -24.93 15.86 -40.21 -.16 -.14 -.3 -.25 -.45 -.4 .18 -.13 .36 -.24 .55 -.38 .3 -2.92 .5 -5.86 .5 -8.87 0 -1.94 -.14 -3.86 -.25 -5.76 -.05 -.75 -.05 -1.53 -.13 -2.28 -1.44 -15.61 -7.08 -29.79 -15.53 -41.13 -3.52 -4.72 -7.55 -8.92 -11.99 -12.56 -10.5 -8.6 -23.28 -13.8 -37.1 -14.17 -.53 -.02 -1.04 -.09 -1.57 -.09 -4.37 0 -8.63 .51 -12.76 1.43 -15.45 3.43 -28.99 12.96 -38.64 26.32 -2.6 3.58 -4.89 7.46 -6.87 11.55 -1.44 2.97 -2.66 6.08 -3.75 9.25 -1.51 4.48 -2.69 9.16 -3.45 13.99 -.69 4.36 -1.1 8.83 -1.1 13.43 0 13.23 2.99 25.7 8.24 36.55 1.81 3.79 3.92 7.34 6.24 10.66 z m 141.36 96.72 c 4.05 1.76 8.23 3.02 12.46 4.03 5.29 1.27 10.7 2.07 16.14 2.07 11.57 0 22.75 -3.1 32.37 -8.98 5.23 -3.19 9.64 -7.33 13.65 -11.86 2.78 -3.14 5.27 -6.55 7.4 -10.25 3.88 -6.74 6.88 -14.17 8.35 -22.41 .79 -4.43 1.13 -8.91 1.14 -13.41 .03 -6.94 -.89 -13.91 -2.65 -20.75 -2.14 -8.3 -5.49 -16.4 -10.14 -24.03 -2.53 -4.14 -5.45 -7.93 -8.53 -11.52 -2.88 1.2 -5.84 2.21 -8.86 3.08 -5.13 1.5 -10.44 2.59 -15.91 3.14 -2.87 .27 -5.79 .44 -8.74 .44 -18.13 0 -35.01 -5.52 -49.02 -14.94 -2.97 15.47 -9.61 29.41 -18.8 40.71 5.61 7.6 10.22 16.16 13.52 25.49 6.09 17.18 6.98 34.86 3.64 51.2 4.46 3.12 9.1 5.87 13.98 7.99 z m 73.71 150.47 c -3.35 .5 -6.69 .74 -10.01 .74 -17.41 0 -33.91 -6.77 -47.47 -18.24 -.22 .52 -.47 1.03 -.71 1.54 21.09 12.26 36.74 37.14 39.22 66.62 .28 3.33 .33 6.61 .27 9.85 .44 -.13 .9 -.17 1.34 -.3 27.07 -8.39 42.97 -37.09 40.02 -67.92 -6.95 3.84 -14.55 6.5 -22.66 7.71 z m 13.03 -159.72 c -5.33 6.72 -11.77 12.51 -19.23 17.07 -11.58 7.07 -25.04 10.8 -38.89 10.8 -7.98 0 -15.9 -1.26 -23.56 -3.53 -3.73 6.65 -6.49 13.83 -8.24 21.41 8.77 8.55 15.87 19.27 20.56 31.58 .26 .68 .61 1.31 .87 2 .93 2.63 1.72 5.25 2.38 7.89 3.71 14.57 3.46 29.2 0 42.51 14.06 13.53 32.35 20.74 51.28 17.86 8.03 -1.19 15.42 -4.19 22.06 -8.45 3.15 -2.03 6.11 -4.36 8.87 -6.96 17.32 -16.36 26.64 -43.34 22.35 -71.98 -3.99 -26.63 -18.89 -48.76 -38.45 -60.2 z m 83.72 -167.6 c -12.69 -18.69 -29.92 -32.28 -48.01 -38.88 1.25 5.83 1.92 11.88 1.92 18.08 0 31.7 -17.14 59.42 -42.64 74.69 2.76 3.42 5.37 7.03 7.7 10.85 7.64 12.52 12.34 26.2 13.99 40.06 11.14 5.96 22.9 9.38 34.41 9.38 10.63 0 20.15 -2.81 28.33 -8.36 13.58 -9.21 21.66 -25.05 22.72 -44.59 1.1 -20.35 -5.44 -42.09 -18.42 -61.23 z m -205.14 307.32 c 3.59 -1.45 7.27 -2.54 11.1 -3.24 1.73 -.3 3.47 -.6 5.24 -.74 8.39 -.68 16.54 .63 24.23 3.49 .76 -1.6 1.67 -3.11 2.31 -4.78 1.8 -4.64 2.93 -9.59 3.69 -14.67 1.42 -9.33 .93 -19.19 -1.48 -29.1 -.64 -2.63 -1.1 -5.25 -2.02 -7.86 -.29 -.85 -.72 -1.59 -1.06 -2.42 -3.09 -7.94 -7.36 -15.06 -12.44 -21.26 -3.42 -4.13 -7.09 -7.97 -11.2 -11.16 -4.73 -3.69 -9.91 -6.57 -15.3 -8.8 -9.26 11.54 -21.47 20.66 -36.12 25.86 -8.69 3.07 -17.74 4.63 -26.93 4.63 -3.29 0 -6.51 -.43 -9.72 -.8 -7.04 15.96 -8.22 35.45 -1.51 54.42 7.35 20.76 22.42 36.48 40.36 43.77 .67 -1.09 1.13 -2.31 1.86 -3.37 7.68 -11.31 17.7 -19.43 28.99 -23.97 z m -62.86 -82.59 c .96 .04 1.89 .23 2.86 .23 7.78 0 15.47 -1.32 22.83 -3.91 10.73 -3.82 19.89 -10.14 27.29 -18.12 2.61 -2.8 5.03 -5.78 7.16 -8.99 4.09 -6.11 7.27 -12.85 9.48 -20.04 1.41 -4.52 2.42 -9.2 3.01 -14.01 1.49 -12.35 .21 -25.4 -4.29 -38.14 -2.63 -7.42 -6.27 -14.17 -10.57 -20.34 -3.33 3.03 -6.91 5.74 -10.66 8.13 -3.73 2.38 -7.67 4.4 -11.77 6.09 -8.44 3.47 -17.53 5.48 -27.06 5.48 -18.17 0 -34.86 -6.99 -48.2 -18.6 -9.37 9.76 -20.66 17.09 -32.78 21.39 -3.48 14.82 -2.87 31.08 2.72 46.84 9.7 27.39 32.12 47 58.14 52.51 3.89 .82 7.83 1.33 11.84 1.48 z m 106.51 97.67 c -3.22 -1.85 -6.58 -3.34 -10.06 -4.38 -4.08 -1.22 -8.24 -2.06 -12.54 -2.06 -1.2 0 -2.42 .05 -3.65 .16 -2.51 .21 -4.93 .89 -7.34 1.53 -3.63 .96 -7.11 2.31 -10.43 4.18 -6.81 3.82 -12.96 9.29 -17.95 16.57 -.03 .04 -.07 .08 -.11 .13 -1.99 2.92 -3.63 6.1 -5.16 9.35 -5.61 11.96 -8.14 25.84 -6.93 40.2 3.11 36.9 29.47 65.71 59.24 62.98 23.72 -1.99 42.23 -23.24 46.98 -50.8 .61 -3.4 .93 -6.91 1.08 -10.46 .17 -3.52 .17 -7.09 -.16 -10.73 -2.11 -25.34 -15.32 -46.56 -32.97 -56.67 z m -253.04 -406.77 c 9.05 -6.38 14.9 -22.9 15.44 -36.21 0 0 3.19 8.52 9.59 12.78 9.05 -5.86 8.52 -15.44 9.57 -33 1.06 -17.57 19.17 -21.82 22.9 -12.77 3.72 9.05 -16.51 45.77 -36.2 63.88 .85 1.96 2.21 3.42 3.82 4.57 1.54 -3.01 3.19 -5.98 5.08 -8.86 15.91 -24.28 41.86 -39.36 67.77 -39.36 12.2 0 23.85 3.42 33.7 9.89 7.83 5.12 14.22 11.89 18.94 19.92 -.23 -10.37 -7.4 -24.91 -4.67 -36.24 2.3 -3.22 4.96 -6.47 8.16 -9.64 15.21 4.37 6.08 44.1 3.2 61.95 .54 1.95 1.01 3.94 1.39 5.98 1.86 -1.06 5.11 -2.72 10.59 -5.03 0 0 -4.78 17.57 .54 31.4 1.69 -.45 3.16 -1.28 4.73 -1.92 -.52 1.34 -2.41 2.29 -3.93 3.62 l 13.1 3.04 c 13.09 -10.44 12.6 -11.48 21.23 -25.49 .77 1.36 1.64 2.79 2.67 4.25 1.52 -2.33 2.88 -8.26 4.09 -16.28 .88 -1.71 1.67 -3.34 2.37 -4.87 1.63 3.12 3.48 6.45 5.41 9.86 2.42 -2.36 4.93 -4.64 7.6 -6.7 l -1.61 -2.32 c 2.97 -5.94 1.49 -21.78 1.49 -21.78 s 6.44 6.93 10.9 15.84 c 4.96 -7.93 0 -43.08 -10.4 -66.37 2.97 4.95 15.35 11.41 15.35 11.41 s 2.48 -7.44 -10.39 -23.78 c 13.91 5.78 23.71 11.95 30.59 17.14 1.89 -2.37 4.03 -4.57 6.37 -6.57 -16.91 -11.81 -33.04 -18.83 -41.92 -22.46 -.04 -2.12 .22 -4.2 .61 -6.25 5.33 -.13 13.1 -.39 23.69 -.9 -4.17 -7.16 -8.7 -13.24 -13.38 -18.71 12.92 -15.06 33.32 -25.32 38.6 -27.63 7.93 -3.48 4.95 -12.38 13.87 -25.26 8.91 -12.88 29.7 -21.79 43.57 -18.81 0 0 26.99 15.35 36.57 3.65 9.59 -11.71 -13.83 12.24 -22.89 -15.97 -9.05 -28.21 -30.86 -48.97 -52.16 -56.96 -21.29 -7.98 -49.49 10.63 -39.92 37.79 4.17 11.84 5.26 21.38 3.96 29.82 -64.71 -23.07 -102.13 -3.99 -127.68 17.19 -2.63 -8.59 -.56 -19.33 7.13 -40.09 10.66 -28.75 2.66 -70.27 -13.85 -86.76 -4.26 9.05 -9.59 9.57 -10.11 24.49 -3.72 -3.72 -5.86 -20.24 -11.19 -29.82 0 0 -4.26 5.33 -2.66 17.03 0 0 -4.26 -13.85 -17.57 -23.95 0 0 -.54 9.57 2.13 18.63 -33.52 -30.86 -45.75 -36.19 -55.34 -37.25 0 0 6.39 8.52 7.46 15.44 0 0 -9.59 -6.92 -23.42 -6.92 0 0 5.33 6.38 6.39 10.64 s -1.07 6.4 -5.33 3.74 -13.85 -7.99 -22.35 -7.99 c 0 0 0 2.67 6.92 9.59 -21.82 -.54 -26.63 7.45 -37.8 17.57 7.98 2.14 9.59 12.24 25.55 15.44 0 0 -1.6 4.26 -6.39 5.86 58.02 18.11 66.55 34.59 60.7 42.05 -5.85 7.45 -19.71 -5.32 -34.08 -18.1 s -28.21 -7.98 -28.21 -7.98 0 0 3.72 6.38 c 0 0 -9.05 -11.71 -22.89 -11.71 0 0 -3.73 4.26 4.78 13.31 -22.9 -11.18 -43.64 -7.98 -52.17 -1.6 3.19 0 20.23 9.59 26.08 18.63 0 0 -14.37 -1.06 -18.11 1.07 0 0 -2.66 6.39 9.59 10.65 -12.24 -2.12 -35.13 4.26 -36.2 10.64 0 0 3.2 6.92 11.71 6.92 0 0 -22.37 5.33 -29.82 15.97 9.57 8.52 18.11 18.11 35.66 14.91 0 0 -13.3 6.92 -11.71 11.71 7.45 4.8 17.03 5.32 28.74 1.07 0 0 -8.52 10.1 -2.12 12.76 63.88 -16.5 79.84 -7.45 76.13 2.14 -3.72 9.59 -11.18 14.9 -27.15 8.52 s -21.3 -9.59 -28.75 -7.45 c 0 0 -1.6 7.45 9.58 19.15 -21.83 -13.31 -40.46 -5.86 -40.46 -5.86 s -3.19 5.33 10.12 9.05 c -7.45 -2.14 -20.23 3.72 -20.23 3.72 1.6 3.72 11.71 7.46 11.71 7.46 -36.73 6.38 -43.12 25.03 -43.12 25.03 s 7.98 5.86 22.89 7.45 c -12.78 .54 -27.15 19.17 -27.15 19.17 s 5.32 7.45 17.04 6.92 c -4.25 -.54 -21.83 8.52 -23.97 15.97 0 0 -2.12 4.26 14.91 2.66 -12.77 4.26 -25.02 23.44 -26.08 36.2 6.92 4.78 31.4 5.86 42.06 -3.2 0 0 -2.13 7.98 -2.67 11.18 0 0 16.5 0 24.48 -10.64 0 0 -1.06 9.05 -1.06 13.31 0 0 18.1 -2.14 28.21 -11.18 0 0 -4.8 13.84 -1.6 20.75 18.1 -1.07 35.14 -13.3 40.46 -27.68 0 0 1.6 5.33 1.6 13.31 0 0 10.1 -3.2 12.24 -15.44 .06 -.02 .06 9.55 3.26 13.29 z m 256.47 -191.74 c -2.95 6.12 -7.37 11.82 -13.19 17.66 -7.6 7.6 -16.17 16.09 -23.51 26.66 -34.31 -25.07 -71.9 -21.37 -81.08 -28.22 24.41 -20.67 57.59 -37.75 117.78 -16.1 z" fill="#fff"/></svg>