<svg enable-background="new 0 0 960 1080" height="1080" viewBox="0 0 960 1080" width="960" xmlns="http://www.w3.org/2000/svg"><path d="m 836.16 803.04 l 6.72 -38.4 -20.16 -22.08 6.72 -36.48 -24.96 -27.84 6.72 -41.28 -24.96 -28.8 10.56 -29.76 -24.96 -25.92 13.44 -29.76 -28.8 -19.2 8.64 -33.6 -25.92 -17.28 v -31.68 l -24.96 -7.68 -1.92 -31.68 s -17.28 -.96 -16.32 -.96 -6.72 -29.76 -6.72 -29.76 l -26.88 -5.76 -4.8 -22.08 -24 -5.76 -4.8 -23.04 -24.96 -1.92 -18.24 -22.08 -21.12 5.76 -7.68 -16.32 -23.04 5.76 -12.48 -17.28 -14.4 9.6 -10.56 -15.36 -17.28 9.6 -8.64 -13.44 -15.36 7.68 -10.56 -12.48 -9.6 10.56 -7.68 -13.44 -8.64 12.48 -16.32 -14.4 -10.56 14.4 -9.6 -12.48 -7.68 12.48 -12.48 -9.6 s -10.56 9.6 -13.44 8.64 c 0 14.4 0 32.64 -.96 52.8 -1.92 30.72 -7.68 56.64 -26.88 78.72 -14.4 18.24 -27.84 37.44 -53.76 45.12 -8.64 2.88 -18.24 4.8 -22.08 1.92 s 2.88 -4.8 14.4 -5.76 37.44 -15.36 59.52 -48.96 c 21.12 -33.6 18.24 -72.96 20.16 -95.04 .96 -10.56 -2.88 -32.64 -5.76 -48 -.96 -1.92 -2.88 -3.84 -3.84 -5.76 -1.92 0 -7.68 0 -8.64 -1.92 -9.6 -12.48 -22.08 -8.64 -33.6 -6.72 -20.16 1.92 -37.44 12.48 -52.8 24.96 -3.84 2.88 -9.6 4.8 -14.4 5.76 -1.92 0 -6.72 .96 -12.48 1.92 -11.52 -6.72 -26.88 -4.8 -33.6 3.84 -.96 0 -10.56 -4.8 -23.04 4.8 s -23.04 21.12 -35.52 30.72 c -8.64 6.72 -25.92 9.6 -13.44 21.12 l 93.12 32.64 c 2.88 .96 8.64 3.84 11.52 5.76 9.6 5.76 18.24 10.56 25.92 20.16 7.68 10.56 11.52 24.96 11.52 24.96 s 3.84 7.68 -1.92 9.6 -1.92 -2.88 -3.84 -9.6 c -3.84 -12.48 -3.84 -16.32 -16.32 -27.84 -7.68 -7.68 -16.32 -12.48 -26.88 -16.32 -6.72 -2.88 -69.12 -27.84 -86.4 -34.56 -2.88 -.96 -6.72 -.96 -9.6 0 -19.2 6.72 -3.84 9.6 -4.8 18.24 -1.92 3.84 .96 9.6 3.84 13.44 9.6 11.52 19.2 24 29.76 33.6 17.28 16.32 35.52 32.64 54.72 46.08 23.04 16.32 47.04 31.68 72 46.08 7.68 4.8 18.24 7.68 26.88 7.68 24 0 46.08 6.72 67.2 19.2 0 0 .96 0 .96 .96 .96 .96 2.88 1.92 4.8 1.92 5.76 .96 13.44 1.92 15.36 4.8 2.88 2.88 3.84 4.8 6.72 3.84 s 5.76 -3.84 7.68 -1.92 7.68 6.72 10.56 5.76 4.8 -4.8 9.6 -1.92 5.76 4.8 10.56 2.88 c 3.84 -1.92 .96 -1.92 4.8 -1.92 5.76 .96 10.56 5.76 15.36 3.84 3.84 -1.92 3.84 -.96 7.68 .96 s -1.92 0 -4.8 0 -5.76 1.92 -8.64 .96 -6.72 -4.8 -9.6 -3.84 -5.76 3.84 -8.64 2.88 -6.72 -5.76 -10.56 -3.84 -4.8 4.8 -7.68 2.88 -6.72 -5.76 -9.6 -5.76 -4.8 4.8 -8.64 2.88 c -4.8 -.96 -4.8 -5.76 -10.56 -6.72 h -7.68 c -1.92 0 -3.84 .96 -5.76 2.88 -.96 0 -.96 .96 -1.92 .96 -5.76 2.88 -11.52 4.8 -17.28 8.64 -9.6 5.76 -18.24 7.68 -26.88 3.84 -6.72 -4.8 -18.24 -15.36 -24 -21.12 -6.72 -5.76 -20.16 -10.56 -24.96 -11.52 s -9.6 0 -10.56 3.84 1.92 4.8 1.92 4.8 -.96 -5.76 1.92 -5.76 c 3.84 0 3.84 .96 3.84 .96 2.88 .96 9.6 1.92 16.32 6.72 2.88 1.92 7.68 5.76 9.6 8.64 .96 .96 0 1.92 -.96 1.92 -10.56 -2.88 -19.2 -2.88 -27.84 0 -3.84 .96 -9.6 2.88 -7.68 5.76 .96 .96 27.84 4.8 27.84 6.72 0 .96 -26.88 -4.8 -28.8 -4.8 -2.88 .96 0 6.72 2.88 8.64 10.56 10.56 21.12 20.16 32.64 30.72 17.28 16.32 35.52 27.84 59.52 11.52 .96 0 .96 -.96 1.92 -.96 1.92 -2.88 3.84 -4.8 6.72 -3.84 5.76 .96 31.68 -1.92 65.28 4.8 33.6 5.76 107.52 .96 120.96 -16.32 4.8 -5.76 -1.92 -28.8 -10.56 -43.2 -10.56 -17.28 -94.08 -54.72 -99.84 -63.36 -5.76 -7.68 15.36 -10.56 17.28 -9.6 5.76 .96 6.72 3.84 1.92 3.84 -5.76 0 -10.56 1.92 -7.68 6.72 s 63.36 37.44 74.88 45.12 19.2 16.32 24 26.88 7.68 25.92 1.92 36.48 c -7.68 12.48 -70.08 19.2 -100.8 17.28 -10.56 -.96 -35.52 -2.88 -45.12 -3.84 -2.88 0 -4.8 1.92 -3.84 4.8 2.88 11.52 30.72 27.84 54.72 39.36 40.32 16.32 66.24 25.92 100.8 27.84 37.44 1.92 53.76 -7.68 67.2 -.96 1.92 .96 4.8 2.88 8.64 5.76 -9.6 3.84 -20.16 4.8 -26.88 8.64 s -18.24 10.56 -22.08 23.04 c -2.88 9.6 -2.88 26.88 2.88 41.28 4.8 12.48 15.36 34.56 18.24 40.32 s 23.04 40.32 33.6 43.2 20.16 0 10.56 -21.12 c -7.68 21.12 -19.2 .96 -19.2 .96 8.64 -6.72 -2.88 -22.08 -3.84 -31.68 -1.92 -12.48 -3.84 -43.2 1.92 -47.04 s 88.32 11.52 101.76 5.76 c 13.44 -4.8 27.84 -27.84 27.84 -27.84 l 38.4 96 c -14.4 -29.76 -49.92 -45.12 -82.56 -33.6 -43.2 15.36 -53.76 65.28 -55.68 78.72 -1.41 9.16 2.87 34.35 5.25 47.11 -.3 .63 -.46 1.38 -.44 2.25 .21 8.36 3.2 15.53 8.74 21.75 4.89 5.49 11.52 8.68 17.89 12.09 .4 .46 .81 .91 1.25 1.35 1.8 1.78 3.85 3.28 6.02 4.63 10.1 11.24 25.52 17.3 41.34 16.08 l 1.56 1.31 41.28 -10.56 c 3.84 -.96 7.68 -.96 11.52 -.96 l 17.28 1.92 16.32 -23.04 19.2 -9.6 6.72 -19.2 12.47 -33.61 z m -663.36 -551.04 c .96 0 1.92 2.88 1.92 4.8 -.96 1.92 -1.92 3.84 -3.84 3.84 -.96 0 -1.92 -2.88 -1.92 -4.8 .96 -2.88 1.92 -3.84 3.84 -3.84 z m 39.36 26.88 c -7.68 10.56 -23.04 13.44 -34.56 5.76 -5.76 -3.84 -8.64 -9.6 -9.6 -15.36 1.92 3.84 4.8 7.68 8.64 10.56 11.52 7.68 26.88 5.76 34.56 -5.76 3.84 -5.76 5.76 -12.48 3.84 -19.2 2.88 7.68 2.88 16.32 -2.88 24 z m 568.32 557.76 c -.96 2.88 -3.84 7.68 -7.68 11.52 -8.64 7.68 -23.04 13.44 -40.32 14.4 -16.32 0 -25.92 -5.76 -31.68 -11.52 -8.64 -7.68 -19.2 -23.04 -19.2 -39.36 0 -25.92 10.56 -36.48 27.84 -43.2 16.32 -6.72 46.08 -.96 49.92 18.24 4.8 19.2 -.96 36.48 -18.24 43.2 -16.32 7.68 -30.72 -1.92 -34.56 -15.36 -4.8 -20.16 15.36 -22.08 15.36 -22.08 -7.68 2.88 -11.52 10.56 -8.64 18.24 2.88 9.6 13.44 13.44 22.08 10.56 11.52 -3.84 17.28 -16.32 13.44 -27.84 -4.8 -14.4 -21.12 -22.08 -34.56 -16.32 -18.24 6.72 -26.88 25.92 -21.12 44.16 7.68 22.08 32.64 33.6 54.72 25.92 20.16 -7.68 33.6 -25.92 35.52 -46.08 1.92 14.4 1.92 25.92 -2.88 35.52 z" fill="#fff"/></svg>