<svg enable-background="new 0 0 802.05896 370.2250977" viewBox="0 0 802.06 370.23" xmlns="http://www.w3.org/2000/svg"><g enable-background="new" fill="#fff"><path d="m 126.35 11.43 c -2.54 46.16 -4.4 91.84 -5.59 137.04 -1.19 45.21 -1.78 90.65 -1.78 136.33 v 35.81 c 0 11.98 .16 23.91 .47 35.8 h -51.16 c .79 -29.02 1.38 -58.25 1.78 -87.67 s .59 -59.13 .59 -89.1 c 0 -17.92 -.08 -35.6 -.24 -53.05 s -.4 -34.89 -.71 -52.35 l -37.83 33.31 -26.88 -35.69 c 12.85 -10.47 25.22 -20.94 37.12 -31.4 11.9 -10.47 23.24 -21.09 34.03 -31.88 z"/><path d="m 405.43 184.88 c 0 31.09 -2.3 57.98 -6.9 80.66 -4.6 22.69 -10.87 41.4 -18.8 56.15 s -17.21 25.69 -27.84 32.83 -21.97 10.71 -34.02 10.71 c -12.06 0 -23.4 -3.45 -34.02 -10.35 -10.63 -6.9 -19.95 -17.64 -27.96 -32.24 -8.01 -14.59 -14.32 -33.27 -18.91 -56.03 -4.6 -22.75 -6.9 -50 -6.9 -81.73 0 -33.15 2.3 -61.15 6.9 -83.99 s 10.9 -41.36 18.91 -55.56 c 8.01 -14.19 17.33 -24.46 27.96 -30.81 10.63 -6.34 21.97 -9.52 34.02 -9.52 s 23.4 3.45 34.02 10.35 c 10.63 6.9 19.91 17.61 27.84 32.12 s 14.2 33.16 18.8 55.92 6.9 49.93 6.9 81.49 z m -54.48 0 c 0 -23.79 -.87 -44.25 -2.62 -61.38 -1.74 -17.13 -4.08 -31.2 -7.02 -42.23 -2.94 -11.02 -6.42 -19.15 -10.47 -24.39 -4.04 -5.23 -8.37 -7.85 -12.96 -7.85 -4.6 0 -8.97 2.38 -13.09 7.14 s -7.73 12.49 -10.82 23.2 c -3.1 10.71 -5.52 24.71 -7.26 42 -1.75 17.29 -2.62 38.46 -2.62 63.53 0 23.95 .87 44.54 2.62 61.74 1.74 17.21 4.16 31.38 7.26 42.47 3.09 11.1 6.7 19.27 10.82 24.51 4.12 5.23 8.48 7.85 13.09 7.85 4.6 0 8.92 -2.69 12.96 -8.08 s 7.53 -13.68 10.47 -24.86 c 2.93 -11.18 5.27 -25.38 7.02 -42.59 1.74 -17.24 2.62 -37.59 2.62 -61.06 z"/><path d="m 601.25 184.88 c 0 31.09 -2.3 57.98 -6.9 80.66 -4.6 22.69 -10.86 41.4 -18.79 56.15 -7.94 14.75 -17.21 25.69 -27.84 32.83 s -21.97 10.71 -34.02 10.71 c -12.06 0 -23.4 -3.45 -34.02 -10.35 -10.63 -6.9 -19.95 -17.64 -27.96 -32.24 -8.01 -14.59 -14.32 -33.27 -18.91 -56.03 -4.6 -22.75 -6.9 -50 -6.9 -81.73 0 -33.15 2.3 -61.15 6.9 -83.99 s 10.9 -41.36 18.91 -55.56 c 8.01 -14.19 17.33 -24.46 27.96 -30.81 10.62 -6.34 21.96 -9.52 34.02 -9.52 12.05 0 23.39 3.45 34.02 10.35 s 19.9 17.61 27.84 32.12 c 7.93 14.51 14.2 33.16 18.79 55.92 s 6.9 49.93 6.9 81.49 z m -54.49 0 c 0 -23.79 -.88 -44.25 -2.62 -61.38 -1.75 -17.13 -4.09 -31.2 -7.02 -42.23 -2.94 -11.02 -6.42 -19.15 -10.47 -24.39 -4.04 -5.23 -8.37 -7.85 -12.96 -7.85 -4.6 0 -8.96 2.38 -13.09 7.14 s -7.73 12.49 -10.83 23.2 c -3.09 10.71 -5.51 24.71 -7.26 42 -1.74 17.29 -2.62 38.46 -2.62 63.53 0 23.95 .87 44.54 2.62 61.74 1.74 17.21 4.16 31.38 7.26 42.47 3.1 11.1 6.7 19.27 10.83 24.51 4.12 5.23 8.48 7.85 13.09 7.85 4.6 0 8.92 -2.69 12.96 -8.08 4.05 -5.39 7.53 -13.68 10.47 -24.86 2.93 -11.18 5.27 -25.38 7.02 -42.59 1.75 -17.24 2.62 -37.59 2.62 -61.06 z"/><path d="m 797.06 184.88 c 0 31.09 -2.3 57.98 -6.9 80.66 -4.6 22.69 -10.87 41.4 -18.8 56.15 -7.94 14.75 -17.22 25.69 -27.84 32.83 -10.63 7.14 -21.97 10.71 -34.02 10.71 -12.06 0 -23.4 -3.45 -34.03 -10.35 s -19.95 -17.64 -27.96 -32.24 c -8.01 -14.59 -14.32 -33.27 -18.91 -56.03 -4.6 -22.75 -6.9 -50 -6.9 -81.73 0 -33.15 2.3 -61.15 6.9 -83.99 s 10.9 -41.36 18.91 -55.56 c 8.01 -14.19 17.33 -24.46 27.96 -30.81 10.63 -6.34 21.97 -9.52 34.03 -9.52 12.05 0 23.39 3.45 34.02 10.35 s 19.9 17.61 27.84 32.12 c 7.93 14.51 14.19 33.16 18.8 55.92 4.6 22.76 6.9 49.93 6.9 81.49 z m -54.49 0 c 0 -23.79 -.87 -44.25 -2.62 -61.38 s -4.09 -31.2 -7.02 -42.23 c -2.93 -11.02 -6.42 -19.15 -10.46 -24.39 -4.05 -5.23 -8.37 -7.85 -12.96 -7.85 -4.6 0 -8.97 2.38 -13.09 7.14 -4.13 4.76 -7.73 12.49 -10.83 23.2 s -5.51 24.71 -7.26 42 -2.62 38.46 -2.62 63.53 c 0 23.95 .87 44.54 2.62 61.74 1.74 17.21 4.16 31.38 7.26 42.47 3.09 11.1 6.7 19.27 10.83 24.51 4.12 5.23 8.48 7.85 13.09 7.85 4.6 0 8.92 -2.69 12.96 -8.08 s 7.53 -13.68 10.46 -24.86 5.27 -25.38 7.02 -42.59 c 1.75 -17.24 2.62 -37.59 2.62 -61.06 z"/></g></svg>