<svg enable-background="new 0 0 960.9052734 960.9037476" viewBox="0 0 960.91 960.9" xmlns="http://www.w3.org/2000/svg"><g fill="#fff"><ellipse cx="480.47" cy="480.42" rx="19.44" ry="665.33" transform="matrix(.7072086 -.707005 .707005 .7072086 -198.98 480.36)"/><path d="m 954.27 954.27 c -4.6 4.59 -8.95 8.94 -154.11 -127.98 -91.47 -86.29 -211.09 -203.05 -336.78 -328.75 -125.72 -125.72 -242.46 -245.32 -328.75 -336.8 -136.94 -145.17 -132.59 -149.52 -127.99 -154.1 4.6 -4.6 8.94 -8.95 154.1 127.98 91.48 86.29 211.09 203.03 336.82 328.75 125.69 125.71 242.46 245.31 328.73 336.79 136.93 145.15 132.57 149.51 127.98 154.11 z m -930.91 -930.9 c 39.27 49.94 204.27 225.06 446.7 467.48 242.41 242.41 417.52 407.41 467.47 446.68 -39.25 -49.94 -204.25 -225.04 -446.67 -467.47 -242.45 -242.44 -417.54 -407.43 -467.5 -446.69 z"/></g></svg>