<svg enable-background="new 0 0 841.8889771 1190.5510254" viewBox="0 0 841.89 1190.55" xmlns="http://www.w3.org/2000/svg"><g fill="#fff"><path d="m 402.91 760.63 c -23.68 -12.2 -46.48 -19 -67.92 -22.23 v -59.12 h 16.23 v -42.28 h -32.46 v 16.22 h -14.9 v -16.22 h -32.46 v 16.22 h -14.9 v -16.22 h -32.46 v 42.29 h 16.23 v 66.63 c -15.38 4.8 -28.15 10.49 -37.44 15.37 21.79 100.44 111.13 175.71 218.11 175.71 106.27 0 195.14 -74.3 217.66 -173.76 -119.57 -70.53 -124.12 54.91 -235.69 -2.61 z m -99.14 -23.23 h -32.26 v -30.15 c 0 -8.91 7.21 -16.13 16.13 -16.13 s 16.14 7.21 16.14 16.13 v 30.15 z"/><path d="m 534.99 649.04 c -3.22 -18.13 -15.05 -50.85 -42.02 -67.14 -36.66 -22.12 -87.3 -5.4 -90.23 -.53 -2.94 4.86 5.85 57.47 42.49 79.6 2.98 1.78 6.03 3.3 9.16 4.62 -.43 4.41 -.08 9.21 1.83 13.69 5.67 13.28 22.83 18.65 24.59 17.9 1.54 -.65 7.83 -13.08 5.56 -25.09 14.58 .42 27.93 -2.14 37.09 -4.97 -2.5 40.21 35.17 55.96 35.17 55.96 -2.13 -46.24 43.34 -71.76 43.34 -71.76 -26.69 -18.08 -53.16 -9.38 -66.98 -2.28 z m -72.53 -38.36 c -3.6 5.93 -11.29 7.83 -17.24 4.25 -5.93 -3.57 -7.84 -11.28 -4.24 -17.22 3.58 -5.92 11.29 -7.82 17.21 -4.26 5.92 3.59 7.83 11.31 4.27 17.23 z"/><path d="m 306.04 281.35 c 4.85 -5.18 24.7 -25.76 43.28 -35.85 l -90.95 -85.07 c -5.58 -5.23 -27.17 8.77 -48.19 31.26 -21.05 22.49 -33.55 44.96 -27.98 50.18 l 90.91 85.03 c 7.65 -17.05 23.57 -35.54 32.93 -45.55 z"/><path d="m 400.67 280.98 l -29.72 -27.8 c -6.49 -6.08 -31.62 10.22 -56.11 36.4 -24.49 26.19 -39.07 52.34 -32.57 58.43 l 29.71 27.79 c 6.5 6.08 31.62 -10.21 56.12 -36.4 24.48 -26.18 39.07 -52.34 32.57 -58.42 z m -69.65 72.6 c -3.92 4.2 -8.32 6.43 -9.84 5.01 s .43 -5.97 4.33 -10.15 c 3.9 -4.17 8.3 -6.42 9.83 -4.99 1.53 1.42 -.41 5.96 -4.32 10.13 z m 29.9 -20.9 c -3.91 4.17 -8.32 6.42 -9.83 4.99 -1.52 -1.42 .42 -5.96 4.32 -10.13 3.91 -4.18 8.31 -6.42 9.83 -4.99 1.52 1.4 -.42 5.95 -4.32 10.13 z m 18.87 -31.22 c -3.9 4.17 -8.32 6.42 -9.83 4.98 -1.52 -1.42 .41 -5.96 4.33 -10.14 3.9 -4.16 8.31 -6.41 9.82 -4.99 1.53 1.42 -.41 5.96 -4.32 10.15 z"/><path d="m 381.82 363.91 c 6.9 0 12.48 5.59 12.48 12.48 s -5.58 12.48 -12.48 12.48 c -6.89 0 -12.47 -5.59 -12.47 -12.48 s 5.58 -12.48 12.47 -12.48 z"/><path d="m 625.81 499.36 l -8.39 -7.49 c -1.4 -1.24 -3.06 -2.23 -4.85 -2.88 -28.07 -10.18 -105.09 -17.01 -191.63 -17.01 -87.88 .01 -165.34 7.01 -192.74 17.39 -1.85 .71 -3.55 1.78 -4.99 3.15 l -7.7 7.34 c -56.25 55.46 -87.23 129.46 -87.23 208.39 0 161.35 131.29 292.63 292.65 292.63 s 292.65 -131.28 292.65 -292.63 c .01 -78.93 -30.95 -152.93 -87.77 -208.89 z m -42.78 12.84 c -24.47 5.93 -78.35 12.54 -162.08 12.54 -83.68 0 -137.54 -6.6 -162.03 -12.53 24.51 -4.44 64.9 -8.3 115.58 -9.8 .08 6.84 5.6 12.37 12.46 12.37 6.89 0 12.48 -5.6 12.48 -12.48 0 -.13 -.07 -.24 -.08 -.4 7.06 -.08 14.22 -.16 21.59 -.16 75.03 -.01 131.4 4.85 162.08 10.46 z m -162.08 458.93 c -144.95 0 -262.89 -117.93 -262.89 -262.89 0 -70.47 27.54 -136.55 77.34 -186.11 30.61 18.91 135.96 21.22 185.54 21.22 49.56 0 154.9 -2.32 185.54 -21.22 49.85 49.7 77.35 115.69 77.35 186.1 .01 144.96 -117.91 262.9 -262.88 262.9 z"/><path d="m 360.16 401.65 c 6.89 0 12.48 5.59 12.48 12.48 0 6.9 -5.59 12.48 -12.48 12.48 s -12.48 -5.58 -12.48 -12.48 c 0 -6.89 5.59 -12.48 12.48 -12.48 z"/><path d="m 406.78 408.54 c 6.89 0 12.48 5.59 12.48 12.48 s -5.59 12.48 -12.48 12.48 -12.48 -5.59 -12.48 -12.48 5.59 -12.48 12.48 -12.48 z"/><path d="m 360.16 556.83 c 6.89 0 12.48 5.59 12.48 12.48 s -5.59 12.48 -12.48 12.48 -12.48 -5.59 -12.48 -12.48 5.59 -12.48 12.48 -12.48 z"/></g></svg>