<svg enable-background="new 0 0 544.7739868 741.5702515" viewBox="0 0 544.77 741.57" xmlns="http://www.w3.org/2000/svg"><g fill="#fff"><path d="m 272.31 307.61 s 1.09 -27.09 15.18 -26 c 0 0 0 -23.84 -33.59 -10.84 0 0 -14.08 16.25 18.41 36.84 z"/><path d="m 415.35 158.08 s -50.31 1.68 -85.48 26.69 c 1.91 -9.96 8.05 -19.93 15.94 -27.36 45.68 -28.43 111.82 -40.38 193.07 26.69 0 0 -43.36 -161.47 -237.3 -33.59 0 0 71.51 -101.85 94.26 -100.77 0 0 24.67 6.5 25.33 22.76 0 0 9.33 -37.93 -29.66 -55.27 0 0 -53.09 -32.51 -79.12 35.76 0 0 -5.19 62.84 -43.22 97.51 0 0 -43.46 -83.43 -47.79 -115.95 0 0 -23.6 -83.44 -99.59 32.52 0 0 23.72 -27.09 44.32 -10.84 0 0 60.67 68.27 69.35 89.94 0 0 -163.62 -120.28 -229.73 41.18 .01 0 73.59 -95.72 185.95 -31.38 6.63 6.98 11.3 14.89 14.86 23.34 -10.93 -7.53 -24.84 -13.29 -42.6 -15.8 0 0 -98.61 -20.86 -92.1 82.76 0 0 50 -104.12 114.52 -34.86 0 0 -73.34 -16.47 -78.75 42.04 0 0 11.62 -36.27 65.12 -15.59 .31 .17 .65 .3 1.02 .4 4.42 1.75 9.12 3.88 14.12 6.45 2.88 4.29 5.17 8.85 7.08 13.59 -14.32 -5.9 -32.29 -10.27 -54.85 -12.02 0 0 -31.42 16.26 -11.93 50.18 0 0 18.43 -34.51 39.02 -29.55 0 0 46.59 9.3 30.34 74.3 .01 0 35.11 6.51 53.32 -6.48 0 0 .02 -.23 .03 -.65 13.71 -1.12 27.91 -.35 41.52 -2.55 6.96 5.75 20.23 15.1 33.01 15.1 0 0 29.25 -87.76 57.42 -80.18 0 0 37.94 30.94 35.76 39.85 0 0 9.75 -51.78 -8.67 -58.27 0 0 -19.1 -5.25 -44.15 2.42 4.69 -6.59 10.06 -13.18 17.47 -14.02 2.71 -.31 4.27 -2.32 4.67 -4.45 13.1 -2.12 31.22 -.73 44.78 17.15 0 0 2.15 -60.69 -72.61 -34.69 0 0 31.42 -63.89 84.52 -6.48 l 32.52 44.41 c .01 -.02 9.77 -80.2 -61.77 -94.29 z"/><path d="m 250.87 735.63 h 36.62 s -1.96 -19.49 -18.31 -33.59 c 0 -.01 -14.86 2.15 -18.31 33.59 z"/><path d="m 218.15 735.63 s -24.94 -60.67 -39.02 -16.8 z"/><path d="m 121.82 663.03 l -10.95 -34.69 s 32.52 11.91 31.43 26 c -.01 .01 -5.18 15.19 -20.48 8.69 z"/><path d="m 179.13 702.89 s -35.76 8.9 -41.18 -20.36 v -17.89 s 46.6 .11 41.18 38.25 z"/><path d="m 234.95 724.8 s -13 -2.46 -26.01 -22.77 v -17.62 s 9.75 -23.01 13.01 -23.01 c 0 0 22.23 4.07 28.98 17.89 v 24.88 c -.01 .01 -11.78 22.19 -15.98 20.63 z"/><path d="m 186.37 678.47 s 10.36 1.64 22.55 -17.06 v -19.49 l -22.55 -21.95 -27.6 26.53 z"/><path d="m 116.29 613.46 l 32.52 -30.9 s 32.29 20.61 21.13 42.27 c 0 0 -4.69 3.78 -19.5 10.56 -.02 0 -17.09 -.81 -34.15 -21.93 z"/><path d="m 100.84 602.09 v -46.34 l 33.33 23.17 c -.01 -.01 -6.51 23.97 -33.33 23.17 z"/><path d="m 104.91 529.75 s -6.78 -31.69 5.95 -44.72 l 15.73 17.89 s -5.43 19.52 -21.68 26.83 z"/><path d="m 110.86 550.05 s -7.07 -10.53 10.95 -27.61 c 0 0 21.83 -18.69 57.31 13.82 l -36.81 31.69 z"/><path d="m 155.29 578.92 l 31.08 25.58 s 29.87 -21.95 27.44 -36.57 c 0 0 -8.98 -23.23 -29.19 -21.12 z"/><path d="m 198.64 609 l 24.92 26.4 s 26.17 .85 27.31 -33.31 c 0 0 -11.06 -18.14 -26.12 -19.52 z"/><path d="m 235.75 649.23 l 29.26 -29.26 30.08 29.26 -29.67 29.27 z"/><path d="m 302.38 724.89 s -14.61 -5.8 -24.38 -22.84 c 0 0 -2.42 -33.31 24.38 -43.88 0 0 26.84 16.32 26.84 33.38 z"/><path d="m 318.65 728.86 s 31.56 -9.76 35.7 -16.26 c 0 .01 -21.08 -33.31 -35.7 16.26 z"/><path d="m 348.71 691.53 l 32.51 -30.13 s 13.83 10.66 0 31.75 c 0 0 -12.99 17.9 -32.51 -1.62 z"/><path d="m 404.78 664.64 l 16.4 -36.29 s -27.68 15.18 -33.82 24.13 c .01 0 2.79 12.14 17.42 12.16 z"/><path d="m 427.55 602.09 v -46.34 s -22.98 12.08 -23.27 19.86 c 0 0 8.63 20.82 23.27 26.48 z"/><path d="m 358.48 609 l 28.89 -26.43 33.82 31.7 s -17.12 19.49 -33.82 21.13 c 0 -.01 -24.03 2.45 -28.89 -26.4 z"/><path d="m 314.59 646.5 l 27.63 -26.53 s 34.1 17.8 20.33 44.67 l -22.34 13.85 z"/><path d="m 291.83 628.34 s 10.55 14.89 26.82 0 c 0 0 16.25 -14.88 6.48 -31.14 l -15.08 -14.63 -27.98 19.52 s -3.24 19.66 9.76 26.25 z"/><path d="m 340.21 604.51 l -25.62 -28.91 s 12.87 -29.62 39.76 -23.92 l 23.61 23.92 c .01 .01 -9.71 18.36 -37.75 28.91 z"/><path d="m 358.48 542.52 l 19.48 21.36 s 13.6 15.44 26.31 -3.25 l 16.91 -18.12 s -7.46 -31.44 -26.15 -29.83 c .01 0 -39.75 13.27 -36.55 29.84 z"/><path d="m 404.28 502.92 s 14.33 -19.49 23.27 -17.89 v 44.72 z"/><path d="m 408.04 427.34 s -30.89 -8.1 -36.56 -25.99 l 6.49 -17.88 s 10.36 -1.64 26.31 28.45 z"/><path d="m 235.75 575.61 l 15.17 16.72 s 13.98 17.08 27.05 0 l 17.12 -16.72 s -7.12 -26.63 -25.9 -28.92 c -.01 0 -21.24 3.24 -33.44 28.92 z"/><path d="m 281.71 541.25 l 13.38 14.5 s 20.33 5.82 34.13 -7.23 l 7.27 -13.87 -31.52 -27.23 c -.01 -.01 -36.63 19.31 -23.26 33.83 z"/><path d="m 224.75 563.07 s 26.45 -13.74 31.33 -30.84 c 0 0 -26.89 -27.67 -31.33 -24.81 l -32.08 27.73 c .01 -.02 25.95 17.36 32.08 27.92 z"/><path d="m 151.23 500.5 s 19.72 -24.38 32.61 -22.77 c 0 0 29.44 8.13 30.1 17.08 0 0 -14.28 23.25 -27.58 34.93 .01 .01 -42.89 -20.77 -35.13 -29.24 z"/><path d="m 137.95 490.76 l -23.11 -13.11 s -7.21 -24.3 11.74 -34.86 c 0 0 4.32 -10.57 40.09 23.98 .01 -.01 -5.7 25.02 -28.72 23.99 z"/><path d="m 126.59 427.34 s 30.77 -8.92 32.18 -33.32 l -3.48 -10.57 s -36.27 -5.68 -28.7 43.89 z"/><path d="m 166.68 391.6 l -11.38 -21.13 s 10.3 -36.58 43.35 -17.89 l 10.29 6.5 z"/><path d="m 172.25 401.35 s -22.6 27.63 -29.93 30.88 c 0 0 15.22 23.57 29.93 26.02 0 0 24.48 -8.94 36.67 -28.44 0 0 -20.96 -30.54 -36.67 -28.46 z"/><path d="m 186.37 391.6 l 27.58 30.06 36.97 -30.06 s -12.72 -30.08 -41.99 -17.08 c -.01 0 -17.13 5.7 -22.56 17.08 z"/><path d="m 235.75 363.15 l 29.67 24.38 42.22 -24.38 s -18.86 -31.7 -38.45 -24.38 c -.01 0 -29.37 0 -33.44 24.38 z"/><path d="m 323.52 362.61 l 42.29 28.99 s 25.15 -23.58 5.65 -35.77 c .01 0 -22.75 -20.59 -47.94 6.78 z"/><path d="m 277.97 396.48 l 36.62 -27.06 s 15.43 2.67 31.7 22.18 c 0 0 -8.95 20.32 -22.77 25.17 h -15.88 s -27.31 -13.01 -29.67 -20.29 z"/><path d="m 323.52 429.73 s 26.7 -18.65 30.83 -24.31 l 35.48 24.31 s -23.58 23.62 -33.15 25.25 c 0 0 -33.16 -12.29 -33.16 -25.25 z"/><path d="m 365.81 458.24 s 21.09 -25.19 46.29 -3.26 l 9.08 22.67 s -22.08 21.83 -38.34 7.3 c .01 0 -22.24 -15.03 -17.03 -26.71 z"/><path d="m 224.75 427.34 l 40.67 -30.86 35.35 30.86 s -21.94 26.01 -35.35 24.39 c 0 -.01 -26.48 -6.51 -40.67 -24.39 z"/><path d="m 274.75 466.02 l 32.89 -35.85 s 37.82 27.25 38.65 31.3 c 0 0 -18.76 16.26 -34.16 23.56 -.01 0 -13.8 7.47 -37.38 -19.01 z"/><path d="m 318.65 507.18 s -4.87 -18.03 0 -16.41 c 0 0 30.16 -22.81 32.55 -22.81 0 0 29.22 14.64 26.75 30.08 0 0 -12.06 26.81 -26.75 31.69 .01 .02 -23.61 -6.08 -32.55 -22.55 z"/><path d="m 269.18 529.75 l -33.44 -30.9 s 22.15 -25.33 33.44 -21.21 c 0 0 16.95 -5.61 21.84 21.21 z"/><path d="m 218.15 436.31 l -31.78 29.72 s 26.62 20.47 38 18.92 c 0 0 26.01 -4.8 31.71 -16.97 0 0 -.82 -16.11 -8.94 -16.17 z"/></g></svg>