<svg enable-background="new 0 0 850.8910522 500.4116821" viewBox="0 0 850.89 500.41" xmlns="http://www.w3.org/2000/svg"><path d="m 578.26 479.19 c 53.02 19.15 80.02 15.55 132.69 16.22 20 0 57.94 -4.92 75.64 -17.77 48.65 -35.27 48.01 -85.56 36.43 -120.85 45.06 -57.78 28.81 -209.69 -96.44 -294.44 -134.87 -91.26 -228.16 -56.79 -318.93 -11.91 -82.65 40.85 -114.08 38.79 -114.08 38.79 0 -44.11 -47.08 -23.29 -47.08 -23.29 s -7.6 -17.7 -28.9 -17.49 c -42.59 .4 -62.44 90.97 -62.44 90.97 -94.82 28.4 -141.47 137.36 -141.47 137.36 s -12.71 9.99 -7.37 19.59 c 4.81 8.6 17.23 4.04 17.23 4.04 111.31 48.37 195.47 -.51 195.47 -.51 14.58 5.51 30.43 -2.28 30.43 -2.28 25.62 31.33 53.04 41.7 81.79 43.04 5.19 14.66 7.97 49.67 -23.93 39.75 -45.31 -14.09 -69.93 -4.82 -80.9 8.2 -7.35 8.73 -5.1 17.93 27.6 17.27 h 81.62 s 36.61 2.54 38.27 -22.23 c 1.6 -23.95 20.43 -51.27 48.8 -54.29 44.13 -6.63 90.01 -6.93 136.29 33.68 .17 .14 .32 .26 .48 .4 10.15 9.21 8.04 16.34 -.05 18.65 -3.7 .8 -8.38 .51 -14.22 -1.31 -45.32 -14.08 -69.94 -4.81 -80.91 8.21 -7.35 8.73 -5.09 17.58 27.61 16.91 h 118.24 c 78.05 38.94 167.25 7.54 195.11 -31.06 .69 3.1 1.31 6.33 1.76 9.69 4.09 31.23 -8.65 59.97 -34.74 78.9 -53.23 27.96 -218.65 -4.02 -194 15.76" fill="#fff"/></svg>