<svg viewBox="0 0 300 300" xmlns="http://www.w3.org/2000/svg"><g fill="#fff"><path d="m 136.11 57.9 a 7.68 7.68 0 0 1 -1.55 .85 10.67 10.67 0 0 1 -1.58 .57 c -1.06 .31 -2.1 .67 -3.16 .94 s -2.13 .52 -3.2 .79 a 12.9 12.9 0 0 1 -3.4 .38 1.28 1.28 0 0 1 -1.22 -1.33 1.26 1.26 0 0 1 .37 -.85 9.61 9.61 0 0 1 3 -2 26.06 26.06 0 0 1 3.35 -1.16 25.77 25.77 0 0 1 3.49 -.6 9.63 9.63 0 0 1 1.78 -.05 6.56 6.56 0 0 1 1.82 .34 1.17 1.17 0 0 1 .74 1.48 v .01 a 1.2 1.2 0 0 1 -.43 .58 z" opacity=".15"/><path d="m 134.56 68.68 c -.24 2.17 -1.21 3.84 -2.17 3.73 s -1.53 -2 -1.29 -4.11 1.22 -3.84 2.17 -3.73 1.54 2 1.29 4.11" opacity=".15"/><path d="m 153.13 69.74 c -.25 2.16 -1.22 3.83 -2.17 3.73 s -1.54 -2 -1.3 -4.12 1.22 -3.83 2.18 -3.73 1.53 1.95 1.29 4.12" opacity=".15"/><path d="m 150.23 57.93 a 6.87 6.87 0 0 1 1.8 -.41 9.73 9.73 0 0 1 1.79 0 23.04 23.04 0 0 1 3.51 .45 26.49 26.49 0 0 1 3.4 1 9.84 9.84 0 0 1 3.11 1.82 1.28 1.28 0 0 1 .08 1.81 1.29 1.29 0 0 1 -.83 .41 13.09 13.09 0 0 1 -3.41 -.22 c -1.08 -.23 -2.16 -.41 -3.23 -.65 s -2.13 -.53 -3.2 -.8 a 11.91 11.91 0 0 1 -1.6 -.5 7.63 7.63 0 0 1 -1.65 -.84 1.19 1.19 0 0 1 .22 -2.09" opacity=".15"/><path d="m 282.83 14.6 a 49.33 49.33 0 0 1 -61 76.73 l -16.06 3.72 2.74 2.54 16.05 -3.72 a 49.33 49.33 0 0 0 58.27 -79.27 z" opacity=".3"/><path d="m 236.64 97.48 a 49.14 49.14 0 0 1 -14.79 -6.15 l -16.06 3.72 3.51 -14.92 a 49.32 49.32 0 1 1 27.34 17.35 z"/><path d="m 100.44 67.45 a 3 3 0 0 1 1.83 -.29 c .58 .09 1.2 .35 1.72 .07 a 1.76 1.76 0 0 0 .66 -.85 21.38 21.38 0 0 0 2.08 -9.07 32.63 32.63 0 0 1 1.37 -9 c 1.08 -3.75 2.72 -9.17 6.17 -11.51 15.16 -10.25 33.14 19.59 50.92 7.06 a 2.5 2.5 0 0 1 3.72 1.31 c 1.68 4.77 6 16.26 6.63 29.88 a 2.68 2.68 0 0 1 -.12 .66 c 1.52 -4.79 6.92 -22.46 6.51 -31.14 -.44 -9.53 -5 -12.54 -8.06 -13.48 a 4.69 4.69 0 0 1 -3.29 -3.7 27.86 27.86 0 0 0 -3 -8.66 c -7.72 -12.88 -25.08 -22.73 -39.29 -15.26 -8 4.36 -8.63 15.5 -15.84 21 a 16.37 16.37 0 0 1 -7.71 2.19 c -10 .36 -15.61 12.15 -8.35 23 2.04 3.02 3.07 9.99 4.05 17.79 z" opacity=".3"/><path d="m 115.37 296.86 c -13.27 -23.65 -18.17 -51 -22.38 -77.77 -.44 -2.84 -.89 -5.72 -1.6 -8.5 a 15.75 15.75 0 0 1 -8.62 2.91 c -2.67 30 -3.91 60.71 .69 70.87 .36 .65 .74 1.29 1.12 1.92 a 5.43 5.43 0 0 0 .59 .65 c 3.71 3.4 15 9.8 31.44 12.09 -.41 -.72 -.83 -1.44 -1.24 -2.17 z" opacity=".5"/><path d="m 197.16 218.45 c -1.15 8.65 -2.45 18.56 -3.7 30 l -.12 1.09 c -.88 8.11 1.79 17.55 1.87 25.29 12.47 -9.94 24.86 -29.15 24.78 -59.4 0 -3.6 -.16 -6.84 -.4 -9.81 a 73.06 73.06 0 0 1 -22.43 12.83 z" opacity=".8"/><path d="m 42.83 182.27 l -3.83 2.79 c -1.86 1.35 -3.73 2.68 -5.65 3.94 -.43 -3.25 -1.26 -13.95 -1.26 -13.95 v -2.48 c -.22 -9.43 4 -39.83 4.08 -40.44 .83 -5.13 21.74 -15.46 22.74 -19.22 .57 -2.11 -3.32 -2.19 -5.3 -1.82 a 17.61 17.61 0 0 0 -4.72 1.74 c -1.38 .71 -3.22 2 -4.86 1.72 -5.8 -1.07 2.37 -14.91 3.33 -17.64 1.11 -3.17 4.45 -11.74 -.55 -13.59 -4.4 -1.63 -6.39 14.19 -8.5 16.5 -.17 -1.91 -.77 -5.45 -.43 -7.33 .39 -2.2 .81 -4.41 1 -6.63 .28 -2.68 .65 -8.65 -3.13 -9.35 -5.78 -1.07 -4.62 18.9 -6.33 22.06 -.69 -1.59 -.48 -3.93 -.61 -5.63 -.19 -2.38 -.32 -4.78 -.61 -7.15 -.31 -2.52 -.52 -6.84 -3.68 -7.42 -6.17 -1.15 -1.59 19.28 -1.77 22 -3.21 -2.69 -4 -7.37 -7 -10.17 -.86 -.81 -4 -2.4 -4.83 -.75 -.93 2 0 3.77 1.13 5.4 3.83 5.5 4.35 13.86 4 20.54 s 2.7 11.17 1.81 18 c -.15 1.13 -8.92 35.82 -12.19 52.47 a 192.55 192.55 0 0 0 -3.67 26.6 19.17 19.17 0 0 0 1.43 8.68 c 1.87 8.77 11.38 15 27 10.5 7.86 -1.9 15.26 -5.52 22.39 -9.41 a 114.01 114.01 0 0 0 10.42 -6.34 c 2.8 -1.87 5.3 -3.66 7.93 -5.49 -13.78 -6.4 -23.56 -20.15 -28.34 -28.13 z" opacity=".8"/><path d="m 206.08 159.85 c -7.32 -12.35 -16.8 -15.7 -26.17 -17.53 -7.6 -1.49 -4.79 -1.53 -22.86 -1.34 -9.91 -1.33 -29 -7.11 -41.78 -22.86 2.6 4.28 4.5 8.58 4.32 13.5 0 1.2 -1.31 8.81 -6.06 11.93 -6.53 .53 -18.54 1 -22.66 1.16 h -.18 c -22 .61 -51.19 31.44 -51.19 31.44 s 14.81 31.78 39.91 37 a 15.05 15.05 0 0 0 3.36 .31 l -.45 5.25 .45 -5.25 a 15.75 15.75 0 0 0 8.62 -2.91 c .71 2.78 1.16 5.66 1.6 8.5 4.21 26.8 9.11 54.12 22.38 77.77 .41 .73 .83 1.45 1.24 2.17 -1 -.13 -1.93 -.29 -2.87 -.45 a 87.6 87.6 0 0 0 14.79 1.3 c 21.82 .1 52 -1.05 63.72 -14.65 6.71 -7.78 -.26 -23.31 1.09 -35.71 l .12 -1.09 c 1.25 -11.42 2.55 -21.33 3.7 -30 a 73.9 73.9 0 0 0 30.32 -20.51 s -8.96 -17.05 -21.4 -38.03 z"/><path d="m 125.68 94.26 a 19.92 19.92 0 0 0 5.14 4.9 16.16 16.16 0 0 0 6.5 2.54 20.69 20.69 0 0 0 7.06 -.08 29.04 29.04 0 0 0 6.84 -2.23 .62 .62 0 0 1 .62 1.06 19.44 19.44 0 0 1 -7.06 3.2 20.52 20.52 0 0 1 -7.85 .25 17.85 17.85 0 0 1 -7.27 -3.07 14.7 14.7 0 0 1 -4.95 -6 .54 .54 0 0 1 .28 -.71 l .02 -.01 a .53 .53 0 0 1 .65 .17 z" opacity=".15"/><path d="m 171.05 51.52 c -.33 -1.06 -.66 -2.05 -1 -2.94 -.46 -1.33 -.87 -2.46 -1.18 -3.36 a 2.57 2.57 0 0 0 -2.1 -1.7 2.27 2.27 0 0 0 -1.62 .39 c -.31 .22 -.61 .42 -.91 .61 l -.29 .17 -.63 .36 -.34 .18 -.58 .29 -.35 .16 -.6 .25 -.31 .12 c -.23 .09 -.46 .16 -.68 .23 l -.23 .08 a 15.8 15.8 0 0 1 -1.86 .44 h -.21 c -.24 0 -.48 .08 -.72 .1 h -3 a 17.82 17.82 0 0 1 -1.94 -.23 c -.31 -.05 -.61 -.11 -.92 -.18 h -.1 l -.86 -.2 h -.09 l -.92 -.26 c -3.66 4.9 -7 12.32 -5.05 23.94 .66 4 1.6 8 1.88 12.11 .12 1.78 -.08 3.85 -1.54 4.87 s -3.54 .6 -4.9 1.7 a 4.87 4.87 0 0 0 -1.39 2.53 34 34 0 0 0 -.85 10.51 20.65 20.65 0 0 0 6.61 -.13 29.04 29.04 0 0 0 6.84 -2.23 .62 .62 0 0 1 .62 1.06 19.44 19.44 0 0 1 -7.06 3.2 20.79 20.79 0 0 1 -6.86 .37 38.27 38.27 0 0 0 1.12 6.42 97.77 97.77 0 0 0 3.48 9.17 s -17.11 2.86 -33.4 -10.84 l .06 .11 c 1 1.5 1.94 2.95 2.91 4.38 1.11 1.65 2.19 3.26 3.17 4.87 15.38 18.95 39.91 23.48 46.55 23.17 l 1.34 -.14 c -.48 -.09 -.92 -.19 -1.35 -.31 h -.05 q -.62 -.18 -1.17 -.39 h -.09 a 10.02 10.02 0 0 1 -2 -1 h -.07 c -.28 -.18 -.55 -.38 -.81 -.58 a 8.74 8.74 0 0 1 -1.32 -1.33 l -.05 -.06 a 9.29 9.29 0 0 1 -.94 -1.46 v -.06 q -.19 -.36 -.36 -.75 v -.06 a 13.42 13.42 0 0 1 -.54 -1.53 v -.11 c -.07 -.25 -.13 -.49 -.19 -.74 v -.05 c -.06 -.24 -.11 -.47 -.16 -.71 v -.09 a 4.19 4.19 0 0 0 -.13 -.69 v -.15 l -.12 -.65 -.24 -1.52 q -.12 -.85 -.24 -1.83 c 0 -.32 -.07 -.65 -.1 -1 -.06 -.67 -.1 -1.37 -.12 -2.07 v -1.05 a 19.67 19.67 0 0 1 .13 -2 7.38 7.38 0 0 1 1.98 -4.91 c 7.16 -6.15 13.17 -13.11 16.56 -23.25 .18 -.57 .4 -1.39 .64 -2.37 .1 -.39 .2 -.81 .3 -1.25 l .15 -.67 c .1 -.45 .21 -.93 .31 -1.41 .06 -.24 .11 -.49 .16 -.73 1.11 -5.18 2.22 -11.21 2.22 -11.21 a 94.47 94.47 0 0 0 -4.49 -23.59 z m -17.92 18.22 c -.25 2.16 -1.22 3.83 -2.17 3.73 s -1.54 -2 -1.3 -4.12 1.22 -3.83 2.18 -3.73 1.53 1.95 1.29 4.12 z m 10.79 -7.17 a 1.29 1.29 0 0 1 -.83 .41 13.09 13.09 0 0 1 -3.41 -.22 c -1.08 -.23 -2.16 -.41 -3.23 -.65 s -2.13 -.53 -3.2 -.8 a 11.96 11.96 0 0 1 -1.6 -.5 7.57 7.57 0 0 1 -1.65 -.81 1.19 1.19 0 0 1 .22 -2.09 6.87 6.87 0 0 1 1.8 -.41 9.73 9.73 0 0 1 1.79 0 23.04 23.04 0 0 1 3.51 .45 26.49 26.49 0 0 1 3.4 1 9.84 9.84 0 0 1 3.11 1.82 1.28 1.28 0 0 1 .09 1.8 z" opacity=".8"/><path d="m 149.62 46.09 c -12.48 -3.67 -24.62 -16.49 -35.35 -9.24 -3.45 2.34 -5.09 7.76 -6.17 11.51 a 32.63 32.63 0 0 0 -1.37 9 21.38 21.38 0 0 1 -2.08 9.07 1.76 1.76 0 0 1 -.66 .85 c -.52 .28 -1.14 0 -1.72 -.07 -3.11 -.47 -4.83 3.6 -5.24 6 -.79 4.63 0 8.62 3.86 11.51 a 5.57 5.57 0 0 1 1.44 1.56 c -.77 11.59 4.76 19.6 9.77 27 -1 -1.43 -1.95 -2.88 -2.91 -4.38 l -.06 -.11 c 16.29 13.7 33.4 10.84 33.4 10.84 a 97.77 97.77 0 0 1 -3.48 -9.17 38.27 38.27 0 0 1 -1.12 -6.42 5.8 5.8 0 0 1 -1 -.12 17.85 17.85 0 0 1 -7.27 -3.07 14.7 14.7 0 0 1 -4.95 -6 .54 .54 0 0 1 .28 -.71 l .02 -.01 a .53 .53 0 0 1 .65 .17 19.92 19.92 0 0 0 5.14 4.9 16.16 16.16 0 0 0 6.5 2.54 h .45 a 34 34 0 0 1 .85 -10.51 4.87 4.87 0 0 1 1.4 -2.52 c 1.36 -1.1 3.47 -.7 4.9 -1.7 s 1.66 -3.09 1.54 -4.87 c -.28 -4.08 -1.22 -8.08 -1.88 -12.11 -1.91 -11.62 1.39 -19 5.05 -23.94 z m -15.06 22.59 c -.24 2.17 -1.21 3.84 -2.17 3.73 s -1.53 -2 -1.29 -4.11 1.22 -3.84 2.17 -3.73 1.54 1.95 1.29 4.11 z m 2 -11.37 a 1.2 1.2 0 0 1 -.43 .58 7.68 7.68 0 0 1 -1.55 .85 10.67 10.67 0 0 1 -1.58 .57 c -1.06 .31 -2.1 .67 -3.16 .94 s -2.13 .52 -3.2 .79 a 12.9 12.9 0 0 1 -3.4 .38 1.28 1.28 0 0 1 -1.24 -1.32 1.26 1.26 0 0 1 .37 -.85 9.61 9.61 0 0 1 3 -2 26.06 26.06 0 0 1 3.35 -1.16 25.77 25.77 0 0 1 3.49 -.6 9.63 9.63 0 0 1 1.78 -.05 6.56 6.56 0 0 1 1.82 .34 1.17 1.17 0 0 1 .77 1.46 c 0 .03 -.01 .05 -.02 .07 z"/></g></svg>