<svg enable-background="new 0 0 320 360" height="360" viewBox="0 0 320 360" width="320" xmlns="http://www.w3.org/2000/svg"><g fill="#fff"><path d="m 110.98 117.58 l -.92 88.99 c 0 16.14 .39 24.6 1.15 25.36 2.61 -.15 5.19 -.22 7.72 -.22 s 3.96 .15 4.27 .46 c .77 3.23 1.15 7.92 1.15 14.06 0 6.16 -.39 9.22 -1.15 9.22 h -5.77 c -14.45 0 -27.36 .85 -38.73 2.53 l -6.23 .93 c -.77 -.62 -1.15 -4.42 -1.15 -11.42 0 -6.99 .46 -10.95 1.39 -11.87 l 9.45 -1.62 c -.15 -2.15 -.23 -6.15 -.23 -11.99 l .92 -65.02 c 0 -13.68 -.54 -21.05 -1.61 -22.13 -.16 -.15 -.85 -.23 -2.07 -.23 -1.24 0 -3.5 .27 -6.8 .81 -3.31 .54 -6.3 1.12 -9 1.73 -2.69 .61 -4.15 .92 -4.38 .92 s -.34 -2.92 -.34 -8.76 .76 -9.53 2.3 -11.07 c 1.54 -1.53 9.26 -4.88 23.17 -10.03 13.91 -5.14 22.4 -7.72 25.48 -7.72 .46 0 .69 .08 .69 .23 .46 .47 .69 6.08 .69 16.84 z"/><path d="m 253.34 129.57 c 5.15 8.14 9.11 16.98 11.88 26.51 s 4.14 20.17 4.14 31.93 -2 22.75 -5.99 32.97 c -4 10.23 -9.3 17.94 -15.91 23.17 -12.91 10.3 -27.43 15.44 -43.58 15.44 -21.98 0 -39.03 -7.76 -51.17 -23.28 -4.31 -5.38 -7.81 -12.53 -10.5 -21.44 -2.68 -8.91 -4.03 -19.45 -4.03 -31.59 s 2.31 -24.33 6.92 -36.54 c 4.61 -12.22 12.06 -22.71 22.35 -31.47 10.3 -8.76 22.44 -13.14 36.43 -13.14 10.61 0 20.22 2.53 28.82 7.61 8.62 5.08 15.49 11.68 20.64 19.83 z m -75.38 93.83 c 6.07 8.45 14.71 12.68 25.93 12.68 s 19.87 -4.23 25.94 -12.68 9.11 -21.21 9.11 -38.28 c 0 -17.05 -3.34 -31.12 -10.03 -42.19 s -15.03 -16.6 -25.02 -16.6 -18.32 5.53 -25.01 16.6 -10.03 25.13 -10.03 42.19 c 0 17.07 3.03 29.83 9.11 38.28 z"/></g></svg>