<svg enable-background="new 0 0 90 90" viewBox="0 0 90 90" xmlns="http://www.w3.org/2000/svg"><path d="m 82.84 39.78 c .39 .74 .64 1.62 .75 2.64 .05 .45 .07 1.25 .07 2.41 0 .26 -.03 .59 -.09 .99 -.02 .46 -.09 1.12 -.21 1.98 -.08 .59 -.14 1.04 -.17 1.35 .02 .33 .07 .58 .15 .74 .08 .18 .37 .55 .88 1.13 .27 .28 .75 .5 1.45 .64 .82 .16 1.3 .27 1.44 .35 .44 .23 .81 .56 1.11 1 .17 .45 .28 .83 .35 1.15 0 .02 .04 .28 .1 .77 .1 .58 .22 1.11 .37 1.59 .08 .25 .17 .48 .26 .69 -.07 .02 -.15 .03 -.23 .03 -1.36 0 -2.42 -.56 -3.18 -1.68 -.17 -.26 -.4 -.68 -.68 -1.27 -.07 -.13 -.12 -.24 -.17 -.34 -.01 -.02 -.01 -.03 -.01 -.04 -.02 -.33 -.37 -.8 -1.06 -1.4 -.82 -.72 -1.26 -1.13 -1.33 -1.24 -.3 -.46 -.5 -.91 -.61 -1.35 -.04 -.19 -.07 -.42 -.09 -.66 0 -.03 0 -.06 0 -.08 0 -.08 -.01 -.17 -.02 -.25 -.01 -.09 -.01 -.18 -.01 -.26 0 -.36 .05 -.92 .15 -1.67 .04 -.3 .07 -.56 .09 -.79 .07 -.46 .12 -.94 .15 -1.44 -.06 -.8 -.21 -1.59 -.46 -2.37 -.61 -1.92 -1.65 -2.87 -3.12 -2.87 -.27 0 -.53 .06 -.78 .16 .16 1.49 .25 2.3 .25 2.46 0 .62 -.18 1.57 -.53 2.87 -.35 1.28 -.53 2.24 -.53 2.87 0 1.16 .47 2.34 1.4 3.53 .56 .7 .89 1.12 .97 1.26 .29 .45 .44 .88 .44 1.29 s -.5 1.7 -1.51 3.87 c -.51 1.1 -1.06 2.24 -1.66 3.44 -.37 .79 -.57 1.65 -.6 2.58 -.02 .52 -.01 1.19 .02 2 -.02 .62 -.22 1.05 -.58 1.3 -.44 .3 -1.24 .46 -2.41 .46 -.76 0 -1.51 -.06 -2.25 -.18 -.94 -.16 -1.41 -.36 -1.41 -.62 0 -.56 .28 -1.39 .84 -2.47 .32 -.62 .93 -1.68 1.84 -3.17 .71 -1.19 1.38 -2.38 2 -3.58 .01 -.07 .02 -.15 .04 -.22 .01 -.1 .02 -.2 .02 -.3 0 -.45 -.21 -.85 -.64 -1.22 -.24 -.21 -.72 -.51 -1.45 -.9 -.3 -.16 -.56 -.31 -.79 -.44 -.1 .29 -.23 .57 -.39 .85 -.32 .52 -.86 1.12 -1.61 1.8 -.9 .77 -1.58 1.38 -2.04 1.83 -.8 .78 -1.43 1.58 -1.88 2.38 -.65 1.15 -1.15 2.29 -1.5 3.45 -.18 .61 -.37 1.32 -.57 2.13 -.19 .53 -.51 .89 -.94 1.08 -.48 .19 -1.34 .29 -2.57 .29 h -1.79 c -.89 -.04 -1.33 -.17 -1.33 -.4 0 -.66 .43 -1.61 1.28 -2.84 .59 -.84 1.53 -2.01 2.82 -3.49 1.07 -1.22 1.84 -2.12 2.33 -2.69 .04 -.05 .08 -.09 .12 -.14 .17 -.2 .29 -.35 .37 -.46 .18 -.22 .33 -.42 .47 -.62 -.25 -1.99 -1.26 -3.29 -3.03 -3.88 -.98 -.33 -2.6 -.49 -4.85 -.49 -.49 0 -1.47 .17 -2.95 .52 -1.39 .35 -2.1 .5 -2.14 .44 -.7 .24 -1.24 .42 -1.61 .54 -.99 .31 -1.72 .47 -2.18 .47 -.56 0 -1.16 -.09 -1.81 -.28 s -1.13 -.28 -1.46 -.28 c -.1 0 -.23 .05 -.4 .15 -1.69 2.63 -3.18 4.83 -4.47 6.58 .1 .27 .23 .51 .4 .69 .32 .37 .8 .59 1.45 .66 .35 .04 .83 .07 1.45 .1 .44 .1 .66 .37 .66 .83 0 .4 -.16 1.37 -.49 2.91 -.35 1.64 -.61 2.46 -.77 2.46 -.65 0 -1.7 -.87 -3.14 -2.61 -.75 -.9 -1.33 -1.65 -1.73 -2.24 -.4 .46 -.76 .86 -1.09 1.2 -.06 .18 -.12 .36 -.19 .56 -.31 .92 -.63 1.53 -.95 1.83 -1.09 .15 -1.89 .25 -2.4 .32 -.91 .11 -1.68 .17 -2.3 .17 -.61 0 -.91 -.18 -.91 -.53 0 -.14 .76 -1.23 2.28 -3.26 s 2.27 -3.08 2.27 -3.16 c 0 -.16 -.12 -.37 -.36 -.62 -.02 -.02 -.29 -.26 -.79 -.72 -.77 -.7 -1.16 -1.32 -1.16 -1.85 0 -.4 .2 -.82 .59 -1.26 .22 -.24 .65 -.62 1.3 -1.16 .62 -.49 1.06 -.89 1.31 -1.2 .39 -.47 .59 -.93 .59 -1.4 0 -.44 -1.48 -1.35 -4.43 -2.74 -2.89 -1.36 -4.72 -2.04 -5.48 -2.04 -.45 0 -.82 .21 -1.12 .64 -.28 .39 -.42 .85 -.42 1.36 0 .23 .07 .65 .21 1.26 .14 .62 .21 1.07 .21 1.35 0 .64 -.38 1.28 -1.13 1.93 -.76 .65 -1.55 .98 -2.38 .98 -.3 0 -.78 -.39 -1.45 -1.16 -.38 -.39 -.88 -.91 -1.51 -1.57 -1.61 -1.69 -2.64 -2.68 -3.07 -2.99 -.99 -.72 -1.86 -1.63 -2.59 -2.71 -.49 -.73 -.81 -1.39 -.97 -1.97 -.47 .21 -.93 .39 -1.39 .55 -1.42 .49 -2.7 .74 -3.85 .74 -1.11 0 -2.24 -.57 -3.38 -1.71 -1.01 -1 -1.63 -1.95 -1.85 -2.85 .61 .46 1.35 .9 2.25 1.33 1.17 .56 2.12 .85 2.84 .85 s 1.72 -.39 3 -1.15 c .65 -.4 1.3 -.83 1.95 -1.3 v -.06 c -1.85 .19 -3.71 -.29 -5.59 -1.46 -1.87 -1.17 -3.07 -2.6 -3.61 -4.29 1.55 1.22 2.67 2.02 3.34 2.37 1.01 .52 2.13 .78 3.37 .78 .72 0 1.68 -.09 2.9 -.28 .76 -.12 3.98 -1.71 9.66 -4.79 .58 -.32 1.19 -.65 1.83 -1 .01 -.01 .02 -.01 .03 -.03 .93 -.9 1.65 -1.59 2.16 -2.06 3.02 -2.75 5.32 -4.13 6.9 -4.13 .96 0 2 .25 3.12 .76 .67 .31 1.75 .87 3.23 1.69 1.46 .76 2.85 1.32 4.19 1.69 1.84 .52 3.86 .77 6.05 .77 1.21 0 3.57 -.27 7.08 -.81 3.52 -.54 5.71 -.81 6.57 -.81 3.28 0 6.36 .75 9.23 2.24 1.95 1 3.56 2.2 4.82 3.59 3.47 .36 5.74 1.6 6.83 3.63 z" fill="#fff"/></svg>