<svg enable-background="new 0 0 841.889 595.281" height="595.28" viewBox="0 0 841.89 595.28" width="841.89" xmlns="http://www.w3.org/2000/svg"><path d="m 637.63 354.19 c -5.95 -44.05 -58.34 -88.7 -92.27 -113.7 .6 1.19 1.79 2.38 2.38 2.98 9.52 13.1 16.67 23.22 21.43 30.36 13.69 22.62 54.77 89.89 46.43 136.92 4.17 -1.79 9.52 -4.76 13.69 -9.52 8.34 -9.53 11.31 -25.61 8.34 -47.04 z m -100.01 -103.58 c -6.55 -8.93 -14.29 -19.65 -22.03 -30.96 -.6 -.6 -1.19 -1.19 -1.19 -1.79 -20.84 -30.36 -42.86 -65.48 -52.39 -95.84 -11.31 -33.93 -8.93 -62.5 -5.36 -80.36 l -38.1 27.98 -34.53 -33.93 c 8.33 27.98 8.33 57.74 -1.19 86.91 -9.52 30.36 -31.55 65.48 -52.98 95.84 0 .6 -.6 .6 -.6 1.19 -7.74 11.31 -15.48 22.02 -22.62 31.55 -8.93 12.5 -16.67 22.62 -20.83 29.76 -37.5 61.31 -52.39 106.56 -43.46 133.94 5.95 20.24 21.43 36.31 41.67 44.65 s 42.86 7.14 63.1 -2.98 c -9.52 -29.76 -9.52 -64.89 -3.57 -92.86 8.93 -41.67 46.43 -163.7 47.62 -168.47 1.19 -2.98 4.17 -4.76 7.74 -4.17 2.98 1.19 4.76 4.17 4.17 7.74 -.6 1.19 -38.69 126.2 -47.62 167.87 -7.74 36.31 -5.36 85.72 17.86 114.29 11.91 14.29 27.98 22.03 48.81 23.22 20.24 -.6 36.91 -8.33 48.22 -23.22 23.22 -28.57 25.6 -77.98 17.86 -114.29 -8.93 -41.07 -47.03 -166.68 -47.62 -167.87 -1.19 -2.98 .6 -6.55 4.17 -7.74 2.98 -1.19 6.55 .6 7.74 4.17 1.79 4.17 39.88 126.2 48.22 167.87 5.95 27.98 5.95 63.7 -3.57 92.86 20.24 9.52 42.86 10.72 63.1 2.98 20.24 -8.33 35.72 -24.41 41.67 -44.65 8.33 -27.38 -5.95 -72.62 -43.46 -133.94 -4.16 -6.53 -11.9 -17.25 -20.83 -29.75 z m -54.77 305.98 s -28.57 -16.67 -33.34 -46.43 c -3.57 1.19 -7.74 2.38 -11.91 3.57 6.55 34.53 38.1 52.39 39.29 53.58 1.19 .6 1.79 .6 2.98 .6 2.38 0 4.17 -1.19 5.36 -2.98 1.79 -2.98 .6 -6.56 -2.38 -8.34 z m -56.55 -41.08 c -1.19 0 -2.38 0 -3.57 0 -.6 0 -1.79 0 -1.79 0 v 50 c 0 3.57 2.38 5.95 5.95 5.95 s 5.95 -2.98 5.95 -5.95 v -51.19 s -2.98 .6 -4.76 .6 c -.59 0 -1.18 .59 -1.78 .59 z m -57.14 41.08 c -2.98 1.79 -4.17 5.36 -2.38 8.33 1.19 1.79 2.98 2.98 5.36 2.98 1.19 0 1.79 0 2.98 -.6 s 32.15 -19.05 39.29 -52.39 c -4.17 -.6 -8.33 -1.19 -11.91 -2.38 -5.96 27.98 -32.75 43.46 -33.34 44.06 z m -92.87 -282.16 c 4.17 -7.14 11.91 -17.86 21.43 -30.36 1.19 -1.19 1.79 -2.38 2.98 -4.17 -33.93 24.41 -86.91 69.65 -92.86 113.7 -2.98 20.84 0 36.31 8.33 46.43 4.17 4.76 9.52 7.14 13.1 8.93 -6.55 -47.03 33.33 -111.91 47.02 -134.53 z" fill="#fff"/></svg>