<svg enable-background="new 0 0 841.889 595.281" height="595.28" viewBox="0 0 841.89 595.28" width="841.89" xmlns="http://www.w3.org/2000/svg"><path d="m 617.73 239.94 c -25.22 -43.6 -77.18 -91.55 -182.28 -78.27 .29 -10.18 -.38 -20.19 -2.3 -30.15 13.55 3.76 28.03 5.65 42.72 5.65 24.15 0 48.9 -5.07 71.12 -15.17 31.62 -14.39 52.82 -37.03 59.69 -63.77 1.31 -5.08 -.63 -10.45 -4.88 -13.52 -24.39 -17.63 -69.38 -19.83 -114.62 -5.64 -31.56 9.9 -56.41 25.72 -71.58 44.97 -4.57 -8.49 -9.9 -17.17 -16.13 -26.15 -4.01 -5.81 -11.97 -7.25 -17.75 -3.23 -5.8 4.01 -7.25 11.96 -3.23 17.75 22.94 33.17 32.52 60.33 31.41 89.76 -13.43 -1.85 -26.06 -2.76 -37.82 -2.76 -82.39 0 -125.6 42 -147.9 80.56 -45.17 78.1 -34.5 199.48 23.77 270.59 36.12 44.09 85.18 62.09 140.24 52.35 -62.12 -44.1 -90.29 -118.01 -95.64 -177.33 -5.86 -64.85 13.01 -120.12 50.49 -147.85 5.66 -4.2 13.67 -2.99 17.85 2.67 4.19 5.66 2.99 13.65 -2.67 17.85 -29.8 22.06 -45.23 69.97 -40.25 125.05 5.44 60.27 36.67 137.1 107.93 172.54 66.3 22.15 125.95 6.1 168.06 -45.29 58.27 -71.13 68.93 -192.52 23.77 -270.61 z" fill="#fff"/></svg>