<svg enable-background="new 0 0 320 360" height="360" viewBox="0 0 320 360" width="320" xmlns="http://www.w3.org/2000/svg"><path d="m 181.67 298.77 l -66.87 -2.59 c -14.04 0 -24.38 .24 -31.03 .74 -6.65 .49 -10.22 .74 -10.71 .74 -1.24 -.99 -1.85 -7.45 -1.85 -19.4 s .98 -19.27 2.96 -21.98 c 19.45 -18.23 38.91 -38.17 58.37 -59.85 37.92 -42.12 56.89 -70.93 56.89 -86.45 s -11.58 -23.27 -34.73 -23.27 c -18.72 0 -31.53 6.65 -38.42 19.95 -4.93 9.12 -8.38 19.09 -10.35 29.93 -.5 .5 -2.4 .74 -5.73 .74 s -8.01 -.61 -14.04 -1.85 c -6.04 -1.23 -9.55 -2.34 -10.53 -3.33 -.99 -.98 -1.48 -5.73 -1.48 -14.22 0 -8.5 .49 -19.58 1.48 -33.25 .98 -13.67 1.97 -20.93 2.96 -21.8 .98 -.86 5.17 -2.27 12.56 -4.25 20.69 -5.66 43.41 -8.5 68.16 -8.5 s 44.58 5.12 59.48 15.33 c 14.9 10.22 22.35 23.34 22.35 39.35 0 17.49 -11.58 40.77 -34.73 69.82 -18.23 22.91 -38.05 45.94 -59.48 69.09 l -10.35 11.45 c -.74 1.73 6.28 2.59 21.06 2.59 40.39 0 68.72 -2.59 84.97 -7.76 .74 0 1.11 .25 1.11 .74 0 6.41 -1.17 14.59 -3.51 24.57 s -4.93 16.38 -7.76 19.21 c -2.82 2.83 -19.75 4.25 -50.78 4.25 z" fill="#fff"/></svg>