<svg enable-background="new 0 0 320 360" height="360" viewBox="0 0 320 360" width="320" xmlns="http://www.w3.org/2000/svg"><g fill="#fff"><path d="m 112.37 249.13 l -37.19 -1.44 c -7.81 0 -13.56 .14 -17.26 .41 s -5.69 .41 -5.96 .41 c -.69 -.55 -1.03 -4.14 -1.03 -10.79 0 -6.64 .55 -10.72 1.64 -12.23 10.82 -10.13 21.64 -21.23 32.46 -33.28 21.09 -23.42 31.64 -39.45 31.64 -48.08 s -6.44 -12.94 -19.31 -12.94 c -10.41 0 -17.53 3.7 -21.37 11.09 -2.74 5.07 -4.66 10.62 -5.75 16.64 -.28 .28 -1.34 .41 -3.19 .41 s -4.45 -.34 -7.81 -1.03 c -3.36 -.68 -5.31 -1.3 -5.86 -1.85 s -.82 -3.19 -.82 -7.91 c 0 -4.73 .27 -10.89 .82 -18.49 s 1.1 -11.64 1.64 -12.12 c .55 -.48 2.88 -1.26 6.99 -2.36 11.51 -3.15 24.14 -4.73 37.91 -4.73 s 24.79 2.84 33.08 8.53 12.43 12.98 12.43 21.88 c 0 9.73 -6.44 22.67 -19.31 38.83 -10.14 12.74 -21.16 25.55 -33.08 38.42 l -5.75 6.37 c -.41 .96 3.49 1.44 11.71 1.44 22.46 0 38.21 -1.44 47.25 -4.31 .41 0 .62 .14 .62 .41 0 3.56 -.65 8.12 -1.95 13.66 -1.3 5.55 -2.74 9.11 -4.32 10.68 -1.55 1.59 -10.97 2.38 -28.23 2.38 z"/><path d="m 261.84 134.29 c 4.59 7.26 8.12 15.14 10.58 23.63 2.47 8.49 3.7 17.98 3.7 28.45 0 10.48 -1.78 20.27 -5.34 29.38 s -8.29 15.99 -14.18 20.65 c -11.5 9.18 -24.45 13.76 -38.83 13.76 -19.59 0 -34.79 -6.91 -45.61 -20.75 -3.84 -4.79 -6.95 -11.16 -9.35 -19.11 -2.4 -7.94 -3.6 -17.32 -3.6 -28.15 0 -10.82 2.05 -21.67 6.16 -32.56 s 10.75 -20.24 19.93 -28.04 c 9.18 -7.81 20 -11.71 32.46 -11.71 9.45 0 18.01 2.26 25.68 6.78 7.68 4.52 13.81 10.41 18.4 17.67 z m -67.19 83.62 c 5.41 7.53 13.12 11.3 23.11 11.3 10 0 17.7 -3.77 23.11 -11.3 s 8.12 -18.9 8.12 -34.1 -2.98 -27.74 -8.94 -37.6 -13.39 -14.79 -22.29 -14.79 -16.33 4.93 -22.29 14.79 -8.94 22.39 -8.94 37.6 c .01 15.19 2.71 26.56 8.12 34.1 z"/></g></svg>