<svg enable-background="new 0 0 678.0126953 449.8340149" viewBox="0 0 678.01 449.83" xmlns="http://www.w3.org/2000/svg"><path d="m 662.13 5 h -645.75 c -6.42 0 -11.38 5.25 -11.38 11.38 v 251.12 c 0 6.42 5.25 11.38 11.38 11.38 h 58.33 v 162.46 c 0 2.04 2.04 3.5 4.67 3.5 s 4.67 -1.75 4.67 -3.5 v -162.46 h 509.83 v 162.46 c 0 2.04 2.04 3.5 4.67 3.5 s 4.67 -1.75 4.67 -3.5 v -162.46 h 58.33 c 6.42 0 11.38 -5.25 11.38 -11.38 v -251.12 c .86 -6.42 -4.39 -11.38 -10.8 -11.38 z m -378.88 109.67 l -1.46 1.75 -2.04 .58 h -2.33 l -36.75 -7.29 2.63 135.92 -33.83 1.17 2.03 -136.22 -36.75 9.92 h -2.04 l -2.33 -.58 -1.75 -1.46 -.88 -2.04 v -2.33 l .88 -2.34 51.92 -77.58 .88 -.88 .88 -.88 1.17 -.58 .88 -.29 h 2.33 l 1.17 .29 .88 .58 .88 .88 .88 .88 52.75 73.79 .88 2.04 v 2.33 z m 226.04 0 l -1.46 1.75 -2.04 .58 h -2.33 l -36.75 -7.29 2.63 135.92 -33.84 1.16 2.04 -136.21 -36.75 9.92 h -2.04 l -2.33 -.58 -1.75 -1.46 -.88 -2.04 v -2.33 l .88 -2.33 51.92 -77.58 .88 -.88 .88 -.88 1.15 -.59 .88 -.29 h 2.33 l 1.17 .29 .88 .58 .88 .88 .88 .88 52.79 73.79 .88 2.04 v 2.33 z" fill="#fff"/></svg>