<svg enable-background="new 0 0 949.9970703 833.2011719" viewBox="0 0 950 833.2" xmlns="http://www.w3.org/2000/svg"><g fill="#fff"><path d="m 244.4 756.8 c -108.15 -46.2 -239.4 -32.55 -239.4 -32.55 v -287.7 s 80.85 -11.55 144.9 -31.5 c 87.15 -27.3 141.75 -51.45 247.8 -37.8 143.85 18.9 219.45 16.8 219.45 84 0 52.5 -241.5 26.25 -268.8 71.4 -29.4 48.3 78.75 114.45 263.55 110.25 179.55 -4.2 316.05 -120.75 332.85 -25.2 9.45 56.7 -254.1 220.5 -396.9 220.5 -137.55 -1.05 -195.3 -24.15 -303.45 -71.4 z"/><path d="m 820.85 236 c 56.25 0 101.85 45.6 101.85 101.85 s -45.6 101.85 -101.85 101.85 -101.85 -45.6 -101.85 -101.85 45.6 -101.85 101.85 -101.85 z"/><path d="m 618.2 113.15 c 48.13 0 87.15 39.02 87.15 87.15 s -39.02 87.15 -87.15 87.15 -87.15 -39.02 -87.15 -87.15 39.02 -87.15 87.15 -87.15 z"/><path d="m 767.3 5 c 31.31 0 56.7 25.39 56.7 56.7 s -25.39 56.7 -56.7 56.7 -56.7 -25.39 -56.7 -56.7 25.39 -56.7 56.7 -56.7 z"/></g></svg>