<svg viewBox="0 0 300 300" xmlns="http://www.w3.org/2000/svg"><g fill="#fff"><path d="m 132.69 279.28 l -.86 -1.45 -.23 -.37 -1.6 -2.83 c -.07 -.14 -.15 -.27 -.22 -.4 l -.67 -1.17 -.28 -.5 q -1.86 -3.31 -3.71 -6.92 l -.09 -.17 -.77 -1.53 c 0 -.11 -.11 -.23 -.17 -.34 -.18 -.37 -.36 -.75 -.55 -1.13 s -.25 -.51 -.38 -.78 c -.2 -.42 -.4 -.85 -.61 -1.28 -.1 -.22 -.2 -.44 -.31 -.66 a 145.12 145.12 0 0 1 -8 -21.26 v -.07 c -5.67 -19.95 -7.08 -43.51 2.78 -69.45 l -1.08 1.45 c -.36 .49 -.79 1.09 -1.3 1.82 -.21 .3 -.44 .61 -.67 .95 -.29 .53 -.61 1.05 -.93 1.58 q -.61 1 -1.26 2.07 c -1.49 2.36 -3.11 4.7 -4.8 7 a 143.18 143.18 0 0 0 -9 18 c -.48 1.11 -.94 2.23 -1.4 3.36 -.6 1.5 -1.2 3 -1.78 4.51 -1.67 4.39 -3.19 8.77 -4.41 12.79 2 9 4.3 15.67 6.63 27.7 .08 .38 .15 .75 .22 1.12 a 60 60 0 0 0 47.17 47.45 c -1.81 -3.88 -5.61 -9.57 -10 -16.82 -.63 -.86 -1.17 -1.75 -1.72 -2.67 z" opacity=".5"/><path d="m 111.62 64.56 a 2.3 2.3 0 0 0 .69 -.84 c 1.31 -4.35 4.8 -25.45 10.34 -27.95 a 14.89 14.89 0 0 1 5.76 -1.33 q 1 0 1.92 .06 a 13.22 13.22 0 0 1 1.78 0 h .59 a 8.85 8.85 0 0 1 1.24 .13 3.85 3.85 0 0 1 .66 .13 c .41 .07 .8 .13 1.21 .23 .23 .05 .47 .12 .7 .19 .4 .1 .79 .19 1.19 .31 l .7 .24 c .4 .13 .8 .25 1.2 .4 l .69 .26 1.22 .48 .64 .28 1.26 .55 .59 .3 1.32 .63 .48 .25 1.38 .7 .35 .18 1.49 .79 c 2.26 1.22 4.4 2.45 6.32 3.48 h .08 l 1.13 .59 .35 .19 .93 .45 .59 .29 a 7.05 7.05 0 0 0 .69 .27 5.91 5.91 0 0 0 .75 .22 13.73 13.73 0 0 0 5.31 .12 18.94 18.94 0 0 0 2.47 -.55 c .46 -.14 .91 -.29 1.36 -.46 s .94 -.36 1.4 -.58 a 18.85 18.85 0 0 0 3 -1.71 2.85 2.85 0 0 1 .52 -.27 2.62 2.62 0 0 1 .54 -.12 2.49 2.49 0 0 1 1.08 .13 2.65 2.65 0 0 1 1.56 1.58 c .6 1.74 1.56 4.39 2.55 7.71 v .09 l .46 1.58 v .17 c .16 .53 .31 1.09 .46 1.66 a 1.35 1.35 0 0 0 0 .18 q .21 .83 .42 1.68 a .41 .41 0 0 0 .07 .28 l .39 1.7 a 2.33 2.33 0 0 0 .08 .36 c .13 .56 .25 1.14 .36 1.72 l .09 .42 c .11 .57 .22 1.15 .32 1.73 l .09 .5 .27 1.72 .09 .59 c .08 .56 .15 1.14 .22 1.71 l .09 .67 c .06 .55 .12 1.12 .17 1.69 a 2.73 2.73 0 0 0 .07 .75 c 0 .55 .08 1.11 .12 1.67 v .66 .53 a 2.49 2.49 0 0 1 -.13 .66 c 1.54 -4.79 7 -22.37 6.59 -31 -.42 -9.49 -4.9 -12.51 -8 -13.45 a 4.68 4.68 0 0 1 -3.27 -3.69 28.01 28.01 0 0 0 -2.92 -8.65 c -7.7 -12.9 -25 -22.77 -39.15 -15.37 -8 4.32 -8.64 15.42 -15.85 20.87 a 16.38 16.38 0 0 1 -7.68 2.17 c -9.93 .32 -15.59 12.06 -8.39 22.88 2 3 2.54 13.83 3.47 21.39 a 8.53 8.53 0 0 1 1.65 -4.16 3.41 3.41 0 0 1 1.88 -1.04 z" opacity=".3"/><path d="m 75.44 161.28 a 29.92 29.92 0 0 0 4.92 -7.42 c .78 -1.55 1.48 -3.11 2.14 -4.59 1.15 -2.57 2.14 -5.23 3.32 -7.78 a 37 37 0 0 0 -20.55 14.48 c -14.62 20.67 -25.27 37.62 -25.27 37.62 s .92 1.33 2.69 3.42 a 119.79 119.79 0 0 1 9.47 -13 c 1.84 -2.25 3.84 -4.44 5.84 -6.55 4 -4.1 8.3 -7.88 12.58 -11.69 1.66 -1.46 3.33 -2.91 4.86 -4.49 z"/><path d="m 207.12 139 c -10.18 -5.38 -35.5 -7 -35.5 -7 l -5.53 -.1 s -4.22 -.16 -5.14 -.24 a 50.44 50.44 0 0 1 -32.39 -15.66 c -.59 -.63 -1.18 -1.26 -1.75 -1.93 -.22 -.38 -.41 -.75 -.6 -1.12 -.1 -.2 -.19 -.39 -.28 -.59 s -.14 -.28 -.2 -.42 a 29.49 29.49 0 0 1 2.37 14.14 c -.08 1 -2.33 8.72 -12.07 10.9 l -3 .31 .12 .35 a 24.56 24.56 0 0 1 1.39 9.67 l -.06 .43 c .81 .66 1.51 1.22 2.08 1.66 a 9.45 9.45 0 0 0 7.31 1.82 c 3.15 -.28 5.93 -1.34 11.63 3 a 17.4 17.4 0 0 1 4 4.43 9.48 9.48 0 0 1 -10.83 14.21 17.16 17.16 0 0 1 -5.34 -2.71 c -5.7 -4.34 -5.42 -7.3 -6 -10.41 a 9.53 9.53 0 0 0 -3.7 -6.56 l -.53 -.39 a 23.34 23.34 0 0 1 -3.51 5.79 20.5 20.5 0 0 1 -2.08 2.19 5.69 5.69 0 0 1 -1 2.53 c -1.67 2.35 -5.07 2.87 -8.23 3 -1.43 .06 -2.82 0 -4 .05 -12.61 15.39 -16.28 25.47 -21.38 38.25 l -1 2.43 s -1.85 5.55 -3.23 9.9 a 63.93 63.93 0 0 0 12.69 4.3 60.6 60.6 0 0 0 9 1.32 c 1.22 -4 2.74 -8.4 4.41 -12.79 .58 -1.51 1.18 -3 1.78 -4.51 .46 -1.13 .92 -2.25 1.4 -3.36 a 143.24 143.24 0 0 1 9 -18 c 1.69 -2.33 3.31 -4.67 4.8 -7 q .65 -1 1.26 -2.07 c .32 -.53 .64 -1.05 .93 -1.58 .23 -.34 .46 -.65 .67 -.95 .51 -.73 .94 -1.33 1.3 -1.82 l 1.09 -1.47 c -9.86 25.94 -8.45 49.5 -2.78 69.45 v .07 a 145 145 0 0 0 8 21.26 c .11 .22 .21 .44 .31 .66 .21 .43 .41 .86 .61 1.28 .13 .27 .26 .52 .38 .78 s .37 .76 .55 1.13 c .06 .11 .12 .23 .17 .34 l .77 1.53 .09 .17 q 1.84 3.6 3.71 6.92 l .28 .5 .67 1.17 c .07 .13 .15 .26 .22 .4 l 1.65 2.83 .23 .37 .86 1.45 c .55 .92 1.09 1.81 1.63 2.68 4.44 7.25 8.24 12.94 10 16.82 a 59.69 59.69 0 0 0 29.19 -1.4 c 18.47 -5.57 34.38 -11.93 38.72 -16.63 s 3.69 -21.43 .95 -42.62 c -11.36 -5.42 -19.6 -12.42 -25.92 -17 -1.9 1.3 -12.38 7.45 -33.6 2.26 -13.81 -3.39 -23.38 -15.75 -18 -20 -9.62 -5.39 -10.62 -15.59 -10.62 -27.29 h 62.75 c 0 8.14 -.48 15.55 -4 21.13 a 21.38 21.38 0 0 1 2.3 3 107.07 107.07 0 0 0 32.61 8 l .5 .05 1.84 -.83 c 18.92 -8.81 27 -18.75 30.41 -24.64 1.83 -3.2 1.69 -3.18 1.69 -3.18 s -22.59 -28.32 -46.05 -40.66 z"/><path d="m 123.94 107.81 l -.24 -.53 c -.15 -.31 -.31 -.62 -.47 -.93 l -.24 -.46 c -.26 -.47 -.53 -.93 -.84 -1.4 15.44 12.79 29.95 10.16 29.95 10.16 s -2.48 -5.77 -3.31 -8.8 a 32.51 32.51 0 0 1 -.86 -4.46 18.96 18.96 0 0 1 -3.82 -.45 19.36 19.36 0 0 1 -3.64 -1.27 11.3 11.3 0 0 1 -5.47 -5.1 3 3 0 0 1 1.26 -4 3.13 3.13 0 0 1 1.48 -.34 h .58 a 40.18 40.18 0 0 1 5.26 .73 22.74 22.74 0 0 0 2.26 .37 c .65 0 1.28 .08 1.92 .1 v -.13 a 23.59 23.59 0 0 1 .7 -3.83 4.66 4.66 0 0 1 1.35 -2.41 c 1.3 -1 3.32 -.66 4.69 -1.62 s 1.6 -3 1.49 -4.65 c -.26 -3.91 -1.15 -7.74 -1.77 -11.61 -.11 -.63 -.19 -1.26 -.26 -1.87 -.14 -1.22 -.23 -2.39 -.25 -3.51 a 27.69 27.69 0 0 1 2.85 -13.41 c .35 -.69 .72 -1.34 1.1 -2 .19 -.31 .38 -.61 .58 -.9 l -.38 -.19 -.93 -.45 -.35 -.19 -1.13 -.59 h -.08 c -1.92 -1 -4.05 -2.25 -6.32 -3.48 l -1.49 -.79 -.35 -.18 -1.38 -.7 -.48 -.25 -1.35 -.67 -.57 -.27 -1.26 -.55 -.64 -.28 -1.22 -.48 -.69 -.26 c -.4 -.15 -.8 -.27 -1.2 -.4 l -.7 -.24 c -.4 -.12 -.79 -.21 -1.19 -.31 -.23 -.07 -.47 -.14 -.7 -.19 -.41 -.1 -.8 -.16 -1.21 -.23 a 5.13 5.13 0 0 1 -.66 -.13 c -.42 -.06 -.83 -.09 -1.24 -.13 h -.59 a 13.22 13.22 0 0 0 -1.78 0 q -1 -.07 -1.92 -.06 a 14.89 14.89 0 0 0 -5.76 1.33 c -5.54 2.5 -9 23.6 -10.34 27.95 a 2.3 2.3 0 0 1 -.69 .84 3.41 3.41 0 0 0 -1.7 1.13 8.53 8.53 0 0 0 -1.65 4.16 1.62 1.62 0 0 1 0 -.22 18.02 18.02 0 0 0 .18 5.82 9.6 9.6 0 0 0 3.9 5.65 5.09 5.09 0 0 1 1.37 1.5 c .88 8 3.89 14.27 7.1 19.79 1.63 2.8 3.07 5.41 4.25 8 l -.48 -1.13 c -.07 -.18 -.16 -.37 -.23 -.55 s -.3 -.63 -.44 -.93 z m 19.06 -40.91 c -.24 2 -1.15 3.58 -2 3.47 s -1.43 -1.82 -1.2 -3.85 1.15 -3.58 2 -3.47 1.4 1.82 1.2 3.85 z m -11.42 -8.9 a 9.06 9.06 0 0 1 2.83 -1.82 24.14 24.14 0 0 1 3.14 -1.07 23.53 23.53 0 0 1 3.26 -.56 9.32 9.32 0 0 1 1.67 0 6.44 6.44 0 0 1 1.7 .32 1.11 1.11 0 0 1 .28 1.94 7.1 7.1 0 0 1 -1.45 .79 10.47 10.47 0 0 1 -1.48 .53 c -1 .29 -2 .62 -3 .87 s -2 .48 -3 .73 a 12.12 12.12 0 0 1 -3.18 .34 1.2 1.2 0 0 1 -.79 -2 z"/><path d="m 183.52 72.85 c 0 -.56 -.07 -1.12 -.12 -1.67 0 -.25 -.05 -.5 -.07 -.75 -.05 -.57 -.11 -1.14 -.17 -1.69 l -.09 -.67 c -.07 -.57 -.14 -1.15 -.22 -1.71 l -.09 -.59 -.27 -1.72 -.09 -.5 c -.1 -.58 -.21 -1.16 -.32 -1.73 l -.08 -.42 c -.11 -.58 -.23 -1.16 -.36 -1.72 a .59 .59 0 0 0 -.08 -.36 l -.39 -1.7 a .43 .43 0 0 0 -.07 -.28 q -.21 -.86 -.42 -1.68 a 1.35 1.35 0 0 1 0 -.18 c -.15 -.57 -.3 -1.13 -.46 -1.66 v -.17 l -.46 -1.58 v -.09 c -1 -3.32 -1.95 -6 -2.55 -7.71 a 2.65 2.65 0 0 0 -1.56 -1.58 2.49 2.49 0 0 0 -1.08 -.13 2.62 2.62 0 0 0 -.54 .12 2.85 2.85 0 0 0 -.52 .27 18.85 18.85 0 0 1 -3 1.71 c -.46 .22 -.93 .41 -1.4 .58 s -.9 .32 -1.36 .46 a 18.94 18.94 0 0 1 -2.47 .55 13.73 13.73 0 0 1 -5.31 -.12 5.91 5.91 0 0 1 -.75 -.22 7.05 7.05 0 0 1 -.69 -.27 l -.21 -.1 c -.2 .29 -.39 .59 -.58 .9 a 21.9 21.9 0 0 0 -1.1 2 27.69 27.69 0 0 0 -2.85 13.41 31.15 31.15 0 0 0 .25 3.51 c .07 .61 .15 1.24 .26 1.87 .62 3.87 1.51 7.7 1.77 11.61 .11 1.7 -.09 3.68 -1.49 4.65 s -3.39 .57 -4.69 1.62 a 4.66 4.66 0 0 0 -1.35 2.41 23.59 23.59 0 0 0 -.7 3.83 v .13 h .37 a 35.91 35.91 0 0 0 4.82 -.13 23.73 23.73 0 0 1 2.61 -.19 12.56 12.56 0 0 1 2.91 .18 l 1 .24 a 2.61 2.61 0 0 1 1.94 3.14 v .01 a 3.03 3.03 0 0 1 -.33 .78 10.37 10.37 0 0 1 -1.23 1.6 11.43 11.43 0 0 1 -1.38 1.24 12.78 12.78 0 0 1 -3.21 1.73 19.63 19.63 0 0 1 -7.27 1.34 32.36 32.36 0 0 0 .86 4.46 c .83 3 3.31 8.8 3.31 8.8 s -14.51 2.63 -29.95 -10.16 c .31 .47 .58 .93 .84 1.4 l .24 .46 c .16 .31 .32 .62 .47 .93 l .24 .53 c .14 .3 .27 .59 .4 .89 s .16 .37 .23 .55 c .44 1 .87 2.09 1.36 3.12 .09 .2 .18 .39 .28 .59 .19 .37 .38 .74 .6 1.12 .56 .66 1.15 1.28 1.74 1.9 a 50.68 50.68 0 0 0 35.08 15.79 s 1.68 0 2.45 .06 c -2.86 -5.39 -5 -18 -1.85 -20.64 6.87 -5.86 12.65 -12.5 15.91 -22.21 .93 -2.78 2.74 -12 3.41 -15.48 a 1.35 1.35 0 0 1 -.17 -.68 z m -23.21 -4.92 c -.23 2 -1.14 3.58 -2 3.48 s -1.43 -1.83 -1.2 -3.85 1.15 -3.58 2 -3.48 1.44 1.83 1.2 3.85 z m 10.12 -6.67 a 1.16 1.16 0 0 1 -.78 .38 11.86 11.86 0 0 1 -3.19 -.22 c -1 -.21 -2 -.38 -3 -.61 s -2 -.5 -3 -.75 a 13.62 13.62 0 0 1 -1.49 -.47 7.66 7.66 0 0 1 -1.49 -.74 1.1 1.1 0 0 1 -.31 -1.52 v -.01 a 1.06 1.06 0 0 1 .52 -.42 6.45 6.45 0 0 1 1.69 -.38 9.2 9.2 0 0 1 1.66 0 24.3 24.3 0 0 1 3.29 .43 25.07 25.07 0 0 1 3.17 1 9.12 9.12 0 0 1 2.9 1.71 1.2 1.2 0 0 1 .03 1.6 z" opacity=".8"/><path d="m 94.49 131.19 c -7.4 -6.09 -16.62 -13.56 -18.56 -14.63 -2.8 -1.54 -4.84 -1.48 -6 0 s -.66 3.49 1.58 5.78 c 1.61 1.66 10.49 8.22 17.66 13.44 a 16.66 16.66 0 0 1 5.32 -4.59 z" opacity=".15"/><path d="m 139.53 158.66 a 17.4 17.4 0 0 0 -4 -4.43 c -5.7 -4.34 -8.48 -3.28 -11.63 -3 a 9.45 9.45 0 0 1 -7.31 -1.82 c -.57 -.44 -1.27 -1 -2.08 -1.66 -2.51 -2 -6.09 -5 -10.23 -8.49 l -1.13 -.95 -4.75 .49 v .08 a 29.37 29.37 0 0 0 -3.47 .46 l -.56 .12 4.23 3.07 c 6.38 4.42 11.8 8.16 14.64 10.24 l .53 .39 a 9.53 9.53 0 0 1 3.7 6.56 c .56 3.11 .28 6.07 6 10.41 a 17.16 17.16 0 0 0 5.34 2.71 9.48 9.48 0 0 0 10.83 -14.21 z" opacity=".15"/><path d="m 113.14 137.65 l -.12 -.35 c -.8 -2.35 -2 -4.71 -4 -6 a 9.14 9.14 0 0 0 -4.67 -1.23 14.42 14.42 0 0 0 -4.08 .51 1.63 1.63 0 0 0 -.71 -.52 2.85 2.85 0 0 0 -1.45 0 11.26 11.26 0 0 0 -3.59 1.2 16.66 16.66 0 0 0 -5.32 4.59 20.25 20.25 0 0 0 -1.2 1.64 35.86 35.86 0 0 0 -2.14 4 c -1.18 2.55 -2.17 5.21 -3.32 7.78 -.66 1.48 -1.36 3 -2.14 4.59 a 29.92 29.92 0 0 1 -4.92 7.42 c -1.53 1.58 -3.2 3 -4.84 4.49 -4.32 3.81 -8.64 7.59 -12.64 11.69 -2.07 2.11 -4 4.3 -5.91 6.55 a 119.79 119.79 0 0 0 -9.47 13 c -6.62 10.49 -13.53 21.56 -15.24 33.99 a 48.84 48.84 0 0 0 .1 5.84 l .05 3.26 a 21.24 21.24 0 0 0 .27 3 20.17 20.17 0 0 0 4.8 10.39 16.52 16.52 0 0 0 15.06 5.37 c 12.88 -1.63 26 -24.75 30.17 -30.91 .57 -.83 1.87 -3.28 3.57 -6.7 a 63.93 63.93 0 0 1 -12.69 -4.3 c 1.38 -4.35 3.23 -9.9 3.23 -9.9 l 1 -2.43 c 5.06 -12.78 8.77 -22.86 21.49 -38.26 1.15 0 2.54 0 4 -.05 3.16 -.11 6.56 -.63 8.23 -3 a 5.69 5.69 0 0 0 1 -2.53 20.5 20.5 0 0 0 2.08 -2.19 23.34 23.34 0 0 0 3.51 -5.79 c -2.84 -2.08 -8.26 -5.82 -14.64 -10.24 l -4.23 -3.07 .56 -.12 a 29.37 29.37 0 0 1 3.47 -.46 v -.08 l 4.75 -.49 1.13 .95 c 4.14 3.46 7.72 6.45 10.23 8.49 l .06 -.43 a 24.56 24.56 0 0 0 -1.44 -9.7 z m -14.53 11.94 a 1.71 1.71 0 0 0 .12 .15 c .03 .15 -.25 -.06 -.12 -.15 z" opacity=".8"/><path d="m 144.62 202.24 c 22.26 3 27.79 -1.18 27.79 -1.18 .3 -4.7 -6.3 -3.42 -12.08 -5.93 -2.88 -1.24 1.07 -5.89 4.18 -5.53 4.77 .54 8.28 .76 12.87 2.92 a 21.14 21.14 0 0 1 6.48 4.76 c 3.53 -5.58 4 -13 4 -21.13 h -62.74 c 0 11.7 1 21.9 10.62 27.29 1.59 -1.24 4.44 -1.79 8.88 -1.2 z" opacity=".15"/><path d="m 251.52 182.86 c -3.37 5.89 -11.49 15.83 -30.41 24.64 l -1.84 .83 -.32 .14 -.18 -.19 a 107.07 107.07 0 0 1 -32.61 -8 21.38 21.38 0 0 0 -2.3 -3 21.14 21.14 0 0 0 -6.48 -4.76 c -4.59 -2.16 -8.1 -2.38 -12.87 -2.92 -3.11 -.36 -7.06 4.29 -4.18 5.53 5.78 2.51 12.38 1.23 12.08 5.93 0 0 -5.52 4.15 -27.79 1.18 -4.44 -.59 -7.29 0 -8.88 1.2 -5.39 4.24 4.18 16.6 18 20 21.22 5.19 31.7 -1 33.6 -2.26 6.32 4.58 14.56 11.57 25.92 17 12.64 6 17.16 10.14 39.21 6.76 a 78.18 78.18 0 0 0 8.64 -2.72 19.01 19.01 0 0 0 7.93 -4.55 c 14.18 -14.38 -17.52 -54.81 -17.52 -54.81 z" opacity=".8"/><path d="m 141.77 63.05 c -.89 -.11 -1.8 1.45 -2 3.47 s .3 3.75 1.2 3.85 1.8 -1.45 2 -3.47 -.31 -3.75 -1.2 -3.85 z" opacity=".15"/><path d="m 159.12 64.08 c -.89 -.1 -1.81 1.46 -2 3.48 s .3 3.75 1.2 3.85 1.8 -1.45 2 -3.48 -.32 -3.74 -1.2 -3.85 z" opacity=".15"/><path d="m 166.44 61.42 a 11.86 11.86 0 0 0 3.19 .22 1.16 1.16 0 0 0 .78 -.38 1.2 1.2 0 0 0 -.08 -1.69 9.12 9.12 0 0 0 -2.9 -1.71 25.07 25.07 0 0 0 -3.17 -1 24.3 24.3 0 0 0 -3.29 -.43 9.2 9.2 0 0 0 -1.66 0 6.45 6.45 0 0 0 -1.69 .38 1.06 1.06 0 0 0 -.52 .42 1.1 1.1 0 0 0 .3 1.53 h .01 a 7.66 7.66 0 0 0 1.49 .74 13.62 13.62 0 0 0 1.49 .47 c 1 .25 2 .54 3 .75 s 2.04 .49 3.05 .7 z" opacity=".15"/><path d="m 132.37 60.08 a 12.12 12.12 0 0 0 3.18 -.34 c 1 -.25 2 -.46 3 -.73 s 2 -.58 3 -.87 a 10.47 10.47 0 0 0 1.48 -.53 7.1 7.1 0 0 0 1.45 -.79 1.11 1.11 0 0 0 -.28 -1.94 6.44 6.44 0 0 0 -1.7 -.32 9.32 9.32 0 0 0 -1.67 0 23.53 23.53 0 0 0 -3.26 .56 24.14 24.14 0 0 0 -3.14 1.07 9.04 9.04 0 0 0 -2.85 1.81 1.2 1.2 0 0 0 .79 2 z" opacity=".15"/><path d="m 159.41 91.55 l -1 -.24 a 12.56 12.56 0 0 0 -2.91 -.18 23.73 23.73 0 0 0 -2.61 .19 35.91 35.91 0 0 1 -4.82 .13 h -.37 c -.64 0 -1.27 -.09 -1.92 -.1 a 22.74 22.74 0 0 1 -2.26 -.37 40.16 40.16 0 0 0 -5.26 -.73 h -.58 a 3.13 3.13 0 0 0 -1.48 .34 3 3 0 0 0 -1.26 4 11.3 11.3 0 0 0 5.47 5.1 19.36 19.36 0 0 0 3.64 1.27 18.96 18.96 0 0 0 3.82 .45 19.63 19.63 0 0 0 7.27 -1.34 12.78 12.78 0 0 0 3.21 -1.73 11.43 11.43 0 0 0 1.38 -1.24 10.37 10.37 0 0 0 1.23 -1.6 3.03 3.03 0 0 0 .33 -.78 2.61 2.61 0 0 0 -1.88 -3.17 z" opacity=".15"/></g></svg>