<svg enable-background="new 0 0 100 100" viewBox="0 0 100 100" xmlns="http://www.w3.org/2000/svg"><g fill="#fff"><path d="m 69.42 52.61 c -.2 -2.87 .41 -5.02 -.41 -8.6 -.76 -5.04 -3.4 -8.99 -6.43 -13.14 -3.23 -4.42 -8.19 -6.54 -13.16 -8.26 .94 -.94 1.73 -2.02 2.23 -2.96 1.82 -3.4 .26 -7.46 -1.57 -10.57 .99 -1.08 .54 -3.33 -1.37 -3.33 -2.42 0 -2.5 3.6 -.26 3.87 -.02 .56 -.21 1.05 -.69 .63 -.02 -.01 -.03 -.02 -.05 -.03 -.38 -.41 -.51 -.76 -.95 -1.06 .05 -1.01 -.29 -2.05 -1.59 -2.05 -1.79 0 -2.34 1.85 -1.67 3 -1.82 .62 -1.6 3.78 .66 3.78 .68 0 1.17 -.29 1.48 -.71 .01 0 .01 .01 .02 .01 1.64 .91 2.9 2.24 2.95 4.29 .06 2.36 -1.82 3.54 -3.68 4.43 -.02 .01 -.04 .01 -.05 .02 s -.02 .01 -.03 .02 c -.3 .14 -.6 .28 -.89 .41 0 0 0 0 -.01 .01 -.09 .03 -.17 .08 -.25 .16 -.02 .02 -.04 .03 -.06 .05 -2.3 1.1 -4.91 .92 -7.37 1.32 -1.75 .13 -3.56 .37 -5.01 1.18 -2.74 1.54 -4.59 4.14 -6.89 6.22 -.09 .08 -.14 .16 -.17 .25 -1.19 1.28 -1.83 2.96 -1.56 4.71 .29 1.84 2.02 2.61 3.69 2.64 .01 0 .02 .01 .03 .01 1.29 .01 2.61 .07 3.92 .09 4.15 .5 8.92 -.61 12.01 -3.52 1.33 .95 2.56 2.55 2.66 4.18 .07 1.04 -.95 1.94 -1.83 2.27 s -1.66 .07 -2.39 -.44 c .15 -1.06 -.73 -2.23 -1.73 -2.23 -3 0 -3 3.89 0 3.89 0 0 .85 -.19 1.16 -.48 .26 .23 .44 .49 .4 .75 -.05 .35 -.49 .66 -.85 .9 -.08 .02 -.17 .04 -.24 .06 s -.33 .05 -.38 .08 c -.31 -.43 -.4 -.73 -1.7 -.73 -2.56 0 -2.59 3.78 -.1 3.88 -.67 1.15 -.14 3.02 1.6 3.02 1.59 0 2.17 -1.55 1.75 -2.7 .25 -.1 .51 -.21 .77 -.37 2.41 -1 5.44 -2.06 6.53 -4.65 1.43 -3.4 -.31 -6.77 -2.11 -9.67 .16 -.04 .32 -.06 .47 -.08 1.06 2.3 2.98 4.4 2.93 7.05 0 .17 .06 .3 .15 .4 .03 .1 .07 .21 .17 .3 1.3 1.27 2.51 2.65 3.66 4.09 1.1 1.45 2.1 2.97 3 4.54 -1.8 -1.11 -3.66 -2.33 -5.61 -1.34 -1.63 .83 -1.51 2.52 -.8 4.19 .28 1.47 1 2.79 1.96 3.94 .07 .12 .15 .23 .22 .35 -.31 .44 -.91 .61 -1.65 .64 -1.3 -.59 -2.95 -.71 -4.43 -.73 -.25 -.63 -.9 -1.14 -1.9 -1.14 -3 0 -3 3.89 0 3.89 1 0 1.7 -.55 1.94 -1.23 1.94 .18 5.12 .6 5.06 2.07 -.29 .88 -.35 1.93 -.37 2.84 -2.19 .31 -2.07 3.86 .33 3.86 1.9 0 2.37 -2.23 1.39 -3.31 .13 -.44 .26 -.92 .34 -1.41 .03 -.06 .06 -.11 .08 -.18 .47 -2.58 2.58 -1.73 3.9 -.33 -.93 1.1 -.45 3.27 1.42 3.27 2.39 0 2.5 -3.52 .34 -3.86 -.42 -1.04 -.85 -2.06 -1.07 -3.17 0 -.01 -.01 -.02 -.01 -.03 -.06 -.21 -.14 -.42 -.24 -.63 1.02 .92 2.18 1.69 3.42 2.42 2.68 6.95 -.26 15.12 -3.49 21.33 -3.29 6.34 -8.9 9.1 -16.04 8.02 -6.9 -1.04 -12 -3 -14.01 -12.03 -.63 -2.82 -.75 -5.53 -1 -8.35 -.12 -1.34 -.22 -3.63 -1.68 -3.63 -1.31 .01 -1.35 2.49 -1.31 3.01 .58 8.29 1.22 17.47 9.3 22.17 7.55 4.39 17.29 3.53 24.22 -1.49 6.92 -5.01 11.24 -12.91 12.73 -21.21 .87 -4.87 .51 -9.96 .17 -14.86 z m -23.17 -40.61 c -.06 -.04 -.14 -.06 -.21 -.1 -.01 -.4 -.12 -.78 -.33 -1.11 .21 -.1 .43 -.23 .57 -.38 .32 .25 .48 .53 .75 .83 .47 .65 -.13 .87 -.78 .76 z m -9.82 24.94 c -.86 .36 -1.78 .58 -2.73 .7 -.03 -.01 -.05 -.02 -.08 -.03 -.76 -.1 -.49 -1.11 -.12 -1.48 .43 -.43 1.21 -.6 1.78 -.47 .5 .11 .92 .46 1.16 .9 .08 .16 .06 .28 -.01 .38 z m 3.41 9.89 c -.06 .01 -.1 .04 -.15 .07 -.16 -.07 -.35 -.11 -.55 -.14 .2 -.3 .31 -.64 .33 -.99 .26 -.02 1.86 -.15 1.75 .1 -.22 .5 -.89 .85 -1.38 .96 z"/><path d="m 84 54.96 s -1.06 .27 -1.37 .67 c -1.91 -.72 -4.45 -2.17 -2.24 -3.65 .46 -.31 1.24 -.58 1.64 -.9 .2 .07 -.03 .11 .97 .11 2 0 2 -3.89 0 -3.89 -3 0 -2.46 1.51 -2.07 2.65 -1 .5 -2.33 .44 -3.7 -.17 -.25 -.33 -.57 -.65 -.83 -.97 -.07 -.58 -.17 -1.15 -.23 -1.73 -.06 -.54 -.3 -1.6 -.75 -2.01 -.84 -.78 -1.61 -.67 -2.44 -.26 -.69 .19 -1.42 .98 -1.79 1.38 -.53 .57 -.94 1 -1.31 1.69 .04 -.3 .13 .54 .13 .84 v .01 c 0 1.19 -.14 2.37 -.08 3.56 -.04 1.19 .01 2.39 -.01 3.58 -.03 .79 .5 1.25 .98 .69 1.12 -1.31 1.71 -2.82 2.14 -4.43 1.83 1.96 3.36 4.19 4.31 6.68 .17 .72 .42 1.44 .6 2.06 -1.71 .7 -1.46 3.74 .76 3.74 2.31 0 2.49 -3.29 .55 -3.81 -.04 -.18 -.06 -.36 -.11 -.53 -.16 -.62 -.34 -1.24 -.56 -1.84 -.55 -2.24 1.91 -1.92 3.62 -1.51 .01 .98 .79 1.93 1.79 1.93 3 0 3 -3.89 0 -3.89 z"/></g></svg>