<svg enable-background="new 0 0 300 296.6" viewBox="0 0 300 296.6" xmlns="http://www.w3.org/2000/svg"><g fill="#fff"><path d="m 297.3 125.1 l -49.7 -34.3 c -2.4 -1.4 -5.4 -.7 -6.9 1.7 -.5 .8 -.7 1.7 -.7 2.6 v 30.2 c 0 1.1 -.9 2 -2 2 -.5 0 -1 -.2 -1.4 -.6 l -6.6 -6.7 h -70 c -5.5 0 -10 4.5 -10 10 s 4.5 10 10 10 h 80 v 25.2 c 0 2.8 2.2 5 5 5 .9 0 1.8 -.3 2.6 -.7 l 49.7 -34.4 c 2.8 -1.8 3.5 -5.5 1.7 -8.3 -.4 -.7 -1 -1.3 -1.7 -1.7 z"/><path d="m 185 160 h -10 c -2.8 0 -5 2.2 -5 5 v 55 h -50 v -154.1 c 0 -3.7 -2 -7 -5.2 -8.8 l -67.2 -33.3 c -1 -.5 -1.4 -1.7 -.9 -2.7 .3 -.7 1 -1.1 1.8 -1.1 h 121.5 v 75 c 0 2.8 2.2 5 5 5 h 10 c 2.8 0 5 -2.2 5 -5 v -75 c 0 -11 -9 -20 -20 -20 h -150 c -11 0 -20 9 -20 20 v 213.8 c 0 3.8 2.1 7.3 5.6 9 l 107 53.2 c 2.4 1.3 5.5 .4 6.8 -2 .4 -.7 .6 -1.6 .6 -2.4 v -51.6 h 65 c 2.8 0 5 -2.2 5 -5 v -70 c 0 -2.8 -2.2 -5 -5 -5 z"/></g></svg>