<svg enable-background="new 0 0 1007.5424805 1060" viewBox="0 0 1007.54 1060" xmlns="http://www.w3.org/2000/svg"><g fill="#fff"><path d="m 701.11 641.69 c 0 107.03 -19.14 204.49 -50.35 277.82 -7.82 18.27 -16.41 35.05 -25.61 50.1 -25.6 41.9 -56.19 70.36 -89.62 80.92 -9.32 2.97 -18.89 4.47 -28.71 4.47 -13.92 0 -27.47 -3.11 -40.52 -9.07 -30.83 -13.92 -59.05 -43.51 -82.53 -84.65 -2.49 -4.36 -4.85 -8.71 -7.21 -13.3 -.13 -.13 -.24 -.25 -.24 -.38 -39.05 -75.58 -63.66 -184.72 -63.66 -305.91 0 -137.35 31.57 -259.05 80.05 -334.26 4.22 -6.71 8.58 -12.93 13.18 -18.89 29.46 -38.16 64.02 -60.15 100.94 -60.15 2.36 0 4.85 .11 7.21 .24 .24 .13 .38 .13 .38 .13 h .13 c 32.69 2.62 63.26 22.5 89.87 55.33 3.49 4.22 6.83 8.71 10.2 13.42 52.06 74.07 86.49 200.6 86.49 344.18 z"/><path d="m 101.34 630.75 c 0 -167.03 68.62 -317.09 176.95 -392.69 -2.02 -.06 -3.99 -.37 -6.03 -.37 -147.56 .01 -267.26 169.81 -267.26 379.13 0 194.54 103.42 354.86 236.47 376.54 -87.05 -82.29 -140.13 -217.68 -140.13 -362.61 z"/><path d="m 730.57 240.81 c -1.04 0 -2.03 .16 -3.04 .17 111.34 74.38 181.79 225.42 181.79 395.99 0 141.11 -50.79 274.08 -134.25 356.94 129.09 -29.5 227.48 -185.76 227.48 -373.97 -.01 -209.34 -121.7 -379.13 -271.98 -379.13 z"/><path d="m 488.72 196.4 c 1.41 2.72 2.52 5.4 3.8 8.1 4.75 -.58 9.5 -.99 14.29 -.99 2.8 0 5.74 .14 8.55 .28 l 5.9 .65 c 10.27 1.25 20.41 4.01 30.39 7.96 .04 -.9 .07 -1.71 .13 -2.7 .2 -3.94 -.18 -8.4 -.95 -13.3 -9.1 -57.95 -73.48 -175.45 -73.48 -175.45 -3.81 -11.58 -12.98 -15.95 -17.75 -15.95 -7.32 0 -15.89 10.64 -26.02 21.38 -16.66 17.55 -31.25 28.39 -21.43 58.17 .01 -.01 49.37 58.59 76.57 111.85 z"/><path d="m 687.06 245.65 c -33.32 -17.16 -69.48 -26.61 -107.15 -26.61 -4.39 0 -8.74 .23 -13.09 .49 20.14 10.92 39.31 27.16 56.75 48.7 3.56 4.33 7.15 9.03 11.35 14.94 57.02 81.08 91.05 215.09 91.05 358.5 0 106.11 -18.59 208.24 -52.35 287.62 -8.27 19.32 -17.44 37.24 -27.26 53.27 -19.25 31.52 -41.36 55.86 -65.13 72.38 55.06 -.33 106.69 -20.6 151.08 -55.88 l .13 -.13 c 90.87 -72.47 152.03 -207.47 152.03 -361.98 -.01 -178.98 -82.06 -331.75 -197.41 -391.3 z"/><path d="m 362.18 973.61 c -2.05 -3.58 -4.01 -7.16 -5.96 -10.87 l -4.77 -9.21 c -40.5 -81.38 -63.65 -194.56 -63.65 -311.85 0 -138.15 30.62 -264.89 83.86 -347.5 4.59 -7.28 9.34 -14.09 14.54 -20.84 21.49 -27.85 45.4 -47.58 70.67 -58.83 -8.62 -1 -17.31 -1.68 -26.12 -1.68 -40.28 0 -78.69 10.69 -113.86 30.21 -111.88 61.91 -190.68 212.18 -190.68 387.7 0 156.74 62.9 293.36 155.88 364.95 42.12 32.38 90.41 51.21 141.79 52.78 -22.62 -17.92 -43.6 -43.14 -61.7 -74.86 z"/></g></svg>