<svg enable-background="new 0 0 255.3 277.3" viewBox="0 0 255.3 277.3" xmlns="http://www.w3.org/2000/svg"><g fill="#fff"><path d="m 17.3 60.8 c 1.1 1.1 1.7 2.6 1.6 4.1 l -.8 21.3 c 0 1.2 .4 1.7 1.7 1.7 8.2 0 6 -.2 18.9 1.7 1.3 .2 1.8 0 1.7 -1.7 l -1.2 -12.7 c -.1 -.6 -.4 -1.1 -.8 -1.4 l -4.4 -2.7 -3.8 -2.4 c -.7 -.4 -1 -1.3 -.7 -2.1 .4 -.8 1.3 -1.2 2.1 -.9 .1 0 .3 .1 .4 .1 l 5.9 2.4 3.3 1.3 c 8.1 2.8 13 3.6 15.8 3.6 s 4.1 -.8 4.5 -1.7 c 2.9 -3.7 3.6 -18.9 3.7 -33.3 0 -8.6 -1.9 -16 -5.5 -21.9 -.2 -.3 -.1 -.7 .2 -.9 0 0 .1 -.1 .2 -.1 5.3 -2 9.9 -7.1 9.9 -13.1 .1 -1.1 -.8 -2.1 -2 -2.1 h -38.9 c -.6 0 -1.1 0 -1.7 0 -11.1 .3 -27.4 12.7 -27.4 29.1 0 20.2 10.3 26.3 17.3 31.7 z"/><path d="m 46.1 207.3 h -32 c -2.8 0 -5 2.2 -5 5 v .1 l 3.4 64.9 h 37.5 l 6 -59.1 c .5 -5.5 -3.6 -10.4 -9.1 -10.8 -.2 -.1 -.5 -.1 -.8 -.1 z"/><path d="m 242.1 212 h -32 c -5.5 0 -10 4.4 -10 10 v .9 l 6 54.4 h 38.9 l 2.1 -60.2 c .1 -2.7 -2.1 -5 -5 -5.1 .1 0 .1 0 0 0 z"/><path d="m 129.8 152.7 l -1.1 1.6 -1.1 1.6 -3 4.5 2.1 1.5 c .6 .4 1.3 .2 1.7 -.3 l 2.8 -4 c .3 -.4 .9 -.5 1.3 -.2 l .4 .3 4.2 3.3 c 1.9 1.5 2.7 4 2 6.3 l -.3 1.2 4.4 -2.9 -2.6 -10 z"/><path d="m 135.6 162.9 l -3.3 -2.6 -2.1 2.9 c -1.1 1.5 -3.1 1.8 -4.6 .8 l -4.3 -2.9 3.5 -5.2 h -9.7 l -3.4 11.4 11.6 5.7 9 .9 c 1.3 .3 2.5 -.4 2.9 -1.7 l 1.7 -5.5 c .3 -1.5 -.2 -2.9 -1.3 -3.8 z"/><path d="m 235 98.7 l -15 1.2 c -14.3 2.4 -24.8 14.7 -24.8 29.2 v 5.4 l 21.3 -20.3 .1 -.1 .1 -.1 c 6.3 -5.3 15.8 -4.5 21.1 1.9 l .1 .1 .1 .1 6.5 8.9 c 3.4 4.2 2.8 10.4 -1.4 13.9 l -.2 .2 -.2 .2 -46.5 30.7 -1 .6 v 27.6 c 0 2.7 2.1 4.9 4.8 5 l 47 .8 c 2.8 .1 5.1 -2 5.2 -4.7 0 -.1 0 -.2 0 -.3 l 2.8 -81.3 c .7 -10.2 -10 -20.1 -20 -19 z"/><path d="m 12.7 133 l -.2 -.1 -.2 -.2 c -4.2 -3.5 -4.8 -9.7 -1.4 -13.9 l 6.5 -8.9 .1 -.1 .1 -.1 c 2.9 -3.4 7.1 -5.4 11.5 -5.4 3.5 0 6.9 1.2 9.6 3.5 l .2 .1 .1 .1 22 21.7 v -5.4 c 0 -14.5 -10.5 -26.8 -24.8 -29.2 l -15 -1.2 c -10 -1.1 -20.6 8.8 -20 19 l 2.8 81.3 c 0 2.8 2.2 5 5 5 h .3 l 46.7 2 c 2.7 -.1 4.8 -2.3 4.8 -5 l .2 -26.9 v -3.3 z"/><path d="m 255.3 35.3 c 0 -16.1 -15.9 -28.1 -26.8 -28.4 -.6 0 -1.1 0 -1.7 0 h -37.8 c -1.2 0 -2.1 .9 -2.1 2.1 v .1 c 0 5.8 4.5 10.8 9.6 12.8 .3 .1 .5 .5 .4 .8 0 0 0 .1 -.1 .1 -3.4 5.8 -5.3 13 -5.3 21.4 .1 14.1 .8 28.9 3.6 32.5 .4 .8 1.6 1.6 4.4 1.6 s 7.6 -.8 15.5 -3.6 l 3.3 -1.3 5.8 -2.4 c .1 -.1 .2 -.1 .4 -.1 .8 -.3 1.7 .1 2.1 .9 .3 .8 0 1.6 -.7 2.1 l -3.7 2.3 -4.2 2.7 c -.5 .3 -.8 .8 -.8 1.4 l -1.2 12.4 c -.2 1.6 .4 1.8 1.6 1.6 12.6 -1.8 10.4 -1.6 18.5 -1.6 1.2 0 1.6 -.5 1.6 -1.7 l -.5 -11.7 c 0 -1.2 .8 -1.7 2 -2.1 l 7.5 -2 c 6.2 -1.8 8.6 -3.8 8.6 -8.6 v -29.5 c 0 -.6 0 -1.2 0 -1.8 z"/><path d="m 240.7 128 l -6.6 -9 c -3.6 -4.2 -9.9 -4.8 -14.1 -1.2 l -32.6 31.1 -43.3 6.7 2 10 47.3 .3 46.7 -30.8 c 2.1 -1.9 2.4 -5 .6 -7.1 z"/><path d="m 67.9 143.6 l -32.4 -32 c -4.2 -3.6 -10.5 -3 -14.1 1.2 l -6.6 9 c -1.7 2.1 -1.5 5.2 .6 7 l 48.4 33.1 44.3 4.2 4 -11.4 z"/></g></svg>