<svg enable-background="new 0 0 841.889 595.281" height="595.28" viewBox="0 0 841.89 595.28" width="841.89" xmlns="http://www.w3.org/2000/svg"><g fill="#fff"><path d="m 598.34 507.77 c 0 -16.07 7.74 -90.48 7.74 -90.48 -5.95 -4.76 -27.98 -52.98 -32.74 -63.1 s -8.93 -10.12 -8.93 -10.12 c -11.91 4.76 -21.43 7.74 -21.43 7.74 s 39.29 69.65 36.31 111.32 -9.52 48.81 -17.26 57.15 c -7.74 8.33 -5.95 20.84 -5.95 20.84 l 24.41 .6 s 0 0 1.79 -6.55 6.55 -12.5 13.1 -15.48 c 5.94 -3.58 2.96 -11.92 2.96 -11.92 z"/><path d="m 327.49 437.53 c -1.79 -4.76 -3.57 -23.81 -3.57 -23.81 l -11.91 -60.72 s -13.69 63.1 -9.52 72.03 33.34 46.43 33.34 46.43 z"/><path d="m 213.79 80.36 v -13.69 s -10.12 -18.45 -17.86 -14.88 6.55 35.12 6.55 35.12 z"/><path d="m 378.08 232.16 l -8.93 -50 c -6.55 -2.38 -12.5 -5.36 -17.86 -8.33 0 15.48 -1.79 63.7 -13.69 89.89 -11.9 25.59 -25 39.28 -33.92 64.28 l 10.12 11.91 c 6.55 -10.72 23.81 -39.88 28.57 -42.27 5.36 -2.98 15.48 -45.84 19.05 -45.24 3.57 1.19 8.33 32.15 11.91 36.91 2.98 3.57 6.55 9.52 7.74 15.48 0 -.6 .6 -1.79 .6 -2.38 0 0 3.57 28.57 -2.38 48.22 0 0 7.14 0 17.26 .6 3.57 -13.1 8.93 -44.65 -7.74 -83.94 -4.77 -11.32 -8.34 -23.22 -10.73 -35.13 z"/><path d="m 296.53 123.22 c -4.17 -4.76 -8.93 -9.52 -13.1 -13.69 -3.57 7.14 -9.52 20.24 -16.67 36.31 -8.33 19.05 -23.22 41.67 -29.76 50.6 .6 1.19 1.19 2.38 1.79 4.17 1.19 2.98 3.57 11.31 7.74 22.03 5.36 -5.36 12.5 -13.1 19.05 -21.43 9.52 -13.1 26.19 -64.89 30.95 -77.99 z"/><path d="m 423.33 189.89 c 14.29 49.41 20.24 123.22 21.43 132.15 .6 5.36 -1.19 19.65 -3.57 30.36 9.52 0 19.05 .6 26.19 .6 7.14 -42.27 -11.91 -144.65 -16.67 -167.87 -8.93 2.38 -17.86 4.17 -27.38 4.76 z"/><path d="m 332.25 232.16 l 8.93 -64.89 c -5.36 -3.57 -10.12 -7.74 -14.88 -11.91 -2.38 12.5 -11.31 53.58 -17.26 66.67 -5.36 11.31 -23.81 48.81 -32.15 66.08 5.36 8.93 11.31 18.45 17.26 27.38 2.98 -8.93 8.33 -21.43 18.45 -34.53 10.72 -14.27 17.27 -30.94 19.65 -48.8 z"/><path d="m 317.96 147.03 c -.6 -.6 -1.79 -1.79 -2.38 -2.38 -3.57 -3.57 -7.14 -7.74 -10.72 -11.91 -4.17 12.5 -19.05 53.58 -26.79 70.24 -6.55 13.69 -19.05 27.38 -26.19 34.53 4.76 10.72 10.12 23.22 17.26 36.31 10.12 -17.86 30.36 -54.17 34.53 -74.41 4.17 -21.42 11.32 -42.85 14.29 -52.38 z"/><path d="m 410.23 190.49 c -8.93 0 -17.86 -1.79 -27.98 -4.17 3.57 17.26 10.72 52.39 13.1 63.1 2.38 9.52 22.62 57.74 11.91 101.79 7.14 0 14.88 .6 22.62 .6 1.19 -4.17 1.79 -10.12 2.98 -17.86 3.57 -35.12 -16.67 -117.87 -17.86 -127.39 -.6 -4.16 -2.98 -10.71 -4.77 -16.07 z"/><path d="m 340.58 464.91 c 4.17 -.6 11.31 -2.38 13.69 -1.79 2.38 .6 8.93 0 13.69 -.6 0 -4.17 0 -9.52 0 -15.48 l -30.96 2.38 c 1.2 4.78 2.39 10.14 3.58 15.49 z"/><path d="m 521.55 166.08 c -22.62 4.17 -41.67 10.72 -59.53 15.48 l 10.72 70.24 c 2.38 -38.69 30.35 -69.64 48.81 -85.72 z"/><path d="m 367.97 423.25 c -8.93 -1.19 -23.81 -1.79 -35.72 4.17 .6 4.17 1.19 7.74 1.79 11.91 4.17 .6 11.91 1.19 18.45 1.19 5.36 0 11.31 .6 14.88 .6 .6 -5.37 .6 -11.33 .6 -17.87 z"/><path d="m 369.16 357.76 c -15.48 -11.31 -38.1 16.67 -43.46 23.81 .6 3.57 1.79 7.74 2.38 11.31 5.95 -4.17 22.03 -13.69 40.48 -8.33 0 -9.52 0 -19.05 .6 -26.79 z"/><path d="m 377.49 320.26 c -2.38 -5.36 -8.93 -17.26 -17.86 -19.65 -10.12 -2.98 -32.15 47.03 -38.1 60.72 .6 2.98 1.19 6.55 2.38 10.12 6.55 -7.74 27.98 -33.93 32.74 -35.72 3.57 -1.19 11.31 4.76 16.07 8.33 .6 -7.13 2.98 -15.47 4.77 -23.8 z"/><path d="m 367.97 397.05 c -9.52 -.6 -27.98 -1.19 -38.1 7.74 .6 4.76 1.19 8.93 1.79 11.91 4.76 -1.19 16.07 -3.57 25 -2.98 4.76 0 8.33 .6 11.31 1.19 0 -5.95 0 -11.9 0 -17.86 z"/><path d="m 619.77 433.96 c .6 4.17 1.19 8.33 1.79 13.1 h 23.81 c 2.38 0 4.76 0 6.55 .6 .6 -4.17 1.19 -8.93 1.79 -13.1 -7.75 -2.39 -24.42 -5.96 -33.94 -.6 z"/><path d="m 597.74 385.15 c 2.38 4.76 4.76 10.12 7.74 14.88 3.57 -.6 21.43 -4.76 27.38 -4.76 4.17 0 16.67 1.79 24.41 2.98 -1.19 -7.74 -4.76 -16.67 -8.33 -25.6 z"/><path d="m 584.65 357.17 c 2.38 5.36 4.76 11.31 7.74 17.26 7.74 -2.38 33.34 -10.12 52.39 -11.31 -3.57 -9.52 -6.55 -19.64 -6.55 -30.36 -11.32 -1.19 -32.15 1.79 -53.58 24.41 z"/><path d="m 595.96 294.07 c 0 .59 0 .59 0 0 -10.72 10.72 -17.26 24.41 -20.24 38.69 l -1.19 5.36 c 1.79 2.38 4.17 5.95 5.95 10.12 5.36 -7.14 26.79 -30.36 58.93 -27.98 .6 -2.38 1.19 -4.76 1.79 -7.14 2.38 -7.14 6.55 -19.65 9.52 -35.12 -11.31 1.78 -46.43 8.33 -54.76 16.07 z"/><path d="m 645.37 493.49 c 0 -1.79 1.19 -7.14 1.79 -13.1 -7.14 0 -22.03 0 -27.38 2.38 -2.38 20.24 -7.14 36.31 -7.14 36.31 s -13.1 15.48 -14.29 19.05 -2.38 11.91 -2.38 11.91 26.19 3.57 30.95 -2.38 4.76 -14.29 15.48 -23.81 c 11.3 -9.53 1.77 -22.03 2.97 -30.36 z"/><path d="m 706.68 377.41 s -1.79 -28.57 -2.98 -32.74 c -4.17 -16.07 -19.64 -39.29 -19.64 -39.29 5.36 5.95 16.07 17.26 16.07 17.26 s -19.05 -32.15 -29.17 -77.39 c -7.14 -32.74 -23.81 -49.41 -32.15 -56.55 -2.98 -4.17 -6.55 -7.74 -10.72 -10.72 -16.67 -1.79 -40.48 -1.19 -60.72 15.48 -30.95 25 -57.74 80.36 -58.93 157.75 5.36 -.6 10.72 -1.79 16.67 -2.98 2.38 -15.48 13.69 -87.51 54.17 -117.87 45.84 -33.93 70.84 -10.72 70.84 -10.72 l 4.76 17.86 s -22.62 -25 -47.03 -9.53 c -23.81 15.48 -39.29 27.98 -48.22 44.65 -7.74 13.69 -19.65 61.31 -22.03 72.03 8.33 -2.38 15.48 -5.95 20.84 -9.52 1.19 -1.19 2.38 -1.79 3.57 -1.79 1.19 -6.55 11.91 -48.22 40.48 -56.55 25 -7.74 42.86 -11.91 49.41 -10.72 1.19 -8.93 1.79 -18.45 1.19 -27.98 11.91 26.19 17.26 65.48 14.88 82.15 -3.57 22.62 7.14 61.31 5.95 53.58 -1.19 -7.74 2.38 -39.29 2.38 -39.29 s 2.38 21.43 3.57 42.86 c .6 11.91 17.26 29.76 17.26 29.76 s -4.17 -10.72 .6 -20.24 c 4.76 -9.52 -4.76 -40.48 -4.76 -40.48 z"/><path d="m 563.81 181.56 c 15.48 -8.33 28.57 -13.1 38.69 -15.48 -7.74 -1.79 -16.07 -3.57 -25.6 -3.57 -12.5 -.6 -23.81 0 -34.53 1.19 -5.36 4.76 -13.69 10.72 -24.41 19.05 -27.38 21.43 -35.12 64.89 -35.12 79.17 0 11.91 -4.76 69.05 -6.55 91.08 h 6.55 c 2.98 0 8.93 0 15.48 -1.19 1.2 -20.83 6.56 -137.51 65.49 -170.25 z"/><path d="m 341.77 474.44 c 2.38 14.88 4.76 35.12 -.6 45.84 -5.95 13.1 -5.95 25 -5.95 25 s 14.29 5.95 23.81 0 11.91 -9.52 9.52 -15.48 c -2.38 -5.95 2.38 -9.52 11.91 -17.86 8.93 -8.33 -11.31 -22.62 -13.1 -44.65 -5.94 .6 -19.63 3.58 -25.59 7.15 z"/><path d="m 631.08 403.6 c -5.95 1.79 -14.29 5.36 -19.05 7.14 2.98 4.76 4.76 10.12 6.55 15.48 4.17 -1.19 10.72 -2.98 16.07 -2.98 5.95 0 14.88 1.79 20.24 2.38 .6 -5.95 1.79 -11.31 2.38 -16.07 -7.74 -2.97 -20.83 -7.74 -26.19 -5.95 z"/><path d="m 276.29 102.39 c -3.57 -3.57 -7.14 -6.55 -10.12 -9.52 l -.6 1.19 s -12.5 26.79 -16.67 38.69 c -4.17 11.31 -9.52 23.81 -9.52 23.81 s 10.12 -55.96 10.72 -73.81 c -1.19 -.6 -2.98 -.6 -4.17 -.6 1.19 -8.93 0 -16.67 -5.36 -29.77 -6.55 -16.67 -13.1 -2.38 -13.1 -2.38 -5.95 12.5 -4.17 27.38 -2.98 34.53 -.6 0 -1.19 .6 -2.38 1.19 .6 4.76 1.19 11.31 1.79 17.86 .6 10.72 -4.17 20.24 -4.17 20.24 s .6 -23.81 -4.17 -34.53 c -1.19 .6 -2.38 1.19 -3.57 2.38 -.6 8.93 -2.38 25 -4.17 26.79 -2.38 2.38 -2.38 2.38 -2.38 2.38 v 2.38 l -4.76 2.38 5.36 -29.76 c -2.38 1.19 -4.17 2.98 -6.55 4.17 -1.79 9.52 -5.95 27.98 -9.52 30.95 -4.76 4.17 -25 31.55 -25 31.55 h -8.93 s 23.22 -25.6 27.98 -37.5 c 2.38 -5.95 5.36 -13.69 7.14 -19.64 -1.79 1.79 -3.57 2.98 -3.57 4.17 -2.38 5.95 -16.67 25 -36.31 45.84 -13.69 14.29 -15.48 28.57 -15.48 28.57 s -3.57 9.53 3.57 15.48 16.67 16.67 29.76 8.33 c 5.36 -2.98 12.5 -4.76 20.24 -6.55 0 -5.36 -.6 -15.48 -13.1 -20.84 0 0 16.67 2.38 16.67 5.36 0 1.79 .6 8.93 1.79 14.29 2.98 -.6 5.95 -1.19 9.52 -1.79 0 -.6 4.76 -19.65 -1.79 -28.57 -6.55 -8.93 -28.57 -1.19 -28.57 -1.19 s 14.88 -9.52 29.17 -7.14 c 0 0 19.05 -5.95 20.84 -12.5 s -1.79 -21.43 -1.79 -21.43 13.69 18.45 1.79 31.55 l -13.1 9.52 c 4.76 8.93 4.76 23.22 4.76 27.38 4.76 -1.79 8.93 -3.57 12.5 -5.95 h .6 c 5.95 -10.12 19.65 -33.34 24.41 -40.48 4.77 -5.36 17.86 -33.94 23.22 -47.03 z m -80.96 37.5 s 1.79 -8.93 11.31 -8.93 11.91 7.74 11.91 7.74 -12.5 10.72 -23.22 1.19 z"/><path d="m 620.96 473.84 c 4.17 0 14.29 -.6 19.05 0 2.38 0 5.36 .6 7.74 1.79 .6 -5.36 1.79 -11.31 2.38 -17.86 l -28.57 -.6 c .59 5.36 -.01 11.32 -.6 16.67 z"/><path d="m 260.22 87.51 c -1.19 -.6 -2.38 -1.79 -3.57 -2.38 l -2.38 19.05 z"/><path d="m 263.2 78.58 l .6 -1.79 10.12 -8.93 -3.57 14.88 -.6 .6 c 2.38 1.79 4.17 4.17 6.55 6.55 1.19 1.19 2.98 2.98 4.76 5.36 l 13.1 -8.93 -7.14 14.88 c 4.17 4.76 9.52 10.72 14.88 16.67 l 14.88 -9.53 -8.93 16.67 c 4.76 5.36 10.12 10.72 14.29 15.48 l 14.29 -10.72 -8.33 17.86 c 4.17 4.17 7.74 7.14 8.93 7.74 1.79 .6 4.17 2.38 6.55 4.17 l 10.72 -13.1 -2.98 18.45 c 5.95 4.17 11.31 8.33 13.1 8.33 2.38 .6 .6 -12.5 6.55 -19.64 0 0 -31.55 -20.84 -39.88 -31.55 -8.33 -10.72 -51.79 -62.51 -72.03 -67.86 h -5.36 l 1.79 21.43 c -.03 -.59 2.94 0 7.71 2.98 z"/></g></svg>