<svg enable-background="new 0 0 932.3856812 1028.112793" viewBox="0 0 932.39 1028.11" xmlns="http://www.w3.org/2000/svg"><g fill="#fff"><path d="m 366.68 371.74 h -1.23 v -56.61 c 0 -41.46 -33.69 -75.22 -75.14 -75.34 l -52.09 -213.24 c -3.09 -12.67 -14.44 -21.55 -27.47 -21.55 -13.04 0 -24.38 8.88 -27.47 21.55 l -52.08 213.23 c -41.45 .13 -75.14 33.88 -75.14 75.34 v 56.61 h -1.24 c -27.52 0 -49.82 22.32 -49.82 49.83 v 551.73 c 0 27.51 22.3 49.82 49.82 49.82 h 311.85 c 27.52 0 49.82 -22.32 49.82 -49.82 v -551.73 c .01 -27.51 -22.29 -49.82 -49.81 -49.82 z m -259.54 -56.61 c 0 -13.4 10.89 -24.28 24.28 -24.28 h 158.65 c 13.39 0 24.28 10.88 24.28 24.28 v 56.61 h -207.21 z m 258.27 269.47 h -104.84 c -27.52 0 -49.82 22.32 -49.82 49.82 v 125.99 c 0 27.5 22.3 49.82 49.82 49.82 h 104.84 v 161.78 h -309.32 v -549.19 h 309.32 z"/><path d="m 877.56 371.74 h -1.23 v -56.61 c 0 -41.46 -33.69 -75.22 -75.14 -75.34 l -52.08 -213.24 c -3.09 -12.67 -14.44 -21.55 -27.47 -21.55 s -24.38 8.88 -27.47 21.55 l -52.08 213.23 c -41.45 .13 -75.14 33.88 -75.14 75.34 v 56.61 h -1.23 c -27.52 0 -49.82 22.32 -49.82 49.82 v 163.04 225.64 163.04 c 0 27.5 22.3 49.82 49.82 49.82 h 311.85 c 27.52 0 49.82 -22.32 49.82 -49.82 v -551.71 c 0 -27.51 -22.3 -49.82 -49.83 -49.82 z m -150.82 388.68 c 0 27.5 -22.3 49.82 -49.82 49.82 h -109.95 v -225.64 h 109.94 c 27.53 0 49.82 22.32 49.82 49.82 v 126 z m 98.5 -388.68 h -207.21 v -56.61 c 0 -13.4 10.89 -24.28 24.28 -24.28 h 158.65 c 13.39 0 24.28 10.88 24.28 24.28 z"/></g></svg>