<svg enable-background="new 0 0 563.2 616" viewBox="0 0 563.2 616" xmlns="http://www.w3.org/2000/svg"><g fill="#fff"><path d="m 371.8 64.9 l -19.4 3.8 c -9.2 7.7 -20.1 14.2 -33 18.1 -19.7 6 -31.2 12.1 -38.5 18.3 12.7 -3.4 28.8 -6.1 47.9 -6.1 8.3 0 16.9 .5 25.4 1.5 21.6 2.6 36.4 3.8 46.4 3.8 12.8 0 15.7 -1.7 21.4 -5.2 l 3.3 -2 16.5 -10.4 c -35.7 -23 -70 -21.8 -70 -21.8 z"/><path d="m 143 210.1 c -25.8 11.4 -51.5 64.8 -56.2 96.3 -4.8 31.5 24.8 88.7 24.8 88.7 1.9 -17.2 10.5 -81.1 31.5 -98.2 17.8 -14.5 40.3 -64.6 46.8 -79.5 -3.7 12.9 -5.3 47.3 3.8 60.5 10.5 15.2 71.5 74.4 71.5 74.4 s -18.2 -94.5 -12.5 -119.3 -8.6 -55.3 -8.6 -55.3 c 7.6 -4.8 37.2 -25.7 96.3 -26.7 s 90.6 -43.9 90.6 -43.9 c -13.4 7.6 -14.3 12.4 -78.2 4.8 s -100.1 17.2 -100.1 17.2 c 8.6 -15.3 7.6 -36.2 63.4 -53.2 55.7 -17 69.2 -86 58.7 -74.6 -.6 .6 -28.9 19.8 -66.6 31.5 -39.9 12.4 -77.4 41 -77.4 41 -2 -22 30.5 -66.8 30.5 -66.8 s -40 31.5 -62.9 48.6 c -17 12.7 -28.2 47 -32.8 63.8 7.3 20.2 18.5 39.7 35.8 53.5 3.3 2.9 6.1 7.6 5.4 13.3 -.5 3.8 -2.7 9.2 -10.4 13 -3.8 1.9 -8.4 2.8 -14.3 2.8 -7.9 0 -15.6 -1.7 -16.4 -1.9 l -4.1 -.9 -2.5 -3.3 c -1.7 -2.3 -29.2 -39.2 -44.8 -85.7 -16.9 -2.3 -31.2 -2.1 -31.2 -2.1 12.4 39.1 31.5 56.3 31.5 56.3 s -42 1.9 -72.5 28.6 -42 89 -42 89 40 -29.9 62.9 -42.3 c 22.8 -12.4 80 -29.6 80 -29.6 z"/><path d="m 191.2 189 c 7.1 -3.6 3.1 -7.1 3.1 -7.1 -59.2 -47 -53.3 -151.4 -53.3 -151.4 -10.2 -10.2 -25.4 9.7 -25.4 9.7 -6.6 70.6 52.6 148.9 52.6 148.9 s 15.9 3.5 23 -.1 z"/><path d="m 545.2 389.8 c -32.4 -53.2 -24.3 -107.8 -24.3 -107.8 .6 -107.9 -34.6 -162.1 -70.9 -189.4 l -9.9 21.3 c -1.4 1.9 -35.6 47.5 -99.6 48.5 -43.3 .7 -69.4 12.6 -82.3 20 4.3 12.1 10 33.8 5.6 53.2 -3.8 16.3 5.7 78.9 12.5 114.5 l 6.8 35.6 -26 -25.2 c -6.3 -6.1 -62.2 -60.4 -73 -76.1 -3 -4.3 -5.1 -9.9 -6.4 -16 -8.7 15.6 -18.4 30 -27.4 37.4 -13.1 10.7 -23.2 53.2 -27.3 90.6 l -4.2 37.6 -17.3 -33.6 c -3.2 -6.2 -31.1 -61.5 -25.9 -95.6 3 -19.5 13.2 -46.9 27.3 -69.3 -9.2 3.3 -18.2 6.8 -25.6 10.1 -17 28 -22.1 85.3 -22.1 85.3 -18.7 125.9 101.6 179.1 127 187.2 s 65.9 15 180.3 75.1 c 114.5 60.1 168.8 -16.2 182.7 -31.2 s 32.4 -119.1 0 -172.2 z m -460.1 27.7 c -5.1 1.5 -11.4 -5.2 -14.1 -15.1 s -.8 -19.2 4.3 -20.7 11.4 5.3 14.1 15.1 c 2.7 9.9 .8 19.2 -4.3 20.7 z m 57 3.4 c 3.8 -3.8 12.7 -1 20 6.3 7.2 7.2 10.1 16.2 6.3 20 s -12.7 1 -20 -6.3 -10.1 -16.2 -6.3 -20 z m 43.6 77.5 c -3.8 3.8 -12.7 1 -20 -6.3 -7.2 -7.3 -10.1 -16.2 -6.3 -20 s 12.7 -1 20 6.3 10.1 16.2 6.3 20 z m 5.4 -144.5 c -4.9 2 -12.1 -4 -16 -13.5 s -3.1 -18.8 1.9 -20.9 c 4.9 -2 12.1 4 16 13.5 3.8 9.5 3 18.8 -1.9 20.9 z m 15.5 49.3 c -3.9 -9.5 -3.1 -18.8 1.9 -20.8 4.9 -2 12.1 4 16 13.5 s 3.1 18.8 -1.9 20.9 c -5 1.9 -12.1 -4.1 -16 -13.6 z m 33.4 95.2 c -3.8 3.8 -12.7 1 -20 -6.3 -7.2 -7.3 -10.1 -16.2 -6.3 -20 s 12.7 -1 20 6.3 10.1 16.2 6.3 20 z m 204.1 -372.5 c 3.8 -1.6 10.1 4.8 14 14.3 s 4 18.5 .2 20 c -3.8 1.6 -10.1 -4.8 -14 -14.3 -3.9 -9.4 -4 -18.4 -.2 -20 z m -30.6 74.2 c 4.9 -2 12.1 4 16 13.5 s 3.1 18.8 -1.9 20.9 c -4.9 2 -12.1 -4 -16 -13.5 s -3 -18.9 1.9 -20.9 z m -115 261.6 c -4.9 2 -12.1 -4 -16 -13.5 s -3.1 -18.8 1.9 -20.9 c 4.9 -2 12.1 4 16 13.5 s 3.1 18.9 -1.9 20.9 z m 0 -221.2 c -4.9 2 -12.1 -4 -16 -13.5 s -3.1 -18.8 1.9 -20.9 c 4.9 -2 12.1 4 16 13.5 3.9 9.6 3.1 18.9 -1.9 20.9 z m 12.1 99.9 c -3.9 -9.5 -3.1 -18.8 1.9 -20.9 4.9 -2 12.1 4 16 13.5 s 3.1 18.8 -1.9 20.9 c -4.9 2 -12.1 -4.1 -16 -13.5 z m 33.4 202.9 c -3.8 3.8 -12.7 1 -20 -6.3 s -10.1 -16.2 -6.3 -20 12.7 -1 19.9 6.3 c 7.4 7.3 10.2 16.2 6.4 20 z m 10.2 -369.9 c 5 -2 12.1 4 16 13.5 s 3.1 18.8 -1.9 20.9 c -4.9 2 -12.1 -4 -16 -13.5 -3.8 -9.5 -3 -18.8 1.9 -20.9 z m 21.5 270.7 c -4.9 2 -12.1 -4 -16 -13.5 s -3.1 -18.8 1.9 -20.9 c 4.9 -2 12.1 4 16 13.5 3.8 9.5 3 18.9 -1.9 20.9 z m 0 -162.6 c -4.9 2 -12.1 -4 -16 -13.5 s -3.1 -18.8 1.9 -20.9 c 4.9 -2 12.1 4 16 13.5 3.8 9.6 3 18.9 -1.9 20.9 z m 14.9 76.4 c -3.9 -9.5 -3.1 -18.8 1.9 -20.9 4.9 -2 12.1 4 16 13.5 s 3.1 18.8 -1.9 20.9 c -4.9 2.1 -12.1 -4 -16 -13.5 z m 12.3 137.6 c -5.7 -8.5 -6.7 -17.9 -2.2 -20.8 4.4 -3 12.6 1.6 18.3 10.1 5.7 8.6 6.7 17.9 2.2 20.8 -4.4 2.9 -12.6 -1.6 -18.3 -10.1 z m 34.2 87.1 c -3.8 3.8 -12.7 1 -20 -6.3 -7.2 -7.3 -10.1 -16.2 -6.3 -20 s 12.7 -1 20 6.3 c 7.2 7.2 10.1 16.2 6.3 20 z m -4.2 -279.4 c -3.9 -9.5 -3.1 -18.8 1.9 -20.9 4.9 -2 12.1 4 16 13.5 s 3.1 18.8 -1.9 20.9 c -5 2 -12.1 -4 -16 -13.5 z m 33.1 148.6 c -4.9 2 -12.1 -4 -16 -13.5 s -3.1 -18.8 1.9 -20.9 c 4.9 -2 12.1 4 16 13.5 3.9 9.6 3 18.9 -1.9 20.9 z m 0 -240.8 c -4.9 2 -12.1 -4 -16 -13.5 s -3.1 -18.8 1.9 -20.9 c 4.9 -2 12.1 4 16 13.5 3.9 9.6 3 18.9 -1.9 20.9 z m 14.8 25.4 c 5.6 -2.3 13.4 3.5 17.3 13 s 2.5 19.1 -3.1 21.4 -13.4 -3.5 -17.3 -13 c -4 -9.5 -2.5 -19.1 3.1 -21.4 z m -.9 93.3 c 4.9 -2 12.1 4 16 13.5 s 3.1 18.8 -1.9 20.9 c -4.9 2 -12.1 -4 -16 -13.5 s -3 -18.8 1.9 -20.9 z m 20.3 255.2 c -4.4 2.9 -12.7 -1.6 -18.3 -10.1 -5.7 -8.5 -6.7 -17.9 -2.2 -20.8 4.4 -2.9 12.7 1.6 18.3 10.1 s 6.6 17.8 2.2 20.8 z m 5.2 -69.9 c -4.9 2 -12.1 -4 -16 -13.5 s -3.1 -18.8 1.9 -20.9 c 4.9 -2 12.1 4 16 13.5 s 3.1 18.8 -1.9 20.9 z m 30.2 -44.7 c -5.2 1.3 -11.4 -5.7 -13.9 -15.7 -2.4 -10 -.2 -19.1 5 -20.4 s 11.4 5.8 13.8 15.7 c 2.5 10 .3 19.1 -4.9 20.4 z"/></g></svg>