<svg enable-background="new 0 0 841.889 595.281" height="595.28" viewBox="0 0 841.89 595.28" width="841.89" xmlns="http://www.w3.org/2000/svg"><g fill="#fff"><path d="m 538.26 390.65 l -6.28 -2.77 c -28.19 -3.85 -41.01 42.29 -8.97 43.57 17.94 2.56 35.75 -31.83 15.25 -40.8 z"/><path d="m 483.29 453.66 c 11.61 5.24 29.47 .3 31.66 -12.53 -19.78 -7.33 -18.88 -17.34 -21.37 -30.04 -20.27 -1.81 -31.22 32.51 -10.29 42.57 z"/><path d="m 504.28 384.7 s .44 .51 1.34 1.14 c 6.83 -5.39 15.79 -8.77 26.94 -8.77 1.35 0 2.63 .1 3.91 .19 5.55 -10.51 1.07 -27.43 -10.46 -30.82 -23.92 -7.68 -42.23 24.16 -21.73 38.26 z"/><path d="m 545.56 384.14 c 5.23 3.83 8.6 6.82 12.51 13.49 1.12 1.91 1.98 3.64 2.69 5.3 9.97 .13 19.45 -8 20.79 -18.97 2.76 -20.53 -18.01 -32.2 -34.19 -23.08 .54 2.72 .84 5.52 .84 8.38 v .19 c -.01 5.14 -.97 10.07 -2.64 14.69 z"/><path d="m 573.38 445.99 c 8.11 -3.42 14.82 -9.1 16.1 -17.63 .88 -6.15 -.24 -15.7 -7.01 -21.78 -6.92 4.22 -15.06 6.81 -22.94 6.39 -1.27 -.07 -2.36 -.17 -3.47 -.27 -.96 2.88 -2.2 5.66 -3.75 8.3 -.01 .01 -.01 .01 -.01 .01 -1.83 4.95 -4.38 9.61 -7.85 13.58 .95 2.59 2.14 4.8 3.29 6.27 5.56 7.26 17.1 8.98 25.64 5.13 z"/><path d="m 544.22 472.77 c 6.47 -3.86 8.78 -11.04 8.06 -18.19 -7.5 -3.33 -13.95 -8.67 -18.66 -15.31 -3.19 1.04 -6.56 1.63 -9.99 1.92 -2.91 6.64 -7.4 12.48 -12.98 17.01 .66 13.99 13.92 26.33 33.57 14.57 z"/><path d="m 580.45 453.13 c -4.52 1.99 -9.4 3.22 -14.51 3.58 l -4.45 4.28 c -2.1 9.03 -6.72 17.36 -13.82 23.41 7.63 10.88 25.36 9.44 34.04 -.69 7.6 -8.3 7.13 -23.51 -1.26 -30.58 z"/><path d="m 597.58 420.55 s 5.85 19.21 -8.47 27.77 c 0 0 8.74 5.3 7.44 20.32 15.95 4.17 32.96 -15.96 27.44 -31.46 -2.73 -8.95 -16.2 -18.91 -26.41 -16.63 z"/><path d="m 588.77 383.12 s 1.27 9.95 -1.7 13.49 c 0 0 9.11 11.35 9.49 13.95 0 0 10.98 .93 14.21 3.71 6.19 -7.64 7.44 -18.94 .98 -27.21 -6.39 -8.18 -15.24 -7.91 -22.98 -3.94 z"/><path d="m 468.33 412.45 c 10.18 -11.88 26.47 -11.01 26.47 -11.01 l 4.1 -9.49 c -8 -6.51 -11.91 -22.1 -11.91 -22.1 -23.49 -4.46 -31.43 32.02 -18.66 42.6 z"/><path d="m 463.17 434.19 c 0 -4.25 .65 -8.37 1.81 -12.29 l -.04 -.12 c -4.66 -4.48 -8.35 -9.94 -10.76 -16.01 -27.5 9.92 -14.85 49.9 10.83 40.85 -1.18 -3.96 -1.84 -8.13 -1.84 -12.43 z"/><path d="m 502.43 473.92 c -1.33 -2.89 -2.33 -5.92 -3.02 -9.05 h -.14 c -11.33 0 -21.75 -4.46 -29.68 -11.63 -1.84 .58 -3.79 1.01 -5.8 1.36 -2.19 10.25 -.56 23.69 17.44 26.26 10.36 1.45 16.93 -.87 21.2 -6.94 z"/><path d="m 534.8 487.36 c -3.96 .29 -7.97 .08 -11.97 -.64 -6.24 13.91 1.75 27.05 8.86 30.51 12.35 6.13 27.2 -.82 31.98 -11.87 -11.77 -1.95 -22.04 -8.66 -28.87 -18 z"/><path d="m 508.66 480.2 c -.89 .62 -1.76 1.27 -2.7 1.82 -5.72 3.35 -11.95 5.21 -18.32 5.77 -3.41 15.67 13.41 24.72 26.13 20.15 -1.99 -8.15 -1.65 -16.75 .95 -24.67 -2.09 -.88 -4.13 -1.87 -6.06 -3.07 z"/><path d="m 592.41 488.9 c -3.42 2.85 -7.29 5.13 -11.44 6.85 -2.1 1.19 -4.31 2.17 -6.59 3 -.25 1.9 -.51 3.8 -.76 5.7 -.01 .07 -.02 .13 -.04 .19 -1.43 5.09 -3.7 9.69 -6.67 13.88 6.63 4.91 18.92 2.85 24.43 -1.92 8.11 -6.84 7.94 -19.79 1.48 -27.23 .01 0 -.17 -.2 -.41 -.47 z"/><path d="m 624.95 468.67 s -10.35 11.09 -28.95 9.6 c 0 0 9.87 7.07 10.42 22.69 7.12 -.42 13.74 -5.13 17.39 -11.14 2.36 -3.86 5.27 -13.66 1.14 -21.15 z"/><path d="m 472.18 364.16 c 4.71 -1.73 9.74 -2.72 14.99 -2.72 h .19 c .26 0 .52 .02 .77 .04 1.73 -5.32 4.45 -10.34 8.19 -14.77 -11.04 -16.04 -12.58 -22.78 -11.92 -25.59 .1 -.42 .69 -.93 1.74 -1.51 7.21 -3.95 9.84 -13 5.89 -20.2 -3.96 -7.2 -13 -9.85 -20.21 -5.89 -8.63 4.73 -14.29 11.91 -16.39 20.74 -4.52 19.08 9.15 38.9 16.5 49.55 .11 .15 .16 .22 .25 .35 z"/><path d="m 537.86 328.67 c 11.64 2.41 19.27 10.04 32.52 10.44 22.08 .4 32.51 -9.64 36.93 -30.51 1.61 -6.82 2.41 -14.45 1.2 -20.87 -7.23 15.25 -20.47 22.88 -36.93 22.48 -10.86 0 -32.11 -6.51 -61.28 27.53 .11 .05 .21 .1 .32 .15 8.39 -6.14 19.09 -10.75 27.24 -9.22 z"/><path d="m 517.43 340.55 c 19.1 -4.96 29.45 15.51 29.45 15.51 .8 -6.42 4.68 -11.67 11.1 -13.28 -5.7 -.34 -20.96 -8.56 -20.96 -8.56 -8.56 -1.61 -19.59 6.33 -19.59 6.33 z"/><path d="m 452.07 396.5 c .49 -9.08 3.79 -17.5 9.04 -24.41 -20.57 -5.7 -35.12 12.62 -45.88 28.23 -9.2 14.03 -21.62 22.06 -38.44 21.66 5.61 10.03 24.43 13.23 33.63 10.03 7.55 -2.24 13.75 -6.01 20.47 -8.78 3.06 -11.27 10.15 -21.21 21.18 -26.73 z"/><path d="m 444.14 366.66 s 19.6 -1.67 20.34 -1.49 l .83 -.63 c -.01 0 -.01 -.01 -.01 -.01 -5.23 -5.27 -8.89 -11.46 -11.07 -18.51 -2.95 1.65 -6.38 3.13 -10.94 4.29 .41 4.86 .83 13.04 .85 16.35 z"/><path d="m 499.82 341.36 c .56 0 5.95 -13.58 7.26 -13.95 s -14.32 1.86 -14.32 1.86 c .55 .18 6.5 12.09 7.06 12.09 z"/><path d="m 332.86 314.03 c -.01 -.21 .02 -.4 -.01 -.62 -1.83 -16.16 6.47 -38.44 22.21 -59.61 4.91 -6.6 3.54 -15.92 -3.06 -20.82 -6.6 -4.91 -15.93 -3.54 -20.82 3.06 -10.85 14.59 -27.84 42.1 -28.29 71.33 8.36 1.86 15.9 6.1 21.84 11.98 2.53 -2.03 5.22 -3.87 8.13 -5.32 z"/><path d="m 342.34 311.64 c 2.58 -.5 5.21 -.85 7.92 -.85 16.92 0 31.87 9.82 39.42 23.97 .03 .04 .06 .08 .09 .13 14.28 3.2 44.19 -6.31 55.64 -16.46 -14.57 4.59 -34.5 -6.68 -48.77 -10.34 -18.98 -4.3 -36.62 -7.43 -53.87 -2.54 -.01 2.04 -.15 4.07 -.43 6.09 z"/><path d="m 409.37 399.42 c 5.29 -21.68 -16.54 -50.61 -30.28 -65 -8.32 -8.57 -19.19 -16.33 -32.1 -14.08 -4.2 .74 -9.72 2.97 -14.9 5.95 2.42 5.46 3.79 11.45 3.79 17.72 0 3.53 -.47 6.96 -1.28 10.27 1.64 1.39 3.44 2.52 5.58 3.1 8.24 2.22 15.63 -1.29 23.73 2.33 13.55 5.56 24.16 16.11 34.82 25.97 3.84 3.91 8.01 8.2 10.64 13.74 z"/><path d="m 325.98 401.37 c 27.41 -16.62 -6.12 -50.8 -28.94 -33.79 l -4.15 5.47 c -13.6 17.78 18.63 39.25 33.09 28.32 z"/><path d="m 371.49 401.59 c 13.45 -18.94 -12.74 -43.66 -29.61 -32.27 3.96 12.32 9.6 20.65 -4.16 36.63 8.13 10.16 26.14 5.85 33.77 -4.36 z"/><path d="m 287.98 360.47 c 1.07 -.7 2.15 -1.41 3.33 -2.06 9.76 -5.39 19.23 -6.78 27.82 -5.36 .48 -.99 .62 -1.65 .62 -1.65 11.11 -22.26 -20.31 -41.27 -37.53 -22.96 -8.45 8.54 -4.18 25.51 5.76 32.03 z"/><path d="m 251.78 388.14 c 6.48 8.95 18.71 11.48 27.37 6.54 -.19 -1.79 -.27 -3.72 -.21 -5.94 .19 -7.72 1.69 -11.97 4.42 -17.86 -3.7 -3.24 -6.93 -7.09 -9.41 -11.59 l -.1 -.16 c -1.38 -2.51 -2.48 -5.1 -3.32 -7.74 -18.58 -.15 -31.1 20.11 -18.75 36.75 z"/><path d="m 288.94 438.47 c 9.33 -.77 18.6 -7.85 19.95 -16.89 .29 -1.85 .26 -4.36 -.16 -7.08 -4.96 -1.8 -9.44 -4.64 -13.44 -8.08 -.01 -.01 -.01 -.01 -.02 -.01 -2.63 -1.56 -5.07 -3.4 -7.3 -5.45 -.92 .63 -1.82 1.24 -2.9 1.91 -6.69 4.18 -15.07 5.85 -23.17 5.51 -2.99 8.6 .65 17.5 4.4 22.45 5.26 6.86 13.89 8.58 22.64 7.64 z"/><path d="m 349.74 418.82 c -7.07 -1.27 -13.82 -4.21 -19.59 -8.61 -3.15 1.39 -6.37 2.51 -9.67 3.14 -.91 8.09 -3.98 15.89 -8.92 22.43 2.83 6.6 8.32 11.77 15.85 12.02 22.89 .77 28.52 -16.44 22.33 -28.98 z"/><path d="m 299.91 475.52 c 12.49 4.66 28.7 -2.67 30.12 -15.87 -9.15 -1.86 -17.22 -6.91 -23.43 -13.8 l -5.97 -1.6 c -4.64 2.15 -9.51 3.44 -14.43 3.89 -3.92 10.25 3.03 23.79 13.71 27.38 z"/><path d="m 279.62 469.51 c -8.41 -12.52 -3.32 -21.38 -3.32 -21.38 -16.68 -.56 -20.85 -20.2 -20.85 -20.2 -10.04 2.93 -17.01 18.18 -15.07 27.33 2.67 16.23 27.3 25.61 39.24 14.25 z"/><path d="m 251.51 418.68 c -.93 -2.46 1.55 -16.8 1.55 -16.8 -4.32 -1.65 -8.02 -10.98 -8.02 -10.98 -8.7 .27 -16.57 4.32 -18.2 14.57 -1.65 10.36 4.91 19.65 14.02 23.34 1.5 -4.01 10.65 -10.13 10.65 -10.13 z"/><path d="m 395.62 410.8 c .98 -6.7 -2.49 -13.09 -6.6 -17.82 -1.92 .66 -3.85 1.23 -5.73 1.61 -3.48 10.11 -10.43 19.06 -20.35 24.54 l -.13 .07 c .91 3.07 1.5 6.21 1.73 9.38 1.82 .88 6.66 1.79 8.53 2 2.83 .33 -6.63 -10.16 -3.97 -12.16 2.7 -2.03 26.18 -5.19 26.52 -7.62 z"/><path d="m 352.87 449.66 c -3.15 2.55 -6.56 4.68 -10.16 6.35 -1.45 11.49 -7.2 22.33 -16.56 29.73 9.53 7.35 25.9 6.25 33.73 -5.09 4.56 -6.47 5.19 -21.84 -7.01 -30.99 z"/><path d="m 365.37 437.39 c -1.08 -.03 -2.16 -.18 -3.24 -.29 -1.11 1.98 -2.41 3.84 -3.82 5.63 6.11 5.67 10.57 13.03 12.77 21.13 13.35 -2.16 23.69 -18.22 13.11 -30.28 -5.84 2.59 -12.19 3.97 -18.82 3.81 z"/><path d="m 317.02 489.75 c -1.14 -1.54 -2.29 -3.08 -3.42 -4.61 -2.4 .38 -4.82 .59 -7.22 .56 -4.47 .49 -8.95 .37 -13.32 -.46 -.08 .36 -.14 .61 -.14 .61 -2.05 9.63 4.06 21.05 14.47 23.11 7.13 1.51 18.89 -2.63 22.31 -10.14 -4.62 -2.23 -8.83 -5.16 -12.54 -8.92 -.06 -.05 -.1 -.1 -.14 -.15 z"/><path d="m 284.77 477.67 c -15.56 10.31 -29.98 5.6 -29.98 5.6 .01 8.56 7.3 15.73 11.24 17.97 6.1 3.49 14.17 4.41 20.61 1.33 -7.09 -13.95 -1.87 -24.9 -1.87 -24.9 z"/><path d="m 263.26 318.61 c 6.39 -5.27 17.98 -6.42 28.3 -5.12 .07 -.1 .13 -.19 .2 -.29 -42 -15.67 -57.44 .32 -66.94 5.57 -14.22 8.32 -29.5 8.05 -43.2 -1.8 2.05 6.2 6.45 12.49 11.16 17.69 13.97 16.13 27.95 19.86 47.08 8.83 11.38 -6.77 14.37 -17.13 23.4 -24.88 z"/><path d="m 286.88 319.12 s -13.51 -1.61 -20.22 3.95 c 0 0 -9.38 14.58 -14.2 17.63 6.39 -1.7 12.34 1.01 16.15 6.24 0 0 -.84 -22.92 18.27 -27.82 z"/></g></svg>