<svg enable-background="new 0 0 100 100" viewBox="0 0 100 100" xmlns="http://www.w3.org/2000/svg"><path d="m 24.1 44.96 s -1.54 -1.39 -2.15 -2.46 c -.62 -1.08 -2.15 -4.08 -4.54 -4.16 s -3.16 -.77 -3.77 -.31 c -.62 .46 -1.16 .62 -1.16 .62 s -4.93 -.54 -5.54 1.23 c -.62 1.77 .39 2.16 .54 2.62 l .46 -.69 .54 .77 .15 -.54 .31 .54 .69 -.31 .23 .54 .39 -.15 .31 .31 .54 -.46 .46 .46 .46 -.46 .39 .46 .38 -.15 s .46 .77 .39 1.39 h -.77 l -.31 -.39 -.31 .54 -.39 -.55 -.15 .46 -.39 -.31 -.31 .23 -.46 -.31 -.31 .23 -.46 -.31 -.84 -.3 -.15 .46 s -.92 .69 .31 1.62 c 1.23 .92 4.62 1 5.23 1.15 .62 .15 .93 .54 1.31 1.08 s 1.08 .69 1.54 .92 1 1 1.31 1.39 c .31 .38 1.39 .69 1.62 1.08 s 1.62 2.54 2.46 3.16 c 0 0 -1.53 .46 -2.45 .37 -.92 -.08 -1.37 .56 -.98 1.15 0 0 .08 -.67 .47 -.7 0 0 .17 .67 .48 .75 0 0 -.31 -.84 .45 -.84 0 0 1.95 -.06 2.51 .22 0 0 -.7 .47 -1.67 .5 -.98 .03 -2.18 .78 -1.34 1.84 0 0 -.03 -.5 .39 -.67 0 0 .42 .84 1.03 .73 0 0 -.7 -.47 -.34 -.87 .36 -.39 2.54 -.98 3.18 -.45 0 0 6.25 7.45 9.79 8.15 0 0 .93 3.7 .08 7.44 -.85 3.75 -2.09 4.47 -2.73 4.64 s -1.32 .3 -1.53 .3 -2 -.26 -2.09 .73 c 0 0 .6 -.47 1.19 -.13 .6 .34 .98 .47 1.62 .3 s 1.58 -.3 2.09 -.09 1.58 .51 2.13 -.13 c .56 -.64 1.19 -1.83 1.58 -1.83 s .51 .21 .51 .55 c 0 0 .43 -.13 .47 -.77 s -.13 -1.11 -.09 -1.66 .55 -2.51 .9 -3.15 c .34 -.64 1.58 -3.62 1.62 -4.18 .04 -.55 .04 -.55 .04 -.55 l 1.49 .09 s 3.41 3.49 4.09 3.92 2.26 1.66 2.22 2.26 .17 3.49 -1.32 4.26 c 0 0 -.68 .34 -1.19 .34 s -1.75 .17 -1.75 .68 c 0 0 .98 -.47 1.36 -.09 0 0 .64 .21 1.15 .17 s .64 -.09 1.11 0 2.56 .13 2.77 -.17 .3 -.85 .3 -.85 .51 .3 .51 .55 c 0 0 .13 -1.28 -.21 -1.83 s .09 -2 .26 -2.47 .6 -.85 .17 -1.32 -2.9 -4.26 -2.94 -5.24 l 7.76 .26 s 12.74 2 19.13 1.66 c 0 0 6.31 .38 9.33 .85 s 9.37 1.49 10.69 2.68 c 0 0 .98 .21 .56 -.21 -.43 -.43 -1.79 -1.24 -1.79 -1.24 s -10.35 -3.62 -13.81 -4.09 c -3.45 -.47 -10.52 -1.83 -12.57 -2.52 -2.05 -.68 -9.59 -3.07 -10.35 -3.54 -.77 -.47 -7.29 -4.64 -7.8 -5.28 s -4.18 -4.18 -6.69 -4.64 -7.2 -1.96 -9.03 -2.3 c -1.84 -.32 -5.6 .03 -8.77 -2.98 z" fill="#fff"/></svg>