<svg enable-background="new 0 0 320 360" height="360" viewBox="0 0 320 360" width="320" xmlns="http://www.w3.org/2000/svg"><path d="m 133.12 151.67 c 2.83 .47 7.01 .71 12.54 .71 s 11.54 -1.12 18.02 -3.36 11.13 -5 13.96 -8.3 c 5.18 -5.65 7.77 -11.07 7.77 -16.25 0 -8 -4.06 -14.01 -12.19 -18.02 -8.13 -4 -16.78 -6.01 -25.97 -6.01 -15.78 0 -29.21 1.65 -40.27 4.95 l -4.95 1.77 c -1.65 0 -2.47 -2.83 -2.47 -8.48 s .59 -11.89 1.77 -18.73 c 1.18 -6.83 2.47 -10.95 3.89 -12.37 11.07 -3.3 23.85 -4.95 38.33 -4.95 14.49 0 26.61 .83 36.39 2.47 9.77 1.65 19.13 4.42 28.09 8.3 8.95 3.89 16.01 9.6 21.2 17.14 5.18 7.54 7.77 16.84 7.77 27.91 s -3.83 20.61 -11.48 28.62 c -7.66 8.01 -15.61 13.43 -23.85 16.25 -1.18 .48 -1.12 .94 .18 1.42 1.29 .47 3.12 1.12 5.48 1.94 2.35 .83 6.59 2.89 12.72 6.18 6.12 3.3 11.48 7.13 16.08 11.48 4.59 4.36 8.77 10.48 12.54 18.37 3.77 7.9 5.65 17.61 5.65 29.15 s -3.36 22.5 -10.07 32.85 c -6.71 10.37 -15.61 18.5 -26.67 24.38 -22.14 11.78 -47.46 17.66 -75.96 17.66 -20.49 0 -36.39 -1.77 -47.69 -5.3 l -5.65 -1.77 c -.95 -1.18 -1.94 -7.89 -3 -20.14 -1.06 -12.24 -1.59 -22.55 -1.59 -30.91 s .12 -13.72 .35 -16.07 c .23 -1.18 3.12 -2.65 8.66 -4.42 5.53 -1.77 10.54 -2.65 15.02 -2.65 4.47 0 6.71 .24 6.71 .71 0 12.49 3.06 22.67 9.19 30.56 6.12 7.89 16.84 11.83 32.15 11.83 s 27.38 -3.94 36.21 -11.83 13.25 -16.72 13.25 -26.5 c 0 -9.77 -2.83 -17.49 -8.48 -23.14 s -13.19 -9.65 -22.61 -12.01 c -15.31 -4.24 -32.03 -6.36 -50.17 -6.36 -.95 0 -1.41 -.23 -1.41 -.7 0 -10.6 2.47 -20.96 7.42 -31.09 1.6 -3.53 2.66 -5.29 3.14 -5.29 z" fill="#fff"/></svg>