<svg enable-background="new 0 0 280.7 282" viewBox="0 0 280.7 282" xmlns="http://www.w3.org/2000/svg"><g fill="#fff"><path d="m 92 183.8 l -56.2 -4.9 h -.2 c -1.3 0 -2.3 1.1 -2.3 2.4 l 1.5 100.7 h 20.1 l 5 -71.2 c .1 -1.2 1.1 -2.2 2.3 -2.2 h 2.8 c 1.2 0 2.3 1 2.3 2.2 l 5 71.2 h 20.2 l 1.6 -95.8 c 0 -1.2 -.9 -2.3 -2.1 -2.4 z"/><path d="m 22.1 118.8 l -14.5 -.3 c -1.7 0 -3.1 1.4 -3.1 3.1 v .1 l -4 81.1 s -.4 4.7 -.5 9.6 c -.1 3.7 -.2 8 1 10.3 .9 2.1 2.1 4.1 3.5 5.9 .4 .4 1 .4 1.4 .1 .2 -.1 .3 -.3 .3 -.6 .4 -2 -1.1 -5.2 -.6 -11.5 .1 -1.7 .5 -3.3 1.1 -4.8 .1 -.2 .3 -.1 .3 0 .3 2 1.3 4.9 1.9 5.1 1.7 .5 2.4 -9 1.7 -11 -.2 -.9 -.7 -1.6 -1.4 -2.1 -.6 -.4 -.9 -1.1 -.8 -1.9 l 16.1 -81 c .5 -1.2 0 -2.3 -2.4 -2.1 z"/><path d="m 123.7 96.1 c -3.7 -4.1 -13.2 -13.5 -17.5 -17 -1.2 -1 -2.7 -1.5 -4.2 -1.5 l -18.9 .1 c -.5 -.1 -1.3 .3 -1.1 .8 3.1 7 -1.9 20.9 -17.9 21.2 -16 -.3 -21 -14.2 -17.9 -21.2 .2 -.5 -.6 -.9 -1.1 -.8 l -18.9 -.1 c -1.5 0 -3 .5 -4.2 1.4 -4.4 3.5 -13.8 13 -17.5 17 -1 1.1 -.7 2.7 .6 4.2 l 25.2 12.8 c 1.3 .7 1.8 .6 1.9 1.7 l .5 55.6 c .1 1.2 1.1 2.2 2.3 2.3 h 58.4 c 1.2 -.1 2.2 -1.1 2.3 -2.3 l .4 -55.6 c 0 -1.1 .8 -2.2 1.8 -2.5 l 25.2 -12.8 c 1.1 -.6 1.5 -1.9 .9 -3 -.1 0 -.2 -.1 -.3 -.3 z"/><path d="m 54 63.1 c 1 1 1.6 2.4 1.5 3.8 l -.5 11.1 c 0 .6 -.5 1 -1.1 1 h -1.8 c -.6 0 -1.1 .4 -1.1 1 v 3.6 c 0 5.8 5.8 10.6 12.9 10.6 8.2 0 14.1 -4.7 14.1 -10.6 v -1 c 0 -.6 -.5 -1.2 -1.2 -1.2 -.4 0 -.8 .2 -1 .5 l -.8 1 c -.4 .5 -1.1 .7 -1.6 .3 -.4 -.3 -.6 -.7 -.5 -1.2 l 1 -5.8 c 0 -.5 -.3 -1 -.8 -1.3 l -3.9 -2.5 -3.4 -2.2 c -.7 -.4 -1 -1.3 -.7 -2 .3 -.8 1.2 -1.2 2 -.9 .1 0 .2 .1 .4 .1 l 5.4 2.2 3.1 1.3 c 7.4 2.6 11.9 3.3 14.5 3.3 s 3.8 -.8 4.2 -1.5 c 2.6 -3.4 3.3 -17.3 3.3 -30.5 0 -7.9 -1.8 -14.6 -5 -20.1 -.2 -.3 -.1 -.6 .2 -.8 h .1 c 4.8 -1.8 9 -6.5 9 -12 v .1 c 0 -1.1 -.9 -2 -2 -2 h -35.5 c -.5 0 -1 0 -1.6 0 -10.2 .3 -25.1 11.6 -25.1 26.7 0 18.4 9.4 24.1 15.9 29 z"/><path d="m 174.3 79.7 h -.1 c -1.9 .7 -3.5 2.2 -4.4 4 l -.5 1 c -.2 .3 -.6 .5 -.9 .3 -.2 -.1 -.4 -.4 -.4 -.6 0 -4.1 3.3 -7.3 7.3 -7.3 h .1 l 8.9 -.7 c .6 0 1.1 -.6 1.1 -1.2 0 -.5 -.5 -1 -1 -1.1 l -12.4 -1.5 c -1.3 -.2 -2.6 -.1 -3.9 .3 l -4.9 2.4 c -1.4 .7 -2.3 1.9 -2.7 3.4 l -3.5 15.6 h .1 l -12.8 26.5 -18.3 -14.7 c -.6 -.5 -1.5 -.6 -2.2 -.2 l -17.2 9 c -1 .5 -1.4 1.7 -.8 2.7 .1 .2 .3 .4 .5 .6 l 33.2 27 c 4.1 3.7 10.4 3.4 14.1 -.7 1 -1.2 1.8 -2.5 2.2 -4 l 8.1 -44.2 2.5 -2 c 4.3 -3.3 7.7 -7.6 9.9 -12.4 .2 -.4 .3 -1 .1 -1.4 -.3 -.8 -1.3 -1.2 -2.1 -.8 z"/><path d="m 202.1 17.2 c .9 .6 2.1 .4 2.8 -.5 l 4.2 -6 c .6 -.9 .4 -2.2 -.5 -2.8 s -2.2 -.4 -2.8 .5 l -4.2 6 c -.7 .9 -.5 2.2 .5 2.8 z"/><path d="m 220 54.3 c .9 .9 1.4 2.2 1.4 3.4 l -.8 17.9 c 0 .6 -.5 1.1 -1.2 1.1 h -1.3 c -.7 0 -1.2 .5 -1.2 1.2 0 .4 .2 .7 .5 .9 7.9 5 18.1 5 26 0 .5 -.4 .6 -1.1 .2 -1.7 -.2 -.3 -.6 -.5 -.9 -.5 h -3.4 c -.6 0 -1.2 -.5 -1.2 -1.2 l .3 -9.1 c 0 -.5 -.3 -.9 -.7 -1.2 l -3.6 -2.3 -3.2 -2 c -.6 -.4 -.9 -1.1 -.6 -1.8 s 1.1 -1 1.8 -.8 c .1 0 .2 .1 .3 .1 l 5 2 2.8 1.1 c 6.8 2.4 10.9 3 13.3 3 s 3.5 -.7 3.8 -1.4 c 2.4 -3.1 3 -15.9 3.1 -28 0 -20.2 -12.7 -32.3 -31.9 -32 -9.3 .2 -23 10.6 -23 24.4 0 17.2 8.6 22.4 14.5 26.9 z"/><path d="m 179.4 62.4 c 3 2.4 -.7 -3.5 -.2 -8.3 1.2 -13.2 18.4 -6.2 20 -22.6 .8 -8.4 -4.5 -10 -4 -15 .2 -2.1 2.1 -3.8 4.5 -5.7 5.6 -4.5 2.9 -10.1 -4.4 -10.8 -6.6 -.6 -13.1 5.1 -14 14.4 s 3 13 4.9 16.4 l 1.4 2 3.4 4.6 c .3 .4 .3 .9 0 1.2 -.3 .5 -.9 .6 -1.4 .3 0 0 -.1 -.1 -.1 -.1 l -2.7 -2.4 c -2.5 5.9 -10.9 4.3 -11.9 14.7 -.7 5.5 3.1 10.1 4.5 11.3 z"/><path d="m 184.2 107.7 c -1.4 -.7 -2.1 -.4 -2.8 .5 -.5 .7 -.8 1.5 -.7 2.4 l -1.2 93.9 s -.2 5 -.3 10.3 c 0 3.9 0 8.5 1 11 .8 2.2 1.9 4.3 3.2 6.3 .5 .7 1.4 .4 1.5 -.5 .3 -2.2 -1 -5.6 -.6 -12.2 .1 -1.7 .4 -3.5 .9 -5.1 .1 -.3 .3 -.2 .3 0 .3 2.1 1.2 5.2 1.8 5.4 1.4 .6 2 -9.6 1.3 -11.7 -.2 -.9 -.6 -1.7 -1.3 -2.3 -.5 -.5 -.8 -1.3 -.7 -2 l 8.5 -84.1 c 0 -.2 0 -.3 .1 -.5 .1 -1.7 -.5 -3.5 -1.8 -4.6 z"/><path d="m 280.7 214.7 c -.1 -5.3 -.3 -10.3 -.3 -10.3 l -1.2 -93.9 c .1 -.9 -.2 -1.7 -.7 -2.4 -.7 -.9 -1.5 -1.2 -2.8 -.5 l -9 6.6 c -1.3 1.2 -1.9 2.9 -1.8 4.6 v .5 l 8.5 84.1 c .1 .7 -.2 1.5 -.7 2 -.7 .6 -1.1 1.4 -1.3 2.3 -.7 2.2 -.1 12.3 1.3 11.7 .5 -.2 1.4 -3.3 1.8 -5.4 0 -.2 .2 -.3 .3 0 .5 1.7 .8 3.4 .9 5.1 .3 6.7 -1 10.1 -.6 12.2 .1 .9 1 1.2 1.5 .5 1.3 -2 2.4 -4.1 3.2 -6.3 .9 -2.3 .9 -6.8 .9 -10.8 z"/><path d="m 266 108.5 l 10.2 -7.2 c 2.7 -1.9 3.3 -5.5 1.5 -8.2 l -7.8 -11.7 c -2.4 -2.6 -5.7 -4 -9.2 -4 h -.1 l -6 .5 c -1.1 .1 -2.2 .6 -2.9 1.5 -2 2.4 -7.4 7.3 -19.8 7.8 -.6 0 -1.2 0 -1.8 0 s -1.2 0 -1.8 0 c -12.4 -.5 -17.9 -5.3 -19.8 -7.8 -.7 -.9 -1.8 -1.4 -2.9 -1.5 l -6 -.5 h -.1 c -3.5 0 -6.9 1.4 -9.2 4 l -7.8 11.7 c -1.8 2.7 -1.1 6.4 1.5 8.2 l 10.2 7.2 c 1.3 .7 2.9 .2 3.6 -1.1 0 0 0 0 0 -.1 l 5 -7.4 c .2 -.6 .9 -.8 1.4 -.6 s .8 .8 .6 1.3 l -2.4 8.4 c -1 4.9 0 10.1 2.9 14.2 7 10.5 7.1 19.9 6.4 24.8 -.1 .5 .3 .9 .8 1 h .1 35.2 c .5 -.1 .8 -.5 .8 -1 -.8 -4.9 -.7 -14.3 6.4 -24.8 2.9 -4.1 3.9 -9.3 2.9 -14.2 l -2.4 -8.4 c -.2 -.6 .2 -1.2 .8 -1.3 .5 -.1 1.1 .1 1.3 .6 l 5 7.4 c .5 1.4 2.1 1.9 3.4 1.2 z"/><path d="m 249.8 155.6 h -39.7 c -1.1 .1 -2 .9 -2.4 1.9 -10.4 23.2 -5.3 60.7 -2.5 79.3 1.4 9.2 2.7 27.2 3.7 45.2 h 13.8 l 1.7 -35.6 1.4 -27.4 1.4 -25.1 c .1 -1.3 1.3 -2.4 2.6 -2.3 h .1 c 1.4 0 2.5 1 2.6 2.3 l 1.5 25.1 1.4 27.4 1.7 35.6 h 13.9 c 1 -18 2.3 -36 3.7 -45.2 2.8 -18.6 7.9 -56.1 -2.5 -79.3 -.4 -1.1 -1.3 -1.8 -2.4 -1.9 z"/></g></svg>