<svg viewBox="0 0 300 300" xmlns="http://www.w3.org/2000/svg"><g fill="#fff"><path d="m 157.54 38 a 8.73 8.73 0 0 1 .58 1 l .08 .16 a 7.75 7.75 0 0 1 .43 1.13 8.13 8.13 0 0 1 .25 1.11 v .29 a 9.47 9.47 0 0 1 .17 1.31 8.3 8.3 0 0 1 -.14 1.5 8.57 8.57 0 0 1 -.5 1.82 9.01 9.01 0 0 1 -17.4 -3.2 v -.12 a 9.51 9.51 0 0 1 .07 -1.08 2.81 2.81 0 0 1 0 -.29 3.56 3.56 0 0 1 .15 -.79 1.34 1.34 0 0 1 .07 -.27 9.12 9.12 0 0 1 .3 -.88 v -.1 a 9 9 0 0 1 .48 -1 9.74 9.74 0 0 0 -1.83 4.95 v .78 a 10.53 10.53 0 0 0 .15 1.7 9.8 9.8 0 0 0 19.08 .95 9.26 9.26 0 0 0 .33 -1.92 v -.73 a 9.77 9.77 0 0 0 -2.27 -6.32 z" opacity=".3"/><path d="m 143.6 49.39 a 9.05 9.05 0 0 0 12.21 .54 9.05 9.05 0 0 1 -12.21 -.54 z"/><path d="m 159.06 43 a 9.65 9.65 0 0 0 -.09 -1.2 v -.29 a 8.44 8.44 0 0 0 -.25 -1.11 7.75 7.75 0 0 0 -.43 -1.13 l -.08 -.16 a 8.73 8.73 0 0 0 -.58 -1 9.06 9.06 0 0 0 -15.93 1.55 v .1 a 9.12 9.12 0 0 0 -.3 .88 .4 .4 0 0 1 -.07 .27 c -.06 .26 -.11 .52 -.15 .79 a 2.81 2.81 0 0 0 0 .29 9.51 9.51 0 0 0 -.07 1.08 v .12 a 9 9 0 0 0 14.85 6.81 9.11 9.11 0 0 0 2.59 -3.61 8.57 8.57 0 0 0 .5 -1.82 8.32 8.32 0 0 0 .01 -1.57 z" opacity=".6"/><path d="m 288.88 90.36 a 20 20 0 0 1 8.16 16.1 v 111.87 a 20 20 0 0 1 -20 20 h -256.4 a 19.95 19.95 0 0 1 -9.51 -2.4 19.91 19.91 0 0 0 11.84 3.9 h 256.4 a 20 20 0 0 0 20 -20 v -111.83 a 20 20 0 0 0 -10.49 -17.64 z" opacity=".1"/><path d="m 140.26 43.55 l -68.84 42.91 h 4.09 l 64.88 -40.46 a 10.53 10.53 0 0 1 -.15 -1.7 q 0 -.36 .02 -.75 z"/><path d="m 159.79 45.06 a 9.26 9.26 0 0 1 -.33 1.92 l 63.36 39.48 h 3.41 z"/><path d="m 140.26 43.55 a 9.74 9.74 0 0 1 1.79 -4.95 9 9 0 0 1 15.49 -.6 9.77 9.77 0 0 1 2.29 6.29 v .73 l 66.44 41.4 h 15.13 l -90.47 -56.31 a 4 4 0 0 0 -4.23 0 l -90.41 56.35 h 15.13 z" opacity=".3"/><path d="m 288.88 90.36 a 19.9 19.9 0 0 0 -11.82 -3.9 h -256.42 a 20 20 0 0 0 -20 20 v 111.87 a 20 20 0 0 0 20 20 h 256.42 a 20 20 0 0 0 20 -20 v -111.87 a 20 20 0 0 0 -8.18 -16.1 z m 1.67 126.08 a 17.65 17.65 0 0 1 -17.59 17.56 h -248.25 a 17.65 17.65 0 0 1 -17.6 -17.6 v -108.27 a 17.65 17.65 0 0 1 17.6 -17.6 h 248.25 a 17.65 17.65 0 0 1 17.59 17.6 z" opacity=".4"/><path d="m 150.06 176.31 l -28.35 34.69 -14.74 -12.06 30.82 -37.66 -30.82 -37.65 14.74 -12.07 28.35 34.68 28.38 -34.69 14.74 12.07 -30.82 37.65 25.7 31.29 c 28.83 -29.9 33.26 -65.92 34.09 -102 h -197.44 a 17.65 17.65 0 0 0 -17.6 17.6 v 108.28 a 17.65 17.65 0 0 0 17.6 17.56 h 93.8 c 23.25 -8.34 41.28 -18.06 55.26 -28.81 z m -96.84 -83.75 a 3.73 3.73 0 0 0 .2 .4 3.73 3.73 0 0 1 -.2 -.4 z"/><path d="m 272.95 90.53 h -50.89 c -.83 36.11 -5.26 72.13 -34.09 102 l 5.19 6.34 -14.68 12.13 -4.69 -5.73 c -14 10.75 -32 20.47 -55.26 28.81 h 154.42 a 17.64 17.64 0 0 0 17.59 -17.6 v -108.35 a 17.64 17.64 0 0 0 -17.59 -17.6 z" opacity=".8"/><path d="m 162.4 161.27 l 30.82 -37.65 -14.74 -12.06 -28.38 34.68 -28.39 -34.68 -14.74 12.06 30.82 37.65 -30.82 37.66 14.74 12.06 28.39 -34.68 23.69 28.95 4.69 5.73 14.74 -12.06 -5.19 -6.34 z" opacity=".15"/></g></svg>