<svg enable-background="new 0 0 725.6195679 945.6542969" viewBox="0 0 725.62 945.65" xmlns="http://www.w3.org/2000/svg"><path d="m 691.2 592.64 c -7.58 52.15 -26.55 100.5 -52.15 146.01 -22.75 41.72 -51.2 79.64 -90.07 108.08 -37.92 27.49 -115.67 47.41 -176.35 26.54 -60.68 20.86 -138.42 0 -176.35 -26.54 -38.87 -28.44 -67.32 -66.37 -90.07 -108.08 -25.6 -45.51 -43.61 -93.86 -52.15 -146.01 -8.53 -55.94 -4.74 -109.98 21.8 -161.18 26.55 -50.25 69.21 -78.69 123.25 -93.86 42.66 -11.38 86.28 -14.22 129.89 -5.69 13.27 2.84 26.54 12.33 39.82 15.17 .95 -5.69 .95 -10.43 1.9 -16.12 -.95 -9.48 -3.79 -18.96 -7.58 -28.44 -15.17 -34.13 -37.92 -55.94 -69.21 -74.9 -21.81 -12.33 -43.61 -24.65 -66.37 -33.18 -.95 0 -1.9 0 -3.79 -.95 0 .95 0 .95 -.95 1.9 1.9 .95 3.79 1.9 4.74 3.79 25.6 15.17 50.25 31.29 73 50.25 16.12 14.22 28.44 31.29 37.92 51.2 -5.69 2.84 -11.38 5.69 -18.01 7.59 -25.6 8.53 -51.2 4.74 -74.9 -6.64 -33.18 -15.17 -56.89 -40.77 -74.9 -72.06 -29.39 -53.1 -36.03 -108.08 -20.86 -166.87 1.9 -6.64 3.79 -13.27 6.64 -19.91 .97 -1.9 3.81 -4.74 5.71 -4.74 s 4.74 2.84 5.69 4.74 c 16.12 27.5 37.92 48.35 67.32 58.78 14.22 4.74 30.34 7.58 45.51 10.43 18.96 3.79 37.92 6.64 55.94 16.12 25.6 13.27 45.51 31.29 54.04 59.73 7.58 23.7 3.79 45.51 -7.58 66.37 -4.74 7.58 -4.74 12.32 0 19.91 0 .95 .95 .95 .95 1.9 6.64 -18.01 16.12 -35.08 29.39 -50.25 12.33 -16.12 28.44 -29.39 43.61 -42.66 8.53 -7.58 19.91 -10.43 32.23 -6.64 14.22 3.79 18.01 16.12 7.58 27.5 -2.84 3.79 -7.58 6.64 -11.38 9.48 -50.25 33.18 -86.28 77.74 -107.13 134.63 12.32 -2.84 25.6 -12.32 37.92 -14.22 43.61 -9.48 87.23 -6.64 129.89 5.69 53.1 15.17 96.71 43.61 123.25 93.86 26.55 49.29 30.34 103.34 21.81 159.27 z" fill="#fff"/></svg>