<svg enable-background="new 0 0 320 360" height="360" viewBox="0 0 320 360" width="320" xmlns="http://www.w3.org/2000/svg"><path d="m 162.01 296.41 c 0 1.53 -3.95 2.64 -11.86 3.29 l -3.62 .33 c -15.81 0 -26.24 -1.76 -31.29 -5.27 -1.98 -1.1 -2.96 -2.09 -2.96 -2.96 0 -15.59 2.52 -32.6 7.58 -51.05 5.05 -18.44 10.87 -34.91 17.45 -49.4 6.59 -14.49 13.94 -28.76 22.06 -42.81 10.54 -18.44 19.65 -33.04 27.34 -43.8 0 -2.19 -8.29 -3.29 -24.87 -3.29 s -27.72 2.86 -33.43 8.56 c -5.49 5.05 -9.22 13.06 -11.2 24.04 l -.99 5.27 c -1.1 1.1 -5.66 .33 -13.67 -2.31 -8.02 -2.63 -12.79 -5.38 -14.33 -8.23 -.66 -1.1 -.83 -10.76 -.5 -28.98 s 1.15 -27.99 2.47 -29.31 10.21 -1.98 26.68 -1.98 29.25 .06 38.37 .16 c 9.11 .11 17.51 .17 25.19 .17 21.29 .44 35.79 -.33 43.47 -2.31 2.41 -.66 5.6 2.86 9.55 10.54 3.95 7.69 5.93 13.62 5.93 17.78 -3.74 2.64 -9.71 9.88 -17.95 21.74 -8.23 11.86 -16.96 26.3 -26.18 43.31 -9.22 17.02 -17.24 36.72 -24.04 59.12 -6.81 22.4 -10.21 43.14 -10.21 62.25 v 2.96 c .02 5.92 .35 9.98 1.01 12.18 z" fill="#fff"/></svg>