<svg viewBox="0 0 300 300" xmlns="http://www.w3.org/2000/svg"><g fill="#fff"><path d="m 216.92 56.2 l -98.03 119.78 -47.82 -57.63 -22.39 18.58 70.37 84.79 120.38 -147.09 z" opacity=".3"/><path d="m 286.47 122.72 a 133.61 133.61 0 0 0 -41.57 -79.06 134.2 134.2 0 0 1 -122.79 223.05 l -36.92 25.43 7.36 7.36 36.92 -25.43 a 134.19 134.19 0 0 0 157 -151.35 z" opacity=".3"/><path d="m 279.11 115.36 a 134.19 134.19 0 1 0 -199.93 135.51 l .44 3.07 5.57 38.2 36.92 -25.43 a 134.19 134.19 0 0 0 157 -151.35 z m -160.06 106.36 l -70.37 -84.79 22.39 -18.58 47.82 57.65 98 -119.77 22.51 18.42 z"/></g></svg>