<svg enable-background="new 0 0 745.0150757 935.819397" viewBox="0 0 745.02 935.82" xmlns="http://www.w3.org/2000/svg"><path d="m 739.45 435.45 c -3.86 -17.91 -60.78 8.95 -60.78 8.95 20.89 -15.41 63.19 -67.16 60.68 -82.07 -2.47 -14.92 -31.33 5.96 -31.33 5.96 7.95 -15.41 9.8 -82.73 -3.98 -88.04 -22.9 -8.82 -70.14 69.65 -69.64 67.65 .48 -1.99 -4.49 -25.87 -14.62 -24.87 -10.1 .99 -52.56 97 -52.56 97 -1.97 -8.46 -6.45 -16.4 -13.43 -28.35 -6.96 -11.95 -12.91 -3.48 -20.38 23.38 -7.48 26.86 -27.36 65.16 -53.21 98.5 -25.88 33.33 -68.15 65.15 -69.15 57.71 -1.01 -7.48 15.93 -81.59 48.27 -126.37 32.32 -44.76 83.04 -66.16 105.95 -84.06 22.88 -17.91 31.34 -27.35 30.85 -34.32 -.5 -6.96 -26.37 1 -26.87 -.99 -.5 -2 5.98 -8.46 33.34 -28.35 27.34 -19.9 -11.09 -16.89 -4.81 -22.54 13.61 -12.25 24.71 -42.62 21.71 -46.6 -2.98 -3.98 -31.85 4.98 -49.25 16.41 -17.41 11.45 -61.18 58.2 -63.18 55.22 -1.98 -2.99 15.41 -19.4 52.72 -60.69 37.32 -41.29 47.26 -83.06 44.78 -92.02 -2.49 -8.96 -60.7 17.41 -59.21 16.92 s 51.25 -70.64 49.26 -80.08 c -2.01 -9.45 -28.85 0 -28.85 0 8.45 -19.9 5.47 -72.13 -6.98 -78.1 -12.43 -5.98 -41.3 28.84 -41.3 28.84 s -4.47 -10.93 -11.45 -9.44 c -6.95 1.49 -18.89 52.72 -18.89 52.72 s -1.98 -5.47 -9.94 -18.41 c -7.96 -12.92 -11.95 -12.25 -22.4 2.66 -10.43 14.92 -17.4 76.45 -17.4 76.45 -2.99 -12.44 -11.46 -56.71 -32.35 -55.72 -20.88 1 -36.8 69.14 -37.3 122.86 -.5 53.73 -4.48 37.32 -15.92 -4.47 -11.45 -41.79 -30.67 -62.35 -39.63 -60.86 -8.95 1.5 -9.96 17.58 -11.27 37.82 -.87 13.24 1.31 17.57 -8.8 6.63 -17.98 -19.46 -24.38 -5.47 -19.63 10.45 4.73 15.92 19.63 53.22 19.63 53.22 s -11.93 -17.91 -31.33 -28.85 c -19.4 -10.95 -26.86 1.49 -19.4 27.36 7.47 25.85 38.3 130.32 48.75 177.58 10.44 47.26 2.98 138.79 2.98 138.79 -22.39 -64.67 -102.97 -208.93 -116.91 -207.44 -13.93 1.49 -12.26 30.34 -12.26 30.34 -7.79 -18.41 -22.75 -44.34 -32.17 -45.59 -4.98 -.65 -12.27 13.76 -12.27 13.76 -13.43 -10.44 -40.3 -28.36 -50.75 -19.39 -10.45 8.96 .49 40.29 .49 40.29 -17.9 -3.49 -19.4 1.49 -10.45 13.93 8.96 12.43 32.83 32.82 32.83 32.82 s -3.48 -2.49 -18.91 -4.98 c -15.41 -2.49 -22.88 -7.46 -15.91 9.45 6.96 16.92 49.25 65.66 49.25 65.66 s -21.89 -14.44 -46.26 -22.89 -49.25 -13.92 -54.22 -2.49 c -4.98 11.46 21.87 51.74 21.87 51.74 l -18.9 6.45 s -11.11 2.67 32.59 28.86 c 12.52 7.51 28.19 15.93 35.04 19.55 -3.15 .14 -8.9 1.19 -19.37 4.31 -33.18 9.95 -26.21 26.52 12.59 33.18 36.39 6.23 68.49 10.1 99.82 19.05 31.34 8.96 41.44 14.11 81.09 46.26 41.79 33.94 54.48 58.37 49.01 117.55 0 0 .01 .08 .02 .1 -3.39 41.19 -4.07 86.4 2.1 133.62 1.42 10.9 40.76 -6.95 35.06 -22.47 -13.91 -37.85 -15.46 -52.18 -7.84 -119.23 11.5 -101.06 158.96 -114.54 239.48 -132.93 80.61 -18.42 107.94 -33.84 106.97 -42.28 -1.01 -8.47 -6.47 -13.94 -6.47 -13.94 12.42 -8.95 38.29 -28.34 32.82 -50.24 -5.48 -21.87 -106.94 18.92 -106.94 18.92 4.98 -3.49 49.24 -26.86 91.03 -56.71 41.86 -29.86 57.77 -55.24 53.89 -73.14 z" fill="#fff"/></svg>