<svg viewBox="0 0 300 300" xmlns="http://www.w3.org/2000/svg"><g fill="#fff"><path d="m 157.54 38 c .21 .33 .4 .68 .58 1 0 .06 .05 .11 .07 .16 a 8.96 8.96 0 0 1 .44 1.13 8.13 8.13 0 0 1 .25 1.11 v .29 a 8.03 8.03 0 0 1 .09 1.2 9.35 9.35 0 0 1 -.63 3.32 9.14 9.14 0 0 1 -2.6 3.61 9 9 0 0 1 -12.2 -.54 8.88 8.88 0 0 1 -2.3 -3.93 9.45 9.45 0 0 1 -.35 -2.34 v -.01 a 9.51 9.51 0 0 1 .07 -1.08 v -.29 a 6.87 6.87 0 0 1 .16 -.79 c .02 -.09 .04 -.18 .07 -.27 a 9.06 9.06 0 0 1 .29 -.88 .83 .83 0 0 1 0 -.1 8.93 8.93 0 0 1 .47 -1 9.73 9.73 0 0 0 -1.82 4.95 6.77 6.77 0 0 0 0 .78 9.42 9.42 0 0 0 .23 1.68 9.79 9.79 0 0 0 19.07 .95 9.34 9.34 0 0 0 .34 -1.92 v -.73 a 9.77 9.77 0 0 0 -2.23 -6.3 z" opacity=".3"/><path d="m 143.6 49.39 a 9 9 0 0 0 12.2 .54 9 9 0 0 1 -12.2 -.54 z"/><path d="m 159.03 43 a 8.03 8.03 0 0 0 -.09 -1.2 v -.29 a 8.44 8.44 0 0 0 -.25 -1.11 8.96 8.96 0 0 0 -.44 -1.13 1.65 1.65 0 0 1 -.07 -.16 8.74 8.74 0 0 0 -.58 -1 9 9 0 0 0 -15.93 1.55 .83 .83 0 0 0 0 .1 9.06 9.06 0 0 0 -.29 .88 c -.03 .09 -.05 .18 -.07 .27 a 6.87 6.87 0 0 0 -.16 .79 v .29 a 9.51 9.51 0 0 0 -.07 1.08 v .12 a 9.45 9.45 0 0 0 .35 2.34 8.88 8.88 0 0 0 2.3 3.93 9 9 0 0 0 12.2 .54 9.14 9.14 0 0 0 2.6 -3.61 9.35 9.35 0 0 0 .63 -3.32 z" opacity=".6"/><path d="m 288.87 90.36 a 19.94 19.94 0 0 1 8.17 16.1 v 111.87 a 20 20 0 0 1 -20 20 h -256.4 a 19.87 19.87 0 0 1 -9.51 -2.4 19.88 19.88 0 0 0 11.83 3.9 h 256.41 a 20 20 0 0 0 20 -20 v -111.83 a 20 20 0 0 0 -10.5 -17.64 z" opacity=".1"/><path d="m 140.26 43.55 l -68.9 42.91 h 4.1 l 64.91 -40.46 a 9.51 9.51 0 0 1 -.16 -1.7 6.73 6.73 0 0 1 .05 -.75 z"/><path d="m 159.79 45.06 a 9.34 9.34 0 0 1 -.34 1.92 l 63.37 39.48 h 3.41 z"/><path d="m 140.26 43.55 a 9.73 9.73 0 0 1 1.82 -4.95 9 9 0 0 1 15.46 -.6 9.77 9.77 0 0 1 2.29 6.29 v .73 l 66.44 41.4 h 15.09 l -90.44 -56.31 a 4 4 0 0 0 -4.23 0 l -90.41 56.35 h 15.09 z" opacity=".3"/><path d="m 290.54 216.44 v -108.31 a 17.65 17.65 0 0 0 -17.6 -17.6 h -50.85 c -1.25 55.25 -10.94 110.27 -103.59 143.47 h 154.44 a 17.65 17.65 0 0 0 17.6 -17.56 z" opacity=".8"/><path d="m 288.87 90.36 a 19.88 19.88 0 0 0 -11.83 -3.9 h -256.4 a 20 20 0 0 0 -20 20 v 111.87 a 20 20 0 0 0 20 20 h 256.4 a 20 20 0 0 0 20 -20 v -111.87 a 19.94 19.94 0 0 0 -8.17 -16.1 z m 1.68 126.08 a 17.65 17.65 0 0 1 -17.6 17.6 h -248.25 a 17.65 17.65 0 0 1 -17.59 -17.6 v -108.31 a 17.65 17.65 0 0 1 17.59 -17.6 h 248.25 a 17.65 17.65 0 0 1 17.6 17.6 z" opacity=".4"/><path d="m 222.09 90.53 h -197.39 a 17.65 17.65 0 0 0 -17.59 17.6 v 108.31 a 17.65 17.65 0 0 0 17.59 17.56 h 93.8 c 92.65 -33.2 102.34 -88.22 103.59 -143.47 z m -168.87 2 a 3.52 3.52 0 0 0 .15 .47 3.74 3.74 0 0 1 -.15 -.44 z m 31.89 68.37 l 15 -12.41 31.9 38.51 65.48 -80 15 12.31 -80.41 98.26 z"/><path d="m 212.53 119.31 l -15.03 -12.31 -65.49 80.02 -31.95 -38.5 -14.95 12.41 47.01 56.64 z" opacity=".15"/></g></svg>