<svg enable-background="new 0 0 767.694397 753.4042969" viewBox="0 0 767.69 753.4" xmlns="http://www.w3.org/2000/svg"><path d="m 749.17 325.22 c -3.22 -8.32 -9.49 -15.09 -15.89 -21.72 -.95 -3.64 -1.92 -7.26 -2.79 -10.86 -.99 -4.13 -1.96 -8.43 -2.61 -12.78 2.74 -9.73 6.51 -19.1 10.2 -28.53 1.44 -1.5 2.98 -3.09 4.62 -4.83 13.33 -14.21 21.33 -41.76 .89 -72.84 -20.43 -31.07 -73.72 -23.08 -97.7 -39.07 s -65.72 -73.72 -112.78 -20.43 c -20.43 -7.11 3.55 -31.97 -8 -45.29 -11.54 -13.33 -40.86 -5.33 -40.86 -29.31 s -16.88 -38.19 -73.72 -33.75 -122.57 52.4 -135.89 67.5 c -13.33 15.1 -20.46 36.41 -28.43 50.62 -20.42 -.89 -53.3 -28.42 -84.38 -10.67 -31.07 17.77 -20.42 44.41 -63.05 60.4 -42.64 15.99 -71.95 51.5 -87.05 115.45 -13.92 58.94 -9.61 132.04 45.39 139.66 -1.87 7.63 -3.11 15.38 -3.67 23.08 -23.19 36.79 -10.03 72.23 10.66 96.61 21 24.74 57.74 34.25 86.85 32.35 2.69 1.81 5.33 3.68 7.92 5.63 10.48 7.92 20.81 18.18 24.64 31.07 .27 .92 .73 1.64 1.29 2.19 1.18 7.3 5.41 14.29 13.38 17.57 15.1 6.22 18.67 30.21 33.77 63.96 s 55.95 55.06 103.91 44.4 c 47.95 -10.66 63.06 -21.3 113.69 -9.76 50.62 11.53 89.7 -1.79 102.14 -28.43 s 41.74 -39.96 63.06 -50.62 c 18.33 -9.16 38.52 -30.81 16.73 -52.5 .14 -1.44 .28 -2.87 .42 -4.31 3.89 -7.07 8.14 -13.99 12.27 -20.96 10.16 -6.2 19.45 -13.6 33.65 -28.81 24.86 -26.65 59.5 -20.44 63.95 -55.07 4.44 -34.64 -15.99 -44.41 6.21 -83.49 20.49 -35.99 18.32 -71.98 1.18 -86.46 z m -197.98 -167.32 c 15.56 11.45 29.23 25.3 36.82 43.38 3.58 8.98 4.93 18.92 3.54 28.34 -1.23 9.48 -5.33 18.17 -10.51 25.73 3.91 -8.32 6.64 -17.16 6.88 -26.04 .29 -8.89 -1.95 -17.59 -6.04 -25.26 -7.99 -15.43 -22.13 -27.67 -36.44 -37.12 -14.52 -8.51 -32.57 -9.76 -51.27 -14.6 -4.77 -1.31 -9.36 -2.96 -14.35 -5.75 -4.31 -2.56 -8.06 -5.38 -11.73 -7.84 -7.19 -5.03 -14.28 -8.11 -22.61 -9.66 -16.48 -3.17 -35.12 -1.82 -52.56 .03 -17.03 2.22 -33.41 9.52 -48.28 19.08 -14.87 9.69 -28.36 21.83 -40.18 35.47 -11.96 13.55 -22.23 28.8 -28.94 45.93 3.79 -18.16 13.18 -34.73 23.69 -50.07 10.94 -15.12 24.01 -28.94 39.37 -40.11 15.2 -11.3 33.06 -19.78 52.41 -23.12 18.89 -2.4 37.4 -4.02 57.15 -.67 9.77 1.77 19.78 6.39 27.53 12.05 3.92 2.7 7.5 5.44 11.06 7.6 3 1.74 7.08 3.33 11.1 4.58 16.36 5.2 36.35 6.65 53.36 18.05 z m -44.11 352.49 c -1.82 -3.81 -.56 -8.84 1.89 -12.38 2.34 -3.7 5.36 -6.69 8.2 -9.67 5.73 -5.63 11.78 -11.44 15.26 -16.99 2.18 -4.03 .59 -11.44 -2.1 -18.54 -2.54 -7.21 -5.7 -14.69 -8.62 -22.39 -5.54 -15.34 -10.15 -32.93 -6.88 -50.4 1.42 -8.67 5.03 -16.82 9.26 -23.91 3.92 -7.08 10.02 -13.26 6.91 -21.41 2.9 2.99 3.75 8.02 2.74 12.26 -.81 4.29 -2.39 8.15 -3.59 11.95 -2.67 7.54 -4.38 14.91 -4.75 22.36 -.73 14.98 3.58 29.62 9.18 44.44 2.61 7.5 5.69 14.98 8.13 23.17 1.13 4.11 2.15 8.44 2.48 13.22 .35 4.67 -.33 10.51 -3.85 15.2 -6.16 7.52 -13.16 11.69 -19.9 16.27 -3.4 2.16 -6.69 4.34 -9.53 6.86 -2.79 2.47 -5.08 5.74 -4.83 9.96 z m -241.62 -121.26 c 6.67 10.89 17.05 18.56 27.81 26.34 9.81 7.29 22.21 10.28 34.96 12.59 l 19.67 2.91 5.13 .83 c 1.63 .31 3.22 .53 5.33 1.04 3.91 .99 7.53 2.49 10.81 4.23 13.09 6.9 22.64 16.69 33.3 21.92 1.3 .64 2.61 1.23 3.91 1.68 l 1.79 .59 c .46 .15 1.86 .46 2.03 .5 2.23 .41 4.65 .43 7.27 -.14 5.25 -1.1 10.85 -4.05 16.36 -7.38 5.61 -3.26 11.24 -6.97 17.38 -10.34 6.01 -3.24 13.32 -6.61 21.24 -6.02 7.75 .52 14.13 4.09 19.95 7.43 2.93 1.7 5.75 3.49 8.65 5.03 2.89 1.52 5.88 3.11 9.29 2.89 -6.9 1.69 -13.56 -2.21 -19.67 -4.23 -6.19 -2.34 -12.53 -4.06 -18.29 -3.7 -5.68 .24 -10.77 3.54 -16.13 7 -5.31 3.56 -10.51 7.73 -16.16 11.7 -5.73 3.84 -11.85 7.8 -19.63 9.98 -3.87 1.04 -8.25 1.56 -12.63 .75 -1.47 -.28 -1.71 -.34 -2.85 -.62 -1.07 -.29 -2.1 -.59 -3 -.91 -1.87 -.62 -3.64 -1.37 -5.34 -2.19 -13.46 -6.68 -23.26 -16.23 -33.82 -21.96 -2.61 -1.43 -5.23 -2.53 -7.79 -3.22 -1.12 -.3 -2.84 -.61 -4.5 -.94 l -4.77 -.85 c -6.52 -1.06 -13.2 -2.26 -19.93 -3.69 -13.26 -2.9 -27.66 -7.11 -38.83 -16.88 -10.25 -8.48 -21.08 -18.4 -27.02 -31.42 -5.93 -13 -6.19 -27.67 -2.38 -40.5 -1.02 13.34 .85 26.89 7.86 37.58 z m 8.34 -38 c 5.67 .88 11.58 1.77 16.92 5.18 5.44 3.44 8.72 9.24 11.21 14.59 2.5 5.46 4.08 11.36 6.45 15.79 2.42 4.72 5.19 9.04 8.96 11.9 3.64 2.99 8.17 4.48 13.04 5.42 5.09 .91 9.82 .52 16.37 .64 6.2 .17 12.7 1.31 18.9 3.71 6.25 2.38 11.54 6.1 16.14 8.97 4.5 2.87 9.41 5.72 13.1 6.43 3.61 .87 7.83 -.38 12.66 -2.42 9.46 -4.06 19.35 -11.57 31.36 -15.2 11.79 -4.17 25.63 -3.59 36.69 1.67 11.14 5.23 19.91 13.48 26.99 22.6 -9.18 -6.99 -18.85 -13.38 -29.32 -16.3 -10.41 -3.15 -21.05 -2.14 -30.69 2.06 -9.79 4.09 -18.31 11.04 -29.54 16.93 -5.47 2.72 -12.79 5.32 -20.63 3.85 -3.79 -.69 -6.99 -2.05 -9.93 -3.49 -2.75 -1.36 -5.51 -2.92 -8.06 -4.55 -5.06 -3.32 -9.24 -6.29 -13.74 -8.1 -4.48 -1.89 -9.45 -2.74 -14.71 -3.24 -10.25 -.35 -25.74 -.94 -35.67 -11.02 -10.18 -9.5 -11.91 -23.22 -14.61 -33.31 -1.47 -5.31 -3.47 -10.3 -7.27 -13.94 -3.84 -3.68 -9.32 -5.96 -14.62 -8.17 z m 173.9 -111.69 c -24.42 -7.97 -50.77 -9.79 -75.58 -4.35 -24.86 5.11 -47.94 17.77 -66.01 35.98 -18.08 18.27 -31.28 41.64 -40.34 66.87 3.86 -26.49 14.2 -52.98 32.46 -74.12 17.92 -21.35 43.55 -36.3 71.03 -42.14 27.52 -5.77 56.57 -3 82.19 7.75 25.67 10.43 47.87 29.53 60.34 53.44 -16.98 -20.87 -39.73 -35.32 -64.09 -43.43 z m 59.81 28.67 c -5.45 -9.02 -12.18 -17.36 -18.76 -26.74 -3.3 -4.63 -6.48 -9.7 -8.75 -15.35 -2.17 -5.67 -3.06 -12.09 -1.34 -17.68 2.61 11.44 10.48 18.29 18.25 26.16 7.96 7.66 16.06 16.27 22.28 26.43 12.63 20.36 16.44 45.49 11.05 67.79 -2.97 -11.16 -5.61 -21.86 -9.17 -32.01 -3.63 -10.13 -8.04 -19.64 -13.56 -28.6 z m -26.9 -71.82 c -11.31 -.08 -23.67 4.08 -36.13 7.89 -12.69 3.85 -26.86 6.45 -40.55 5.94 -13.83 -.56 -26.75 -3.05 -39.37 -4.66 -12.54 -1.62 -24.75 -1.14 -36.85 2.85 -12.12 3.72 -23.73 9.81 -35.32 15.96 9.88 -8.65 20.65 -16.43 32.89 -22.23 6.15 -2.83 12.75 -4.97 19.59 -6.2 s 13.81 -1.3 20.52 -1.05 c 13.42 .42 26.33 2.6 38.67 2.33 12.47 .04 24.31 -2.19 36.54 -6.09 12.49 -3.41 25.32 -8.14 40.34 -7.7 14.48 .8 28.3 5.96 39.47 14.65 5.57 4.34 10.66 9.47 14.32 15.77 2.1 3.55 2.86 6.16 4.46 8.81 1.42 2.69 3.25 5.22 5.09 7.75 3.76 5 8.22 9.6 13.09 13.72 4.95 3.96 10.2 7.99 16.58 9.56 -6.68 -.13 -12.98 -3.18 -18.76 -6.47 -5.8 -3.38 -11.09 -7.64 -15.97 -12.41 -2.36 -2.48 -4.65 -5.06 -6.64 -7.92 -2.1 -2.76 -3.79 -6.27 -5.34 -8.15 -3.51 -4.65 -7.99 -8.74 -13.04 -11.97 -10.08 -6.43 -21.92 -10.43 -33.59 -10.38 z m -162.46 35.97 c -8.74 -.46 -17.98 -1.15 -25.4 2.57 -7.44 3.77 -12.31 10.91 -17.18 18.19 -2.49 3.63 -4.93 7.33 -8.11 10.99 -3.1 3.66 -7.72 7.04 -12.68 8.51 -4.92 1.6 -9.74 1.93 -14.37 2.04 l -3.11 .03 c -1.11 .06 -2.35 .13 -2.72 .33 -1.2 .25 -2.96 .97 -4.4 1.85 -6.08 3.69 -11.16 10.48 -15.36 17.52 -4.2 7.15 -7.53 14.97 -10.33 22.98 -5.62 16.04 -9.21 32.93 -10.82 49.96 -4.02 33.86 1.67 68.92 21.15 96.72 19.36 27.88 51.48 45.44 85.56 54.28 -17.61 -1.74 -35.06 -6.44 -51.49 -14.03 -16.28 -7.85 -31.21 -19.29 -42.64 -33.83 -11.57 -14.46 -19.3 -31.83 -23.5 -49.77 -4.21 -18.01 -4.44 -36.76 -2.72 -54.72 1.99 -18.06 5.82 -35.94 12.3 -53.06 3.33 -8.52 7.24 -16.88 12.27 -24.78 5.07 -7.81 11.07 -15.59 20.5 -20.64 2.44 -1.21 4.82 -2.15 7.98 -2.62 1.79 -.29 2.76 -.23 3.85 -.23 l 3.51 .15 c 4.17 .16 8.26 .04 11.85 -.77 7.11 -1.22 12.16 -8.07 17.92 -14.95 5.67 -6.61 12.05 -14.14 21.1 -17.46 9.17 -3.34 18.33 -1.1 26.84 .74 z m -35.75 249.57 c -9.45 -11.36 -16.76 -24.3 -21.93 -37.86 -4.86 -13.68 -8.11 -27.84 -8.92 -42.07 7.16 27.56 19.98 53.12 38.84 72.86 18.81 19.75 43.36 33.33 69.72 39.57 26.34 6.52 54.39 5.98 81.07 -.49 26.65 -6.64 52.18 -19.16 74.15 -37.35 -18.15 22 -43.3 38.82 -71.22 47.63 -27.85 9.08 -58.4 10.41 -87.24 3.5 -28.73 -7.01 -55.76 -22.8 -74.47 -45.79 z m 277.76 14.41 c 4.45 -4.93 6.94 -11.16 7.54 -17.79 .86 -7.17 .52 -14.68 -.45 -21.86 -1.86 -14.55 -8.21 -28.27 -14.33 -43.08 -6.23 -14.55 -11.11 -31.76 -7.47 -47.69 2.09 16.1 9.04 29.52 16.91 43.1 7.89 13.47 15.88 28.63 18.39 45.71 1.22 8.5 1.17 16.97 -.01 25.52 -1.49 9.01 -5.79 18.07 -13.02 24.03 -7.07 6.05 -15.69 8.9 -23.95 10 -8.34 .9 -16.62 .5 -24.41 -1.74 15.72 -1.8 31.64 -6.23 40.8 -16.2 z m 14.21 -71.82 c .22 -20.07 -.06 -39.75 -2.09 -59.15 -2.1 -19.37 -5.6 -38.47 -11.41 -56.84 -5.58 -18.4 -13.44 -36.12 -23.69 -52.33 -5.2 -8.03 -10.99 -15.78 -17.81 -22.53 -6.79 -6.73 -14.51 -12.92 -24.24 -15.5 10.26 -.46 20.13 4.6 28.52 10.35 8.43 6.02 15.82 13.38 22.2 21.46 12.9 16.14 21.92 34.99 28.14 54.5 11.98 39.21 11.94 81.64 .38 120.04 z m -432.33 -160.26 c .94 -24.84 14.15 -48.16 31.92 -64.86 8.82 -8.54 18.71 -15.86 29.21 -22.06 5.41 -3.22 10.43 -5.73 15.15 -8.79 4.75 -3.04 9.29 -6.34 13.55 -9.97 17.14 -14.31 29.93 -34.11 44.4 -53.01 14.67 -20.42 37.34 -34.45 60.94 -41.38 11.95 -3.39 24.41 -5.39 37.36 -4.12 3.23 .34 6.5 .92 9.77 1.93 3.48 1.01 6.73 2.67 9.11 4.02 l 15.52 8.23 c 10.38 5.33 20.96 10.21 31.74 14.39 10.85 4.13 21.7 7.44 33.27 8.14 12.38 1.4 23.98 6 34.05 12.69 9.87 6.63 19.12 15.99 21.49 27.84 -3.81 -11.35 -13.51 -19.12 -23.38 -24.75 -10.09 -5.54 -21.43 -8.84 -32.62 -9.12 -12.1 .15 -24.37 -2.78 -35.76 -6.35 -11.51 -3.63 -22.56 -8.32 -33.43 -13.23 l -16.14 -7.63 c -2.82 -1.43 -4.91 -2.37 -7.13 -2.94 -2.39 -.66 -4.97 -1.07 -7.62 -1.25 -10.62 -.78 -21.88 1.21 -32.48 4.57 -21.33 6.82 -40.98 18.98 -53.8 37.31 -14.38 18.27 -27.52 38.79 -47.03 54.71 -9.45 7.83 -21.04 13.98 -30.96 19.14 -9.95 5.59 -19.42 12.04 -27.95 19.51 -16.98 14.84 -30 34.8 -32.48 57.54 -3.02 22.74 4.38 46.03 14.86 67.02 -13.14 -19.49 -22.41 -42.83 -21.56 -67.58 z m -6.43 82.18 c -5.45 3.48 -9.75 8.38 -13.32 13.73 -7.09 10.82 -11.66 23.19 -16.92 35.48 -5.28 12.27 -10.89 25.05 -20.78 36.14 -4.92 5.48 -11.1 10.37 -18.22 13.64 -.78 .37 -1.58 .72 -2.39 1.05 .78 -6.5 2.1 -13.01 3.89 -19.42 2.44 -1.36 4.79 -2.98 7.03 -4.97 8.93 -7.86 15.79 -19.07 22.28 -30.48 6.55 -11.43 12.67 -23.61 21.48 -34.18 4.4 -5.23 9.65 -9.97 15.84 -12.98 6.16 -3.07 13.07 -4.18 19.68 -3.67 -6.66 .25 -13.16 2.13 -18.57 5.66 z m 215.58 259.63 c -8.35 4.22 -16.22 9.96 -25.17 14.31 -18.09 8.94 -38.87 10.67 -58.52 9.18 -19.86 -1.46 -39.29 -6.94 -57.48 -15.05 -6.64 -3.03 -13.03 -6.58 -19.24 -10.48 -9.05 -14.66 -22.28 -25.61 -35.35 -36.91 -2.5 -6 -4.11 -12.35 -4.82 -18.67 -1.19 -10.48 -.33 -20.87 1.78 -30.75 2.1 -9.9 5.3 -19.33 8.87 -28.5 3.8 -8.94 6.16 -16.7 5.18 -25.23 -.86 -8.38 -5.01 -16.88 -8.75 -25.79 -3.77 -8.95 -7.41 -18.13 -9.57 -27.96 -2 -9.87 -1.68 -20.52 2.29 -29.84 3.82 -9.13 11.27 -17.48 20.95 -19.44 -4.61 1.47 -8.27 4.81 -11.16 8.43 -2.93 3.64 -5.09 7.83 -6.39 12.23 -2.68 8.85 -1.94 18.32 .79 26.99 2.75 8.79 6.82 17.34 11.21 25.78 4.29 8.46 9.3 17.29 11.19 28.11 2.07 10.71 -.99 22.23 -4.51 30.91 -3.11 8.85 -5.79 17.81 -7.38 26.8 -3.45 17.84 -2.25 36.39 7.67 50.41 4.82 7.19 11.06 12.8 18.92 18.15 7.46 5.29 15.59 9.89 23.87 13.98 16.63 8.22 34.67 13.56 53.06 16.16 18.39 2.25 37.45 2.12 54.74 -4.72 8.8 -3.14 17.15 -7.97 26.42 -11.48 4.65 -1.69 9.64 -2.87 14.64 -2.69 5 .23 9.74 1.76 14.04 3.91 -9.23 -3.29 -19.03 -2.17 -27.28 2.16 z m -17.36 -38.41 c -7.45 -4.93 -14.23 -11.12 -19.35 -18.55 -4.96 -7.44 -8.3 -16.51 -7.02 -25.15 3.93 16.97 17.86 27.22 31.79 34.52 14.35 7.16 30.15 11.46 46.24 14.03 16.41 2.9 33.01 4.51 49.98 7.65 8.45 1.56 17.15 3.69 25.27 7.69 8.09 4.08 14.91 10.6 18.68 18.34 -12.48 -12.54 -28.8 -14.38 -45.32 -15.42 -16.64 -.9 -33.84 -1.99 -50.84 -4.74 -17.21 -3.03 -34.5 -8.35 -49.43 -18.37 z m 249.05 61.84 c -2.77 5.23 -7.27 9.36 -12.06 12.63 -4.87 3.19 -10.15 5.57 -15.51 7.54 -5.8 1.96 -9.98 3.2 -14.18 5.8 -8.45 4.92 -13.95 13.12 -23.33 21.48 -4.73 4.09 -11.31 7.15 -17.81 8.11 -6.52 .96 -12.76 .39 -18.57 -.74 -10.91 -2.52 -21.44 -4.77 -32.33 -8.24 -10.68 -3.62 -21.57 -8.15 -30.81 -15.46 -9.35 -7.13 -16.64 -16.76 -21.24 -27.17 -4.58 -10.47 -6.83 -21.52 -7.37 -32.5 6.56 20.91 17.41 40.27 34.8 50.93 17.18 10.75 38.6 14.38 59.64 18.99 9.95 2.21 18.56 1.61 25.66 -4.08 7.38 -5.46 15.02 -15.68 26.37 -20.74 5.42 -2.67 11.93 -4.11 16.64 -4.97 5.11 -1.11 10.08 -2.65 14.73 -4.78 4.67 -2.09 8.94 -4.97 12.2 -8.88 3.28 -3.9 5.21 -9.03 5.87 -14.5 .79 5.42 .16 11.39 -2.7 16.58 z m 33.15 -27.73 c -.35 .74 -.52 1.48 -.54 2.17 -6.03 .56 -12.13 .87 -18.28 .69 -9.36 -.3 -19.02 -1.76 -27.59 -5.96 -8.61 -4.11 -15.33 -11.27 -19.21 -19.39 5.24 7.39 12.66 12.81 20.89 15.14 8.23 2.42 16.94 2.25 25.45 1.08 7.01 -.99 13.88 -2.67 20.77 -4.65 .92 .88 2.25 1.27 3.6 1.21 -1.81 3.17 -3.52 6.4 -5.09 9.71 z m -1.64 -108.09 c -4.42 10.11 -9.96 19.68 -16.33 28.69 -12.98 17.87 -29.69 32.77 -48.11 44.15 -9.14 5.79 -18.76 10.67 -28.34 15.25 l -14.36 6.74 c -4.6 2.43 -9.6 4.49 -12.86 8.7 2.08 -5.09 6.74 -8.59 10.84 -11.92 4.25 -3.33 8.69 -6.29 13.02 -9.35 8.77 -5.94 17.36 -11.93 25.61 -18.22 16.39 -12.65 31.34 -26.82 43.1 -43.38 6.06 -8.13 11.21 -16.96 15.68 -26.06 4.61 -8.94 7.43 -18.22 8.01 -27.88 .49 -9.64 -1.58 -19.46 -5.7 -28.83 -1.94 -4.74 -4.44 -9.32 -6.94 -14 -2.42 -4.66 -5.41 -9.39 -6.43 -14.72 2.36 4.77 6.21 8.44 9.56 12.59 3.45 4.07 6.75 8.38 9.73 13.01 5.87 9.26 10.03 20.32 10.44 31.93 .73 11.58 -2.51 23.16 -6.92 33.3 z m 97.95 -177.58 c -8.68 .24 -17.42 -2.44 -24.54 -6.79 -3.53 -2.23 -6.75 -4.79 -9.62 -7.59 l -7.61 -7.81 c -4.94 -5.05 -10 -9.8 -15.5 -14.02 -10.9 -8.43 -23.7 -14.58 -37.62 -16.2 -13.9 -1.72 -28.35 1.18 -41.59 6.81 12.55 -7 26.92 -11.64 41.88 -11.41 14.96 .11 29.78 5.32 42.52 13.19 6.4 3.91 12.41 8.44 18.07 13.13 l 8.25 6.85 c 2.52 1.98 5.18 3.64 7.9 4.98 5.26 2.54 10.68 3.39 16.12 2.88 1.87 5.44 4.32 10.62 7.28 15.58 -1.82 .23 -3.67 .37 -5.54 .4 z" fill="#fff"/></svg>