<svg enable-background="new 0 0 320 360" height="360" viewBox="0 0 320 360" width="320" xmlns="http://www.w3.org/2000/svg"><path d="m 142.15 262.93 l 4.53 .35 c 9.99 0 20 -2.56 30 -7.67 5.81 -2.79 10.52 -7.38 14.13 -13.78 3.6 -6.39 5.41 -13.6 5.41 -21.63 0 -8.02 -1.74 -14.59 -5.23 -19.7 s -7.79 -9.12 -12.91 -12.03 -11.28 -5.17 -18.49 -6.8 c -12.33 -3.02 -25.81 -4.54 -40.46 -4.54 l -26.86 1.4 -.7 -14.65 c 0 -25.11 1.34 -46.91 4.01 -65.4 s 4.24 -27.96 4.71 -28.43 c .46 -.46 4.01 -.7 10.64 -.7 s 21.1 -.58 43.43 -1.74 39.35 -1.75 51.1 -1.75 c 11.74 0 18.19 .58 19.36 1.75 2.32 3.26 3.49 9.89 3.49 19.88 0 10 -.58 15.58 -1.74 16.74 -7.44 -.7 -15.64 -1.05 -24.59 -1.05 -8.96 0 -18.2 .12 -27.73 .35 -20.7 .93 -31.74 2.09 -33.14 3.49 s -2.09 7.04 -2.09 16.92 c 0 9.89 .23 14.94 .7 15.17 23.48 0 45.22 5.35 65.23 16.05 7.67 3.96 14.36 8.61 20.06 13.95 5.69 5.35 10.4 12.33 14.13 20.93 3.72 8.61 5.58 18.26 5.58 28.95 0 26.51 -11.51 47.21 -34.53 62.09 s -53.49 22.32 -91.39 22.32 c -15.82 0 -25.11 -.93 -27.9 -2.79 -1.63 -1.63 -2.44 -13.48 -2.44 -35.58 0 -22.09 .75 -33.89 2.27 -35.4 1.51 -1.51 6.51 -3.54 15 -6.1 s 15.17 -3.84 20.06 -3.84 c -.03 25.1 5.43 39.52 16.36 43.24 z" fill="#fff"/></svg>