<svg enable-background="new 0 0 296.8 235.5" viewBox="0 0 296.8 235.5" xmlns="http://www.w3.org/2000/svg"><g fill="#fff"><path d="m 9.2 126.5 h 17.6 c .5 0 1 -.3 1.3 -.8 l .8 -1.4 c .4 -.7 1.4 -1 2.1 -.5 .5 .3 .8 .9 .8 1.5 l -5.4 70.5 c -.1 1.7 1.1 3.2 2.8 3.3 l 68.8 5.6 c 1.7 .1 3.2 -1.1 3.3 -2.8 0 -.2 0 -.3 0 -.5 l -5.4 -76.2 c -.1 -.8 .6 -1.6 1.4 -1.6 .6 0 1.1 .2 1.4 .7 l .9 1.4 c .3 .5 .8 .7 1.3 .8 h 17.6 c 1.7 0 3 -1.3 3.1 -3 0 -26.5 -22.7 -38.6 -30.5 -42 -1 -.4 -2.2 0 -2.6 1 -.1 .2 -.1 .3 -.1 .5 -.6 5.2 -4 16.5 -21 16.5 -22 .1 -22 -21.5 -22 -21.5 s -39.3 13.5 -39.3 45.5 c 0 1.7 1.4 3 3.1 3 z"/><path d="m 39.4 60.2 c 0 4.8 2.4 6.8 8.7 8.7 l 7.5 2 c 1 .4 1.8 .8 2 1.6 l -.2 3.6 c 0 .6 -.5 1.1 -1.2 1.1 h -2 c -.6 0 -1.2 .5 -1.2 1.2 v 3.9 c 0 6.3 6.2 11.4 13.9 11.4 8.8 0 15.2 -5.1 15.2 -11.4 v -1.1 c 0 -.7 -.6 -1.3 -1.3 -1.3 -.4 0 -.8 .2 -1 .5 l -.8 1.1 c -.1 .2 -.3 .3 -.5 .4 l -.7 -7.5 v -.1 -.1 c 0 -.6 -.4 -1.1 -.8 -1.4 l -4.1 -2.8 -3.7 -2.4 c -.5 -.3 -.8 -.8 -.8 -1.4 0 -.2 0 -.3 .1 -.5 .3 -.8 1.3 -1.2 2.1 -.9 .1 0 .3 .1 .4 .1 l 5.8 2.4 3.3 1.3 c 8 2.8 12.8 3.6 15.6 3.6 s 4.1 -.8 4.5 -1.6 c 2.8 -3.7 3.5 -18.7 3.7 -32.9 0 -8.5 -1.9 -15.8 -5.4 -21.6 -.2 -.3 -.1 -.7 .2 -.9 0 0 .1 0 .1 -.1 5.2 -2 9.7 -7 9.7 -12.9 0 -1.2 -.9 -2.1 -2.1 -2.2 0 0 0 0 -.1 0 h -38.3 c -.6 0 -1.1 0 -1.7 0 -11 .2 -27.1 12.4 -27.1 28.7 0 1.4 0 2.7 .2 4 z"/><path d="m 193.7 132 l -16.6 3.1 c -1 .2 -1.7 1.1 -1.6 2.1 l .8 10.2 -13.7 -22.4 c -2.8 -9.9 -4.5 -20 -5 -30.3 0 -.8 -.6 -1.4 -1.4 -1.4 s -1.5 .6 -1.5 1.4 v .1 l -.3 4.8 2.2 7.7 c 0 .2 -.1 .4 -.3 .4 s -.3 -.1 -.4 -.2 l -4.9 -16.9 c -.3 -.8 -1.1 -1.2 -1.8 -.9 -.7 .2 -1.1 .9 -1 1.6 l .6 4.2 4.7 11.2 c .1 .2 0 .4 -.2 .5 s -.3 0 -.4 -.2 l -7.7 -17.7 c -.3 -.8 -1.2 -1.2 -1.9 -.9 -.8 .3 -1.2 1.1 -.9 1.9 l 3.4 11.8 .9 1 c .1 .1 .1 .3 0 .4 s -.2 .1 -.3 0 l -.9 -.5 c -.8 -.5 -1.9 -.5 -2.7 0 l -8.4 5 c -.6 .3 -.9 1 -.8 1.7 .2 .8 1 1.4 1.9 1.2 h .1 l 6.5 -1.9 c 1.5 -.4 3 .4 3.4 1.9 l 1.5 5 c 0 .1 .1 .2 .3 .2 .1 0 .3 0 .3 -.2 l .4 -.8 c .1 -.3 .5 -.4 .8 -.3 s .4 .5 .3 .8 l -.4 .8 c -.6 1 -1.7 1.6 -2.9 1.4 l -4 -.7 c -.8 -.1 -1.5 -.6 -1.9 -1.2 l -2.6 -4.4 c -.4 -.7 -1.2 -.9 -1.9 -.6 -.7 .4 -1 1.1 -.7 1.9 l 2.2 7.5 c .3 1.1 1.1 2 2.1 2.3 l 9.7 1.7 c 2.2 .4 4.1 1.8 4.9 3.9 l 21.2 48.7 c 1.5 3.4 5.4 4.9 8.7 3.4 .8 -.3 1.4 -.8 2 -1.4 4.1 -4.1 6.7 -9.6 7.2 -15.4 l 3.5 -29.5 c .1 -1.1 -.6 -2.1 -1.7 -2.2 -.4 .2 -.6 .2 -.8 .2 z"/><path d="m 178.3 126.5 h 17.6 c .5 0 1 -.3 1.3 -.8 l .9 -1.4 c .4 -.7 1.4 -1 2.1 -.5 .5 .3 .8 .9 .7 1.4 l -5.5 76.2 c -.1 1.7 1.2 3.2 2.9 3.3 h .5 l 68.8 -5.6 c 1.7 -.1 3 -1.6 2.8 -3.3 l -5.4 -70.5 c -.1 -.8 .6 -1.6 1.4 -1.7 .6 0 1.2 .2 1.5 .8 l .8 1.4 c .3 .5 .8 .7 1.3 .8 h 17.6 c 1.7 0 3 -1.4 3.1 -3.1 0 -32 -39.3 -45.5 -39.3 -45.5 s 0 21.6 -21.8 21.6 c -17 0 -20.4 -11.3 -21 -16.5 -.1 -1.1 -1.2 -1.9 -2.2 -1.7 -.2 0 -.4 .1 -.5 .1 -7.9 3.4 -30.6 15.5 -30.5 42 -.1 1.7 1.2 3 2.9 3 z"/><path d="m 198 15.1 c .3 .1 .5 .5 .4 .8 0 0 0 .1 -.1 .1 -3.5 5.8 -5.4 13.1 -5.4 21.6 .1 14.2 .8 29.3 3.7 32.9 .4 .8 1.6 1.6 4.5 1.6 s 7.6 -.8 15.6 -3.6 l 3.3 -1.3 5.8 -2.4 c .1 -.1 .3 -.1 .4 -.1 .8 -.3 1.8 .1 2.1 .9 .1 .2 .1 .3 .1 .5 0 .6 -.3 1.1 -.8 1.4 l -3.7 2.4 -4.2 2.7 c -.5 .3 -.8 .8 -.8 1.4 v .1 .1 l -.7 7.5 c -.2 -.1 -.4 -.2 -.5 -.4 l -.8 -1.1 c -.4 -.6 -1.2 -.7 -1.8 -.3 -.3 .2 -.5 .6 -.5 1 v 1.1 c 0 6.3 6.3 11.4 15.2 11.4 7.7 0 13.9 -5.1 13.9 -11.4 v -3.9 c 0 -.6 -.5 -1.2 -1.2 -1.2 h -1.9 c -.6 0 -1.1 -.5 -1.2 -1.1 l -.1 -3.5 c .2 -.8 1 -1.2 2 -1.6 l 7.5 -2 c 6.2 -1.8 8.7 -3.9 8.7 -8.7 v -27.3 c .1 -1.3 .1 -2.6 .1 -4 0 -16.2 -16.1 -28.5 -27.1 -28.7 -.6 0 -1.1 0 -1.7 0 h -38.5 c -1.2 0 -2.1 .9 -2.1 2.1 v .1 c .1 5.9 4.6 11 9.8 12.9 z"/><path d="m 290.8 138 c -.1 -1.3 -1 -2.4 -2.2 -2.8 l -14.9 -4.2 c -1.6 -.5 -3.3 .5 -3.8 2.1 -.1 .4 -.1 .9 -.1 1.3 l 15.3 101.1 h 11.6 z"/><path d="m 267.4 208.2 h -69 c -1.7 0 -3 1.5 -3 3.2 v .1 l 1.2 24.1 h 72.5 l 1.4 -24.1 c .1 -1.7 -1.2 -3.2 -2.9 -3.3 -.1 0 -.2 -.1 -.2 0 z"/><path d="m 98.3 208.2 h -68.9 c -1.7 0 -3.1 1.4 -3.1 3.1 v .2 l 1.4 24.1 h 72.5 l 1.2 -24.1 c .1 -1.7 -1.2 -3.1 -2.9 -3.2 -.1 -.1 -.1 -.2 -.2 -.1 z"/><path d="m 119.5 133.6 l -14.9 -4.2 c -1.6 -.5 -3.3 .5 -3.8 2.1 -.1 .4 -.1 .9 -.1 1.3 l 15.3 102.7 h 11.6 l -6 -99.1 c 0 -1.3 -.9 -2.4 -2.1 -2.8 z"/><path d="m 23.1 130.9 l -14.9 4.2 c -1.3 .4 -2.2 1.6 -2.2 2.9 l -6 97.5 h 11.7 l 15.3 -101.1 c .2 -1.7 -.9 -3.2 -2.6 -3.5 -.5 -.1 -.9 -.1 -1.3 0 z"/></g></svg>