<svg enable-background="new 0 0 100 100" viewBox="0 0 100 100" xmlns="http://www.w3.org/2000/svg"><g fill="#fff"><path d="m 87.99 75.75 c -5.67 4.18 -9.99 4.56 -9.99 4.56 l -8.2 -11.11 c 18.69 -13.78 -9.42 -30.13 -9.42 -30.13 l -4.24 3.13 c -.23 -6.5 -1.03 -15.89 -.78 -18.3 .37 -3.56 4.96 -7.17 6.52 -9.41 .35 -.5 1.23 -1.63 2.27 -3.27 -20.93 -5.87 -43.12 5.44 -50.46 26.24 -5.29 14.98 -1.49 30.96 8.51 41.93 .04 -.04 .09 -.08 .13 -.12 2.52 -2.37 5.39 -11.38 6.61 -13.33 1.23 -1.96 2.59 -.09 4.89 -1.45 s 1.87 -1.79 1 -4.45 c -.88 -2.65 -1.86 -2.25 -1.06 -3.05 s 2.9 1.06 4.91 1.19 c 1.47 .09 2.62 -3.06 3.38 -5.4 .62 2.51 8.11 30.89 25.89 17.77 l 8.2 11.11 s -1.64 4.01 -7.22 8.13 l .6 .81 9.18 -6.77 .67 -.5 9.21 -6.79 z m -44.93 -30.47 c 1.63 -2.13 5.55 1.87 5.55 1.87 .32 .78 -1.63 -1.12 -2.34 -.71 -1.4 .82 -4.18 .11 -3.21 -1.16 z m -.35 5.51 c .34 -.88 1.44 -1.03 2.87 -.79 l -3.44 2.54 c .23 -.74 .43 -1.37 .57 -1.75 z m 24.36 18.24 c -16.06 11.85 -23.13 -15.81 -23.13 -15.81 l 3.69 -2.72 c .01 0 .42 .01 .43 .01 l 8.94 -6.31 c 0 -.01 0 -.02 0 -.03 l 3.66 -3 s 24.52 14.65 8.2 26.68 z"/><path d="m 56.19 49.54 c .17 -.36 -.03 -2.23 0 -3.32 l -6.68 4.93 c .03 .01 .06 .02 .08 .03 3.07 1.15 5.57 .6 6.6 -1.64 z"/><path d="m 72.37 57 h -25.1 c 1.04 2 7.64 19.01 19.08 10.72 l 1.43 -1.12 c 4.28 -3.15 5.14 -5.6 4.59 -9.6 z"/><path d="m 68.76 30.7 c -.68 -.01 -1.38 -.02 -2.05 -.02 -4.75 0 -6.65 3.74 -7 5.71 -.08 .45 .22 .87 .67 .95 .05 .01 .09 .01 .14 .01 .39 0 .74 -.28 .81 -.68 .03 -.18 .8 -4.35 5.38 -4.35 .66 0 1.32 .01 2.03 .02 4.47 .07 9.54 .14 12.32 -2.6 1.36 -1.34 2.05 -3.24 2.05 -5.65 0 -.45 -.37 -.82 -.82 -.82 s -.82 .37 -.82 .82 c 0 1.98 -.51 3.45 -1.56 4.48 -2.3 2.26 -7 2.19 -11.15 2.13 z"/><path d="m 58.07 30.1 c -.12 .44 .14 .89 .58 1 .07 .02 .14 .03 .21 .03 .36 0 .69 -.24 .79 -.61 .42 -1.56 .99 -2.85 3.8 -2.85 3.85 0 9.11 0 10.74 -4.08 1.56 -3.89 1.04 -6.85 1.02 -6.97 -.08 -.45 -.51 -.74 -.95 -.66 -.45 .08 -.74 .51 -.66 .95 .01 .03 .46 2.62 -.93 6.07 -1.22 3.05 -5.84 3.05 -9.22 3.05 -4.29 .01 -5.02 2.75 -5.38 4.07 z"/></g></svg>