<svg enable-background="new 0 0 841.889 595.281" height="595.28" viewBox="0 0 841.89 595.28" width="841.89" xmlns="http://www.w3.org/2000/svg"><path d="m 239.11 260.1 l 84.54 -144.07 c 1.57 -2.67 4.22 -4.55 7.26 -5.16 s 6.2 .13 8.68 2 l 34.6 26.2 -132.38 135.12 c -4.31 -3.35 -5.47 -9.38 -2.7 -14.09 z m 476.29 146.83 l -286.77 -286.76 c -4.24 -4.25 -11.13 -4.25 -15.38 0 l -286.76 286.76 c -3.11 3.11 -4.04 7.79 -2.36 11.85 s 5.65 6.72 10.04 6.72 h 104.65 v -52.89 c 0 -11.35 6.23 -21.7 16.25 -27.01 l 151.54 -80.4 c 8.79 -4.67 19.87 -4.67 28.67 0 l 151.54 80.4 c 10.02 5.32 16.25 15.67 16.25 27.01 v 52.89 h 104.65 c 4.39 0 8.36 -2.65 10.05 -6.72 1.67 -4.06 .74 -8.73 -2.37 -11.85 z m -128.22 34.79 h -6.58 v -66.02 c 0 -4.86 -2.69 -9.32 -6.98 -11.6 l -146.52 -77.73 c -3.85 -2.04 -8.47 -2.04 -12.31 0 l -146.51 77.73 c -4.3 2.28 -6.98 6.74 -6.98 11.6 v 66.02 h -6.59 c -11.85 0 -21.45 9.6 -21.45 21.45 s 9.6 21.45 21.45 21.45 h 332.46 c 11.84 0 21.45 -9.6 21.45 -21.45 s -9.6 -21.45 -21.44 -21.45 z" fill="#fff"/></svg>