<svg viewBox="0 0 300 300" xmlns="http://www.w3.org/2000/svg"><g fill="#fff"><path d="m 32.35 207 c 25.84 -18.4 54.49 -22.1 90.8 -6.29 2.54 1.11 13 8.79 15 10.74 7.2 6.91 16.4 2.19 18.71 3.56 10.15 6 18.71 13.17 24.64 21.15 10.49 18 12.8 37.49 7.32 50.1 7.24 -13.5 7.78 -44.51 -3.42 -63.68 -5.93 -8 -14.49 -15.13 -24.64 -21.15 -2.31 -1.37 -11.51 3.35 -18.71 -3.56 -2 -2 -12.51 -9.63 -15 -10.74 -36.3 -15.85 -64.95 -12.13 -90.79 6.26 -30.03 17.27 -44.26 45.84 -31.42 62.81 -5.54 -15.68 2.64 -34.93 27.51 -49.2 z" opacity=".4"/><path d="m 76.88 22.72 l 8.22 -.72 a 77.74 77.74 0 0 0 -8.22 .72 z"/><path d="m 149.43 153.59 c -.2 -15.08 1.47 -30.35 -1.52 -45.13 -1.83 -9.09 -5.37 -17.73 -8.9 -26.3 a 169.22 169.22 0 0 0 -9 -19.49 c -6.31 -11.15 -15.07 -20.67 -23.76 -30.13 -3 -3.31 -6.2 -6.71 -10.28 -8.62 a 24.07 24.07 0 0 0 -10.87 -1.92 l -8.22 .73 s -42.62 30.39 -1.59 98 70.19 62 70.19 62 c 4.89 -8.61 4.08 -19.19 3.95 -29.14 z m -70.83 -127.59 c 24 -6.4 70.43 53.08 67.77 133.08 6.69 65.84 -130.07 -70.29 -67.77 -133.08 z" opacity=".4"/><path d="m 243 45.74 c -3 -7.19 -7.14 -13.92 -9.49 -21.35 -22.74 -20.55 -38.31 -20.6 -46.7 -17.85 3.5 1.15 6.76 2.28 8.54 2.8 4 1.15 8.22 5.67 11.17 8.44 7 6.56 12.73 14.32 18.12 22.21 a 101.26 101.26 0 0 1 6.08 9.95 c .36 .7 .7 1.39 1 2.1 a 47.79 47.79 0 0 1 2.17 5.34 c .24 .72 .46 1.44 .66 2.17 s .37 1.45 .51 2.18 .27 1.46 .36 2.2 .16 1.46 .19 2.2 a 24.38 24.38 0 0 1 -.07 3.31 8.4 8.4 0 0 1 -.12 1.1 22.92 22.92 0 0 1 -.7 3.3 13.59 13.59 0 0 1 -.57 1.58 c -.12 .26 -.24 .51 -.37 .75 a 7.05 7.05 0 0 1 -.95 1.36 4.52 4.52 0 0 1 -2 1.32 c -2.35 .75 -4.58 -.73 -6.29 -2.69 a 16.97 16.97 0 0 1 -1.18 -1.53 c -.12 -.17 -.23 -.34 -.34 -.52 -1.64 -2.57 -3.05 -5.08 -4.34 -7.54 -5.59 -10.67 -8.8 -20.48 -17.23 -30.63 -4.81 -5.8 -15.14 -16.62 -22 -25.25 -18 -16.61 -39.54 -10.81 -52 -5 14.44 2.45 28.83 15.2 36.86 25.57 a 49.96 49.96 0 0 1 4.72 7.39 64.85 64.85 0 0 1 2.77 6 122.16 122.16 0 0 1 4.75 14.77 c .38 1.43 .74 2.86 1.11 4.29 .46 1.81 .92 3.64 1.3 5.49 .15 .73 .29 1.47 .42 2.21 a 35.03 35.03 0 0 1 .53 6.68 23.39 23.39 0 0 1 -.32 3.33 c -.41 2.48 -1.83 5.35 -4.34 5.39 a 3.89 3.89 0 0 1 -1.58 -.33 10.18 10.18 0 0 1 -1.44 -.81 c -5.06 -3.43 -8.23 -8.94 -11.41 -14.17 q -2.42 -3.99 -5 -7.89 c -1.72 -2.6 -3.46 -5.17 -5.26 -7.72 s -3.64 -5.05 -5.52 -7.53 -3.81 -4.92 -5.77 -7.34 c -.87 -1.06 -1.76 -2.12 -2.65 -3.16 q -2.67 -3.14 -5.45 -6.16 l -2.79 -3 c -3.74 -4 -7.56 -7.92 -11.37 -11.9 a 25.47 25.47 0 0 1 -3.01 -3.8 9.12 9.12 0 0 1 -1 -2.08 c -14 -1.35 -26.51 4.7 -36.12 11.8 a 77.74 77.74 0 0 1 8.22 -.72 24.08 24.08 0 0 1 10.9 1.92 c 4.08 1.91 7.23 5.31 10.28 8.62 8.69 9.44 17.45 19 23.78 30.13 a 169.22 169.22 0 0 1 9 19.49 c 3.53 8.57 7.07 17.21 8.9 26.3 3 14.78 1.32 30.05 1.52 45.13 .13 9.95 .94 20.53 -4 29.21 .1 .18 .2 .37 .31 .55 q 7.07 .36 14.2 .33 a 9.59 9.59 0 0 1 -1 -5.5 16.81 16.81 0 0 1 3.07 -7.09 63.3 63.3 0 0 1 19.94 -19.09 c 8 -4.82 17 -7.81 25.33 -11.94 1.2 -.6 2.38 -1.21 3.55 -1.86 a 73.38 73.38 0 0 0 32.12 -92.46 z" opacity=".8"/><path d="m 117.1 16.75 c 3.81 4 7.63 7.9 11.37 11.9 l 2.79 3 q 2.78 3 5.45 6.16 c .89 1 1.78 2.1 2.65 3.16 q 2.94 3.63 5.77 7.34 t 5.52 7.53 q 2.7 3.82 5.26 7.72 t 5 7.89 c 3.18 5.23 6.35 10.74 11.41 14.17 a 10.28 10.28 0 0 0 1.44 .81 3.89 3.89 0 0 0 1.58 .33 c 2.51 0 3.93 -2.91 4.34 -5.39 a 23.39 23.39 0 0 0 .32 -3.33 35.02 35.02 0 0 0 -.53 -6.68 c -.13 -.74 -.27 -1.48 -.42 -2.21 -.38 -1.85 -.84 -3.68 -1.3 -5.49 -.37 -1.43 -.73 -2.86 -1.11 -4.29 a 122.16 122.16 0 0 0 -4.75 -14.77 64.85 64.85 0 0 0 -2.77 -6 49.96 49.96 0 0 0 -4.72 -7.39 c -8 -10.37 -22.42 -23.12 -36.86 -25.57 a 64.97 64.97 0 0 0 -10.26 5.84 39.44 39.44 0 0 0 -4.23 -.62 9.13 9.13 0 0 0 .95 2.14 25.48 25.48 0 0 0 3.1 3.75 z" opacity=".4"/><path d="m 146.37 159.05 c 2.63 -80 -43.8 -139.48 -67.77 -133.05 -62.3 62.79 74.46 198.92 67.77 133.05 z m -68 -84.53 a 2.82 2.82 0 0 1 -.71 1.26 3.07 3.07 0 0 1 -2.25 .51 c -1.53 -.07 -3.22 -.36 -4.15 -1.57 -1.43 -1.87 -.18 -4.58 -.65 -6.89 l 3.47 -1.15 a 4.3 4.3 0 0 1 4.22 2.62 7.33 7.33 0 0 1 .04 5.22 z m 1.91 -21.52 a 1.59 1.59 0 0 1 -1.2 .21 l -2.39 -.21 a .85 .85 0 0 1 -.54 -.19 .78 .78 0 0 1 -.12 -.54 c .38 -10.59 7.6 -2.03 4.25 .73 z m 12.28 59.79 c -.22 1.12 -.67 2.47 -1.79 2.65 a 2.58 2.58 0 0 1 -1.86 -.67 c -1.49 -1.12 -5.57 -5.46 -3.85 -7.52 1.56 -1.85 7.23 1.89 7.62 3.89 a 4.39 4.39 0 0 1 -.12 1.68 z m 4.5 -38.37 a 1.79 1.79 0 0 1 -1.28 1 1.54 1.54 0 0 1 -1.46 -1.42 4.48 4.48 0 0 1 .58 -2.21 h .85 a 1.24 1.24 0 0 1 1.6 .72 l .01 .04 a 2.28 2.28 0 0 1 -.3 1.9 z m 6.69 -23 c -.64 1.76 -2.45 2.8 -4.18 3.51 a 7.75 7.75 0 0 0 -2.57 1.44 c -2.36 2.31 -.58 8.41 -5.55 8.11 -3.42 -.21 -4.91 -6.41 -2.3 -8.38 .88 -.67 2.15 -.56 3.12 -1.11 a 2.93 2.93 0 0 0 1.1 -1.11 8.23 8.23 0 0 0 .82 -3.09 c .21 -1.7 .41 -3.4 .61 -5.1 a 3.15 3.15 0 0 1 .5 -1.61 2.83 2.83 0 0 1 1.62 -.82 17.08 17.08 0 0 1 2.94 -.45 3.34 3.34 0 0 1 1.72 .24 3.15 3.15 0 0 1 1.29 1.69 15.71 15.71 0 0 1 1.05 3.61 6.17 6.17 0 0 1 -.17 3.08 z m 4.82 83.37 c -1.78 -.24 -2.79 -2.21 -3 -4 l 2 -3.22 a 4.75 4.75 0 0 1 4.17 3.42 c .36 1.9 -1.26 4.06 -3.17 3.81 z m 6.62 -26.9 a 2.41 2.41 0 0 1 -1.87 .26 20.3 20.3 0 0 1 -4.21 -1.06 3.26 3.26 0 0 1 -2.18 -1.74 3.42 3.42 0 0 1 0 -1.59 q .44 -2.79 1.1 -5.53 l -.67 -3.23 a 2.43 2.43 0 0 1 1.12 -2.93 5.4 5.4 0 0 1 3.35 -.47 2.11 2.11 0 0 1 1.46 .63 c .57 .76 0 1.82 -.55 2.62 a 5.86 5.86 0 0 0 -1.23 3.46 c .15 3.09 4.2 4.92 4.29 8 a 1.9 1.9 0 0 1 -.61 1.59 z m 2 -25.54 c -1.71 -2.1 -9.56 -15.22 -2.68 -15.91 2.48 -.26 4.74 4.44 5.53 6.29 a 17.06 17.06 0 0 1 1.22 9.17 4.9 4.9 0 0 1 -1.07 2.67 5.77 5.77 0 0 1 -2.97 -2.21 z m 12.4 82.89 c -.43 -.06 -.85 -.14 -1.28 -.23 a 21.76 21.76 0 0 1 -5.2 -1.79 c -8.44 -4.17 1.4 -5 5.1 -3.48 a 3 3 0 0 1 1.68 2.43 8.86 8.86 0 0 1 -.27 3.08 z m 1 -51.62 a 2.75 2.75 0 0 1 -1.78 -2.14 8.16 8.16 0 0 1 .12 -2.91 l 1.82 1.15 a 4.8 4.8 0 0 1 1.46 1.27 2.11 2.11 0 0 1 .49 1.23 1.67 1.67 0 0 1 -1.86 1.46 1.52 1.52 0 0 1 -.24 -.05 z m 8.66 19.09 c -1.78 1.14 -4.22 .71 -6 -.43 a 10.32 10.32 0 0 1 5.16 -5 h 1.38 c 1.73 1.3 1.26 4.3 -.53 5.44 z"/><path d="m 112.74 94.86 c .53 -.8 1.12 -1.86 .55 -2.62 a 2.11 2.11 0 0 0 -1.46 -.63 5.4 5.4 0 0 0 -3.35 .47 2.43 2.43 0 0 0 -1.12 2.92 l .65 3.23 q -.66 2.74 -1.1 5.53 a 3.42 3.42 0 0 0 0 1.59 3.26 3.26 0 0 0 2.18 1.74 20.3 20.3 0 0 0 4.21 1.06 2.41 2.41 0 0 0 1.87 -.26 1.9 1.9 0 0 0 .61 -1.57 c -.09 -3.09 -4.14 -4.92 -4.29 -8 a 5.86 5.86 0 0 1 1.25 -3.46 z" opacity=".6"/><path d="m 95.75 71.77 h -.85 a 4.49 4.49 0 0 0 -.58 2.23 1.54 1.54 0 0 0 1.46 1.48 1.79 1.79 0 0 0 1.28 -1 2.28 2.28 0 0 0 .3 -1.92 1.24 1.24 0 0 0 -1.56 -.81 z" opacity=".6"/><path d="m 102.82 44.74 a 3.15 3.15 0 0 0 -1.29 -1.69 3.34 3.34 0 0 0 -1.72 -.24 17.08 17.08 0 0 0 -2.94 .45 2.83 2.83 0 0 0 -1.62 .82 3.15 3.15 0 0 0 -.5 1.61 c -.2 1.7 -.4 3.4 -.61 5.1 a 8.23 8.23 0 0 1 -.82 3.09 2.93 2.93 0 0 1 -1.1 1.12 c -1 .55 -2.24 .44 -3.12 1.11 -2.61 2 -1.12 8.17 2.3 8.38 5 .3 3.19 -5.8 5.55 -8.11 a 7.76 7.76 0 0 1 2.62 -1.43 c 1.73 -.71 3.54 -1.75 4.18 -3.51 a 6.17 6.17 0 0 0 .12 -3.08 15.74 15.74 0 0 0 -1.05 -3.62 z" opacity=".6"/><path d="m 74.05 66.68 l -3.47 1.15 c .47 2.31 -.78 5 .65 6.89 .93 1.21 2.62 1.5 4.15 1.57 a 3.07 3.07 0 0 0 2.25 -.51 2.82 2.82 0 0 0 .71 -1.26 7.33 7.33 0 0 0 0 -5.22 4.3 4.3 0 0 0 -4.29 -2.62 z" opacity=".6"/><path d="m 85.06 107.28 c -1.72 2.06 2.36 6.4 3.85 7.52 a 2.58 2.58 0 0 0 1.86 .67 c 1.12 -.18 1.57 -1.53 1.79 -2.65 a 4.39 4.39 0 0 0 .12 -1.65 c -.39 -2 -6.06 -5.74 -7.62 -3.89 z" opacity=".6"/><path d="m 139.8 127.35 h -1.38 a 10.32 10.32 0 0 0 -5.16 5 c 1.78 1.14 4.22 1.57 6 .43 s 2.26 -4.2 .54 -5.43 z" opacity=".6"/><path d="m 128.24 159.75 c -3.7 -1.51 -13.54 -.69 -5.1 3.48 a 21.76 21.76 0 0 0 5.2 1.79 c .43 .09 .85 .17 1.28 .23 a 8.86 8.86 0 0 0 .3 -3.07 3 3 0 0 0 -1.68 -2.43 z" opacity=".6"/><path d="m 130.76 109.73 l -1.82 -1.15 a 8.16 8.16 0 0 0 -.12 2.91 2.75 2.75 0 0 0 1.78 2.14 1.67 1.67 0 0 0 2.06 -1.15 1.6 1.6 0 0 0 .05 -.25 2.11 2.11 0 0 0 -.49 -1.23 4.8 4.8 0 0 0 -1.46 -1.27 z" opacity=".6"/><path d="m 107.55 127.58 l -2 3.22 c .22 1.79 1.23 3.76 3 4 s 3.53 -1.91 3.15 -3.8 a 4.75 4.75 0 0 0 -4.15 -3.42 z" opacity=".6"/><path d="m 76 52.31 a .78 .78 0 0 0 .12 .54 .85 .85 0 0 0 .54 .19 l 2.39 .2 a 1.59 1.59 0 0 0 1.2 -.21 c 3.38 -2.79 -3.84 -11.35 -4.25 -.72 z" opacity=".6"/><path d="m 121.29 81.91 a 17.06 17.06 0 0 0 -1.22 -9.17 c -.79 -1.85 -3 -6.55 -5.53 -6.29 -6.88 .69 1 13.81 2.68 15.91 a 5.77 5.77 0 0 0 3 2.22 4.9 4.9 0 0 0 1.07 -2.67 z" opacity=".6"/><path d="m 218.74 66.57 c 1.29 2.46 2.7 5 4.34 7.54 .11 .18 .22 .35 .34 .52 a 16.97 16.97 0 0 0 1.18 1.53 c 1.71 2 3.94 3.44 6.29 2.69 a 4.52 4.52 0 0 0 2 -1.32 7.05 7.05 0 0 0 .95 -1.36 c .13 -.24 .25 -.49 .37 -.75 a 13.59 13.59 0 0 0 .57 -1.58 22.92 22.92 0 0 0 .7 -3.3 c 0 -.37 .09 -.74 .12 -1.1 a 24.38 24.38 0 0 0 .07 -3.31 16.19 16.19 0 0 0 -.19 -2.2 c -.1 -.73 -.21 -1.47 -.36 -2.2 s -.32 -1.46 -.51 -2.18 -.42 -1.45 -.66 -2.17 a 47.81 47.81 0 0 0 -2.19 -5.38 c -.34 -.71 -.68 -1.4 -1 -2.1 a 101.15 101.15 0 0 0 -6.12 -9.9 c -5.39 -7.89 -11.14 -15.65 -18.12 -22.21 -3 -2.77 -7.2 -7.29 -11.17 -8.44 -1.78 -.52 -5 -1.65 -8.54 -2.8 a 19.07 19.07 0 0 0 -7.32 4.15 c 6.88 8.63 17.21 19.45 22 25.25 8.45 10.14 11.66 19.95 17.25 30.62 z" opacity=".4"/><path d="m 222.91 176 c 91.88 -23 78.51 -68.9 73.09 -100.64 -2.54 -14.77 -15.8 -26.36 -29.22 -34.58 3.41 7.11 4.91 17.08 3.07 23.08 a 4.68 4.68 0 0 1 -.32 .78 3.03 3.03 0 0 1 -.47 .68 1.37 1.37 0 0 1 -1.33 .53 2.29 2.29 0 0 1 -1.13 -.85 l -13.52 -15 c -.58 -.64 -1.93 -2.25 -3.68 -4.45 l -1.1 -1.39 c -.38 -.48 -.77 -1 -1.17 -1.51 -.6 -.78 -1.23 -1.6 -1.87 -2.45 -1.06 -1.42 -2.15 -2.92 -3.23 -4.45 -.44 -.61 -.87 -1.23 -1.29 -1.85 s -.85 -1.24 -1.26 -1.87 -.82 -1.24 -1.21 -1.85 -.78 -1.23 -1.14 -1.84 -.72 -1.2 -1.06 -1.79 l -.21 -.07 c -.79 -.74 -1.56 -1.46 -2.33 -2.15 2.35 7.43 6.49 14.16 9.49 21.35 a 73.38 73.38 0 0 1 -32.14 92.41 c -1.17 .65 -2.35 1.26 -3.55 1.86 -8.33 4.19 -17.33 7.18 -25.33 12.05 a 63.3 63.3 0 0 0 -20 19.14 16.81 16.81 0 0 0 -3.07 7.09 9.59 9.59 0 0 0 1 5.5 264.37 264.37 0 0 0 62.98 -7.73 z" opacity=".6"/><path d="m 238.27 30.24 c .39 .61 .8 1.23 1.21 1.85 s .83 1.25 1.26 1.87 .85 1.24 1.29 1.85 c 1.08 1.53 2.17 3 3.23 4.45 .64 .85 1.27 1.67 1.87 2.45 .4 .52 .79 1 1.17 1.51 l 1.1 1.39 c 1.75 2.2 3.1 3.81 3.68 4.45 l 13.52 14.94 a 2.29 2.29 0 0 0 1.13 .83 1.37 1.37 0 0 0 1.33 -.53 3.03 3.03 0 0 0 .47 -.68 4.68 4.68 0 0 0 .32 -.78 c 1.84 -6 .34 -16 -3.07 -23.08 a 157.46 157.46 0 0 0 -30.71 -14.17 c .34 .59 .69 1.19 1.06 1.79 s .75 1.24 1.14 1.86 z" opacity=".4"/><path d="m 111.43 254.67 l -3.2 -1.82 q -1.85 -2.58 -3.88 -5 a 3.92 3.92 0 0 0 -1.35 -1.15 3.64 3.64 0 0 0 -3.08 .57 23.32 23.32 0 0 0 -4 2.77 2.75 2.75 0 0 0 -1.16 1.77 2.15 2.15 0 0 0 .88 1.67 c 2.68 2.2 7.21 .12 9.94 2.27 a 6.67 6.67 0 0 1 2 3.58 c .29 1 .75 2.32 1.82 2.39 a 2.3 2.3 0 0 0 1.6 -.72 5.9 5.9 0 0 0 2.07 -3.18 2.73 2.73 0 0 0 -1.64 -3.15 z" opacity=".6"/><path d="m 30.85 242.76 a 2.73 2.73 0 0 0 -1.52 -1.47 2.09 2.09 0 0 0 -1.8 .55 c -2.67 2.21 -1.48 7 -4.1 9.32 a 6.6 6.6 0 0 1 -3.9 1.31 c -1.07 .08 -2.42 .29 -2.69 1.33 a 2.3 2.3 0 0 0 .46 1.71 6 6 0 0 0 2.7 2.63 2.72 2.72 0 0 0 3.36 -1 l 2.39 -2.8 c 1.92 -.87 3.8 -1.83 5.63 -2.86 a 3.8 3.8 0 0 0 1.39 -1.11 3.68 3.68 0 0 0 0 -3.13 23.54 23.54 0 0 0 -1.92 -4.48 z" opacity=".6"/><path d="m 155.14 239 c -1.71 -.11 -3.2 1.12 -4.38 2.35 a 3.47 3.47 0 0 0 -1.23 2.28 3.19 3.19 0 0 0 .55 1.53 8.14 8.14 0 0 0 4.45 3.8 4.8 4.8 0 0 0 5.33 -1.66 l 1.58 -3.79 c -2.3 -1.25 -3.67 -4.3 -6.3 -4.51 z" opacity=".6"/><path d="m 108.27 224.53 a 2.89 2.89 0 0 0 -1.94 1.07 c -.67 1.09 .14 2.46 .92 3.47 a 4.67 4.67 0 0 0 1.31 1.31 c 2 1.14 9.31 -.9 8.89 -3.57 -.45 -2.98 -7.15 -2.71 -9.18 -2.28 z" opacity=".6"/><path d="m 56.1 253.93 c -.35 2.34 1.84 4.95 4.15 4.39 l 1 -1.14 a 11.57 11.57 0 0 0 -.41 -8 c -2.24 .65 -4.38 2.4 -4.74 4.75 z" opacity=".6"/><path d="m 42.16 217.87 a 24.4 24.4 0 0 0 -5.33 3.13 c -.39 .29 -.77 .6 -1.14 .91 a 9.78 9.78 0 0 0 2.38 2.5 3.37 3.37 0 0 0 3.29 .38 c 3.99 -2.07 10.53 -10.99 .8 -6.92 z" opacity=".6"/><path d="m 76.9 226.46 c -1.61 1.42 -1 4.38 .9 5.44 a 5.32 5.32 0 0 0 6 -1 l -1.27 -4.06 c -1.71 -1.12 -4.12 -1.71 -5.63 -.38 z" opacity=".6"/><path d="m 181.55 236.13 c -5.93 -8 -14.49 -15.12 -24.64 -21.15 -2.31 -1.37 -11.51 3.35 -18.71 -3.56 -2 -1.95 -12.51 -9.63 -15 -10.74 -36.31 -15.81 -65 -12.11 -90.8 6.29 -31 17.85 -36.1 43.41 -20.91 60.11 l 154.9 32.53 c 27.24 1.91 32.93 -33.08 15.16 -63.48 z m -148.75 14.2 a 3.8 3.8 0 0 1 -1.39 1.11 c -1.83 1 -3.71 2 -5.63 2.86 l -2.39 2.8 a 2.72 2.72 0 0 1 -3.36 1 6 6 0 0 1 -2.73 -2.63 2.3 2.3 0 0 1 -.46 -1.71 c .27 -1 1.62 -1.25 2.69 -1.33 a 6.6 6.6 0 0 0 3.9 -1.31 c 2.62 -2.27 1.43 -7.11 4.1 -9.32 a 2.09 2.09 0 0 1 1.8 -.55 2.73 2.73 0 0 1 1.52 1.47 23.61 23.61 0 0 1 2 4.44 3.68 3.68 0 0 1 -.05 3.17 z m 8.56 -25.59 a 3.37 3.37 0 0 1 -3.29 -.38 9.78 9.78 0 0 1 -2.38 -2.5 c .37 -.31 .75 -.62 1.14 -.91 a 24.4 24.4 0 0 1 5.33 -3.08 c 9.73 -4.07 3.19 4.85 -.8 6.87 z m 19.93 32.44 l -1 1.14 c -2.31 .56 -4.5 -2.05 -4.15 -4.39 s 2.5 -4.1 4.78 -4.76 a 11.57 11.57 0 0 1 .37 8.01 z m 16.51 -25.28 c -1.88 -1.06 -2.51 -4 -.9 -5.44 s 3.92 -.74 5.59 .38 l 1.27 4.06 a 5.32 5.32 0 0 1 -5.96 1 z m 35.28 25.87 a 5.9 5.9 0 0 1 -2.08 3.23 2.3 2.3 0 0 1 -1.59 .77 c -1.07 -.07 -1.53 -1.36 -1.82 -2.39 a 6.67 6.67 0 0 0 -2 -3.58 c -2.73 -2.15 -7.26 -.07 -9.94 -2.27 a 2.15 2.15 0 0 1 -.88 -1.67 2.75 2.75 0 0 1 1.16 -1.86 23.32 23.32 0 0 1 4 -2.77 3.64 3.64 0 0 1 3.08 -.57 3.92 3.92 0 0 1 1.35 1.15 q 2 2.42 3.88 5 l 3.19 1.82 a 2.72 2.72 0 0 1 1.65 3.14 z m -4.52 -27.39 a 4.67 4.67 0 0 1 -1.31 -1.31 c -.78 -1 -1.59 -2.38 -.92 -3.47 a 2.89 2.89 0 0 1 1.94 -1.07 c 2 -.43 8.7 -.7 9.18 2.28 .42 2.67 -6.92 4.71 -8.89 3.57 z m 30.59 31.5 a 1.4 1.4 0 0 1 -1.8 .82 l -.03 -.01 a 2.61 2.61 0 0 1 -1.4 -1.67 2 2 0 0 1 .12 -1.8 1.73 1.73 0 0 1 2.33 -.15 5.04 5.04 0 0 1 1.43 2.12 z m 20.71 -14.54 a 4.8 4.8 0 0 1 -5.33 1.66 8.14 8.14 0 0 1 -4.45 -3.8 3.19 3.19 0 0 1 -.55 -1.53 3.47 3.47 0 0 1 1.23 -2.28 c 1.18 -1.23 2.67 -2.46 4.38 -2.35 2.63 .17 4 3.22 6.3 4.51 z m 6.5 15.24 a 1.8 1.8 0 0 1 .71 -1.17 l 1.92 -1.87 a .9 .9 0 0 1 .56 -.32 .87 .87 0 0 1 .55 .3 c 8.7 8.13 -3.84 7.93 -3.74 3.06 z"/><path d="m 138.37 259.07 a 1.73 1.73 0 0 0 -2.33 .15 2 2 0 0 0 -.12 1.8 2.61 2.61 0 0 0 1.4 1.67 1.4 1.4 0 0 0 1.82 -.78 l .01 -.03 .65 -.69 a 5.04 5.04 0 0 0 -1.43 -2.12 z" opacity=".6"/><path d="m 170.1 259.52 a .87 .87 0 0 0 -.55 -.3 .9 .9 0 0 0 -.56 .32 l -1.92 1.87 a 1.8 1.8 0 0 0 -.71 1.17 c -.1 4.87 12.44 5.07 3.74 -3.06 z" opacity=".6"/></g></svg>