<svg enable-background="new 0 0 100 100" viewBox="0 0 100 100" xmlns="http://www.w3.org/2000/svg"><path d="m 83.23 87.68 c 1.02 -.7 2.16 -1.21 3.18 -1.91 -8.46 -6.11 -16.93 -12.16 -25.39 -18.27 -.92 -1.75 -1.88 -3.36 -2.83 -4.91 2.19 .26 4.66 .5 7.54 .71 -1.4 -2.93 -3.56 -3.63 -5.98 -5.79 6.75 .64 9.29 .83 13.56 -4.2 -4.65 -1.02 -5.67 -1.21 -10.25 -2.93 4.33 -.38 11.46 -2.29 11.46 -7.83 -11.81 -.57 -21.29 -2.6 -32.16 -7.92 -.75 -2.96 -1.24 -6.25 -1.38 -10.02 -.25 -6.17 -.32 -12.6 -3.69 -16.36 -1.27 -1.46 -2.8 -2.29 -4.45 -2.74 -2.35 -.64 -5.54 -.64 -7.96 -.25 -1.59 .32 -3.12 -.7 -4.84 .06 -1.27 .57 .7 2.16 2.1 3.69 3.31 3.76 -4.2 18.33 -6.05 23.04 -4.52 11.77 -2.61 23.42 3.37 31.44 8.53 11.52 27.62 13.94 38.69 7.13 7.64 8.79 15.21 18.4 24.63 24.38 -.12 -1.4 .51 -5.86 .45 -7.32 z" fill="#fff"/></svg>