<svg viewBox="0 0 300 300" xmlns="http://www.w3.org/2000/svg"><g fill="#fff"><path d="m 292.61 79.6 c 3.8 0 6.88 3.08 6.88 6.88 s -3.08 6.88 -6.88 6.88 -6.88 -3.08 -6.88 -6.88 3.08 -6.88 6.88 -6.88 z"/><path d="m 257.69 53.15 c 3.8 0 6.88 3.08 6.88 6.88 s -3.08 6.88 -6.88 6.88 -6.88 -3.08 -6.88 -6.88 3.08 -6.88 6.88 -6.88 z"/><path d="m 271.45 19.83 c 3.8 0 6.88 3.08 6.88 6.88 s -3.08 6.88 -6.88 6.88 -6.88 -3.08 -6.88 -6.88 3.08 -6.88 6.88 -6.88 z"/><path d="m 4.79 196 v .1 q .9 3.12 2.09 6.46 l .06 .14 c .79 2.21 1.67 4.5 2.64 6.84 a 2.09 2.09 0 0 0 .1 .24 q 1.44 3.48 3.13 7.14 c .05 .11 .1 .23 .16 .35 q 1.67 3.6 3.55 7.37 l .25 .5 c 1.23 2.47 2.54 5 3.9 7.54 l .35 .66 c .67 1.26 1.35 2.51 2.05 3.78 s 1.42 2.56 2.14 3.85 l .46 .83 2.18 3.82 c .74 1.29 1.5 2.59 2.26 3.9 l .55 .93 c .76 1.31 1.53 2.61 2.32 3.93 .7 1 1.37 1.93 2 2.81 s 1.32 1.8 1.94 2.6 c .75 1 1.46 1.9 2.13 2.72 a 47.39 47.39 0 0 0 3.85 4.25 l .11 .11 q .55 .51 1 .9 a 9.63 9.63 0 0 0 1 .7 c .2 .13 .39 .24 .57 .34 3.52 1.81 4.27 -2.33 4.62 -8.42 .07 -1.31 .13 -2.7 .19 -4.15 .1 -2.41 .21 -4.95 .44 -7.46 .24 -1.85 .52 -3.63 .82 -5.38 s .66 -3.51 1 -5.2 c 3.3 -14.46 9.34 -26.05 18.06 -39.84 q 2.3 -3.65 4.85 -7.52 a 65.41 65.41 0 0 1 8 -10.07 51.27 51.27 0 0 1 7.26 -6.18 q 1.5 -1.05 3 -1.95 a 40.22 40.22 0 0 1 3.85 -2 l 1.77 -.78 1.11 -.45 c .93 -.36 1.86 -.7 2.81 -1 .65 -.21 1.32 -.4 2 -.58 a 53.93 53.93 0 0 1 9.83 -1.67 c 1.16 -.1 2.32 -.15 3.49 -.18 29.91 -.74 64.88 18.34 95.93 22.41 a 84.5 84.5 0 0 0 10.78 .76 h 1.76 c 1.17 0 2.33 -.08 3.48 -.17 a 54.84 54.84 0 0 0 6.81 -.95 47.24 47.24 0 0 0 9.77 -3.1 c 1.06 -.47 2.1 -1 3.13 -1.54 s 2.05 -1.15 3.06 -1.8 2 -1.35 3 -2.09 a 52.64 52.64 0 0 0 7.12 -6.54 q 1.37 -1.51 2.7 -3.18 c .88 -1.12 1.76 -2.29 2.61 -3.52 .43 -.61 .85 -1.24 1.27 -1.89 .69 -1 1.36 -2.15 2 -3.28 .56 -.95 1.11 -1.92 1.66 -2.94 .79 -1.47 1.57 -3 2.32 -4.61 .38 -.8 .76 -1.62 1.13 -2.45 q 1.11 -2.5 2.18 -5.2 c .35 -.9 .7 -1.82 1 -2.76 q 2.6 -7 4.83 -15.36 c -26.66 -22.57 -73.61 -49.87 -113.04 -48.39 h -.06 c -.83 0 -1.66 .08 -2.48 .14 l -.85 .07 -1.71 .16 -1 .11 c -.53 .07 -1.07 .13 -1.6 .21 l -1 .14 -1.64 .28 -.91 .16 -1.91 .38 -.62 .13 c -.84 .19 -1.69 .39 -2.53 .6 l -.56 .15 c -.65 .17 -1.31 .34 -2 .53 l -.85 .25 -1.68 .5 -.92 .3 -1.64 .55 -.88 .31 -1.78 .65 -.72 .27 q -2.5 .96 -5 2.07 l -.61 .28 c -.62 .28 -1.24 .56 -1.86 .86 l -.78 .37 q -.85 .4 -1.71 .84 l -.78 .39 q -.89 .45 -1.77 .93 l -.67 .35 q -1.07 .57 -2.13 1.17 l -.27 .15 c -.84 .48 -1.68 1 -2.51 1.46 l -2.38 1.45 -.5 .32 -1.89 1.2 -.6 .39 -1.82 1.22 -.55 .37 -2 1.4 -.3 .22 c -1.6 1.13 -3.19 2.3 -4.75 3.5 a .28 .28 0 0 0 -.08 .07 c -.74 .56 -1.46 1.12 -2.19 1.7 l -.36 .29 c -.64 .51 -1.28 1 -1.91 1.54 l -.4 .33 c -.65 .54 -1.3 1.08 -1.94 1.63 l -.27 .23 q -3.39 2.89 -6.64 5.94 l -.09 .09 c -.68 .63 -1.34 1.27 -2 1.91 l -.25 .24 c -.63 .61 -1.25 1.23 -1.87 1.85 l -.22 .21 c -.68 .68 -1.35 1.36 -2 2 -15.39 15.93 -27.58 33.76 -34.31 48.76 -47.86 -17 -60.06 -4.76 -53.48 22 .25 .94 .52 2 .84 3 z m 214.71 -69.08 a 10.81 10.81 0 1 1 9.46 12.01 l -.05 -.01 a 10.82 10.82 0 0 1 -9.43 -11.99 z" opacity=".6"/><path d="m 228.89 139 a 10.8 10.8 0 1 0 -9.41 -12.03 v .03 a 10.8 10.8 0 0 0 9.41 12 z m .16 -17.89 c 3.12 -.78 6.39 1.57 7.31 5.26 a 7.76 7.76 0 0 1 .23 2.22 c .09 3 -1.58 5.71 -4.21 6.37 -3.12 .77 -6.39 -1.58 -7.31 -5.27 a 7.69 7.69 0 0 1 -.23 -2.22 c -.05 -3.07 1.58 -5.75 4.21 -6.4 z"/><path d="m 181.41 237.13 c -1.19 .29 -2.4 .57 -3.6 .83 l -.63 .13 c -1.24 .26 -2.47 .5 -3.71 .72 l -1.15 .21 c -1.29 .22 -2.58 .43 -3.88 .61 l -.84 .11 c -1.13 .16 -2.26 .29 -3.4 .42 l -1 .11 c -1.31 .14 -2.62 .25 -3.94 .34 l -1 .07 c -1.19 .07 -2.38 .14 -3.57 .18 h -.67 c -1.36 0 -2.71 .05 -4.06 .05 h -1 c -1.39 0 -2.77 0 -4.15 -.1 h -.21 q -2 -.09 -4 -.24 l -.89 -.07 c -1.38 -.12 -2.77 -.25 -4.16 -.42 l -.59 -.07 q -1.93 -.24 -3.87 -.54 l -.65 -.1 q -2.1 -.33 -4.2 -.75 l -.74 -.15 c -1.38 -.28 -2.75 -.58 -4.13 -.91 h -.17 c -1.42 -.34 -2.84 -.72 -4.25 -1.11 l -.79 -.23 c -1.41 -.4 -2.83 -.83 -4.24 -1.29 4.85 20.43 13.64 42.72 28.15 34.19 a 354.6 354.6 0 0 0 46.62 -33.29 l -.24 .06 c -1.27 .36 -2.54 .69 -3.81 1 z" opacity=".6"/><path d="m 93.79 120.25 l .22 -.21 c .62 -.62 1.24 -1.24 1.87 -1.85 l .25 -.24 c .67 -.64 1.33 -1.28 2 -1.91 l .09 -.09 q 3.24 -3 6.64 -5.94 l .27 -.23 c .64 -.55 1.29 -1.09 1.94 -1.63 l .4 -.33 c .63 -.52 1.27 -1 1.91 -1.54 l .41 -.28 c .73 -.58 1.45 -1.14 2.19 -1.7 l .08 -.07 c 1.56 -1.2 3.15 -2.37 4.75 -3.5 l .3 -.22 2 -1.4 .55 -.37 1.82 -1.22 .6 -.39 1.89 -1.2 .5 -.32 2.32 -1.46 c .83 -.5 1.67 -1 2.51 -1.46 l .27 -.15 q 1.06 -.6 2.13 -1.17 l .67 -.35 q .88 -.48 1.77 -.93 l .78 -.39 q .85 -.44 1.71 -.84 l .78 -.37 c .62 -.3 1.24 -.58 1.86 -.86 l .61 -.28 q 2.48 -1.11 5 -2.07 l .72 -.27 1.78 -.65 .88 -.31 1.64 -.55 .92 -.3 1.68 -.5 .85 -.25 c .66 -.19 1.32 -.36 2 -.53 l .56 -.15 c .84 -.21 1.69 -.41 2.53 -.6 l .62 -.13 1.91 -.38 .91 -.16 1.64 -.28 1 -.14 c .53 -.08 1.07 -.14 1.6 -.21 l 1 -.11 1.67 -.16 .85 -.07 c .82 -.06 1.65 -.11 2.48 -.14 h .06 q 3.68 -.13 7.44 .05 c -37.63 -8.36 -105.17 -17.29 -98.7 18.07 a 60.01 60.01 0 0 0 10.87 24.79 c .66 -.69 1.33 -1.37 2 -2.05 z"/><path d="m 285.43 127.82 q -2.24 8.37 -4.83 15.36 c -.34 .94 -.69 1.86 -1 2.76 q -1.06 2.7 -2.18 5.2 c -.37 .83 -.75 1.65 -1.13 2.45 -.75 1.6 -1.53 3.14 -2.32 4.61 -.55 1 -1.1 2 -1.66 2.94 -.66 1.13 -1.33 2.23 -2 3.28 -.42 .65 -.84 1.28 -1.27 1.89 -.85 1.23 -1.73 2.4 -2.61 3.52 s -1.79 2.17 -2.7 3.18 a 52.64 52.64 0 0 1 -7.12 6.54 c -1 .74 -2 1.44 -3 2.09 s -2 1.25 -3.06 1.8 -2.07 1.07 -3.13 1.54 a 47.24 47.24 0 0 1 -9.77 3.1 54.84 54.84 0 0 1 -6.86 .92 c -1.15 .09 -2.31 .15 -3.48 .17 h -1.76 a 84.5 84.5 0 0 1 -10.78 -.76 c -31.05 -4.07 -66 -23.15 -95.93 -22.41 -1.17 0 -2.33 .08 -3.49 .18 a 53.93 53.93 0 0 0 -9.83 1.67 c -.66 .18 -1.33 .37 -2 .58 -1 .29 -1.88 .63 -2.81 1 l -1.11 .45 -1.77 .78 c -1.3 .61 -2.58 1.27 -3.85 2 q -1.5 .9 -3 1.95 a 51.27 51.27 0 0 0 -7.26 6.18 65.41 65.41 0 0 0 -8 10.07 q -2.55 3.89 -4.85 7.52 c -8.77 13.85 -14.81 25.44 -18.08 39.9 -.39 1.69 -.73 3.42 -1 5.2 s -.58 3.53 -.82 5.38 c -.23 2.51 -.34 5 -.44 7.46 -.06 1.45 -.12 2.84 -.19 4.15 -.35 6.09 -1.1 10.23 -4.62 8.42 -.18 -.1 -.37 -.21 -.57 -.34 a 9.63 9.63 0 0 1 -1 -.7 11.84 11.84 0 0 1 -1 -.9 l -.11 -.11 a 47.1 47.1 0 0 1 -3.85 -4.25 c -.67 -.82 -1.38 -1.72 -2.13 -2.72 -.62 -.8 -1.26 -1.67 -1.94 -2.6 s -1.31 -1.81 -2 -2.81 c -.79 -1.32 -1.56 -2.62 -2.32 -3.93 l -.55 -.93 c -.76 -1.31 -1.52 -2.61 -2.26 -3.9 l -2.18 -3.82 -.46 -.83 c -.72 -1.29 -1.44 -2.58 -2.14 -3.85 s -1.38 -2.52 -2.05 -3.78 l -.35 -.66 c -1.36 -2.56 -2.67 -5.07 -3.9 -7.54 l -.25 -.5 q -1.89 -3.77 -3.55 -7.37 c -.06 -.12 -.11 -.24 -.16 -.35 q -1.69 -3.66 -3.13 -7.14 a 2.09 2.09 0 0 1 -.1 -.24 c -1 -2.34 -1.85 -4.63 -2.64 -6.84 l -.06 -.14 q -1.32 -3.41 -2.23 -6.53 v -.1 c -.3 -1 -.57 -2.07 -.82 -3.08 -21.23 32 61.74 116 67.39 78.32 q 4.62 -30.81 14.6 -48.33 a 124.51 124.51 0 0 0 25.91 12 c 1.41 .46 2.83 .89 4.24 1.29 l .79 .23 c 1.41 .39 2.83 .77 4.25 1.11 h .17 c 1.38 .33 2.75 .63 4.13 .91 l .74 .15 q 2.1 .42 4.2 .75 l .65 .1 q 1.94 .3 3.87 .54 l .59 .07 c 1.39 .17 2.78 .3 4.16 .42 l .89 .07 q 2 .15 4 .24 h .24 c 1.38 .06 2.76 .09 4.15 .1 h 1 c 1.35 0 2.7 0 4.06 -.05 h .67 c 1.19 0 2.38 -.11 3.57 -.18 l 1 -.07 c 1.32 -.09 2.63 -.2 3.94 -.34 l 1 -.11 c 1.14 -.13 2.27 -.26 3.4 -.42 l .84 -.11 c 1.3 -.18 2.59 -.39 3.88 -.61 l 1.15 -.21 c 1.24 -.22 2.47 -.46 3.71 -.72 l .63 -.08 c 1.2 -.26 2.41 -.54 3.6 -.83 l 1.12 -.27 c 1.27 -.32 2.54 -.65 3.81 -1 28.62 -8 54.95 -24.94 74.65 -47 s 32.21 -41.16 24.46 -61.08 z"/></g></svg>