<svg viewBox="0 0 300 300" xmlns="http://www.w3.org/2000/svg"><g fill="#fff"><path d="m 174.38 29.37 l -15.17 -2 a 85.47 85.47 0 0 1 -1.4 11.73 c -6.51 5.13 -23.65 6.48 -33.44 -6.55 l 2.63 -9.34 -35.63 -4.64 12.89 30.71 84.44 8.18 z" opacity=".4"/><path d="m 240.27 183 c -7.65 -.09 -20 2.59 -33.19 7.61 -14.25 5.4 -25.64 13.26 -30.66 19.32 7.52 -.68 19.54 -4.34 32.66 -9.32 14.41 -5.47 26.12 -12.26 31.19 -17.61 z" fill-rule="evenodd"/><path d="m 158.36 168.19 c -4 -1.18 -6.84 -4.49 -10.3 -6.74 s -8.69 -3.13 -11.27 .08 c -2.11 2.64 -1.27 6.44 -.86 9.79 .73 5.8 -.58 12.44 -5.39 15.75 -4.33 3 -10.1 2.43 -15.29 1.61 -6.14 -1 -13.25 -2.91 -15.51 -8.7 -1.53 -3.91 -.26 -8.29 .88 -12.34 3 -10.77 4.95 -21.95 4.48 -33.13 -.12 -3 -.81 -6.47 -3.55 -7.59 -3 -1.21 -6 1.21 -8.51 3.2 -1 .81 -2.1 1.58 -3.2 2.31 l -28.61 165 85.41 2.57 23.26 -134.16 c -3.47 2.29 -7.63 3.52 -11.54 2.35 z"/><path d="m 71.38 28.71 l 19.99 -10.14 12.89 30.71 z" opacity=".5"/><path d="m 135.3 125.39 a 7.51 7.51 0 0 1 6.12 -2 2.38 2.38 0 0 1 1.3 .49 2.68 2.68 0 0 1 .72 1.32 c .09 .28 .18 .56 .26 .84 a 28.87 28.87 0 0 1 .8 3.78 c .18 1.27 .22 2.72 -.66 3.65 a 4.59 4.59 0 0 1 -2.2 1.07 c -6.64 1.76 -12.16 -3.47 -6.34 -9.15 z"/><path d="m 242.69 176.68 l 24.69 100.32 c -2.9 15.45 -39.3 26.84 -50.31 19.23 l -48.26 -87.66 c 3.54 3.88 20.58 -.62 40.06 -8 20.64 -7.82 35.74 -18.36 33.73 -23.54 0 -.1 -.09 -.19 -.14 -.29 z" fill-rule="evenodd" opacity=".5"/><path d="m 186.43 232.9 c 1.27 2.43 7.59 13.28 8.92 15.68 l 10.8 19.5 14.36 25.92 c 13.37 1.75 36.11 -6.64 41.83 -17.78 -2.06 -8 -4 -16.05 -5.9 -24.09 -.69 -2.83 -2.24 -9.34 -3.06 -12.15 .13 .44 -3 1.45 -3.36 1.53 a 7.69 7.69 0 0 1 -3 0 11.16 11.16 0 0 1 -4.56 -2.25 c -3.28 -2.53 -5.7 -6.5 -9.93 -7.65 a 14.27 14.27 0 0 0 -7.53 .39 c -3.16 .86 -6.19 2.15 -9.4 2.75 s -6.75 .44 -9.45 -1.4 c -2.39 -1.63 -8 -6.33 -11.62 -6.2 -4.31 .18 -7.2 1.55 -8.1 5.75 z" fill-rule="evenodd"/><path d="m 159.38 24.57 c -1.08 4.43 -8.79 6.43 -17.23 4.43 s -14.39 -7.31 -13.32 -11.78 8.8 -6.45 17.23 -4.4 14.4 7.27 13.32 11.75 z"/><path d="m 135.3 125.39 a 7.51 7.51 0 0 1 6.12 -2 2.38 2.38 0 0 1 1.3 .49 2.68 2.68 0 0 1 .72 1.32 c .09 .28 .18 .56 .26 .84 a 28.87 28.87 0 0 1 .8 3.78 c .18 1.27 .22 2.72 -.66 3.65 a 4.59 4.59 0 0 1 -2.2 1.07 c -6.64 1.76 -12.16 -3.47 -6.34 -9.15 z"/><path d="m 159.45 22.8 v -.59 h -.15 a 2.68 2.68 0 0 1 .15 .59 z"/><path d="m 142.15 29 c -8.43 -2 -14.39 -7.31 -13.32 -11.78 a 1.19 1.19 0 0 1 .1 -.28 h -.12 l -4.44 15.68 c 9.79 13 26.93 11.68 33.44 6.55 a 101.11 101.11 0 0 0 1.56 -14.51 c -1.12 4.34 -8.81 6.34 -17.22 4.34 z" opacity=".8"/><path d="m 168.8 9.27 l -66.05 -9.19 a 8 8 0 0 0 -9.06 6.78 l -.01 .08 -1.63 11.72 35 4.55 1.79 -6.32 h .12 c 0 .1 -.08 .19 -.1 .28 1.08 -4.47 8.8 -6.45 17.23 -4.4 7.09 1.7 12.41 5.69 13.3 9.58 a 1 1 0 0 1 0 -.19 h .15 v .59 a 4.59 4.59 0 0 1 -.07 1.77 c 0 .79 -.1 1.74 -.16 2.78 l 14.9 1.94 1.53 -11 a 8.06 8.06 0 0 0 -6.94 -8.97 z" opacity=".5"/><path d="m 104.26 49.28 l -43.03 248.14 85.41 2.58 42.06 -242.54 z" opacity=".5"/><path d="m 59 104.3 a 12.42 12.42 0 0 1 5.25 .35 13.26 13.26 0 0 1 9.2 13 c -.19 3.78 -2 7.29 -2.55 11 s 1 8.37 4.72 9.14 a 8.94 8.94 0 0 0 4.74 -.67 44.26 44.26 0 0 0 9.44 -4.71 l 14.42 -83.15 -32.84 -20.55 z" opacity=".4"/><path d="m 207.08 190.6 c 13.19 -5 25.45 -7.68 33.11 -7.61 2.19 -2.32 3.15 -4.37 2.54 -5.93 -2 -5.18 -20.37 -3 -41 4.79 s -35.27 20.8 -33.26 26 c .74 1.9 3.61 2.48 8 2.08 4.98 -6.07 16.36 -13.93 30.61 -19.33 z" fill-rule="evenodd" opacity=".3"/><path d="m 239.76 198.32 a 66.69 66.69 0 0 1 2.92 7.72 q 1.26 3.93 2.42 7.87 t 2.17 7.94 a 78.36 78.36 0 0 1 1.69 8.08 .89 .89 0 0 1 -1.7 .5 75.8 75.8 0 0 1 -2.87 -7.75 c -.83 -2.61 -1.63 -5.24 -2.39 -7.87 s -1.46 -5.3 -2.14 -7.95 a 66.47 66.47 0 0 1 -1.64 -8.1 .81 .81 0 0 1 1.54 -.44 z"/><path d="m 61.23 297.42 l 28.61 -165 a 44.26 44.26 0 0 1 -9.44 4.71 8.94 8.94 0 0 1 -4.74 .67 c -3.7 -.77 -5.24 -5.4 -4.72 -9.14 s 2.36 -7.26 2.55 -11 a 13.26 13.26 0 0 0 -9.2 -13 12.43 12.43 0 0 0 -5.29 -.36 l -26.38 161.78 z" opacity=".8"/></g></svg>