<svg enable-background="new 0 0 841.889 595.281" height="595.28" viewBox="0 0 841.89 595.28" width="841.89" xmlns="http://www.w3.org/2000/svg"><g fill="#fff"><path d="m 368.42 446.46 c 0 14.01 -12.26 26.26 -26.26 26.26 s -26.26 -12.26 -26.26 -26.26 v -26.26 h -175.09 v 87.54 c 0 38.52 31.52 70.03 70.03 70.03 h 420.2 c 38.52 0 70.03 -31.52 70.03 -70.03 v -87.54 h -332.65 z"/><path d="m 345.66 344.91 l 26.26 26.26 c 7 7 17.51 7 24.51 0 l 189.09 -189.09 -52.52 -52.52 -187.34 190.84 c -7 7 -7 17.51 0 24.51 z m 189.09 -189.09 l 28.01 28.01 -145.32 145.33 -26.26 -26.26 z"/><path d="m 701.08 70.03 l -52.53 -52.52 -87.54 87.54 52.53 52.52 z"/><path d="m 324.65 262.62 c -8.75 -19.26 -5.25 -28.01 8.75 -43.77 26.26 -26.26 15.76 -59.53 -8.75 -61.28 8.75 19.26 5.25 28.01 -8.75 43.77 -26.27 24.52 -17.51 59.53 8.75 61.28 z"/><path d="m 263.37 227.61 c -7 -31.52 -8.75 -52.52 12.26 -75.29 33.27 -31.52 21.01 -80.54 -12.26 -99.8 7 31.52 8.75 52.52 -12.26 75.29 -33.26 31.51 -21 80.54 12.26 99.8 z"/></g></svg>