<svg enable-background="new 0 0 434.3 841.9" viewBox="0 0 434.3 841.9" xmlns="http://www.w3.org/2000/svg"><g fill="#fff"><path d="m 406.2 0 h -378.1 c -15.5 0 -28.1 12.6 -28.1 28.1 v 785.7 c 0 15.4 12.6 28.1 28.1 28.1 h 378.1 c 15.4 0 28.1 -12.6 28.1 -28.1 v -786 c -.3 -15.4 -12.7 -27.8 -28.1 -27.8 z m -38.9 337.5 c 0 14.7 -11.5 26.2 -26.2 26.2 h -253 c -14.7 0 -26.2 -11.5 -26.2 -26.2 v -252.9 c 0 -14.7 11.5 -26.2 26.2 -26.2 h 252.9 c 14.7 0 26.2 11.5 26.2 26.2 z m 19.8 116.1 c -9.8 0 -17.7 -7.9 -17.7 -17.7 l -40.7 -1.1 c -2 0 -3.6 -1.7 -3.6 -3.6 0 -1.7 1.4 -3.4 3.1 -3.6 l 55.9 -9 c .8 -.3 2 -.3 3.1 -.3 9.8 0 17.7 7.9 17.7 17.7 s -8 17.9 -17.8 17.6 z"/><path d="m 272.8 129.7 h -71.9 c -19.9 .5 -48.3 22 -48.3 51.4 0 35.7 18.4 46.7 30.4 56.1 2.1 2.1 3.1 4.7 3.1 7.3 l -1.6 37.8 c 0 2.1 .5 3.1 3.1 3.1 11 -.5 22.6 .5 33.6 3.1 2.1 .5 3.1 0 3.1 -3.1 l -2.1 -22.6 c 0 -1 -.5 -2.1 -1.6 -2.6 l -7.3 -4.7 -7.3 -4.7 c -1 -.5 -1.6 -2.6 -1 -3.7 .5 -1.6 2.1 -2.1 3.7 -1.6 h .5 l 10.5 4.2 5.8 2.6 c 8.9 3.7 18.4 5.8 28.3 6.3 5.2 0 7.3 -1.6 7.9 -3.1 5.2 -6.3 6.3 -33.6 6.3 -58.8 .5 -13.6 -3.1 -26.8 -9.4 -38.8 -.5 -.5 0 -1.1 .5 -1.6 10 -3.7 16.8 -12.6 17.3 -23.1 .1 -1.9 -1.5 -3.5 -3.6 -3.5 z"/></g></svg>