<svg enable-background="new 0 0 843.7094727 758.9790039" viewBox="0 0 843.71 758.98" xmlns="http://www.w3.org/2000/svg"><path d="m 469.19 743.54 s -26.1 12.63 -45.46 10.1 -24.42 -2.53 -36.2 -44.62 c -12.63 -42.09 -28.62 -58.93 -28.62 -58.93 s -13.47 -12.63 -21.89 -21.89 -32.83 -19.36 -55.56 -16 c -22.73 3.37 -31.15 -18.52 -31.15 -18.52 s 22.73 -15.15 31.15 -14.31 53.04 33.68 53.04 33.68 14.31 3.37 -12.63 -37.89 c -26.94 -41.25 -69.88 -106.92 -110.29 -149.01 s -57.25 -41.25 -57.25 -41.25 -10.94 26.1 -40.41 25.26 -18.52 -20.21 -18.52 -20.21 -21.05 31.99 -41.25 26.94 c -20.21 -5.05 .84 -29.47 .84 -29.47 s -11.79 22.73 -29.47 12.63 5.05 -27.78 5.05 -27.78 -21.05 8.42 -25.26 -20.21 c -4.21 -28.62 36.2 -13.47 36.2 -13.47 s -16.84 -5.05 -16.84 -21.05 c 0 -15.99 3.37 -16.84 3.37 -16.84 s -26.94 -9.26 -12.63 -30.31 c 15.15 -21.05 12.63 -16 12.63 -16 s -4.21 -5.05 13.47 -21.05 c 17.68 -15.15 21.89 -15.15 21.89 -15.15 s -13.47 -5.05 .84 -21.05 c 13.47 -15.15 48.83 12.63 48.83 12.63 s -21.89 -10.94 -3.37 -30.31 c 18.52 -19.36 26.1 3.37 26.1 3.37 s -19.36 -10.94 -10.1 -29.47 c 8.42 -18.52 23.57 -16 23.57 -16 s -14.31 -15.15 6.73 -26.94 c 20.21 -10.95 35.36 18.52 35.36 18.52 l 1.68 -10.94 s -5.05 -26.1 8.42 -30.31 c 13.47 -3.37 15.15 25.26 15.15 25.26 s 7.58 -11.79 22.73 -14.31 c 15.15 -2.53 8.42 14.31 8.42 14.31 s -3.37 -25.26 2.53 -31.15 c 5.89 -5.89 26.94 13.47 26.94 13.47 s -12.63 -10.1 -2.52 -24.41 c 10.1 -15.15 13.47 -17.68 13.47 -17.68 s -4.21 -5.05 8.42 -13.47 c 12.63 -9.26 25.26 .84 25.26 .84 s -12.63 -17.68 .84 -28.62 c 13.47 -10.95 23.57 15.99 23.57 15.99 s 4.21 -11.79 17.68 -10.1 c 13.47 .84 20.21 16.84 20.21 16.84 s -6.73 -20.21 4.21 -27.78 28.62 10.11 28.62 10.11 9.26 -8.42 19.36 -5.05 c 9.26 3.37 6.73 15.99 6.73 15.99 s 14.31 -8.42 27.78 5.05 c 13.47 12.63 -15.99 27.78 -15.99 27.78 s 5.05 -8.42 15.15 -5.05 c 9.26 3.37 21.05 7.58 21.05 7.58 s -6.73 -8.42 .84 -17.68 c 7.58 -9.26 27.78 5.05 27.78 5.05 s 7.58 -16.84 25.26 -10.94 c 17.68 5.89 3.37 37.04 3.37 37.04 s 5.05 -13.47 21.89 -5.05 c 16 8.42 2.52 31.15 2.52 31.15 s 10.1 -5.9 21.05 .84 c 10.1 5.9 10.1 17.68 10.1 17.68 s 5.05 -15.99 21.05 -15.99 5.89 33.68 5.89 33.68 18.52 -19.36 30.31 -12.63 c 11.79 7.58 2.52 20.21 2.52 20.21 s 21.89 10.94 20.21 21.05 c -1.68 10.94 -22.73 19.36 -22.73 19.36 s 1.68 -10.94 16.84 -.84 c 15.15 10.1 2.53 27.78 2.53 27.78 s 3.37 -16.84 18.52 -15.15 .84 33.68 .84 33.68 1.68 -15.15 17.68 -10.1 24.41 26.1 24.41 26.1 -.84 -21.89 26.1 -8.42 4.21 39.57 4.21 39.57 5.05 -16 22.73 -2.53 c 17.68 12.63 17.68 24.42 17.68 24.42 s 14.31 -12.63 22.73 1.69 c 8.42 14.31 -15.15 26.1 -15.15 26.1 s 10.1 -.84 13.47 8.42 c 4.21 9.26 -12.63 17.68 -12.63 17.68 s 10.94 -7.58 16 0 c 5.05 7.57 -3.37 26.1 -3.37 26.1 s 0 0 2.53 12.63 c 2.52 12.63 -20.21 25.26 -20.21 25.26 s 1.68 16.84 -10.94 19.36 c -12.63 1.68 -21.89 5.89 -21.89 5.89 s -.84 21.05 -12.63 21.05 -16.84 -7.58 -16.84 -7.58 -3.37 10.1 -18.52 3.37 0 -27.78 0 -27.78 -7.58 11.79 -24.42 1.68 c -17.68 -10.1 -5.89 -19.36 -5.89 -19.36 s -61.46 69.03 -90.08 128.81 c -28.63 59.77 -24.41 116.18 -24.41 116.18 s 0 0 -.84 13.47 -24.41 41.25 -58.09 58.93 c -33.67 17.68 -51.35 -7.58 -51.35 -7.58 z m 56.41 -228.15 l -21.05 -94.29 s -23.57 -67.35 -37.89 -129.65 c -14.31 -62.3 24.42 -80.82 -.84 -70.72 -25.26 10.94 -24.42 41.25 -24.42 41.25 l 40.41 145.65 z m -186.06 -86.72 c -19.36 -26.1 -73.24 -94.29 -95.13 -85.87 -21.05 8.42 157.43 234.89 157.43 234.89 s 17.68 -42.94 -62.3 -149.02 z m 222.26 94.3 c 38.73 -69.03 65.67 -110.29 71.56 -127.97 -11.79 -5.05 -10.1 -14.31 -8.42 -27.78 s -11.79 3.37 -18.52 -10.94 c -5.89 -13.47 -10.94 -5.9 -25.26 -19.36 -14.31 -14.31 -27.78 -7.58 -27.78 -7.58 s -24.41 49.67 -21.89 85.03 c 3.36 53.87 18.52 83.34 30.31 108.6 z" fill="#fff"/></svg>