<svg enable-background="new 0 0 880.3485718 942.0932007" viewBox="0 0 880.35 942.09" xmlns="http://www.w3.org/2000/svg"><path d="m 834.72 581.84 c -44.03 -126.2 -150.97 -73.05 -178.25 -58.44 -82.79 -95.46 -108.12 -262.02 -113.96 -324.36 14.61 3.9 38.96 16.56 76.95 50.65 80.85 72.08 174.35 -35.07 174.35 -35.07 s -43.83 -12.66 -95.46 -54.55 c -45.78 -37.01 -112.99 -32.14 -157.79 16.56 0 -1.95 0 -2.92 0 -2.92 0 -6.82 -3.9 -12.66 -10.71 -15.58 -4.87 -2.92 -11.69 -1.95 -16.56 0 -78.89 -101.3 -208.44 -115.91 -294.16 -46.75 -89.61 73.05 -167.53 94.48 -167.53 94.48 s 164.61 187.01 305.85 61.36 c 61.36 -54.55 102.27 -77.92 128.57 -87.66 -183.12 140.26 -240.59 313.64 -259.1 394.49 -32.14 -9.74 -93.51 -18.51 -144.15 29.22 -68.18 63.31 -52.6 305.85 130.52 328.25 0 0 247.4 10.1 247.4 -148.05 14.61 28.25 90 96.43 164.61 96.43 221.11 6.81 254.22 -164.62 209.42 -298.06 z m -328.25 -372.08 c 6.82 64.29 29.22 205.52 99.35 305.85 -33.12 -8.77 -82.79 -11.69 -128.57 25.32 -18.51 15.58 -32.14 42.86 -38.96 75 -54.53 -82.12 -144.16 -64.29 -173.38 -46.75 21.43 -77.93 78.9 -233.77 241.56 -359.42 z" fill="#fff"/></svg>