<svg enable-background="new 0 0 150.1 281.3" viewBox="0 0 150.1 281.3" xmlns="http://www.w3.org/2000/svg"><g fill="#fff"><path d="m 86.5 268 h 10.1 c 1.1 0 2 -.9 2 -2 l 1.9 -120.8 c 0 -1.1 -.9 -2 -2 -2 h -.2 l -47.9 4.2 c -1 .1 -1.9 1 -1.8 2 l 2 116.6 c 0 1.1 .9 2 2 2 h 10.2 c 1.1 0 1.9 -.8 2 -1.9 l 6.7 -95.8 c .1 -1 .9 -1.9 2 -1.9 h 2.3 c 1.1 0 1.9 .8 2 1.9 l 6.8 95.8 c 0 1.1 .8 1.9 1.9 1.9 z"/><path d="m 30.6 179.2 c -.2 -.7 -.6 -1.4 -1.2 -1.8 -.5 -.4 -.8 -1 -.7 -1.6 l 13.8 -69.1 c .2 -1 -.2 -2 -2.2 -1.8 l -12.3 -.3 c -1.5 0 -2.6 1.2 -2.7 2.6 v .1 l -3.4 69.2 s -.3 4 -.4 8.2 c -.1 3.1 -.1 6.8 .8 8.8 .8 1.8 1.8 3.5 3 5 .3 .3 .8 .4 1.2 .1 .1 -.1 .2 -.3 .3 -.5 .3 -1.7 -.9 -4.4 -.5 -9.8 .1 -1.4 .4 -2.8 1 -4.1 .1 -.2 .3 -.1 .3 0 .3 1.7 1.1 4.2 1.6 4.3 1.3 .6 2 -7.5 1.4 -9.3 z"/><path d="m 63 273.3 s -11.2 -.4 -14 -.1 -18 4.1 -18 4.1 c -1.1 .1 -1.9 1.1 -1.8 2.2 s 1.1 1.9 2.2 1.8 h 31.6 c 2.2 0 4 -1.8 4 -4 s -1.8 -4 -4 -4 z"/><path d="m 118 277.3 s -15.2 -3.8 -18 -4.1 -14 .1 -14 .1 c -2.2 0 -4 1.8 -4 4 s 1.8 4 4 4 h 31.6 c 1.1 .1 2.1 -.7 2.2 -1.8 s -.7 -2.1 -1.8 -2.2 z"/><path d="m 74.3 44.1 l -5.7 36.7 c -.1 .5 .3 1.1 .8 1.2 h .2 l 10.6 -.8 c .6 0 1 -.5 .9 -1.1 v -.1 l -5.1 -27.9 c -.1 -.5 .2 -1.1 .8 -1.2 .5 -.1 1 .2 1.1 .6 l 12 28.6 c .2 .5 .8 .7 1.3 .5 l 8.5 -3.5 c .1 -.1 .2 -.1 .3 -.2 l 5.2 -5.2 c .4 -.4 .4 -1 0 -1.4 l -21.2 -18.7 c -.4 -.4 -.4 -1 -.1 -1.4 s .9 -.4 1.3 -.2 l 21.2 13.6 c .5 .3 1.1 .2 1.4 -.3 0 0 0 0 0 -.1 l 5.9 -10.9 c .3 -.5 .1 -1.1 -.4 -1.4 -.1 0 -.2 -.1 -.3 -.1 l -37.6 -7.5 c -.4 -.1 -1 .2 -1.1 .8 z"/><path d="m 26.8 96.3 l 18.4 5.7 c .9 .3 1.6 1.2 1.6 2.2 l .4 33.4 c .1 1.1 .9 1.9 2 2 h 50.7 c 1.1 -.1 1.9 -.9 2 -2 l .2 -19.8 -16.1 -33.6 -.3 -.2 c -.5 -.1 -1 -.2 -1.5 -.2 l -14.3 1.2 c -2.2 .2 -4.1 -1.5 -4.3 -3.7 0 -.3 0 -.6 0 -.9 l 1 -6.8 c -4.3 -2.3 -7.3 -6.1 -7.7 -9.7 -.1 -.4 -.5 -.7 -.9 -.7 l -16.8 3 c -2.9 .8 -5.4 2.6 -7 5.2 -3.9 6.4 -7.5 13 -10.7 19.8 -1 2.1 1 4.4 3.3 5.1 z"/><path d="m 109.4 66.8 l -.2 .4 c -.4 .7 -.3 1.6 .2 2.3 .6 .8 .6 2 -.2 2.8 l -6.9 6.9 c -.2 .2 -.5 .4 -.8 .6 l 11.8 19.3 9 -2.8 c 2.3 -.7 4.4 -2.9 3.3 -5.1 -3.2 -6.8 -6.7 -13.4 -10.6 -19.8 -1.5 -2.1 -3.4 -3.7 -5.6 -4.6 z"/><path d="m 123.9 100 l -8.5 2.6 6.7 11.1 c .4 .8 .3 1.8 -.3 2.4 l -.1 .1 c -.8 .8 -2 .8 -2.8 0 -.1 -.1 -.2 -.2 -.3 -.4 l -8.5 -14.1 -12.2 -20.4 -7.6 3.1 1.8 3.9 15.7 34.2 c 1.4 3 3.1 5.9 5.1 8.5 l .9 1.2 c 1.1 1.4 3.1 1.7 4.5 .6 .1 -.1 .2 -.1 .2 -.2 l 7.3 -6.7 c .7 -.6 1 -1.5 1.1 -2.3 l .2 -21.5 c -.3 -1.4 -1.7 -2.4 -3.1 -2.1 -.1 0 -.1 0 -.1 0 z"/><path d="m 53.3 41 h .9 c .7 0 1.4 .6 1.4 1.3 0 7.9 5 11.8 10 16.7 .1 .1 .3 .3 .5 .4 l 1.8 1.8 c .4 .4 .4 1 0 1.4 -.2 .2 -.4 .3 -.7 .3 h -1.7 c -.3 0 -.6 .2 -.6 .6 v .1 c .5 1.7 1.4 3.2 2.6 4.4 l 2.1 -13.8 .2 -1.4 h -1.8 c -.3 0 -.6 -.2 -.6 -.5 .2 -1.5 1.5 -2.7 2.9 -3.4 l .8 -5.3 c .3 -2.2 2.4 -3.7 4.6 -3.4 h .2 l 17.5 3.6 c 0 -.5 .1 -.9 .1 -1.4 0 -.7 .6 -1.3 1.3 -1.3 h .9 c 1 0 1.9 -.7 2 -1.7 l 1.2 -9 c .1 -.6 -.3 -1.1 -.9 -1.2 -.4 0 -.8 .1 -1 .4 -.4 .6 -1.3 .8 -1.9 .3 -.3 -.2 -.5 -.6 -.6 -.9 l 2.8 -13 c .6 -2.7 -1.2 -5.3 -3.9 -5.9 -.3 -.1 -.7 -.1 -1 -.1 h -2.8 l 4 -4 c 0 -3.3 -2.7 -6 -6 -6 h -20 c -5.5 0 -10 4.5 -10 10 h -.8 c -2.8 0 -5 2.3 -5 5 0 .3 0 .6 .1 1 l 2.7 13 c -.2 .7 -.9 1.2 -1.6 1 -.3 -.1 -.6 -.3 -.8 -.5 -.3 -.5 -1 -.7 -1.5 -.4 -.4 .2 -.6 .7 -.5 1.2 l 1.2 9 c .1 1 .9 1.7 1.9 1.7 z m 13.6 -21 s 2 2 2 4 c 0 1.1 -.9 2 -2 2 s -2 -.9 -2 -2 c 0 -2 2 -4 2 -4 z m -5 17 s 2 2 2 4 c 0 1.1 -.9 2 -2 2 s -2 -.9 -2 -2 c 0 -2 2 -4 2 -4 z"/><path d="m 143.3 100.9 c -.9 -1.1 -2.4 -1.3 -3.5 -.4 s -1.3 2.4 -.4 3.5 c 4.8 6 6.6 12.9 5.2 19.5 s -5.9 12.3 -12.6 15.8 c -1.2 .6 -1.7 2.2 -1 3.4 .6 1.2 2.2 1.7 3.4 1 8.1 -4.3 13.4 -11.1 15.1 -19.2 s -.5 -16.4 -6.2 -23.6 z"/><path d="m 139.7 122.6 c .9 -4.6 -.3 -9.3 -3.4 -12.9 -.9 -1.1 -2.4 -1.3 -3.5 -.4 s -1.3 2.4 -.4 3.5 c 3.7 4.1 3.4 10.4 -.7 14.1 -.8 .7 -1.6 1.3 -2.6 1.7 -1.2 .6 -1.7 2.2 -1 3.4 .6 1.2 2.2 1.7 3.4 1 4.2 -2 7.2 -5.9 8.2 -10.4 z"/><path d="m 5.7 88.3 c 1.8 -6.5 6.6 -11.8 13.4 -15 1.2 -.5 1.8 -1.9 1.4 -3.1 -.4 -1.3 -1.9 -2 -3.2 -1.6 -.1 0 -.2 .1 -.2 .1 -8.2 3.8 -14 10.3 -16.2 18.3 -1.9 7.4 -.8 15.3 3.3 21.8 .7 1.2 2.2 1.7 3.4 1 s 1.7 -2.2 1 -3.4 c 0 0 0 -.1 -.1 -.1 -3.3 -5.4 -4.3 -11.9 -2.8 -18 z"/><path d="m 15.3 91 c .9 -3 3.1 -5.5 6.1 -6.7 1.2 -.6 1.7 -2.1 1.1 -3.4 -.6 -1.1 -2 -1.7 -3.2 -1.2 -7.6 3.2 -11.3 11.9 -8.2 19.6 .5 1.2 1.2 2.4 2 3.5 .8 1.2 2.3 1.5 3.5 .7 s 1.5 -2.3 .7 -3.5 c 0 -.1 -.1 -.1 -.1 -.2 -2 -2.5 -2.7 -5.7 -1.9 -8.8 z"/></g></svg>