<svg enable-background="new 0 0 841.889 595.281" height="595.28" viewBox="0 0 841.89 595.28" width="841.89" xmlns="http://www.w3.org/2000/svg"><g fill="#fff"><path d="m 585.24 561.35 l -11.31 -42.86 c -7.74 -29.17 -32.15 -51.19 -61.91 -54.77 l -26.79 -3.57 -7.74 -23.81 c 1.79 -1.19 3.57 -2.38 5.36 -3.57 26.19 -3.57 54.77 -9.52 72.03 -19.05 2.98 -1.79 4.17 -6.55 1.79 -9.52 -8.33 -14.29 -15.48 -35.72 -19.64 -51.19 2.38 -5.36 4.76 -12.5 4.76 -22.03 0 -18.45 -2.98 -29.77 -9.52 -35.12 -1.19 -1.79 -2.98 -2.38 -4.17 -3.57 -.6 -6.55 -1.79 -13.1 -2.98 -19.05 -2.98 2.98 -7.14 4.76 -11.31 4.76 h -23.81 c 2.38 17.26 5.95 36.91 19.05 56.55 1.79 -10.72 6.55 -20.24 9.52 -26.79 .6 0 1.79 0 1.79 .6 1.19 .6 4.17 5.36 4.17 23.22 0 20.84 -10.72 24.41 -11.91 24.41 -3.57 .6 -6.55 3.57 -6.55 7.14 -8.33 43.46 -43.46 75.01 -85.13 75.01 -40.48 0 -76.19 -31.55 -84.53 -75.01 -.6 -2.98 -3.57 -5.95 -6.55 -7.14 -1.19 0 -11.91 -3.57 -11.91 -24.41 0 -17.86 2.98 -22.03 4.76 -23.81 h 1.79 c 2.98 6.55 7.74 16.07 9.52 26.79 13.69 -19.64 17.26 -39.29 19.65 -56.55 h -24.41 c -4.17 0 -8.33 -1.79 -11.31 -4.76 -1.79 6.55 -2.98 12.5 -2.98 19.05 -1.79 .6 -2.98 1.79 -4.17 2.98 -6.55 6.55 -9.52 17.26 -9.52 35.72 0 9.52 1.79 16.07 4.76 22.03 -4.17 14.88 -11.31 36.91 -19.65 51.19 -1.79 3.57 -1.19 7.74 1.79 9.52 17.26 9.52 45.84 15.48 72.03 19.05 l 5.36 3.57 -7.74 23.81 -26.79 3.57 c -30.36 4.17 -54.17 25.6 -61.91 54.77 l -11.31 42.86 c -1.19 4.76 0 9.52 2.98 13.1 2.98 3.57 7.14 5.95 11.91 5.95 h 183.94 v -45.84 c 0 -8.33 -4.17 -16.07 -11.31 -20.84 l -61.91 -37.5 -1.79 -1.19 c -3.57 -1.79 -6.55 -3.57 -9.52 -5.95 l 8.33 -23.81 c 13.1 5.95 26.79 9.52 41.07 9.52 14.29 0 27.98 -3.57 40.48 -9.52 l 8.33 23.81 c -14.88 10.72 -32.15 16.07 -49.41 16.07 l 29.17 18.45 c 10.72 6.55 17.26 18.45 17.26 30.96 v 45.84 h 103.01 c 4.76 0 9.52 -1.79 11.91 -5.95 3.57 -3.6 4.76 -8.36 2.97 -13.12 z m -164.29 -29.17 c 5.95 0 10.12 4.76 10.12 10.12 s -4.76 10.12 -10.12 10.12 -10.12 -4.76 -10.12 -10.12 4.76 -10.12 10.12 -10.12 z"/><ellipse cx="389.4" cy="323.24" rx="15.48" ry="15.48"/><path d="m 453.09 307.76 c 8.55 0 15.48 6.93 15.48 15.48 s -6.93 15.48 -15.48 15.48 -15.48 -6.93 -15.48 -15.48 6.93 -15.48 15.48 -15.48 z"/><path d="m 420.95 398.24 c 13.1 0 25 -4.76 31.55 -12.5 2.38 -2.38 1.79 -6.55 -.6 -8.93 -2.38 -2.38 -6.55 -1.79 -8.93 .6 -8.33 9.52 -35.72 9.52 -44.05 0 -2.38 -2.38 -5.95 -2.98 -8.93 -.6 -2.38 2.38 -2.98 5.95 -.6 8.93 6.55 7.74 18.46 12.5 31.56 12.5 z"/><path d="m 327.49 198.82 l -4.76 60.72 c 0 2.98 2.38 5.95 5.36 5.95 h 185.13 c 2.98 0 5.95 -2.98 5.36 -5.95 l -4.76 -60.72 c 29.17 -10.12 50.6 -37.5 50.6 -70.24 .6 -41.67 -32.74 -75.01 -73.82 -75.01 -1.19 0 -2.98 .6 -4.17 .6 -12.5 -23.22 -36.91 -39.29 -65.48 -39.29 s -52.98 16.07 -65.48 39.29 c -1.19 0 -2.38 -.6 -4.17 -.6 -41.07 0 -74.41 33.34 -74.41 74.41 0 33.34 21.43 60.72 50.6 70.84 z m 133.93 -67.26 c 0 -3.57 2.98 -7.14 7.14 -7.14 s 7.14 2.98 7.14 7.14 v 76.19 c 0 3.57 -2.98 7.14 -7.14 7.14 s -7.14 -2.98 -7.14 -7.14 z m -47.62 0 c 0 -3.57 2.98 -7.14 7.14 -7.14 3.57 0 7.14 2.98 7.14 7.14 v 76.19 c 0 3.57 -2.98 7.14 -7.14 7.14 -3.57 0 -7.14 -2.98 -7.14 -7.14 z m -47.02 0 c 0 -3.57 2.98 -7.14 7.14 -7.14 3.57 0 7.14 2.98 7.14 7.14 v 76.19 c 0 3.57 -2.98 7.14 -7.14 7.14 -3.57 0 -7.14 -2.98 -7.14 -7.14 z"/></g></svg>