<svg enable-background="new 0 0 661.1669922 461.2548828" viewBox="0 0 661.17 461.25" xmlns="http://www.w3.org/2000/svg"><path d="m 649.05 5 h -93.45 -449.57 -92.61 c -5.05 0 -8.42 3.37 -8.42 8.42 v 318.23 1.68 c 0 .84 0 .84 .84 1.69 0 .84 .84 1.68 1.68 2.52 h .84 l 1.68 1.68 h .84 c .84 0 1.68 .84 2.53 .84 .84 0 2.53 0 3.37 -.84 l 58.09 -28.62 v 31.99 1.68 s 0 .84 .84 1.69 c 0 .84 .84 1.68 1.69 2.52 h .84 c .84 .84 .84 .84 1.68 1.69 h .84 c .84 0 1.68 .84 2.52 .84 s 2.53 0 3.37 -.84 l 7.58 -4.21 v 101.87 c 0 5.05 3.37 8.42 8.42 8.42 h 35.36 c 5.05 0 8.42 -3.37 8.42 -8.42 v -90.92 c 0 .84 .84 .84 .84 1.69 h .84 c .84 .84 .84 .84 1.68 1.68 h .84 c .84 0 1.68 .84 2.52 .84 s 2.52 0 3.37 -.84 l 58.09 -28.63 v 31.99 1.68 c 0 .84 0 .84 .84 1.69 0 .84 .84 1.68 1.68 2.52 h .84 c .84 .84 .84 .84 1.68 1.69 h .84 c .84 0 1.68 .84 2.52 .84 s 2.52 0 3.37 -.84 l 64.83 -31.99 27.78 27.78 c .84 .84 .84 .84 1.68 .84 l .84 .84 c .84 .84 2.52 .84 3.37 .84 .84 0 1.69 0 3.37 -.84 0 0 .84 0 .84 -.84 .84 0 .84 -.84 1.68 -.84 l 31.99 -29.47 67.35 32.83 c .84 .84 2.53 .84 3.37 .84 s 1.68 0 2.52 -.84 h .84 c .84 0 1.68 -.84 1.68 -1.69 h .84 c .84 -.84 .84 -1.68 1.69 -2.52 0 -.84 0 -.84 .84 -1.69 0 -.84 0 -.84 0 -1.68 v -32 l 58.09 28.63 c .84 .84 2.53 .84 3.37 .84 s 1.68 0 2.53 -.84 h .84 c .84 0 1.68 -.84 1.68 -1.69 h .84 s .84 -.84 .84 -1.68 v 90.08 c 0 5.05 3.37 8.42 8.42 8.42 h 39.57 c 5.05 0 8.42 -3.37 8.42 -8.42 v -100.17 l 7.58 3.37 c .84 .84 2.53 .84 3.37 .84 s 1.68 0 2.52 -.84 h .84 c .84 0 1.68 -.84 1.68 -1.68 h .84 c .84 -.84 .84 -1.69 1.69 -2.53 0 -.84 0 -.84 .84 -1.68 0 -.84 0 -.84 0 -1.69 v -31.99 l 58.09 28.62 c .84 .84 2.53 .84 3.37 .84 s 1.68 0 2.53 -.84 h .84 c .84 0 1.68 -.84 1.68 -1.69 h .84 c .84 -.84 .84 -1.68 1.69 -2.52 0 -.84 0 -.84 .84 -1.68 0 -.84 0 -.84 0 -1.68 v -317.39 c 1.73 -4.21 -2.48 -8.42 -6.68 -8.42 z m -113.66 16.84 l -204.58 204.58 -204.58 -204.58 z m -404.95 417.57 h -18.52 v -99.34 c 0 -.84 0 -1.68 -.84 -2.53 l 18.52 -9.26 v 111.13 z m 419.26 -99.34 v 99.34 h -18.52 v -111.12 l 18.52 9.26 z" fill="#fff"/></svg>