<svg enable-background="new 0 0 747.6 594.3" viewBox="0 0 747.6 594.3" xmlns="http://www.w3.org/2000/svg"><g fill="#fff"><path d="m 349.5 490.6 c 0 24.3 -47.5 80.7 -73.3 93.1 -15.5 14.7 -180.7 13.6 -204 0 -30.1 -14.3 -72.2 -73.3 -72.2 -107 0 -28.2 0 -259.4 0 -270.3 5.9 -28.2 50.8 -27.2 54.7 0 v 143.1 c 0 11.9 17.6 10.4 17.6 0 0 -9.9 0 -213.4 0 -220.3 5 -30.9 50.7 -30 56.4 -1 v 188.1 c 0 8.9 16.8 8.4 16.8 0 0 -8.2 -1 -188.1 0 -197 3 -30 52.7 -30.7 56.4 0 v 195.6 c 1.5 8.2 16.6 8.2 17.8 0 0 -7.7 0 -160.7 0 -168.8 4.2 -32.9 53.5 -33.2 57.4 0 v 287.1 c 0 7.4 16.9 6.9 16.9 .6 0 -7.5 0 -77.3 0 -87.7 4.5 -28.2 52 -30.2 55.4 0 .1 22.6 .1 131.7 .1 144.5 z"/><path d="m 712.3 270.1 c -2.8 0 -5.5 .3 -8.1 .9 .5 -5.7 .7 -11.2 .7 -16.5 0 -14.2 -1.7 -27.9 -4.9 -41 l 39 .5 c 0 -42 -12.5 -82.6 -34.4 -115.7 l 12.1 -10.5 c 4.7 -4.1 5.2 -11.3 1.1 -16 l -29.1 -33.5 c -4.1 -4.7 -11.3 -5.2 -16 -1.1 l -14.4 12.5 c -19.2 -13.8 -41.2 -23.6 -65.3 -28 v -10.4 c 0 -6.2 -5.1 -11.3 -11.3 -11.3 h -44.3 c -6.3 0 -11.4 5.1 -11.4 11.3 v 11.8 c -23.6 5.3 -45.2 15.4 -64.1 29.4 l -13.1 -15.1 c -4.1 -4.7 -11.3 -5.2 -16 -1.1 l -33.5 29.1 c -4.7 4.1 -5.2 11.3 -1.1 16 l 15.9 18.4 c .6 .7 1.3 1.3 2.1 1.9 -19.8 30.7 -31.2 68 -31.2 107.3 l 31.9 .5 c -3.8 14.3 -5.9 29.4 -5.9 45 0 4.4 .2 8.9 .5 13.5 -.9 -.1 -1.9 -.1 -2.9 -.1 -19.5 0 -35.2 15.8 -35.2 35.2 0 19.5 15.8 35.2 35.2 35.2 5.7 0 11 -1.3 15.8 -3.7 22.6 73 71.7 144.4 130.6 144.4 59.2 0 111.8 -72.2 135.9 -145.6 5.9 4.5 13.3 7.2 21.4 7.2 19.5 0 35.2 -15.8 35.2 -35.2 .1 -19.5 -15.7 -35.3 -35.2 -35.3 z m -224 -19 c -7.1 4.9 -10.7 12 -10.8 12.1 -1.6 3.4 -5 5.3 -8.5 5.3 -1.4 0 -2.8 -.3 -4.2 -1 -4.7 -2.3 -6.7 -8 -4.4 -12.7 .5 -1.1 5.6 -11.1 16.2 -18.8 10.3 -7.4 27.6 -13.9 51.4 -2.6 4.7 2.2 6.8 7.9 4.5 12.7 -2.2 4.7 -7.9 6.8 -12.7 4.5 -12.2 -5.9 -22.6 -5.7 -31.5 .5 z m 69.7 173.9 c -26 0 -47 -21 -47 -47 s 21 -47 47 -47 47 21 47 47 -21.1 47 -47 47 z m 90.1 -151.5 c -1.3 .6 -2.8 1 -4.1 1 -3.5 0 -6.9 -1.9 -8.5 -5.3 -.1 -.2 -3.7 -7.2 -10.8 -12.1 -8.9 -6.2 -19.3 -6.4 -31.6 -.5 -4.7 2.2 -10.4 .2 -12.7 -4.5 -2.2 -4.7 -.2 -10.4 4.5 -12.7 23.8 -11.3 41.1 -4.8 51.4 2.6 10.6 7.7 15.7 17.7 16.2 18.8 2.3 4.8 .4 10.5 -4.4 12.7 z"/></g></svg>