<svg enable-background="new 0 0 1038.9995117 1006.8490601" viewBox="0 0 1039 1006.85" xmlns="http://www.w3.org/2000/svg"><path d="m 1033.6 954.06 l -93.45 -672 c -2.9 -20.76 -20.64 -36.21 -41.6 -36.21 h -306.92 c 35.6 -23.48 59.12 -63.77 59.12 -109.6 0 -72.49 -58.77 -131.25 -131.25 -131.25 -72.49 0 -131.25 58.76 -131.25 131.25 0 45.83 23.52 86.12 59.12 109.6 h -306.91 c -20.96 0 -38.71 15.46 -41.6 36.21 l -93.45 672 c -1.67 12.03 1.95 24.2 9.92 33.36 7.98 9.17 19.53 14.43 31.68 14.43 h 945 c 12.15 0 23.7 -5.26 31.68 -14.43 7.96 -9.15 11.58 -21.32 9.91 -33.36 z m -591.81 -834.21 h -.13 c -3.36 21 -35.29 26.54 -25.2 -5 6.47 -23.4 33.07 -70.78 91.63 -70.78 -36.45 13.95 -64.37 54.78 -66.3 75.78 z m -394.79 840 l 55 -395.5 c 13.92 -3.52 42.77 -45.71 102.51 -45.71 73.49 0 62.99 209.76 157.49 209.76 63 0 65.95 -123.71 157.5 -123.71 105 0 60.52 70.58 147.06 70.58 83.94 -.01 83.94 -145.59 146.98 -145.59 73.46 0 41.96 127.42 115.46 127.42 7.98 0 14.58 -1.26 20.18 -3.46 l 42.82 306.21 z" fill="#fff"/></svg>