<svg enable-background="new 0 0 626.3486938 953.4354858" viewBox="0 0 626.35 953.44" xmlns="http://www.w3.org/2000/svg"><g fill="#fff"><path d="m 457.82 497.85 c -50.11 -239.65 -190.76 -268.9 -256.26 -267.75 -65.5 1.16 -128.29 77.6 -179.27 206.84 -43.75 110.94 4.61 287.28 68.96 375.76 s 176.97 142.5 227.52 134.44 c 50.56 -8.04 90.78 -94.23 109.17 -139.04 18.39 -44.8 56.3 -183.84 29.88 -310.25 z"/><path d="m 279.65 230.07 c -2.08 -19.18 .64 -6.02 -3.54 -23.52 -37.06 2.12 -63.22 13.03 -63.22 13.03 s 34.22 -3.6 66.76 10.49 z"/><path d="m 484.87 260.46 c -80.9 -58.58 -171.96 -53.82 -171.96 -53.82 s 2.74 11.44 5.05 44.06 c 48.19 29.66 56.13 38.92 97.04 97.63 47.21 67.75 71.45 176.52 68.88 249.28 -5.34 151.43 -61.64 279.07 -124.13 342.41 89.03 0 161.79 -87.32 192.61 -143.82 s 68.48 -166.07 68.48 -258.52 c .02 -88.92 -37.43 -205.87 -135.97 -277.22 z"/><path d="m 308.66 241.64 c 2.59 -28.91 -47.81 -233.1 -59.29 -236.06 -10.21 -.55 -15.56 1.86 -22.24 5.56 13.71 12.6 61.31 194.61 62.42 225.74 6.31 3.7 12.45 5.49 19.11 4.76 z"/></g></svg>