<svg enable-background="new 0 0 100 100" viewBox="0 0 100 100" xmlns="http://www.w3.org/2000/svg"><g fill="#fff"><path d="m 81.96 32.12 v -.04 c .01 0 .02 0 .02 -.01 z"/><path d="m 99.02 49.34 c .01 -1.23 -.65 -2.8 -1.02 -3.31 -1 -1.37 -3 -3.41 -3 -3.41 -.24 -.22 -.6 -.29 -.92 -.16 -.44 .17 -.41 .35 -.46 1.06 l -.02 .85 c -.1 -.01 -.19 -.02 -.29 -.02 l -2.26 -1.81 c -.24 -.21 -.6 -.29 -.92 -.16 -.44 .17 -.47 .46 -.46 1.06 l -.02 .79 c -.11 0 -.23 -.01 -.34 -.01 l -2.2 -1.77 c -.24 -.21 -.6 -.29 -.92 -.16 -.44 .17 -.4 .33 -.46 1.06 l -.02 .78 c -.12 0 -.24 -.01 -.36 -.01 l -2.18 -1.75 c -.24 -.21 -.6 -.29 -.92 -.16 -.44 .17 -.43 .51 -.46 1.06 l -.02 .77 c -.12 0 -.25 -.01 -.37 -.01 l -2.18 -1.75 c -.24 -.22 -.6 -.29 -.92 -.16 -.44 .17 -.41 .52 -.46 1.06 l -.02 .77 c -1.06 -.02 -2 -.04 -2.78 -.06 -.71 -.04 -1.06 .85 -.17 1.2 .03 .01 2.75 1.07 4.33 1.73 l .89 -.58 c .3 -.21 .66 -.33 1.03 -.33 .29 0 .58 .07 .83 .21 .79 .42 .88 1.08 .85 1.64 l 1.78 -1.15 c .3 -.21 .66 -.33 1.03 -.33 .29 0 .58 .07 .83 .2 .82 .43 .85 1.02 .83 1.66 l 1.8 -1.16 c .3 -.21 .66 -.33 1.03 -.33 .29 0 .58 .07 .83 .2 .78 .41 .85 1.09 .83 1.66 l 1.8 -1.16 c .3 -.21 .66 -.33 1.03 -.33 .29 0 .58 .07 .83 .21 .85 .44 .83 1.2 .82 1.76 0 .13 -.07 .24 -.17 .31 -.18 -.04 -.36 -.07 -.55 -.1 -.04 -.06 -.07 -.14 -.07 -.23 .01 -.55 0 -.84 -.4 -1.05 -.33 -.17 -.76 -.14 -1.06 .07 -.01 0 -.01 .01 -.02 .01 l -1.52 .98 c -.55 .03 -1.06 .16 -1.53 .39 -.01 -.04 .02 -.65 .02 -.65 .03 -.61 .03 -.94 -.4 -1.16 -.33 -.17 -.76 -.14 -1.06 .07 -.01 0 -.01 .01 -.02 .01 l -2.46 1.59 c -.13 .08 -.28 .08 -.41 .01 -.13 -.08 -.2 -.22 -.19 -.37 l .04 -.63 c .02 -.68 .02 -.83 -.4 -1.05 -.33 -.17 -.76 -.14 -1.06 .07 -.01 0 -.01 .01 -.02 .01 l -2.46 1.59 c -.13 .08 -.28 .08 -.41 .01 -.13 -.08 -.2 -.22 -.19 -.37 l .03 -.41 c 0 -.01 0 -.01 0 -.02 .08 -.63 .1 -1 -.4 -1.25 -.33 -.17 -.76 -.14 -1.06 .07 -.01 0 -.01 .01 -.02 .01 l -.64 .41 .01 .01 -2.5 1.61 .1 -1.21 c .03 -.63 .08 -1.02 -.4 -1.26 -.35 -.18 -.77 -.14 -1.06 .07 l -3.13 2.02 .1 -1.21 c .02 -.84 .08 -1.02 -.4 -1.26 -.35 -.18 -.77 -.14 -1.06 .08 l -3.13 2.02 .1 -1.21 c .08 -.68 .08 -1.01 -.4 -1.26 -.35 -.18 -.77 -.14 -1.06 .07 l -3.13 2.02 .1 -1.21 c .03 -.82 .08 -1.01 -.4 -1.26 -.35 -.18 -.77 -.14 -1.06 .08 l -3.13 2.02 .1 -1.21 c -.01 -.49 .08 -1.02 -.39 -1.26 -.35 -.19 -.77 -.14 -1.06 .07 l -3.14 2.02 .1 -1.21 c -.04 -.65 .08 -1.01 -.4 -1.26 -.35 -.18 -.77 -.14 -1.06 .07 l -3.36 2.21 .18 -1.27 c .08 -.69 .08 -1.01 -.39 -1.26 -.35 -.18 -.77 -.14 -1.06 .07 l -3.46 2.21 .28 -1.01 c .2 -.71 .19 -1.02 -.29 -1.27 -.35 -.18 -.78 -.12 -1.17 .08 l -.24 .13 -3.1 1.64 c -.05 -.01 -.09 -.02 -.14 -.03 l .17 -.53 c .17 -.47 .25 -1.09 -.23 -1.34 -.35 -.18 -.96 .01 -1.23 .15 l -1.98 .91 c -.33 0 -5.92 -.02 -10.29 0 -3.5 .01 -4.84 .6 -5.32 1.98 -.25 0 -7.64 .03 -10.32 -.01 -1.14 -.11 -2.04 -.42 -2.65 -1.2 -1.09 -1.4 -3.44 -1.04 -5.13 -1.09 -1.91 -.06 -3.4 .79 -2.83 3.69 .2 .56 .67 .86 1.34 .86 h 1.83 c .13 .3 .34 .61 .65 .93 4.15 4.34 17.76 7.49 29.19 7.32 l 6.4 -.14 -1.86 -2.62 c -.12 -.17 -.09 -.4 .07 -.53 l .48 -.01 c .03 .02 .06 .05 .08 .08 l 2.29 3.23 c .08 .12 .1 .27 .03 .4 s -.2 .21 -.34 .21 l -3.45 .04 c -.42 0 -1.5 .05 -2.1 .55 -.44 .31 -.72 .73 -.89 1.11 -.18 .52 -.11 .91 .44 .91 l 9.07 -.01 c .75 0 1.44 -.4 1.81 -1.06 .37 -.65 .36 -1.46 -.03 -2.1 l -3.25 -5.42 c -.11 -.19 -.05 -.43 .13 -.54 .19 -.11 .43 -.05 .54 .14 l 3.25 5.42 c .25 .42 .38 .89 .4 1.36 5.5 .45 10.99 .61 15.47 -.14 -.21 -.2 -.4 -.43 -.55 -.69 -.51 -.9 -.49 -2 .04 -2.89 l 1.91 -3.19 c .11 -.19 .35 -.25 .54 -.14 s .25 .35 .14 .54 l -1.91 3.19 c -.39 .64 -.4 1.45 -.03 2.1 s 1.06 1.06 1.81 1.06 c .08 0 .16 .03 .23 .07 l 4.19 -.05 c .16 -.01 .3 .12 .3 .29 .01 .16 -.11 .29 -.27 .3 l -3.18 .27 c -.22 .14 -.42 .32 -.59 .54 -.06 .07 -.11 .15 -.15 .23 -.27 .47 -.09 .82 .46 .82 h 3.81 .1 c .7 0 1.4 -.3 1.89 -.88 l 2.03 -2.4 c .19 -.23 .34 -.49 .44 -.76 .09 -.26 .15 -.57 .15 -.91 0 -1.15 -.94 -2.08 -2.08 -2.08 h -2.33 c -.22 0 -.39 -.18 -.39 -.39 s .17 -.39 .39 -.39 h 2.33 c 1.58 0 2.87 1.29 2.87 2.87 0 .33 -.04 .63 -.11 .9 h 18.28 c 1.94 -.06 4.39 -1.07 5.63 -4.02 .21 -.43 .37 -.92 .46 -1.44 0 -.01 .01 -.02 .01 -.04 .01 -.03 .01 -.05 .01 -.08 0 -.02 .01 -.05 .01 -.07 s .01 -.04 .01 -.06 c .17 -.65 .18 -1.36 .07 -2.06 z m -92.13 1.13 c -.06 .03 -.12 .04 -.18 .04 -.15 0 -.3 -.08 -.36 -.23 l -.35 -.73 h .9 l .18 .37 c .09 .21 .01 .45 -.19 .55 z m 2.12 0 c -.06 .03 -.12 .04 -.18 .04 -.15 0 -.29 -.08 -.36 -.23 l -.35 -.73 h .9 l .18 .37 c .09 .21 .01 .45 -.19 .55 z m 2.19 .71 l -.35 -.74 c -.1 -.2 -.01 -.44 .19 -.54 s .44 -.01 .54 .19 l .51 1.09 z m 2.13 0 l -.34 -.75 c -.09 -.2 0 -.44 .2 -.53 s .44 0 .53 .2 l .49 1.08 z m 2.88 1.08 c -.05 .02 -.11 .04 -.17 .04 -.15 0 -.3 -.09 -.37 -.24 l -.47 -1.06 h .89 l .33 .73 c .09 .19 0 .43 -.21 .53 z m 2.37 .43 c -.06 .03 -.11 .04 -.17 .04 -.15 0 -.3 -.09 -.37 -.23 l -.71 -1.5 h .89 l .54 1.15 c .1 .2 .02 .44 -.18 .54 z m 1 -1.82 l -.33 -.71 c -.1 -.2 -.01 -.44 .19 -.54 s .44 -.01 .54 .19 l .5 1.05 h -.9 z m 2.14 0 l -.32 -.71 c -.09 -.2 0 -.44 .2 -.53 s .44 0 .54 .2 l .47 1.05 h -.89 z m 2.31 -.54 l -.33 -.71 c -.1 -.2 -.01 -.44 .19 -.54 s .44 -.01 .54 .19 l .5 1.05 h -.9 z m 2.98 0 c -.05 .02 -.11 .04 -.17 .04 -.15 0 -.3 -.09 -.37 -.24 l -.48 -1.07 h .89 l .33 .74 c .09 .2 0 .44 -.2 .53 z m 2.36 .43 c -.06 .03 -.12 .04 -.17 .04 -.15 0 -.3 -.09 -.37 -.23 l -.71 -1.51 h .89 l .55 1.16 c .1 .21 .01 .45 -.19 .54 z"/></g></svg>