<svg viewBox="0 0 300 300" xmlns="http://www.w3.org/2000/svg"><g fill="#fff"><path d="m 78 49.44 c 31.47 46.17 39 70.06 49.75 93.64 2.7 -1.57 5.45 -3.27 8.22 -5.09 13.29 -8.7 24 -17.92 29.35 -24.84 -18.72 -14.21 -40.86 -25.35 -70 -65.9 l .29 -.19 c 1.25 -.86 1.71 -2.38 1.16 -3.18 l -3.89 -4.6 -21.88 14.95 z" opacity=".3"/><path d="m 267.2 247.75 c -3.12 -10.27 -37.84 -33.4 -48.18 -48.51 -4.59 -6.71 -8.26 -16.1 -12.41 -26.4 l .78 1.93 c -5.39 6.92 -16.09 16.16 -29.39 24.87 q -2.62 1.71 -5.21 3.29 c 6.53 6.19 12.35 11.9 16.19 17.52 10.34 15.11 19.26 55.9 27.7 62.52 a 138.65 138.65 0 0 0 18 11 49.45 49.45 0 0 0 9.62 -5.16 c 16.94 -12.08 26.01 -30.81 22.9 -41.06 z" opacity=".3"/><path d="m 78 49.44 l -7 4.79 -8.36 5.77 3 4.4 c .55 .8 3.81 .58 5.06 -.28 l .08 -.06 c 26.67 41.13 29 66.4 35.53 89.43 a 131.54 131.54 0 0 0 21.41 -10.36 c -10.78 -23.63 -18.27 -47.52 -49.72 -93.69 z" opacity=".2"/><path d="m 189 220.45 c -3.84 -5.62 -9.66 -11.33 -16.19 -17.52 a 138.88 138.88 0 0 1 -24.38 12.15 l -1.53 -1.45 c 8 7.6 15.43 14.41 20 21.12 10.34 15.11 19.55 55.79 28 62.41 a 8.83 8.83 0 0 0 .77 .53 l .27 .15 a 5.88 5.88 0 0 0 .61 .33 1.9 1.9 0 0 0 .32 .15 7.19 7.19 0 0 0 .69 .29 l .29 .12 c .34 .12 .69 .24 1 .34 h .16 c .32 .09 .64 .17 1 .24 l .4 .09 .82 .15 .45 .07 .89 .11 .41 .05 1.31 .11 h 5.01 l 1.4 -.09 .79 -.07 .75 -.07 .87 -.09 .68 -.08 .93 -.12 .57 -.08 c 1.17 -.17 2.36 -.38 3.56 -.61 l .42 -.08 1.15 -.24 .38 -.08 c 1.84 -.4 3.67 -.87 5.48 -1.39 h .13 l 1.35 -.4 h .09 q 2.81 -.87 5.45 -1.91 h .05 l 1.31 -.53 a 138.65 138.65 0 0 1 -18 -11 c -8.42 -6.7 -17.34 -47.49 -27.66 -62.6 z" opacity=".2"/><path d="m 61 51.42 l 25.34 -17.34 a 2.25 2.25 0 0 1 2.66 -.32 l 6.15 3.93 -33.77 23.12 -1.63 -7 a 2.26 2.26 0 0 1 1.25 -2.39 z"/><path d="m 47.07 .51 c 1.89 0 3.42 1.53 3.42 3.42 s -1.53 3.42 -3.42 3.42 -3.42 -1.53 -3.42 -3.42 1.53 -3.42 3.42 -3.42 z"/><path d="m 199.43 211.68 c 1.89 0 3.42 1.53 3.42 3.42 s -1.53 3.42 -3.42 3.42 -3.42 -1.53 -3.42 -3.42 1.53 -3.42 3.42 -3.42 z"/><path d="m 35.62 30.03 c 1.89 0 3.42 1.53 3.42 3.42 s -1.53 3.42 -3.42 3.42 -3.42 -1.53 -3.42 -3.42 1.53 -3.42 3.42 -3.42 z"/><path d="m 75.69 21.89 c 1.89 0 3.42 1.53 3.42 3.42 s -1.53 3.42 -3.42 3.42 -3.42 -1.53 -3.42 -3.42 1.53 -3.42 3.42 -3.42 z"/><path d="m 102.54 95.15 c 1.89 0 3.42 1.53 3.42 3.42 s -1.53 3.42 -3.42 3.42 -3.42 -1.53 -3.42 -3.42 1.53 -3.42 3.42 -3.42 z"/><path d="m 135.56 103.81 c 4.86 0 8.8 3.94 8.8 8.8 s -3.94 8.8 -8.8 8.8 -8.8 -3.94 -8.8 -8.8 3.94 -8.8 8.8 -8.8 z"/><path d="m 69.46 .01 c 3.44 0 6.22 2.78 6.22 6.22 s -2.78 6.22 -6.22 6.22 -6.22 -2.78 -6.22 -6.22 2.78 -6.22 6.22 -6.22 z"/><path d="m 214.3 270.89 c 1.89 0 3.42 1.53 3.42 3.42 s -1.53 3.42 -3.42 3.42 -3.42 -1.53 -3.42 -3.42 1.53 -3.42 3.42 -3.42 z"/><path d="m 202.85 249.76 c 1.89 0 3.42 1.53 3.42 3.42 s -1.53 3.42 -3.42 3.42 -3.42 -1.53 -3.42 -3.42 1.53 -3.42 3.42 -3.42 z"/><path d="m 228.32 240.74 c 3.44 0 6.22 2.78 6.22 6.22 s -2.78 6.22 -6.22 6.22 -6.22 -2.78 -6.22 -6.22 2.78 -6.22 6.22 -6.22 z"/><path d="m 55.02 30.1 c 3.44 0 6.22 2.78 6.22 6.22 s -2.78 6.22 -6.22 6.22 -6.22 -2.78 -6.22 -6.22 2.78 -6.22 6.22 -6.22 z"/><path d="m 140.17 207.24 l -1.73 -1.7 1.9 1.87 .15 .14 1.78 1.73 .59 .56 1.34 1.28 .68 .64 1.28 1.22 .7 .65 1.53 1.45 a 138.88 138.88 0 0 0 24.38 -12.15 c -3.23 -3.06 -6.63 -6.24 -10.06 -9.57 -7.95 2.86 -14.47 .49 -18.79 4.37 -2.54 2.27 -3.53 6.07 -3.75 9.51 z" opacity=".9"/><path d="m 132.55 184.74 a 32.74 32.74 0 0 1 7.61 -18.16 c -.19 -.31 -.39 -.6 -.57 -.91 a 214.08 214.08 0 0 1 -11.86 -22.59 131.54 131.54 0 0 1 -21.41 10.36 c .31 1.09 .63 2.16 1 3.24 a .27 .27 0 0 0 .07 .22 c .32 1 .64 2 1 3 l .09 .28 q .52 1.53 1.08 3.06 a 1.44 1.44 0 0 1 .07 .19 c .4 1.08 .82 2.15 1.26 3.23 .44 1.07 .89 2.13 1.37 3.19 l .12 .26 c .46 1 .93 2 1.43 3 l .17 .32 c .5 1 1 2 1.59 3 l .14 .25 c .61 1.09 1.24 2.19 1.91 3.29 .49 .82 1 1.63 1.52 2.43 l .52 .77 c .35 .54 .71 1.08 1.08 1.6 .2 .3 .41 .59 .62 .89 .34 .48 .69 1 1 1.44 l .66 .9 c .35 .48 .71 .95 1.07 1.41 .22 .28 .43 .57 .65 .84 l 1.2 1.5 .56 .7 c .59 .72 1.19 1.43 1.79 2.13 l .14 .16 1.69 1.94 c .21 .23 .43 .46 .64 .7 l 1.23 1.36 .72 .77 1.19 1.26 c -.15 -.16 -.31 -.32 -.46 -.49 a 54.32 54.32 0 0 1 -.89 -15.54 z" opacity=".9"/><path d="m 152.73 157.06 c 12.7 -6.64 17 -10.25 15.33 -22 a 29.25 29.25 0 0 1 .11 -9.57 22.25 22.25 0 0 1 2.93 -7.68 l -.26 -.22 -.25 -.21 c -.81 -.68 -1.63 -1.35 -2.46 -2 l -.16 -.13 q -1.32 -1.05 -2.67 -2.07 c -5.39 6.92 -16.06 16.14 -29.35 24.84 -2.77 1.82 -5.52 3.52 -8.22 5.09 a 214.08 214.08 0 0 0 11.86 22.59 c .18 .31 .38 .6 .57 .9 a 40.78 40.78 0 0 1 12.57 -9.54 z"/><path d="m 191.5 141.25 c -.2 -.32 -.39 -.63 -.6 -.95 a 17.47 17.47 0 0 0 -1 -1.48 c -.2 -.31 -.4 -.61 -.61 -.91 -.35 -.53 -.72 -1 -1.09 -1.58 l -.54 -.77 c -.56 -.77 -1.12 -1.54 -1.71 -2.3 -.79 -1 -1.58 -2 -2.38 -3 l -.2 -.24 c -.74 -.89 -1.49 -1.75 -2.25 -2.59 l -.24 -.27 c -.76 -.83 -1.52 -1.64 -2.29 -2.43 l -.18 -.19 c -.83 -.84 -1.65 -1.66 -2.48 -2.45 s -1.67 -1.56 -2.51 -2.31 l -.21 -.18 c -.7 -.63 -1.42 -1.24 -2.13 -1.84 a 22.25 22.25 0 0 0 -2.93 7.68 29.25 29.25 0 0 0 -.11 9.57 c 1.67 11.78 -2.63 15.39 -15.33 22 a 40.65 40.65 0 0 0 -12.57 9.52 c .72 1.15 1.46 2.28 2.23 3.39 -.76 -1.11 -1.51 -2.24 -2.23 -3.39 .72 1.15 1.47 2.29 2.23 3.4 .22 .33 .45 .65 .67 1 .58 .83 1.17 1.65 1.78 2.46 .22 .31 .45 .61 .67 .91 .8 1.06 1.61 2.1 2.44 3.13 a 185.13 185.13 0 0 0 14.78 15.91 27 27 0 0 0 9.19 -5.75 c 12.12 -11.18 10.09 -20.8 11.47 -31.87 a 20.18 20.18 0 0 1 2.33 -7.56 11 11 0 0 1 6.69 -5.44 c -.28 -.48 -.58 -.98 -.89 -1.47 z m -48.42 29.75 c .57 .8 1.14 1.6 1.73 2.39 -.59 -.81 -1.16 -1.61 -1.73 -2.39 z m 2.45 3.37 c .8 1.05 1.6 2.08 2.42 3.1 -.82 -1.04 -1.62 -2.07 -2.42 -3.12 z" opacity=".6"/><path d="m 206.61 172.84 c -.12 -.32 -.25 -.63 -.38 -1 l -.63 -1.55 -.38 -1 c -.22 -.54 -.44 -1.08 -.67 -1.62 -.11 -.29 -.23 -.57 -.35 -.86 l -.95 -2.28 -.08 -.18 c -.34 -.81 -.69 -1.63 -1 -2.44 l -.36 -.81 c -.24 -.56 -.48 -1.11 -.73 -1.67 -.14 -.32 -.29 -.64 -.44 -1 l -.69 -1.53 -.47 -1 c -.24 -.51 -.48 -1 -.73 -1.53 l -.47 -1 -.81 -1.63 c -.14 -.29 -.28 -.57 -.43 -.86 -.4 -.78 -.8 -1.57 -1.22 -2.34 l -.06 -.13 c -.44 -.82 -.88 -1.63 -1.34 -2.44 -.15 -.27 -.3 -.54 -.46 -.8 -.31 -.55 -.62 -1.1 -.94 -1.64 -.18 -.31 -.37 -.62 -.56 -.93 -.3 -.5 -.61 -1 -.92 -1.5 .31 .49 .61 1 .91 1.49 a 11 11 0 0 0 -6.69 5.44 20.18 20.18 0 0 0 -2.33 7.56 c -1.38 11.07 .65 20.69 -11.47 31.87 a 27 27 0 0 1 -9.19 5.75 c 3.43 3.33 6.83 6.51 10.06 9.57 q 2.58 -1.58 5.21 -3.29 c 13.3 -8.71 24 -17.95 29.39 -24.87 z"/><path d="m 159.31 190 l -1 -1.05 c -.82 -.84 -1.63 -1.68 -2.45 -2.54 l -1.15 -1.23 c -.82 -.88 -1.62 -1.77 -2.42 -2.67 -.34 -.37 -.67 -.74 -1 -1.12 -1.12 -1.28 -2.23 -2.58 -3.31 -3.91 -.83 -1 -1.64 -2.07 -2.44 -3.13 -.23 -.3 -.45 -.6 -.67 -.91 -.61 -.81 -1.2 -1.63 -1.78 -2.46 l -.67 -1 c -.76 -1.11 -1.51 -2.25 -2.23 -3.4 .72 1.15 1.47 2.28 2.23 3.39 -.77 -1.11 -1.51 -2.24 -2.23 -3.39 a 32.74 32.74 0 0 0 -7.61 18.16 54.33 54.33 0 0 0 .88 15.66 c .15 .17 .31 .33 .46 .49 l .73 .77 c .4 .42 .81 .83 1.21 1.24 .23 .25 .47 .49 .71 .73 l 1.32 1.33 .58 .58 1.73 1.7 c .22 -3.44 1.21 -7.2 3.77 -9.51 4.32 -3.88 10.84 -1.51 18.79 -4.37 -1.17 -1.11 -2.31 -2.25 -3.45 -3.36 z" opacity=".5"/></g></svg>