<svg viewBox="0 0 300 300" xmlns="http://www.w3.org/2000/svg"><g fill="#fff"><path d="m 292.87 257.33 c -28.27 28.67 -88.29 5.75 -111.27 -1.33 -93.66 -29 -222.76 -156.44 -119.94 -240.81 -21.46 5.71 -81.37 80.72 -54.73 123.74 44.18 71.34 139.28 142.19 186.34 150.56 44.56 7.93 79 8.55 102.11 -34.12 a 25.95 25.95 0 0 0 -2.51 1.96 z" opacity=".4"/><path d="m 226.63 134.59 c -27.93 -8.92 -39.5 -18.53 -49.76 -33.74 -48.76 -98.97 -83.87 -105.18 -115.21 -85.66 -102.82 84.37 26.28 211.81 119.94 240.81 23 7.1 83 30 111.27 1.35 .89 -.9 2.06 -1.49 3 -2.38 20.72 -40.63 -46.87 -113.25 -69.24 -120.38 z m -74.63 -59.09 c 5.11 8.7 22.78 31.17 29.13 40.35 6.78 9.79 -5.75 12.67 -16 20.08 -9.29 6.71 -14.3 16.61 -15.9 11.63 -4.04 -12.47 -5.63 -86.27 2.77 -72.06 z m -108.93 -3.5 c 9.49 -53.82 47.57 -49.06 64.8 -44.12 18.9 5.41 32.52 41.32 32.71 70.53 .07 11.17 5.11 41 -16.1 56.26 q -21.21 15.29 -33.54 11 c -27.17 -4.37 -58.42 -81.34 -47.87 -93.67 z m 81.5 139.92 a 100.62 100.62 0 0 1 -15.49 -12.41 c -11.54 -11.34 -37.29 -30 -15 -28.1 23.77 2 29.52 -3 38 -4.86 25.44 -10.5 1.42 19.34 35.91 64.82 10.24 13.39 -19.66 -3.99 -43.42 -19.48 z m 111.62 40.54 c -18.93 5.29 -46.16 -12.91 -61.61 -37.7 -5.91 -9.47 -25.81 -32.23 -15.74 -56.36 q 10.07 -24.13 22.79 -27 c 25.44 -10.5 105.37 64.93 102.85 81 20.1 50.82 -31.03 35.21 -48.29 40.03 z"/><path d="m 124.48 154.64 c 21.21 -15.29 16.17 -45.09 16.1 -56.26 -.19 -29.21 -13.81 -65.12 -32.71 -70.53 -17.23 -4.94 -55.31 -9.7 -64.8 44.15 -10.55 12.36 20.7 89.33 47.87 93.7 q 12.33 4.23 33.54 -11.06 z m -51.31 -110.04 a 15.32 15.32 0 0 1 12.12 -5.69 21.25 21.25 0 0 1 12.94 4.57 20.99 20.99 0 0 1 7.63 11.41 14.73 14.73 0 0 1 -14.86 18.81 21 21 0 0 1 -12.76 -4.53 c -8.24 -6.47 -10.57 -17.48 -5.07 -24.57 z" opacity=".6"/><path d="m 94.54 61.21 a 4.37 4.37 0 0 0 .51 -3.66 10.68 10.68 0 0 0 -9.6 -7.55 h -.07 a 4.39 4.39 0 0 0 -3.38 1.43 c -1.49 1.92 -.57 6.07 3.14 9 s 7.91 2.7 9.4 .78 z" opacity=".6"/><path d="m 181.63 131.41 q -12.72 2.82 -22.79 27 c -10.07 24.13 9.83 46.89 15.74 56.36 15.45 24.79 42.68 43 61.61 37.7 17.26 -4.82 68.39 10.79 48.29 -40 2.52 -16.13 -77.41 -91.56 -102.85 -81.06 z" opacity=".6"/><path d="m 132.14 166.52 c -8.49 1.89 -14.24 6.88 -38 4.86 -22.34 -1.9 3.41 16.76 15 28.1 a 100.62 100.62 0 0 0 15.49 12.41 c 23.76 15.49 53.66 32.87 43.48 19.45 -34.55 -45.48 -10.53 -75.34 -35.97 -64.82 z" opacity=".6"/><path d="m 165.1 135.93 c 10.23 -7.41 22.76 -10.29 16 -20.08 -6.35 -9.18 -24 -31.65 -29.13 -40.35 -8.35 -14.21 -6.76 59.59 -2.75 72.06 1.58 4.98 6.59 -4.92 15.88 -11.63 z" opacity=".6"/><path d="m 103.33 68 a 15.32 15.32 0 0 0 2.53 -13.15 20.99 20.99 0 0 0 -7.63 -11.41 21.25 21.25 0 0 0 -12.94 -4.57 15.32 15.32 0 0 0 -12.12 5.73 c -5.5 7.09 -3.21 18.1 5.1 24.57 a 21 21 0 0 0 12.73 4.53 15.26 15.26 0 0 0 12.33 -5.7 z m -21.33 -16.57 a 4.39 4.39 0 0 1 3.38 -1.43 h .07 a 10.68 10.68 0 0 1 9.6 7.51 4.37 4.37 0 0 1 -.51 3.66 c -1.49 1.92 -5.73 2 -9.44 -.83 s -4.63 -6.99 -3.1 -8.91 z"/></g></svg>