<svg enable-background="new 0 0 317 213" viewBox="0 0 317 213" xmlns="http://www.w3.org/2000/svg"><path d="m 77 116 c -21 2 -20 11 -38 34 -3 5 -2 7 0 12 1 11 3 21 4 32 1 4 0 5 4 5 -2 3 -3 3 -1 5 4 4 4 5 9 5 16 0 14 1 4 -15 -2 -3 -5 -23 -6 -32 -1 -3 1 -6 3 -8 -1 0 -4 -1 -5 -4 2 2 3 3 5 3 2 6 4 0 5 1 6 6 2 -5 6 -2 6 6 2 -2 6 -2 5 1 7 -2 5 -8 5 -4 11 -8 16 -12 31 8 45 8 80 6 0 13 7 28 5 38 -1 7 -3 20 -2 24 0 2 1 1 2 3 2 2 -3 10 5 11 18 0 17 2 9 -14 -3 -4 -2 -17 -1 -24 0 -6 3 -10 5 -16 5 -9 10 -30 12 -40 1 5 -5 27 -10 41 2 5 4 8 4 14 0 8 0 20 1 24 1 2 2 0 3 2 2 2 -1 11 7 10 18 -3 17 -1 6 -15 -3 -3 -4 -15 -5 -23 -1 -11 7 -24 8 -37 17 -1 15 -20 28 -29 8 -5 12 -15 14 -26 14 1 25 -5 41 -3 12 1 14 -13 6 -21 -6 -7 -10 -13 -17 -19 0 -7 -3 -12 -11 -15 0 -2 0 -4 0 -6 5 -4 7 -9 6 -15 -3 5 -8 8 -16 9 2 -3 2 -6 1 -8 -4 5 -11 7 -15 11 -29 27 -35 18 -76 23 -42 4 -89 5 -129 -4 -68 -15 -37 45 -46 90 -10 10 -10 26 -8 31 17 -25 11 -25 12 -31 1 -7 3 -61 6 -64 -2 15 -2 31 -1 46 1 26 -11 34 -6 62 1 10 1 20 1 29 0 5 -1 8 3 8 -2 3 -3 3 -1 6 3 4 3 5 8 5 17 0 15 2 5 -14 -3 -6 -3 -25 0 -34 3 -8 15 -22 23 -34 8 -11 13 -16 26 -15 z m 204 -81 c -1 0 2 0 2 1 -1 3 3 3 3 3 1 -1 2 1 2 1 -1 -3 -5 -6 -7 -5 z" fill="#fff"/></svg>