<svg enable-background="new 0 0 1390.7403564 780.3797607" viewBox="0 0 1390.74 780.38" xmlns="http://www.w3.org/2000/svg"><path d="m 1351.55 284.67 c -49.15 -86.02 -125.95 -190.46 -301.06 -239.62 -161.28 -46.08 -327.17 -44.54 -408.57 -33.79 0 0 -281.09 23.04 -440.83 125.95 -159.75 102.92 -222.73 208.9 -185.86 377.86 36.86 168.96 132.1 250.37 262.66 259.58 130.56 10.75 330.24 -101.38 440.83 -101.38 110.59 -1.54 121.34 9.22 211.97 32.26 90.62 23.04 305.66 12.29 374.78 -67.58 69.12 -78.34 115.2 -228.86 46.08 -353.28 z m -483.84 328.7 c -1.54 9.22 -7.68 23.04 -90.62 15.36 -55.3 -4.61 -112.13 18.43 -167.42 29.19 -44.54 7.68 -69.12 0 -73.73 -16.9 -1.54 -3.07 -7.68 -24.58 33.79 -36.86 26.11 -7.68 64.51 -23.04 96.77 -29.18 39.94 -7.68 96.77 -15.36 145.92 0 39.93 10.75 56.82 21.5 55.29 38.39 z" fill="#fff"/></svg>