<svg enable-background="new 0 0 105 105" viewBox="0 0 105 105" xmlns="http://www.w3.org/2000/svg"><g fill="#fff"><path d="m 50.1 34.7 s -2.9 -3.6 -5.5 -4.8 c 0 0 6.1 -10.7 19 -14.2 0 0 4.4 3.4 5.2 10.1 0 0 3.4 .9 3.4 3.2 l -4.1 2 s -7.8 -1.5 -8.8 -1.2 -.3 3.9 .6 4.5 c 0 0 -.3 1.2 -.9 1.7 0 0 2 4.1 7.2 1.9 0 0 -2.9 6.2 4.4 7.8 0 0 4.2 -1.2 4.8 -6.8 0 0 -4.9 .4 -5.4 1.1 0 0 -1.1 -.8 2.9 -1.5 0 0 .6 -.6 -1.6 -2.5 l 1.5 -.1 .4 -4.2 s 9.2 2.1 11.5 9.2 c 0 0 5.1 14.7 -6.2 46.5 0 0 -7.5 1.5 -12.5 -.3 0 0 -.3 -4.6 .4 -5.2 l 3.3 -1.9 s -6.5 -11.4 -4.5 -13.5 c 0 0 1.9 -1.8 2.4 -2.9 0 0 -2.8 1.4 -3.9 1.4 0 0 -1.3 -5.2 -3.8 -8.9 0 0 6 25 3.5 31.9 0 0 -16.8 4.8 -15.9 -2.3 0 0 -.1 -2.6 2.5 -4.8 0 0 -4.6 -5.2 -4.8 -5.9 0 0 -3.8 -2.1 -1 -10.7 s .1 -.2 .1 -.2 -19.1 -17.5 -6.8 -31.3 c 0 0 4.9 -5.8 12.6 1.9 z"/><path d="m 60.7 32 h 2.6 6.9 l 1.8 -.8 s -.8 2.8 -1.2 3 c 0 0 -2.2 .1 -3.4 -.7 0 0 -2.3 1.8 -3 1.9 0 0 -3.4 -1.5 -3.7 -3.4 z"/><path d="m 68.3 34.8 l .6 1.4 s .5 .8 -.6 .8 h -.8 v -1.8 s .4 -.4 .6 -.4"/><path d="m 68.8 34.8 l .9 1.6 1.2 -.2 s -.9 -1.3 -2.1 -1.4 z"/><path d="m 33.4 51.2 s 4.5 9.2 9 13.1 l -.7 5.8 s -2.3 -.6 -2.5 -.4 -6.4 12.4 -6.3 13.1 c 0 0 2.1 .9 2.1 1.6 l .2 2.1 s -11.1 1.1 -14.3 0 c 0 0 -3.4 -3.8 -.7 -12 0 0 4.8 -5.4 4.9 -7.2 0 0 .9 -3.1 -.6 -6.9 -.1 -.2 -2.4 -10 8.9 -9.2 z"/><path d="m 41.9 71.6 s -.1 3.4 6.1 8.9 c 0 0 -2.8 3.9 -2.2 5.1 l -2.8 -.4 s -1.9 -6 -1.9 -6.6 c 0 0 1.4 -1.3 1.6 -2 0 0 -5 -3 -3.1 -5 .5 -.3 2.3 -.3 2.3 0 z"/></g></svg>