<svg enable-background="new 0 0 619.3666992 635.9116211" viewBox="0 0 619.37 635.91" xmlns="http://www.w3.org/2000/svg"><g enable-background="new" fill="#fff"><path d="m 265.45 17 c -4.96 124.58 -7.45 247.91 -7.45 370 0 37.48 .21 74.89 .63 112.23 .41 37.35 1.03 74.77 1.86 112.24 l -93.84 .83 c 1.65 -33.62 3.1 -67.31 4.34 -101.08 1.24 -33.76 2.55 -67.86 3.93 -102.32 l -169.92 .84 c 7.99 -59.81 14.95 -120.3 20.88 -181.49 5.92 -61.19 10.13 -124.03 12.61 -188.52 h 90.12 c -6.34 48.23 -11.85 97.92 -16.54 149.03 -4.69 51.13 -7.72 101.08 -9.09 149.86 l 73.59 -3.31 c .55 -19.57 .83 -39.07 .83 -58.5 s 0 -39.07 0 -58.92 c 0 -33.34 -.2 -66.62 -.62 -99.83 s -1.31 -66.62 -2.69 -100.25 z"/><path d="m 614.37 317.55 c 0 54.02 -4 100.73 -11.99 140.15 s -18.88 71.93 -32.66 97.56 c -13.79 25.63 -29.91 44.65 -48.36 57.05 -18.47 12.4 -38.18 18.61 -59.12 18.61 -20.95 0 -40.66 -5.99 -59.12 -17.98 -18.47 -11.99 -34.66 -30.65 -48.58 -56.02 -13.92 -25.36 -24.88 -57.8 -32.87 -97.36 -7.99 -39.54 -11.98 -86.87 -11.98 -142.01 0 -57.6 3.99 -106.25 11.98 -145.93 7.99 -39.69 18.95 -71.87 32.87 -96.54 13.91 -24.66 30.11 -42.51 48.58 -53.54 18.46 -11.02 38.17 -16.54 59.12 -16.54 20.94 0 40.64 6 59.12 17.98 18.46 11.99 34.59 30.6 48.36 55.81 13.78 25.22 24.67 57.61 32.66 97.16 7.98 39.55 11.99 86.76 11.99 141.6 z m -94.67 0 c 0 -41.33 -1.52 -76.89 -4.55 -106.66 s -7.1 -54.22 -12.2 -73.37 c -5.1 -19.16 -11.16 -33.28 -18.19 -42.38 -7.03 -9.09 -14.54 -13.64 -22.53 -13.64 -8 0 -15.58 4.13 -22.74 12.4 -7.17 8.27 -13.43 21.7 -18.81 40.31 s -9.58 42.94 -12.61 72.97 c -3.03 30.04 -4.55 66.83 -4.55 110.38 0 41.62 1.51 77.39 4.55 107.28 3.03 29.91 7.23 54.52 12.61 73.79 5.38 19.29 11.64 33.49 18.81 42.58 7.16 9.1 14.74 13.64 22.74 13.64 7.98 0 15.5 -4.68 22.53 -14.05 7.03 -9.36 13.09 -23.77 18.19 -43.2 5.09 -19.43 9.16 -44.09 12.2 -74 3.03 -29.92 4.55 -65.26 4.55 -106.05 z"/></g></svg>