<svg enable-background="new 0 0 841.889 595.281" height="595.28" viewBox="0 0 841.89 595.28" width="841.89" xmlns="http://www.w3.org/2000/svg"><g fill="#fff"><path d="m 372.73 329.79 s -30.36 3.57 -53.58 -2.98 c 0 0 20.84 27.98 28.57 36.91 8.33 9.52 13.1 35.12 8.33 35.12 -5.36 0 -5.36 0 -5.36 0 s -5.95 1.79 -7.14 10.12 25.6 13.1 35.72 5.36 c 10.12 -8.33 9.52 -35.72 4.17 -46.43 -4.16 -10.13 -10.71 -38.1 -10.71 -38.1 z"/><path d="m 198.31 175.61 s 8.33 -10.72 13.1 -10.72 c 0 0 -2.98 -8.33 -11.31 -5.95 s -7.14 19.05 -7.14 19.05 z"/><path d="m 434.04 220.25 s -.6 7.74 0 12.5 c .6 5.36 4.76 18.45 4.76 18.45 s 1.79 -15.48 0 -22.03 c -1.78 -6.53 -4.76 -8.92 -4.76 -8.92 z"/><path d="m 614.41 321.45 c 2.98 -4.17 4.76 -7.14 6.55 -8.93 -.6 -1.19 -1.79 -2.98 -2.38 -4.17 -10.12 -21.43 -20.84 -41.07 -20.84 -41.07 s -7.14 23.81 -17.26 49.41 v 16.67 s 4.17 2.38 10.72 5.95 c 3.57 -.59 13.69 -2.38 23.21 -17.86 z"/><path d="m 625.72 319.07 c -1.19 7.74 -5.95 18.45 -22.62 26.79 14.88 8.33 31.55 18.45 35.12 20.24 5.95 2.98 17.26 26.79 17.26 26.79 s 1.19 7.14 -11.31 13.1 c -5.36 2.98 -2.98 16.67 1.19 16.67 s 38.1 5.36 39.29 -12.5 c .6 -17.26 -25.6 -69.05 -25.6 -69.05 s -20.23 -7.16 -33.33 -22.04 z"/><path d="m 515 204.18 c -4.17 -15.48 -7.14 -26.19 -8.93 -33.34 -25 -.6 -43.46 1.79 -43.46 1.79 s 0 0 -1.19 0 c .6 6.55 2.38 14.29 5.36 21.43 6.55 14.88 7.14 31.55 7.14 35.12 v .6 s 0 0 0 -.6 c 0 -2.38 -1.79 -8.93 -14.29 -25.6 -7.74 -10.12 -10.12 -21.43 -10.72 -30.36 -4.76 .6 -11.91 1.19 -20.84 1.79 -15.48 1.19 -27.98 1.19 -39.88 .6 .6 5.36 2.38 11.31 5.36 17.26 8.93 17.26 4.76 51.79 4.76 51.79 -5.95 -26.79 -14.29 -46.43 -17.86 -51.79 -1.79 -2.38 -2.98 -10.72 -3.57 -17.86 -9.52 -1.19 -18.45 -2.98 -27.98 -4.17 -5.95 -1.19 -18.45 -1.19 -32.74 -.6 7.14 12.5 10.12 21.43 10.12 21.43 10.12 58.93 -21.43 78.58 -21.43 78.58 13.69 -11.31 20.24 -62.51 8.93 -78.58 -5.95 -8.33 -10.72 -16.07 -13.69 -20.84 -13.1 .6 -27.38 1.79 -40.48 2.98 2.98 5.36 7.14 10.72 12.5 13.1 13.69 5.36 22.03 20.84 23.81 24.41 0 .6 .6 .6 .6 .6 s 0 0 -.6 -.6 c -1.19 -2.38 -5.95 -9.53 -19.65 -15.48 -10.72 -4.76 -19.05 -14.88 -23.81 -21.43 -7.74 .6 -14.88 1.19 -21.43 1.79 2.38 17.26 -2.98 27.98 -2.98 27.98 s .6 -9.52 .6 -14.88 -2.98 -13.69 -2.98 -14.29 c -1.19 -2.98 -3.57 -4.76 -6.55 -5.36 -6.55 -1.19 -11.91 4.17 -16.07 10.12 -13.1 3.57 -38.69 12.5 -41.07 17.86 -8.93 16.07 -32.74 50 -32.74 50 s 4.17 7.14 12.5 14.29 9.52 4.17 15.48 0 l 11.31 5.95 -2.98 -10.72 c 2.98 -1.19 10.12 -4.17 13.1 -2.38 1.19 .6 2.38 2.38 2.38 3.57 -2.38 1.19 -7.14 5.36 -12.5 10.72 l -7.14 -.6 2.38 5.36 c -2.98 3.57 -2.38 3.57 -2.38 3.57 1.19 2.38 4.76 8.33 12.5 8.33 13.69 0 14.29 -16.67 26.79 -20.83 5.95 -1.79 11.31 -4.76 16.07 -7.14 1.19 0 2.98 .6 4.17 1.19 14.29 4.76 24.41 14.88 24.41 14.88 s -1.19 -16.07 -1.19 -23.22 1.19 -33.34 1.19 -33.34 5.95 4.76 5.36 26.19 c -1.19 21.43 0 64.89 0 64.89 s -13.1 35.12 -25.6 52.39 c -12.5 17.26 -13.1 25.6 -14.29 44.05 s 9.52 19.65 20.84 19.65 14.29 -28.57 15.48 -32.15 c 1.19 -2.98 9.52 -15.48 24.41 -29.76 3.57 -3.57 8.33 -8.33 12.5 -13.69 -4.17 -1.79 -8.93 -4.17 -12.5 -7.74 -9.52 -11.31 -19.05 -6.55 -19.05 -6.55 s 8.33 -11.31 19.05 -3.57 c 5.95 4.17 16.67 4.17 24.41 3.57 8.33 -10.72 15.48 -20.24 15.48 -20.24 l 20.24 -34.53 -13.1 37.5 s 14.29 6.55 35.12 5.95 c 8.93 0 19.05 -2.98 29.77 -5.36 4.17 -11.31 10.72 -31.55 7.74 -41.07 -4.17 -13.1 -3.57 -20.84 -3.57 -20.84 s 8.33 11.31 15.48 29.17 c 3.57 9.52 1.79 20.84 -1.19 28.57 1.19 0 1.79 0 2.98 -.6 47.03 -4.17 69.65 -26.79 83.34 -24.41 7.14 1.19 9.52 12.5 11.91 23.81 23.79 -24.37 23.79 -77.35 14.86 -108.31 z m -350.03 13.1 s 2.38 -13.1 16.67 -10.12 c .6 0 -2.38 9.52 -16.67 10.12 z m 36.91 5.36 c 0 22.03 -9.52 22.03 -9.52 22.03 s -.6 -5.36 2.98 -9.52 c 3.57 -4.17 0 -23.22 0 -23.22 v -3.57 l 6.55 -8.33 v -8.33 l 9.52 12.5 c 0 -.02 -9.53 -3.59 -9.53 18.44 z m 160.73 69.05 l -5.95 -12.5 s 0 0 -5.36 -22.62 0 -52.39 0 -52.39 0 0 -1.79 -10.72 -8.33 -19.05 -8.33 -19.05 18.45 10.12 16.07 38.1 1.79 47.03 1.79 47.03 0 0 3.57 7.14 c 4.17 7.75 0 25.01 0 25.01 z m 79.17 -14.88 c -15.48 -30.36 -17.26 -41.67 -16.67 -54.17 1.19 -12.5 -4.17 -29.76 -4.17 -29.76 s -3.57 -16.67 0 -6.55 c 3.57 10.72 23.22 29.17 26.79 41.67 4.17 12.49 -5.95 48.81 -5.95 48.81 z"/><path d="m 570.36 352.41 c -2.98 1.79 -10.72 5.95 -25 8.33 -6.55 1.19 -11.31 3.57 -15.48 5.95 2.98 5.95 5.36 12.5 8.33 17.86 8.33 15.48 0 32.15 0 32.15 s -5.36 -1.79 -15.48 2.98 c -5.36 2.38 -4.76 7.14 -2.98 10.72 1.79 4.17 6.55 6.55 11.31 6.55 h 21.43 c 9.52 0 12.5 -5.95 12.5 -5.95 s 9.52 -17.26 10.12 -35.12 c 1.19 -17.26 -5.36 -20.84 -5.36 -25.6 .61 -1.8 .02 -8.94 .61 -17.87 z"/><path d="m 603.7 252.99 c 4.17 8.93 9.52 20.24 14.29 30.36 10.12 -2.98 16.07 -11.91 19.05 -20.24 -2.98 -9.52 -7.14 -20.24 -11.31 -33.93 -5.96 14.89 -16.08 21.43 -22.03 23.81 z"/><path d="m 628.1 303 c 5.36 8.93 11.91 15.48 18.45 19.65 7.14 -6.55 10.72 -14.29 11.91 -20.84 -5.95 -2.38 -10.12 -9.52 -16.07 -23.22 -5.36 10.72 -13.69 14.29 -19.65 14.88 2.39 4.17 3.58 7.15 5.36 9.53 z"/><path d="m 666.2 303 c -2.38 13.69 -7.14 20.24 -11.91 23.81 11.91 4.17 24.41 2.98 35.12 -2.98 .6 -8.33 -2.98 -17.26 -6.55 -24.41 -4.16 2.39 -9.52 3.58 -16.66 3.58 z"/><path d="m 553.1 300.62 c 0 15.48 -14.29 26.19 -14.29 26.19 -14.29 12.5 -17.86 18.45 -17.86 22.03 .6 1.19 1.19 1.79 1.79 2.98 1.79 3.57 3.57 7.14 5.36 10.72 5.95 -3.57 13.69 -8.33 21.43 -10.72 12.5 -4.17 19.05 -12.5 21.43 -15.48 1.19 -14.29 4.17 -29.77 10.72 -44.05 14.29 -30.36 14.29 -55.96 14.29 -55.96 s .6 1.79 1.79 4.17 c 11.91 -2.38 18.45 -15.48 21.43 -27.38 -10.72 -22.62 -37.5 -33.34 -66.67 -38.69 1.79 3.57 3.57 7.74 5.36 12.5 24.41 52.39 -5.95 83.34 -5.95 83.34 s 13.1 -54.77 0 -72.03 c -6.55 -8.93 -11.91 -18.45 -15.48 -26.19 -9.52 -1.19 -19.05 -1.79 -27.98 -1.79 5.95 13.69 15.48 36.31 19.05 50 5.36 20.84 2.98 58.34 -7.74 76.79 -4.17 7.14 -10.72 16.67 -17.26 26.19 1.79 5.95 4.17 11.31 7.74 14.29 .6 .6 1.79 1.19 2.38 1.79 2.38 -2.98 6.55 -7.14 14.29 -11.91 16.64 -10.72 26.17 -26.79 26.17 -26.79 z"/><path d="m 710.25 272.64 c -9.52 1.19 -15.48 5.36 -19.05 8.93 .6 1.79 0 3.57 -.6 5.95 s -1.79 4.76 -2.38 6.55 c 5.36 6.55 8.93 18.45 10.12 23.22 7.14 -7.14 12.5 -16.67 14.29 -27.98 .6 -6.55 -.59 -11.91 -2.38 -16.67 z"/><path d="m 676.32 269.07 c 2.38 2.38 5.95 3.57 8.33 5.36 4.76 -4.76 13.1 -7.74 19.05 -9.52 -9.52 -8.33 -23.81 -10.12 -27.38 -7.74 -5.95 3.56 -7.14 5.94 0 11.9 z"/></g></svg>