<svg enable-background="new 0 0 216.4 190" viewBox="0 0 216.4 190" xmlns="http://www.w3.org/2000/svg"><g fill="#fff"><path d="m 206.4 100 h -196.4 c -5.5 0 -10 4.5 -10 10 0 .5 0 1.1 .1 1.6 l 6.7 40 c .8 4.8 5 8.4 9.9 8.4 h 23.1 c 1.1 0 2 .9 2 2 0 .8 -.4 1.4 -1.1 1.8 l -12.5 6.2 v 16 c 0 2.2 1.8 4 4 4 h 22 c 2.2 0 4 -1.8 4 -4 v -26 h 111.5 c 1.1 0 2 .9 2 2 0 .8 -.4 1.4 -1.1 1.8 l -12.4 6.2 v 16 c 0 2.2 1.8 4 4 4 h 22 c 2.2 0 4 -1.8 4 -4 v -26 h 11.5 c 4.9 0 9.1 -3.5 9.9 -8.4 l 6.7 -40 c .9 -5.4 -2.8 -10.6 -8.2 -11.5 -.6 -.1 -1.2 -.1 -1.7 -.1 z m -178.2 30 c -5.5 0 -10 -4.5 -10 -10 s 4.5 -10 10 -10 10 4.5 10 10 -4.5 10 -10 10 z m 110 -2 c 0 1.1 -.9 2 -2 2 h -56 c -1.1 0 -2 -.9 -2 -2 v -16 c 0 -1.1 .9 -2 2 -2 h 56 c 1.1 0 2 .9 2 2 z m 50 2 c -5.5 0 -10 -4.5 -10 -10 s 4.5 -10 10 -10 10 4.5 10 10 -4.5 10 -10 10 z"/><path d="m 179.6 38.4 c -.8 -4.8 -5 -8.4 -9.9 -8.4 h -123 c -4.9 0 -9.1 3.5 -9.9 8.4 l -8.6 51.6 h 160 z"/><path d="m 78.2 10 c 0 -5.5 -4.5 -10 -10 -10 s -10 4.5 -10 10 v 10 h 20 z"/></g></svg>