<svg enable-background="new 0 0 996.4863281 792.7563477" viewBox="0 0 996.49 792.76" xmlns="http://www.w3.org/2000/svg"><path d="m 991.49 180.71 c -.44 -12.67 -4.92 -32.42 -12 -46.66 -7.32 -14.24 -19.57 -30.9 -26.67 -44.88 -5.83 -11.55 -1.82 -24.48 -5.06 -36.46 -3.74 -13.48 -11.31 -22.66 -21.65 -30.7 -7.93 -5.98 -17.69 -10.86 -30.37 -14.31 -16.71 -4.52 -42.84 -3.54 -58.18 4.25 -31.04 15.95 -40.71 42.05 -60.02 79.97 -7.59 15.11 -11.21 31.5 -18.27 47.09 -7.83 16.93 -12.47 34.18 -21.94 50.79 -16.88 30.05 -35.05 42.19 -63.16 62 -28.67 20.18 -64.39 31.95 -97.19 46.29 -18.25 7.91 -35.25 18.36 -51.91 29.08 -18.6 11.85 -35.26 17.99 -56.21 24.62 -46.26 14.87 -92.45 31.2 -139.51 43.66 -69.43 18.56 -153.13 8.6 -214.47 51.23 -.21 .1 7.3 14.24 7.7 15.28 -1.21 -2.63 -21.65 3.84 -24.18 5.32 -7.82 4.91 -20.82 21.19 -12.03 29.75 14.85 14.22 52.11 14.65 71.21 19.1 -.76 1.9 -4.03 9.42 -6.54 10.05 -43.19 9.69 -125.6 16.14 -146.04 64.1 25.37 24.28 77.32 12.45 107.57 6.94 50.09 -9.37 99.01 -23.6 149.44 -32 18.76 -3.1 39.52 -3.46 57.51 3.78 11.8 4.61 25.68 18.34 37.58 20.15 7.61 1.12 15.98 3.54 23.51 3.54 12.36 .05 27.5 -8.78 39.44 -2.05 8.89 4.92 15.3 13.92 24.85 17.46 10.32 3.7 24.34 1.03 35.14 .31 14.06 -.55 63.03 -4.1 72.01 7.93 5.02 7.06 .54 28.65 1.95 37.98 0 0 3.7 24.21 3.7 24.23 .65 3.84 21.25 11.77 24.62 13.92 10.14 6.23 16.02 13.26 24.2 21.75 l 9.28 9.69 -13.89 11.38 c -6.55 4.79 -15.74 10.52 -19.87 17.14 9.02 3.92 23.85 -2.51 33.46 -3.61 14.87 -1.63 16.45 -2.02 28.33 8.97 9.91 9.27 14.33 19.92 27.94 23.87 8.4 2.26 20.99 7.63 29.22 5.68 -5.07 -5.15 -14.7 -29.15 -21.28 -30.92 29.33 7.73 51.32 14.76 102.52 22.51 4.2 .59 -4.6 -4.75 -.79 -5.73 -34.31 -21.65 -48.03 -19.93 -65.73 -28.65 -12.45 -6.16 -16.75 -11.48 -29.22 -15.37 0 0 -19.35 -10.21 -19.97 -10.5 -7.22 -2.31 -19.87 -28.33 -24.29 -34.8 -10.2 -14.93 -14.52 -36.93 -3.95 -53.85 19.85 -32.12 54.76 -35.96 87.59 -46.45 37.05 -11.82 77.01 -35.04 108.18 -57.68 15.77 -11.38 27.28 -30.05 39.75 -45.24 43.53 -53.16 51.82 -132.12 38.72 -197.62 -5.69 -28.51 -10.42 -56.92 -13.46 -86.33 -1.43 -14.11 1.23 -34.71 12.27 -44.92 15.53 -14.2 24.87 -7.65 39.84 2.02 3.41 2.01 35.43 23.37 40.32 26.9 z" fill="#fff"/></svg>