<svg enable-background="new 0 0 300 300" viewBox="0 0 300 300" xmlns="http://www.w3.org/2000/svg"><g fill="#fff"><path d="m 112.8 75.3 l -50.2 114.6 c -1.6 3.7 -5.2 6 -9.2 6 l -45 -.2 c -4.7 0 -8.4 3.8 -8.4 8.5 v 85.8 c 0 5.5 4.5 10 10 10 1.5 0 3.1 -.4 4.5 -1.1 l 65.5 -33 25 .2 c 22.1 0 40 -17.9 40 -40 v -56.8 c 0 -3.1 -2.5 -5.5 -5.5 -5.5 -2.1 0 -4 1.2 -5 3.1 l -21.9 43.9 c -1 2 -3.4 2.8 -5.4 1.8 -.2 -.1 -.3 -.2 -.5 -.3 -1.6 -1.2 -2.2 -3.4 -1.2 -5.2 l 21.9 -43.7 c 2.8 -5.7 9.1 -8.6 15.2 -7.1 h .1 c 1 .2 2 -.4 2.3 -1.4 0 -.1 .1 -.3 .1 -.4 v -71.6 c -.1 -17.9 -24.2 -23.6 -32.3 -7.6 z"/><path d="m 291.5 195.7 h -45.1 c -4 0 -7.6 -2.4 -9.2 -6 l -50.1 -114.4 c -8 -16 -32.1 -10.3 -32.1 7.6 v 71.4 c 0 1 .8 1.9 1.9 1.9 .1 0 .3 0 .4 -.1 h .1 c 6.1 -1.5 12.5 1.4 15.2 7.1 l 21.9 43.7 c .9 1.8 .4 4 -1.2 5.2 -1.8 1.3 -4.3 .8 -5.6 -1 -.1 -.2 -.2 -.3 -.3 -.5 l -21.9 -43.9 c -1.4 -2.7 -4.7 -3.8 -7.4 -2.5 -1.9 .9 -3.1 2.9 -3.1 5 v 56.8 c 0 22.1 17.9 40 40 40 l 25 -.2 65.5 33 c 4.9 2.5 10.9 .5 13.4 -4.5 .7 -1.4 1.1 -2.9 1.1 -4.5 v -85.8 c 0 -4.5 -3.8 -8.3 -8.5 -8.3 z"/><path d="m 185 20 c 0 -11 -9 -20 -20 -20 -5.7 0 -11.2 2.5 -15 6.8 -7.3 -8.3 -19.9 -9.1 -28.2 -1.8 -4.3 3.8 -6.8 9.2 -6.8 15 0 20 20 30 35 40 15 -10 35 -20 35 -40 z"/></g></svg>