<svg enable-background="new 0 0 702.7645874 801.3392944" viewBox="0 0 702.76 801.34" xmlns="http://www.w3.org/2000/svg"><g fill="#fff"><path d="m 79.71 70.56 c 1.46 1.84 1.86 3.96 .88 4.74 l -19.53 15.47 c -.98 .78 -2.96 -.08 -4.42 -1.93 l -50.23 -63.34 c -1.46 -1.84 -1.85 -3.97 -.87 -4.74 l 19.52 -15.48 c .98 -.77 2.96 .09 4.42 1.93 z"/><path d="m 594.67 645.13 c -41.75 0 -75.6 27.7 -75.6 61.87 0 34.16 33.85 61.86 75.6 61.86 s 75.6 -27.7 75.6 -61.86 c .01 -34.18 -33.85 -61.87 -75.6 -61.87 z m -2.29 106.42 c -37.94 0 -68.73 -22.8 -68.73 -50.93 0 -28.11 30.78 -50.91 68.73 -50.91 s 68.73 22.8 68.73 50.91 c .01 28.13 -30.78 50.93 -68.73 50.93 z"/><path d="m 659.89 680.93 c .47 2.1 .79 4.23 .95 6.4 16.82 9.28 27.76 24.08 27.76 40.8 0 28.12 -30.77 50.93 -68.71 50.93 -24.74 0 -46.35 -9.7 -58.45 -24.23 -3.77 -.23 -7.49 -.6 -11.1 -1.14 9.88 24.74 38.3 42.65 71.84 42.65 41.76 0 75.6 -27.7 75.6 -61.85 -.02 -22.93 -15.26 -42.88 -37.89 -53.56 z"/><path d="m 579.97 557.55 c -25.97 -30.34 -77.37 -28.97 -114.8 3.06 -37.41 32.03 -46.69 82.59 -20.72 112.94 16.35 19.1 42.77 25.61 69.42 19.84 .1 -3.06 .55 -6.04 1.29 -8.97 -22.77 6.21 -45.76 1.99 -60.74 -13.5 -24.29 -25.05 -18.46 -70.06 12.96 -100.51 31.46 -30.45 76.63 -34.85 100.9 -9.79 19.09 19.72 19.5 51.75 3.52 79.35 4.22 -.87 8.57 -1.52 13.03 -1.87 14.17 -27.85 13.42 -59.21 -4.86 -80.55 z"/><path d="m 523.25 601.55 c -1.56 5.82 -5.02 10.56 -7.71 10.56 s -3.6 -4.74 -2.04 -10.56 c 1.56 -5.84 5.01 -10.59 7.71 -10.59 2.69 0 3.6 4.74 2.04 10.59 z"/><path d="m 528.1 616.81 c 4.29 2.92 6.14 7.18 4.17 9.52 -1.97 2.32 -7.04 1.87 -11.31 -1.07 -4.28 -2.91 -6.14 -7.18 -4.16 -9.5 1.95 -2.33 7.03 -1.84 11.3 1.05 z"/><path d="m 498.82 616.81 c -5.83 2.92 -9.98 7.18 -9.28 9.52 .74 2.32 6.04 1.87 11.9 -1.07 5.83 -2.91 9.98 -7.18 9.26 -9.5 -.72 -2.33 -6.03 -1.84 -11.88 1.05 z"/><path d="m 597.65 685.96 c -1.3 4.84 -4.14 8.75 -6.4 8.75 -2.22 0 -2.98 -3.91 -1.69 -8.75 1.3 -4.84 4.15 -8.76 6.4 -8.76 2.22 0 2.99 3.92 1.69 8.76 z"/><path d="m 601.67 698.62 c 3.54 2.42 5.09 5.95 3.44 7.87 -1.63 1.94 -5.83 1.55 -9.36 -.88 -3.55 -2.42 -5.1 -5.93 -3.45 -7.86 1.62 -1.92 5.84 -1.54 9.37 .87 z"/><path d="m 577.42 698.62 c -4.84 2.42 -8.27 5.95 -7.68 7.87 .61 1.94 5.01 1.55 9.85 -.88 4.81 -2.42 8.25 -5.93 7.65 -7.86 -.58 -1.92 -4.98 -1.54 -9.82 .87 z"/><path d="m 305.25 265.4 c -51.19 -73.54 -104.06 -157.07 -177.3 -211.01 -24.2 -17.82 -74.06 -34.18 -96.8 -3.7 -.07 .09 -.13 .18 -.19 .27 -12.33 16.78 -2.5 38.2 .31 57.33 12.2 83.04 62.04 151.37 125.91 204.88 77.82 88.36 139.73 188.99 212.52 281.27 21.12 26.78 43.02 54.33 66.46 80.6 -6.84 -13.52 -10.71 -28.82 -10.71 -45.02 0 -13.83 2.8 -27.01 7.9 -38.99 l -7.67 -8.88 c .06 -.23 .1 -.46 .13 -.69 3.55 4.44 6.13 7.68 7.57 9.48 15.21 -35.73 50.64 -60.8 91.94 -60.8 16.38 0 31.83 3.98 45.48 10.97 -85.58 -94.39 -192.5 -170.82 -265.55 -275.71 z"/></g></svg>