<svg enable-background="new 0 0 841.889 595.281" height="595.28" viewBox="0 0 841.89 595.28" width="841.89" xmlns="http://www.w3.org/2000/svg"><path d="m 379.28 148.82 c -66.4 0 -90.11 77.39 -130.96 77.39 v 154.77 c 23.81 47.62 65.22 65.48 107.15 65.48 h 95.24 c 16.49 0 29.77 -13.27 29.77 -29.76 0 -15.46 -11.74 -28.25 -26.79 -29.76 h 32.74 c 16.49 0 29.77 -13.28 29.77 -29.76 0 -15.46 -11.74 -28.25 -26.79 -29.77 h 32.74 c 16.49 0 29.77 -5.95 29.77 -29.76 0 -10.97 -8.79 -18.14 -17.71 -22.69 -10.52 -5.36 -21.23 -7.08 -18.01 -7.08 h 136.91 c 23.81 0 41.67 -11.91 41.67 -35.72 s -17.86 -35.72 -41.67 -35.72 c -8.29 -.13 -160.73 -.08 -142.87 -.08 0 -23.3 -16.43 -47.55 -47.62 -47.55 h -83.34 z m -232.16 47.62 v 214.3 h 89.29 v -29.76 -154.77 -29.76 h -89.29 z" fill="#fff"/></svg>