<svg enable-background="new 0 0 320 360" height="360" viewBox="0 0 320 360" width="320" xmlns="http://www.w3.org/2000/svg"><path d="m 214.81 245.44 c 0 24.82 1.17 42.58 3.53 53.27 0 2.14 -4.6 4.38 -13.8 6.74 -9.2 2.35 -17.12 3.53 -23.75 3.53 l -8.66 -.96 c -.86 -1.28 -1.28 -5.67 -1.28 -13.16 s .43 -23.64 1.28 -48.46 c -12.19 .64 -31.29 .96 -57.28 .96 -26 0 -39.42 -.43 -40.27 -1.28 -1.93 -1.93 -3.53 -5.08 -4.81 -9.47 -1.28 -4.38 -2.04 -8.29 -2.25 -11.71 l -.32 -4.81 c 0 -5.78 12.84 -28.13 38.51 -67.07 s 45.35 -65.89 59.05 -80.87 c 1.5 -1.49 5.67 -2.67 12.52 -3.53 6.84 -.85 13.58 -1.28 20.22 -1.28 6.63 0 9.95 .96 9.95 2.89 0 .43 -.11 .75 -.32 .96 -13.27 15.19 -19.9 23.64 -19.9 25.35 19.26 .43 28.88 2.04 28.88 4.81 -1.07 32.3 -1.6 64.93 -1.6 97.87 v 12.2 c 10.69 0 17.27 -.27 19.73 -.8 s 3.69 -.16 3.69 1.12 c 0 5.99 -1.56 12.52 -4.65 19.58 -3.1 7.06 -5.51 11.45 -7.22 13.16 -.24 .21 -3.98 .53 -11.25 .96 z m -76.06 -33.05 l 34.66 -.32 c 1.49 -35.94 2.25 -61.13 2.25 -75.57 s -.32 -21.66 -.96 -21.66 c -4.71 4.71 -15.83 20.49 -33.37 47.33 -17.54 26.85 -26.31 43.06 -26.31 48.62 -.02 1.06 7.9 1.6 23.73 1.6 z" fill="#fff"/></svg>