<svg enable-background="new 0 0 100 100" viewBox="0 0 100 100" xmlns="http://www.w3.org/2000/svg"><path d="m 35.96 44.17 c -.2 -.72 -.32 -1.4 -.32 -2.09 0 -.68 .21 -1.29 .18 -1.87 -2.34 2.24 -4.72 3.34 -7.17 3.11 -1.42 -.13 -2.56 -1.07 -3.75 -1.88 -.72 -.49 -1.57 -.88 -2.3 -1.42 -.79 -.58 -1.7 -1.07 -2.26 -1.63 -.41 -.42 -1.08 -1.37 -.58 -1.74 .49 -.37 .87 .25 1.23 .6 .64 .63 1.71 1.28 2.51 1.46 .47 -.66 -.14 -1.42 -.71 -2.14 -1.04 -1.3 -2.14 -2.34 -3.21 -3.85 -.47 -.66 -1.21 -1.84 -.74 -2.18 .48 -.35 1.1 .63 1.39 1.03 1.28 1.76 2.48 3.4 3.91 4.19 .57 -.64 -.09 -1.41 -.5 -2.28 -.31 -.66 -.45 -1.5 -.71 -2.32 -.15 -.48 -.73 -1.85 -.19 -2.16 .56 -.32 .94 .68 1.15 1.13 .27 .58 .55 1.21 .73 1.7 .42 1.14 .68 2.44 1.51 3.19 .49 -.67 .61 -1.42 .57 -2.3 -.02 -.58 -.48 -2.17 .53 -2.27 .54 -.05 .71 .98 .78 1.31 .28 1.28 -.27 2.48 .11 3.73 1.33 -.37 1.03 -2.19 2.58 -2.75 .56 .08 .83 .85 .64 1.28 -1.44 1.02 -1.21 2.41 -1.77 3.62 .09 .56 .04 1.09 .51 1.73 .16 .06 .32 .09 .49 .11 1.02 -.81 1.61 -2 2.76 -2.93 1.33 -1.07 3.83 -2.13 5.01 -1.42 1.21 .73 1.78 3.24 2.67 4.62 1.72 -2.5 3.76 -5.67 6.44 -8.2 2.45 -2.32 6.13 -4.78 9.08 -5.13 .31 -1.54 -1.74 -2.91 -2.21 -4.37 -.13 -.41 -.12 -1.06 -.15 -1.54 -.09 -1.78 .38 -3.31 1.9 -4.73 -.12 -1 .62 -2.29 -.1 -3.62 -.1 -.19 -.33 -.35 -.43 -.57 -.15 -.32 -.16 -.89 -.24 -1.41 -.07 -.41 -.3 -1.13 .06 -1.31 .66 -.33 1.06 1.26 1.21 1.69 1.31 .45 1.16 -1.18 1.3 -2.11 .09 -.59 .35 -1.11 .48 -1.7 .16 -.75 -.11 -1.75 .6 -2.26 .91 .45 1.13 1.65 1.06 2.4 -.09 .93 -.97 1.89 -.47 2.84 1.4 -.69 1.06 -2.07 2.43 -2.89 1.03 .55 .35 1.66 -.14 2.51 -.27 .46 -1.23 1.53 -.61 1.96 .48 .33 2.08 -1.21 2.88 -1.43 .55 -.15 .92 -.05 1.3 .43 -.09 .74 -1.06 .8 -1.71 1.1 -.42 .19 -.91 .52 -1.24 .8 -.31 .26 -.9 .96 -.67 1.4 .62 1.18 2.36 -.69 3.05 .69 -1.64 .75 -3.49 .49 -5.11 1.36 -.26 .14 -.64 .33 -.9 .58 -.46 .45 -.66 1.69 -.8 2.33 -.18 .87 -.22 1.61 -.19 2.42 1.46 1.05 3.25 2.25 4.23 4.4 1.54 -.33 3.25 .89 4.75 -.88 -.51 -2.42 1.01 -4.35 3.85 -5.93 1 -.55 1.87 -.76 2.77 -.76 .26 0 .53 .1 .83 .07 .7 -.08 1.22 -.32 1.93 -.28 .66 .04 1.22 .07 1.89 -.07 2.14 -.45 5.05 -1.03 6.57 1.39 .39 .62 .78 1.67 .88 2.39 .22 1.63 -.52 2.77 -1.7 4.11 -.6 .68 -1.4 1.14 -2.11 1.78 -.43 .39 -.7 .97 -1.12 1.45 -.37 .43 -.87 .66 -1.3 1.08 -.45 .43 -.68 .97 -1.18 1.36 -.63 .5 -1.38 .83 -2.14 1.08 -2.41 .79 -4.55 1.33 -6.28 -1.03 -2.45 1 -1.75 3.29 -2.74 4.85 1.55 1.43 2.38 3.8 2.72 5.44 1.48 .68 3.09 .77 4.72 .76 .89 -.52 1.46 -1.21 1.92 -1.9 .44 -.67 .92 -1.37 1.22 -2.05 .19 -.43 .06 -1.15 .75 -1.27 .65 .39 .53 .85 .32 1.43 -.24 .63 -1.06 1.15 -.63 1.74 .6 .82 1.5 -.46 2.03 -.88 .3 -.24 .64 -.34 .93 -.53 .5 -.33 .84 -.9 1.37 -.88 1.01 1.54 -1.38 2.35 -2.29 3.47 .68 .58 1.61 .36 2.53 .18 .94 -.19 2.24 -.35 2.08 1.07 -1.28 .7 -2.43 -.09 -3.68 1.04 .97 .86 2.49 .37 3.58 .77 .31 .12 1.02 .5 1.06 .89 .09 .89 -1.54 .61 -1.88 .55 -.72 -.13 -1.35 -.07 -2.05 -.19 -.78 -.13 -2.38 -.92 -2.53 .48 .54 .41 1.53 1.12 1.35 1.91 -.59 .39 -.94 -.15 -1.46 -.57 -.38 -.31 -.92 -.43 -1.17 -.69 -.21 -.22 -.33 -.65 -.58 -.9 -.72 -.72 -2.3 -.47 -3.13 -1.01 -1.32 .64 -2.56 .92 -3.78 .69 -1.06 -.2 -2.42 -.5 -3.29 -1.63 -.98 -1.27 -1.82 -3.02 -3.17 -3.04 -1.43 2.41 -3.85 4.83 -6.88 6.67 -3.02 1.83 -6.17 2.51 -8.79 2.76 2.02 1.54 3.94 4.9 3.32 6.92 -1.04 2.01 -5.03 3.5 -7.24 4.6 -.23 1.37 1.39 1.66 2.28 1.67 1.2 .02 2.39 -.63 3.19 -.3 .54 .23 .99 1.01 .54 1.4 -.91 .81 -2.26 -.88 -2.81 .6 .54 .6 1.35 .89 2.01 1.43 .63 .52 1.42 1.06 1.69 1.87 -.84 .86 -1.43 -.15 -2.19 -.77 -.25 -.2 -1.94 -1.34 -2.16 -.72 -.14 .42 .47 .54 .75 .79 .63 .56 1.2 1.4 1.87 2.24 .48 .61 1.76 1.96 1.54 2.39 -.46 .89 -1.33 -.37 -1.89 -.96 -.29 -.31 -.6 -.59 -.92 -.86 -.82 -.72 -1.55 -1.61 -2.48 -1.97 .01 1.3 .88 3.27 1.69 4.77 .29 .55 .86 1.33 .35 1.77 -.31 .27 -.99 .04 -1.26 -.27 -.36 -.43 -.3 -.84 -.43 -1.23 -.59 -1.73 -1.55 -3.82 -2.71 -5.32 -1.11 .75 1.34 2.65 .61 3.47 -1.04 1.16 -1.78 -1.56 -1.99 -2.16 -.35 -.99 -.57 -1.75 -.55 -2.54 -.57 -1.46 -.87 -2.81 -.95 -4.1 -.15 -2.48 2.45 -5.09 5.42 -6.87 -1.28 -.73 -2.49 -1.72 -3.63 -3.1 -2.41 2 -4.58 2.37 -7.26 2.51 -1.93 .1 -3.96 .48 -5.68 .94 -4.82 1.29 -9.55 4.22 -10.49 8.94 -.33 1.66 -.14 3.47 .01 5.37 .2 2.49 1.19 4.96 3.07 7.86 .1 .2 .17 -.02 .02 -.07 .19 .07 1.09 1.46 1.24 1.74 5.33 5.91 11.55 8.24 18.14 8.55 .16 .01 .51 -.1 .46 .06 -5.69 .77 -11.01 -.8 -15.9 -4.14 -2.32 -1.59 -4.91 -3.75 -7.04 -6.34 -2.23 -2.71 -3.93 -6.06 -4.63 -9.16 -1.35 -5.92 -1.44 -11.57 4.7 -15.77 3.08 -2.11 6.22 -3.02 9.17 -3.67 3.06 -.67 6.25 -3.14 7.87 -5.71 z" fill="#fff"/></svg>