<svg enable-background="new 0 0 27.2916279 31.2723217" viewBox="0 0 27.29 31.27" xmlns="http://www.w3.org/2000/svg"><path d="m 23 1.15 s .34 -.65 .46 -.89 .31 .12 .43 .12 .29 .14 .51 -.14 c .22 -.29 .56 -.27 .56 -.14 s .31 .34 .31 .34 .53 -.19 .6 -.02 -.1 .58 .07 .58 .56 -.24 .56 .1 -.24 .65 .02 .65 c .27 0 .7 .14 .53 .41 -.17 .26 -.1 .48 -.1 .75 s .02 .51 .02 .51 .39 .43 .31 1.18 c 0 0 -.46 -.36 -1.13 -.31 0 0 -.02 .43 -.12 .84 s -.22 .53 -.41 .58 -.53 .24 -.68 .17 -.41 1.83 -.36 3.59 .6 4.31 .51 5.93 c -.1 1.61 -.65 4.22 -3.33 5.88 -2.67 1.66 -5.71 3.88 -6.27 4.15 -.56 .26 -.65 .34 -.65 .34 s .02 2.29 .46 2.51 1.4 -.26 1.74 -.43 1.03 -.07 1.03 .31 c 0 0 -.46 -.22 -.48 .07 s -.89 .19 -.89 .19 -.72 .36 -.48 .36 2.07 -.1 2.51 .02 .75 .53 .56 1.1 c 0 0 -.19 -.63 -.63 -.48 -.43 .15 -.84 .1 -1.35 -.02 s -1.52 -.34 -1.37 -.17 .31 .41 .82 .73 c .51 .31 .87 .94 .31 1.35 0 0 0 -.72 -.24 -.63 s -.6 -.07 -.87 -.39 c -.27 -.31 -.6 -.58 -1.08 -.65 s -.6 -.75 -.65 -.82 -.63 .1 -.7 .34 -.34 .34 -.19 .68 c 0 0 -.29 -.27 -.15 -.6 .15 -.34 .58 -.63 .82 -.82 s 0 -.41 0 -.84 -.17 -1.69 -.17 -1.69 -1.52 -.19 -1.81 -.48 c 0 0 -.1 .7 -.19 1.18 -.1 .48 -.41 1.4 -.63 1.61 -.22 .22 -.6 1.08 -.58 1.4 s -.27 1.28 -1.35 1.13 c 0 0 .53 -.24 .51 -.46 s -.31 -.58 .12 -1.04 .89 -1.13 .68 -1.06 c -.22 .07 -.53 .6 -1.18 .63 -.66 -.01 -.95 -.4 -.88 -.61 0 0 .31 .39 .58 .24 s .12 -.63 .55 -.65 .84 0 1.16 -.41 c .31 -.41 -.22 -.46 -.53 -.46 s -.75 -.24 -.89 .19 c 0 0 -.02 -.36 .31 -.46 .34 -.1 1.06 -.05 1.13 -.29 s .19 -1.33 .19 -1.33 -2.37 -.5 -4.17 -2.82 c -1.08 -1.4 -1.06 -2.97 -1.06 -2.97 s -3.57 -1.9 -3.78 -4.85 l .87 .24 s -2.75 -2.31 -2.89 -4.6 l 1.01 .34 s -.92 -.24 -.94 -1.93 c 0 0 1.3 .05 1.78 .89 0 0 -1.54 -.89 -.92 -2.75 0 0 1.78 .89 2.03 1.71 0 0 -.55 -.12 -.6 -1.78 0 0 3.56 .36 5.71 3.42 0 0 1.8 0 3.12 .29 s 4.95 .8 6.4 -1.19 c 1.44 -1.98 1.91 -7.12 5.41 -7.87 z" fill="#fff"/></svg>