<svg enable-background="new 0 0 244.4 281.3" viewBox="0 0 244.4 281.3" xmlns="http://www.w3.org/2000/svg"><g fill="#fff"><path d="m 109.5 273.3 s -11.2 -.4 -14 -.1 -18 4.1 -18 4.1 c -1.1 .1 -1.9 1.1 -1.8 2.2 s 1.1 1.9 2.2 1.8 h 31.5 c 2.2 0 4 -1.8 4 -4 s -1.8 -4 -3.9 -4 z"/><path d="m 164.5 277.3 s -15.2 -3.8 -18 -4.1 -14 .1 -14 .1 c -2.2 0 -4 1.8 -4 4 s 1.8 4 4 4 h 31.5 c 1.1 .1 2.1 -.7 2.2 -1.8 .1 -1.2 -.7 -2.2 -1.7 -2.2 z"/><path d="m 132.9 268 h 10.1 c 1.1 0 2 -.9 2 -2 l 2 -122.7 c 0 -1.1 -.9 -2 -2 -2 h -48.1 c -1 .1 -1.9 1 -1.8 2 l 1.9 122.7 c 0 1.1 .9 2 2 2 h 10.2 c 1.1 0 1.9 -.8 2 -1.9 l 6.7 -95.8 c .1 -1 .9 -1.9 2 -1.9 h 2.3 c 1.1 0 1.9 .8 2 1.9 l 6.8 95.8 c .1 1.1 .9 1.9 1.9 1.9 z"/><path d="m 85.7 90.1 l -15.8 -5.5 c -.8 -.3 -1.7 0 -2.1 .8 l -10.1 13.2 c -.4 .8 -1.4 1.1 -2.2 .8 l -31 -9.8 c -.6 -.1 -1.1 -.5 -1.3 -1.1 -.2 -.7 -.7 -1.3 -1.4 -1.7 -1.5 -1.1 -9.5 -2.8 -9.4 -1.3 0 .6 2.1 2 3.7 2.8 .1 .1 .2 .3 -.1 .3 -1.4 .1 -2.8 .1 -4.2 -.2 -5.2 -1.1 -9 -3.1 -10.8 -3.2 -.5 -.1 -.9 .3 -.9 .7 0 .2 0 .4 .1 .6 1.1 1.6 2.4 3 3.9 4.3 1.7 1.5 6.7 2.5 9.7 3.3 3.6 1 7.1 1.7 7.9 1.9 .1 0 .2 .1 .3 .1 l 35 19.4 c 1 .6 2.3 .5 3.1 -.3 l 26.2 -22.2 c .7 -.7 .8 -1.8 .1 -2.5 -.2 -.2 -.4 -.3 -.7 -.4 z"/><path d="m 69.7 75.9 l 21.9 11.1 c .9 .3 1.6 1.2 1.6 2.2 l .4 45.1 c .1 1.1 .9 1.9 2 2 h 50.7 c 1.1 -.1 1.9 -.9 2 -2 l .4 -45.1 c 0 -1 .7 -1.9 1.6 -2.2 l 21.9 -11.1 c .9 -.5 1.3 -1.7 .8 -2.6 -.1 -.1 -.2 -.3 -.3 -.4 -3.2 -3.5 -11.4 -11.7 -15.2 -14.8 -1 -.8 -2.3 -1.3 -3.6 -1.2 l -16.4 .1 c -.4 -.1 -1.1 .3 -.9 .7 2.7 6.1 -1.7 18.2 -15.6 18.4 -13.9 -.2 -18.3 -12.4 -15.6 -18.4 .2 -.4 -.5 -.8 -.9 -.7 l -16.4 -.1 c -1.3 0 -2.6 .4 -3.6 1.2 -5.3 4.7 -10.4 9.6 -15.3 14.8 -.7 .8 -.7 2 .1 2.7 .1 .1 .3 .2 .4 .3 z"/><path d="m 89.2 152.7 c -2.3 .9 -10.3 6.6 -11.6 10.1 -1.4 3.9 8.4 5.3 11.8 5.5 .5 0 .9 -.2 .9 -.7 v -14.4 c -.1 -.4 -.6 -.7 -1.1 -.5 z"/><path d="m 151.7 153.3 v 14.4 c 0 .5 .4 .7 .9 .7 3.4 -.2 13.2 -1.6 11.8 -5.5 -1.3 -3.5 -9.3 -9.2 -11.6 -10.1 -.6 -.3 -1.1 0 -1.1 .5 z"/><path d="m 99.8 41 h .9 c .7 0 1.3 .6 1.3 1.4 0 7.9 5 11.8 10 16.7 .2 .2 .4 .4 .6 .6 l 1.7 1.6 c .4 .4 .4 1 0 1.4 -.2 .2 -.4 .3 -.7 .3 h -1.7 c -.3 0 -.6 .2 -.6 .6 v .1 c 1.5 5.3 7 8.4 12.3 6.9 3.4 -.9 6 -3.6 6.9 -6.9 .1 -.3 -.1 -.6 -.4 -.7 h -.1 -1.7 c -.6 0 -1 -.4 -1 -1 0 -.3 .1 -.5 .3 -.7 l 1.7 -1.7 c .2 -.2 .4 -.4 .6 -.6 5 -4.9 10 -8.8 10 -16.7 0 -.7 .6 -1.3 1.4 -1.3 h .9 c 1 0 1.9 -.7 2 -1.7 l 1.2 -9 c .1 -.6 -.3 -1.1 -.9 -1.2 -.4 0 -.8 .1 -1 .4 -.4 .6 -1.3 .8 -1.9 .3 -.3 -.2 -.5 -.6 -.6 -.9 l 2.7 -12.9 c .6 -2.7 -1.2 -5.3 -3.9 -5.9 -.3 -.1 -.7 -.1 -1 -.1 h -2.8 l 4 -4 c 0 -3.3 -2.7 -6 -6 -6 h -20 c -5.5 0 -10 4.5 -10 10 h -.8 c -2.8 0 -5 2.2 -5 5 0 .3 0 .7 .1 1 l 2.7 13 c -.2 .7 -.9 1.2 -1.6 1 -.3 -.1 -.6 -.3 -.8 -.5 -.3 -.5 -1 -.7 -1.5 -.4 -.4 .2 -.6 .7 -.5 1.2 l 1.2 9 c .1 1 1 1.7 2 1.7 z m 21.2 6 c 3.8 0 6.9 1.1 6.9 2.5 s -3.1 2.5 -6.9 2.5 -6.9 -1.1 -6.9 -2.5 3.1 -2.5 6.9 -2.5 z"/><path d="m 242.8 81.3 l -3.1 1 -7.8 5 c -.1 .1 -.3 0 -.4 -.1 s 0 -.3 .1 -.3 l 12.3 -8 c .5 -.3 .7 -1 .4 -1.6 0 0 0 0 0 -.1 -.3 -.5 -1 -.6 -1.5 -.4 l -8.4 4.1 -.6 .8 c -.1 .1 -.2 .1 -.3 .1 -.1 -.1 -.1 -.2 -.1 -.3 l .3 -.8 c .2 -.7 .1 -1.4 -.4 -2 l -4.8 -5.7 c -.3 -.4 -.8 -.5 -1.3 -.4 -.6 .2 -1 .8 -.8 1.5 v .1 c -.8 -1.1 -2.3 -1.4 -3.4 -.7 -1 .7 -1.4 2.1 -.8 3.2 v .1 c -.6 -.7 -1.6 -.8 -2.3 -.2 -.3 .3 -.5 .6 -.6 1 l -1.8 11.6 -.5 .5 -30.5 9.6 c -.8 .3 -1.8 -.1 -2.2 -.8 l -10.1 -13.2 c -.4 -.7 -1.3 -1.1 -2.1 -.8 l -15.8 5.5 c -.9 .3 -1.4 1.3 -1.1 2.2 .1 .3 .3 .6 .5 .8 l 26.2 22.2 c .9 .8 2.1 .9 3.1 .3 l 35.1 -19.5 22.2 -7.4 c .6 -.1 .9 -.6 .9 -1.2 -.1 -.6 -.6 -1.1 -1.2 -1 0 0 0 0 -.1 0 l -4.6 .6 -5.5 2.7 c -.1 .1 -.3 0 -.4 -.1 s 0 -.3 .1 -.4 l 12.1 -5.9 c .5 -.3 .6 -1 .3 -1.5 -.2 -.4 -.6 -.6 -1.1 -.5 z m -15.1 .4 l -3.6 1.7 c -.1 0 -.1 .1 -.1 .2 s .1 .2 .2 .2 l .6 .2 c .2 .1 .4 .3 .3 .5 s -.3 .4 -.5 .3 l -.6 -.2 c -.9 -.3 -1.4 -1.1 -1.4 -2 l .1 -4.9 c 0 -.2 -.1 -.5 -.2 -.7 .8 1.1 2.4 1.3 3.5 .4 .8 -.6 1.1 -1.6 .9 -2.6 l 1.9 3.9 c .4 1.2 0 2.4 -1.1 3 z"/></g></svg>