<svg viewBox="0 0 300 300" xmlns="http://www.w3.org/2000/svg"><g fill="#fff"><path d="m 181.48 67.66 l -14.1 -17.85 c -5.85 -7.41 -8.53 -9.81 -15.38 -12.81 -5.25 -2.24 -15.49 -7.16 -19.93 -9.31 2.78 5.62 -4.2 17.65 -17.34 31.22 5.06 -3.28 10.87 -6 16.82 -5.18 9.63 1.36 18 7.39 24.93 14.6 5.56 5.78 14 17 18.6 23.22 -.64 -10.77 1.92 -18.55 6.4 -23.89 z" opacity=".6"/><path d="m 288.53 203.25 l -43.88 -55.57 c -9 -3.44 -16.67 -1.5 -19.66 7.51 6.67 8.37 12.26 15.37 15.26 19.11 5.23 6.54 10.32 13.23 15.68 19.66 4.41 5.28 9.11 10.36 13.15 15.92 6.91 9.5 10.49 18.93 9.42 30.24 -.13 1.43 -.33 2.87 -.55 4.31 1.29 -1.61 2.51 -3.24 3.66 -4.87 l .52 -.74 c .29 -.42 .58 -.85 .86 -1.28 s .65 -1 1 -1.5 l .67 -1.1 q .54 -.91 1.05 -1.83 l .39 -.73 c .42 -.78 .82 -1.56 1.18 -2.35 6.47 -13.89 5.78 -21.03 1.25 -26.78 z" opacity=".6"/><path d="m 129.65 27.32 c -3.44 -4.35 -22.79 3.42 -51.89 26.39 s -41.16 40 -37.76 44.35 a 3.18 3.18 0 0 0 1.8 1.09 .52 .52 0 0 0 .48 -.1 .53 .53 0 0 0 .2 -.45 c -.09 -6.47 16.22 -24.28 38 -41.44 s 42.84 -28.89 49.11 -27.29 a 1.09 1.09 0 0 0 .49 -.1 .57 .57 0 0 0 .21 -.45 3.23 3.23 0 0 0 -.64 -2 z" opacity=".6"/><path d="m 244.65 147.68 l -63.17 -80 c -4.45 5.36 -7 13.12 -6.36 23.92 1.91 2.59 3.15 4.33 3.23 4.42 7.12 9.46 30.18 38.53 46.64 59.19 3.01 -9.03 10.67 -10.97 19.66 -7.53 z" opacity=".8"/><path d="m 145.22 257.85 l -.33 -.42 c -5.38 -12.35 -11.94 -31.26 -13.77 -45.81 -3 -24.19 1.77 -44.92 28.14 -54.05 23.56 -8.53 30.78 -14.63 20.82 -43.44 a 86.27 86.27 0 0 1 -5 -22.46 c -5.91 -8 -11.69 -16.12 -18.61 -23.31 s -15.3 -13.24 -24.93 -14.6 c -6 -.84 -11.76 1.9 -16.82 5.18 q -2.08 2.14 -4.36 4.34 l -.06 .06 -2.13 2 -.52 .48 -1.76 1.61 -.72 .64 c -.54 .48 -1.09 1 -1.65 1.45 l -.83 .72 c -.54 .47 -1.08 .94 -1.63 1.4 l -.88 .75 -1.76 1.46 -.8 .65 -2.61 2.1 c -.75 .59 -1.49 1.17 -2.24 1.74 l -.7 .53 -1.56 1.19 -.77 .57 -1.56 1.15 -.69 .5 -2.18 1.56 -.25 .17 c -.64 .45 -1.28 .9 -1.92 1.33 l -.78 .53 q -.69 .48 -1.38 .93 l -.87 .57 c -.44 .3 -.88 .58 -1.33 .87 l -.82 .53 -1.82 1.23 -.82 .5 -1.32 .78 -1 .57 -1 .61 -1 .59 -1 .53 -1 .59 -.79 .42 c -.72 .39 -1.43 .77 -2.14 1.13 l -.64 .33 -1.19 .59 -.62 .31 -1.2 .57 -.48 .22 q -2.19 1 -4.23 1.84 h -.11 c -.45 .18 -.88 .35 -1.32 .51 l -.25 .09 c -.44 .17 -.87 .33 -1.3 .47 a 46.55 46.55 0 0 1 -5.23 1.51 21.99 21.99 0 0 1 -6.06 .6 h -.43 a 7.66 7.66 0 0 1 -3.5 -1.12 c 1.15 5.25 3.42 15.73 4.32 21 1.26 7.3 3 10.48 8.86 17.88 z" opacity=".8"/><path d="m 269.08 209.88 c -4 -5.56 -8.74 -10.64 -13.15 -15.92 -5.36 -6.43 -10.45 -13.12 -15.68 -19.66 -3 -3.74 -8.59 -10.74 -15.26 -19.11 -1.34 4.05 -1.73 9.51 -.88 16.56 3.07 25.39 12.62 49.28 -7.22 68.87 s -44.63 -1 -54.35 8.15 c -6.15 5.81 -3.52 20.75 -.36 30.57 l -.4 -.51 s 7.36 9.36 11.89 15.1 12.18 8.2 26.81 3.86 37.72 -18 46.24 -24.67 l 5.6 -4.43 a 143.47 143.47 0 0 0 25.68 -24.28 c .22 -1.43 .42 -2.86 .55 -4.29 1.02 -11.31 -2.55 -20.74 -9.47 -30.24 z" opacity=".8"/><path d="m 131.57 26.84 c -5.71 -7.23 -30.69 3.3 -56.87 24 s -42.23 42.5 -36.52 49.74 30.7 -3.3 56.88 -24 42.22 -42.5 36.51 -49.74 z m -53.67 51.21 c -8.94 6.51 -17.44 10.08 -19 8 s 4.48 -9.09 13.43 -15.6 17.44 -10.08 19 -8 -4.48 9.1 -13.43 15.6 z m 52.18 -48.28 a .57 .57 0 0 1 -.49 .1 c -6.27 -1.6 -27.38 10.14 -49.11 27.29 s -38 35 -37.95 41.44 a .53 .53 0 0 1 -.2 .45 .52 .52 0 0 1 -.48 .1 3.18 3.18 0 0 1 -1.85 -1.09 c -3.44 -4.35 8.62 -21.37 37.72 -44.35 s 48.49 -30.71 51.93 -26.39 a 3.23 3.23 0 0 1 .64 2 .57 .57 0 0 1 -.21 .45 z"/><path d="m 22.89 39.84 c 2.03 0 3.68 1.65 3.68 3.68 s -1.65 3.68 -3.68 3.68 -3.68 -1.65 -3.68 -3.68 1.65 -3.68 3.68 -3.68 z"/><path d="m 11.65 0 c 2.03 0 3.68 1.65 3.68 3.68 s -1.65 3.68 -3.68 3.68 -3.68 -1.65 -3.68 -3.68 1.65 -3.68 3.68 -3.68 z"/><path d="m 53.7 50.48 c 2.03 0 3.68 1.65 3.68 3.68 s -1.65 3.68 -3.68 3.68 -3.68 -1.65 -3.68 -3.68 1.65 -3.68 3.68 -3.68 z"/><path d="m 62.09 11.11 c 5.24 0 9.48 4.24 9.48 9.48 s -4.24 9.48 -9.48 9.48 -9.48 -4.24 -9.48 -9.48 4.24 -9.48 9.48 -9.48 z"/><path d="m 37.99 7.36 c 3.7 0 6.7 3 6.7 6.7 s -3 6.7 -6.7 6.7 -6.7 -3 -6.7 -6.7 3 -6.7 6.7 -6.7 z"/><path d="m 31.45 59.31 c 3.7 0 6.7 3 6.7 6.7 s -3 6.7 -6.7 6.7 -6.7 -3 -6.7 -6.7 3 -6.7 6.7 -6.7 z"/><path d="m 175.12 91.58 a 85.91 85.91 0 0 0 5 22.55 c 10 28.81 2.74 34.91 -20.82 43.44 -26.37 9.13 -31.18 29.86 -28.14 54.05 1.83 14.55 8.39 33.46 13.77 45.81 l 17.29 21.91 c -3.16 -9.82 -5.79 -24.76 .36 -30.57 9.72 -9.19 34.5 11.45 54.35 -8.15 s 10.29 -43.48 7.22 -68.87 c -.85 -7.05 -.46 -12.51 .88 -16.56 -16.46 -20.66 -39.52 -49.73 -46.64 -59.19 -.12 -.09 -1.39 -1.83 -3.27 -4.42 z"/></g></svg>