<svg enable-background="new 0 0 231.3 285" viewBox="0 0 231.3 285" xmlns="http://www.w3.org/2000/svg"><g fill="#fff"><path d="m 230.4 231.6 c -1.7 .1 -3.9 2.1 -9.1 3.2 -1.4 .3 -2.7 .4 -4.1 .2 -.2 0 -.2 -.2 -.1 -.3 1.5 -.7 3.6 -2.2 3.6 -2.8 0 -1.4 -7.8 .2 -9.2 1.3 -.6 .4 -1.1 1 -1.4 1.7 -.2 .6 -.7 1 -1.3 1.1 l -30.4 9.6 c -.8 .3 -1.7 -.1 -2.2 -.8 l -10 -13 c -.4 -.7 -1.3 -1 -2.1 -.8 l -15.5 5.4 c -.9 .3 -1.4 1.3 -1.1 2.2 .1 .3 .2 .5 .5 .7 l 25.7 21.8 c .8 .8 2.1 .9 3.1 .3 l 34.5 -19.1 c .1 0 .2 -.1 .3 -.1 .7 -.2 4.1 -.9 7.7 -1.9 3 -.8 6.4 -1.8 8 -3.2 1.5 -1.2 2.8 -2.7 3.9 -4.2 .2 -.4 .1 -.9 -.3 -1.1 -.2 -.1 -.3 -.2 -.5 -.2 z"/><path d="m 164.8 219.6 c -3.2 -3.5 -11.2 -11.5 -14.9 -14.5 -1 -.8 -2.3 -1.2 -3.6 -1.2 l -16.1 .1 c -.4 -.1 -1.1 .3 -.9 .7 2.7 5.9 -1.6 17.8 -15.3 18.1 -13.6 -.2 -17.9 -12.1 -15.3 -18.1 .2 -.4 -.5 -.7 -.9 -.7 l -16.1 -.1 c -1.3 0 -2.6 .4 -3.6 1.2 -5.2 4.6 -10.2 9.4 -14.9 14.5 -.8 .9 -.6 2.3 .5 3.6 l 21.5 10.9 c 1.1 .6 1.6 .5 1.6 1.5 l .4 47.5 c .1 1.1 .9 1.9 2 2 h 49.8 c 1.1 -.1 1.9 -.9 2 -2 l .4 -47.5 c 0 -1 .6 -1.8 1.6 -2.1 l 21.5 -10.9 c .9 -.5 1.2 -1.7 .6 -2.6 -.1 -.2 -.2 -.3 -.3 -.4 z"/><path d="m 122.2 206.6 l .6 -.6 c 4.9 -4.8 9.8 -8.7 9.8 -16.4 0 -.7 .6 -1.3 1.3 -1.3 h .9 c 1 0 1.8 -.7 1.9 -1.7 l 1.2 -8.8 c .1 -.6 -.3 -1.1 -.9 -1.2 -.4 -.1 -.8 .1 -1 .4 -.4 .6 -1.3 .7 -1.9 .3 -.3 -.2 -.5 -.5 -.5 -.9 l 2.7 -12.6 c .6 -2.7 -1.1 -5.3 -3.8 -5.8 -.3 -.1 -.7 -.1 -1 -.1 h -2.8 l 3.9 -3.9 c 0 -3.3 -2.6 -5.9 -5.9 -5.9 h -19.6 c -5.4 0 -9.8 4.4 -9.8 9.8 h -.8 c -2.7 0 -4.9 2.2 -4.9 4.9 0 .3 0 .7 .1 1 l 2.7 12.7 c -.2 .7 -1 1.1 -1.7 .9 -.3 -.1 -.5 -.2 -.7 -.5 -.3 -.5 -1 -.6 -1.5 -.2 -.3 .2 -.5 .6 -.4 1 l 1.2 8.8 c .1 1 1 1.7 2 1.7 h .7 c .7 0 1.3 .6 1.3 1.3 0 7.7 4.9 11.6 9.8 16.4 l .6 .6 1.6 1.6 c .4 .4 .4 1 -.1 1.4 -.2 .2 -.4 .3 -.6 .3 h -1.6 c -.3 0 -.6 .2 -.6 .5 v .1 c 1.5 5.2 6.9 8.3 12.1 6.8 3.3 -.9 5.9 -3.5 6.8 -6.8 .1 -.3 -.1 -.6 -.4 -.7 h -.1 -1.6 c -.6 0 -1 -.5 -1 -1 0 -.2 .1 -.5 .3 -.6 z m -8.2 -7.5 c -3.7 0 -6.8 -1.1 -6.8 -2.4 s 3 -2.4 6.8 -2.4 6.8 1.1 6.8 2.4 -3.1 2.4 -6.8 2.4 z"/><path d="m 78.8 239.1 l -9.5 -4.4 c -.9 -.3 -1.9 .2 -2.2 1.1 -.1 .3 -.1 .5 -.1 .8 l 3.6 43.5 c .1 1 1 1.9 2 1.9 h 7.4 v -41 c .1 -.8 -.4 -1.6 -1.2 -1.9 z"/><path d="m 70.7 48.2 l -1.1 -1.2 c .1 -.2 .2 -.5 .3 -.7 h 1.5 c .6 0 1.2 -.5 1.2 -1.2 v -2.4 c 0 -.6 -.5 -1.2 -1.1 -1.2 h -1.5 c -.1 -.2 -.2 -.5 -.3 -.7 l 1.1 -1.1 c .4 -.5 .4 -1.2 0 -1.7 l -1.8 -1.6 c -.4 -.4 -1.1 -.5 -1.6 -.1 0 0 0 0 -.1 .1 l -1.1 1.1 c -.2 -.1 -.4 -.2 -.7 -.3 v -1.6 c 0 -.6 -.5 -1.2 -1.1 -1.2 h -2.2 c -.6 0 -1.2 .5 -1.2 1.2 v 1.6 c -.2 .1 -.5 .2 -.7 .3 l -1.1 -1.1 c -.4 -.4 -1.1 -.5 -1.6 -.1 0 0 0 0 -.1 .1 l -1.6 1.7 c -.4 .5 -.4 1.2 0 1.7 l 1.1 1.1 c -.1 .2 -.2 .5 -.3 .7 h -1.5 c -.6 0 -1.2 .5 -1.2 1.2 v 2.4 c 0 .6 .5 1.2 1.1 1.2 h 1.5 c .1 .2 .2 .5 .3 .7 l -1.1 1.1 c -.4 .5 -.4 1.2 0 1.7 l 1.6 1.7 c .4 .4 1.1 .5 1.6 .1 0 0 0 0 .1 -.1 l 1.1 -1.1 c .2 .1 .4 .2 .7 .3 v 1.6 c 0 .6 .5 1.2 1.1 1.2 h 2.3 c .6 0 1.2 -.5 1.2 -1.2 v -1.6 c .2 -.1 .5 -.2 .7 -.3 l 1.1 1.1 c .4 .4 1.1 .5 1.6 .1 0 0 0 0 .1 -.1 l 1.6 -1.7 c .5 -.5 .5 -1.2 .1 -1.7 z m -7.3 -1.9 c -1.3 .1 -2.4 -1 -2.5 -2.3 s 1 -2.4 2.3 -2.5 2.4 1 2.5 2.3 v .1 c 0 1.4 -1.1 2.4 -2.3 2.4 z"/><path d="m 86.7 51.1 h -1.5 c -.1 -.2 -.2 -.5 -.3 -.7 l 1.1 -1.1 c .4 -.5 .4 -1.2 0 -1.7 l -1.6 -1.7 c -.4 -.4 -1.1 -.5 -1.6 -.1 0 0 0 0 -.1 .1 l -1.1 1.1 c -.2 -.1 -.4 -.2 -.7 -.3 v -1.6 c 0 -.6 -.5 -1.1 -1.1 -1.1 h -2.3 c -.6 0 -1.2 .5 -1.2 1.2 v 1.6 c -.2 .1 -.5 .2 -.7 .3 l -1.1 -1.2 c -.4 -.4 -1.1 -.5 -1.6 -.1 0 0 0 0 -.1 .1 l -1.6 1.7 c -.4 .5 -.4 1.2 0 1.7 l 1.1 1.1 c -.1 .2 -.2 .5 -.3 .7 h -1.5 c -.6 0 -1.2 .5 -1.2 1.2 v 2.4 c 0 .6 .5 1.2 1.1 1.2 h 1.5 c .1 .2 .2 .5 .3 .7 l -1.1 1.1 c -.4 .5 -.4 1.2 0 1.7 l 1.6 1.7 c .4 .4 1.1 .5 1.6 .1 0 0 0 0 .1 -.1 l 1.1 -1.1 c .2 .1 .4 .2 .7 .3 v 1.6 c 0 .6 .5 1.1 1.1 1.2 h 2.3 c .6 0 1.2 -.5 1.2 -1.2 v -1.6 c .2 -.1 .5 -.2 .7 -.3 l 1.1 1.1 c .4 .4 1.1 .5 1.6 .1 0 0 0 0 .1 -.1 l 1.6 -1.7 c .4 -.5 .4 -1.2 0 -1.7 l -1.1 -1.1 c .1 -.2 .2 -.5 .3 -.7 h 1.5 c .6 0 1.2 -.5 1.2 -1.2 v -2.3 c 0 -.7 -.5 -1.3 -1.1 -1.3 z m -8 4.8 c -1.3 .1 -2.4 -1 -2.5 -2.3 s 1 -2.4 2.3 -2.5 2.4 1 2.5 2.3 v .1 c 0 1.3 -1 2.3 -2.3 2.4 z"/><path d="m 150.1 133.3 l -4.9 12.5 c -.4 1.1 .1 2.3 1.2 2.7 .6 .2 1.2 .2 1.7 -.1 l 26.1 -13.3 23.2 -13.6 c .6 -.4 1.4 -.3 2 .1 .7 .6 .9 1.7 .3 2.4 -.1 .1 -.1 .1 -.2 .2 l -7 6.6 c -.3 .2 -.3 .7 0 .9 .1 .1 .3 .2 .5 .2 h 13.8 c 11.7 0 21.2 -9.5 21.2 -21.3 v -89.3 c 0 -11.8 -9.5 -21.3 -21.3 -21.3 h -186.7 c -11 0 -20 9 -20 20 v 90.7 c 0 11.8 9.5 21.3 21.3 21.3 h 127.9 c .6 0 1 .5 .9 1.1 z m 19.2 -26.5 c -4.1 0 -7.4 -3.3 -7.4 -7.4 s 3.3 -7.4 7.4 -7.4 7.4 3.3 7.4 7.4 -3.3 7.4 -7.4 7.4 z m -63.4 -29 c -.2 1.5 -1.5 2.6 -3 2.6 h -1.4 c -1.1 0 -2 .9 -2 2 0 11.8 -7.5 17.7 -15 25.1 -6.9 7.5 -18.6 7.9 -26.1 1 -.4 -.3 -.7 -.7 -1 -1 -7.5 -7.4 -15 -13.3 -15 -25.1 0 -1.1 -.9 -2 -2 -2 h -1.5 c -1.5 0 -2.8 -1.1 -3 -2.6 l -1.8 -13.5 c -.2 -.9 .4 -1.7 1.3 -1.9 .7 -.1 1.3 .2 1.7 .7 .7 .9 2 1.1 2.9 .5 .4 -.3 .7 -.7 .8 -1.2 l -4.1 -19.5 c -.9 -4.1 1.7 -8.1 5.8 -8.9 .5 -.1 1 -.2 1.6 -.2 h 1.3 c 0 -8.3 6.7 -15 15 -15 h 30.1 c 5 0 9 4 9 9 l -6 6 h 4.3 c 4.2 0 7.5 3.4 7.5 7.5 0 .5 -.1 1 -.2 1.6 l -4.1 19.4 c .2 1.1 1.2 1.9 2.4 1.7 .6 -.1 1.1 -.4 1.4 -.8 .5 -.7 1.5 -.9 2.2 -.4 .5 .3 .7 .9 .7 1.5 z m 41.7 -28.8 c -.9 -1.2 -1.4 -2.8 -1.3 -4.3 0 -4.7 3.5 -9.9 8.4 -13.6 4.4 -3.6 9.9 -5.6 15.6 -5.6 12.7 0 23 9.4 23 20.9 0 1.5 -.2 3.1 -.6 4.6 -.9 5.3 -4.4 9.9 -9.9 13.8 -9.2 6.4 -7.3 7.3 -7.3 13.7 0 3.5 -2.9 6.4 -6.4 6.4 s -6.4 -2.9 -6.4 -6.4 v -6.4 c 0 -2 .5 -3.9 1.5 -5.6 1.8 -3.1 4.6 -5.1 5.8 -6.3 2.2 -2 4.2 -4.2 6 -6.5 1.6 -1.7 2.4 -3.9 2.4 -6.2 .1 -3.4 -1.8 -6.6 -4.9 -8.2 -1.4 -.7 -2.9 -1.1 -4.4 -1.1 -1.4 0 -2.7 .3 -4 .9 -7.4 2.8 -6.4 12 -12.6 12 -1.7 .1 -3.6 -.7 -4.9 -2.1 z"/></g></svg>