<svg enable-background="new 0 0 488.9584961 551.093811" viewBox="0 0 488.96 551.09" xmlns="http://www.w3.org/2000/svg"><g fill="#fff"><path d="m 312.46 101.7 c -30.91 17.55 -61 36.77 -70.2 40.94 -9.22 4.19 -26.76 25.88 -20.87 31.74 5.84 5.83 65.17 50.99 65.17 50.99 s 4.98 -22.57 26.71 -29.29 c 21.75 -6.67 37.63 -19.2 37.63 -32.57 0 -13.39 16.7 -35.92 34.25 -38.42 17.56 -2.48 17.53 -15.01 8.36 -12.53 0 0 -50.1 -28.42 -81.05 -10.86 z"/><path d="m 266.54 110.88 c 11.64 -10.85 35.88 -20.07 46.73 -20.07 10.89 0 36.76 4.19 25.93 -5.02 0 .02 -51.81 -20.02 -82.69 -19.18 0 0 0 20.89 -9.21 35.95 0 .01 7.51 19.2 19.24 8.32 z"/><path d="m 477.52 260.9 c -13.79 -68.93 -11.26 -109.04 -8.76 -161.69 2.52 -52.63 -30.08 -31.33 -48.9 -15.05 -5.08 4.41 -8.14 8.82 -10.31 13.17 -22.27 -8.87 -43.99 -18.79 -64.07 -32.07 -1.78 -1.18 -3.52 -1.02 -4.85 -.15 -5.95 -8.37 -13.38 -18.26 -17.34 -31.07 -6.69 -21.72 -29.22 3.34 -38.43 -16.69 -9.13 -20.06 -15.85 -4.19 -25.04 10.01 -9.17 14.21 -32.6 -1.69 -44.31 -18.4 -11.71 -16.69 -15.87 25.08 -25.88 22.58 -10 -2.51 -12.54 12.53 -25.87 24.23 -13.42 11.68 -17.56 .83 -32.62 8.35 -5.37 2.68 -10.21 7.06 -14.21 11.59 -18.27 10.14 -35.24 22.73 -50.35 37.18 -10.97 -12.56 -23.99 -17.45 -23.99 -17.45 -7.53 -36.35 -37.59 12.52 -37.59 46.36 0 33.86 21.29 43.89 4.94 156.72 -8.1 56.14 3.04 99.85 16.27 129.61 1.24 12.26 7.31 22.85 13.86 33.24 6.27 9.95 12.97 18.92 21.76 26.83 17.99 16.18 40.26 27.11 62.59 35.92 47.54 18.75 99.53 26.95 150.12 18.88 2.56 -.36 5.1 -.8 7.64 -1.34 1.42 -.27 2.83 -.55 4.24 -.85 5.1 -1.08 10.15 -2.35 15.16 -3.79 9.95 -.69 19.74 -2.24 28.83 -5.67 1.64 -.18 3.25 -.47 4.89 -.94 1.69 -.49 2.73 -1.53 3.22 -2.77 .7 -.38 1.39 -.77 2.07 -1.18 9.75 -.98 18.2 -7.15 26.1 -12.75 22.58 -11.94 67.98 -38.78 88.27 -71.06 27.6 -43.87 36.35 -112.8 22.56 -181.75 z m -373.82 233.17 c -9.17 -6.02 -18.55 -11.71 -27.58 -17.94 -8.53 -5.89 -17.86 -12.43 -23.83 -21.08 -.52 -.76 -1.15 -1.29 -1.83 -1.66 -6.87 -26.66 -18.75 -63.42 -25.46 -75.9 -8.77 -16.32 2.51 -38.88 2.51 -58.94 0 -20.03 2.52 -80.19 2.52 -66.42 0 13.79 12.54 53.89 12.54 53.89 0 -23.81 18.8 -26.31 18.8 -26.31 -25.09 58.91 -2.51 147.9 -2.51 147.9 -1.27 -35.11 40.11 -119.09 40.11 -119.09 s 2.5 12.54 -18.8 76.47 c -17.77 53.3 19.36 100.5 32.19 114.71 -2.99 -1.91 -5.88 -3.81 -8.66 -5.63 z m 12.32 7.93 c -11.33 -49.21 13.04 -89.44 13.04 -89.44 -17.27 59.62 -.15 90.28 20.3 104.87 -11.68 -2.96 -23.01 -9.04 -33.34 -15.43 z m 124.07 21.66 c -8.97 .47 -17.95 .87 -26.93 1.25 -.94 -.2 -1.93 -.15 -2.84 .12 -.7 .03 -1.39 .06 -2.09 .09 -2.78 .11 -5.59 .28 -8.41 .42 22.16 -8.08 50.26 -28.56 57.09 -49.03 8.76 -26.34 8.76 -22.6 2.48 -40.14 -6.25 -17.54 -10.02 -28.83 -10.02 -55.15 s -27.55 -23.83 -27.55 -48.88 c 0 -25.07 -10.04 -7.54 -25.07 -32.62 -15.06 -25.04 -23.83 -28.81 -12.53 -52.62 11.27 -23.82 -38.86 -23.82 -38.86 -23.82 s 8.78 -31.33 0 -52.66 c -8.76 -21.29 -63.91 -15.03 -63.91 -15.03 .4 -14.46 -3.46 -25.82 -8.87 -34.6 12.64 -12.21 26.61 -23.01 41.63 -32.13 16.14 -6.29 52.88 -19.58 101.29 -30.62 6.74 -1.55 13.48 -2.48 20.17 -3 .8 -.42 1.72 -.66 2.68 -.66 h 4.63 c .55 0 1.05 .08 1.51 .22 55.48 -1.3 104.77 26.03 104.77 26.03 -.12 -.55 -.28 -1.1 -.46 -1.66 18.12 10.96 37.42 19.58 57.09 27.41 -2.87 8.45 -5.34 16.56 -16.1 23.97 -20.03 13.8 -18.77 21.32 -21.29 41.35 -2.52 20.07 -26.33 30.07 -55.16 32.6 -28.82 2.5 6.28 32.59 -6.26 42.62 -12.52 10.02 -20.05 18.8 -20.05 28.8 0 10.06 13.79 13.8 -18.77 15.05 -32.61 1.25 -20.06 16.31 -12.54 26.34 7.54 10 0 23.79 -7.53 31.32 -7.51 7.53 13.79 17.56 13.79 17.56 11.27 10.02 5.02 46.37 12.54 57.64 7.54 11.27 7.54 21.32 7.54 36.35 s -15.04 33.86 -18.8 42.63 c -3.44 7.79 -19.59 18.53 -23.17 20.85 z m 77.09 -6.42 c -3.15 .44 -6.31 .81 -9.49 1.13 -4 .4 -8.01 .79 -12.02 1.16 17.5 -8.54 23.89 -21.75 23.89 -21.75 l 3.17 17.82 c -1.85 .55 -3.7 1.1 -5.55 1.64 z m 140.29 -142.29 c -15.04 27.6 -21.33 52.65 -21.33 52.65 l 16.31 -10.02 c .19 .16 .35 .32 .52 .49 -15.21 22.96 -33.35 42.8 -53.84 61.14 -5 4.48 -10.2 8.69 -15.74 12.49 -4.4 3.01 -9.16 5.33 -13.73 8.02 -1.23 -.55 -2.71 -.52 -4.22 .54 -5.56 3.89 -11.44 6.93 -17.53 9.35 -.98 -.03 -1.99 .25 -2.93 .96 h -.01 c -6.12 .69 -12.07 2.14 -17.98 3.8 31.88 -44.07 21.41 -110.59 21.41 -110.59 l 21.31 76.46 s 15.03 -1.25 21.3 -32.61 c 6.28 -31.34 -27.57 -130.33 -27.57 -130.33 s 0 0 12.54 18.8 c 12.52 18.79 33.84 101.52 33.84 101.52 s 25.06 -17.54 12.52 -63.95 c -11.19 -41.44 -14.4 -105.89 -14.95 -119.13 1.88 26.01 31.27 95.31 31.27 95.31 -1.63 -28.56 -2.19 -98.47 -2.37 -143.85 .96 16.52 3.33 34.81 8.62 48.6 12.56 32.58 12.56 75.22 12.56 75.22 l 10.02 -63.93 c 0 .02 5 81.5 -10.02 109.06 z"/><path d="m 241.94 68.53 c -2.89 .07 -106.59 3.85 -152.36 57.63 0 0 .63 18.8 14.42 20.68 13.8 1.89 30.08 -14.41 36.98 -8.16 6.9 6.26 9.4 19.43 18.81 16.31 9.39 -3.13 92.75 -40.72 82.72 -83.98 -.24 -.95 -.4 -1.63 -.57 -2.48 z"/><path d="m 286.54 237.09 c -8.36 -2.49 -32.95 -25.86 -53.5 -41.76 -25.87 -20.06 -60.97 -21.75 -64.3 -10.87 -3.34 10.87 9.16 36.74 23.41 49.28 14.22 12.52 7.48 16.72 -.86 31.76 -8.36 15.02 19.21 30.07 30.91 40.1 11.72 10.05 15.87 36.75 15.87 36.75 s 7.51 -3.32 5 -15.01 c -2.53 -11.68 -5.83 -40.14 8.38 -52.63 14.16 -12.55 25.05 .84 23.39 -15.05 -1.65 -15.88 20.06 -20.06 11.7 -22.57 z"/><path d="m 241.86 111.74 c -8.16 29.47 -70.83 57.03 -70.83 57.03 s 38.85 4.38 39.49 -4.39 c .63 -8.79 33.85 -33.85 38.84 -37.61 5.05 -3.76 -7.5 -15.03 -7.5 -15.03 z"/></g></svg>