<svg enable-background="new 0 0 956 856.2099609" viewBox="0 0 956 856.21" xmlns="http://www.w3.org/2000/svg"><g fill="#fff"><path d="m 461.68 56.9 c -49.66 .17 -100.68 15.5 -145.42 47.02 -80.3 56.56 -118.24 149.71 -104.79 235.94 29.62 -10.71 61.78 -16.64 95.43 -16.64 46.3 0 89.83 11.12 127.7 30.64 49.54 -52.84 122.16 -86.25 203.19 -86.25 16.6 0 32.81 1.43 48.58 4.11 -.71 -42.72 -13.45 -84.99 -39.34 -121.75 -43.07 -61.17 -112.76 -93.31 -185.35 -93.07 z m -49.12 26.26 l 18.48 13.35 51.61 -7.78 -13.94 22.91 24.37 19.62 -35.88 15.29 -21.24 32.21 -30.86 -3.89 -50.8 20.59 -2.54 -20.1 -42.15 -6.54 27.67 -21.24 -1.73 -28.75 37.02 -6.32 z"/><path d="m 649.09 292.3 c -73.91 0 -140.09 30.76 -184.82 79.33 65.34 45.16 107.7 117.71 107.7 199.52 0 53.83 -18.33 103.69 -49.5 144.34 36.91 20.99 80.26 33.07 126.62 33.07 134.72 0 243.94 -102.11 243.94 -228.11 0 -125.99 -109.22 -228.15 -243.94 -228.15 z m 29.78 29.51 l 27.61 18.43 44.15 5.03 3.24 20.21 37.83 26.43 -23.56 6.7 2.92 27.94 -32.59 -11.83 -34.15 8.43 -17.08 -21.46 -45.5 -17.45 11.29 -14.91 -22.64 -30.15 31.18 2.81 z"/><path d="m 306.91 342.99 c -134.72 0 -243.94 102.16 -243.94 228.16 s 109.22 228.16 243.94 228.16 243.94 -102.16 243.94 -228.16 c 0 -125.99 -109.22 -228.16 -243.94 -228.16 z m 69.76 30.59 l 16.05 25.94 67.23 14.7 -28.59 22.81 20.1 36.75 -51.72 2.49 -42.21 31.18 -35.89 -19.73 -72.69 2.11 6.97 -27.02 -48.48 -28.59 44.53 -14 12.27 -37.72 48.64 9.57 z"/></g></svg>