<svg viewBox="0 0 300 300" xmlns="http://www.w3.org/2000/svg"><g fill="#fff"><path d="m 262.34 73.59 h -.79 a 38.69 38.69 0 1 0 19.82 71.92 c -2.37 -23.79 -9.37 -49.35 -19.03 -71.92 z" fill-rule="evenodd" opacity=".4"/><path d="m 127.58 58.49 a 24.67 24.67 0 0 0 4.15 .36 23.73 23.73 0 0 0 23.58 -21.08 289.78 289.78 0 0 0 -27.73 20.72 z" opacity=".4"/><path d="m 155.46 35.12 a 23.02 23.02 0 0 1 -.15 2.65 c 14.51 -9.68 32.3 -20.19 54 -31.72 -24.61 -12.53 -47.18 -3.4 -67.58 7.56 a 23.73 23.73 0 0 1 13.73 21.51 z" opacity=".6"/><path d="m 108 35.12 a 14.32 14.32 0 0 1 .07 -1.72 c -26.43 17.4 -56.84 41.6 -74.75 57.17 -28.19 26.53 -12.09 40.2 2.17 54.43 3.76 -21.26 28.33 -26.6 60.51 -21.9 -3.34 -18 .3 -37.76 31.61 -64.61 a 23.74 23.74 0 0 1 -19.61 -23.37 z" opacity=".6"/><path d="m 155.46 35.12 a 23.73 23.73 0 0 0 -13.71 -21.51 c -4.9 2.63 -9.69 5.38 -14.34 8 -6 3.32 -12.54 7.36 -19.35 11.84 0 .57 -.07 1.14 -.07 1.72 a 23.74 23.74 0 0 0 19.59 23.37 289.78 289.78 0 0 1 27.73 -20.72 22.98 22.98 0 0 0 .15 -2.7 z" opacity=".5"/><path d="m 96 123.1 c -32.15 -4.7 -56.72 .64 -60.48 21.86 l .32 .32 q 4.19 2.34 8.3 4.61 l 1.87 1 q 4.13 2.27 8.16 4.46 l .43 .23 q 4 2.16 7.87 4.24 l 1.24 .66 q 4.13 2.2 8.18 4.34 l .26 .13 q 4.11 2.18 8.15 4.25 l .36 .19 q 4.17 2.16 8.26 4.23 8.28 4.2 16.2 8.05 c 6.15 -21.85 -5.55 -39.17 -9.12 -58.57 z" opacity=".2"/><path d="m 96 123.1 c 3.6 19.4 15.3 36.72 9.14 58.62 l .61 .29 c 7.32 -14.18 13 -26.42 13.23 -34.41 15.82 -10.65 50.84 7.37 41.64 13.31 -3.11 2 -3.07 20.63 -4.33 43.63 q 87.54 34.82 110.62 8.92 l .07 -.08 c -28.9 -39.91 -112.5 -81.72 -170.98 -90.28 z" opacity=".6"/><g fill-rule="evenodd"><path d="m 137.1 144.72 c .84 .12 1.68 .26 2.52 .43 -40.75 76.71 -55 129.49 -39.68 152.92 -1.57 -.46 -3 -1 -4.46 -1.51 1.5 .57 3 1.11 4.71 1.59 69.6 20.16 51.2 -131.3 60.4 -137.24 6.41 -4.12 -8.5 -14.04 -23.49 -16.19 z"/><path d="m 118.82 149.39 a 8.23 8.23 0 0 1 -.19 1.37 2.95 2.95 0 0 1 -.1 .51 c -.07 .4 -.14 .8 -.23 1.21 l -.13 .5 c -.1 .43 -.2 .86 -.32 1.31 a 1.89 1.89 0 0 1 -.13 .44 c -.13 .48 -.27 1 -.42 1.45 a 1.76 1.76 0 0 1 -.16 .48 c -.16 .49 -.32 1 -.5 1.5 a 1.75 1.75 0 0 1 -.08 .22 c -.44 1.28 -.94 2.59 -1.49 4 -16.37 40.35 -75.57 117.91 -15.13 135.69 -15.3 -23.43 -1.07 -76.21 39.68 -152.92 a 44.05 44.05 0 0 0 -5.19 -.73 c -.71 -.06 -1.4 -.09 -2.1 -.11 h -2.3 c -.63 0 -1.25 .08 -1.86 .14 h -.21 c -.6 .07 -1.19 .15 -1.78 .26 h -.21 c -.59 .12 -1.16 .25 -1.72 .4 l -.2 .06 c -.56 .16 -1.12 .35 -1.66 .55 l -.16 .06 a 17.17 17.17 0 0 0 -1.62 .73 l -.1 .05 a 17.7 17.7 0 0 0 -1.61 .95 7.92 7.92 0 0 1 -.1 1.53 1.95 1.95 0 0 1 .02 .35 z" opacity=".2"/><path d="m 281.37 145.49 a 38.69 38.69 0 1 1 -19.82 -71.92 h .79 c -9.13 -21.4 -20.55 -40.11 -32.4 -52 a 81.39 81.39 0 0 0 -20.61 -15.52 c -21.72 11.53 -39.51 22 -54 31.72 a 23.73 23.73 0 0 1 -23.58 21.08 24.67 24.67 0 0 1 -4.15 -.36 c -31.33 26.85 -34.97 46.63 -31.6 64.61 58.51 8.56 142.11 50.37 171 90.28 l -.07 .08 c 13.46 -15.19 17.15 -40.36 14.44 -67.97 z m -116.89 -18.28 a 23.74 23.74 0 1 1 23.73 -23.75 v .02 a 23.74 23.74 0 0 1 -23.73 23.73 z m 46.52 -73.1 a 11.87 11.87 0 1 1 11.87 -11.87 11.88 11.88 0 0 1 -11.87 11.87 z"/></g><path d="m 211 30.37 a 11.87 11.87 0 1 0 11.87 11.87 11.87 11.87 0 0 0 -11.87 -11.87 z" opacity=".4"/><path d="m 188.21 103.48 v -.02 a 23.74 23.74 0 1 0 0 .02 z" fill-rule="evenodd" opacity=".4"/></g></svg>