<svg viewBox="0 0 300 300" xmlns="http://www.w3.org/2000/svg"><g fill="#fff"><path d="m 279.54 115.24 a 134.64 134.64 0 1 0 -200.6 136 l 6 41.4 37.06 -25.54 a 134.64 134.64 0 0 0 157.54 -151.86 z m -67.16 79.4 l -15.57 12.75 -7 5.74 -23.93 -29.23 -19.57 -23.9 -19.58 23.9 -23.92 29.23 -7 -5.74 -15.58 -12.75 47.22 -57.7 -47.22 -57.7 11.29 -9.24 11.29 -9.24 23.92 29.24 19.58 23.92 19.57 -23.92 23.92 -29.24 11.29 9.24 11.29 9.24 -47.22 57.7 z"/><path d="m 286.93 122.63 a 134.12 134.12 0 0 0 -41.71 -79.33 134.65 134.65 0 0 1 -123.22 223.8 l -37 25.51 7.36 7.39 37 -25.52 a 134.62 134.62 0 0 0 157.57 -151.85 z" opacity=".3"/><path d="m 189.8 60.76 l -43.49 53.14 -43.5 -53.14 -22.58 18.48 47.22 57.7 -47.22 57.7 22.58 18.49 43.5 -53.15 43.49 53.15 22.58 -18.49 -47.22 -57.7 47.22 -57.7 z" opacity=".3"/></g></svg>