<svg enable-background="new 0 0 782.0357056 668.68396" viewBox="0 0 782.04 668.68" xmlns="http://www.w3.org/2000/svg"><path d="m 672.62 5.31 c -29.47 -5.05 -144.99 53.47 -176.14 76.2 -25.26 17.68 -102.71 35.36 -136.39 41.25 -16 -4.21 -32.83 -6.74 -50.51 -6.74 -63.14 0 -118.71 31.15 -153.22 78.3 l -9.26 2.53 -1.68 .84 c -95.14 53.04 -141.45 131.34 -139.76 204.58 -5.89 111.97 22.73 247.52 303.08 260.98 324.97 16 466.59 -418.85 468.28 -534.19 1.68 -116.18 -92.61 -122.07 -104.4 -123.75 z m -309.16 198.27 c 5.89 0 10.94 5.05 10.94 10.94 s -5.05 10.95 -10.94 10.95 -10.94 -5.05 -10.94 -10.95 c 0 -5.88 5.05 -10.94 10.94 -10.94 z m -21.05 -40.41 c 5.05 0 10.1 4.21 10.1 10.1 0 5.05 -4.21 10.1 -10.1 10.1 -5.05 0 -10.1 -4.21 -10.1 -10.1 .84 -5.89 5.05 -10.1 10.1 -10.1 z m -20.2 31.15 c 3.37 0 5.89 2.53 5.89 5.89 0 3.37 -2.52 5.9 -5.89 5.9 s -5.89 -2.53 -5.89 -5.9 c -.01 -3.36 2.52 -5.89 5.89 -5.89 z m 5.89 27.78 c 0 2.52 -1.68 4.21 -4.21 4.21 s -4.21 -1.69 -4.21 -4.21 c 0 -2.53 1.68 -4.21 4.21 -4.21 1.69 .01 4.21 1.69 4.21 4.21 z m -33.67 -58.93 c 5.05 0 8.42 4.21 8.42 8.42 0 5.05 -3.37 8.42 -8.42 8.42 s -8.42 -3.37 -8.42 -8.42 c 0 -4.21 4.21 -8.42 8.42 -8.42 z m 319.92 44.62 c -4.21 9.26 -9.26 18.52 -13.47 28.62 -58.09 122.07 -124.6 260.99 -351.91 284.56 -111.13 10.94 -197.84 -28.63 -220.57 -101.03 -21.9 -69.03 22.72 -147.32 113.64 -202.04 -13.47 26.1 -21.89 56.41 -21.89 87.56 0 51.35 21.05 98.5 53.88 133.02 234.89 -16 292.14 -145.65 305.61 -216.37 -19.36 -38.73 -51.35 -69.88 -90.92 -88.4 37.88 -7.58 97.66 -25.26 118.71 -41.25 26.94 -20.21 136.57 -76.2 162.67 -71.99 11.79 2.52 20.21 7.58 24.41 16 7.58 15.98 -40.6 91.34 -80.16 171.32 z" fill="#fff"/></svg>