<svg viewBox="0 0 300 300" xmlns="http://www.w3.org/2000/svg"><g fill="#fff"><path d="m 287.48 287.39 a 13.07 13.07 0 0 1 -9.76 -3.8 c -3.79 -4 -75.77 -80 -153.41 -143.52 a 20.92 20.92 0 0 0 -14 -4.39 22.67 22.67 0 0 0 -6.15 1.11 32.57 32.57 0 0 1 -26.59 -2.71 c -4.1 -2.37 -7.92 -4.67 -10.59 -6.48 a 244.67 244.67 0 0 1 -62.88 -61.6 5.51 5.51 0 0 1 .66 -7.11 l -3.1 3 a 5.51 5.51 0 0 0 -.66 7.11 244.88 244.88 0 0 0 62.89 61.6 c 2.67 1.8 6.49 4.1 10.59 6.48 a 32.69 32.69 0 0 0 26.59 2.71 22.23 22.23 0 0 1 6.15 -1.11 20.91 20.91 0 0 1 14 4.38 c 77.64 63.55 149.62 139.53 153.41 143.53 a 13.07 13.07 0 0 0 18.34 .11 l 3.1 -3 a 13 13 0 0 1 -8.59 3.69 z" opacity=".5"/><path d="m 92.78 67.37 a 6 6 0 0 1 .7 8.46 q -.13 .16 -.28 .3 v .05 l 3.1 -3 v -.05 a 5.93 5.93 0 0 0 -.02 -8.39 c -.13 -.13 -.26 -.25 -.4 -.36 a 243.91 243.91 0 0 1 -43.66 -47.3 4.74 4.74 0 0 1 .56 -6.16 l -3.11 3 a 4.75 4.75 0 0 0 -.55 6.16 243.85 243.85 0 0 0 43.66 47.29 z" opacity=".5"/><path d="m 76.52 83.47 a 6.07 6.07 0 0 1 .86 8.54 l -.03 .04 a 3.99 3.99 0 0 1 -.34 .36 l 3.1 -3 .34 -.36 a 6.08 6.08 0 0 0 -.8 -8.56 l -.04 -.03 a 244.57 244.57 0 0 1 -43.35 -46.96 5.41 5.41 0 0 1 .65 -7 l -3.1 3 a 5.42 5.42 0 0 0 -.65 7 244.32 244.32 0 0 0 43.36 46.97 z" opacity=".5"/><path d="m 60.55 99.8 a 6 6 0 0 1 .7 8.46 q -.13 .16 -.28 .3 a .23 .23 0 0 0 -.07 .07 l 3.1 -3 a .46 .46 0 0 0 .07 -.07 5.94 5.94 0 0 0 -.04 -8.4 c -.12 -.12 -.25 -.24 -.39 -.35 a 244.5 244.5 0 0 1 -43.45 -47 5.48 5.48 0 0 1 .65 -7.08 l -3.1 3 a 5.47 5.47 0 0 0 -.65 7.07 243.92 243.92 0 0 0 43.46 47 z" opacity=".5"/><path d="m 55.87 9.58 a 8.85 8.85 0 0 1 6.73 3.29 234 234 0 0 0 58.12 56.6 32.82 32.82 0 0 1 13.77 35.33 c -1.75 6.94 .44 15 5.39 19.69 79.38 75.71 151.71 136.68 155.51 139.89 a 13.09 13.09 0 0 1 1.49 18.45 c -.1 .12 -.21 .24 -.32 .36 a 13.08 13.08 0 0 1 -18.48 .74 q -.18 -.17 -.36 -.34 c -3.79 -4 -75.77 -80 -153.41 -143.52 a 20.92 20.92 0 0 0 -14 -4.39 22.67 22.67 0 0 0 -6.15 1.11 32.57 32.57 0 0 1 -26.59 -2.71 c -4.1 -2.37 -7.92 -4.67 -10.59 -6.48 a 244.67 244.67 0 0 1 -62.88 -61.6 5.53 5.53 0 0 1 1.38 -7.7 5.39 5.39 0 0 1 7.5 1.34 l .02 .02 a 233.26 233.26 0 0 0 43.11 46.34 5.87 5.87 0 0 0 4 1.33 5.94 5.94 0 0 0 3.56 -10.5 244.5 244.5 0 0 1 -43.45 -47 5.48 5.48 0 0 1 1.32 -7.64 l .08 -.05 a 5.32 5.32 0 0 1 2.8 -.93 5.48 5.48 0 0 1 4.68 2.32 233.77 233.77 0 0 0 43.12 46.2 5.94 5.94 0 0 0 8.23 -.7 6.08 6.08 0 0 0 -.8 -8.56 l -.04 -.03 a 244.55 244.55 0 0 1 -43.35 -46.94 5.43 5.43 0 0 1 4.23 -8.5 5.57 5.57 0 0 1 4.75 2.35 232.61 232.61 0 0 0 43.09 46.15 5.85 5.85 0 0 0 4 1.34 5.93 5.93 0 0 0 3.56 -10.49 243.91 243.91 0 0 1 -43.66 -47.3 4.72 4.72 0 0 1 3.64 -7.47 z"/></g></svg>