<svg enable-background="new 0 0 320 360" height="360" viewBox="0 0 320 360" width="320" xmlns="http://www.w3.org/2000/svg"><path d="m 104.07 261.21 l 11.78 .72 c 19.75 0 36.89 -5.47 51.41 -16.42 14.52 -10.94 25.23 -25.82 32.13 -44.63 -8.34 1.91 -18.92 2.86 -31.78 2.86 -29.27 0 -51.71 -6.01 -67.3 -18.03 s -23.38 -27.43 -23.38 -46.23 4.64 -34.63 13.92 -47.48 c 17.37 -24.04 41.65 -36.06 72.83 -36.06 14.99 0 28.2 2.5 39.63 7.5 11.42 5 20.29 11.13 26.6 18.39 s 11.48 15.65 15.53 25.17 c 6.19 15.23 9.28 31.12 9.28 47.66 0 16.55 -2.8 33.09 -8.39 49.63 -5.6 16.55 -13.69 32.13 -24.28 46.77 -10.6 14.64 -25.05 26.54 -43.38 35.7 s -38.8 13.75 -61.41 13.75 c -3.57 0 -5.59 -.24 -6.07 -.72 -6.19 -7.62 -9.28 -19.4 -9.28 -35.34 .02 -2.16 .73 -3.24 2.16 -3.24 z m 104.25 -109.6 c 0 -17.37 -4.05 -31 -12.14 -40.88 -8.09 -9.87 -19.52 -14.82 -34.27 -14.82 -10.71 0 -19.81 3.1 -27.31 9.28 -7.5 6.19 -11.24 14.64 -11.24 25.35 0 16.66 8.57 27.26 25.7 31.77 7.85 1.91 18.08 2.86 30.7 2.86 12.61 0 21.9 -1.55 27.84 -4.64 .48 -1.65 .72 -4.63 .72 -8.92 z" fill="#fff"/></svg>