<svg viewBox="0 0 300 300" xmlns="http://www.w3.org/2000/svg"><g fill="#fff"><g fill-rule="evenodd"><path d="m 256 38.57 l -255.5 114.22 c 5.82 -38.29 62.22 -105.32 84.7 -107.15 14.99 -1.23 71.8 -3.8 170.8 -7.07 z" opacity=".9"/><path d="m 126.51 226.2 c -5.19 -2.58 -9.58 -6.5 -13.89 -10.37 -8.56 -7.7 -17.1 -15.42 -25.32 -23.47 a 30 30 0 0 1 -20.5 -49.42 83.53 83.53 0 0 1 4.86 -22 l -70.77 31.68 43.66 97.75 a 18.68 18.68 0 0 0 24.67 9.43 l 67.32 -30.07 a 52.89 52.89 0 0 1 -10.03 -3.53 z" opacity=".7"/><path d="m 297.39 131.32 l -41.39 -92.75 -184.34 82.43 a 83.53 83.53 0 0 0 -4.86 22 29.95 29.95 0 1 1 20.5 49.42 c 8.22 8 16.76 15.77 25.32 23.47 4.31 3.87 8.7 7.79 13.89 10.37 a 52.91 52.91 0 0 0 10 3.53 l -67.29 30.01 215.91 -96.44 a 24.27 24.27 0 0 0 12.26 -32.04 z m -133 72.4 c -8.31 3.7 -17.91 .27 -21.44 -7.66 s .34 -17.36 8.65 -21.06 17.91 -.27 21.44 7.66 -.34 17.34 -8.65 21.06 z m 74.27 -60.43 a 12.73 12.73 0 0 1 -15.84 -4.68 21 21 0 1 1 2.6 -21.39 21.35 21.35 0 0 1 1.25 3.69 12.2 12.2 0 0 1 1.64 -.88 12.73 12.73 0 0 1 10.35 23.26 z"/></g><path d="m 245.12 126.49 a 12.73 12.73 0 0 0 -16.8 -6.46 12.2 12.2 0 0 0 -1.64 .88 21.35 21.35 0 0 0 -1.25 -3.69 21 21 0 0 0 -27.68 -10.62 v .01 a 21 21 0 1 0 25.08 32 12.73 12.73 0 0 0 22.3 -12.13 z" opacity=".15"/><ellipse cx="158.05" cy="189.36" opacity=".15" rx="16.44" ry="15.69" transform="matrix(.9117262 -.41079842 .41079842 .9117262 -63.84 81.64)"/><path d="m 66.8 142.94 a 30 30 0 0 0 20.5 49.42 l .07 .06 a 29.95 29.95 0 1 0 -20.57 -49.42 c 0 -.02 .01 -.05 .01 -.07 z" fill-rule="evenodd" opacity=".15"/></g></svg>