<svg enable-background="new 0 0 100 100" viewBox="0 0 100 100" xmlns="http://www.w3.org/2000/svg"><g fill="#fff"><path d="m 96 84.28 c -.02 .04 -.03 .07 -.05 .1 -.05 .08 -1.25 1.97 -4.5 1.97 -2.03 0 -4.43 -.74 -7.13 -2.21 -5.15 -2.8 -8.2 -3.21 -9.56 -3.21 -.07 0 -.13 0 -.19 0 .59 .93 1.27 2.52 1.25 4.87 -.02 2.21 -.72 3.73 -1.37 4.66 .94 .05 2.29 .1 3.86 .1 5.35 0 14.78 -.59 17.82 -4.52 1.68 -2.18 1.87 -3.08 1.88 -3.35 -.62 .05 -1.67 .74 -2.01 1.59 z"/><path d="m 65.87 76.16 c -5.19 1.58 -12.75 2.48 -20.97 2.48 -3.94 0 -7.76 -.22 -11.26 -.62 .67 -.61 1.32 -1.23 1.95 -1.89 2.98 .28 6.1 .42 9.31 .42 7.23 0 14.18 -.75 19.14 -2.05 .5 -.92 .76 -1.95 .76 -2.99 0 -3.13 -2.24 -5.76 -5.32 -6.25 -.07 -.01 -.13 -.03 -.19 -.06 -2.32 -.61 -4.94 -.99 -7.68 -1.13 -.77 -.04 -1.55 -.06 -2.33 -.06 -1.9 0 -3.28 .06 -4.72 .23 -.32 .02 -.65 .05 -.99 .08 .61 -1.26 1.19 -2.54 1.72 -3.84 1.33 -1.34 2.43 -2.48 3.6 -3.76 .27 -.26 .52 -.54 .76 -.82 0 0 .01 -.01 .01 -.01 20.23 -22.11 19.81 -34.94 19.81 -34.94 l -.01 -.3 h -.01 c .01 -.18 .02 -.36 .02 -.54 0 -9.67 -7.84 -17.52 -17.52 -17.52 -3.15 0 -6.1 .84 -8.65 2.29 -2.31 -1.45 -5.05 -2.29 -7.98 -2.29 -6.42 0 -11.89 4.02 -14.06 9.67 0 0 -.85 .09 -2.29 1.04 -1.09 .73 -1.85 1.37 -2.89 1.24 -.28 .01 -.51 .24 -.51 .53 v .01 c -.08 .31 -.14 .62 -.14 .96 0 .96 .34 1.84 .91 2.52 -.95 .42 -1.97 .94 -3.06 1.62 -6.13 3.86 -10.04 2.33 -10.35 1.57 0 0 .13 1.66 3.76 1.89 0 0 -2.45 1.33 -4.64 1.18 0 0 1.92 1.04 5.02 -.25 1.8 -.75 5.47 -2.82 9.11 -3.96 v -.01 s 1.96 -.66 2.73 -.65 h .09 s .6 .01 0 0 c .12 .01 .23 .02 .35 .02 .35 0 .69 -.05 1.01 -.14 .07 .35 .17 .81 .32 1.4 .08 .34 .18 .68 .28 1.01 .89 2.97 2.86 8.16 7.25 16.22 4.97 9.11 4.29 15.23 3.19 18.4 l -1.31 2.58 c -4.49 6.86 -12.32 16.48 -13.64 24.2 -.14 .65 -.21 1.33 -.21 2.02 0 .35 .03 .69 .06 1.02 .06 .69 .2 1.36 .42 2 .01 .02 .01 .04 .02 .06 0 .01 .01 .02 .01 .03 .96 2.86 3.21 5.12 6.06 6.11 4.86 1.73 12.91 2.87 22.03 2.87 8.91 0 16.81 -1.09 21.7 -2.75 -.01 0 -.01 -.01 -.02 -.02 2.13 -.66 3.95 -2.02 5.18 -3.83 1.07 -1.56 1.69 -3.45 1.69 -5.49 .08 -4.63 -3.17 -8.52 -7.52 -9.5 z m -47.34 8.09 c -.12 .25 -.22 .48 -.31 .7 .03 -.3 .07 -.61 .14 -.9 .01 -.03 .01 -.05 .01 -.07 .97 -5.65 6.02 -12.89 10.08 -18.7 1.18 -1.69 2.3 -3.29 3.28 -4.78 .04 -.06 1.74 -2.96 1.77 -3.04 .15 -.44 4.31 -7.62 4.61 -34.53 .75 .77 1.62 1.41 2.6 1.88 0 0 1.91 12.51 -1.09 25.09 -1.98 6.98 -5.38 12.65 -8.01 16.31 -8.27 9.64 -12.1 15.02 -13.08 18.04 z"/></g></svg>