<svg enable-background="new 0 0 841.889 595.281" height="595.28" viewBox="0 0 841.89 595.28" width="841.89" xmlns="http://www.w3.org/2000/svg"><g fill="#fff"><path d="m 428.68 173.23 v -30.36 c 0 -36.31 20.24 -69.05 52.98 -85.72 l -13.69 -27.38 c -42.86 21.43 -69.65 64.89 -69.65 113.1 v 42.27 l 7.14 7.14 c 7.75 -4.77 15.49 -11.91 23.22 -19.05 z"/><path d="m 528.69 202.99 c 4.17 2.38 8.33 4.76 11.91 8.33 26.19 -13.1 48.22 -33.34 50 -55.36 -30.36 16.67 -55.36 25 -72.03 29.17 z"/><path d="m 294.75 198.23 v -1.79 c -2.38 -7.14 -4.17 -14.29 -5.36 -21.43 l -48.81 -16.07 c 11.9 13.1 30.95 30.36 54.17 39.29 z"/><path d="m 382.85 565.52 c 14.88 0 27.98 -7.74 35.72 -19.05 -2.98 -5.95 -4.76 -13.1 -4.76 -20.24 -13.1 -4.76 -23.81 -13.69 -30.36 -25.6 -8.93 15.48 -24.41 26.19 -42.27 28.57 2.97 20.84 20.83 36.32 41.67 36.32 z"/><path d="m 471.54 565.52 c 21.43 0 38.69 -15.48 42.27 -35.72 -14.29 -1.79 -26.79 -9.52 -35.72 -19.65 -10.72 12.5 -26.79 20.24 -44.05 20.24 -1.19 0 -2.98 0 -4.17 0 2.98 19.65 20.84 35.13 41.67 35.13 z"/><path d="m 565 472.06 c 0 -1.79 0 -3.57 -.6 -5.36 -1.79 0 -2.98 0 -4.76 0 -21.43 0 -40.48 -11.91 -50.6 -29.17 -4.76 8.33 -11.31 15.48 -19.65 20.24 1.19 4.76 1.79 8.93 1.79 14.29 0 8.33 -1.79 16.67 -5.36 23.81 7.74 11.31 20.84 19.05 35.72 19.05 24.41 0 43.46 -19.05 43.46 -42.86 z"/><path d="m 476.31 472.06 c 0 -2.38 0 -4.76 -.6 -7.74 -5.36 1.79 -11.31 2.38 -16.67 2.38 -21.43 0 -40.48 -11.91 -50.6 -29.17 -3.57 5.95 -7.74 11.31 -13.69 16.07 -2.38 5.36 -4.17 11.91 -4.17 18.45 0 23.81 19.05 42.86 42.86 42.86 s 42.87 -19.04 42.87 -42.85 z"/><path d="m 332.25 514.92 c 23.81 0 42.86 -19.05 42.86 -42.86 0 -2.38 0 -4.76 -.6 -7.74 -5.36 1.79 -11.31 2.38 -16.67 2.38 -14.29 0 -27.98 -5.36 -38.1 -14.29 -8.33 7.14 -18.45 11.91 -29.77 13.69 0 1.79 -.6 3.57 -.6 5.36 .02 24.41 19.66 43.46 42.88 43.46 z"/><path d="m 244.74 387.53 c -3.57 5.95 -5.36 13.69 -5.36 20.83 0 23.81 19.05 42.86 42.86 42.86 10.72 0 20.24 -3.57 27.98 -10.12 -6.55 -9.52 -10.12 -20.84 -10.12 -32.74 0 -7.14 1.19 -13.69 3.57 -20.24 -7.74 -.6 -14.88 -2.38 -21.43 -5.36 -7.74 3.57 -16.07 5.95 -25 5.95 -4.76 .01 -8.93 .01 -12.5 -1.18 z"/><path d="m 350.11 369.67 c -7.74 8.33 -17.86 14.88 -29.77 17.86 -3.57 6.55 -5.95 13.69 -5.95 21.43 0 23.81 19.05 42.86 42.86 42.86 s 42.86 -19.05 42.86 -42.86 c 0 -7.14 -1.79 -14.29 -4.76 -20.24 -.6 0 -1.79 0 -2.38 0 -16.67 0 -32.15 -7.14 -42.86 -19.05 z"/><path d="m 603.1 408.96 c 0 -8.93 -2.98 -17.26 -7.74 -24.41 -7.14 2.98 -14.29 4.76 -22.62 4.76 -14.88 0 -27.98 -5.36 -38.1 -14.29 -10.72 7.74 -17.26 20.24 -17.26 34.53 0 23.81 19.05 42.86 42.86 42.86 23.22 -.59 42.86 -19.64 42.86 -43.45 z"/><path d="m 441.78 369.07 c -15.48 6.55 -26.19 22.03 -26.19 39.29 0 23.81 19.05 42.86 42.86 42.86 s 42.86 -19.05 42.86 -42.86 c 0 -7.74 -1.79 -14.88 -5.36 -20.83 -3.57 .6 -7.14 1.19 -10.72 1.19 -17.26 0 -32.74 -7.14 -43.45 -19.65 z"/><path d="m 256.65 373.84 c 3.57 0 6.55 -.6 10.12 -1.19 -10.72 -10.72 -17.86 -25.6 -17.86 -41.67 0 -5.95 1.19 -12.5 2.98 -17.86 -10.12 -.6 -19.65 -4.17 -27.98 -10.12 -6.55 7.74 -10.12 17.26 -10.12 27.98 0 23.21 19.05 42.86 42.86 42.86 z"/><path d="m 264.39 330.98 c 0 23.81 19.05 42.86 42.86 42.86 13.69 0 26.19 -6.55 33.93 -17.26 -4.17 -7.74 -5.95 -16.67 -5.95 -25.6 0 -7.74 1.79 -15.48 4.76 -22.62 -7.14 2.98 -14.88 4.76 -23.22 4.76 -10.72 0 -21.43 -2.98 -29.76 -8.33 -5.36 3.57 -11.31 5.95 -17.86 7.14 -2.98 5.36 -4.76 11.9 -4.76 19.05 z"/><path d="m 615.6 330.98 c 0 -8.33 -2.38 -16.07 -6.55 -22.62 -7.14 2.98 -15.48 5.36 -23.81 5.36 -15.48 0 -29.17 -5.95 -39.89 -15.48 -2.98 2.38 -5.36 5.36 -7.74 8.33 3.57 7.74 5.95 16.07 5.95 25 s -2.38 17.26 -5.95 25 c 7.74 10.72 20.24 17.86 34.53 17.86 24.41 -.59 43.46 -20.24 43.46 -43.45 z"/><path d="m 447.73 310.14 c 2.38 6.55 3.57 13.1 3.57 20.24 s -1.19 14.29 -3.57 20.24 c 7.14 13.1 21.43 22.62 37.5 22.62 23.81 0 42.86 -19.05 42.86 -42.86 0 -7.74 -2.38 -14.88 -5.95 -21.43 -6.55 2.38 -13.1 3.57 -20.24 3.57 -16.07 0 -30.95 -6.55 -41.67 -17.26 -4.76 4.17 -9.52 8.93 -12.5 14.88 z"/><path d="m 350.7 330.98 c 0 23.81 19.05 42.86 42.86 42.86 s 42.86 -19.05 42.86 -42.86 c 0 -7.74 -2.38 -15.48 -5.95 -22.03 -6.55 2.38 -13.69 4.17 -21.43 4.17 -16.07 0 -30.36 -6.55 -41.07 -16.67 -10.72 7.74 -17.27 20.24 -17.27 34.53 z"/><path d="m 256.65 297.64 c 5.95 0 11.91 -1.19 17.26 -3.57 -9.52 -10.12 -15.48 -24.41 -15.48 -39.29 s 5.95 -29.17 15.48 -39.29 c -5.36 -2.38 -11.31 -3.57 -17.26 -3.57 -23.81 0 -42.86 19.05 -42.86 42.86 s 19.05 42.86 42.86 42.86 z"/><path d="m 347.73 225.61 c -14.88 -1.19 -29.76 -5.36 -43.46 -11.91 -17.86 5.36 -30.95 21.43 -30.95 41.07 0 23.81 19.05 42.86 42.86 42.86 16.07 0 30.36 -8.93 37.5 -22.62 -2.38 -6.55 -3.57 -13.1 -3.57 -20.24 s 1.19 -14.29 3.57 -20.24 c -1.19 -3.56 -2.98 -5.94 -5.95 -8.92 z"/><path d="m 553.1 226.8 c 4.76 8.33 7.14 17.86 7.14 27.98 s -2.98 19.65 -7.14 27.98 c 7.74 8.93 19.65 14.88 32.15 14.88 23.81 0 42.86 -19.05 42.86 -42.86 s -19.05 -42.86 -42.86 -42.86 c -12.51 0 -24.41 5.95 -32.15 14.88 z"/><path d="m 502.5 297.64 c 23.81 0 42.86 -19.05 42.86 -42.86 0 -17.26 -10.72 -32.74 -25.6 -39.29 -16.07 5.95 -32.15 8.93 -48.81 10.12 -2.98 2.98 -4.76 6.55 -6.55 10.12 1.79 5.95 2.98 12.5 2.98 19.05 s -1.19 13.1 -2.98 19.05 c 6.55 14.29 20.84 23.81 38.1 23.81 z"/><path d="m 403.09 217.28 c -7.74 2.98 -16.07 5.36 -24.41 7.14 -7.74 7.74 -13.1 18.45 -13.1 30.36 0 23.81 19.05 42.86 42.86 42.86 s 42.86 -19.05 42.86 -42.86 c 0 -11.31 -4.76 -22.03 -11.91 -29.76 -11.9 -1.19 -24.4 -3.58 -36.3 -7.74 z"/><path d="m 415.59 204.18 v 1.19 c 30.95 8.33 64.29 7.74 95.25 -2.98 l -38.1 -66.08 c -11.32 25.01 -33.94 51.8 -57.15 67.87 z"/><path d="m 394.75 204.18 l -85.13 -85.72 c -10.12 26.19 -8.93 56.55 2.98 82.15 25.6 11.91 55.96 13.1 82.15 3.57 z"/></g></svg>