<svg enable-background="new 0 0 227.5 300.1" viewBox="0 0 227.5 300.1" xmlns="http://www.w3.org/2000/svg"><g fill="#fff"><path d="m 217.5 0 h -30.7 c -4.6 0 -8.7 3.2 -9.7 7.7 -.3 1.3 -.7 2.8 -1.1 4.3 -2.6 9 -6.5 16.1 -11.6 21.5 -7.4 7.8 -17.1 13.1 -28.9 15.7 -6.1 1.3 -16 2.4 -29.6 3.2 -5.3 .3 -9.4 4.7 -9.4 10 v 20.6 c 0 5.5 4.5 10 10 10 h 38.6 l 21.9 -.1 v 197.1 c 0 5.5 4.5 10 10 10 h 40.4 c 5.5 0 10 -4.5 10 -10 v -280 c .1 -5.5 -4.4 -10 -9.9 -10 z"/><path d="m 100.9 155.9 h -87 c -7.7 0 -13.9 6.2 -13.9 13.9 s 6.2 13.9 13.9 13.9 h 87 c 7.7 0 13.9 -6.2 13.9 -13.9 s -6.2 -13.9 -13.9 -13.9 z"/></g></svg>