<svg enable-background="new 0 0 766.9525757 421.2608032" viewBox="0 0 766.95 421.26" xmlns="http://www.w3.org/2000/svg"><path d="m 709.54 147.96 c -32.88 -20.9 -42.14 -41.15 -55.67 -61.78 12.79 -3.36 42.02 -16.66 54.48 -68.71 0 0 -60.54 -11.89 -86.39 33.18 -29.6 -24.13 -74.85 -45.65 -120.25 -45.65 -106.63 0 -183.89 .5 -221.84 .5 -36.29 0 -152.39 12.64 -162.33 140.31 -5.79 7.06 -14.58 16.18 -25.3 22.61 0 .05 -.01 .11 -.01 .16 -.03 .01 -.06 .03 -.09 .04 -2.24 1.2 -4.66 1.96 -7.13 2.59 .07 -1.48 .1 -3.02 .06 -4.64 -.73 -15.63 -8.28 -28.78 -19.71 -32.95 -8.02 -2.92 -16.11 -2.31 -22.8 1.73 -6.3 3.81 -10.99 10.44 -12.85 18.21 -.55 2.3 -.83 4.7 -.83 7.14 0 11.61 6.37 23.98 20.26 28.86 3.65 1.98 7.95 2.79 12.13 3.17 -3.05 2.9 -10.09 6.87 -18.43 7.26 -13.56 .63 -24.4 -18.08 -24.51 -18.27 -2.14 -3.75 -6.6 -4.87 -9.97 -2.5 -3.36 2.37 -4.38 7.33 -2.24 11.09 .62 1.09 13.37 26.78 37.34 25.77 19.55 -.83 31.22 -12.34 37.03 -25.32 .04 -.01 .39 -.66 .88 -1.85 1.89 -.24 3.77 -.51 5.62 -.91 .19 .02 .39 .03 .59 .03 .9 0 1.68 -.2 2.33 -.54 10.37 -4.44 19.44 -11.26 26.77 -18.22 .04 8.21 .99 26 8.22 61.24 6.25 30.47 38.38 185.75 38.38 185.75 h 44.09 l -21.72 -39.6 30.12 -74.32 c 57.77 16.76 165.94 40.75 273.52 3.61 l -6.58 51.66 11.85 56.45 h 43.43 l -22.03 -38.78 38.65 -89.05 c 114.79 31.48 207.33 -63.77 207.33 -63.77 v -54.37 c .01 0 -26.84 -3.89 -52.4 -20.13 z m -639.14 25.7 c -.1 .59 -.21 1.15 -.33 1.7 -2.96 .41 -5.93 .54 -8.92 .57 -2.3 -.27 -4.64 -.75 -7.01 -1.5 -9.86 -3.1 -11.65 -11.7 -10.45 -16.72 .84 -3.5 2.94 -6.49 5.77 -8.2 3.2 -1.93 7.14 -2.13 11.4 -.58 5.95 2.17 9.82 10.42 9.82 20.12 .01 1.51 -.01 3.07 -.28 4.61 z" fill="#fff"/></svg>