<svg enable-background="new 0 0 1507.7132568 918.9677734" viewBox="0 0 1507.71 918.97" xmlns="http://www.w3.org/2000/svg"><path d="m 1404.31 5 h -1302.58 c -53.37 0 -96.73 43.36 -96.73 96.73 v 715.5 c 0 53.37 43.36 96.73 96.73 96.73 h 1304.25 c 53.37 0 96.73 -43.37 96.73 -96.73 v -715.5 c -1.66 -53.37 -45.03 -96.73 -98.4 -96.73 z m -893.96 732.18 h -383.6 v -33.35 h 383.6 z m 258.52 -135.1 h -640.45 v -33.36 h 640.45 z m 365.25 133.43 c -41.7 0 -76.72 -35.02 -76.72 -76.72 s 35.02 -75.05 76.72 -75.05 c 16.68 0 31.69 5 45.03 15.01 -15.01 16.68 -23.35 38.36 -23.35 61.71 s 8.34 45.03 23.35 61.71 c -13.34 8.34 -28.35 13.34 -45.03 13.34 z m 115.08 0 c -41.7 0 -76.72 -35.02 -76.72 -76.72 s 35.02 -76.72 76.72 -76.72 76.72 35.02 76.72 76.72 -35.02 76.72 -76.72 76.72 z m 221.82 -338.57 h -1436 v -171.79 h 1436 z" fill="#fff"/></svg>