<svg enable-background="new 0 0 290 289" viewBox="0 0 290 289" xmlns="http://www.w3.org/2000/svg"><g fill="#fff"><path d="m 240 189 c 27.61 0 50 22.39 50 50 s -22.39 50 -50 50 -50 -22.39 -50 -50 22.39 -50 50 -50 z"/><path d="m 15.3 189 h 89.5 c 2.9 0 5.3 2.4 5.3 5.3 v 89.5 c 0 2.9 -2.4 5.3 -5.3 5.3 h -89.5 c -2.9 0 -5.3 -2.4 -5.3 -5.3 v -89.5 c 0 -2.9 2.3 -5.3 5.3 -5.3 z"/><path d="m 104.5 44.1 c -.8 -.8 -.8 -2.1 0 -2.9 s 2.1 -.8 2.9 0 l 26.6 23.2 c 2.6 2.6 6.8 2.6 9.3 0 2.3 -2.3 3.4 -6.8 1.5 -9.4 l -30.3 -35.7 c -3.2 -4.9 -9.3 -6.9 -14.7 -4.8 l -34.3 11.8 c -1.3 .4 -2.7 -.2 -3.1 -1.5 -.3 -.9 -.1 -1.9 .6 -2.5 l .5 -.5 c .5 -.5 .5 -1.3 0 -1.7 l -16.5 -16.5 c -4.8 -4.8 -12.6 -4.8 -17.3 0 l -26 26 c -4.8 4.8 -4.9 12.5 -.1 17.4 0 0 0 0 .1 .1 l 11.1 11.1 c 3.3 3.3 5.8 7.4 7.3 11.8 1.5 4.3 4 8.3 7.3 11.5 l 33.1 33.1 c 3.7 3.7 9.4 4.7 14.2 2.3 l 2.9 -1.4 -3.3 -9.8 c -.2 -.7 .2 -1.3 .8 -1.5 .4 -.1 .8 0 1.2 .3 l 4.7 4.7 c 1.9 1.9 4.8 2.4 7.2 1.2 l 6.8 -3.4 -3.3 -9.8 c -.2 -.7 .2 -1.3 .8 -1.5 .4 -.1 .8 0 1.2 .3 l 4.7 4.7 c 1.9 1.9 4.7 2.3 7.1 1.2 l 6.9 -3.4 -3.3 -9.8 c -.2 -.7 .2 -1.3 .8 -1.5 .4 -.1 .8 0 1.2 .3 l 13.7 13.7 27.5 27.5 c 3.2 3.2 8.3 3.2 11.5 0 2.9 -2.9 3.2 -7.5 .6 -10.8 -9.7 -12.6 -52.9 -63.1 -61.9 -73.8 z"/><path d="m 240 155.8 c 3.92 0 7.1 3.18 7.1 7.1 s -3.18 7.1 -7.1 7.1 -7.1 -3.18 -7.1 -7.1 3.18 -7.1 7.1 -7.1 z"/><path d="m 236 145 c 0 2.2 1.8 4 4 4 s 4 -1.8 4 -4 l 2.2 -17.9 c .4 -3.4 -2 -6.6 -5.5 -7 -.3 0 -.5 0 -.8 0 -3.5 0 -6.3 2.8 -6.3 6.3 v .8 z"/></g></svg>