<svg enable-background="new 0 0 434.3 841.9" viewBox="0 0 434.3 841.9" xmlns="http://www.w3.org/2000/svg"><g fill="#fff"><path d="m 406.2 0 h -378.1 c -15.5 0 -28.1 12.6 -28.1 28.1 v 785.7 c 0 15.4 12.6 28.1 28.1 28.1 h 378.1 c 15.4 0 28.1 -12.6 28.1 -28.1 v -786 c -.3 -15.4 -12.7 -27.8 -28.1 -27.8 z m -43.5 330.6 c 0 14.6 -11.5 26.1 -26.1 26.1 h -251.2 c -14.6 0 -26.1 -11.5 -26.1 -26.1 v -251.2 c 0 -14.6 11.5 -26.1 26.1 -26.1 h 251.3 c 14.6 0 26.1 11.5 26.1 26.1 z m 24.4 123 c -9.8 0 -17.7 -7.9 -17.7 -17.7 l -40.7 -1.1 c -2 0 -3.6 -1.7 -3.6 -3.6 0 -1.7 1.4 -3.4 3.1 -3.6 l 55.9 -9 c .8 -.3 2 -.3 3.1 -.3 9.8 0 17.7 7.9 17.7 17.7 s -8 17.9 -17.8 17.6 z"/><path d="m 204.7 133.1 c -2.1 -1.6 -4.7 -1 -5.7 1 l -9.4 12.5 c -1.6 2.1 -1 4.7 1 5.7 2.1 1.6 4.7 1 5.7 -1 l 8.9 -12.5 c 1.6 -1.6 1.1 -4.2 -.5 -5.7 z"/><path d="m 169.3 112.2 c -19.3 -1.6 -38.6 15.1 -41.2 42.2 s 8.9 38.1 14.6 48.5 l 4.2 5.7 9.9 13.6 c 1 1 1 2.6 0 3.6 -1 1.6 -3.1 1.6 -4.2 .5 l -7.8 -6.8 c -7.3 17.2 -31.8 12.5 -34.9 43.3 -.5 12.5 4.7 24.5 13.6 33.4 8.9 7.3 -2.1 -10.4 -.5 -24.5 3.7 -38.6 54.2 -18.2 58.9 -66.7 2.1 -25 -13.6 -29.7 -12 -44.3 .5 -6.3 6.3 -10.9 13 -16.7 15.6 -13 7.8 -29.7 -13.6 -31.8 z"/><path d="m 246.4 123.7 c -19.8 .5 -48.5 22.4 -48.5 51.1 0 35.4 18.2 46.4 30.8 55.8 2.1 2.1 3.1 4.7 3.1 7.3 l -1.6 37.5 c 0 2.1 .5 3.1 3.1 3.1 11.5 -.5 22.4 .5 33.4 3.1 2.1 .5 3.1 0 3.1 -3.1 l -2.1 -22.4 c 0 -1 -.5 -2.1 -1.6 -2.6 l -7.3 -4.7 -6.8 -4.7 c -1 -1 -1.6 -2.6 -1 -3.6 .5 -1.6 2.1 -2.1 3.6 -1.6 h .5 l 10.4 4.2 5.7 2.6 c 8.9 3.6 18.2 6.3 28.1 6.8 5.2 0 7.3 -1.6 7.8 -3.1 5.2 -6.3 6.3 -33.4 6.3 -58.9 -.2 -42.3 -26.8 -67.8 -67 -66.8 z"/></g></svg>