<svg enable-background="new 0 0 1463.4277344 1060.0058594" viewBox="0 0 1463.43 1060.01" xmlns="http://www.w3.org/2000/svg"><path d="m 1437.37 150.49 c -4.84 -2.43 -40.49 -10.89 -70.1 -16.9 -29.61 -6.03 -27.19 -23.59 -32.63 -33.27 s -13.68 -24.14 -33.02 -29.81 c -10.74 -3.1 -30.26 -8.62 -52.88 -11.61 -1.54 -1.18 -3.27 -2.24 -5.14 -3.04 -7.57 -3.29 -11.96 -7.99 -33.75 -7.79 -19.88 .17 -40.04 14.61 -44.03 20.77 0 0 .19 .16 .22 .17 -28.87 16.6 -47.86 47.43 -57.4 57.93 -12.09 13.27 -45.93 55.6 -79.77 84.61 -33.84 28.97 -50.78 49.52 -79.78 61.63 -28.95 12.11 -59.2 9.68 -87.02 22 -27.77 12.34 -68.88 16.69 -125.67 9.43 -56.8 -7.28 -155.91 -13.33 -210.3 -18.12 -54.42 -4.87 -125.67 17.05 -129.33 18.12 -9.88 2.86 -15.3 .38 -38.69 -7.66 -23.36 -8.08 -123.27 -35.46 -177.27 -58.82 -53.97 -23.36 -90.23 -91.84 -116.02 -151.49 -13.42 -30.98 -28.33 -51.73 -39.55 -64.52 -10.41 -11.83 -14.84 -18.59 -17.66 -16.85 -2.82 1.73 -3.49 3.5 -1.19 22.18 1.79 14.43 .32 21.96 5.96 64.16 12.89 96.71 76.61 162.67 113.69 190.84 37.08 28.23 193.41 79.02 200.64 83.02 7.25 4.03 8.07 12.89 6.45 25 -1.61 12.08 -6.45 17.72 -12.89 23.37 -6.45 5.61 -18.52 46.71 -20.94 62.03 -2.41 15.26 3.23 69.27 11.28 80 8.07 10.8 12.89 46.51 16.92 67.43 s 8.87 62.85 .83 72.5 c -8.08 9.67 -6.45 15.33 -13.69 21.79 -7.27 6.45 -18.73 51.77 -22.21 69.84 -3.52 18.04 -3.59 25.22 -3.59 25.22 s -7.25 11.29 -14.51 17.73 c -7.24 6.45 -4.84 11.28 -4.03 16.12 .81 4.83 -.79 26.6 0 33.82 .81 7.25 8.07 24.16 8.88 33.82 .8 9.66 12.08 68.49 13.69 75.78 1.6 7.24 8.88 24.14 8.88 31.4 0 7.22 13.68 20.13 24.19 27.41 10.46 7.25 25.75 7.25 41.08 4.81 15.3 -2.44 12.09 -7.24 19.36 -11.23 7.25 -4.07 8.07 -8.91 5.63 -16.13 -2.41 -7.27 -21.74 -25 -32.24 -25.77 -10.47 -.81 -22.08 -8.08 -25.92 -14.37 -3.66 -6.08 1.02 -35.58 1.02 -35.58 s 12.82 4.81 24.1 3.21 12.09 -7.25 18.53 -8.07 c 6.44 -.81 8.07 -7.22 9.66 -14.48 1.61 -7.28 -2.41 -16.12 -13.68 -20.19 -11.28 -4.01 -26.61 -4.8 -34.68 -9.65 -8.07 -4.83 -1.6 -27.38 0 -35.42 1.6 -8.08 25.78 -52.41 40.29 -66.92 14.52 -14.54 33.85 -36.25 45.13 -58.02 11.28 -21.76 23.36 -25.77 42.7 -70.92 19.35 -45.13 36.26 -92.64 41.08 -98.3 4.84 -5.67 54.81 6.45 95.1 8.1 40.28 1.57 105.55 23.34 178.88 50.74 73.31 27.44 157.93 31.41 166.79 33.85 8.88 2.38 6.64 1.73 9.55 8.4 2.82 6.44 .92 27.83 -.67 36.67 -1.63 8.87 4.81 18.53 4.03 29 -.81 10.54 6.45 94.29 8.87 127.38 2.41 33.01 1.57 70.07 9.68 78.11 8.02 8.08 12.85 29.87 16.92 40.31 4 10.46 5.63 29.81 29.8 45.91 24.19 16.12 43.56 5.67 64.5 2.44 20.93 -3.23 20.9 -12.09 12.04 -28.21 -8.85 -16.1 -31.41 -21.77 -40.28 -25.77 -8.87 -4.01 -16.92 -29.01 -16.92 -29.01 s 16.92 1.63 24.17 0 c 7.24 -1.6 9.67 -7.24 15.32 -4.83 5.64 2.44 12.06 -4.82 14.51 -10.44 2.4 -5.68 0 -16.12 -3.24 -21.8 -3.23 -5.64 -16.92 -15.32 -24.17 -16.9 -7.22 -1.63 -20.94 -2.43 -24.97 -7.28 -4.03 -4.81 -10.52 -28.17 -11.29 -34.61 -.81 -6.45 2.41 -27.44 4.01 -41.9 1.61 -14.53 7.28 -83.02 10.51 -100.74 3.21 -17.7 11.26 -35.45 16.1 -47.54 4.83 -12.06 15.29 -27.38 21.74 -32.19 6.45 -4.87 27.41 -30.64 37.88 -52.41 10.46 -21.71 20.16 -45.09 23.36 -49.14 3.21 -4.04 12.89 -14.51 17.72 -31.4 4.83 -16.96 -1.8 -39.11 1.19 -46.34 3.05 -7.25 15.74 -19.35 26.02 -31.44 10.26 -12.06 15.73 -24.77 23.56 -37.47 7.83 -12.66 15.7 -43.5 17.53 -50.12 1.8 -6.67 21.74 -34.48 30.84 -51.39 9.03 -16.9 33.79 -23.56 52.53 -16.9 18.72 6.64 40.52 3.65 45.33 0 4.84 -3.65 19.78 -8.36 24.13 -7.79 7.01 .92 11.51 .57 23.59 -6.13 12.08 -6.63 28.42 -31.38 33.84 -41.67 5.44 -10.28 3.02 -20.55 3.02 -20.55 s 4.49 2.63 8.49 -15.36 c 3.6 -16.57 -15.82 -20.35 -20.64 -22.79 z" fill="#fff"/></svg>