<svg enable-background="new 0 0 100 100" viewBox="0 0 100 100" xmlns="http://www.w3.org/2000/svg"><g fill="#fff"><path d="m 23.88 49.25 s -1.63 2.75 -1.38 5.38 c 0 0 0 1.63 -.25 2.13 0 0 -1.38 2.63 .63 1.75 0 0 1.5 -.38 1 -1.75 0 0 0 -3.25 1.13 -4.63 l 1.5 -2.88"/><path d="m 92.16 76.67 c -1.37 -.11 -4.9 -1.11 -4.9 -1.11 -4.79 -.9 -16.18 .1 -16.18 .1 -7.11 .26 -8.38 -2.06 -8.38 -2.06 -2 -1.74 -2.63 -6.64 -2.69 -11.01 -.05 -4.37 .37 -7.59 -3.27 -14.86 s -10.8 -11.49 -10.8 -11.49 c -8.22 -3.74 -17.07 -2.16 -17.07 -2.16 -3.06 .37 -6.22 -1.79 -6.22 -1.79 -1.48 -.84 -1.9 -2.06 -1.9 -2.06 -.47 -1.69 -2.42 -5.43 -2.42 -5.43 1.37 -.69 3.16 -3.58 3.16 -3.58 .32 -.42 2.58 -3.06 2.58 -3.06 1.05 -1.69 -.69 -.16 -.69 -.16 -.69 .63 -1.84 1.32 -1.84 1.32 -2.21 .32 -4.9 2.21 -4.9 2.21 .16 -3 -.79 -4.59 -.79 -4.59 -1.11 -2.21 -2.69 -.32 -2.69 -.32 -2.06 1.9 -1.11 7.59 -1.11 7.59 -2.21 1.11 -3 3 -3 3 -.14 .99 -.78 1.78 -.78 1.78 l -1.26 1.26 c -1.26 1.42 -.63 3.32 -.63 3.32 .95 2.21 4.58 .63 4.58 .63 .95 -.16 1.74 -.47 1.74 -.47 1.74 .32 2.06 3.48 2.06 3.48 -.32 3.32 3.16 6.8 3.16 6.8 l 1.69 2.16 -.05 .63 c 0 1.16 -1.69 7.85 -1.69 7.85 -.53 2.16 .05 3.48 .05 3.48 .42 1 .16 2.16 .16 2.16 -.69 1.48 -.11 1.79 -.11 1.79 1.16 .79 2.53 -.84 2.53 -.84 .37 -.84 -.32 -3.06 -.32 -3.06 -.21 -.95 .1 -2.11 .1 -2.11 .21 -2.16 3.48 -6.17 3.48 -6.17 .53 1.11 4.27 2.42 4.27 2.42 .32 5.69 7.64 11.23 7.64 11.23 -.32 1.74 .1 9.22 .1 9.22 .11 2.06 -.53 2.21 -.53 2.21 -.79 .53 -7.64 .16 -7.64 .16 -2.48 -.11 -3.32 .37 -3.32 .37 -.79 .47 -2.63 .32 -2.63 .32 -2.69 -.32 -3 1.32 -3 1.32 -.45 1.1 1.53 1.28 2.95 1.27 1.2 -.4 3.52 -.87 7.89 -.98 h .01 .01 s .7 .03 1.68 .06 2.25 .06 3.37 .06 2.12 -.03 2.51 -.11 h .02 .02 l .06 -.01 .19 -.03 c .16 -.03 .37 -.1 .57 -.2 .41 -.22 .79 -.58 .79 -1.36 0 -.2 -.03 -.44 -.1 -.71 -.05 -.13 -.35 -.97 -.35 -2.66 0 -.51 .03 -1.09 .1 -1.75 l .5 .05 c -.07 .64 -.09 1.21 -.09 1.69 0 1.54 .26 2.32 .31 2.47 l .01 .03 .01 .02 .01 .02 c .08 .31 .11 .59 .11 .84 .01 .97 -.54 1.54 -1.06 1.8 -.52 .27 -1.01 .29 -1.03 .3 -.49 .09 -1.46 .11 -2.57 .11 -2.23 0 -4.98 -.11 -5.07 -.11 -3.93 .1 -6.16 .5 -7.39 .85 -.85 .67 .18 1.42 .18 1.42 1.42 1.16 6.85 .21 6.85 .21 3.64 -.53 10.8 -.16 10.8 -.16 2.27 .27 3.11 -.42 3.11 -.42 1.16 -.95 .32 -3.43 .32 -3.43 -.53 -2.16 -.74 -9.8 -.74 -9.8 .74 -.16 4.8 -.74 4.8 -.74 -.16 .53 4.43 -2.53 4.43 -2.53 .95 1.21 2.74 6.32 2.74 6.32 1.16 5.74 6.38 8.8 6.38 8.8 3.48 2.48 13.33 .79 13.33 .79 3.79 -.48 13.28 -.53 13.28 -.53 7.48 .1 7.06 -.95 7.06 -.95 .93 -1.06 -2.49 -1.11 -2.49 -1.11 z"/></g></svg>