<svg enable-background="new 0 0 320 360" height="360" viewBox="0 0 320 360" width="320" xmlns="http://www.w3.org/2000/svg"><path d="m 193.83 90.67 l -1.42 137.27 c 0 24.9 .59 37.94 1.78 39.12 4.03 -.24 8 -.36 11.92 -.36 s 6.1 .24 6.58 .71 c 1.18 4.98 1.78 12.21 1.78 21.69 0 9.49 -.6 14.23 -1.78 14.23 h -8.89 c -22.29 0 -42.2 1.3 -59.75 3.91 l -9.6 1.42 c -1.19 -.95 -1.78 -6.81 -1.78 -17.6 s .71 -16.89 2.13 -18.32 l 14.58 -2.49 c -.24 -3.32 -.36 -9.48 -.36 -18.49 l 1.42 -100.29 c 0 -21.1 -.83 -32.48 -2.49 -34.14 -.24 -.23 -1.31 -.36 -3.2 -.36 -1.9 0 -5.4 .42 -10.49 1.25 -5.1 .83 -9.72 1.72 -13.87 2.67 s -6.4 1.42 -6.76 1.42 -.53 -4.5 -.53 -13.51 1.18 -14.7 3.56 -17.07 c 2.37 -2.37 14.28 -7.52 35.74 -15.47 21.45 -7.94 34.55 -11.91 39.3 -11.91 .71 0 1.07 .12 1.07 .36 .7 .71 1.06 9.37 1.06 25.96 z" fill="#fff"/></svg>