<svg enable-background="new 0 0 841.889 595.281" height="595.28" viewBox="0 0 841.89 595.28" width="841.89" xmlns="http://www.w3.org/2000/svg"><g fill="#fff"><path d="m 183.92 161.56 c -22.12 0 -40.05 17.93 -40.05 40.05 v 285.46 h 124.48 v -325.51 z m 50.43 302.78 h -56.28 v -64.76 h 56.28 z m 0 -93.3 h -56.28 v -64.76 h 56.28 z m 0 -93.3 h -56.28 v -64.76 h 56.28 z"/><path d="m 657.44 161.56 h -84.44 v 325.51 h 124.48 v -285.46 c 0 -22.12 -17.93 -40.05 -40.04 -40.05 z m 5.84 302.78 h -56.28 v -64.76 h 56.28 z m 0 -93.3 h -56.28 v -64.76 h 56.28 z m 0 -93.3 h -56.28 v -64.76 h 56.28 z"/><path d="m 516.78 51.31 h -193.74 c -22.12 0 -40.05 17.93 -40.05 40.05 v 395.71 h 273.83 v -395.71 c 0 -22.12 -17.92 -40.05 -40.04 -40.05 z m -159.27 90.55 h 43.5 v -43.5 h 37.81 v 43.5 h 43.5 v 37.81 h -43.5 v 43.5 h -37.81 v -43.5 h -43.5 z m 150.85 135.08 v 46.58 h -79.56 v -46.58 z m -94.79 186.6 h -80.52 v -100.59 h 80.52 z m 0 -140.02 h -79.56 v -46.58 h 79.56 z m 95.27 140.02 h -80.51 v -100.59 h 80.51 z"/><path d="m 143.61 503.68 h 554.68 v 40.29 h -554.68 z"/></g></svg>