<svg enable-background="new 0 0 926.2177734 462.9159851" viewBox="0 0 926.22 462.92" xmlns="http://www.w3.org/2000/svg"><g fill="#fff"><path d="m 138.61 347.14 c -30.54 0 -55.39 24.84 -55.39 55.39 0 30.53 24.85 55.39 55.39 55.39 30.53 0 55.39 -24.85 55.39 -55.39 .01 -30.55 -24.84 -55.39 -55.39 -55.39 z m 0 86.46 c -17.16 0 -31.06 -13.91 -31.06 -31.06 0 -17.16 13.9 -31.06 31.06 -31.06 s 31.06 13.9 31.06 31.06 c 0 17.14 -13.9 31.06 -31.06 31.06 z"/><path d="m 138.61 393.78 c 4.83 0 8.75 3.92 8.75 8.75 s -3.92 8.75 -8.75 8.75 -8.74 -3.92 -8.74 -8.75 3.91 -8.75 8.74 -8.75 z"/><path d="m 524.93 5 c -15.32 0 -27.74 7.22 -27.74 16.14 h 55.46 c .01 -8.92 -12.41 -16.14 -27.72 -16.14 z"/><path d="m 656.51 5 c -15.31 0 -27.73 7.22 -27.73 16.14 h 55.45 c 0 -8.92 -12.4 -16.14 -27.72 -16.14 z"/><path d="m 679.84 347.14 c -30.54 0 -55.39 24.84 -55.39 55.39 0 30.53 24.84 55.39 55.39 55.39 30.53 0 55.39 -24.85 55.39 -55.39 .01 -30.55 -24.85 -55.39 -55.39 -55.39 z m 0 86.46 c -17.17 0 -31.07 -13.91 -31.07 -31.06 0 -17.16 13.9 -31.06 31.07 -31.06 17.15 0 31.06 13.9 31.06 31.06 0 17.14 -13.91 31.06 -31.06 31.06 z"/><path d="m 679.84 393.78 c 4.84 0 8.75 3.92 8.75 8.75 s -3.91 8.75 -8.75 8.75 c -4.83 0 -8.74 -3.92 -8.74 -8.75 s 3.91 -8.75 8.74 -8.75 z"/><path d="m 135.52 46.79 h 777.29 c -.71 -12.62 -10.17 -20.12 -25.63 -20.12 h -724.68 c -18.63 0 -26.84 14.87 -27.17 15.5 -.63 1.16 -.71 2.56 -.23 3.79 .1 .29 .25 .57 .42 .83 z"/><path d="m 198.86 380.38 c 0 .23 -.03 .47 -.06 .69 l 20.77 31.51 c .84 1.27 2.27 2.04 3.79 2.04 h 118.44 v -315.35 h -142.94 z m 20.11 -265.61 h 102.6 c 2.67 0 4.83 2.16 4.83 4.83 l .03 74.2 h -112.29 v -74.2 c 0 -2.67 2.16 -4.83 4.83 -4.83 z m -4.83 105.5 c 0 -2.51 2.03 -4.54 4.54 -4.54 s 4.55 2.03 4.55 4.54 v 19.66 c 0 2.51 -2.04 4.55 -4.55 4.55 -2.5 0 -4.54 -2.03 -4.54 -4.55 z"/><path d="m 916.91 379.61 h -4.03 v -20.88 c 1.75 -.55 3.02 -2.15 3.02 -4.08 v -5.03 c 0 -1.93 -1.27 -3.53 -3.02 -4.09 v -69.3 h -562.02 v 138.41 h 256.03 c 2.51 0 4.55 -2.03 4.55 -4.54 v -7.57 c 0 -38.97 30.68 -70.66 68.42 -70.66 37.73 0 68.42 31.71 68.42 70.77 l .15 7.48 c .04 2.47 2.06 4.46 4.54 4.46 h 150.88 v 2.59 c 0 2.37 1.93 4.27 4.28 4.27 h 8.82 c 2.38 0 4.28 -1.91 4.28 -4.27 v -33.27 c -.02 -2.37 -1.93 -4.29 -4.32 -4.29 z m -60.74 -15.63 h -97.55 c -1.25 0 -2.28 -1.03 -2.28 -2.28 s 1.03 -2.27 2.28 -2.27 h 97.55 c 1.25 0 2.27 1.02 2.27 2.27 s -1.02 2.28 -2.27 2.28 z m 0 -16.64 h -97.55 c -1.25 0 -2.28 -1.02 -2.28 -2.27 s 1.03 -2.28 2.28 -2.28 h 97.55 c 1.25 0 2.27 1.03 2.27 2.28 s -1.02 2.27 -2.27 2.27 z m 0 -16.64 h -97.55 c -1.25 0 -2.28 -1.02 -2.28 -2.27 0 -1.26 1.03 -2.27 2.28 -2.27 h 97.55 c 1.25 0 2.27 1.01 2.27 2.27 0 1.25 -1.02 2.27 -2.27 2.27 z"/><path d="m 536.96 128.48 c 11.26 0 20.39 9.13 20.39 20.39 s -9.13 20.39 -20.39 20.39 -20.39 -9.13 -20.39 -20.39 9.13 -20.39 20.39 -20.39 z"/><path d="m 521.73 177.66 h 30.49 v 25.28 h -30.49 z"/><path d="m 557.09 207.81 v 41 h 10.93 s 9.22 -12.32 11.41 -15.29 c 2.21 -2.97 2.95 -6.65 2.84 -9.02 -.1 -2.37 -2.35 -27.35 -2.35 -27.35 0 -10.76 -8.71 -19.49 -19.48 -19.49 h -3.35 z"/><path d="m 505.94 248.81 h 10.92 v -14.73 -56.43 h -3.34 c -10.76 0 -19.48 8.73 -19.48 19.49 0 0 -2.23 24.98 -2.34 27.35 -.13 2.38 .64 6.06 2.83 9.02 2.19 2.98 11.41 15.3 11.41 15.3 z"/><path d="m 697.68 193.05 c -.07 -.09 -.18 -.14 -.25 -.22 -3.56 -3.92 -8.65 -6.42 -14.36 -6.42 h -.68 c -10.76 0 -17.35 8.88 -19.48 19.48 l -11.55 47.39 h -195.63 v 13.88 h 283.3 v -19.93 z m .33 60.23 c 1.09 -9.29 .43 -20.09 .43 -20.09 l 20.31 20.09 z"/><path d="m 701.64 143.97 c 11.26 0 20.39 9.13 20.39 20.39 s -9.13 20.39 -20.39 20.39 -20.39 -9.13 -20.39 -20.39 9.13 -20.39 20.39 -20.39 z"/><path d="m 915.92 82.13 v -5.03 c 0 -1.93 -1.27 -3.54 -3.02 -4.07 v -21.69 h -770.67 l -43.79 171.09 c -1.37 .67 -3.42 1.69 -5.95 2.94 v -7.37 c 0 -1.26 -1.02 -2.27 -2.27 -2.27 s -2.27 1.02 -2.27 2.27 v 9.63 c -15.9 7.88 -42.29 20.95 -49.17 24.39 -13.81 6.91 -15.58 18.19 -15.58 27.25 v 4.79 c .17 -.04 .34 -.06 .5 -.06 h 7.12 c 1.25 0 2.27 1.02 2.27 2.28 0 1.25 -1.02 2.27 -2.27 2.27 h -7.12 c -.18 0 -.35 -.03 -.5 -.06 v 5.65 c .17 -.03 .34 -.06 .5 -.06 h 7.12 c 1.25 0 2.27 1.03 2.27 2.28 s -1.02 2.27 -2.27 2.27 h -7.12 c -.18 0 -.35 -.03 -.5 -.06 v 5.66 c .17 -.04 .34 -.07 .5 -.07 h 7.12 c 1.25 0 2.27 1.03 2.27 2.28 s -1.02 2.28 -2.27 2.28 h -7.12 c -.18 0 -.35 -.03 -.5 -.07 v 5.66 c .17 -.03 .34 -.06 .5 -.06 h 7.12 c 1.25 0 2.27 1.02 2.27 2.27 s -1.02 2.28 -2.27 2.28 h -7.12 c -.18 0 -.35 -.03 -.5 -.06 v 5.65 c .17 -.03 .34 -.06 .5 -.06 h 7.12 c 1.25 0 2.27 1.02 2.27 2.27 0 1.26 -1.02 2.28 -2.27 2.28 h -7.12 c -.18 0 -.35 -.02 -.5 -.06 v 5.66 c .17 -.04 .34 -.06 .5 -.06 h 7.12 c 1.25 0 2.27 1.02 2.27 2.27 s -1.02 2.27 -2.27 2.27 h -7.12 c -.18 0 -.35 -.02 -.5 -.06 v 5.66 c .17 -.04 .34 -.06 .5 -.06 h 7.12 c 1.25 0 2.27 1.02 2.27 2.27 0 1.26 -1.02 2.27 -2.27 2.27 h -7.12 c -.18 0 -.35 -.02 -.5 -.06 v 6.95 c -.41 -.13 -.84 -.22 -1.3 -.22 h -12.61 c -2.37 -.07 -4.29 1.85 -4.29 4.22 v 33.27 c 0 2.36 1.92 4.28 4.29 4.28 h 12.6 c 2.37 0 4.28 -1.93 4.28 -4.28 v -2.4 h 45.6 c 1.67 0 3.2 -.9 3.99 -2.38 l 6.31 -11.75 c .17 -.22 .34 -.48 .46 -.75 .6 -1.26 1.24 -2.47 1.92 -3.69 l .18 -.31 c 10.94 -19.24 31.67 -31.45 53.98 -31.45 20.49 0 39.59 10.1 51.18 26.96 v -272.7 c 0 -2.5 2.04 -4.54 4.54 -4.54 h 152.01 c 2.5 0 4.54 2.03 4.54 4.54 v 172.43 h 96.13 v -162.73 h 301.08 v 162.73 h 164.81 v -44.7 c 1.75 -.55 3.02 -2.15 3.02 -4.07 v -5.03 c 0 -1.93 -1.27 -3.54 -3.02 -4.08 v -123.06 c 1.75 -.55 3.02 -2.16 3.02 -4.09 z m -865.22 264.95 c -4.04 0 -7.31 -8.02 -7.31 -17.9 s 3.28 -17.9 7.31 -17.9 7.31 8.02 7.31 17.9 c -.01 9.88 -3.27 17.9 -7.31 17.9 z m 8.31 -47.88 c 0 1.12 -.91 2.05 -2.06 2.05 h -11.51 c -1.13 0 -2.06 -.92 -2.06 -2.05 v -4.61 c 0 -1.12 .92 -2.05 2.06 -2.05 h 11.52 c 1.13 0 2.06 .93 2.06 2.05 v 4.61 z m 118.16 -100.09 c 0 5.17 -4.2 9.38 -9.38 9.38 h -38.71 c -5.17 0 -9.38 -4.21 -9.38 -9.38 0 -1.12 .2 -2.21 .58 -3.25 l 26.92 -110.27 c 1.74 -6.78 7.8 -11.49 14.76 -11.49 8.4 0 15.22 6.83 15.22 15.22 z m 662.59 -30.13 c .88 -.05 1.76 -.09 2.67 -.09 11.96 0 21.67 5.62 21.67 12.55 h -25.61 z m -91.69 -81.17 h -301.08 l -37.92 -21 h 379.09 z m 52.06 58.94 c 0 -1.6 -.22 -3.94 18.24 -3.95 l 2.94 -11.51 c .06 -.31 .28 -.58 .58 -.74 l 8.22 -4.08 c .43 0 .83 .22 1.03 .62 .15 .26 .18 .58 .08 .88 -.09 .3 -.3 .56 -.6 .69 l -7.26 4.03 -2.58 10.13 c 16.32 .2 16.58 2.4 16.58 3.93 0 0 1.51 1.45 -18.8 1.45 -20.3 -.01 -18.43 -1.45 -18.43 -1.45 z m 5.64 60.13 l -5.61 -55.07 c 2.4 .64 7.42 1 18.41 1 11.15 0 16.22 -.37 18.66 -1.01 l -5.61 55.08 c -.64 5.61 -25.15 5.68 -25.85 0 z m 51.4 -2.84 h -20.98 l .67 -6.56 h 27.34 c 0 3.61 -3.14 6.56 -7.03 6.56 z m 4.24 -11.94 h -24 l .52 -5.28 h 23.48 c 1.53 0 2.81 1.19 2.81 2.63 0 1.45 -1.27 2.65 -2.81 2.65 z"/></g></svg>