<svg enable-background="new -59.056 -83.725 960 1358" height="1358" viewBox="-59.06 -83.73 960 1358" width="960" xmlns="http://www.w3.org/2000/svg"><path d="m 316.56 980.81 c -130.5 0 -252.79 -42.13 -355.55 -122.28 l -10.28 -8.22 205.52 -154.14 6.17 3.08 c 47.27 24.66 100.7 38.02 154.14 38.02 182.91 0 331.91 -149 331.91 -331.91 0 -22.61 -2.06 -45.21 -6.17 -66.79 l -2.06 -6.17 205.52 -154.14 5.14 12.33 c 27.74 68.85 41.1 140.78 41.1 214.77 0 317.52 -257.92 575.45 -575.44 575.45 z m 308.27 -620.67 l -1.03 -1.03 c -16.44 -3.08 -28.77 5.14 -38.02 14.39 l -1.03 1.03 1.03 -1.03 c -7.19 7.19 -11.3 15.41 -14.39 20.55 -1.03 1.03 0 3.08 2.06 3.08 13.36 -1.03 46.24 -6.17 52.41 -34.94 0 -1.02 0 -2.05 -1.03 -2.05 z m 12.33 65.77 c -24.66 -16.44 -51.38 3.08 -61.66 11.3 -1.03 1.03 -1.03 3.08 1.03 3.08 12.33 4.11 45.21 12.33 61.65 -12.33 .01 0 .01 -2.05 -1.02 -2.05 z m -8.22 64.74 c -16.44 -24.66 -48.3 -17.47 -61.66 -13.36 -1.03 0 -1.03 1.03 -1.03 1.03 v -1.03 c 0 1.03 0 1.03 1.03 2.06 6.17 5.14 17.47 13.36 30.83 17.47 h -1.03 1.03 c 9.25 2.06 20.55 2.06 30.83 -4.11 0 1.02 1.03 -1.04 0 -2.06 z m -27.74 56.51 c -9.25 -27.75 -42.13 -29.8 -55.49 -29.8 -1.03 0 -2.05 2.06 -1.03 3.08 7.19 11.3 26.72 38.02 55.49 29.8 0 -1.02 1.03 -2.05 1.03 -3.08 z m -77.07 11.31 c -1.03 0 -3.08 1.03 -2.06 2.06 4.11 12.33 17.47 43.16 47.27 41.1 1.03 0 2.06 -1.03 2.06 -2.06 -3.09 -28.77 -34.94 -38.02 -47.27 -41.1 z m -3.08 55.49 c -1.03 -1.03 -2.06 -2.06 -3.08 -3.08 -10.28 -8.22 -23.63 -13.36 -30.83 -15.41 -1.03 0 -1.03 0 -1.03 0 l -1.03 1.03 v 1.03 c 4.11 13.36 15.41 43.16 45.22 44.19 1.03 0 1.03 0 1.03 -1.03 l 1.03 -1.03 c -1.04 -10.29 -5.15 -18.51 -11.31 -25.7 z m -64.74 13.35 c -1.03 -1.03 -3.08 0 -3.08 1.03 0 13.36 2.06 46.24 29.8 55.49 1.03 0 2.06 0 3.08 -1.03 7.19 -27.74 -18.5 -48.29 -29.8 -55.49 z m -22.61 53.44 c 0 -2.06 -1.03 -5.14 -2.06 -7.19 -5.14 -13.36 -16.44 -24.66 -22.61 -29.8 -1.03 0 -1.03 -1.03 -2.06 0 -1.03 0 -1.03 1.03 -1.03 1.03 -1.03 7.19 -2.06 21.58 2.06 34.94 0 1.03 1.03 3.09 1.03 4.11 3.08 8.22 9.25 15.41 18.5 19.52 h 1.03 1.03 l 1.03 -1.03 c 4.11 -6.17 4.11 -14.39 3.08 -21.58 z m -53.43 14.39 c -2.06 -14.39 -11.3 -26.72 -16.44 -32.88 0 -1.03 -1.03 -1.03 -2.06 -1.03 s -1.03 1.03 -1.03 1.03 c -1.03 2.06 -1.03 4.11 -2.06 6.17 s -1.03 5.14 -2.06 8.22 c 0 1.03 0 3.08 -1.03 5.14 0 3.08 -1.03 6.17 0 10.28 v 5.14 c 0 1.03 0 3.08 1.03 4.11 2.06 8.22 6.17 16.44 14.39 22.61 h 2.06 1.03 c 3.08 -5.14 5.14 -9.25 6.17 -14.39 1.02 -5.16 1.02 -9.27 0 -14.4 z m -56.52 -26.72 c 0 -1.03 -2.06 -2.05 -3.08 -1.03 -5.14 6.17 -13.36 17.47 -16.44 30.83 0 1.03 0 2.06 -1.03 3.08 -1.03 9.25 0 18.5 5.14 27.74 l 1.03 1.03 h 1.03 1.03 c 9.25 -6.17 14.39 -15.42 15.41 -24.66 v -1.03 c 3.07 -13.35 -1.04 -27.74 -3.09 -35.96 z m -46.24 -7.19 c 0 -1.03 0 -1.03 -1.03 -1.03 s -1.03 0 -1.03 0 c -6.17 5.14 -17.47 14.39 -23.63 26.72 -4.11 9.25 -6.17 19.52 -2.06 30.83 0 1.03 2.06 2.06 3.08 1.03 10.28 -4.11 16.44 -11.3 20.55 -19.52 l 1.03 -3.08 c 4.12 -12.35 3.09 -26.73 3.09 -34.95 z m -47.27 -17.47 h -1.03 c -7.19 3.08 -20.55 8.22 -29.8 18.5 -1.03 1.03 -2.06 2.06 -3.08 3.08 -5.14 7.19 -9.25 15.41 -8.22 26.72 v 1.03 s 0 0 1.03 1.03 h 1.03 c 11.3 -1.03 19.52 -7.19 25.69 -14.39 9.25 -11.3 12.33 -25.69 14.39 -32.88 1.02 -2.07 1.02 -3.09 -.01 -3.09 z m 322.66 -233.27 c -20.55 -5.14 -33.91 14.39 -39.05 23.63 -1.03 1.03 0 2.06 1.03 2.06 9.25 0 33.91 -3.08 39.05 -23.63 0 -1.03 -1.03 -2.06 -1.03 -2.06 z m -17.47 71.94 c -5.14 -6.17 -12.33 -8.22 -18.5 -9.25 -1.03 0 -1.03 0 -2.06 0 -10.28 0 -19.52 3.08 -24.66 6.17 l -1.03 1.03 v 1.03 1.03 c 5.14 3.08 13.36 8.22 22.61 9.25 h 3.08 c 6.17 0 13.36 -1.03 19.52 -6.17 1.04 -1.04 2.07 -2.07 1.04 -3.09 z m -34.94 52.4 c -7.2 -20.55 -30.83 -21.58 -40.08 -20.55 -1.03 0 -2.06 1.03 -1.03 2.06 5.14 8.22 20.55 26.72 41.1 20.55 .01 0 1.04 -1.03 .01 -2.06 z m -53.43 32.89 c -1.03 -1.03 -1.03 -2.06 -2.06 -2.06 -7.2 -7.2 -16.44 -10.28 -21.58 -12.33 h -1.03 v 1.03 c 2.06 9.25 9.25 31.86 30.83 33.91 h 1.03 s 0 -1.03 1.03 -1.03 c -1.03 -8.22 -4.11 -14.39 -8.22 -19.52 z m -61.66 15.41 c -1.03 -1.03 -2.06 0 -2.06 1.03 0 6.17 0 19.52 6.17 29.8 l 1.03 2.06 v -1.03 c 3.08 4.11 7.19 8.22 13.36 10.28 1.03 0 2.06 0 2.06 -1.03 6.16 -19.53 -12.34 -34.95 -20.56 -41.11 z m -44.18 8.22 s -1.03 -1.03 0 0 c -1.03 -1.03 -2.06 -1.03 -2.06 -1.03 -4.11 4.11 -10.28 12.33 -13.36 21.58 0 1.03 -1.03 2.06 -1.03 3.08 -1.03 3.08 -1.03 6.17 0 9.25 0 3.08 1.03 6.17 3.08 10.28 l 1.03 1.03 h 1.03 c 7.19 -4.11 10.28 -11.3 12.33 -17.47 3.09 -10.28 0 -20.55 -1.02 -26.72 z m -54.46 4.11 c 0 -1.03 -1.03 -2.06 -2.06 -2.06 -5.14 2.06 -15.41 6.17 -22.61 13.36 0 0 -1.03 1.03 -1.03 2.06 -4.11 5.14 -7.19 11.31 -7.19 19.52 v 1.03 s 0 0 1.03 1.03 h 1.03 c 8.22 -1.03 14.39 -4.11 19.52 -9.25 0 0 0 0 1.03 -1.03 6.17 -9.25 9.25 -19.52 10.28 -24.66 z" fill="#fff"/></svg>