<svg enable-background="new 0 0 231.3 285" viewBox="0 0 231.3 285" xmlns="http://www.w3.org/2000/svg"><g fill="#fff"><path d="m 230.4 231.6 c -1.7 .1 -3.9 2.1 -9.1 3.2 -1.4 .3 -2.7 .4 -4.1 .2 -.2 0 -.2 -.2 -.1 -.3 1.5 -.7 3.6 -2.2 3.6 -2.8 0 -1.4 -7.8 .2 -9.2 1.3 -.6 .4 -1.1 1 -1.4 1.7 -.2 .6 -.7 1 -1.3 1.1 l -30.4 9.6 c -.8 .3 -1.7 -.1 -2.2 -.8 l -10 -13 c -.4 -.7 -1.3 -1 -2.1 -.8 l -15.5 5.4 c -.9 .3 -1.4 1.3 -1.1 2.2 .1 .3 .2 .5 .5 .7 l 25.7 21.8 c .8 .8 2.1 .9 3.1 .3 l 34.5 -19.1 c .1 0 .2 -.1 .3 -.1 .7 -.2 4.1 -.9 7.7 -1.9 3 -.8 6.4 -1.8 8 -3.2 1.5 -1.2 2.8 -2.7 3.9 -4.2 .2 -.4 .1 -.9 -.3 -1.1 -.2 -.1 -.3 -.2 -.5 -.2 z"/><path d="m 164.8 219.6 c -3.2 -3.5 -11.2 -11.5 -14.9 -14.5 -1 -.8 -2.3 -1.2 -3.6 -1.2 l -16.1 .1 c -.4 -.1 -1.1 .3 -.9 .7 2.7 5.9 -1.6 17.8 -15.3 18.1 -13.6 -.2 -17.9 -12.1 -15.3 -18.1 .2 -.4 -.5 -.7 -.9 -.7 l -16.1 -.1 c -1.3 0 -2.6 .4 -3.6 1.2 -5.2 4.6 -10.2 9.4 -14.9 14.5 -.8 .9 -.6 2.3 .5 3.6 l 21.5 10.9 c 1.1 .6 1.6 .5 1.6 1.5 l .4 47.5 c .1 1.1 .9 1.9 2 2 h 49.8 c 1.1 -.1 1.9 -.9 2 -2 l .4 -47.5 c 0 -1 .6 -1.8 1.6 -2.1 l 21.5 -10.9 c .9 -.5 1.2 -1.7 .6 -2.6 -.1 -.2 -.2 -.3 -.3 -.4 z"/><path d="m 122.2 206.6 l .6 -.6 c 4.9 -4.8 9.8 -8.7 9.8 -16.4 0 -.7 .6 -1.3 1.3 -1.3 h .9 c 1 0 1.8 -.7 1.9 -1.7 l 1.2 -8.8 c .1 -.6 -.3 -1.1 -.9 -1.2 -.4 -.1 -.8 .1 -1 .4 -.4 .6 -1.3 .7 -1.9 .3 -.3 -.2 -.5 -.5 -.5 -.9 l 2.7 -12.6 c .6 -2.7 -1.1 -5.3 -3.8 -5.8 -.3 -.1 -.7 -.1 -1 -.1 h -2.8 l 3.9 -3.9 c 0 -3.3 -2.6 -5.9 -5.9 -5.9 h -19.6 c -5.4 0 -9.8 4.4 -9.8 9.8 h -.8 c -2.7 0 -4.9 2.2 -4.9 4.9 0 .3 0 .7 .1 1 l 2.7 12.7 c -.2 .7 -1 1.1 -1.7 .9 -.3 -.1 -.5 -.2 -.7 -.5 -.3 -.5 -1 -.6 -1.5 -.2 -.3 .2 -.5 .6 -.4 1 l 1.2 8.8 c .1 1 1 1.7 2 1.7 h .7 c .7 0 1.3 .6 1.3 1.3 0 7.7 4.9 11.6 9.8 16.4 l .6 .6 1.6 1.6 c .4 .4 .4 1 -.1 1.4 -.2 .2 -.4 .3 -.6 .3 h -1.6 c -.3 0 -.6 .2 -.6 .5 v .1 c 1.5 5.2 6.9 8.3 12.1 6.8 3.3 -.9 5.9 -3.5 6.8 -6.8 .1 -.3 -.1 -.6 -.4 -.7 h -.1 -1.6 c -.6 0 -1 -.5 -1 -1 0 -.2 .1 -.5 .3 -.6 z m -8.2 -7.5 c -3.7 0 -6.8 -1.1 -6.8 -2.4 s 3 -2.4 6.8 -2.4 6.8 1.1 6.8 2.4 -3.1 2.4 -6.8 2.4 z"/><path d="m 78.8 239.1 l -9.5 -4.4 c -.9 -.3 -1.9 .2 -2.2 1.1 -.1 .3 -.1 .5 -.1 .8 l 3.6 43.5 c .1 1 1 1.9 2 1.9 h 7.4 v -41 c .1 -.8 -.4 -1.6 -1.2 -1.9 z"/><path d="m 101.5 72 h -20 c -1.4 0 -2.5 1.1 -2.5 2.5 s 1.1 2.5 2.5 2.5 h 20 c 1.4 0 2.5 -1.1 2.5 -2.5 s -1.1 -2.5 -2.5 -2.5 z"/><path d="m 68.1 63.5 c -.2 .3 -.6 .4 -.9 .2 -.2 -.1 -.3 -.3 -.3 -.5 l 1.3 -6.3 c .3 -1.3 -.5 -2.6 -1.8 -2.9 -.2 0 -.4 -.1 -.6 -.1 h -1.4 l 2 -2 c 0 -1.6 -1.3 -2.9 -2.9 -2.9 h -9.8 c -2.7 0 -4.9 2.2 -4.9 4.9 v .1 h -.4 c -1.4 0 -2.5 1.1 -2.5 2.4 0 .2 0 .4 .1 .6 l 1.3 6.4 c -.1 .4 -.4 .6 -.8 .5 -.2 0 -.3 -.1 -.4 -.3 -.1 -.3 -.5 -.4 -.7 -.2 -.2 .1 -.3 .4 -.3 .6 l .6 4.4 c .1 .5 .5 .9 1 .8 h .3 c .4 0 .7 .3 .7 .7 0 3.9 2.4 5.8 4.9 8.2 l .1 .1 c .6 .6 4.7 3.8 8.7 -.1 2.4 -2.4 4.9 -4.3 4.9 -8.2 0 -.4 .3 -.7 .7 -.7 h .4 c .5 0 .9 -.4 1 -.8 l .6 -4.4 c 0 -.3 -.2 -.5 -.5 -.6 -.2 0 -.3 .1 -.4 .1 z"/><path d="m 126.5 62 h -45 c -1.4 0 -2.5 1.1 -2.5 2.5 s 1.1 2.5 2.5 2.5 h 45 c 1.4 0 2.5 -1.1 2.5 -2.5 s -1.1 -2.5 -2.5 -2.5 z"/><path d="m 126.5 52 h -45 c -1.4 0 -2.5 1.1 -2.5 2.5 s 1.1 2.5 2.5 2.5 h 45 c 1.4 0 2.5 -1.1 2.5 -2.5 s -1.1 -2.5 -2.5 -2.5 z"/><path d="m 150.1 133.3 l -4.9 12.5 c -.4 1.1 .1 2.3 1.2 2.7 .6 .2 1.2 .2 1.7 -.1 l 26.1 -13.3 23.2 -13.6 c .6 -.4 1.4 -.3 2 .1 .7 .6 .9 1.7 .3 2.4 -.1 .1 -.1 .1 -.2 .2 l -7 6.6 c -.3 .2 -.3 .7 0 .9 .1 .1 .3 .2 .5 .2 h 13.8 c 11.7 0 21.2 -9.5 21.2 -21.3 v -89.3 c 0 -11.8 -9.5 -21.3 -21.3 -21.3 h -186.7 c -11 0 -20 9 -20 20 v 90.7 c 0 11.8 9.5 21.3 21.3 21.3 h 127.9 c .6 0 1 .5 .9 1.1 z m 28.4 -36.3 c -3.5 0 -6.3 -2.8 -6.3 -6.3 s 2.8 -6.3 6.3 -6.3 6.3 2.8 6.3 6.3 -2.8 6.3 -6.3 6.3 z m -12.3 -64.4 c 3.7 -3.1 8.4 -4.8 13.3 -4.8 10.8 0 19.5 8 19.5 17.8 0 1.3 -.2 2.6 -.5 3.9 -.7 4.5 -3.7 8.4 -8.4 11.8 -7.8 5.4 -6.2 6.2 -6.2 11.7 0 3 -2.4 5.5 -5.5 5.5 s -5.4 -2.5 -5.4 -5.5 v -5.5 c 0 -1.7 .5 -3.3 1.3 -4.8 1.5 -2.6 3.9 -4.3 4.9 -5.4 1.8 -1.7 3.6 -3.6 5.1 -5.6 1.3 -1.4 2.1 -3.3 2.1 -5.3 0 -2.9 -1.6 -5.6 -4.2 -6.9 -1.2 -.6 -2.4 -.9 -3.7 -.9 -1.2 0 -2.3 .3 -3.4 .8 -6.3 2.4 -5.4 10.2 -10.7 10.2 -1.7 .1 -3.3 -.5 -4.4 -1.8 -.8 -1.1 -1.2 -2.4 -1.1 -3.7 .1 -3.9 3.1 -8.4 7.3 -11.5 z m -22.2 59.4 c 0 2.8 -2.2 5 -5 5 h -105 c -2.8 0 -5 -2.2 -5 -5 v -55 c 0 -2.8 2.2 -5 5 -5 h 105 c 2.8 0 5 2.2 5 5 z"/></g></svg>