<svg enable-background="new 0 0 227.3 285" viewBox="0 0 227.3 285" xmlns="http://www.w3.org/2000/svg"><g fill="#fff"><path d="m 75.2 48 c 1.1 0 2 .9 2 2 s -.9 2 -2 2 -2 -.9 -2 -2 .9 -2 2 -2 z"/><path d="m 117.5 87 h -12.5 c -2.8 0 -5 2.2 -5 5 v 7.5 c 0 1.4 1.1 2.5 2.5 2.5 h 15 c 1.4 0 2.5 -1.1 2.5 -2.5 v -10 c 0 -1.4 -1.1 -2.5 -2.5 -2.5 z"/><path d="m 95.6 29.4 l -23.3 -2.6 c -.4 0 -.8 -.4 -.9 -.8 l -.6 -3.2 c -.1 -.5 -.5 -.8 -1 -.8 h -5.8 c -.6 0 -1 .4 -1 1 s .4 1 1 1 h 4.2 c .5 0 .9 .3 1 .8 l .3 1.7 2.5 12.5 c 0 .2 0 .5 -.1 .7 l -3.1 5.4 c -.3 .5 -.1 1.1 .4 1.4 l .6 .4 c .2 .1 .3 .1 .5 .1 h 23.7 c .6 0 1 -.4 1 -1 s -.4 -1 -1 -1 h -21.1 c -.6 0 -1 -.4 -1 -1 0 -.2 0 -.4 .1 -.5 l .9 -1.5 c .2 -.3 .5 -.5 .9 -.5 h 21.8 c .6 0 1 -.4 1 -1 v -10.1 c -.1 -.5 -.5 -.9 -1 -1 z"/><path d="m 90.2 48 c 1.1 0 2 .9 2 2 s -.9 2 -2 2 -2 -.9 -2 -2 .9 -2 2 -2 z"/><path d="m 87.5 61.9 h -12.5 c -2.8 0 -5 2.2 -5 5 v 7.5 c 0 1.4 1.1 2.5 2.5 2.5 h 15 c 1.4 0 2.5 -1.1 2.5 -2.5 v -10 c 0 -1.3 -1.1 -2.5 -2.5 -2.5 z"/><path d="m 146.1 133.3 l -4.9 12.5 c -.4 1.1 .1 2.3 1.2 2.7 .6 .2 1.2 .2 1.7 -.1 l 26.1 -13.3 23.2 -13.6 c .6 -.4 1.4 -.3 2 .1 .7 .6 .9 1.7 .3 2.4 -.1 .1 -.1 .1 -.2 .2 l -7 6.6 c -.3 .2 -.3 .7 0 .9 .1 .1 .3 .2 .5 .2 h 9.8 c 11.7 0 21.2 -9.5 21.2 -21.3 v -89.3 c 0 -11.8 -9.5 -21.3 -21.3 -21.3 h -178.7 c -11 0 -20 9 -20 20 v 90.7 c 0 11.8 9.5 21.3 21.3 21.3 h 123.9 c .6 0 1 .5 .9 1.1 z m 23.2 -22.3 c -4.5 0 -8.2 -3.7 -8.2 -8.2 s 3.7 -8.2 8.2 -8.2 8.2 3.7 8.2 8.2 -3.7 8.2 -8.2 8.2 z m -39.3 3.5 c 0 1.4 -1.1 2.5 -2.5 2.5 h -35 c -1.4 0 -2.5 -1.1 -2.5 -2.5 v -25 c 0 -1.4 -1.1 -2.5 -2.5 -2.5 h -12.5 c -2.8 0 -5 2.2 -5 5 v 22.5 c 0 1.4 -1.1 2.5 -2.5 2.5 h -35 c -1.4 0 -2.5 -1.1 -2.5 -2.5 v -52.6 c 0 -5.5 4.5 -9.9 10 -9.9 v -24 c 0 -5.5 4.5 -10 10 -10 h 67.5 c 1.4 0 2.5 1.1 2.5 2.5 v 26.5 l -6.2 3.1 c -.3 .2 -.5 .5 -.6 .9 0 .6 .4 1 1 1 h 13.3 c 1.4 0 2.5 1.1 2.5 2.5 z m 23.3 -87.3 c 4.9 -4 11 -6.2 17.3 -6.2 14 0 25.4 10.4 25.4 23.1 0 1.7 -.2 3.4 -.6 5.1 -1 5.8 -4.8 11 -10.9 15.3 -10.1 7.1 -8.1 8.1 -8.1 15.2 0 3.9 -3.2 7.1 -7.1 7.1 s -7.1 -3.2 -7.1 -7.1 v -7.1 c 0 -2.2 .6 -4.3 1.7 -6.2 1.9 -3.4 5.1 -5.7 6.4 -7 2.4 -2.2 4.6 -4.7 6.7 -7.2 1.7 -1.9 2.7 -4.3 2.7 -6.9 0 -3.8 -2 -7.3 -5.4 -9 -1.5 -.8 -3.2 -1.2 -4.9 -1.3 -1.5 0 -3 .3 -4.4 1 -8.2 3.1 -7 13.3 -13.9 13.3 -2.2 .2 -4.3 -.7 -5.7 -2.3 -1 -1.4 -1.5 -3.1 -1.4 -4.8 0 -5.1 3.9 -11 9.3 -15 z"/><path d="m 57.5 87 h -12.5 c -2.8 0 -5 2.2 -5 5 v 7.5 c 0 1.4 1.1 2.5 2.5 2.5 h 15 c 1.4 0 2.5 -1.1 2.5 -2.5 v -10 c 0 -1.4 -1.1 -2.5 -2.5 -2.5 z"/><path d="m 57.5 61.9 h -12.5 c -2.8 0 -5 2.2 -5 5 v 7.5 c 0 1.4 1.1 2.5 2.5 2.5 h 15 c 1.4 0 2.5 -1.1 2.5 -2.5 v -10 c 0 -1.3 -1.1 -2.5 -2.5 -2.5 z"/><path d="m 117.5 61.9 h -12.5 c -2.8 0 -5 2.2 -5 5 v 7.5 c 0 1.4 1.1 2.5 2.5 2.5 h 15 c 1.4 0 2.5 -1.1 2.5 -2.5 v -10 c 0 -1.3 -1.1 -2.5 -2.5 -2.5 z"/><path d="m 226.4 231.6 c -1.7 .1 -3.9 2.1 -9.1 3.2 -1.4 .3 -2.7 .4 -4.1 .2 -.2 0 -.2 -.2 -.1 -.3 1.5 -.7 3.6 -2.2 3.6 -2.8 0 -1.4 -7.8 .2 -9.2 1.3 -.6 .4 -1.1 1 -1.4 1.7 -.2 .6 -.7 1 -1.3 1.1 l -30.4 9.6 c -.8 .3 -1.7 -.1 -2.2 -.8 l -10 -13 c -.4 -.7 -1.3 -1 -2.1 -.8 l -15.5 5.4 c -.9 .3 -1.4 1.3 -1.1 2.2 .1 .3 .2 .5 .5 .7 l 25.7 21.8 c .8 .8 2.1 .9 3.1 .3 l 34.5 -19.1 c .1 0 .2 -.1 .3 -.1 .7 -.2 4.1 -.9 7.7 -1.9 3 -.8 6.4 -1.8 8 -3.2 1.5 -1.2 2.8 -2.7 3.9 -4.2 .2 -.4 .1 -.9 -.3 -1.1 -.2 -.1 -.3 -.2 -.5 -.2 z"/><path d="m 160.8 219.6 c -3.2 -3.5 -11.2 -11.5 -14.9 -14.5 -1 -.8 -2.3 -1.2 -3.6 -1.2 l -16.1 .1 c -.4 -.1 -1.1 .3 -.9 .7 2.7 5.9 -1.6 17.8 -15.3 18.1 -13.6 -.2 -17.9 -12.1 -15.3 -18.1 .2 -.4 -.5 -.7 -.9 -.7 l -16.1 -.1 c -1.3 0 -2.6 .4 -3.6 1.2 -5.2 4.6 -10.2 9.4 -14.9 14.5 -.8 .9 -.6 2.3 .5 3.6 l 21.5 10.9 c 1.1 .6 1.6 .5 1.6 1.5 l .4 47.5 c .1 1.1 .9 1.9 2 2 h 49.8 c 1.1 -.1 1.9 -.9 2 -2 l .4 -47.5 c 0 -1 .6 -1.8 1.6 -2.1 l 21.5 -10.9 c .9 -.5 1.2 -1.7 .6 -2.6 -.1 -.2 -.2 -.3 -.3 -.4 z"/><path d="m 118.2 206.6 l .6 -.6 c 4.9 -4.8 9.8 -8.7 9.8 -16.4 0 -.7 .6 -1.3 1.3 -1.3 h .9 c 1 0 1.9 -.7 2 -1.7 l 1.2 -8.8 c .1 -.6 -.3 -1.1 -.9 -1.2 -.4 -.1 -.8 .1 -1 .4 -.4 .6 -1.3 .8 -1.9 .3 -.3 -.2 -.5 -.6 -.6 -.9 l 2.7 -12.6 c .5 -2.7 -1.2 -5.3 -3.8 -5.8 -.3 -.1 -.6 -.1 -1 -.1 h -2.8 l 3.9 -3.9 c 0 -3.3 -2.6 -5.9 -5.9 -5.9 h -19.7 c -5.4 0 -9.8 4.4 -9.8 9.8 h -.8 c -2.7 0 -4.9 2.2 -4.9 4.9 0 .4 0 .7 .1 1 l 2.7 12.7 c -.1 .3 -.3 .6 -.5 .8 -.6 .4 -1.5 .3 -1.9 -.3 -.3 -.5 -1 -.6 -1.5 -.2 -.3 .2 -.5 .6 -.4 1 l 1.2 8.8 c .1 1 1 1.7 2 1.7 h .8 c .7 0 1.3 .6 1.3 1.3 0 7.7 4.9 11.6 9.8 16.4 .2 .2 .4 .4 .6 .6 l 1.6 1.6 c .4 .4 .4 1 -.1 1.4 -.2 .2 -.4 .3 -.6 .3 h -1.6 c -.3 0 -.6 .2 -.6 .5 v .1 c 1.5 5.2 6.9 8.3 12.1 6.8 3.3 -.9 5.9 -3.5 6.8 -6.8 .1 -.3 -.1 -.6 -.4 -.7 h -.1 -1.6 c -.3 0 -.5 -.1 -.7 -.3 -.4 -.4 -.4 -1 0 -1.4 z m -8.2 -7.5 c -3.7 0 -6.7 -1.1 -6.7 -2.4 s 3 -2.4 6.7 -2.4 6.8 1.1 6.8 2.4 -3.1 2.4 -6.8 2.4 z"/><path d="m 74.8 239.1 l -9.5 -4.4 c -.9 -.3 -1.9 .2 -2.2 1.1 -.1 .3 -.1 .5 -.1 .8 l 3.6 43.5 c .1 1 1 1.9 2 1.9 h 7.4 v -41 c .1 -.8 -.4 -1.6 -1.2 -1.9 z"/></g></svg>