<svg enable-background="new 0 0 841.889 1190.551" height="1190.55" viewBox="0 0 841.89 1190.55" width="841.89" xmlns="http://www.w3.org/2000/svg"><g fill="#fff"><path d="m 525.34 522.03 c 0 -4.21 .84 -31.99 7.58 -45.46 7.58 -14.31 13.47 -27.78 9.26 -37.04 0 -5.05 -3.37 2.53 -3.37 4.21 0 0 0 .84 -.84 .84 l -3.37 3.37 -4.21 3.37 s 0 0 -.84 0 l -5.89 1.69 s -.84 0 -.84 .84 l -3.37 4.21 -.84 .84 -9.26 3.37 -.84 .84 c -.84 1.68 -3.37 .84 -3.37 -.84 l .84 -5.9 c 0 -2.52 -3.37 -23.57 -5.05 -33.68 -1.69 -9.26 -6.74 -13.47 -8.42 -14.31 l -.84 -.84 c -.84 -2.53 -5.05 -16 -13.47 -3.37 l -3.37 5.05 v .84 c -.84 3.37 -8.42 32.83 -11.79 40.41 -4.21 8.42 -24.42 16.84 -28.63 47.15 0 .84 -.84 9.26 -15.15 18.52 -15.15 10.1 -24.42 26.94 -24.42 26.94 s -16.84 29.47 14.31 21.05 c 16 -4.21 10.94 -2.53 21.89 -7.58 1.68 -.84 1.68 8.42 .84 9.26 -3.37 5.89 -3.37 5.89 -13.47 10.94 -9.26 5.05 -21.05 13.47 -37.89 16 -13.47 1.69 -31.15 4.21 -69.88 20.2 -47.99 20.2 -90.08 31.15 -90.08 31.15 s -41.25 11.79 -79.98 66.51 c -61.44 83.35 -55.55 111.98 -107.75 145.65 -52.2 33.68 37.04 20.21 37.04 20.21 40.32 -23.46 74.88 -72.44 89.81 -122.51 3.1 -3.37 6.22 -6.72 9.37 -10.05 .77 14.09 1.45 30.25 .16 42.48 -1.68 23.57 -32.83 54.72 -36.2 58.09 0 0 0 .84 -.84 .84 l -13.47 74.09 c -.84 6.73 -.84 8.42 -2.53 15.15 0 .84 -.84 3.37 -.84 10.1 0 3.05 1.61 5.94 3.95 8.24 l 20.56 -2.5 c -.23 -.78 -.29 -1.61 -.18 -2.42 -3.06 -9.61 -.64 -39.99 .93 -46.25 2.53 -8.42 20.2 -37.89 23.57 -42.1 l .84 -.84 c 3.37 -1.68 26.1 -16.84 40.41 -29.47 9.26 -8.42 15.15 -16.84 17.68 -21.89 0 -.5 1.47 -2.46 3.53 -5.37 .38 1.41 1.31 2.4 2.46 2.97 -1.15 2.2 -1.78 3.66 -1.78 4.08 0 8.42 -5.89 27.78 -26.1 50.52 -3.37 4.21 -5.05 4.21 -5.89 6.73 -2.53 7.58 0 28.62 7.58 51.35 2.19 6.48 4.86 20.52 7.55 24.06 l -2.37 .27 c .01 .02 .02 .03 .02 .04 l 39.53 -4.81 c -.02 -.07 -.03 -.15 -.05 -.22 l -1.81 .22 c .59 -2.19 .06 -5.24 .06 -5.24 s -.84 -5.89 -14.31 -10.1 c -12.63 -3.37 -13.47 -40.41 -13.47 -46.31 0 -.84 0 -.84 .84 -1.69 7.58 -5.05 63.14 -41.25 70.72 -70.72 5.05 -18.52 7.58 -30.31 10.1 -37.89 0 -.7 1.74 -4.89 -.1 -6.77 .66 -.53 1.3 -1.08 1.92 -1.65 h .71 c 2.53 0 47.99 4.21 79.98 -9.26 3.49 -1.4 11.31 -5.39 19.09 -9.41 .03 1.2 .56 2.44 1.42 3.41 -3.04 3.59 -4.52 10.39 -4.52 27.89 l -10.94 113.65 v .84 c 1.6 2.36 14.57 24.47 16.34 34.06 l -.71 .09 c .02 .05 .04 .11 .07 .16 l 24.82 -3.02 c .01 -.04 .01 -.08 .01 -.12 -.2 .02 -.4 .04 -.6 .07 -.59 -2.27 -.61 -7.49 -4.57 -10.19 -13.47 -9.26 -10.1 -21.05 -10.1 -22.73 3.37 -42.09 18.52 -83.35 22.73 -90.08 l 3.45 -6.37 c .78 6.67 2.12 13.32 3.65 19.88 l 10.58 81.62 5.05 10.1 c 1.16 1.15 5.02 7.9 7.02 12.01 .69 .31 1.36 .66 2.02 1.03 l 25.48 -3.1 c -.17 -1.52 -.59 -2.95 -1.69 -4.04 -6.73 -5.89 -9.26 -8.42 -15.15 -12.63 -3.37 -2.52 -6.73 -58.93 7.58 -117.02 10.1 -39.57 16 -60.62 25.26 -77.45 1.69 -2.53 .84 -5.05 1.69 -6.73 .84 -1.69 4.21 0 5.05 -1.69 s .84 -7.58 .84 -8.42 c .84 -1.69 3.37 2.53 4.21 .84 s 0 -7.58 .84 -9.26 c .84 -.84 2.53 .84 2.53 0 .84 -1.69 -.84 -5.05 .84 -5.9 4.21 -1.68 8.42 -16 8.42 -17.68 10.94 -28.62 16.84 -75.77 -7.58 -124.6 z"/><path d="m 119.63 953.25 c -.12 -.11 -.23 -.23 -.34 -.34 l -1.43 .17 c .51 .08 1.1 .17 1.77 .17 z"/></g></svg>